G04 #@! TF.GenerationSoftware,KiCad,Pcbnew,8.0.5*
G04 #@! TF.CreationDate,2024-11-10T14:51:54+09:00*
G04 #@! TF.ProjectId,house_controller_multiplex_breakout_board,686f7573-655f-4636-9f6e-74726f6c6c65,rev?*
G04 #@! TF.SameCoordinates,Original*
G04 #@! TF.FileFunction,Copper,L1,Top*
G04 #@! TF.FilePolarity,Positive*
%FSLAX46Y46*%
G04 Gerber Fmt 4.6, Leading zero omitted, Abs format (unit mm)*
G04 Created by KiCad (PCBNEW 8.0.5) date 2024-11-10 14:51:54*
%MOMM*%
%LPD*%
G01*
G04 APERTURE LIST*
G04 Aperture macros list*
%AMRoundRect*
0 Rectangle with rounded corners*
0 $1 Rounding radius*
0 $2 $3 $4 $5 $6 $7 $8 $9 X,Y pos of 4 corners*
0 Add a 4 corners polygon primitive as box body*
4,1,4,$2,$3,$4,$5,$6,$7,$8,$9,$2,$3,0*
0 Add four circle primitives for the rounded corners*
1,1,$1+$1,$2,$3*
1,1,$1+$1,$4,$5*
1,1,$1+$1,$6,$7*
1,1,$1+$1,$8,$9*
0 Add four rect primitives between the rounded corners*
20,1,$1+$1,$2,$3,$4,$5,0*
20,1,$1+$1,$4,$5,$6,$7,0*
20,1,$1+$1,$6,$7,$8,$9,0*
20,1,$1+$1,$8,$9,$2,$3,0*%
G04 Aperture macros list end*
G04 #@! TA.AperFunction,SMDPad,CuDef*
%ADD10RoundRect,0.250000X-0.450000X0.325000X-0.450000X-0.325000X0.450000X-0.325000X0.450000X0.325000X0*%
G04 #@! TD*
G04 #@! TA.AperFunction,SMDPad,CuDef*
%ADD11RoundRect,0.250000X0.450000X-0.350000X0.450000X0.350000X-0.450000X0.350000X-0.450000X-0.350000X0*%
G04 #@! TD*
G04 #@! TA.AperFunction,ComponentPad*
%ADD12R,1.600000X1.600000*%
G04 #@! TD*
G04 #@! TA.AperFunction,ComponentPad*
%ADD13O,1.600000X1.600000*%
G04 #@! TD*
G04 #@! TA.AperFunction,SMDPad,CuDef*
%ADD14RoundRect,0.250000X-0.450000X0.350000X-0.450000X-0.350000X0.450000X-0.350000X0.450000X0.350000X0*%
G04 #@! TD*
G04 #@! TA.AperFunction,ComponentPad*
%ADD15R,1.800000X1.800000*%
G04 #@! TD*
G04 #@! TA.AperFunction,ComponentPad*
%ADD16C,1.800000*%
G04 #@! TD*
G04 #@! TA.AperFunction,ComponentPad*
%ADD17R,1.700000X1.700000*%
G04 #@! TD*
G04 #@! TA.AperFunction,ComponentPad*
%ADD18O,1.700000X1.700000*%
G04 #@! TD*
G04 #@! TA.AperFunction,SMDPad,CuDef*
%ADD19RoundRect,0.250000X-0.350000X-0.450000X0.350000X-0.450000X0.350000X0.450000X-0.350000X0.450000X0*%
G04 #@! TD*
G04 #@! TA.AperFunction,SMDPad,CuDef*
%ADD20RoundRect,0.100000X-0.637500X-0.100000X0.637500X-0.100000X0.637500X0.100000X-0.637500X0.100000X0*%
G04 #@! TD*
G04 #@! TA.AperFunction,ViaPad*
%ADD21C,0.600000*%
G04 #@! TD*
G04 #@! TA.AperFunction,Conductor*
%ADD22C,0.127000*%
G04 #@! TD*
G04 #@! TA.AperFunction,Conductor*
%ADD23C,0.300000*%
G04 #@! TD*
G04 APERTURE END LIST*
D10*
X71750000Y-62225000D03*
X71750000Y-64275000D03*
D11*
X111000000Y-71000000D03*
X111000000Y-69000000D03*
D12*
X140750000Y-75000000D03*
D13*
X140750000Y-82620000D03*
D11*
X90500000Y-71500000D03*
X90500000Y-69500000D03*
D12*
X77000000Y-117380000D03*
D13*
X77000000Y-125000000D03*
D11*
X92750000Y-66750000D03*
X92750000Y-64750000D03*
D14*
X102250000Y-92750000D03*
X102250000Y-94750000D03*
D15*
X75210000Y-95250000D03*
D16*
X77750000Y-95250000D03*
D14*
X131800000Y-116000000D03*
X131800000Y-118000000D03*
D17*
X131290000Y-61000000D03*
D18*
X128750000Y-61000000D03*
X126210000Y-61000000D03*
X123670000Y-61000000D03*
D10*
X99750000Y-106330000D03*
X99750000Y-108380000D03*
D12*
X137250000Y-108982500D03*
D13*
X137250000Y-116602500D03*
D14*
X65480000Y-106827500D03*
X65480000Y-108827500D03*
X92750000Y-111880000D03*
X92750000Y-113880000D03*
D15*
X68960000Y-118750000D03*
D16*
X71500000Y-118750000D03*
D12*
X85250000Y-82130000D03*
D13*
X85250000Y-89750000D03*
D14*
X131200000Y-66250000D03*
X131200000Y-68250000D03*
X113250000Y-99647500D03*
X113250000Y-101647500D03*
X131800000Y-109250000D03*
X131800000Y-111250000D03*
X92750000Y-118380000D03*
X92750000Y-120380000D03*
D10*
X99750000Y-83700000D03*
X99750000Y-85750000D03*
D19*
X63750000Y-118000000D03*
X65750000Y-118000000D03*
D15*
X102960000Y-107130000D03*
D16*
X105500000Y-107130000D03*
D14*
X65480000Y-100327500D03*
X65480000Y-102327500D03*
X128250000Y-66250000D03*
X128250000Y-68250000D03*
D11*
X135500000Y-86250000D03*
X135500000Y-84250000D03*
D19*
X137000000Y-104000000D03*
X139000000Y-104000000D03*
D12*
X72000000Y-101482500D03*
D13*
X72000000Y-109102500D03*
D14*
X65000000Y-71750000D03*
X65000000Y-73750000D03*
D20*
X97387500Y-68425000D03*
X97387500Y-69075000D03*
X97387500Y-69725000D03*
X97387500Y-70375000D03*
X97387500Y-71025000D03*
X97387500Y-71675000D03*
X97387500Y-72325000D03*
X97387500Y-72975000D03*
X97387500Y-73625000D03*
X97387500Y-74275000D03*
X97387500Y-74925000D03*
X97387500Y-75575000D03*
X103112500Y-75575000D03*
X103112500Y-74925000D03*
X103112500Y-74275000D03*
X103112500Y-73625000D03*
X103112500Y-72975000D03*
X103112500Y-72325000D03*
X103112500Y-71675000D03*
X103112500Y-71025000D03*
X103112500Y-70375000D03*
X103112500Y-69725000D03*
X103112500Y-69075000D03*
X103112500Y-68425000D03*
D14*
X95500000Y-107380000D03*
X95500000Y-109380000D03*
X97750000Y-92750000D03*
X97750000Y-94750000D03*
X113250000Y-93897500D03*
X113250000Y-95897500D03*
D15*
X112500000Y-88147500D03*
D16*
X115040000Y-88147500D03*
D15*
X93000000Y-84500000D03*
D16*
X95540000Y-84500000D03*
D14*
X93250000Y-90000000D03*
X93250000Y-92000000D03*
D10*
X145000000Y-67500000D03*
X145000000Y-69550000D03*
D14*
X124750000Y-86647500D03*
X124750000Y-88647500D03*
D10*
X70500000Y-123700000D03*
X70500000Y-125750000D03*
D19*
X76000000Y-113000000D03*
X78000000Y-113000000D03*
D14*
X82500000Y-114750000D03*
X82500000Y-116750000D03*
X125300000Y-66250000D03*
X125300000Y-68250000D03*
D12*
X119500000Y-93880000D03*
D13*
X119500000Y-101500000D03*
D14*
X65480000Y-94577500D03*
X65480000Y-96577500D03*
D10*
X118500000Y-86347500D03*
X118500000Y-88397500D03*
D15*
X78275000Y-63500000D03*
D16*
X75735000Y-63500000D03*
D10*
X70980000Y-94302500D03*
X70980000Y-96352500D03*
D17*
X116250000Y-61000000D03*
D15*
X131210000Y-123500000D03*
D16*
X133750000Y-123500000D03*
D11*
X135500000Y-80250000D03*
X135500000Y-78250000D03*
X66750000Y-68750000D03*
X66750000Y-66750000D03*
D10*
X138000000Y-122250000D03*
X138000000Y-124300000D03*
D15*
X138475000Y-68500000D03*
D16*
X141015000Y-68500000D03*
D14*
X67000000Y-77000000D03*
X67000000Y-79000000D03*
D12*
X100250000Y-113380000D03*
D13*
X100250000Y-121000000D03*
D12*
X73000000Y-68500000D03*
D13*
X73000000Y-76120000D03*
D14*
X135750000Y-71750000D03*
X135750000Y-73750000D03*
D21*
X126000000Y-63500000D03*
X106000000Y-69750000D03*
X126000000Y-70750000D03*
X120750000Y-89500000D03*
X130500000Y-90750000D03*
X129000000Y-70750000D03*
X129000000Y-64250000D03*
X106750000Y-66250000D03*
X113000000Y-71250000D03*
X94250000Y-75500000D03*
X118250000Y-66500000D03*
X109000000Y-78250000D03*
X99000000Y-75500000D03*
X87000000Y-75500000D03*
X96250000Y-77250000D03*
X76750000Y-72000000D03*
X75250000Y-118750000D03*
X77250000Y-68000000D03*
X98500000Y-63250000D03*
X135000000Y-76500000D03*
X100000000Y-73000000D03*
X105750000Y-77250000D03*
X136750000Y-100750000D03*
X68750000Y-65500000D03*
X69000000Y-63000000D03*
X92500000Y-95000000D03*
X96250000Y-95750000D03*
X128750000Y-73250000D03*
X114750000Y-65500000D03*
X127250000Y-64750000D03*
X122500000Y-63750000D03*
X129500000Y-116250000D03*
X132750000Y-105000000D03*
X127750000Y-75500000D03*
X123250000Y-71750000D03*
X137250000Y-107000000D03*
X127250000Y-71750000D03*
X134500000Y-113000000D03*
X118250000Y-69250000D03*
X84500000Y-112500000D03*
X84500000Y-108750000D03*
X105750000Y-88750000D03*
X95500000Y-104250000D03*
X64250000Y-94750000D03*
X107250000Y-80500000D03*
X64250000Y-99750000D03*
X66000000Y-89750000D03*
X101250000Y-90500000D03*
X95000000Y-90000000D03*
X135500000Y-69750000D03*
X131000000Y-72250000D03*
X103112500Y-72975000D03*
X68750000Y-70750000D03*
X108750000Y-75000000D03*
X105750000Y-71500000D03*
X135500000Y-121250000D03*
X129250000Y-121250000D03*
X77000000Y-115000000D03*
X107750000Y-75000000D03*
X100250000Y-98500000D03*
X105000000Y-71750000D03*
X74750000Y-115000000D03*
X66000000Y-113500000D03*
D22*
X116250000Y-61000000D02*
X118050000Y-61000000D01*
X97387500Y-62112500D02*
X97387500Y-68425000D01*
X97500000Y-62000000D02*
X97387500Y-62112500D01*
X98000000Y-61000000D02*
X97500000Y-61500000D01*
X116250000Y-61000000D02*
X98000000Y-61000000D01*
X97500000Y-61500000D02*
X97500000Y-62000000D01*
X118050000Y-61000000D02*
X125300000Y-68250000D01*
X106000000Y-69750000D02*
X105975000Y-69725000D01*
X128250000Y-68500000D02*
X128250000Y-68250000D01*
X126210000Y-61000000D02*
X126210000Y-63290000D01*
X126000000Y-70750000D02*
X128250000Y-68500000D01*
X105975000Y-69725000D02*
X103112500Y-69725000D01*
X126210000Y-63290000D02*
X126000000Y-63500000D01*
D23*
X101250000Y-84250000D02*
X99750000Y-85750000D01*
X131800000Y-113500000D02*
X131800000Y-116000000D01*
X82250000Y-111000000D02*
X85750000Y-111000000D01*
X133750000Y-123500000D02*
X137200000Y-123500000D01*
X66725000Y-64275000D02*
X63250000Y-67750000D01*
X99750000Y-111250000D02*
X99000000Y-110500000D01*
X131800000Y-111250000D02*
X131800000Y-113500000D01*
X136477000Y-85227000D02*
X136477000Y-86825218D01*
X63327500Y-106827500D02*
X65480000Y-106827500D01*
X85750000Y-111000000D02*
X87125000Y-112375000D01*
X63250000Y-73750000D02*
X63250000Y-98750000D01*
X87125000Y-103375000D02*
X90125000Y-100375000D01*
X102250000Y-94750000D02*
X99750000Y-94750000D01*
X141015000Y-68500000D02*
X142065000Y-69550000D01*
X131290000Y-66160000D02*
X131200000Y-66250000D01*
X87125000Y-112375000D02*
X90500000Y-115750000D01*
X99000000Y-110500000D02*
X99750000Y-109750000D01*
X73500000Y-111000000D02*
X78000000Y-111000000D01*
X100875000Y-100375000D02*
X90125000Y-100375000D01*
X99750000Y-90250000D02*
X99750000Y-85750000D01*
X64500000Y-111000000D02*
X73500000Y-111000000D01*
X63250000Y-102250000D02*
X63250000Y-106750000D01*
X97750000Y-92250000D02*
X99750000Y-90250000D01*
X65000000Y-75000000D02*
X67000000Y-77000000D01*
X99750000Y-109750000D02*
X99750000Y-108380000D01*
X141015000Y-64515000D02*
X141015000Y-68500000D01*
X72525000Y-63500000D02*
X71750000Y-64275000D01*
X63250000Y-102250000D02*
X63327500Y-102327500D01*
X97750000Y-92750000D02*
X97750000Y-92250000D01*
X63250000Y-73750000D02*
X65000000Y-73750000D01*
X131290000Y-61000000D02*
X131290000Y-64000000D01*
X99750000Y-94750000D02*
X97750000Y-92750000D01*
X131800000Y-111250000D02*
X107250000Y-111250000D01*
X82250000Y-111000000D02*
X82500000Y-111250000D01*
X71750000Y-64275000D02*
X66725000Y-64275000D01*
X118500000Y-88397500D02*
X115290000Y-88397500D01*
X142065000Y-69550000D02*
X145000000Y-69550000D01*
X78000000Y-111000000D02*
X82250000Y-111000000D01*
X107250000Y-108880000D02*
X107250000Y-111250000D01*
X115290000Y-88397500D02*
X115040000Y-88147500D01*
X107250000Y-111250000D02*
X99750000Y-111250000D01*
X96790000Y-85750000D02*
X95540000Y-84500000D01*
X65000000Y-73750000D02*
X65000000Y-75000000D01*
X133750000Y-115450000D02*
X133750000Y-123500000D01*
X131290000Y-64000000D02*
X133250000Y-64000000D01*
X63250000Y-109750000D02*
X64500000Y-111000000D01*
X78000000Y-111000000D02*
X78000000Y-113000000D01*
X120750000Y-89500000D02*
X119602500Y-89500000D01*
X73500000Y-111000000D02*
X73500000Y-120750000D01*
X132552218Y-90750000D02*
X130500000Y-90750000D01*
X113250000Y-99647500D02*
X104647500Y-99647500D01*
X73500000Y-122750000D02*
X70500000Y-125750000D01*
X105352500Y-95897500D02*
X103125000Y-98125000D01*
X115040000Y-88147500D02*
X110250000Y-92937500D01*
X136477000Y-86825218D02*
X132552218Y-90750000D01*
X133250000Y-64000000D02*
X133250000Y-78000000D01*
X71000000Y-98000000D02*
X70980000Y-97980000D01*
X104647500Y-99647500D02*
X103125000Y-98125000D01*
X63327500Y-102327500D02*
X65480000Y-102327500D01*
X63250000Y-106750000D02*
X63250000Y-109750000D01*
X82500000Y-111250000D02*
X82500000Y-114750000D01*
X110250000Y-95897500D02*
X105352500Y-95897500D01*
X103125000Y-98125000D02*
X100875000Y-100375000D01*
X63250000Y-98750000D02*
X66750000Y-98750000D01*
X110250000Y-92937500D02*
X110250000Y-95897500D01*
X135500000Y-80250000D02*
X135500000Y-84250000D01*
X92750000Y-113880000D02*
X92750000Y-118380000D01*
X131200000Y-66250000D02*
X125300000Y-66250000D01*
X113250000Y-95897500D02*
X110250000Y-95897500D01*
X137200000Y-123500000D02*
X138000000Y-124300000D01*
X102375001Y-68425000D02*
X101250000Y-69550001D01*
X71500000Y-118750000D02*
X73500000Y-120750000D01*
X66750000Y-98750000D02*
X69147500Y-96352500D01*
X75000000Y-98000000D02*
X71000000Y-98000000D01*
X133250000Y-64000000D02*
X141000000Y-64000000D01*
X63250000Y-67750000D02*
X63250000Y-73750000D01*
X87125000Y-112375000D02*
X87125000Y-103375000D01*
X90125000Y-100375000D02*
X97750000Y-92750000D01*
X93750000Y-115750000D02*
X99000000Y-110500000D01*
X135500000Y-84250000D02*
X136477000Y-85227000D01*
X73500000Y-120750000D02*
X73500000Y-122750000D01*
X103112500Y-68425000D02*
X102375001Y-68425000D01*
X90500000Y-115750000D02*
X93750000Y-115750000D01*
X63250000Y-106750000D02*
X63327500Y-106827500D01*
X69147500Y-96352500D02*
X70980000Y-96352500D01*
X131290000Y-64000000D02*
X131290000Y-66160000D01*
X99750000Y-85750000D02*
X96790000Y-85750000D01*
X101250000Y-69550001D02*
X101250000Y-84250000D01*
X141000000Y-64500000D02*
X141015000Y-64515000D01*
X105500000Y-107130000D02*
X107250000Y-108880000D01*
X133250000Y-78000000D02*
X135500000Y-80250000D01*
X63250000Y-98750000D02*
X63250000Y-102250000D01*
X131800000Y-113500000D02*
X133750000Y-115450000D01*
X75735000Y-63500000D02*
X72525000Y-63500000D01*
X119602500Y-89500000D02*
X118500000Y-88397500D01*
X77750000Y-95250000D02*
X75000000Y-98000000D01*
X141000000Y-64000000D02*
X141000000Y-64500000D01*
X70980000Y-97980000D02*
X70980000Y-96352500D01*
D22*
X114740500Y-71240500D02*
X113000000Y-69500000D01*
X128750000Y-64000000D02*
X129000000Y-64250000D01*
X109250000Y-67500000D02*
X107675000Y-69075000D01*
X113000000Y-69500000D02*
X113000000Y-68500000D01*
X107675000Y-69075000D02*
X103112500Y-69075000D01*
X128750000Y-61000000D02*
X128750000Y-64000000D01*
X129000000Y-70750000D02*
X128509500Y-71240500D01*
X113000000Y-68500000D02*
X112000000Y-67500000D01*
X112000000Y-67500000D02*
X109250000Y-67500000D01*
X129000000Y-70750000D02*
X131200000Y-68550000D01*
X131200000Y-68550000D02*
X131200000Y-68250000D01*
X128509500Y-71240500D02*
X114740500Y-71240500D01*
X75250000Y-118750000D02*
X75630000Y-118750000D01*
X77250000Y-68000000D02*
X76750000Y-68500000D01*
X77630000Y-116750000D02*
X77000000Y-117380000D01*
X98124999Y-70375000D02*
X98500000Y-69999999D01*
X82500000Y-116750000D02*
X77630000Y-116750000D01*
X75630000Y-118750000D02*
X77000000Y-117380000D01*
X97387500Y-70375000D02*
X98124999Y-70375000D01*
X76750000Y-68500000D02*
X76750000Y-72000000D01*
X98500000Y-69999999D02*
X98500000Y-63250000D01*
X112500000Y-88147500D02*
X114300000Y-86347500D01*
X114300000Y-86347500D02*
X118500000Y-86347500D01*
X121147500Y-88647500D02*
X124750000Y-88647500D01*
X118847500Y-86347500D02*
X121147500Y-88647500D01*
X118500000Y-86347500D02*
X118847500Y-86347500D01*
X99325000Y-72325000D02*
X97387500Y-72325000D01*
X140750000Y-75000000D02*
X138750000Y-75000000D01*
X138750000Y-75000000D02*
X135500000Y-78250000D01*
X135500000Y-78250000D02*
X135500000Y-77000000D01*
X135500000Y-77000000D02*
X135000000Y-76500000D01*
X100000000Y-73000000D02*
X99325000Y-72325000D01*
X137000000Y-101750000D02*
X137000000Y-104000000D01*
X136750000Y-101500000D02*
X137000000Y-101750000D01*
X137000000Y-104000000D02*
X131800000Y-109200000D01*
X103849999Y-74925000D02*
X105750000Y-76825001D01*
X136750000Y-100750000D02*
X136750000Y-101500000D01*
X105750000Y-76825001D02*
X105750000Y-77250000D01*
X131800000Y-109200000D02*
X131800000Y-109250000D01*
X103112500Y-74925000D02*
X103849999Y-74925000D01*
X78275000Y-63500000D02*
X78275000Y-62025000D01*
X67500000Y-66750000D02*
X66750000Y-66750000D01*
X78275000Y-62025000D02*
X77000000Y-60750000D01*
X71750000Y-62225000D02*
X69775000Y-62225000D01*
X77000000Y-60750000D02*
X73000000Y-60750000D01*
X68750000Y-65500000D02*
X67500000Y-66750000D01*
X71750000Y-62000000D02*
X71750000Y-62225000D01*
X69775000Y-62225000D02*
X69000000Y-63000000D01*
X73000000Y-60750000D02*
X71750000Y-62000000D01*
X73000000Y-73000000D02*
X73000000Y-68500000D01*
X97387500Y-71675000D02*
X93079888Y-71675000D01*
X91629888Y-73125000D02*
X72875000Y-73125000D01*
X67000000Y-79000000D02*
X72875000Y-73125000D01*
X72875000Y-73125000D02*
X73000000Y-73000000D01*
X93079888Y-71675000D02*
X91629888Y-73125000D01*
X138475000Y-71025000D02*
X138475000Y-68500000D01*
X145000000Y-67500000D02*
X146500000Y-69000000D01*
X146500000Y-69000000D02*
X146500000Y-71750000D01*
X146500000Y-71750000D02*
X139200000Y-71750000D01*
X139200000Y-71750000D02*
X138475000Y-71025000D01*
X135750000Y-73750000D02*
X138475000Y-71025000D01*
X93500000Y-94000000D02*
X93500000Y-95250000D01*
X96886400Y-73625000D02*
X90250000Y-80261400D01*
X91250000Y-93750000D02*
X93250000Y-93750000D01*
X65480000Y-108827500D02*
X72000000Y-102307500D01*
X97387500Y-73625000D02*
X96886400Y-73625000D01*
X90250000Y-92750000D02*
X91250000Y-93750000D01*
X93250000Y-93750000D02*
X93500000Y-94000000D01*
X93500000Y-95250000D02*
X87267500Y-101482500D01*
X72000000Y-102307500D02*
X72000000Y-101482500D01*
X87267500Y-101482500D02*
X72000000Y-101482500D01*
X90250000Y-80261400D02*
X90250000Y-92750000D01*
X96250000Y-95750000D02*
X97250000Y-94750000D01*
X94405000Y-72975000D02*
X97387500Y-72975000D01*
X89250000Y-94500000D02*
X92000000Y-94500000D01*
X85250000Y-82130000D02*
X94405000Y-72975000D01*
X85250000Y-82130000D02*
X86809888Y-82130000D01*
X86809888Y-82130000D02*
X89250000Y-84570112D01*
X97250000Y-94750000D02*
X97750000Y-94750000D01*
X89250000Y-84570112D02*
X89250000Y-94500000D01*
X92000000Y-94500000D02*
X92500000Y-95000000D01*
X65750000Y-118000000D02*
X68210000Y-118000000D01*
X68210000Y-118000000D02*
X68960000Y-118750000D01*
X68960000Y-122160000D02*
X70500000Y-123700000D01*
X68960000Y-118750000D02*
X68960000Y-122160000D01*
X114852500Y-101647500D02*
X113250000Y-101647500D01*
X119500000Y-93880000D02*
X122479210Y-93880000D01*
X103649999Y-65500000D02*
X114750000Y-65500000D01*
X123500000Y-64750000D02*
X122500000Y-63750000D01*
X127250000Y-64750000D02*
X123500000Y-64750000D01*
X97387500Y-71025000D02*
X98124999Y-71025000D01*
X127254000Y-74746000D02*
X128750000Y-73250000D01*
X118370000Y-93880000D02*
X116000000Y-96250000D01*
X98124999Y-71025000D02*
X103649999Y-65500000D01*
X122479210Y-93880000D02*
X127254000Y-89105210D01*
X116000000Y-96250000D02*
X116000000Y-100500000D01*
X127254000Y-89105210D02*
X127254000Y-74746000D01*
X116000000Y-100500000D02*
X114852500Y-101647500D01*
X119500000Y-93880000D02*
X118370000Y-93880000D01*
X97387500Y-74925000D02*
X100394000Y-74925000D01*
X127750000Y-75500000D02*
X127750000Y-102000000D01*
X127750000Y-102000000D02*
X130750000Y-105000000D01*
X131250000Y-118000000D02*
X131800000Y-118000000D01*
X100394000Y-74925000D02*
X100909500Y-74409500D01*
X123250000Y-71750000D02*
X127250000Y-71750000D01*
X137250000Y-107000000D02*
X137250000Y-108982500D01*
X100909500Y-74409500D02*
X100909500Y-69408961D01*
X129500000Y-116250000D02*
X131250000Y-118000000D01*
X137250000Y-110250000D02*
X134500000Y-113000000D01*
X137250000Y-108982500D02*
X137250000Y-110250000D01*
X116246000Y-67246000D02*
X118250000Y-69250000D01*
X100909500Y-69408961D02*
X103072461Y-67246000D01*
X103072461Y-67246000D02*
X116246000Y-67246000D01*
X130750000Y-105000000D02*
X132750000Y-105000000D01*
X91250000Y-91750000D02*
X91500000Y-92000000D01*
X94090500Y-83409500D02*
X99459500Y-83409500D01*
X93000000Y-84500000D02*
X94090500Y-83409500D01*
X91250000Y-88500000D02*
X91250000Y-91750000D01*
X99459500Y-83409500D02*
X99750000Y-83700000D01*
X93000000Y-86750000D02*
X91250000Y-88500000D01*
X91500000Y-92000000D02*
X93250000Y-92000000D01*
X93000000Y-84500000D02*
X93000000Y-86750000D01*
X97387500Y-74275000D02*
X96650001Y-74275000D01*
X84500000Y-112500000D02*
X92380000Y-120380000D01*
X84500000Y-105000000D02*
X84500000Y-108750000D01*
X92380000Y-120380000D02*
X92750000Y-120380000D01*
X90750000Y-80175001D02*
X90750000Y-92500000D01*
X93754000Y-93894790D02*
X93754000Y-95746000D01*
X96650001Y-74275000D02*
X90750000Y-80175001D01*
X93754000Y-95746000D02*
X84500000Y-105000000D01*
X90750000Y-92500000D02*
X91500000Y-93250000D01*
X93109210Y-93250000D02*
X93754000Y-93894790D01*
X91500000Y-93250000D02*
X93109210Y-93250000D01*
X99750000Y-113380000D02*
X92750000Y-120380000D01*
X100250000Y-113380000D02*
X99750000Y-113380000D01*
X95500000Y-104250000D02*
X95500000Y-107380000D01*
X105750000Y-78212500D02*
X105750000Y-88750000D01*
X103112500Y-75575000D02*
X105750000Y-78212500D01*
X92750000Y-110130000D02*
X92750000Y-111880000D01*
X95500000Y-107380000D02*
X92750000Y-110130000D01*
X67755000Y-94302500D02*
X70980000Y-94302500D01*
X71197500Y-94302500D02*
X72145000Y-95250000D01*
X72145000Y-95250000D02*
X75210000Y-95250000D01*
X65480000Y-96577500D02*
X67755000Y-94302500D01*
X70980000Y-94302500D02*
X71197500Y-94302500D01*
X65480000Y-100327500D02*
X64827500Y-100327500D01*
X66000000Y-89750000D02*
X65480000Y-90270000D01*
X65480000Y-90270000D02*
X65480000Y-94577500D01*
X107250000Y-77025001D02*
X107250000Y-80500000D01*
X65307500Y-94750000D02*
X65480000Y-94577500D01*
X64827500Y-100327500D02*
X64250000Y-99750000D01*
X103849999Y-73625000D02*
X107250000Y-77025001D01*
X103112500Y-73625000D02*
X103849999Y-73625000D01*
X64250000Y-94750000D02*
X65307500Y-94750000D01*
X95000000Y-90000000D02*
X93250000Y-90000000D01*
X106500000Y-76925001D02*
X106500000Y-89250000D01*
X103000000Y-92750000D02*
X102250000Y-92750000D01*
X103112500Y-74275000D02*
X103849999Y-74275000D01*
X103849999Y-74275000D02*
X106500000Y-76925001D01*
X106500000Y-89250000D02*
X103000000Y-92750000D01*
X102250000Y-91500000D02*
X101250000Y-90500000D01*
X102250000Y-92750000D02*
X102250000Y-91500000D01*
X99750000Y-106330000D02*
X102160000Y-106330000D01*
X99670000Y-106330000D02*
X96620000Y-109380000D01*
X99750000Y-106330000D02*
X99670000Y-106330000D01*
X96620000Y-109380000D02*
X95500000Y-109380000D01*
X102160000Y-106330000D02*
X102960000Y-107130000D01*
X135500000Y-69750000D02*
X135500000Y-70000000D01*
X131000000Y-81750000D02*
X131000000Y-72250000D01*
X103112500Y-72325000D02*
X130925000Y-72325000D01*
X135750000Y-70250000D02*
X135750000Y-71750000D01*
X135500000Y-86250000D02*
X131000000Y-81750000D01*
X135500000Y-70000000D02*
X135750000Y-70250000D01*
X130925000Y-72325000D02*
X131000000Y-72250000D01*
X66750000Y-68750000D02*
X66750000Y-70000000D01*
X66750000Y-70000000D02*
X65000000Y-71750000D01*
X66750000Y-68750000D02*
X68750000Y-70750000D01*
X126397500Y-86647500D02*
X127000000Y-87250000D01*
X105275000Y-71025000D02*
X105750000Y-71500000D01*
X127000000Y-87250000D02*
X127000000Y-89000000D01*
X112532388Y-75000000D02*
X124179888Y-86647500D01*
X127000000Y-89000000D02*
X125750000Y-90250000D01*
X116897500Y-90250000D02*
X113250000Y-93897500D01*
X103112500Y-71025000D02*
X105275000Y-71025000D01*
X108750000Y-75000000D02*
X112532388Y-75000000D01*
X124750000Y-86647500D02*
X126397500Y-86647500D01*
X124179888Y-86647500D02*
X124750000Y-86647500D01*
X125750000Y-90250000D02*
X116897500Y-90250000D01*
X138000000Y-122250000D02*
X136500000Y-122250000D01*
X129250000Y-121540000D02*
X131210000Y-123500000D01*
X139000000Y-105250000D02*
X139000000Y-104000000D01*
X141000000Y-107250000D02*
X139000000Y-105250000D01*
X138000000Y-122250000D02*
X141000000Y-119250000D01*
X141000000Y-119250000D02*
X141000000Y-107250000D01*
X136500000Y-122250000D02*
X135500000Y-121250000D01*
X129250000Y-121250000D02*
X129250000Y-121540000D01*
X76000000Y-114000000D02*
X75000000Y-115000000D01*
X63750000Y-115750000D02*
X63750000Y-118000000D01*
X103112500Y-71675000D02*
X104925000Y-71675000D01*
X75000000Y-115000000D02*
X74750000Y-115000000D01*
X77000000Y-115000000D02*
X76000000Y-114000000D01*
X76000000Y-114000000D02*
X76000000Y-113000000D01*
X107750000Y-75000000D02*
X107750000Y-91000000D01*
X104925000Y-71675000D02*
X105000000Y-71750000D01*
X107750000Y-91000000D02*
X100250000Y-98500000D01*
X66000000Y-113500000D02*
X63750000Y-115750000D01*
X90750000Y-69500000D02*
X90975000Y-69725000D01*
X90500000Y-69500000D02*
X90750000Y-69500000D01*
X90975000Y-69725000D02*
X97387500Y-69725000D01*
X92750000Y-65174999D02*
X96650001Y-69075000D01*
X96650001Y-69075000D02*
X97387500Y-69075000D01*
X92750000Y-64750000D02*
X92750000Y-65174999D01*
X109625000Y-70375000D02*
X103112500Y-70375000D01*
X111000000Y-69000000D02*
X109625000Y-70375000D01*
G04 #@! TA.AperFunction,Conductor*
G36*
X144503736Y-58000726D02*
G01*
X144793796Y-58018271D01*
X144808659Y-58020076D01*
X145090798Y-58071780D01*
X145105335Y-58075363D01*
X145379172Y-58160695D01*
X145393163Y-58166000D01*
X145654743Y-58283727D01*
X145667989Y-58290680D01*
X145913465Y-58439075D01*
X145925776Y-58447573D01*
X146151573Y-58624473D01*
X146162781Y-58634403D01*
X146365596Y-58837218D01*
X146375526Y-58848426D01*
X146495481Y-59001538D01*
X146552422Y-59074217D01*
X146560928Y-59086540D01*
X146709316Y-59332004D01*
X146716275Y-59345263D01*
X146833997Y-59606831D01*
X146839306Y-59620832D01*
X146924635Y-59894663D01*
X146928219Y-59909201D01*
X146979923Y-60191340D01*
X146981728Y-60206205D01*
X146999274Y-60496263D01*
X146999500Y-60503750D01*
X146999500Y-68402522D01*
X146979815Y-68469561D01*
X146927011Y-68515316D01*
X146857853Y-68525260D01*
X146794297Y-68496235D01*
X146787819Y-68490203D01*
X146236818Y-67939202D01*
X146203333Y-67877879D01*
X146200499Y-67851530D01*
X146200499Y-67124992D01*
X146197568Y-67096304D01*
X146189999Y-67022203D01*
X146189998Y-67022200D01*
X146169189Y-66959403D01*
X146134814Y-66855666D01*
X146042712Y-66706344D01*
X145918656Y-66582288D01*
X145769334Y-66490186D01*
X145602797Y-66435001D01*
X145602795Y-66435000D01*
X145500010Y-66424500D01*
X144499998Y-66424500D01*
X144499980Y-66424501D01*
X144397203Y-66435000D01*
X144397200Y-66435001D01*
X144230668Y-66490185D01*
X144230663Y-66490187D01*
X144081342Y-66582289D01*
X143957289Y-66706342D01*
X143865187Y-66855663D01*
X143865186Y-66855666D01*
X143810001Y-67022203D01*
X143810001Y-67022204D01*
X143810000Y-67022204D01*
X143799500Y-67124983D01*
X143799500Y-67875001D01*
X143799501Y-67875019D01*
X143810000Y-67977796D01*
X143810001Y-67977799D01*
X143865185Y-68144331D01*
X143865187Y-68144336D01*
X143870959Y-68153694D01*
X143952341Y-68285636D01*
X143957289Y-68293657D01*
X144081346Y-68417714D01*
X144084182Y-68419463D01*
X144085717Y-68421170D01*
X144087011Y-68422193D01*
X144086836Y-68422414D01*
X144130905Y-68471411D01*
X144142126Y-68540374D01*
X144114282Y-68604456D01*
X144084182Y-68630537D01*
X144081346Y-68632285D01*
X143957289Y-68756342D01*
X143957288Y-68756344D01*
X143913701Y-68827011D01*
X143905321Y-68840597D01*
X143853373Y-68887321D01*
X143799782Y-68899500D01*
X142517857Y-68899500D01*
X142450818Y-68879815D01*
X142405063Y-68827011D01*
X142395119Y-68757853D01*
X142397651Y-68745060D01*
X142401133Y-68731309D01*
X142401135Y-68731297D01*
X142420300Y-68500006D01*
X142420300Y-68499993D01*
X142401135Y-68268702D01*
X142401133Y-68268691D01*
X142344157Y-68043699D01*
X142250924Y-67831151D01*
X142123983Y-67636852D01*
X142123980Y-67636849D01*
X142123979Y-67636847D01*
X141966784Y-67466087D01*
X141966779Y-67466083D01*
X141966777Y-67466081D01*
X141783634Y-67323535D01*
X141783623Y-67323528D01*
X141730481Y-67294768D01*
X141680891Y-67245548D01*
X141665500Y-67185714D01*
X141665500Y-64450928D01*
X141652883Y-64387501D01*
X141650500Y-64363309D01*
X141650500Y-63935928D01*
X141625502Y-63810261D01*
X141625501Y-63810260D01*
X141625501Y-63810256D01*
X141587574Y-63718692D01*
X141576466Y-63691875D01*
X141576461Y-63691866D01*
X141505276Y-63585331D01*
X141505273Y-63585327D01*
X141414672Y-63494726D01*
X141414668Y-63494723D01*
X141308133Y-63423538D01*
X141308124Y-63423533D01*
X141189744Y-63374499D01*
X141189738Y-63374497D01*
X141064071Y-63349500D01*
X141064069Y-63349500D01*
X133314069Y-63349500D01*
X132064500Y-63349500D01*
X131997461Y-63329815D01*
X131951706Y-63277011D01*
X131940500Y-63225500D01*
X131940500Y-62474499D01*
X131960185Y-62407460D01*
X132012989Y-62361705D01*
X132064500Y-62350499D01*
X132187871Y-62350499D01*
X132187872Y-62350499D01*
X132247483Y-62344091D01*
X132382331Y-62293796D01*
X132497546Y-62207546D01*
X132583796Y-62092331D01*
X132634091Y-61957483D01*
X132640500Y-61897873D01*
X132640499Y-60881902D01*
X142499500Y-60881902D01*
X142499500Y-61118097D01*
X142536446Y-61351368D01*
X142609433Y-61575996D01*
X142689581Y-61733293D01*
X142716657Y-61786433D01*
X142855483Y-61977510D01*
X143022490Y-62144517D01*
X143213567Y-62283343D01*
X143292448Y-62323535D01*
X143424003Y-62390566D01*
X143424005Y-62390566D01*
X143424008Y-62390568D01*
X143523783Y-62422987D01*
X143648631Y-62463553D01*
X143881903Y-62500500D01*
X143881908Y-62500500D01*
X144118097Y-62500500D01*
X144351368Y-62463553D01*
X144575992Y-62390568D01*
X144786433Y-62283343D01*
X144977510Y-62144517D01*
X145144517Y-61977510D01*
X145283343Y-61786433D01*
X145390568Y-61575992D01*
X145463553Y-61351368D01*
X145469023Y-61316834D01*
X145500500Y-61118097D01*
X145500500Y-60881902D01*
X145463553Y-60648631D01*
X145406953Y-60474435D01*
X145390568Y-60424008D01*
X145390566Y-60424005D01*
X145390566Y-60424003D01*
X145288881Y-60224436D01*
X145283343Y-60213567D01*
X145144517Y-60022490D01*
X144977510Y-59855483D01*
X144786433Y-59716657D01*
X144765914Y-59706202D01*
X144575996Y-59609433D01*
X144351368Y-59536446D01*
X144118097Y-59499500D01*
X144118092Y-59499500D01*
X143881908Y-59499500D01*
X143881903Y-59499500D01*
X143648631Y-59536446D01*
X143424003Y-59609433D01*
X143213566Y-59716657D01*
X143109244Y-59792452D01*
X143022490Y-59855483D01*
X143022488Y-59855485D01*
X143022487Y-59855485D01*
X142855485Y-60022487D01*
X142855485Y-60022488D01*
X142855483Y-60022490D01*
X142802790Y-60095016D01*
X142716657Y-60213566D01*
X142609433Y-60424003D01*
X142536446Y-60648631D01*
X142499500Y-60881902D01*
X132640499Y-60881902D01*
X132640499Y-60102128D01*
X132634091Y-60042517D01*
X132632810Y-60039083D01*
X132583797Y-59907671D01*
X132583793Y-59907664D01*
X132497547Y-59792455D01*
X132497544Y-59792452D01*
X132382335Y-59706206D01*
X132382328Y-59706202D01*
X132247482Y-59655908D01*
X132247483Y-59655908D01*
X132187883Y-59649501D01*
X132187881Y-59649500D01*
X132187873Y-59649500D01*
X132187864Y-59649500D01*
X130392129Y-59649500D01*
X130392123Y-59649501D01*
X130332516Y-59655908D01*
X130197671Y-59706202D01*
X130197664Y-59706206D01*
X130082455Y-59792452D01*
X130082452Y-59792455D01*
X129996206Y-59907664D01*
X129996203Y-59907669D01*
X129947189Y-60039083D01*
X129905317Y-60095016D01*
X129839853Y-60119433D01*
X129771580Y-60104581D01*
X129743326Y-60083430D01*
X129621402Y-59961506D01*
X129621395Y-59961501D01*
X129427834Y-59825967D01*
X129427830Y-59825965D01*
X129427828Y-59825964D01*
X129213663Y-59726097D01*
X129213659Y-59726096D01*
X129213655Y-59726094D01*
X128985413Y-59664938D01*
X128985403Y-59664936D01*
X128750001Y-59644341D01*
X128749999Y-59644341D01*
X128514596Y-59664936D01*
X128514586Y-59664938D01*
X128286344Y-59726094D01*
X128286335Y-59726098D01*
X128072171Y-59825964D01*
X128072169Y-59825965D01*
X127878597Y-59961505D01*
X127711505Y-60128597D01*
X127581575Y-60314158D01*
X127526998Y-60357783D01*
X127457500Y-60364977D01*
X127395145Y-60333454D01*
X127378425Y-60314158D01*
X127248494Y-60128597D01*
X127081402Y-59961506D01*
X127081395Y-59961501D01*
X126887834Y-59825967D01*
X126887830Y-59825965D01*
X126887828Y-59825964D01*
X126673663Y-59726097D01*
X126673659Y-59726096D01*
X126673655Y-59726094D01*
X126445413Y-59664938D01*
X126445403Y-59664936D01*
X126210001Y-59644341D01*
X126209999Y-59644341D01*
X125974596Y-59664936D01*
X125974586Y-59664938D01*
X125746344Y-59726094D01*
X125746335Y-59726098D01*
X125532171Y-59825964D01*
X125532169Y-59825965D01*
X125338597Y-59961505D01*
X125171508Y-60128594D01*
X125041269Y-60314595D01*
X124986692Y-60358219D01*
X124917193Y-60365412D01*
X124854839Y-60333890D01*
X124838119Y-60314594D01*
X124708113Y-60128926D01*
X124708108Y-60128920D01*
X124541082Y-59961894D01*
X124347578Y-59826399D01*
X124133492Y-59726570D01*
X124133486Y-59726567D01*
X123920000Y-59669364D01*
X123920000Y-60566988D01*
X123862993Y-60534075D01*
X123735826Y-60500000D01*
X123604174Y-60500000D01*
X123477007Y-60534075D01*
X123420000Y-60566988D01*
X123420000Y-59669364D01*
X123419999Y-59669364D01*
X123206513Y-59726567D01*
X123206507Y-59726570D01*
X122992422Y-59826399D01*
X122992420Y-59826400D01*
X122798926Y-59961886D01*
X122798920Y-59961891D01*
X122631891Y-60128920D01*
X122631886Y-60128926D01*
X122496400Y-60322420D01*
X122496399Y-60322422D01*
X122396570Y-60536507D01*
X122396567Y-60536513D01*
X122339364Y-60749999D01*
X122339364Y-60750000D01*
X123236988Y-60750000D01*
X123204075Y-60807007D01*
X123170000Y-60934174D01*
X123170000Y-61065826D01*
X123204075Y-61192993D01*
X123236988Y-61250000D01*
X122339364Y-61250000D01*
X122396567Y-61463486D01*
X122396570Y-61463492D01*
X122496399Y-61677578D01*
X122631894Y-61871082D01*
X122798917Y-62038105D01*
X122992421Y-62173600D01*
X123206507Y-62273429D01*
X123206516Y-62273433D01*
X123420000Y-62330634D01*
X123420000Y-61433012D01*
X123477007Y-61465925D01*
X123604174Y-61500000D01*
X123735826Y-61500000D01*
X123862993Y-61465925D01*
X123920000Y-61433012D01*
X123920000Y-62330633D01*
X124133483Y-62273433D01*
X124133492Y-62273429D01*
X124347578Y-62173600D01*
X124541082Y-62038105D01*
X124708105Y-61871082D01*
X124838119Y-61685405D01*
X124892696Y-61641781D01*
X124962195Y-61634588D01*
X125024549Y-61666110D01*
X125041269Y-61685405D01*
X125097838Y-61766194D01*
X125171505Y-61871401D01*
X125338599Y-62038495D01*
X125425723Y-62099500D01*
X125532165Y-62174032D01*
X125532170Y-62174035D01*
X125574403Y-62193728D01*
X125626843Y-62239898D01*
X125646000Y-62306110D01*
X125646000Y-62708491D01*
X125626315Y-62775530D01*
X125587973Y-62813484D01*
X125497741Y-62870181D01*
X125497739Y-62870182D01*
X125370184Y-62997737D01*
X125274211Y-63150476D01*
X125214631Y-63320745D01*
X125214630Y-63320750D01*
X125194435Y-63499996D01*
X125194435Y-63500003D01*
X125214630Y-63679249D01*
X125214631Y-63679254D01*
X125274211Y-63849523D01*
X125366267Y-63996028D01*
X125385267Y-64063264D01*
X125364899Y-64130100D01*
X125311632Y-64175314D01*
X125261273Y-64186000D01*
X123784979Y-64186000D01*
X123717940Y-64166315D01*
X123697298Y-64149681D01*
X123337255Y-63789638D01*
X123303770Y-63728315D01*
X123301716Y-63715840D01*
X123301642Y-63715187D01*
X123294242Y-63649501D01*
X123285369Y-63570750D01*
X123285368Y-63570745D01*
X123261405Y-63502262D01*
X123225789Y-63400478D01*
X123129816Y-63247738D01*
X123002262Y-63120184D01*
X122849523Y-63024211D01*
X122679254Y-62964631D01*
X122679249Y-62964630D01*
X122500004Y-62944435D01*
X122499996Y-62944435D01*
X122320750Y-62964630D01*
X122320745Y-62964631D01*
X122150476Y-63024211D01*
X121997737Y-63120184D01*
X121870184Y-63247737D01*
X121774211Y-63400476D01*
X121714631Y-63570745D01*
X121714631Y-63570747D01*
X121713459Y-63581149D01*
X121686390Y-63645562D01*
X121628793Y-63685115D01*
X121558956Y-63687250D01*
X121502558Y-63654942D01*
X118508383Y-60660767D01*
X118508381Y-60660764D01*
X118396306Y-60548689D01*
X118396304Y-60548687D01*
X118267696Y-60474435D01*
X118124253Y-60436000D01*
X118124252Y-60436000D01*
X117724499Y-60436000D01*
X117657460Y-60416315D01*
X117611705Y-60363511D01*
X117600499Y-60312000D01*
X117600499Y-60102129D01*
X117600498Y-60102123D01*
X117600497Y-60102116D01*
X117594091Y-60042517D01*
X117592810Y-60039083D01*
X117543797Y-59907671D01*
X117543793Y-59907664D01*
X117457547Y-59792455D01*
X117457544Y-59792452D01*
X117342335Y-59706206D01*
X117342328Y-59706202D01*
X117207482Y-59655908D01*
X117207483Y-59655908D01*
X117147883Y-59649501D01*
X117147881Y-59649500D01*
X117147873Y-59649500D01*
X117147864Y-59649500D01*
X115352129Y-59649500D01*
X115352123Y-59649501D01*
X115292516Y-59655908D01*
X115157671Y-59706202D01*
X115157664Y-59706206D01*
X115042455Y-59792452D01*
X115042452Y-59792455D01*
X114956206Y-59907664D01*
X114956202Y-59907671D01*
X114905908Y-60042517D01*
X114899501Y-60102116D01*
X114899501Y-60102123D01*
X114899500Y-60102135D01*
X114899500Y-60312000D01*
X114879815Y-60379039D01*
X114827011Y-60424794D01*
X114775500Y-60436000D01*
X98081865Y-60436000D01*
X98081849Y-60435999D01*
X98074253Y-60435999D01*
X97925748Y-60435999D01*
X97822864Y-60463567D01*
X97782300Y-60474436D01*
X97653699Y-60548684D01*
X97653693Y-60548689D01*
X97048689Y-61153693D01*
X97048687Y-61153695D01*
X97048687Y-61153696D01*
X96978327Y-61275563D01*
X96978326Y-61275562D01*
X96974436Y-61282301D01*
X96951449Y-61368091D01*
X96936000Y-61425748D01*
X96936000Y-61733293D01*
X96919387Y-61795293D01*
X96875447Y-61871400D01*
X96875447Y-61871401D01*
X96861935Y-61894803D01*
X96831792Y-62007301D01*
X96823500Y-62038247D01*
X96823500Y-67600965D01*
X96803815Y-67668004D01*
X96751011Y-67713759D01*
X96714529Y-67722957D01*
X96714663Y-67723971D01*
X96593246Y-67739953D01*
X96593237Y-67739956D01*
X96447158Y-67800464D01*
X96378349Y-67853262D01*
X96313179Y-67878455D01*
X96244735Y-67864416D01*
X96215183Y-67842566D01*
X93915783Y-65543166D01*
X93882298Y-65481843D01*
X93885757Y-65416486D01*
X93939999Y-65252797D01*
X93950500Y-65150009D01*
X93950499Y-64349992D01*
X93939999Y-64247203D01*
X93884814Y-64080666D01*
X93792712Y-63931344D01*
X93668656Y-63807288D01*
X93540620Y-63728315D01*
X93519336Y-63715187D01*
X93519331Y-63715185D01*
X93517862Y-63714698D01*
X93352797Y-63660001D01*
X93352795Y-63660000D01*
X93250010Y-63649500D01*
X92249998Y-63649500D01*
X92249980Y-63649501D01*
X92147203Y-63660000D01*
X92147200Y-63660001D01*
X91980668Y-63715185D01*
X91980663Y-63715187D01*
X91831342Y-63807289D01*
X91707289Y-63931342D01*
X91615187Y-64080663D01*
X91615185Y-64080668D01*
X91602091Y-64120184D01*
X91560001Y-64247203D01*
X91560001Y-64247204D01*
X91560000Y-64247204D01*
X91549500Y-64349983D01*
X91549500Y-65150001D01*
X91549501Y-65150019D01*
X91560000Y-65252796D01*
X91560001Y-65252799D01*
X91615185Y-65419331D01*
X91615187Y-65419336D01*
X91630583Y-65444297D01*
X91689390Y-65539639D01*
X91707289Y-65568657D01*
X91801304Y-65662672D01*
X91834789Y-65723995D01*
X91829805Y-65793687D01*
X91801305Y-65838034D01*
X91707682Y-65931657D01*
X91615643Y-66080875D01*
X91615641Y-66080880D01*
X91560494Y-66247302D01*
X91560493Y-66247309D01*
X91550000Y-66350013D01*
X91550000Y-66500000D01*
X92876000Y-66500000D01*
X92943039Y-66519685D01*
X92988794Y-66572489D01*
X93000000Y-66624000D01*
X93000000Y-67849999D01*
X93249972Y-67849999D01*
X93249986Y-67849998D01*
X93352697Y-67839505D01*
X93519119Y-67784358D01*
X93519124Y-67784356D01*
X93668345Y-67692315D01*
X93792315Y-67568345D01*
X93884356Y-67419124D01*
X93884360Y-67419115D01*
X93898814Y-67375495D01*
X93938585Y-67318049D01*
X94003101Y-67291225D01*
X94071877Y-67303539D01*
X94104201Y-67326816D01*
X95726704Y-68949319D01*
X95760189Y-69010642D01*
X95755205Y-69080334D01*
X95713333Y-69136267D01*
X95647869Y-69160684D01*
X95639023Y-69161000D01*
X91818710Y-69161000D01*
X91751671Y-69141315D01*
X91705916Y-69088511D01*
X91695352Y-69049602D01*
X91692758Y-69024211D01*
X91689999Y-68997203D01*
X91634814Y-68830666D01*
X91542712Y-68681344D01*
X91418656Y-68557288D01*
X91284728Y-68474681D01*
X91269336Y-68465187D01*
X91269331Y-68465185D01*
X91218324Y-68448283D01*
X91102797Y-68410001D01*
X91102795Y-68410000D01*
X91000010Y-68399500D01*
X89999998Y-68399500D01*
X89999980Y-68399501D01*
X89897203Y-68410000D01*
X89897200Y-68410001D01*
X89730668Y-68465185D01*
X89730663Y-68465187D01*
X89581342Y-68557289D01*
X89457289Y-68681342D01*
X89365187Y-68830663D01*
X89365185Y-68830668D01*
X89339173Y-68909167D01*
X89310001Y-68997203D01*
X89310001Y-68997204D01*
X89310000Y-68997204D01*
X89299500Y-69099983D01*
X89299500Y-69900001D01*
X89299501Y-69900019D01*
X89310000Y-70002796D01*
X89310001Y-70002799D01*
X89365185Y-70169331D01*
X89365186Y-70169334D01*
X89451138Y-70308685D01*
X89457289Y-70318657D01*
X89551304Y-70412672D01*
X89584789Y-70473995D01*
X89579805Y-70543687D01*
X89551305Y-70588034D01*
X89457682Y-70681657D01*
X89365643Y-70830875D01*
X89365641Y-70830880D01*
X89310494Y-70997302D01*
X89310493Y-70997309D01*
X89300000Y-71100013D01*
X89300000Y-71250000D01*
X91699999Y-71250000D01*
X91699999Y-71100028D01*
X91699998Y-71100013D01*
X91689505Y-70997302D01*
X91634358Y-70830880D01*
X91634356Y-70830875D01*
X91542315Y-70681654D01*
X91448695Y-70588034D01*
X91415210Y-70526711D01*
X91420194Y-70457019D01*
X91448691Y-70412676D01*
X91536051Y-70325316D01*
X91597373Y-70291834D01*
X91623730Y-70289000D01*
X96025501Y-70289000D01*
X96092540Y-70308685D01*
X96138295Y-70361489D01*
X96149501Y-70413000D01*
X96149501Y-70514363D01*
X96164953Y-70631753D01*
X96164957Y-70631765D01*
X96173566Y-70652550D01*
X96181033Y-70722019D01*
X96173566Y-70747450D01*
X96164957Y-70768234D01*
X96164955Y-70768239D01*
X96149500Y-70885638D01*
X96149500Y-70987000D01*
X96129815Y-71054039D01*
X96077011Y-71099794D01*
X96025500Y-71111000D01*
X93161753Y-71111000D01*
X93161737Y-71110999D01*
X93154141Y-71110999D01*
X93005636Y-71110999D01*
X92873951Y-71146284D01*
X92862188Y-71149436D01*
X92733587Y-71223684D01*
X92733581Y-71223689D01*
X91905808Y-72051463D01*
X91844485Y-72084948D01*
X91774793Y-72079964D01*
X91718860Y-72038092D01*
X91694443Y-71972628D01*
X91694769Y-71951179D01*
X91699999Y-71899985D01*
X91700000Y-71899973D01*
X91700000Y-71750000D01*
X89300001Y-71750000D01*
X89300001Y-71899986D01*
X89310494Y-72002697D01*
X89365641Y-72169119D01*
X89365643Y-72169124D01*
X89457684Y-72318345D01*
X89488658Y-72349319D01*
X89522143Y-72410642D01*
X89517159Y-72480334D01*
X89475287Y-72536267D01*
X89409823Y-72560684D01*
X89400977Y-72561000D01*
X77567270Y-72561000D01*
X77500231Y-72541315D01*
X77454476Y-72488511D01*
X77444532Y-72419353D01*
X77462277Y-72371028D01*
X77475787Y-72349526D01*
X77475787Y-72349524D01*
X77475789Y-72349522D01*
X77535368Y-72179255D01*
X77536274Y-72171217D01*
X77555565Y-72000003D01*
X77555565Y-71999996D01*
X77535369Y-71820750D01*
X77535368Y-71820745D01*
X77486236Y-71680334D01*
X77475789Y-71650478D01*
X77379816Y-71497738D01*
X77350319Y-71468241D01*
X77316834Y-71406918D01*
X77314000Y-71380560D01*
X77314000Y-68909167D01*
X77333685Y-68842128D01*
X77386489Y-68796373D01*
X77424121Y-68785946D01*
X77429255Y-68785368D01*
X77599522Y-68725789D01*
X77752262Y-68629816D01*
X77879816Y-68502262D01*
X77975789Y-68349522D01*
X78035368Y-68179255D01*
X78035369Y-68179249D01*
X78055565Y-68000003D01*
X78055565Y-67999996D01*
X78035369Y-67820750D01*
X78035368Y-67820745D01*
X78009635Y-67747204D01*
X77975789Y-67650478D01*
X77879816Y-67497738D01*
X77752262Y-67370184D01*
X77700534Y-67337681D01*
X77599523Y-67274211D01*
X77429254Y-67214631D01*
X77429249Y-67214630D01*
X77250004Y-67194435D01*
X77249996Y-67194435D01*
X77070750Y-67214630D01*
X77070745Y-67214631D01*
X76900476Y-67274211D01*
X76747737Y-67370184D01*
X76620184Y-67497737D01*
X76524211Y-67650476D01*
X76464631Y-67820745D01*
X76464630Y-67820749D01*
X76448282Y-67965842D01*
X76421215Y-68030256D01*
X76412748Y-68039634D01*
X76403703Y-68048680D01*
X76403698Y-68048685D01*
X76298688Y-68153694D01*
X76298684Y-68153699D01*
X76244701Y-68247202D01*
X76244701Y-68247203D01*
X76224435Y-68282303D01*
X76191909Y-68403695D01*
X76186000Y-68425747D01*
X76186000Y-71380560D01*
X76166315Y-71447599D01*
X76149681Y-71468241D01*
X76120184Y-71497737D01*
X76024211Y-71650476D01*
X75964631Y-71820745D01*
X75964630Y-71820750D01*
X75944435Y-71999996D01*
X75944435Y-72000003D01*
X75964630Y-72179249D01*
X75964631Y-72179254D01*
X76024212Y-72349526D01*
X76037723Y-72371028D01*
X76056724Y-72438264D01*
X76036357Y-72505099D01*
X75983089Y-72550314D01*
X75932730Y-72561000D01*
X73688000Y-72561000D01*
X73620961Y-72541315D01*
X73575206Y-72488511D01*
X73564000Y-72437000D01*
X73564000Y-69924499D01*
X73583685Y-69857460D01*
X73636489Y-69811705D01*
X73688000Y-69800499D01*
X73847871Y-69800499D01*
X73847872Y-69800499D01*
X73907483Y-69794091D01*
X74042331Y-69743796D01*
X74157546Y-69657546D01*
X74243796Y-69542331D01*
X74294091Y-69407483D01*
X74300500Y-69347873D01*
X74300499Y-67652128D01*
X74294091Y-67592517D01*
X74285191Y-67568656D01*
X74243797Y-67457671D01*
X74243793Y-67457664D01*
X74157547Y-67342455D01*
X74157544Y-67342452D01*
X74042335Y-67256206D01*
X74042328Y-67256202D01*
X73907482Y-67205908D01*
X73907483Y-67205908D01*
X73847883Y-67199501D01*
X73847881Y-67199500D01*
X73847873Y-67199500D01*
X73847864Y-67199500D01*
X72152129Y-67199500D01*
X72152123Y-67199501D01*
X72092516Y-67205908D01*
X71957671Y-67256202D01*
X71957664Y-67256206D01*
X71842455Y-67342452D01*
X71842452Y-67342455D01*
X71756206Y-67457664D01*
X71756202Y-67457671D01*
X71705908Y-67592517D01*
X71699677Y-67650478D01*
X71699501Y-67652123D01*
X71699500Y-67652135D01*
X71699500Y-69347870D01*
X71699501Y-69347876D01*
X71705908Y-69407483D01*
X71756202Y-69542328D01*
X71756206Y-69542335D01*
X71842452Y-69657544D01*
X71842454Y-69657546D01*
X71957664Y-69743793D01*
X71957671Y-69743797D01*
X71994529Y-69757544D01*
X72092517Y-69794091D01*
X72152127Y-69800500D01*
X72312000Y-69800499D01*
X72379039Y-69820183D01*
X72424794Y-69872987D01*
X72436000Y-69924499D01*
X72436000Y-72715021D01*
X72416315Y-72782060D01*
X72399681Y-72802702D01*
X68412180Y-76790203D01*
X68350857Y-76823688D01*
X68281165Y-76818704D01*
X68225232Y-76776832D01*
X68200815Y-76711368D01*
X68200499Y-76702522D01*
X68200499Y-76599998D01*
X68200498Y-76599981D01*
X68189999Y-76497203D01*
X68189998Y-76497200D01*
X68147848Y-76370000D01*
X68134814Y-76330666D01*
X68042712Y-76181344D01*
X67918656Y-76057288D01*
X67789436Y-75977585D01*
X67769336Y-75965187D01*
X67769331Y-75965185D01*
X67728645Y-75951703D01*
X67602797Y-75910001D01*
X67602795Y-75910000D01*
X67500016Y-75899500D01*
X67500009Y-75899500D01*
X66870808Y-75899500D01*
X66803769Y-75879815D01*
X66783127Y-75863181D01*
X65840285Y-74920340D01*
X65806800Y-74859017D01*
X65811784Y-74789326D01*
X65853656Y-74733392D01*
X65862851Y-74727132D01*
X65918656Y-74692712D01*
X66042712Y-74568656D01*
X66134814Y-74419334D01*
X66189999Y-74252797D01*
X66200500Y-74150009D01*
X66200499Y-73349992D01*
X66200232Y-73347383D01*
X66189999Y-73247203D01*
X66189998Y-73247200D01*
X66187649Y-73240112D01*
X66134814Y-73080666D01*
X66042712Y-72931344D01*
X65949049Y-72837681D01*
X65915564Y-72776358D01*
X65920548Y-72706666D01*
X65949049Y-72662319D01*
X65982672Y-72628696D01*
X66042712Y-72568656D01*
X66134814Y-72419334D01*
X66189999Y-72252797D01*
X66200500Y-72150009D01*
X66200499Y-71398477D01*
X66220183Y-71331439D01*
X66236818Y-71310797D01*
X66448093Y-71099522D01*
X67201313Y-70346304D01*
X67247662Y-70266024D01*
X67298227Y-70217811D01*
X67366834Y-70204587D01*
X67431699Y-70230555D01*
X67442729Y-70240345D01*
X67912744Y-70710360D01*
X67946229Y-70771683D01*
X67948283Y-70784158D01*
X67964630Y-70929249D01*
X67964631Y-70929254D01*
X68024211Y-71099523D01*
X68078549Y-71186000D01*
X68120184Y-71252262D01*
X68247738Y-71379816D01*
X68308886Y-71418238D01*
X68382721Y-71464632D01*
X68400478Y-71475789D01*
X68469678Y-71500003D01*
X68570745Y-71535368D01*
X68570750Y-71535369D01*
X68749996Y-71555565D01*
X68750000Y-71555565D01*
X68750004Y-71555565D01*
X68929249Y-71535369D01*
X68929252Y-71535368D01*
X68929255Y-71535368D01*
X69099522Y-71475789D01*
X69252262Y-71379816D01*
X69379816Y-71252262D01*
X69475789Y-71099522D01*
X69535368Y-70929255D01*
X69539319Y-70894194D01*
X69555565Y-70750000D01*
X69555565Y-70749996D01*
X69535369Y-70570750D01*
X69535368Y-70570745D01*
X69509669Y-70497302D01*
X69475789Y-70400478D01*
X69379816Y-70247738D01*
X69252262Y-70120184D01*
X69149422Y-70055565D01*
X69099523Y-70024211D01*
X68929254Y-69964631D01*
X68929249Y-69964630D01*
X68784158Y-69948283D01*
X68719744Y-69921217D01*
X68710360Y-69912744D01*
X67986818Y-69189202D01*
X67953333Y-69127879D01*
X67950499Y-69101529D01*
X67950499Y-68349992D01*
X67943925Y-68285640D01*
X67939999Y-68247202D01*
X67939998Y-68247200D01*
X67913835Y-68168246D01*
X67884814Y-68080666D01*
X67792712Y-67931344D01*
X67699049Y-67837681D01*
X67665564Y-67776358D01*
X67670548Y-67706666D01*
X67699049Y-67662319D01*
X67724521Y-67636847D01*
X67792712Y-67568656D01*
X67884814Y-67419334D01*
X67939999Y-67252797D01*
X67950500Y-67150009D01*
X67950500Y-67149986D01*
X91550001Y-67149986D01*
X91560494Y-67252697D01*
X91615641Y-67419119D01*
X91615643Y-67419124D01*
X91707684Y-67568345D01*
X91831654Y-67692315D01*
X91980875Y-67784356D01*
X91980880Y-67784358D01*
X92147302Y-67839505D01*
X92147309Y-67839506D01*
X92250019Y-67849999D01*
X92499999Y-67849999D01*
X92500000Y-67849998D01*
X92500000Y-67000000D01*
X91550001Y-67000000D01*
X91550001Y-67149986D01*
X67950500Y-67149986D01*
X67950499Y-67148499D01*
X67950592Y-67148183D01*
X67950660Y-67146860D01*
X67950820Y-67146868D01*
X67950821Y-67146867D01*
X67950844Y-67146869D01*
X67950976Y-67146876D01*
X67970169Y-67081460D01*
X67986813Y-67060801D01*
X68710361Y-66337253D01*
X68771682Y-66303770D01*
X68784148Y-66301717D01*
X68859077Y-66293275D01*
X68929250Y-66285369D01*
X68929253Y-66285368D01*
X68929255Y-66285368D01*
X69099522Y-66225789D01*
X69252262Y-66129816D01*
X69379816Y-66002262D01*
X69475789Y-65849522D01*
X69535368Y-65679255D01*
X69535504Y-65678050D01*
X69555565Y-65500003D01*
X69555565Y-65499996D01*
X69535369Y-65320750D01*
X69535368Y-65320745D01*
X69475788Y-65150475D01*
X69453794Y-65115473D01*
X69434793Y-65048236D01*
X69455160Y-64981401D01*
X69508428Y-64936187D01*
X69558787Y-64925500D01*
X70549782Y-64925500D01*
X70616821Y-64945185D01*
X70655319Y-64984401D01*
X70707288Y-65068656D01*
X70831344Y-65192712D01*
X70980666Y-65284814D01*
X71147203Y-65339999D01*
X71249991Y-65350500D01*
X72250008Y-65350499D01*
X72250016Y-65350498D01*
X72250019Y-65350498D01*
X72306302Y-65344748D01*
X72352797Y-65339999D01*
X72519334Y-65284814D01*
X72668656Y-65192712D01*
X72792712Y-65068656D01*
X72884814Y-64919334D01*
X72939999Y-64752797D01*
X72950500Y-64650009D01*
X72950499Y-64274499D01*
X72970183Y-64207461D01*
X73022987Y-64161706D01*
X73074499Y-64150500D01*
X74419983Y-64150500D01*
X74487022Y-64170185D01*
X74523790Y-64206677D01*
X74552097Y-64250004D01*
X74626016Y-64363147D01*
X74626019Y-64363151D01*
X74626021Y-64363153D01*
X74783216Y-64533913D01*
X74783219Y-64533915D01*
X74783222Y-64533918D01*
X74966365Y-64676464D01*
X74966371Y-64676468D01*
X74966374Y-64676470D01*
X75170497Y-64786936D01*
X75284487Y-64826068D01*
X75390015Y-64862297D01*
X75390017Y-64862297D01*
X75390019Y-64862298D01*
X75618951Y-64900500D01*
X75618952Y-64900500D01*
X75851048Y-64900500D01*
X75851049Y-64900500D01*
X76079981Y-64862298D01*
X76299503Y-64786936D01*
X76503626Y-64676470D01*
X76536993Y-64650500D01*
X76639462Y-64570745D01*
X76686784Y-64533913D01*
X76695130Y-64524846D01*
X76755010Y-64488854D01*
X76824849Y-64490949D01*
X76882468Y-64530469D01*
X76902544Y-64565491D01*
X76931203Y-64642330D01*
X76931206Y-64642335D01*
X77017452Y-64757544D01*
X77017455Y-64757547D01*
X77132664Y-64843793D01*
X77132671Y-64843797D01*
X77267517Y-64894091D01*
X77267516Y-64894091D01*
X77274444Y-64894835D01*
X77327127Y-64900500D01*
X79222872Y-64900499D01*
X79282483Y-64894091D01*
X79417331Y-64843796D01*
X79532546Y-64757546D01*
X79618796Y-64642331D01*
X79669091Y-64507483D01*
X79675500Y-64447873D01*
X79675499Y-62552128D01*
X79669091Y-62492517D01*
X79662643Y-62475230D01*
X79618797Y-62357671D01*
X79618793Y-62357664D01*
X79532547Y-62242455D01*
X79532544Y-62242452D01*
X79417335Y-62156206D01*
X79417328Y-62156202D01*
X79282482Y-62105908D01*
X79282483Y-62105908D01*
X79222883Y-62099501D01*
X79222881Y-62099500D01*
X79222873Y-62099500D01*
X79222865Y-62099500D01*
X78963000Y-62099500D01*
X78895961Y-62079815D01*
X78850206Y-62027011D01*
X78839000Y-61975500D01*
X78839000Y-61950749D01*
X78839000Y-61950748D01*
X78832301Y-61925748D01*
X78800565Y-61807304D01*
X78776831Y-61766196D01*
X78726313Y-61678696D01*
X78621304Y-61573687D01*
X78621303Y-61573686D01*
X78616973Y-61569356D01*
X78616962Y-61569346D01*
X77458383Y-60410767D01*
X77458381Y-60410764D01*
X77346306Y-60298689D01*
X77346300Y-60298684D01*
X77217699Y-60224436D01*
X77217695Y-60224434D01*
X77211819Y-60222860D01*
X77211819Y-60222859D01*
X77094182Y-60191340D01*
X77074253Y-60186000D01*
X77074252Y-60186000D01*
X73074253Y-60186000D01*
X72925747Y-60186000D01*
X72788180Y-60222859D01*
X72788181Y-60222860D01*
X72782304Y-60224434D01*
X72782300Y-60224436D01*
X72653699Y-60298684D01*
X72653693Y-60298689D01*
X72548685Y-60403698D01*
X71839201Y-61113181D01*
X71777878Y-61146666D01*
X71751520Y-61149500D01*
X71249998Y-61149500D01*
X71249980Y-61149501D01*
X71147203Y-61160000D01*
X71147200Y-61160001D01*
X70980668Y-61215185D01*
X70980663Y-61215187D01*
X70831342Y-61307289D01*
X70707289Y-61431342D01*
X70615187Y-61580663D01*
X70612136Y-61587209D01*
X70609747Y-61586095D01*
X70576946Y-61633459D01*
X70512427Y-61660274D01*
X70499025Y-61661000D01*
X69856865Y-61661000D01*
X69856849Y-61660999D01*
X69849253Y-61660999D01*
X69700748Y-61660999D01*
X69599980Y-61688000D01*
X69557300Y-61699436D01*
X69428699Y-61773684D01*
X69428693Y-61773689D01*
X69039637Y-62162744D01*
X68978314Y-62196229D01*
X68965840Y-62198283D01*
X68820749Y-62214630D01*
X68820745Y-62214631D01*
X68650476Y-62274211D01*
X68497737Y-62370184D01*
X68370184Y-62497737D01*
X68274211Y-62650476D01*
X68214631Y-62820745D01*
X68214630Y-62820750D01*
X68194435Y-62999996D01*
X68194435Y-63000003D01*
X68214630Y-63179249D01*
X68214631Y-63179254D01*
X68264139Y-63320737D01*
X68274211Y-63349522D01*
X68320718Y-63423538D01*
X68327624Y-63434528D01*
X68346624Y-63501764D01*
X68326256Y-63568600D01*
X68272989Y-63613814D01*
X68222630Y-63624500D01*
X66660929Y-63624500D01*
X66535261Y-63649497D01*
X66535255Y-63649499D01*
X66416875Y-63698533D01*
X66416866Y-63698538D01*
X66310331Y-63769723D01*
X66310327Y-63769726D01*
X62744727Y-67335325D01*
X62744721Y-67335332D01*
X62688594Y-67419333D01*
X62688595Y-67419334D01*
X62673534Y-67441874D01*
X62624499Y-67560255D01*
X62624497Y-67560261D01*
X62599500Y-67685928D01*
X62599500Y-67685931D01*
X62599500Y-73685931D01*
X62599500Y-98685931D01*
X62599500Y-102185931D01*
X62599500Y-106685931D01*
X62599500Y-109814069D01*
X62599500Y-109814071D01*
X62599499Y-109814071D01*
X62617700Y-109905565D01*
X62617700Y-109905566D01*
X62624496Y-109939737D01*
X62624498Y-109939742D01*
X62672550Y-110055748D01*
X62673535Y-110058127D01*
X62744723Y-110164669D01*
X62744726Y-110164673D01*
X64085325Y-111505272D01*
X64085332Y-111505278D01*
X64164427Y-111558127D01*
X64164428Y-111558127D01*
X64191873Y-111576465D01*
X64310256Y-111625501D01*
X64310260Y-111625501D01*
X64310261Y-111625502D01*
X64435928Y-111650500D01*
X64435931Y-111650500D01*
X72725500Y-111650500D01*
X72792539Y-111670185D01*
X72838294Y-111722989D01*
X72849500Y-111774500D01*
X72849500Y-117838482D01*
X72829815Y-117905521D01*
X72777011Y-117951276D01*
X72707853Y-117961220D01*
X72644297Y-117932195D01*
X72621692Y-117906305D01*
X72608982Y-117886852D01*
X72608979Y-117886847D01*
X72451784Y-117716087D01*
X72451779Y-117716083D01*
X72451777Y-117716081D01*
X72268634Y-117573535D01*
X72268628Y-117573531D01*
X72064504Y-117463064D01*
X72064495Y-117463061D01*
X71844984Y-117387702D01*
X71654450Y-117355908D01*
X71616049Y-117349500D01*
X71383951Y-117349500D01*
X71345550Y-117355908D01*
X71155015Y-117387702D01*
X70935504Y-117463061D01*
X70935495Y-117463064D01*
X70731371Y-117573531D01*
X70731365Y-117573535D01*
X70548222Y-117716081D01*
X70548218Y-117716085D01*
X70539866Y-117725158D01*
X70479979Y-117761148D01*
X70410141Y-117759047D01*
X70352525Y-117719522D01*
X70332455Y-117684507D01*
X70303797Y-117607671D01*
X70303793Y-117607664D01*
X70217547Y-117492455D01*
X70217544Y-117492452D01*
X70102335Y-117406206D01*
X70102328Y-117406202D01*
X69967482Y-117355908D01*
X69967483Y-117355908D01*
X69907883Y-117349501D01*
X69907881Y-117349500D01*
X69907873Y-117349500D01*
X69907864Y-117349500D01*
X68012129Y-117349500D01*
X68012123Y-117349501D01*
X67952516Y-117355908D01*
X67817671Y-117406202D01*
X67817668Y-117406204D01*
X67810907Y-117411266D01*
X67745443Y-117435684D01*
X67736595Y-117436000D01*
X66942396Y-117436000D01*
X66875357Y-117416315D01*
X66829602Y-117363511D01*
X66824690Y-117351004D01*
X66824192Y-117349500D01*
X66784814Y-117230666D01*
X66692712Y-117081344D01*
X66568656Y-116957288D01*
X66419334Y-116865186D01*
X66252797Y-116810001D01*
X66252795Y-116810000D01*
X66150010Y-116799500D01*
X65349998Y-116799500D01*
X65349980Y-116799501D01*
X65247203Y-116810000D01*
X65247200Y-116810001D01*
X65080668Y-116865185D01*
X65080663Y-116865187D01*
X64931342Y-116957289D01*
X64837681Y-117050951D01*
X64776358Y-117084436D01*
X64706666Y-117079452D01*
X64662319Y-117050951D01*
X64568657Y-116957289D01*
X64568656Y-116957288D01*
X64419334Y-116865186D01*
X64419333Y-116865185D01*
X64419332Y-116865185D01*
X64398993Y-116858445D01*
X64341549Y-116818671D01*
X64314728Y-116754154D01*
X64314000Y-116740740D01*
X64314000Y-116034978D01*
X64333685Y-115967939D01*
X64350319Y-115947297D01*
X65147615Y-115150001D01*
X65960362Y-114337253D01*
X66021683Y-114303770D01*
X66034151Y-114301717D01*
X66099071Y-114294402D01*
X66179250Y-114285369D01*
X66179253Y-114285368D01*
X66179255Y-114285368D01*
X66349522Y-114225789D01*
X66502262Y-114129816D01*
X66629816Y-114002262D01*
X66725789Y-113849522D01*
X66785368Y-113679255D01*
X66785369Y-113679249D01*
X66805565Y-113500003D01*
X66805565Y-113499996D01*
X66785369Y-113320750D01*
X66785368Y-113320745D01*
X66746850Y-113210668D01*
X66725789Y-113150478D01*
X66629816Y-112997738D01*
X66502262Y-112870184D01*
X66469379Y-112849522D01*
X66349523Y-112774211D01*
X66179254Y-112714631D01*
X66179249Y-112714630D01*
X66000004Y-112694435D01*
X65999996Y-112694435D01*
X65820750Y-112714630D01*
X65820745Y-112714631D01*
X65650476Y-112774211D01*
X65497737Y-112870184D01*
X65370184Y-112997737D01*
X65274211Y-113150476D01*
X65214631Y-113320745D01*
X65214630Y-113320749D01*
X65198283Y-113465840D01*
X65171216Y-113530254D01*
X65162744Y-113539637D01*
X63403698Y-115298685D01*
X63298689Y-115403693D01*
X63298685Y-115403699D01*
X63224436Y-115532301D01*
X63224435Y-115532304D01*
X63186000Y-115675748D01*
X63186000Y-116740740D01*
X63166315Y-116807779D01*
X63113511Y-116853534D01*
X63101007Y-116858445D01*
X63080667Y-116865185D01*
X62931342Y-116957289D01*
X62807289Y-117081342D01*
X62715187Y-117230663D01*
X62715186Y-117230666D01*
X62660001Y-117397203D01*
X62660001Y-117397204D01*
X62660000Y-117397204D01*
X62649500Y-117499983D01*
X62649500Y-118500001D01*
X62649501Y-118500019D01*
X62660000Y-118602796D01*
X62660001Y-118602799D01*
X62697688Y-118716530D01*
X62715186Y-118769334D01*
X62807288Y-118918656D01*
X62931344Y-119042712D01*
X63080666Y-119134814D01*
X63247203Y-119189999D01*
X63349991Y-119200500D01*
X64150008Y-119200499D01*
X64150016Y-119200498D01*
X64150019Y-119200498D01*
X64206302Y-119194748D01*
X64252797Y-119189999D01*
X64419334Y-119134814D01*
X64568656Y-119042712D01*
X64662319Y-118949049D01*
X64723642Y-118915564D01*
X64793334Y-118920548D01*
X64837681Y-118949049D01*
X64931344Y-119042712D01*
X65080666Y-119134814D01*
X65247203Y-119189999D01*
X65349991Y-119200500D01*
X66150008Y-119200499D01*
X66150016Y-119200498D01*
X66150019Y-119200498D01*
X66206302Y-119194748D01*
X66252797Y-119189999D01*
X66419334Y-119134814D01*
X66568656Y-119042712D01*
X66692712Y-118918656D01*
X66784814Y-118769334D01*
X66824690Y-118648995D01*
X66864463Y-118591551D01*
X66928979Y-118564728D01*
X66942396Y-118564000D01*
X67435500Y-118564000D01*
X67502539Y-118583685D01*
X67548294Y-118636489D01*
X67559500Y-118688000D01*
X67559500Y-119697870D01*
X67559501Y-119697876D01*
X67565908Y-119757483D01*
X67616202Y-119892328D01*
X67616206Y-119892335D01*
X67702452Y-120007544D01*
X67702455Y-120007547D01*
X67817664Y-120093793D01*
X67817671Y-120093797D01*
X67859479Y-120109390D01*
X67952517Y-120144091D01*
X68012127Y-120150500D01*
X68272001Y-120150499D01*
X68339039Y-120170183D01*
X68384794Y-120222987D01*
X68396000Y-120274499D01*
X68396000Y-122085747D01*
X68396000Y-122234253D01*
X68407956Y-122278871D01*
X68420115Y-122324251D01*
X68434435Y-122377697D01*
X68434436Y-122377698D01*
X68508687Y-122506304D01*
X68508689Y-122506306D01*
X68620761Y-122618378D01*
X68620767Y-122618383D01*
X69263181Y-123260797D01*
X69296666Y-123322120D01*
X69299500Y-123348478D01*
X69299500Y-124075001D01*
X69299501Y-124075019D01*
X69310000Y-124177796D01*
X69310001Y-124177799D01*
X69365185Y-124344331D01*
X69365187Y-124344336D01*
X69400069Y-124400888D01*
X69429048Y-124447872D01*
X69457289Y-124493657D01*
X69581346Y-124617714D01*
X69584182Y-124619463D01*
X69585717Y-124621170D01*
X69587011Y-124622193D01*
X69586836Y-124622414D01*
X69630905Y-124671411D01*
X69642126Y-124740374D01*
X69614282Y-124804456D01*
X69584182Y-124830537D01*
X69581346Y-124832285D01*
X69457289Y-124956342D01*
X69365187Y-125105663D01*
X69365186Y-125105666D01*
X69310001Y-125272203D01*
X69310001Y-125272204D01*
X69310000Y-125272204D01*
X69299500Y-125374983D01*
X69299500Y-126125001D01*
X69299501Y-126125019D01*
X69310000Y-126227796D01*
X69310001Y-126227799D01*
X69334519Y-126301787D01*
X69365186Y-126394334D01*
X69457288Y-126543656D01*
X69581344Y-126667712D01*
X69730666Y-126759814D01*
X69730670Y-126759815D01*
X69737209Y-126762864D01*
X69735913Y-126765642D01*
X69782031Y-126797585D01*
X69808841Y-126862106D01*
X69796513Y-126930879D01*
X69748961Y-126982070D01*
X69685567Y-126999500D01*
X64503751Y-126999500D01*
X64496264Y-126999274D01*
X64206205Y-126981728D01*
X64191340Y-126979923D01*
X63909201Y-126928219D01*
X63894663Y-126924635D01*
X63620832Y-126839306D01*
X63606831Y-126833997D01*
X63345263Y-126716275D01*
X63332004Y-126709316D01*
X63086540Y-126560928D01*
X63074217Y-126552422D01*
X63063029Y-126543657D01*
X62848426Y-126375526D01*
X62837218Y-126365596D01*
X62634403Y-126162781D01*
X62624473Y-126151573D01*
X62603667Y-126125016D01*
X62447573Y-125925776D01*
X62439075Y-125913465D01*
X62290680Y-125667989D01*
X62283727Y-125654743D01*
X62166000Y-125393163D01*
X62160693Y-125379167D01*
X62159550Y-125375500D01*
X62075363Y-125105335D01*
X62071780Y-125090798D01*
X62020076Y-124808659D01*
X62018271Y-124793794D01*
X62017303Y-124777799D01*
X62000726Y-124503736D01*
X62000500Y-124496249D01*
X62000500Y-123881902D01*
X63499500Y-123881902D01*
X63499500Y-124118097D01*
X63536446Y-124351368D01*
X63609433Y-124575996D01*
X63685355Y-124725000D01*
X63716657Y-124786433D01*
X63855483Y-124977510D01*
X64022490Y-125144517D01*
X64213567Y-125283343D01*
X64312991Y-125334002D01*
X64424003Y-125390566D01*
X64424005Y-125390566D01*
X64424008Y-125390568D01*
X64453037Y-125400000D01*
X64648631Y-125463553D01*
X64881903Y-125500500D01*
X64881908Y-125500500D01*
X65118097Y-125500500D01*
X65351368Y-125463553D01*
X65404387Y-125446326D01*
X65575992Y-125390568D01*
X65786433Y-125283343D01*
X65977510Y-125144517D01*
X66144517Y-124977510D01*
X66283343Y-124786433D01*
X66390568Y-124575992D01*
X66463553Y-124351368D01*
X66475728Y-124274500D01*
X66500500Y-124118097D01*
X66500500Y-123881902D01*
X66463553Y-123648631D01*
X66417320Y-123506342D01*
X66390568Y-123424008D01*
X66390566Y-123424005D01*
X66390566Y-123424003D01*
X66322382Y-123290186D01*
X66283343Y-123213567D01*
X66144517Y-123022490D01*
X65977510Y-122855483D01*
X65786433Y-122716657D01*
X65726130Y-122685931D01*
X65575996Y-122609433D01*
X65351368Y-122536446D01*
X65118097Y-122499500D01*
X65118092Y-122499500D01*
X64881908Y-122499500D01*
X64881903Y-122499500D01*
X64648631Y-122536446D01*
X64424003Y-122609433D01*
X64213566Y-122716657D01*
X64108048Y-122793321D01*
X64022490Y-122855483D01*
X64022488Y-122855485D01*
X64022487Y-122855485D01*
X63855485Y-123022487D01*
X63855485Y-123022488D01*
X63855483Y-123022490D01*
X63831379Y-123055666D01*
X63716657Y-123213566D01*
X63609433Y-123424003D01*
X63536446Y-123648631D01*
X63499500Y-123881902D01*
X62000500Y-123881902D01*
X62000500Y-61131902D01*
X63749500Y-61131902D01*
X63749500Y-61368097D01*
X63786446Y-61601368D01*
X63859433Y-61825996D01*
X63961051Y-62025430D01*
X63966657Y-62036433D01*
X64105483Y-62227510D01*
X64272490Y-62394517D01*
X64463567Y-62533343D01*
X64494039Y-62548869D01*
X64674003Y-62640566D01*
X64674005Y-62640566D01*
X64674008Y-62640568D01*
X64794412Y-62679689D01*
X64898631Y-62713553D01*
X65131903Y-62750500D01*
X65131908Y-62750500D01*
X65368097Y-62750500D01*
X65601368Y-62713553D01*
X65693667Y-62683563D01*
X65825992Y-62640568D01*
X66036433Y-62533343D01*
X66227510Y-62394517D01*
X66394517Y-62227510D01*
X66533343Y-62036433D01*
X66640568Y-61825992D01*
X66713553Y-61601368D01*
X66716832Y-61580663D01*
X66750500Y-61368097D01*
X66750500Y-61131902D01*
X66713553Y-60898631D01*
X66665259Y-60749999D01*
X66640568Y-60674008D01*
X66640566Y-60674005D01*
X66640566Y-60674003D01*
X66570421Y-60536337D01*
X66533343Y-60463567D01*
X66394517Y-60272490D01*
X66227510Y-60105483D01*
X66036433Y-59966657D01*
X66026314Y-59961501D01*
X65825996Y-59859433D01*
X65601368Y-59786446D01*
X65368097Y-59749500D01*
X65368092Y-59749500D01*
X65131908Y-59749500D01*
X65131903Y-59749500D01*
X64898631Y-59786446D01*
X64674003Y-59859433D01*
X64463566Y-59966657D01*
X64363881Y-60039083D01*
X64272490Y-60105483D01*
X64272488Y-60105485D01*
X64272487Y-60105485D01*
X64105485Y-60272487D01*
X64105485Y-60272488D01*
X64105483Y-60272490D01*
X64074893Y-60314594D01*
X63966657Y-60463566D01*
X63859433Y-60674003D01*
X63786446Y-60898631D01*
X63749500Y-61131902D01*
X62000500Y-61131902D01*
X62000500Y-60503750D01*
X62000726Y-60496263D01*
X62005562Y-60416315D01*
X62018271Y-60206201D01*
X62020076Y-60191340D01*
X62033254Y-60119433D01*
X62071780Y-59909197D01*
X62075364Y-59894663D01*
X62086342Y-59859433D01*
X62160696Y-59620822D01*
X62165998Y-59606841D01*
X62283731Y-59345249D01*
X62290676Y-59332016D01*
X62439080Y-59086526D01*
X62447567Y-59074230D01*
X62624480Y-58848417D01*
X62634395Y-58837226D01*
X62837226Y-58634395D01*
X62848417Y-58624480D01*
X63074230Y-58447567D01*
X63086526Y-58439080D01*
X63332016Y-58290676D01*
X63345249Y-58283731D01*
X63606841Y-58165998D01*
X63620822Y-58160696D01*
X63894668Y-58075362D01*
X63909197Y-58071780D01*
X64191344Y-58020075D01*
X64206201Y-58018271D01*
X64496264Y-58000726D01*
X64503751Y-58000500D01*
X64565892Y-58000500D01*
X144434108Y-58000500D01*
X144496249Y-58000500D01*
X144503736Y-58000726D01*
G37*
G04 #@! TD.AperFunction*
G04 #@! TA.AperFunction,Conductor*
G36*
X140307539Y-64670185D02*
G01*
X140353294Y-64722989D01*
X140364500Y-64774500D01*
X140364500Y-67185714D01*
X140344815Y-67252753D01*
X140299519Y-67294768D01*
X140246376Y-67323528D01*
X140246365Y-67323535D01*
X140063222Y-67466081D01*
X140063218Y-67466085D01*
X140054866Y-67475158D01*
X139994979Y-67511148D01*
X139925141Y-67509047D01*
X139867525Y-67469522D01*
X139847455Y-67434507D01*
X139818797Y-67357671D01*
X139818793Y-67357664D01*
X139732547Y-67242455D01*
X139732544Y-67242452D01*
X139617335Y-67156206D01*
X139617328Y-67156202D01*
X139482482Y-67105908D01*
X139482483Y-67105908D01*
X139422883Y-67099501D01*
X139422881Y-67099500D01*
X139422873Y-67099500D01*
X139422864Y-67099500D01*
X137527129Y-67099500D01*
X137527123Y-67099501D01*
X137467516Y-67105908D01*
X137332671Y-67156202D01*
X137332664Y-67156206D01*
X137217455Y-67242452D01*
X137217452Y-67242455D01*
X137131206Y-67357664D01*
X137131202Y-67357671D01*
X137080908Y-67492517D01*
X137074501Y-67552116D01*
X137074500Y-67552135D01*
X137074500Y-69447870D01*
X137074501Y-69447876D01*
X137080908Y-69507483D01*
X137131202Y-69642328D01*
X137131206Y-69642335D01*
X137217452Y-69757544D01*
X137217455Y-69757547D01*
X137332664Y-69843793D01*
X137332671Y-69843797D01*
X137369304Y-69857460D01*
X137467517Y-69894091D01*
X137527127Y-69900500D01*
X137787001Y-69900499D01*
X137854039Y-69920183D01*
X137899794Y-69972987D01*
X137911000Y-70024499D01*
X137911000Y-70740021D01*
X137891315Y-70807060D01*
X137874681Y-70827702D01*
X137162180Y-71540203D01*
X137100857Y-71573688D01*
X137031165Y-71568704D01*
X136975232Y-71526832D01*
X136950815Y-71461368D01*
X136950499Y-71452522D01*
X136950499Y-71349998D01*
X136950498Y-71349981D01*
X136939999Y-71247203D01*
X136939998Y-71247200D01*
X136932207Y-71223689D01*
X136884814Y-71080666D01*
X136792712Y-70931344D01*
X136668656Y-70807288D01*
X136519334Y-70715186D01*
X136398995Y-70675309D01*
X136341551Y-70635537D01*
X136314728Y-70571021D01*
X136314000Y-70557604D01*
X136314000Y-70175749D01*
X136313934Y-70175501D01*
X136312282Y-70169334D01*
X136275565Y-70032303D01*
X136275564Y-70032302D01*
X136274078Y-70026754D01*
X136275741Y-69956904D01*
X136276797Y-69953747D01*
X136285368Y-69929255D01*
X136287228Y-69912744D01*
X136305565Y-69750003D01*
X136305565Y-69749996D01*
X136285369Y-69570750D01*
X136285368Y-69570745D01*
X136275427Y-69542335D01*
X136225789Y-69400478D01*
X136225494Y-69400009D01*
X136152700Y-69284158D01*
X136129816Y-69247738D01*
X136002262Y-69120184D01*
X135970125Y-69099991D01*
X135849523Y-69024211D01*
X135679254Y-68964631D01*
X135679249Y-68964630D01*
X135500004Y-68944435D01*
X135499996Y-68944435D01*
X135320750Y-68964630D01*
X135320745Y-68964631D01*
X135150476Y-69024211D01*
X134997737Y-69120184D01*
X134870184Y-69247737D01*
X134774211Y-69400476D01*
X134714631Y-69570745D01*
X134714630Y-69570750D01*
X134694435Y-69749996D01*
X134694435Y-69750003D01*
X134714630Y-69929249D01*
X134714631Y-69929254D01*
X134774211Y-70099523D01*
X134862696Y-70240345D01*
X134870184Y-70252262D01*
X134997738Y-70379816D01*
X135118555Y-70455730D01*
X135164846Y-70508065D01*
X135175494Y-70577118D01*
X135147119Y-70640967D01*
X135091588Y-70678430D01*
X134980666Y-70715186D01*
X134980663Y-70715187D01*
X134831342Y-70807289D01*
X134707289Y-70931342D01*
X134615187Y-71080663D01*
X134615185Y-71080668D01*
X134587349Y-71164670D01*
X134560001Y-71247203D01*
X134560001Y-71247204D01*
X134560000Y-71247204D01*
X134549500Y-71349983D01*
X134549500Y-72150001D01*
X134549501Y-72150019D01*
X134560000Y-72252796D01*
X134560001Y-72252797D01*
X134615185Y-72419331D01*
X134615187Y-72419336D01*
X134621305Y-72429255D01*
X134687310Y-72536267D01*
X134707289Y-72568657D01*
X134800951Y-72662319D01*
X134834436Y-72723642D01*
X134829452Y-72793334D01*
X134800951Y-72837681D01*
X134707289Y-72931342D01*
X134615187Y-73080663D01*
X134615185Y-73080668D01*
X134587349Y-73164670D01*
X134560001Y-73247203D01*
X134560001Y-73247204D01*
X134560000Y-73247204D01*
X134549500Y-73349983D01*
X134549500Y-74150001D01*
X134549501Y-74150019D01*
X134560000Y-74252796D01*
X134560001Y-74252799D01*
X134615185Y-74419331D01*
X134615187Y-74419336D01*
X134640710Y-74460716D01*
X134707288Y-74568656D01*
X134831344Y-74692712D01*
X134980666Y-74784814D01*
X135147203Y-74839999D01*
X135249991Y-74850500D01*
X136250008Y-74850499D01*
X136250016Y-74850498D01*
X136250019Y-74850498D01*
X136306302Y-74844748D01*
X136352797Y-74839999D01*
X136519334Y-74784814D01*
X136668656Y-74692712D01*
X136792712Y-74568656D01*
X136884814Y-74419334D01*
X136939999Y-74252797D01*
X136950500Y-74150009D01*
X136950499Y-73398476D01*
X136970183Y-73331438D01*
X136986813Y-73310801D01*
X138387322Y-71910293D01*
X138448641Y-71876811D01*
X138518333Y-71881795D01*
X138562680Y-71910296D01*
X138744346Y-72091962D01*
X138744356Y-72091973D01*
X138748686Y-72096303D01*
X138748687Y-72096304D01*
X138853696Y-72201313D01*
X138938030Y-72250003D01*
X138942869Y-72252797D01*
X138942870Y-72252798D01*
X138982298Y-72275562D01*
X138982299Y-72275563D01*
X138982301Y-72275563D01*
X138982304Y-72275565D01*
X139125748Y-72314001D01*
X139125751Y-72314001D01*
X139281849Y-72314001D01*
X139281865Y-72314000D01*
X146574250Y-72314000D01*
X146574252Y-72314000D01*
X146717696Y-72275565D01*
X146813501Y-72220251D01*
X146881400Y-72203779D01*
X146947427Y-72226631D01*
X146990617Y-72281552D01*
X146999500Y-72327639D01*
X146999500Y-124496249D01*
X146999274Y-124503736D01*
X146981728Y-124793794D01*
X146979923Y-124808659D01*
X146928219Y-125090798D01*
X146924635Y-125105336D01*
X146839306Y-125379167D01*
X146833997Y-125393168D01*
X146716275Y-125654736D01*
X146709316Y-125667995D01*
X146560928Y-125913459D01*
X146552422Y-125925782D01*
X146375526Y-126151573D01*
X146365596Y-126162781D01*
X146162781Y-126365596D01*
X146151573Y-126375526D01*
X145925782Y-126552422D01*
X145913459Y-126560928D01*
X145667995Y-126709316D01*
X145654736Y-126716275D01*
X145393168Y-126833997D01*
X145379167Y-126839306D01*
X145105336Y-126924635D01*
X145090798Y-126928219D01*
X144808659Y-126979923D01*
X144793794Y-126981728D01*
X144503736Y-126999274D01*
X144496249Y-126999500D01*
X71314433Y-126999500D01*
X71247394Y-126979815D01*
X71201639Y-126927011D01*
X71191695Y-126857853D01*
X71220720Y-126794297D01*
X71263984Y-126765423D01*
X71262791Y-126762864D01*
X71269326Y-126759816D01*
X71269334Y-126759814D01*
X71418656Y-126667712D01*
X71542712Y-126543656D01*
X71634814Y-126394334D01*
X71689999Y-126227797D01*
X71700500Y-126125009D01*
X71700499Y-125520806D01*
X71720183Y-125453768D01*
X71736813Y-125433131D01*
X72419946Y-124749999D01*
X75721127Y-124749999D01*
X75721128Y-124750000D01*
X76684314Y-124750000D01*
X76679920Y-124754394D01*
X76627259Y-124845606D01*
X76600000Y-124947339D01*
X76600000Y-125052661D01*
X76627259Y-125154394D01*
X76679920Y-125245606D01*
X76684314Y-125250000D01*
X75721128Y-125250000D01*
X75773730Y-125446317D01*
X75773734Y-125446326D01*
X75869865Y-125652482D01*
X76000342Y-125838820D01*
X76161179Y-125999657D01*
X76347517Y-126130134D01*
X76553673Y-126226265D01*
X76553682Y-126226269D01*
X76749999Y-126278872D01*
X76750000Y-126278871D01*
X76750000Y-125315686D01*
X76754394Y-125320080D01*
X76845606Y-125372741D01*
X76947339Y-125400000D01*
X77052661Y-125400000D01*
X77154394Y-125372741D01*
X77245606Y-125320080D01*
X77250000Y-125315686D01*
X77250000Y-126278872D01*
X77446317Y-126226269D01*
X77446326Y-126226265D01*
X77652482Y-126130134D01*
X77838820Y-125999657D01*
X77999657Y-125838820D01*
X78130134Y-125652482D01*
X78226265Y-125446326D01*
X78226269Y-125446317D01*
X78278872Y-125250000D01*
X77315686Y-125250000D01*
X77320080Y-125245606D01*
X77372741Y-125154394D01*
X77400000Y-125052661D01*
X77400000Y-124947339D01*
X77372741Y-124845606D01*
X77320080Y-124754394D01*
X77315686Y-124750000D01*
X78278872Y-124750000D01*
X78278872Y-124749999D01*
X78226269Y-124553682D01*
X78226265Y-124553673D01*
X78130134Y-124347517D01*
X77999657Y-124161179D01*
X77838820Y-124000342D01*
X77652482Y-123869865D01*
X77446328Y-123773734D01*
X77250000Y-123721127D01*
X77250000Y-124684314D01*
X77245606Y-124679920D01*
X77154394Y-124627259D01*
X77052661Y-124600000D01*
X76947339Y-124600000D01*
X76845606Y-124627259D01*
X76754394Y-124679920D01*
X76750000Y-124684314D01*
X76750000Y-123721127D01*
X76553671Y-123773734D01*
X76347517Y-123869865D01*
X76161179Y-124000342D01*
X76000342Y-124161179D01*
X75869865Y-124347517D01*
X75773734Y-124553673D01*
X75773730Y-124553682D01*
X75721127Y-124749999D01*
X72419946Y-124749999D01*
X74005277Y-123164669D01*
X74076465Y-123058127D01*
X74125501Y-122939743D01*
X74150500Y-122814069D01*
X74150500Y-122685931D01*
X74150500Y-120685931D01*
X74150500Y-115793078D01*
X74170185Y-115726039D01*
X74222989Y-115680284D01*
X74292147Y-115670340D01*
X74340471Y-115688084D01*
X74356458Y-115698129D01*
X74400475Y-115725788D01*
X74570745Y-115785368D01*
X74570750Y-115785369D01*
X74749996Y-115805565D01*
X74750000Y-115805565D01*
X74750004Y-115805565D01*
X74929249Y-115785369D01*
X74929252Y-115785368D01*
X74929255Y-115785368D01*
X75099522Y-115725789D01*
X75252262Y-115629816D01*
X75379816Y-115502262D01*
X75475789Y-115349522D01*
X75481348Y-115333633D01*
X75510707Y-115286908D01*
X75912320Y-114885295D01*
X75973641Y-114851812D01*
X76043333Y-114856796D01*
X76087680Y-114885297D01*
X76162743Y-114960360D01*
X76196228Y-115021683D01*
X76198282Y-115034157D01*
X76214630Y-115179250D01*
X76214631Y-115179254D01*
X76274211Y-115349523D01*
X76318078Y-115419336D01*
X76370184Y-115502262D01*
X76497738Y-115629816D01*
X76650478Y-115725789D01*
X76794996Y-115776358D01*
X76820745Y-115785368D01*
X76820750Y-115785369D01*
X76999996Y-115805565D01*
X77000000Y-115805565D01*
X77000004Y-115805565D01*
X77179249Y-115785369D01*
X77179252Y-115785368D01*
X77179255Y-115785368D01*
X77349522Y-115725789D01*
X77502262Y-115629816D01*
X77629816Y-115502262D01*
X77725789Y-115349522D01*
X77785368Y-115179255D01*
X77788662Y-115150019D01*
X77805565Y-115000003D01*
X77805565Y-114999996D01*
X77785369Y-114820750D01*
X77785368Y-114820745D01*
X77777275Y-114797616D01*
X77725789Y-114650478D01*
X77629816Y-114497738D01*
X77544258Y-114412180D01*
X77510773Y-114350857D01*
X77515757Y-114281165D01*
X77557629Y-114225232D01*
X77623093Y-114200815D01*
X77631912Y-114200499D01*
X78400008Y-114200499D01*
X78400016Y-114200498D01*
X78400019Y-114200498D01*
X78459371Y-114194435D01*
X78502797Y-114189999D01*
X78669334Y-114134814D01*
X78818656Y-114042712D01*
X78942712Y-113918656D01*
X79034814Y-113769334D01*
X79089999Y-113602797D01*
X79100500Y-113500009D01*
X79100499Y-112499992D01*
X79097692Y-112472517D01*
X79089999Y-112397203D01*
X79089998Y-112397200D01*
X79081046Y-112370184D01*
X79034814Y-112230666D01*
X78942712Y-112081344D01*
X78818656Y-111957288D01*
X78709402Y-111889900D01*
X78662679Y-111837953D01*
X78650500Y-111784362D01*
X78650500Y-111774500D01*
X78670185Y-111707461D01*
X78722989Y-111661706D01*
X78774500Y-111650500D01*
X81725500Y-111650500D01*
X81792539Y-111670185D01*
X81838294Y-111722989D01*
X81849500Y-111774500D01*
X81849500Y-113586267D01*
X81829815Y-113653306D01*
X81777011Y-113699061D01*
X81764506Y-113703972D01*
X81730671Y-113715184D01*
X81730663Y-113715187D01*
X81581342Y-113807289D01*
X81457289Y-113931342D01*
X81365187Y-114080663D01*
X81365185Y-114080668D01*
X81348899Y-114129816D01*
X81310001Y-114247203D01*
X81310001Y-114247204D01*
X81310000Y-114247204D01*
X81299500Y-114349983D01*
X81299500Y-115150001D01*
X81299501Y-115150019D01*
X81310000Y-115252796D01*
X81310001Y-115252799D01*
X81365185Y-115419331D01*
X81365187Y-115419336D01*
X81457289Y-115568657D01*
X81550951Y-115662319D01*
X81584436Y-115723642D01*
X81579452Y-115793334D01*
X81550951Y-115837681D01*
X81457289Y-115931342D01*
X81365187Y-116080663D01*
X81365185Y-116080668D01*
X81358447Y-116101004D01*
X81318674Y-116158449D01*
X81254158Y-116185272D01*
X81240741Y-116186000D01*
X78150122Y-116186000D01*
X78083083Y-116166315D01*
X78075811Y-116161267D01*
X78042331Y-116136204D01*
X78042328Y-116136202D01*
X77907482Y-116085908D01*
X77907483Y-116085908D01*
X77847883Y-116079501D01*
X77847881Y-116079500D01*
X77847873Y-116079500D01*
X77847864Y-116079500D01*
X76152129Y-116079500D01*
X76152123Y-116079501D01*
X76092516Y-116085908D01*
X75957671Y-116136202D01*
X75957664Y-116136206D01*
X75842455Y-116222452D01*
X75842452Y-116222455D01*
X75756206Y-116337664D01*
X75756202Y-116337671D01*
X75705908Y-116472517D01*
X75699501Y-116532116D01*
X75699500Y-116532135D01*
X75699500Y-117831520D01*
X75679815Y-117898559D01*
X75663180Y-117919202D01*
X75623982Y-117958399D01*
X75562659Y-117991884D01*
X75495347Y-117987758D01*
X75429254Y-117964631D01*
X75250004Y-117944435D01*
X75249996Y-117944435D01*
X75070750Y-117964630D01*
X75070745Y-117964631D01*
X74900476Y-118024211D01*
X74747737Y-118120184D01*
X74620184Y-118247737D01*
X74524211Y-118400476D01*
X74464631Y-118570745D01*
X74464630Y-118570750D01*
X74444435Y-118749996D01*
X74444435Y-118750003D01*
X74464630Y-118929249D01*
X74464631Y-118929254D01*
X74524211Y-119099523D01*
X74588172Y-119201315D01*
X74620184Y-119252262D01*
X74747738Y-119379816D01*
X74900478Y-119475789D01*
X75070745Y-119535368D01*
X75070750Y-119535369D01*
X75249996Y-119555565D01*
X75250000Y-119555565D01*
X75250004Y-119555565D01*
X75429249Y-119535369D01*
X75429252Y-119535368D01*
X75429255Y-119535368D01*
X75599522Y-119475789D01*
X75752262Y-119379816D01*
X75857019Y-119275057D01*
X75882692Y-119255358D01*
X75976304Y-119201313D01*
X76081313Y-119096304D01*
X76081313Y-119096302D01*
X76091517Y-119086099D01*
X76091521Y-119086094D01*
X76460797Y-118716818D01*
X76522120Y-118683333D01*
X76548478Y-118680499D01*
X77847871Y-118680499D01*
X77847872Y-118680499D01*
X77907483Y-118674091D01*
X78042331Y-118623796D01*
X78157546Y-118537546D01*
X78243796Y-118422331D01*
X78294091Y-118287483D01*
X78300500Y-118227873D01*
X78300499Y-117437999D01*
X78320183Y-117370961D01*
X78372987Y-117325206D01*
X78424499Y-117314000D01*
X81240741Y-117314000D01*
X81307780Y-117333685D01*
X81353535Y-117386489D01*
X81358447Y-117398996D01*
X81365185Y-117419331D01*
X81365187Y-117419336D01*
X81376260Y-117437288D01*
X81457288Y-117568656D01*
X81581344Y-117692712D01*
X81730666Y-117784814D01*
X81897203Y-117839999D01*
X81999991Y-117850500D01*
X83000008Y-117850499D01*
X83000016Y-117850498D01*
X83000019Y-117850498D01*
X83056302Y-117844748D01*
X83102797Y-117839999D01*
X83269334Y-117784814D01*
X83418656Y-117692712D01*
X83542712Y-117568656D01*
X83634814Y-117419334D01*
X83689999Y-117252797D01*
X83700500Y-117150009D01*
X83700499Y-116349992D01*
X83699240Y-116337671D01*
X83689999Y-116247203D01*
X83689998Y-116247200D01*
X83663195Y-116166315D01*
X83634814Y-116080666D01*
X83542712Y-115931344D01*
X83449049Y-115837681D01*
X83415564Y-115776358D01*
X83420548Y-115706666D01*
X83449049Y-115662319D01*
X83491184Y-115620184D01*
X83542712Y-115568656D01*
X83634814Y-115419334D01*
X83689999Y-115252797D01*
X83700500Y-115150009D01*
X83700499Y-114349992D01*
X83696609Y-114311915D01*
X83689999Y-114247203D01*
X83689998Y-114247200D01*
X83634814Y-114080666D01*
X83542712Y-113931344D01*
X83418656Y-113807288D01*
X83325888Y-113750069D01*
X83269336Y-113715187D01*
X83269335Y-113715186D01*
X83269334Y-113715186D01*
X83269328Y-113715184D01*
X83235494Y-113703972D01*
X83178050Y-113664199D01*
X83151228Y-113599683D01*
X83150500Y-113586267D01*
X83150500Y-111774500D01*
X83170185Y-111707461D01*
X83222989Y-111661706D01*
X83274500Y-111650500D01*
X83918842Y-111650500D01*
X83985881Y-111670185D01*
X84031636Y-111722989D01*
X84041580Y-111792147D01*
X84012555Y-111855703D01*
X84002631Y-111865229D01*
X84002662Y-111865260D01*
X83870184Y-111997737D01*
X83774211Y-112150476D01*
X83714631Y-112320745D01*
X83714630Y-112320750D01*
X83694435Y-112499996D01*
X83694435Y-112500003D01*
X83714630Y-112679249D01*
X83714631Y-112679254D01*
X83774211Y-112849523D01*
X83848455Y-112967681D01*
X83870184Y-113002262D01*
X83997738Y-113129816D01*
X84150478Y-113225789D01*
X84320745Y-113285368D01*
X84320749Y-113285369D01*
X84421616Y-113296733D01*
X84465841Y-113301716D01*
X84530255Y-113328782D01*
X84539639Y-113337255D01*
X91513181Y-120310797D01*
X91546666Y-120372120D01*
X91549500Y-120398478D01*
X91549500Y-120780001D01*
X91549501Y-120780019D01*
X91560000Y-120882796D01*
X91560001Y-120882799D01*
X91615185Y-121049331D01*
X91615187Y-121049336D01*
X91650069Y-121105888D01*
X91707288Y-121198656D01*
X91831344Y-121322712D01*
X91980666Y-121414814D01*
X92147203Y-121469999D01*
X92249991Y-121480500D01*
X93250008Y-121480499D01*
X93250016Y-121480498D01*
X93250019Y-121480498D01*
X93306302Y-121474748D01*
X93352797Y-121469999D01*
X93519334Y-121414814D01*
X93668656Y-121322712D01*
X93792712Y-121198656D01*
X93884814Y-121049334D01*
X93939999Y-120882797D01*
X93950500Y-120780009D01*
X93950500Y-120749999D01*
X98971127Y-120749999D01*
X98971128Y-120750000D01*
X99934314Y-120750000D01*
X99929920Y-120754394D01*
X99877259Y-120845606D01*
X99850000Y-120947339D01*
X99850000Y-121052661D01*
X99877259Y-121154394D01*
X99929920Y-121245606D01*
X99934314Y-121250000D01*
X98971128Y-121250000D01*
X99023730Y-121446317D01*
X99023734Y-121446326D01*
X99119865Y-121652482D01*
X99250342Y-121838820D01*
X99411179Y-121999657D01*
X99597517Y-122130134D01*
X99803673Y-122226265D01*
X99803682Y-122226269D01*
X99999999Y-122278872D01*
X100000000Y-122278871D01*
X100000000Y-121315686D01*
X100004394Y-121320080D01*
X100095606Y-121372741D01*
X100197339Y-121400000D01*
X100302661Y-121400000D01*
X100404394Y-121372741D01*
X100495606Y-121320080D01*
X100500000Y-121315686D01*
X100500000Y-122278872D01*
X100696317Y-122226269D01*
X100696326Y-122226265D01*
X100902482Y-122130134D01*
X101088820Y-121999657D01*
X101249657Y-121838820D01*
X101380134Y-121652482D01*
X101476265Y-121446326D01*
X101476269Y-121446317D01*
X101528872Y-121250000D01*
X100565686Y-121250000D01*
X100570080Y-121245606D01*
X100622741Y-121154394D01*
X100650000Y-121052661D01*
X100650000Y-120947339D01*
X100622741Y-120845606D01*
X100570080Y-120754394D01*
X100565686Y-120750000D01*
X101528872Y-120750000D01*
X101528872Y-120749999D01*
X101476269Y-120553682D01*
X101476265Y-120553673D01*
X101380134Y-120347517D01*
X101249657Y-120161179D01*
X101088820Y-120000342D01*
X100902482Y-119869865D01*
X100696328Y-119773734D01*
X100500000Y-119721127D01*
X100500000Y-120684314D01*
X100495606Y-120679920D01*
X100404394Y-120627259D01*
X100302661Y-120600000D01*
X100197339Y-120600000D01*
X100095606Y-120627259D01*
X100004394Y-120679920D01*
X100000000Y-120684314D01*
X100000000Y-119721127D01*
X99803671Y-119773734D01*
X99597517Y-119869865D01*
X99411179Y-120000342D01*
X99250342Y-120161179D01*
X99119865Y-120347517D01*
X99023734Y-120553673D01*
X99023730Y-120553682D01*
X98971127Y-120749999D01*
X93950500Y-120749999D01*
X93950499Y-120028476D01*
X93970183Y-119961438D01*
X93986813Y-119940801D01*
X99221637Y-114705977D01*
X99282958Y-114672494D01*
X99337835Y-114672984D01*
X99342508Y-114674087D01*
X99342517Y-114674091D01*
X99402127Y-114680500D01*
X101097872Y-114680499D01*
X101157483Y-114674091D01*
X101292331Y-114623796D01*
X101407546Y-114537546D01*
X101493796Y-114422331D01*
X101544091Y-114287483D01*
X101550500Y-114227873D01*
X101550499Y-112532128D01*
X101544091Y-112472517D01*
X101510628Y-112382799D01*
X101493797Y-112337671D01*
X101493793Y-112337664D01*
X101407547Y-112222455D01*
X101407544Y-112222452D01*
X101292333Y-112136205D01*
X101287072Y-112133332D01*
X101237667Y-112083927D01*
X101222815Y-112015654D01*
X101247232Y-111950190D01*
X101303165Y-111908318D01*
X101346499Y-111900500D01*
X107185931Y-111900500D01*
X107314069Y-111900500D01*
X130584362Y-111900500D01*
X130651401Y-111920185D01*
X130689899Y-111959401D01*
X130757288Y-112068656D01*
X130881344Y-112192712D01*
X131030666Y-112284814D01*
X131064500Y-112296025D01*
X131121947Y-112335796D01*
X131148772Y-112400311D01*
X131149500Y-112413732D01*
X131149500Y-114836267D01*
X131129815Y-114903306D01*
X131077011Y-114949061D01*
X131064506Y-114953972D01*
X131030671Y-114965184D01*
X131030663Y-114965187D01*
X130881342Y-115057289D01*
X130757289Y-115181342D01*
X130665187Y-115330663D01*
X130665185Y-115330668D01*
X130658937Y-115349523D01*
X130610001Y-115497203D01*
X130610001Y-115497204D01*
X130610000Y-115497204D01*
X130599500Y-115599983D01*
X130599500Y-116252521D01*
X130579815Y-116319560D01*
X130527011Y-116365315D01*
X130457853Y-116375259D01*
X130394297Y-116346234D01*
X130387819Y-116340202D01*
X130337255Y-116289638D01*
X130303770Y-116228315D01*
X130301716Y-116215840D01*
X130285369Y-116070750D01*
X130285368Y-116070745D01*
X130254880Y-115983616D01*
X130225789Y-115900478D01*
X130129816Y-115747738D01*
X130002262Y-115620184D01*
X129849523Y-115524211D01*
X129679254Y-115464631D01*
X129679249Y-115464630D01*
X129500004Y-115444435D01*
X129499996Y-115444435D01*
X129320750Y-115464630D01*
X129320745Y-115464631D01*
X129150476Y-115524211D01*
X128997737Y-115620184D01*
X128870184Y-115747737D01*
X128774211Y-115900476D01*
X128714631Y-116070745D01*
X128714630Y-116070750D01*
X128694435Y-116249996D01*
X128694435Y-116250003D01*
X128714630Y-116429249D01*
X128714631Y-116429254D01*
X128774211Y-116599523D01*
X128847732Y-116716530D01*
X128870184Y-116752262D01*
X128997738Y-116879816D01*
X129088080Y-116936582D01*
X129149605Y-116975241D01*
X129150478Y-116975789D01*
X129226814Y-117002500D01*
X129320745Y-117035368D01*
X129320750Y-117035369D01*
X129432915Y-117048006D01*
X129465840Y-117051716D01*
X129530254Y-117078782D01*
X129539638Y-117087255D01*
X130563181Y-118110798D01*
X130596666Y-118172121D01*
X130599500Y-118198478D01*
X130599500Y-118400000D01*
X130599501Y-118400019D01*
X130610000Y-118502796D01*
X130610001Y-118502799D01*
X130665185Y-118669331D01*
X130665187Y-118669336D01*
X130676699Y-118688000D01*
X130757288Y-118818656D01*
X130881344Y-118942712D01*
X131030666Y-119034814D01*
X131197203Y-119089999D01*
X131299991Y-119100500D01*
X132300008Y-119100499D01*
X132300016Y-119100498D01*
X132300019Y-119100498D01*
X132356302Y-119094748D01*
X132402797Y-119089999D01*
X132569334Y-119034814D01*
X132718656Y-118942712D01*
X132842712Y-118818656D01*
X132869961Y-118774477D01*
X132921909Y-118727753D01*
X132990871Y-118716530D01*
X133054953Y-118744373D01*
X133093810Y-118802442D01*
X133099500Y-118839574D01*
X133099500Y-122185714D01*
X133079815Y-122252753D01*
X133034519Y-122294768D01*
X132981376Y-122323528D01*
X132981365Y-122323535D01*
X132798222Y-122466081D01*
X132798218Y-122466085D01*
X132789866Y-122475158D01*
X132729979Y-122511148D01*
X132660141Y-122509047D01*
X132602525Y-122469522D01*
X132582455Y-122434507D01*
X132553797Y-122357671D01*
X132553793Y-122357664D01*
X132467547Y-122242455D01*
X132467544Y-122242452D01*
X132352335Y-122156206D01*
X132352328Y-122156202D01*
X132217482Y-122105908D01*
X132217483Y-122105908D01*
X132157883Y-122099501D01*
X132157881Y-122099500D01*
X132157873Y-122099500D01*
X132157865Y-122099500D01*
X130658479Y-122099500D01*
X130591440Y-122079815D01*
X130570798Y-122063181D01*
X130064929Y-121557313D01*
X130031444Y-121495990D01*
X130035105Y-121436330D01*
X130033820Y-121436037D01*
X130035369Y-121429251D01*
X130055565Y-121250000D01*
X130055565Y-121249996D01*
X130035369Y-121070750D01*
X130035368Y-121070745D01*
X129975788Y-120900476D01*
X129936582Y-120838080D01*
X129879816Y-120747738D01*
X129752262Y-120620184D01*
X129599523Y-120524211D01*
X129429254Y-120464631D01*
X129429249Y-120464630D01*
X129250004Y-120444435D01*
X129249996Y-120444435D01*
X129070750Y-120464630D01*
X129070745Y-120464631D01*
X128900476Y-120524211D01*
X128747737Y-120620184D01*
X128620184Y-120747737D01*
X128524211Y-120900476D01*
X128464631Y-121070745D01*
X128464630Y-121070750D01*
X128444435Y-121249996D01*
X128444435Y-121250000D01*
X128464630Y-121429249D01*
X128464631Y-121429254D01*
X128524211Y-121599523D01*
X128545470Y-121633356D01*
X128620184Y-121752262D01*
X128747738Y-121879816D01*
X128855539Y-121947551D01*
X128877246Y-121964863D01*
X128910761Y-121998378D01*
X128910767Y-121998383D01*
X129773181Y-122860797D01*
X129806666Y-122922120D01*
X129809500Y-122948478D01*
X129809500Y-124447870D01*
X129809501Y-124447876D01*
X129815908Y-124507483D01*
X129866202Y-124642328D01*
X129866206Y-124642335D01*
X129952452Y-124757544D01*
X129952455Y-124757547D01*
X130067664Y-124843793D01*
X130067671Y-124843797D01*
X130202517Y-124894091D01*
X130202516Y-124894091D01*
X130209444Y-124894835D01*
X130262127Y-124900500D01*
X132157872Y-124900499D01*
X132217483Y-124894091D01*
X132352331Y-124843796D01*
X132467546Y-124757546D01*
X132553796Y-124642331D01*
X132553798Y-124642326D01*
X132582455Y-124565493D01*
X132624326Y-124509559D01*
X132689790Y-124485141D01*
X132758063Y-124499992D01*
X132789866Y-124524843D01*
X132797302Y-124532920D01*
X132798215Y-124533912D01*
X132798222Y-124533918D01*
X132981365Y-124676464D01*
X132981371Y-124676468D01*
X132981374Y-124676470D01*
X133117245Y-124750000D01*
X133184567Y-124786433D01*
X133185497Y-124786936D01*
X133248774Y-124808659D01*
X133405015Y-124862297D01*
X133405017Y-124862297D01*
X133405019Y-124862298D01*
X133633951Y-124900500D01*
X133633952Y-124900500D01*
X133866048Y-124900500D01*
X133866049Y-124900500D01*
X134094981Y-124862298D01*
X134314503Y-124786936D01*
X134518626Y-124676470D01*
X134520491Y-124675019D01*
X134616875Y-124600000D01*
X134701784Y-124533913D01*
X134858979Y-124363153D01*
X134869195Y-124347517D01*
X134916899Y-124274500D01*
X134961209Y-124206678D01*
X135014354Y-124161322D01*
X135065017Y-124150500D01*
X136675500Y-124150500D01*
X136742539Y-124170185D01*
X136788294Y-124222989D01*
X136799500Y-124274500D01*
X136799500Y-124675001D01*
X136799501Y-124675019D01*
X136810000Y-124777796D01*
X136810001Y-124777799D01*
X136865185Y-124944331D01*
X136865187Y-124944336D01*
X136872594Y-124956344D01*
X136957288Y-125093656D01*
X137081344Y-125217712D01*
X137230666Y-125309814D01*
X137397203Y-125364999D01*
X137499991Y-125375500D01*
X138500008Y-125375499D01*
X138500016Y-125375498D01*
X138500019Y-125375498D01*
X138556302Y-125369748D01*
X138602797Y-125364999D01*
X138769334Y-125309814D01*
X138918656Y-125217712D01*
X139042712Y-125093656D01*
X139134814Y-124944334D01*
X139189999Y-124777797D01*
X139200500Y-124675009D01*
X139200499Y-123924992D01*
X139196097Y-123881902D01*
X142499500Y-123881902D01*
X142499500Y-124118097D01*
X142536446Y-124351368D01*
X142609433Y-124575996D01*
X142685355Y-124725000D01*
X142716657Y-124786433D01*
X142855483Y-124977510D01*
X143022490Y-125144517D01*
X143213567Y-125283343D01*
X143312991Y-125334002D01*
X143424003Y-125390566D01*
X143424005Y-125390566D01*
X143424008Y-125390568D01*
X143453037Y-125400000D01*
X143648631Y-125463553D01*
X143881903Y-125500500D01*
X143881908Y-125500500D01*
X144118097Y-125500500D01*
X144351368Y-125463553D01*
X144404387Y-125446326D01*
X144575992Y-125390568D01*
X144786433Y-125283343D01*
X144977510Y-125144517D01*
X145144517Y-124977510D01*
X145283343Y-124786433D01*
X145390568Y-124575992D01*
X145463553Y-124351368D01*
X145475728Y-124274500D01*
X145500500Y-124118097D01*
X145500500Y-123881902D01*
X145463553Y-123648631D01*
X145417320Y-123506342D01*
X145390568Y-123424008D01*
X145390566Y-123424005D01*
X145390566Y-123424003D01*
X145322382Y-123290186D01*
X145283343Y-123213567D01*
X145144517Y-123022490D01*
X144977510Y-122855483D01*
X144786433Y-122716657D01*
X144726130Y-122685931D01*
X144575996Y-122609433D01*
X144351368Y-122536446D01*
X144118097Y-122499500D01*
X144118092Y-122499500D01*
X143881908Y-122499500D01*
X143881903Y-122499500D01*
X143648631Y-122536446D01*
X143424003Y-122609433D01*
X143213566Y-122716657D01*
X143108048Y-122793321D01*
X143022490Y-122855483D01*
X143022488Y-122855485D01*
X143022487Y-122855485D01*
X142855485Y-123022487D01*
X142855485Y-123022488D01*
X142855483Y-123022490D01*
X142831379Y-123055666D01*
X142716657Y-123213566D01*
X142609433Y-123424003D01*
X142536446Y-123648631D01*
X142499500Y-123881902D01*
X139196097Y-123881902D01*
X139189999Y-123822203D01*
X139134814Y-123655666D01*
X139042712Y-123506344D01*
X138918656Y-123382288D01*
X138915819Y-123380538D01*
X138914283Y-123378830D01*
X138912989Y-123377807D01*
X138913163Y-123377585D01*
X138869096Y-123328594D01*
X138857872Y-123259632D01*
X138885713Y-123195549D01*
X138915817Y-123169462D01*
X138918656Y-123167712D01*
X139042712Y-123043656D01*
X139134814Y-122894334D01*
X139189999Y-122727797D01*
X139200500Y-122625009D01*
X139200499Y-121898476D01*
X139220183Y-121831438D01*
X139236813Y-121810801D01*
X141451313Y-119596304D01*
X141525565Y-119467696D01*
X141564001Y-119324252D01*
X141564001Y-119175747D01*
X141564001Y-119168152D01*
X141564000Y-119168134D01*
X141564000Y-107175746D01*
X141561031Y-107164667D01*
X141561030Y-107164664D01*
X141525564Y-107032302D01*
X141506914Y-107000000D01*
X141451313Y-106903696D01*
X141346304Y-106798687D01*
X141346303Y-106798686D01*
X141341973Y-106794356D01*
X141341962Y-106794346D01*
X139788325Y-105240709D01*
X139754840Y-105179386D01*
X139759824Y-105109694D01*
X139801696Y-105053761D01*
X139810901Y-105047495D01*
X139818656Y-105042712D01*
X139942712Y-104918656D01*
X140034814Y-104769334D01*
X140089999Y-104602797D01*
X140100500Y-104500009D01*
X140100499Y-103499992D01*
X140089999Y-103397203D01*
X140034814Y-103230666D01*
X139942712Y-103081344D01*
X139818656Y-102957288D01*
X139669334Y-102865186D01*
X139502797Y-102810001D01*
X139502795Y-102810000D01*
X139400010Y-102799500D01*
X138599998Y-102799500D01*
X138599980Y-102799501D01*
X138497203Y-102810000D01*
X138497200Y-102810001D01*
X138330668Y-102865185D01*
X138330663Y-102865187D01*
X138181342Y-102957289D01*
X138087681Y-103050951D01*
X138026358Y-103084436D01*
X137956666Y-103079452D01*
X137912319Y-103050951D01*
X137818657Y-102957289D01*
X137818656Y-102957288D01*
X137669334Y-102865186D01*
X137669333Y-102865185D01*
X137669332Y-102865185D01*
X137648993Y-102858445D01*
X137591549Y-102818671D01*
X137564728Y-102754154D01*
X137564000Y-102740740D01*
X137564000Y-101675750D01*
X137563999Y-101675743D01*
X137561707Y-101667191D01*
X137558092Y-101653696D01*
X137525565Y-101532303D01*
X137512019Y-101508842D01*
X137492154Y-101474435D01*
X137451313Y-101403696D01*
X137418893Y-101371276D01*
X137385408Y-101309953D01*
X137390392Y-101240261D01*
X137401578Y-101217627D01*
X137475789Y-101099522D01*
X137535368Y-100929255D01*
X137540672Y-100882181D01*
X137555565Y-100750003D01*
X137555565Y-100749996D01*
X137535369Y-100570750D01*
X137535368Y-100570745D01*
X137522342Y-100533518D01*
X137475789Y-100400478D01*
X137379816Y-100247738D01*
X137252262Y-100120184D01*
X137136601Y-100047509D01*
X137099523Y-100024211D01*
X136929254Y-99964631D01*
X136929249Y-99964630D01*
X136750004Y-99944435D01*
X136749996Y-99944435D01*
X136570750Y-99964630D01*
X136570745Y-99964631D01*
X136400476Y-100024211D01*
X136247737Y-100120184D01*
X136120184Y-100247737D01*
X136024211Y-100400476D01*
X135964631Y-100570745D01*
X135964630Y-100570750D01*
X135944435Y-100749996D01*
X135944435Y-100750003D01*
X135964630Y-100929249D01*
X135964631Y-100929254D01*
X136024211Y-101099523D01*
X136120184Y-101252262D01*
X136149681Y-101281759D01*
X136183166Y-101343082D01*
X136186000Y-101369440D01*
X136186000Y-101425747D01*
X136186000Y-101574253D01*
X136207474Y-101654394D01*
X136208484Y-101658165D01*
X136224436Y-101717699D01*
X136298684Y-101846300D01*
X136298689Y-101846306D01*
X136399681Y-101947298D01*
X136433166Y-102008621D01*
X136436000Y-102034979D01*
X136436000Y-102740740D01*
X136416315Y-102807779D01*
X136363511Y-102853534D01*
X136351007Y-102858445D01*
X136330667Y-102865185D01*
X136181342Y-102957289D01*
X136057289Y-103081342D01*
X135965187Y-103230663D01*
X135965186Y-103230666D01*
X135910001Y-103397203D01*
X135910001Y-103397204D01*
X135910000Y-103397204D01*
X135899500Y-103499983D01*
X135899500Y-104251520D01*
X135879815Y-104318559D01*
X135863181Y-104339201D01*
X132089201Y-108113181D01*
X132027878Y-108146666D01*
X132001520Y-108149500D01*
X131299998Y-108149500D01*
X131299980Y-108149501D01*
X131197203Y-108160000D01*
X131197200Y-108160001D01*
X131030668Y-108215185D01*
X131030663Y-108215187D01*
X130881342Y-108307289D01*
X130757289Y-108431342D01*
X130665187Y-108580663D01*
X130665186Y-108580666D01*
X130610001Y-108747203D01*
X130610001Y-108747204D01*
X130610000Y-108747204D01*
X130599500Y-108849983D01*
X130599500Y-109650001D01*
X130599501Y-109650019D01*
X130610000Y-109752796D01*
X130610001Y-109752799D01*
X130665185Y-109919331D01*
X130665187Y-109919336D01*
X130677774Y-109939742D01*
X130750797Y-110058133D01*
X130757289Y-110068657D01*
X130850951Y-110162319D01*
X130884436Y-110223642D01*
X130879452Y-110293334D01*
X130850951Y-110337681D01*
X130757289Y-110431342D01*
X130757288Y-110431344D01*
X130698281Y-110527011D01*
X130689901Y-110540597D01*
X130637953Y-110587321D01*
X130584362Y-110599500D01*
X108024500Y-110599500D01*
X107957461Y-110579815D01*
X107911706Y-110527011D01*
X107900500Y-110475500D01*
X107900500Y-108815928D01*
X107875502Y-108690261D01*
X107875501Y-108690260D01*
X107875501Y-108690256D01*
X107826465Y-108571873D01*
X107799280Y-108531187D01*
X107798820Y-108530499D01*
X107755275Y-108465328D01*
X107755272Y-108465325D01*
X106888493Y-107598547D01*
X106855008Y-107537224D01*
X106855969Y-107480425D01*
X106886131Y-107361317D01*
X106886131Y-107361316D01*
X106886134Y-107361305D01*
X106886135Y-107361297D01*
X106905300Y-107130006D01*
X106905300Y-107129993D01*
X106886135Y-106898702D01*
X106886133Y-106898691D01*
X106829157Y-106673699D01*
X106735924Y-106461151D01*
X106608983Y-106266852D01*
X106608980Y-106266849D01*
X106608979Y-106266847D01*
X106451784Y-106096087D01*
X106451779Y-106096083D01*
X106451777Y-106096081D01*
X106268634Y-105953535D01*
X106268628Y-105953531D01*
X106064504Y-105843064D01*
X106064495Y-105843061D01*
X105844984Y-105767702D01*
X105654450Y-105735908D01*
X105616049Y-105729500D01*
X105383951Y-105729500D01*
X105345550Y-105735908D01*
X105155015Y-105767702D01*
X104935504Y-105843061D01*
X104935495Y-105843064D01*
X104731371Y-105953531D01*
X104731365Y-105953535D01*
X104548222Y-106096081D01*
X104548218Y-106096085D01*
X104548216Y-106096086D01*
X104548216Y-106096087D01*
X104540462Y-106104511D01*
X104539866Y-106105158D01*
X104479979Y-106141148D01*
X104410141Y-106139047D01*
X104352525Y-106099522D01*
X104332455Y-106064507D01*
X104303797Y-105987671D01*
X104303793Y-105987664D01*
X104217547Y-105872455D01*
X104217544Y-105872452D01*
X104102335Y-105786206D01*
X104102328Y-105786202D01*
X103967482Y-105735908D01*
X103967483Y-105735908D01*
X103907883Y-105729501D01*
X103907881Y-105729500D01*
X103907873Y-105729500D01*
X103907864Y-105729500D01*
X102012129Y-105729500D01*
X102012123Y-105729501D01*
X101952516Y-105735908D01*
X101892800Y-105758182D01*
X101849467Y-105766000D01*
X101000975Y-105766000D01*
X100933936Y-105746315D01*
X100888181Y-105693511D01*
X100886629Y-105689562D01*
X100884815Y-105685670D01*
X100884814Y-105685666D01*
X100792712Y-105536344D01*
X100668656Y-105412288D01*
X100519334Y-105320186D01*
X100352797Y-105265001D01*
X100352795Y-105265000D01*
X100250010Y-105254500D01*
X99249998Y-105254500D01*
X99249980Y-105254501D01*
X99147203Y-105265000D01*
X99147200Y-105265001D01*
X98980668Y-105320185D01*
X98980663Y-105320187D01*
X98831342Y-105412289D01*
X98707289Y-105536342D01*
X98615187Y-105685663D01*
X98615185Y-105685668D01*
X98588566Y-105766000D01*
X98560001Y-105852203D01*
X98560001Y-105852204D01*
X98560000Y-105852204D01*
X98549500Y-105954983D01*
X98549500Y-106601521D01*
X98529815Y-106668560D01*
X98513181Y-106689202D01*
X96679556Y-108522826D01*
X96618233Y-108556311D01*
X96548541Y-108551327D01*
X96504194Y-108522826D01*
X96449049Y-108467681D01*
X96415564Y-108406358D01*
X96420548Y-108336666D01*
X96449049Y-108292319D01*
X96493631Y-108247737D01*
X96542712Y-108198656D01*
X96634814Y-108049334D01*
X96689999Y-107882797D01*
X96700500Y-107780009D01*
X96700499Y-106979992D01*
X96699366Y-106968904D01*
X96689999Y-106877203D01*
X96689998Y-106877200D01*
X96671292Y-106820750D01*
X96634814Y-106710666D01*
X96542712Y-106561344D01*
X96418656Y-106437288D01*
X96325888Y-106380069D01*
X96269336Y-106345187D01*
X96269331Y-106345185D01*
X96264427Y-106343560D01*
X96148995Y-106305309D01*
X96091551Y-106265537D01*
X96064728Y-106201021D01*
X96064000Y-106187604D01*
X96064000Y-104869440D01*
X96083685Y-104802401D01*
X96100319Y-104781759D01*
X96112747Y-104769331D01*
X96129816Y-104752262D01*
X96225789Y-104599522D01*
X96285368Y-104429255D01*
X96295515Y-104339201D01*
X96305565Y-104250003D01*
X96305565Y-104249996D01*
X96285369Y-104070750D01*
X96285368Y-104070745D01*
X96225788Y-103900476D01*
X96129815Y-103747737D01*
X96002262Y-103620184D01*
X95849523Y-103524211D01*
X95679254Y-103464631D01*
X95679249Y-103464630D01*
X95500004Y-103444435D01*
X95499996Y-103444435D01*
X95320750Y-103464630D01*
X95320745Y-103464631D01*
X95150476Y-103524211D01*
X94997737Y-103620184D01*
X94870184Y-103747737D01*
X94774211Y-103900476D01*
X94714631Y-104070745D01*
X94714630Y-104070750D01*
X94694435Y-104249996D01*
X94694435Y-104250003D01*
X94714630Y-104429249D01*
X94714631Y-104429254D01*
X94774211Y-104599523D01*
X94870184Y-104752262D01*
X94899681Y-104781759D01*
X94933166Y-104843082D01*
X94936000Y-104869440D01*
X94936000Y-106187604D01*
X94916315Y-106254643D01*
X94863511Y-106300398D01*
X94851004Y-106305310D01*
X94730668Y-106345185D01*
X94730663Y-106345187D01*
X94581342Y-106437289D01*
X94457289Y-106561342D01*
X94365187Y-106710663D01*
X94365186Y-106710666D01*
X94310001Y-106877203D01*
X94310001Y-106877204D01*
X94310000Y-106877204D01*
X94299500Y-106979983D01*
X94299500Y-107731520D01*
X94279815Y-107798559D01*
X94263181Y-107819201D01*
X92403698Y-109678685D01*
X92298688Y-109783694D01*
X92298684Y-109783699D01*
X92253297Y-109862314D01*
X92253296Y-109862315D01*
X92224438Y-109912296D01*
X92224436Y-109912301D01*
X92224435Y-109912303D01*
X92224435Y-109912304D01*
X92194283Y-110024835D01*
X92187721Y-110049327D01*
X92187720Y-110049331D01*
X92186000Y-110055749D01*
X92186000Y-110687604D01*
X92166315Y-110754643D01*
X92113511Y-110800398D01*
X92101004Y-110805310D01*
X91980668Y-110845185D01*
X91980663Y-110845187D01*
X91831342Y-110937289D01*
X91707289Y-111061342D01*
X91615187Y-111210663D01*
X91615186Y-111210666D01*
X91560001Y-111377203D01*
X91560001Y-111377204D01*
X91560000Y-111377204D01*
X91549500Y-111479983D01*
X91549500Y-112280001D01*
X91549501Y-112280019D01*
X91560000Y-112382796D01*
X91560001Y-112382799D01*
X91609483Y-112532123D01*
X91615186Y-112549334D01*
X91704684Y-112694435D01*
X91707289Y-112698657D01*
X91800951Y-112792319D01*
X91834436Y-112853642D01*
X91829452Y-112923334D01*
X91800951Y-112967681D01*
X91707289Y-113061342D01*
X91615187Y-113210663D01*
X91615185Y-113210668D01*
X91596561Y-113266872D01*
X91560001Y-113377203D01*
X91560001Y-113377204D01*
X91560000Y-113377204D01*
X91549500Y-113479983D01*
X91549500Y-114280001D01*
X91549501Y-114280019D01*
X91560000Y-114382796D01*
X91560001Y-114382799D01*
X91588043Y-114467422D01*
X91615186Y-114549334D01*
X91707288Y-114698656D01*
X91831344Y-114822712D01*
X91907948Y-114869961D01*
X91954672Y-114921909D01*
X91965895Y-114990872D01*
X91938051Y-115054954D01*
X91879983Y-115093810D01*
X91842851Y-115099500D01*
X90820808Y-115099500D01*
X90753769Y-115079815D01*
X90733127Y-115063181D01*
X87811819Y-112141873D01*
X87778334Y-112080550D01*
X87775500Y-112054192D01*
X87775500Y-103695808D01*
X87795185Y-103628769D01*
X87811819Y-103608127D01*
X90358127Y-101061819D01*
X90419450Y-101028334D01*
X90445808Y-101025500D01*
X100939071Y-101025500D01*
X101023615Y-101008682D01*
X101064744Y-101000501D01*
X101183127Y-100951465D01*
X101232463Y-100918500D01*
X101289669Y-100880277D01*
X103037319Y-99132625D01*
X103098642Y-99099141D01*
X103168333Y-99104125D01*
X103212681Y-99132626D01*
X104142224Y-100062169D01*
X104200239Y-100120184D01*
X104232832Y-100152777D01*
X104339366Y-100223961D01*
X104339372Y-100223964D01*
X104339373Y-100223965D01*
X104457756Y-100273001D01*
X104457760Y-100273001D01*
X104457761Y-100273002D01*
X104583428Y-100298000D01*
X104583431Y-100298000D01*
X112034362Y-100298000D01*
X112101401Y-100317685D01*
X112139899Y-100356901D01*
X112207288Y-100466156D01*
X112207289Y-100466157D01*
X112300951Y-100559819D01*
X112334436Y-100621142D01*
X112329452Y-100690834D01*
X112300951Y-100735181D01*
X112207289Y-100828842D01*
X112115187Y-100978163D01*
X112115185Y-100978168D01*
X112104302Y-101011011D01*
X112060001Y-101144703D01*
X112060001Y-101144704D01*
X112060000Y-101144704D01*
X112049500Y-101247483D01*
X112049500Y-102047501D01*
X112049501Y-102047519D01*
X112060000Y-102150296D01*
X112060001Y-102150297D01*
X112115186Y-102316834D01*
X112207288Y-102466156D01*
X112331344Y-102590212D01*
X112480666Y-102682314D01*
X112647203Y-102737499D01*
X112749991Y-102748000D01*
X113750008Y-102747999D01*
X113750016Y-102747998D01*
X113750019Y-102747998D01*
X113821069Y-102740740D01*
X113852797Y-102737499D01*
X114019334Y-102682314D01*
X114168656Y-102590212D01*
X114292712Y-102466156D01*
X114384814Y-102316834D01*
X114391553Y-102296495D01*
X114431326Y-102239051D01*
X114495842Y-102212228D01*
X114509259Y-102211500D01*
X114926751Y-102211500D01*
X114926753Y-102211500D01*
X115070196Y-102173065D01*
X115105847Y-102152482D01*
X115109630Y-102150298D01*
X115109631Y-102150297D01*
X115109633Y-102150296D01*
X115198804Y-102098813D01*
X115303813Y-101993804D01*
X115303813Y-101993802D01*
X115314017Y-101983599D01*
X115314021Y-101983594D01*
X116047616Y-101249999D01*
X118221127Y-101249999D01*
X118221128Y-101250000D01*
X119184314Y-101250000D01*
X119179920Y-101254394D01*
X119127259Y-101345606D01*
X119100000Y-101447339D01*
X119100000Y-101552661D01*
X119127259Y-101654394D01*
X119179920Y-101745606D01*
X119184314Y-101750000D01*
X118221128Y-101750000D01*
X118273730Y-101946317D01*
X118273734Y-101946326D01*
X118369865Y-102152482D01*
X118500342Y-102338820D01*
X118661179Y-102499657D01*
X118847517Y-102630134D01*
X119053673Y-102726265D01*
X119053682Y-102726269D01*
X119249999Y-102778872D01*
X119250000Y-102778871D01*
X119250000Y-101815686D01*
X119254394Y-101820080D01*
X119345606Y-101872741D01*
X119447339Y-101900000D01*
X119552661Y-101900000D01*
X119654394Y-101872741D01*
X119745606Y-101820080D01*
X119750000Y-101815686D01*
X119750000Y-102778872D01*
X119946317Y-102726269D01*
X119946326Y-102726265D01*
X120152482Y-102630134D01*
X120338820Y-102499657D01*
X120499657Y-102338820D01*
X120630134Y-102152482D01*
X120726265Y-101946326D01*
X120726269Y-101946317D01*
X120778872Y-101750000D01*
X119815686Y-101750000D01*
X119820080Y-101745606D01*
X119872741Y-101654394D01*
X119900000Y-101552661D01*
X119900000Y-101447339D01*
X119872741Y-101345606D01*
X119820080Y-101254394D01*
X119815686Y-101250000D01*
X120778872Y-101250000D01*
X120778872Y-101249999D01*
X120726269Y-101053682D01*
X120726265Y-101053673D01*
X120630134Y-100847517D01*
X120499657Y-100661179D01*
X120338820Y-100500342D01*
X120152482Y-100369865D01*
X119946328Y-100273734D01*
X119750000Y-100221127D01*
X119750000Y-101184314D01*
X119745606Y-101179920D01*
X119654394Y-101127259D01*
X119552661Y-101100000D01*
X119447339Y-101100000D01*
X119345606Y-101127259D01*
X119254394Y-101179920D01*
X119250000Y-101184314D01*
X119250000Y-100221127D01*
X119053671Y-100273734D01*
X118847517Y-100369865D01*
X118661179Y-100500342D01*
X118500342Y-100661179D01*
X118369865Y-100847517D01*
X118273734Y-101053673D01*
X118273730Y-101053682D01*
X118221127Y-101249999D01*
X116047616Y-101249999D01*
X116336094Y-100961521D01*
X116336099Y-100961517D01*
X116346302Y-100951313D01*
X116346304Y-100951313D01*
X116451313Y-100846304D01*
X116525565Y-100717696D01*
X116547823Y-100634627D01*
X116564000Y-100574253D01*
X116564000Y-100425747D01*
X116564000Y-96534977D01*
X116583685Y-96467938D01*
X116600314Y-96447301D01*
X118098968Y-94948646D01*
X118160289Y-94915163D01*
X118229981Y-94920147D01*
X118285913Y-94962018D01*
X118342452Y-95037544D01*
X118342455Y-95037547D01*
X118457664Y-95123793D01*
X118457671Y-95123797D01*
X118592517Y-95174091D01*
X118592516Y-95174091D01*
X118596423Y-95174511D01*
X118652127Y-95180500D01*
X120347872Y-95180499D01*
X120407483Y-95174091D01*
X120542331Y-95123796D01*
X120657546Y-95037546D01*
X120743796Y-94922331D01*
X120794091Y-94787483D01*
X120800500Y-94727873D01*
X120800500Y-94568000D01*
X120820185Y-94500961D01*
X120872989Y-94455206D01*
X120924500Y-94444000D01*
X122553461Y-94444000D01*
X122553463Y-94444000D01*
X122696906Y-94405565D01*
X122706030Y-94400297D01*
X122825514Y-94331313D01*
X122930523Y-94226304D01*
X122930523Y-94226302D01*
X122940727Y-94216099D01*
X122940730Y-94216094D01*
X126974321Y-90182504D01*
X127035642Y-90149021D01*
X127105334Y-90154005D01*
X127161267Y-90195877D01*
X127185684Y-90261341D01*
X127186000Y-90270187D01*
X127186000Y-101925747D01*
X127186000Y-102074253D01*
X127203016Y-102137757D01*
X127224435Y-102217696D01*
X127298687Y-102346304D01*
X127298689Y-102346306D01*
X127410761Y-102458378D01*
X127410766Y-102458382D01*
X130403696Y-105451313D01*
X130403697Y-105451314D01*
X130403699Y-105451315D01*
X130532300Y-105525563D01*
X130532301Y-105525563D01*
X130532304Y-105525565D01*
X130675748Y-105564001D01*
X130675751Y-105564001D01*
X130831849Y-105564001D01*
X130831865Y-105564000D01*
X132130560Y-105564000D01*
X132197599Y-105583685D01*
X132218241Y-105600319D01*
X132247738Y-105629816D01*
X132336618Y-105685663D01*
X132372776Y-105708383D01*
X132400478Y-105725789D01*
X132570745Y-105785368D01*
X132570750Y-105785369D01*
X132749996Y-105805565D01*
X132750000Y-105805565D01*
X132750004Y-105805565D01*
X132929249Y-105785369D01*
X132929252Y-105785368D01*
X132929255Y-105785368D01*
X133099522Y-105725789D01*
X133252262Y-105629816D01*
X133379816Y-105502262D01*
X133475789Y-105349522D01*
X133535368Y-105179255D01*
X133535369Y-105179249D01*
X133555565Y-105000003D01*
X133555565Y-104999996D01*
X133535369Y-104820750D01*
X133535368Y-104820745D01*
X133521917Y-104782304D01*
X133475789Y-104650478D01*
X133379816Y-104497738D01*
X133252262Y-104370184D01*
X133202953Y-104339201D01*
X133099523Y-104274211D01*
X132929254Y-104214631D01*
X132929249Y-104214630D01*
X132750004Y-104194435D01*
X132749996Y-104194435D01*
X132570750Y-104214630D01*
X132570745Y-104214631D01*
X132400476Y-104274211D01*
X132247737Y-104370184D01*
X132218241Y-104399681D01*
X132156918Y-104433166D01*
X132130560Y-104436000D01*
X131034979Y-104436000D01*
X130967940Y-104416315D01*
X130947298Y-104399681D01*
X128350319Y-101802702D01*
X128316834Y-101741379D01*
X128314000Y-101715021D01*
X128314000Y-76119440D01*
X128333685Y-76052401D01*
X128350319Y-76031759D01*
X128379816Y-76002262D01*
X128475789Y-75849522D01*
X128535368Y-75679255D01*
X128535997Y-75673673D01*
X128555565Y-75500003D01*
X128555565Y-75499996D01*
X128535369Y-75320750D01*
X128535368Y-75320745D01*
X128489528Y-75189743D01*
X128475789Y-75150478D01*
X128379816Y-74997738D01*
X128252262Y-74870184D01*
X128234490Y-74859017D01*
X128184433Y-74827563D01*
X128138142Y-74775228D01*
X128127495Y-74706174D01*
X128155871Y-74642326D01*
X128162713Y-74634901D01*
X128710361Y-74087253D01*
X128771682Y-74053770D01*
X128784148Y-74051717D01*
X128859077Y-74043275D01*
X128929250Y-74035369D01*
X128929253Y-74035368D01*
X128929255Y-74035368D01*
X129099522Y-73975789D01*
X129252262Y-73879816D01*
X129379816Y-73752262D01*
X129475789Y-73599522D01*
X129535368Y-73429255D01*
X129542243Y-73368238D01*
X129555565Y-73250003D01*
X129555565Y-73249996D01*
X129535369Y-73070750D01*
X129535367Y-73070742D01*
X129529493Y-73053954D01*
X129525932Y-72984175D01*
X129560661Y-72923548D01*
X129622654Y-72891321D01*
X129646535Y-72889000D01*
X130312000Y-72889000D01*
X130379039Y-72908685D01*
X130424794Y-72961489D01*
X130436000Y-73013000D01*
X130436000Y-81824252D01*
X130459593Y-81912303D01*
X130474435Y-81967697D01*
X130474436Y-81967698D01*
X130548687Y-82096304D01*
X130548689Y-82096306D01*
X130660761Y-82208378D01*
X130660767Y-82208383D01*
X134263181Y-85810797D01*
X134296666Y-85872120D01*
X134299500Y-85898478D01*
X134299500Y-86650001D01*
X134299501Y-86650019D01*
X134310000Y-86752796D01*
X134310001Y-86752799D01*
X134365185Y-86919331D01*
X134365187Y-86919336D01*
X134395016Y-86967696D01*
X134457288Y-87068656D01*
X134581344Y-87192712D01*
X134730666Y-87284814D01*
X134815336Y-87312871D01*
X134872781Y-87352642D01*
X134899604Y-87417158D01*
X134887289Y-87485934D01*
X134864013Y-87518257D01*
X132319091Y-90063181D01*
X132257768Y-90096666D01*
X132231410Y-90099500D01*
X131005068Y-90099500D01*
X130939096Y-90080494D01*
X130849522Y-90024210D01*
X130849518Y-90024209D01*
X130679262Y-89964633D01*
X130679249Y-89964630D01*
X130500004Y-89944435D01*
X130499996Y-89944435D01*
X130320750Y-89964630D01*
X130320745Y-89964631D01*
X130150476Y-90024211D01*
X129997737Y-90120184D01*
X129870184Y-90247737D01*
X129774211Y-90400476D01*
X129714631Y-90570745D01*
X129714630Y-90570750D01*
X129694435Y-90749996D01*
X129694435Y-90750003D01*
X129714630Y-90929249D01*
X129714631Y-90929254D01*
X129774211Y-91099523D01*
X129853549Y-91225788D01*
X129870184Y-91252262D01*
X129997738Y-91379816D01*
X130150478Y-91475789D01*
X130211676Y-91497203D01*
X130320745Y-91535368D01*
X130320750Y-91535369D01*
X130499996Y-91555565D01*
X130500000Y-91555565D01*
X130500004Y-91555565D01*
X130679249Y-91535369D01*
X130679251Y-91535368D01*
X130679255Y-91535368D01*
X130679258Y-91535366D01*
X130679262Y-91535366D01*
X130788333Y-91497200D01*
X130849522Y-91475789D01*
X130939096Y-91419505D01*
X131005068Y-91400500D01*
X132616289Y-91400500D01*
X132700833Y-91383682D01*
X132741962Y-91375501D01*
X132860345Y-91326465D01*
X132966887Y-91255277D01*
X136982277Y-87239887D01*
X137053465Y-87133345D01*
X137102501Y-87014962D01*
X137106710Y-86993804D01*
X137121524Y-86919331D01*
X137127500Y-86889289D01*
X137127500Y-85162928D01*
X137102502Y-85037261D01*
X137102501Y-85037260D01*
X137102501Y-85037256D01*
X137066454Y-84950231D01*
X137053466Y-84918874D01*
X137010847Y-84855090D01*
X136982278Y-84812332D01*
X136982272Y-84812325D01*
X136736818Y-84566871D01*
X136703333Y-84505548D01*
X136700499Y-84479190D01*
X136700499Y-83849998D01*
X136700498Y-83849981D01*
X136689999Y-83747203D01*
X136689998Y-83747200D01*
X136647734Y-83619657D01*
X136634814Y-83580666D01*
X136542712Y-83431344D01*
X136418656Y-83307288D01*
X136313543Y-83242454D01*
X136269336Y-83215187D01*
X136269335Y-83215186D01*
X136269334Y-83215186D01*
X136269328Y-83215184D01*
X136235494Y-83203972D01*
X136178050Y-83164199D01*
X136151228Y-83099683D01*
X136150500Y-83086267D01*
X136150500Y-82369999D01*
X139471127Y-82369999D01*
X139471128Y-82370000D01*
X140434314Y-82370000D01*
X140429920Y-82374394D01*
X140377259Y-82465606D01*
X140350000Y-82567339D01*
X140350000Y-82672661D01*
X140377259Y-82774394D01*
X140429920Y-82865606D01*
X140434314Y-82870000D01*
X139471128Y-82870000D01*
X139523730Y-83066317D01*
X139523734Y-83066326D01*
X139619865Y-83272482D01*
X139750342Y-83458820D01*
X139911179Y-83619657D01*
X140097517Y-83750134D01*
X140303673Y-83846265D01*
X140303682Y-83846269D01*
X140499999Y-83898872D01*
X140500000Y-83898871D01*
X140500000Y-82935686D01*
X140504394Y-82940080D01*
X140595606Y-82992741D01*
X140697339Y-83020000D01*
X140802661Y-83020000D01*
X140904394Y-82992741D01*
X140995606Y-82940080D01*
X141000000Y-82935686D01*
X141000000Y-83898872D01*
X141196317Y-83846269D01*
X141196326Y-83846265D01*
X141402482Y-83750134D01*
X141588820Y-83619657D01*
X141749657Y-83458820D01*
X141880134Y-83272482D01*
X141976265Y-83066326D01*
X141976269Y-83066317D01*
X142028872Y-82870000D01*
X141065686Y-82870000D01*
X141070080Y-82865606D01*
X141122741Y-82774394D01*
X141150000Y-82672661D01*
X141150000Y-82567339D01*
X141122741Y-82465606D01*
X141070080Y-82374394D01*
X141065686Y-82370000D01*
X142028872Y-82370000D01*
X142028872Y-82369999D01*
X141976269Y-82173682D01*
X141976265Y-82173673D01*
X141880134Y-81967517D01*
X141749657Y-81781179D01*
X141588820Y-81620342D01*
X141402482Y-81489865D01*
X141196328Y-81393734D01*
X141000000Y-81341127D01*
X141000000Y-82304314D01*
X140995606Y-82299920D01*
X140904394Y-82247259D01*
X140802661Y-82220000D01*
X140697339Y-82220000D01*
X140595606Y-82247259D01*
X140504394Y-82299920D01*
X140500000Y-82304314D01*
X140500000Y-81341127D01*
X140303671Y-81393734D01*
X140097517Y-81489865D01*
X139911179Y-81620342D01*
X139750342Y-81781179D01*
X139619865Y-81967517D01*
X139523734Y-82173673D01*
X139523730Y-82173682D01*
X139471127Y-82369999D01*
X136150500Y-82369999D01*
X136150500Y-81413732D01*
X136170185Y-81346693D01*
X136222989Y-81300938D01*
X136235495Y-81296026D01*
X136269334Y-81284814D01*
X136418656Y-81192712D01*
X136542712Y-81068656D01*
X136634814Y-80919334D01*
X136689999Y-80752797D01*
X136700500Y-80650009D01*
X136700499Y-79849992D01*
X136696422Y-79810085D01*
X136689999Y-79747203D01*
X136689998Y-79747200D01*
X136664196Y-79669336D01*
X136634814Y-79580666D01*
X136542712Y-79431344D01*
X136449049Y-79337681D01*
X136415564Y-79276358D01*
X136420548Y-79206666D01*
X136449049Y-79162319D01*
X136542712Y-79068656D01*
X136634814Y-78919334D01*
X136689999Y-78752797D01*
X136700500Y-78650009D01*
X136700499Y-77898476D01*
X136720183Y-77831438D01*
X136736813Y-77810801D01*
X138947297Y-75600319D01*
X139008620Y-75566834D01*
X139034978Y-75564000D01*
X139325501Y-75564000D01*
X139392540Y-75583685D01*
X139438295Y-75636489D01*
X139449501Y-75688000D01*
X139449501Y-75847876D01*
X139455908Y-75907483D01*
X139506202Y-76042328D01*
X139506206Y-76042335D01*
X139592452Y-76157544D01*
X139592455Y-76157547D01*
X139707664Y-76243793D01*
X139707671Y-76243797D01*
X139842517Y-76294091D01*
X139842516Y-76294091D01*
X139849444Y-76294835D01*
X139902127Y-76300500D01*
X141597872Y-76300499D01*
X141657483Y-76294091D01*
X141792331Y-76243796D01*
X141907546Y-76157546D01*
X141993796Y-76042331D01*
X142044091Y-75907483D01*
X142050500Y-75847873D01*
X142050499Y-74152128D01*
X142044091Y-74092517D01*
X142042128Y-74087255D01*
X141993797Y-73957671D01*
X141993793Y-73957664D01*
X141907547Y-73842455D01*
X141907544Y-73842452D01*
X141792335Y-73756206D01*
X141792328Y-73756202D01*
X141657482Y-73705908D01*
X141657483Y-73705908D01*
X141597883Y-73699501D01*
X141597881Y-73699500D01*
X141597873Y-73699500D01*
X141597864Y-73699500D01*
X139902129Y-73699500D01*
X139902123Y-73699501D01*
X139842516Y-73705908D01*
X139707671Y-73756202D01*
X139707664Y-73756206D01*
X139592455Y-73842452D01*
X139592452Y-73842455D01*
X139506206Y-73957664D01*
X139506202Y-73957671D01*
X139455908Y-74092517D01*
X139449501Y-74152116D01*
X139449501Y-74152123D01*
X139449500Y-74152135D01*
X139449500Y-74312000D01*
X139429815Y-74379039D01*
X139377011Y-74424794D01*
X139325500Y-74436000D01*
X138675747Y-74436000D01*
X138583501Y-74460716D01*
X138583501Y-74460717D01*
X138566435Y-74465289D01*
X138532302Y-74474435D01*
X138532301Y-74474436D01*
X138403699Y-74548685D01*
X138403693Y-74548689D01*
X138298685Y-74653698D01*
X136192729Y-76759653D01*
X136131406Y-76793138D01*
X136061714Y-76788154D01*
X136005781Y-76746282D01*
X135997661Y-76733973D01*
X135984610Y-76711368D01*
X135951313Y-76653696D01*
X135846304Y-76548687D01*
X135846303Y-76548686D01*
X135841973Y-76544356D01*
X135841962Y-76544346D01*
X135837255Y-76539639D01*
X135803770Y-76478316D01*
X135801716Y-76465841D01*
X135785369Y-76320749D01*
X135785368Y-76320745D01*
X135742955Y-76199535D01*
X135725789Y-76150478D01*
X135629816Y-75997738D01*
X135502262Y-75870184D01*
X135466759Y-75847876D01*
X135349523Y-75774211D01*
X135179254Y-75714631D01*
X135179249Y-75714630D01*
X135000004Y-75694435D01*
X134999996Y-75694435D01*
X134820750Y-75714630D01*
X134820745Y-75714631D01*
X134650476Y-75774211D01*
X134497737Y-75870184D01*
X134370184Y-75997737D01*
X134274211Y-76150476D01*
X134214631Y-76320745D01*
X134214630Y-76320750D01*
X134194435Y-76499996D01*
X134194435Y-76500003D01*
X134214630Y-76679249D01*
X134214631Y-76679254D01*
X134274211Y-76849523D01*
X134370184Y-77002262D01*
X134497737Y-77129815D01*
X134497740Y-77129817D01*
X134526414Y-77147835D01*
X134572705Y-77200170D01*
X134583352Y-77269224D01*
X134554976Y-77333072D01*
X134548123Y-77340509D01*
X134457287Y-77431345D01*
X134365187Y-77580663D01*
X134365186Y-77580666D01*
X134323804Y-77705550D01*
X134310001Y-77747204D01*
X134310000Y-77747205D01*
X134300107Y-77844044D01*
X134273710Y-77908736D01*
X134216529Y-77948887D01*
X134146718Y-77951750D01*
X134089068Y-77919122D01*
X133936819Y-77766873D01*
X133903334Y-77705550D01*
X133900500Y-77679192D01*
X133900500Y-64774500D01*
X133920185Y-64707461D01*
X133972989Y-64661706D01*
X134024500Y-64650500D01*
X140240500Y-64650500D01*
X140307539Y-64670185D01*
G37*
G04 #@! TD.AperFunction*
G04 #@! TA.AperFunction,Conductor*
G36*
X138043334Y-104920548D02*
G01*
X138087681Y-104949049D01*
X138181344Y-105042712D01*
X138330666Y-105134814D01*
X138351004Y-105141553D01*
X138408447Y-105181322D01*
X138435272Y-105245837D01*
X138436000Y-105259258D01*
X138436000Y-105324253D01*
X138442771Y-105349522D01*
X138474435Y-105467696D01*
X138548687Y-105596304D01*
X138548689Y-105596306D01*
X138660761Y-105708378D01*
X138660767Y-105708383D01*
X140399681Y-107447297D01*
X140433166Y-107508620D01*
X140436000Y-107534978D01*
X140436000Y-118965021D01*
X140416315Y-119032060D01*
X140399681Y-119052702D01*
X138314201Y-121138181D01*
X138252878Y-121171666D01*
X138226520Y-121174500D01*
X137499998Y-121174500D01*
X137499980Y-121174501D01*
X137397203Y-121185000D01*
X137397200Y-121185001D01*
X137230668Y-121240185D01*
X137230663Y-121240187D01*
X137081342Y-121332289D01*
X136957289Y-121456342D01*
X136866674Y-121603253D01*
X136814726Y-121649977D01*
X136745763Y-121661200D01*
X136681681Y-121633356D01*
X136673454Y-121625837D01*
X136337255Y-121289638D01*
X136303770Y-121228315D01*
X136301716Y-121215840D01*
X136285369Y-121070750D01*
X136285368Y-121070745D01*
X136225788Y-120900476D01*
X136186582Y-120838080D01*
X136129816Y-120747738D01*
X136002262Y-120620184D01*
X135849523Y-120524211D01*
X135679254Y-120464631D01*
X135679249Y-120464630D01*
X135500004Y-120444435D01*
X135499996Y-120444435D01*
X135320750Y-120464630D01*
X135320745Y-120464631D01*
X135150476Y-120524211D01*
X134997737Y-120620184D01*
X134870184Y-120747737D01*
X134774211Y-120900476D01*
X134714631Y-121070745D01*
X134714630Y-121070750D01*
X134694435Y-121249996D01*
X134694435Y-121250000D01*
X134714630Y-121429249D01*
X134714631Y-121429254D01*
X134774211Y-121599523D01*
X134795470Y-121633356D01*
X134870184Y-121752262D01*
X134997738Y-121879816D01*
X135088080Y-121936582D01*
X135129651Y-121962703D01*
X135150478Y-121975789D01*
X135215034Y-121998378D01*
X135320745Y-122035368D01*
X135320750Y-122035369D01*
X135432915Y-122048006D01*
X135465840Y-122051716D01*
X135530254Y-122078782D01*
X135539638Y-122087255D01*
X136090202Y-122637819D01*
X136123687Y-122699142D01*
X136118703Y-122768834D01*
X136076831Y-122824767D01*
X136011367Y-122849184D01*
X136002521Y-122849500D01*
X135065017Y-122849500D01*
X134997978Y-122829815D01*
X134961208Y-122793321D01*
X134858983Y-122636852D01*
X134858980Y-122636849D01*
X134858979Y-122636847D01*
X134701784Y-122466087D01*
X134701779Y-122466083D01*
X134701777Y-122466081D01*
X134518634Y-122323535D01*
X134518623Y-122323528D01*
X134465481Y-122294768D01*
X134415891Y-122245548D01*
X134400500Y-122185714D01*
X134400500Y-116352499D01*
X135971127Y-116352499D01*
X135971128Y-116352500D01*
X136934314Y-116352500D01*
X136929920Y-116356894D01*
X136877259Y-116448106D01*
X136850000Y-116549839D01*
X136850000Y-116655161D01*
X136877259Y-116756894D01*
X136929920Y-116848106D01*
X136934314Y-116852500D01*
X135971128Y-116852500D01*
X136023730Y-117048817D01*
X136023734Y-117048826D01*
X136119865Y-117254982D01*
X136250342Y-117441320D01*
X136411179Y-117602157D01*
X136597517Y-117732634D01*
X136803673Y-117828765D01*
X136803682Y-117828769D01*
X136999999Y-117881372D01*
X137000000Y-117881371D01*
X137000000Y-116918186D01*
X137004394Y-116922580D01*
X137095606Y-116975241D01*
X137197339Y-117002500D01*
X137302661Y-117002500D01*
X137404394Y-116975241D01*
X137495606Y-116922580D01*
X137500000Y-116918186D01*
X137500000Y-117881372D01*
X137696317Y-117828769D01*
X137696326Y-117828765D01*
X137902482Y-117732634D01*
X138088820Y-117602157D01*
X138249657Y-117441320D01*
X138380134Y-117254982D01*
X138476265Y-117048826D01*
X138476269Y-117048817D01*
X138528872Y-116852500D01*
X137565686Y-116852500D01*
X137570080Y-116848106D01*
X137622741Y-116756894D01*
X137650000Y-116655161D01*
X137650000Y-116549839D01*
X137622741Y-116448106D01*
X137570080Y-116356894D01*
X137565686Y-116352500D01*
X138528872Y-116352500D01*
X138528872Y-116352499D01*
X138476269Y-116156182D01*
X138476265Y-116156173D01*
X138380134Y-115950017D01*
X138249657Y-115763679D01*
X138088820Y-115602842D01*
X137902482Y-115472365D01*
X137696328Y-115376234D01*
X137500000Y-115323627D01*
X137500000Y-116286814D01*
X137495606Y-116282420D01*
X137404394Y-116229759D01*
X137302661Y-116202500D01*
X137197339Y-116202500D01*
X137095606Y-116229759D01*
X137004394Y-116282420D01*
X137000000Y-116286814D01*
X137000000Y-115323627D01*
X136803671Y-115376234D01*
X136597517Y-115472365D01*
X136411179Y-115602842D01*
X136250342Y-115763679D01*
X136119865Y-115950017D01*
X136023734Y-116156173D01*
X136023730Y-116156182D01*
X135971127Y-116352499D01*
X134400500Y-116352499D01*
X134400500Y-115385928D01*
X134375502Y-115260261D01*
X134375501Y-115260260D01*
X134375501Y-115260256D01*
X134326465Y-115141873D01*
X134314856Y-115124499D01*
X134298152Y-115099500D01*
X134255277Y-115035331D01*
X134255271Y-115035324D01*
X132486819Y-113266872D01*
X132453334Y-113205549D01*
X132450500Y-113179191D01*
X132450500Y-112999996D01*
X133694435Y-112999996D01*
X133694435Y-113000003D01*
X133714630Y-113179249D01*
X133714631Y-113179254D01*
X133774211Y-113349523D01*
X133868760Y-113499996D01*
X133870184Y-113502262D01*
X133997738Y-113629816D01*
X134150478Y-113725789D01*
X134274928Y-113769336D01*
X134320745Y-113785368D01*
X134320750Y-113785369D01*
X134499996Y-113805565D01*
X134500000Y-113805565D01*
X134500004Y-113805565D01*
X134679249Y-113785369D01*
X134679252Y-113785368D01*
X134679255Y-113785368D01*
X134849522Y-113725789D01*
X135002262Y-113629816D01*
X135129816Y-113502262D01*
X135225789Y-113349522D01*
X135285368Y-113179255D01*
X135285376Y-113179191D01*
X135301716Y-113034157D01*
X135328782Y-112969743D01*
X135337245Y-112960369D01*
X137586094Y-110711521D01*
X137586099Y-110711517D01*
X137596302Y-110701313D01*
X137596304Y-110701313D01*
X137701313Y-110596304D01*
X137775565Y-110467696D01*
X137787398Y-110423535D01*
X137800428Y-110374906D01*
X137836793Y-110315245D01*
X137899640Y-110284716D01*
X137920203Y-110282999D01*
X138097871Y-110282999D01*
X138097872Y-110282999D01*
X138157483Y-110276591D01*
X138292331Y-110226296D01*
X138407546Y-110140046D01*
X138493796Y-110024831D01*
X138544091Y-109889983D01*
X138550500Y-109830373D01*
X138550499Y-108134628D01*
X138544091Y-108075017D01*
X138519409Y-108008842D01*
X138493797Y-107940171D01*
X138493793Y-107940164D01*
X138407547Y-107824955D01*
X138407544Y-107824952D01*
X138292335Y-107738706D01*
X138292328Y-107738702D01*
X138157482Y-107688408D01*
X138157483Y-107688408D01*
X138097883Y-107682001D01*
X138097881Y-107682000D01*
X138097873Y-107682000D01*
X138097865Y-107682000D01*
X137991240Y-107682000D01*
X137924201Y-107662315D01*
X137878446Y-107609511D01*
X137868502Y-107540353D01*
X137886246Y-107492028D01*
X137975789Y-107349522D01*
X138035368Y-107179255D01*
X138035764Y-107175746D01*
X138055565Y-107000000D01*
X138055565Y-106999996D01*
X138035369Y-106820750D01*
X138035368Y-106820745D01*
X137996850Y-106710668D01*
X137975789Y-106650478D01*
X137973103Y-106646204D01*
X137879815Y-106497737D01*
X137752262Y-106370184D01*
X137599523Y-106274211D01*
X137429254Y-106214631D01*
X137429249Y-106214630D01*
X137250004Y-106194435D01*
X137249996Y-106194435D01*
X137070750Y-106214630D01*
X137070745Y-106214631D01*
X136900476Y-106274211D01*
X136747737Y-106370184D01*
X136620184Y-106497737D01*
X136524211Y-106650476D01*
X136464631Y-106820745D01*
X136464630Y-106820750D01*
X136444435Y-106999996D01*
X136444435Y-107000000D01*
X136464630Y-107179249D01*
X136464631Y-107179254D01*
X136520750Y-107339632D01*
X136524211Y-107349522D01*
X136611980Y-107489206D01*
X136613754Y-107492028D01*
X136632754Y-107559264D01*
X136612386Y-107626100D01*
X136559119Y-107671314D01*
X136508761Y-107682000D01*
X136402130Y-107682000D01*
X136402123Y-107682001D01*
X136342516Y-107688408D01*
X136207671Y-107738702D01*
X136207664Y-107738706D01*
X136092455Y-107824952D01*
X136092452Y-107824955D01*
X136006206Y-107940164D01*
X136006202Y-107940171D01*
X135955908Y-108075017D01*
X135951595Y-108115141D01*
X135949501Y-108134623D01*
X135949500Y-108134635D01*
X135949500Y-109830370D01*
X135949501Y-109830376D01*
X135955908Y-109889983D01*
X136006202Y-110024828D01*
X136006206Y-110024835D01*
X136092452Y-110140044D01*
X136092455Y-110140047D01*
X136207664Y-110226293D01*
X136207669Y-110226296D01*
X136222384Y-110231784D01*
X136278318Y-110273654D01*
X136302737Y-110339118D01*
X136287887Y-110407391D01*
X136266734Y-110435648D01*
X134539639Y-112162743D01*
X134478316Y-112196228D01*
X134465842Y-112198282D01*
X134320749Y-112214630D01*
X134320745Y-112214631D01*
X134150476Y-112274211D01*
X133997737Y-112370184D01*
X133870184Y-112497737D01*
X133774211Y-112650476D01*
X133714631Y-112820745D01*
X133714630Y-112820750D01*
X133694435Y-112999996D01*
X132450500Y-112999996D01*
X132450500Y-112413732D01*
X132470185Y-112346693D01*
X132522989Y-112300938D01*
X132535495Y-112296026D01*
X132569334Y-112284814D01*
X132718656Y-112192712D01*
X132842712Y-112068656D01*
X132934814Y-111919334D01*
X132989999Y-111752797D01*
X133000500Y-111650009D01*
X133000499Y-110849992D01*
X132995857Y-110804554D01*
X132989999Y-110747203D01*
X132989998Y-110747200D01*
X132974793Y-110701314D01*
X132934814Y-110580666D01*
X132842712Y-110431344D01*
X132749049Y-110337681D01*
X132715564Y-110276358D01*
X132720548Y-110206666D01*
X132749049Y-110162319D01*
X132787442Y-110123926D01*
X132842712Y-110068656D01*
X132934814Y-109919334D01*
X132989999Y-109752797D01*
X133000500Y-109650009D01*
X133000499Y-108849992D01*
X133000499Y-108849991D01*
X133000499Y-108848478D01*
X133020183Y-108781439D01*
X133036818Y-108760797D01*
X134779615Y-107018000D01*
X136560799Y-105236816D01*
X136622120Y-105203333D01*
X136648469Y-105200499D01*
X137400008Y-105200499D01*
X137400016Y-105200498D01*
X137400019Y-105200498D01*
X137456302Y-105194748D01*
X137502797Y-105189999D01*
X137669334Y-105134814D01*
X137818656Y-105042712D01*
X137912319Y-104949049D01*
X137973642Y-104915564D01*
X138043334Y-104920548D01*
G37*
G04 #@! TD.AperFunction*
G04 #@! TA.AperFunction,Conductor*
G36*
X86423561Y-102066185D02*
G01*
X86469316Y-102118989D01*
X86479260Y-102188147D01*
X86450235Y-102251703D01*
X86444204Y-102258179D01*
X85284885Y-103417498D01*
X84153698Y-104548685D01*
X84048688Y-104653694D01*
X84048686Y-104653696D01*
X84031731Y-104683063D01*
X84024565Y-104695477D01*
X83999500Y-104738890D01*
X83974435Y-104782303D01*
X83941909Y-104903695D01*
X83936000Y-104925747D01*
X83936000Y-108130560D01*
X83916315Y-108197599D01*
X83899681Y-108218241D01*
X83870184Y-108247737D01*
X83774211Y-108400476D01*
X83714631Y-108570745D01*
X83714630Y-108570750D01*
X83694435Y-108749996D01*
X83694435Y-108750003D01*
X83714630Y-108929249D01*
X83714631Y-108929254D01*
X83774211Y-109099523D01*
X83820793Y-109173657D01*
X83870184Y-109252262D01*
X83997738Y-109379816D01*
X84076318Y-109429191D01*
X84149605Y-109475241D01*
X84150478Y-109475789D01*
X84273202Y-109518732D01*
X84320745Y-109535368D01*
X84320750Y-109535369D01*
X84499996Y-109555565D01*
X84500000Y-109555565D01*
X84500004Y-109555565D01*
X84679249Y-109535369D01*
X84679252Y-109535368D01*
X84679255Y-109535368D01*
X84849522Y-109475789D01*
X85002262Y-109379816D01*
X85129816Y-109252262D01*
X85225789Y-109099522D01*
X85285368Y-108929255D01*
X85293419Y-108857799D01*
X85305565Y-108750003D01*
X85305565Y-108749996D01*
X85285369Y-108570750D01*
X85285368Y-108570745D01*
X85251443Y-108473793D01*
X85225789Y-108400478D01*
X85129816Y-108247738D01*
X85100319Y-108218241D01*
X85066834Y-108156918D01*
X85064000Y-108130560D01*
X85064000Y-105284978D01*
X85083685Y-105217939D01*
X85100319Y-105197297D01*
X86262819Y-104034797D01*
X86324142Y-104001312D01*
X86393834Y-104006296D01*
X86449767Y-104048168D01*
X86474184Y-104113632D01*
X86474500Y-104122478D01*
X86474500Y-110505191D01*
X86454815Y-110572230D01*
X86402011Y-110617985D01*
X86332853Y-110627929D01*
X86269297Y-110598904D01*
X86262819Y-110592872D01*
X86164673Y-110494726D01*
X86143382Y-110480500D01*
X86058127Y-110423535D01*
X86037466Y-110414977D01*
X85939744Y-110374499D01*
X85939738Y-110374497D01*
X85814071Y-110349500D01*
X85814069Y-110349500D01*
X82314069Y-110349500D01*
X78064069Y-110349500D01*
X73564069Y-110349500D01*
X72878858Y-110349500D01*
X72811819Y-110329815D01*
X72766064Y-110277011D01*
X72756120Y-110207853D01*
X72785145Y-110144297D01*
X72807734Y-110123926D01*
X72838816Y-110102161D01*
X72999657Y-109941320D01*
X73130134Y-109754982D01*
X73226265Y-109548826D01*
X73226269Y-109548817D01*
X73278872Y-109352500D01*
X72315686Y-109352500D01*
X72320080Y-109348106D01*
X72372741Y-109256894D01*
X72400000Y-109155161D01*
X72400000Y-109049839D01*
X72372741Y-108948106D01*
X72320080Y-108856894D01*
X72315686Y-108852500D01*
X73278872Y-108852500D01*
X73278872Y-108852499D01*
X73226269Y-108656182D01*
X73226265Y-108656173D01*
X73130134Y-108450017D01*
X72999657Y-108263679D01*
X72838820Y-108102842D01*
X72652482Y-107972365D01*
X72446328Y-107876234D01*
X72250000Y-107823627D01*
X72250000Y-108786814D01*
X72245606Y-108782420D01*
X72154394Y-108729759D01*
X72052661Y-108702500D01*
X71947339Y-108702500D01*
X71845606Y-108729759D01*
X71754394Y-108782420D01*
X71750000Y-108786814D01*
X71750000Y-107823627D01*
X71553671Y-107876234D01*
X71347517Y-107972365D01*
X71161179Y-108102842D01*
X71000342Y-108263679D01*
X70869865Y-108450017D01*
X70773734Y-108656173D01*
X70773730Y-108656182D01*
X70721127Y-108852499D01*
X70721128Y-108852500D01*
X71684314Y-108852500D01*
X71679920Y-108856894D01*
X71627259Y-108948106D01*
X71600000Y-109049839D01*
X71600000Y-109155161D01*
X71627259Y-109256894D01*
X71679920Y-109348106D01*
X71684314Y-109352500D01*
X70721128Y-109352500D01*
X70773730Y-109548817D01*
X70773734Y-109548826D01*
X70869865Y-109754982D01*
X71000342Y-109941320D01*
X71161183Y-110102161D01*
X71192266Y-110123926D01*
X71235891Y-110178503D01*
X71243083Y-110248001D01*
X71211560Y-110310356D01*
X71151330Y-110345769D01*
X71121142Y-110349500D01*
X64820808Y-110349500D01*
X64753769Y-110329815D01*
X64733127Y-110313181D01*
X63936819Y-109516873D01*
X63903334Y-109455550D01*
X63900500Y-109429192D01*
X63900500Y-107602000D01*
X63920185Y-107534961D01*
X63972989Y-107489206D01*
X64024500Y-107478000D01*
X64264362Y-107478000D01*
X64331401Y-107497685D01*
X64369899Y-107536901D01*
X64437288Y-107646156D01*
X64437289Y-107646157D01*
X64530951Y-107739819D01*
X64564436Y-107801142D01*
X64559452Y-107870834D01*
X64530951Y-107915181D01*
X64437289Y-108008842D01*
X64345187Y-108158163D01*
X64345185Y-108158168D01*
X64326292Y-108215185D01*
X64290001Y-108324703D01*
X64290001Y-108324704D01*
X64290000Y-108324704D01*
X64279500Y-108427483D01*
X64279500Y-109227501D01*
X64279501Y-109227519D01*
X64290000Y-109330296D01*
X64290001Y-109330299D01*
X64345185Y-109496831D01*
X64345187Y-109496836D01*
X64357546Y-109516873D01*
X64437288Y-109646156D01*
X64561344Y-109770212D01*
X64710666Y-109862314D01*
X64877203Y-109917499D01*
X64979991Y-109928000D01*
X65980008Y-109927999D01*
X65980016Y-109927998D01*
X65980019Y-109927998D01*
X66036302Y-109922248D01*
X66082797Y-109917499D01*
X66249334Y-109862314D01*
X66398656Y-109770212D01*
X66522712Y-109646156D01*
X66614814Y-109496834D01*
X66669999Y-109330297D01*
X66680500Y-109227509D01*
X66680499Y-108475976D01*
X66700183Y-108408938D01*
X66716813Y-108388301D01*
X72285797Y-102819318D01*
X72347120Y-102785833D01*
X72373478Y-102782999D01*
X72847871Y-102782999D01*
X72847872Y-102782999D01*
X72907483Y-102776591D01*
X73042331Y-102726296D01*
X73157546Y-102640046D01*
X73243796Y-102524831D01*
X73294091Y-102389983D01*
X73300500Y-102330373D01*
X73300500Y-102170500D01*
X73320185Y-102103461D01*
X73372989Y-102057706D01*
X73424500Y-102046500D01*
X86356522Y-102046500D01*
X86423561Y-102066185D01*
G37*
G04 #@! TD.AperFunction*
G04 #@! TA.AperFunction,Conductor*
G36*
X94156052Y-72258685D02*
G01*
X94201807Y-72311489D01*
X94211751Y-72380647D01*
X94182726Y-72444203D01*
X94151014Y-72470387D01*
X94058696Y-72523687D01*
X94058693Y-72523689D01*
X93953685Y-72628698D01*
X85789201Y-80793181D01*
X85727878Y-80826666D01*
X85701520Y-80829500D01*
X84402129Y-80829500D01*
X84402123Y-80829501D01*
X84342516Y-80835908D01*
X84207671Y-80886202D01*
X84207664Y-80886206D01*
X84092455Y-80972452D01*
X84092452Y-80972455D01*
X84006206Y-81087664D01*
X84006202Y-81087671D01*
X83955908Y-81222517D01*
X83949501Y-81282116D01*
X83949500Y-81282135D01*
X83949500Y-82977870D01*
X83949501Y-82977876D01*
X83955908Y-83037483D01*
X84006202Y-83172328D01*
X84006206Y-83172335D01*
X84092452Y-83287544D01*
X84092455Y-83287547D01*
X84207664Y-83373793D01*
X84207671Y-83373797D01*
X84342517Y-83424091D01*
X84342516Y-83424091D01*
X84349444Y-83424835D01*
X84402127Y-83430500D01*
X86097872Y-83430499D01*
X86157483Y-83424091D01*
X86292331Y-83373796D01*
X86407546Y-83287546D01*
X86493796Y-83172331D01*
X86544091Y-83037483D01*
X86550500Y-82977873D01*
X86550500Y-82967590D01*
X86570185Y-82900551D01*
X86622989Y-82854796D01*
X86692147Y-82844852D01*
X86755703Y-82873877D01*
X86762181Y-82879909D01*
X88649681Y-84767409D01*
X88683166Y-84828732D01*
X88686000Y-84855090D01*
X88686000Y-94574252D01*
X88724023Y-94716156D01*
X88724435Y-94717695D01*
X88724436Y-94717698D01*
X88730311Y-94727873D01*
X88798687Y-94846304D01*
X88903696Y-94951313D01*
X89032304Y-95025565D01*
X89175748Y-95064000D01*
X89324252Y-95064000D01*
X91590832Y-95064000D01*
X91657871Y-95083685D01*
X91703626Y-95136489D01*
X91714052Y-95174112D01*
X91714631Y-95179252D01*
X91714631Y-95179254D01*
X91774211Y-95349523D01*
X91826687Y-95433037D01*
X91870184Y-95502262D01*
X91997738Y-95629816D01*
X92005651Y-95634788D01*
X92065564Y-95672434D01*
X92111855Y-95724769D01*
X92122503Y-95793823D01*
X92094128Y-95857671D01*
X92087273Y-95865109D01*
X87070203Y-100882181D01*
X87008880Y-100915666D01*
X86982522Y-100918500D01*
X73424499Y-100918500D01*
X73357460Y-100898815D01*
X73311705Y-100846011D01*
X73300499Y-100794500D01*
X73300499Y-100634626D01*
X73300498Y-100634623D01*
X73300497Y-100634616D01*
X73294091Y-100575017D01*
X73293805Y-100574251D01*
X73243797Y-100440171D01*
X73243793Y-100440164D01*
X73157547Y-100324955D01*
X73157544Y-100324952D01*
X73042335Y-100238706D01*
X73042328Y-100238702D01*
X72907482Y-100188408D01*
X72907483Y-100188408D01*
X72847883Y-100182001D01*
X72847881Y-100182000D01*
X72847873Y-100182000D01*
X72847864Y-100182000D01*
X71152129Y-100182000D01*
X71152123Y-100182001D01*
X71092516Y-100188408D01*
X70957671Y-100238702D01*
X70957664Y-100238706D01*
X70842455Y-100324952D01*
X70842452Y-100324955D01*
X70756206Y-100440164D01*
X70756202Y-100440171D01*
X70705908Y-100575017D01*
X70699501Y-100634616D01*
X70699500Y-100634627D01*
X70699500Y-102330370D01*
X70699501Y-102330376D01*
X70705908Y-102389983D01*
X70756202Y-102524828D01*
X70756204Y-102524831D01*
X70789785Y-102569689D01*
X70814203Y-102635153D01*
X70799352Y-102703427D01*
X70778200Y-102731682D01*
X66892180Y-106617703D01*
X66830857Y-106651188D01*
X66761165Y-106646204D01*
X66705232Y-106604332D01*
X66680815Y-106538868D01*
X66680499Y-106530022D01*
X66680499Y-106427498D01*
X66680498Y-106427481D01*
X66669999Y-106324703D01*
X66669998Y-106324700D01*
X66657186Y-106286037D01*
X66614814Y-106158166D01*
X66522712Y-106008844D01*
X66398656Y-105884788D01*
X66305888Y-105827569D01*
X66249336Y-105792687D01*
X66249331Y-105792685D01*
X66247862Y-105792198D01*
X66082797Y-105737501D01*
X66082795Y-105737500D01*
X65980010Y-105727000D01*
X64979998Y-105727000D01*
X64979980Y-105727001D01*
X64877203Y-105737500D01*
X64877200Y-105737501D01*
X64710668Y-105792685D01*
X64710663Y-105792687D01*
X64561342Y-105884789D01*
X64437289Y-106008842D01*
X64437288Y-106008844D01*
X64377882Y-106105158D01*
X64369901Y-106118097D01*
X64317953Y-106164821D01*
X64264362Y-106177000D01*
X64024500Y-106177000D01*
X63957461Y-106157315D01*
X63911706Y-106104511D01*
X63900500Y-106053000D01*
X63900500Y-103102000D01*
X63920185Y-103034961D01*
X63972989Y-102989206D01*
X64024500Y-102978000D01*
X64264362Y-102978000D01*
X64331401Y-102997685D01*
X64369899Y-103036901D01*
X64437288Y-103146156D01*
X64561344Y-103270212D01*
X64710666Y-103362314D01*
X64877203Y-103417499D01*
X64979991Y-103428000D01*
X65980008Y-103427999D01*
X65980016Y-103427998D01*
X65980019Y-103427998D01*
X66036302Y-103422248D01*
X66082797Y-103417499D01*
X66249334Y-103362314D01*
X66398656Y-103270212D01*
X66522712Y-103146156D01*
X66614814Y-102996834D01*
X66669999Y-102830297D01*
X66680500Y-102727509D01*
X66680499Y-101927492D01*
X66669999Y-101824703D01*
X66614814Y-101658166D01*
X66522712Y-101508844D01*
X66429049Y-101415181D01*
X66395564Y-101353858D01*
X66400548Y-101284166D01*
X66429049Y-101239819D01*
X66451246Y-101217622D01*
X66522712Y-101146156D01*
X66614814Y-100996834D01*
X66669999Y-100830297D01*
X66680500Y-100727509D01*
X66680499Y-99927492D01*
X66669999Y-99824703D01*
X66614814Y-99658166D01*
X66572519Y-99589595D01*
X66554080Y-99522204D01*
X66575003Y-99455541D01*
X66628645Y-99410771D01*
X66678059Y-99400500D01*
X66814071Y-99400500D01*
X66898615Y-99383682D01*
X66939744Y-99375501D01*
X67058127Y-99326465D01*
X67067991Y-99319873D01*
X67074583Y-99315470D01*
X67134504Y-99275431D01*
X67164669Y-99255277D01*
X69380627Y-97039319D01*
X69441950Y-97005834D01*
X69468308Y-97003000D01*
X69779782Y-97003000D01*
X69846821Y-97022685D01*
X69885319Y-97061901D01*
X69937288Y-97146156D01*
X70061344Y-97270212D01*
X70210666Y-97362314D01*
X70244500Y-97373525D01*
X70301947Y-97413296D01*
X70328772Y-97477811D01*
X70329500Y-97491232D01*
X70329500Y-98044070D01*
X70345499Y-98124498D01*
X70345499Y-98124500D01*
X70350841Y-98151358D01*
X70354499Y-98169744D01*
X70403535Y-98288127D01*
X70425333Y-98320750D01*
X70474726Y-98394673D01*
X70585324Y-98505271D01*
X70585331Y-98505277D01*
X70691871Y-98576464D01*
X70691870Y-98576464D01*
X70726544Y-98590826D01*
X70810256Y-98625501D01*
X70810260Y-98625501D01*
X70810261Y-98625502D01*
X70935928Y-98650500D01*
X70935931Y-98650500D01*
X75064071Y-98650500D01*
X75148615Y-98633682D01*
X75189744Y-98625501D01*
X75308127Y-98576465D01*
X75414669Y-98505277D01*
X77277800Y-96642144D01*
X77339121Y-96608661D01*
X77399753Y-96612202D01*
X77400048Y-96611040D01*
X77405011Y-96612296D01*
X77405015Y-96612296D01*
X77405019Y-96612298D01*
X77633951Y-96650500D01*
X77633952Y-96650500D01*
X77866048Y-96650500D01*
X77866049Y-96650500D01*
X78094981Y-96612298D01*
X78314503Y-96536936D01*
X78518626Y-96426470D01*
X78701784Y-96283913D01*
X78858979Y-96113153D01*
X78985924Y-95918849D01*
X79079157Y-95706300D01*
X79136134Y-95481305D01*
X79136135Y-95481297D01*
X79155300Y-95250006D01*
X79155300Y-95249993D01*
X79136135Y-95018702D01*
X79136133Y-95018691D01*
X79079157Y-94793699D01*
X78985924Y-94581151D01*
X78858983Y-94386852D01*
X78858980Y-94386849D01*
X78858979Y-94386847D01*
X78701784Y-94216087D01*
X78701779Y-94216083D01*
X78701777Y-94216081D01*
X78518634Y-94073535D01*
X78518628Y-94073531D01*
X78314504Y-93963064D01*
X78314495Y-93963061D01*
X78094984Y-93887702D01*
X77901010Y-93855334D01*
X77866049Y-93849500D01*
X77633951Y-93849500D01*
X77598990Y-93855334D01*
X77405015Y-93887702D01*
X77185504Y-93963061D01*
X77185495Y-93963064D01*
X76981371Y-94073531D01*
X76981365Y-94073535D01*
X76798222Y-94216081D01*
X76798218Y-94216085D01*
X76789866Y-94225158D01*
X76729979Y-94261148D01*
X76660141Y-94259047D01*
X76602525Y-94219522D01*
X76582455Y-94184507D01*
X76553797Y-94107671D01*
X76553793Y-94107664D01*
X76467547Y-93992455D01*
X76467544Y-93992452D01*
X76352335Y-93906206D01*
X76352328Y-93906202D01*
X76217482Y-93855908D01*
X76217483Y-93855908D01*
X76157883Y-93849501D01*
X76157881Y-93849500D01*
X76157873Y-93849500D01*
X76157864Y-93849500D01*
X74262129Y-93849500D01*
X74262123Y-93849501D01*
X74202516Y-93855908D01*
X74067671Y-93906202D01*
X74067664Y-93906206D01*
X73952455Y-93992452D01*
X73952452Y-93992455D01*
X73866206Y-94107664D01*
X73866202Y-94107671D01*
X73815908Y-94242517D01*
X73809501Y-94302116D01*
X73809500Y-94302135D01*
X73809500Y-94562000D01*
X73789815Y-94629039D01*
X73737011Y-94674794D01*
X73685500Y-94686000D01*
X72429978Y-94686000D01*
X72362939Y-94666315D01*
X72342297Y-94649681D01*
X72216818Y-94524202D01*
X72183333Y-94462879D01*
X72180499Y-94436521D01*
X72180499Y-93927498D01*
X72180498Y-93927481D01*
X72169999Y-93824703D01*
X72169998Y-93824700D01*
X72114814Y-93658166D01*
X72022712Y-93508844D01*
X71898656Y-93384788D01*
X71749334Y-93292686D01*
X71582797Y-93237501D01*
X71582795Y-93237500D01*
X71480010Y-93227000D01*
X70479998Y-93227000D01*
X70479980Y-93227001D01*
X70377203Y-93237500D01*
X70377200Y-93237501D01*
X70210668Y-93292685D01*
X70210663Y-93292687D01*
X70061342Y-93384789D01*
X69937289Y-93508842D01*
X69845187Y-93658163D01*
X69842136Y-93664709D01*
X69839747Y-93663595D01*
X69806946Y-93710959D01*
X69742427Y-93737774D01*
X69729025Y-93738500D01*
X67680748Y-93738500D01*
X67537304Y-93776935D01*
X67537301Y-93776936D01*
X67408699Y-93851185D01*
X67408693Y-93851189D01*
X66892180Y-94367703D01*
X66830857Y-94401188D01*
X66761165Y-94396204D01*
X66705232Y-94354332D01*
X66680815Y-94288868D01*
X66680499Y-94280022D01*
X66680499Y-94177498D01*
X66680498Y-94177481D01*
X66669999Y-94074703D01*
X66669998Y-94074700D01*
X66653265Y-94024203D01*
X66614814Y-93908166D01*
X66522712Y-93758844D01*
X66398656Y-93634788D01*
X66291438Y-93568656D01*
X66249336Y-93542687D01*
X66249331Y-93542685D01*
X66222204Y-93533696D01*
X66128995Y-93502809D01*
X66071551Y-93463037D01*
X66044728Y-93398521D01*
X66044000Y-93385104D01*
X66044000Y-90661420D01*
X66063685Y-90594381D01*
X66116489Y-90548626D01*
X66154114Y-90538200D01*
X66179255Y-90535368D01*
X66349522Y-90475789D01*
X66502262Y-90379816D01*
X66629816Y-90252262D01*
X66725789Y-90099522D01*
X66785368Y-89929255D01*
X66785369Y-89929249D01*
X66805565Y-89750003D01*
X66805565Y-89749996D01*
X66785369Y-89570750D01*
X66785368Y-89570745D01*
X66782355Y-89562135D01*
X66760613Y-89499999D01*
X83971127Y-89499999D01*
X83971128Y-89500000D01*
X84934314Y-89500000D01*
X84929920Y-89504394D01*
X84877259Y-89595606D01*
X84850000Y-89697339D01*
X84850000Y-89802661D01*
X84877259Y-89904394D01*
X84929920Y-89995606D01*
X84934314Y-90000000D01*
X83971128Y-90000000D01*
X84023730Y-90196317D01*
X84023734Y-90196326D01*
X84119865Y-90402482D01*
X84250342Y-90588820D01*
X84411179Y-90749657D01*
X84597517Y-90880134D01*
X84803673Y-90976265D01*
X84803682Y-90976269D01*
X84999999Y-91028872D01*
X85000000Y-91028871D01*
X85000000Y-90065686D01*
X85004394Y-90070080D01*
X85095606Y-90122741D01*
X85197339Y-90150000D01*
X85302661Y-90150000D01*
X85404394Y-90122741D01*
X85495606Y-90070080D01*
X85500000Y-90065686D01*
X85500000Y-91028872D01*
X85696317Y-90976269D01*
X85696326Y-90976265D01*
X85902482Y-90880134D01*
X86088820Y-90749657D01*
X86249657Y-90588820D01*
X86380134Y-90402482D01*
X86476265Y-90196326D01*
X86476269Y-90196317D01*
X86528872Y-90000000D01*
X85565686Y-90000000D01*
X85570080Y-89995606D01*
X85622741Y-89904394D01*
X85650000Y-89802661D01*
X85650000Y-89697339D01*
X85622741Y-89595606D01*
X85570080Y-89504394D01*
X85565686Y-89500000D01*
X86528872Y-89500000D01*
X86528872Y-89499999D01*
X86476269Y-89303682D01*
X86476265Y-89303673D01*
X86380134Y-89097517D01*
X86249657Y-88911179D01*
X86088820Y-88750342D01*
X85902482Y-88619865D01*
X85696328Y-88523734D01*
X85500000Y-88471127D01*
X85500000Y-89434314D01*
X85495606Y-89429920D01*
X85404394Y-89377259D01*
X85302661Y-89350000D01*
X85197339Y-89350000D01*
X85095606Y-89377259D01*
X85004394Y-89429920D01*
X85000000Y-89434314D01*
X85000000Y-88471127D01*
X84803671Y-88523734D01*
X84597517Y-88619865D01*
X84411179Y-88750342D01*
X84250342Y-88911179D01*
X84119865Y-89097517D01*
X84023734Y-89303673D01*
X84023730Y-89303682D01*
X83971127Y-89499999D01*
X66760613Y-89499999D01*
X66725789Y-89400478D01*
X66693684Y-89349384D01*
X66677716Y-89323970D01*
X66629816Y-89247738D01*
X66502262Y-89120184D01*
X66349523Y-89024211D01*
X66179254Y-88964631D01*
X66179249Y-88964630D01*
X66000004Y-88944435D01*
X65999996Y-88944435D01*
X65820750Y-88964630D01*
X65820745Y-88964631D01*
X65650476Y-89024211D01*
X65497737Y-89120184D01*
X65370184Y-89247737D01*
X65274211Y-89400476D01*
X65214631Y-89570745D01*
X65214630Y-89570749D01*
X65198282Y-89715842D01*
X65171215Y-89780256D01*
X65162745Y-89789638D01*
X65133698Y-89818685D01*
X65028688Y-89923694D01*
X65028684Y-89923699D01*
X65005053Y-89964631D01*
X64954436Y-90052300D01*
X64954435Y-90052304D01*
X64919549Y-90182506D01*
X64916116Y-90195317D01*
X64916072Y-90195479D01*
X64916000Y-90195742D01*
X64916000Y-93385104D01*
X64896315Y-93452143D01*
X64843511Y-93497898D01*
X64831004Y-93502810D01*
X64710668Y-93542685D01*
X64710663Y-93542687D01*
X64561342Y-93634789D01*
X64437289Y-93758842D01*
X64407408Y-93807288D01*
X64380330Y-93851189D01*
X64359147Y-93885532D01*
X64307199Y-93932256D01*
X64253608Y-93944435D01*
X64249996Y-93944435D01*
X64070750Y-93964630D01*
X64070742Y-93964632D01*
X64065454Y-93966483D01*
X63995675Y-93970044D01*
X63935048Y-93935315D01*
X63902821Y-93873322D01*
X63900500Y-93849441D01*
X63900500Y-74803340D01*
X63920185Y-74736301D01*
X63972989Y-74690546D01*
X64042147Y-74680602D01*
X64089591Y-74697798D01*
X64230666Y-74784814D01*
X64264500Y-74796025D01*
X64321947Y-74835796D01*
X64348772Y-74900311D01*
X64349500Y-74913732D01*
X64349500Y-75064071D01*
X64371001Y-75172159D01*
X64371002Y-75172162D01*
X64374498Y-75189743D01*
X64417179Y-75292782D01*
X64423535Y-75308127D01*
X64494723Y-75414669D01*
X64494726Y-75414673D01*
X64494727Y-75414674D01*
X65763181Y-76683126D01*
X65796666Y-76744449D01*
X65799500Y-76770807D01*
X65799500Y-77400001D01*
X65799501Y-77400019D01*
X65810000Y-77502796D01*
X65810001Y-77502799D01*
X65865185Y-77669331D01*
X65865187Y-77669336D01*
X65957289Y-77818657D01*
X66050951Y-77912319D01*
X66084436Y-77973642D01*
X66079452Y-78043334D01*
X66050951Y-78087681D01*
X65957289Y-78181342D01*
X65865187Y-78330663D01*
X65865186Y-78330666D01*
X65810001Y-78497203D01*
X65810001Y-78497204D01*
X65810000Y-78497204D01*
X65799500Y-78599983D01*
X65799500Y-79400001D01*
X65799501Y-79400019D01*
X65810000Y-79502796D01*
X65810001Y-79502799D01*
X65835803Y-79580663D01*
X65865186Y-79669334D01*
X65957288Y-79818656D01*
X66081344Y-79942712D01*
X66230666Y-80034814D01*
X66397203Y-80089999D01*
X66499991Y-80100500D01*
X67500008Y-80100499D01*
X67500016Y-80100498D01*
X67500019Y-80100498D01*
X67556302Y-80094748D01*
X67602797Y-80089999D01*
X67769334Y-80034814D01*
X67918656Y-79942712D01*
X68042712Y-79818656D01*
X68134814Y-79669334D01*
X68189999Y-79502797D01*
X68200500Y-79400009D01*
X68200499Y-78648476D01*
X68220183Y-78581438D01*
X68236813Y-78560801D01*
X70927617Y-75869999D01*
X71721127Y-75869999D01*
X71721128Y-75870000D01*
X72684314Y-75870000D01*
X72679920Y-75874394D01*
X72627259Y-75965606D01*
X72600000Y-76067339D01*
X72600000Y-76172661D01*
X72627259Y-76274394D01*
X72679920Y-76365606D01*
X72684314Y-76370000D01*
X71721128Y-76370000D01*
X71773730Y-76566317D01*
X71773734Y-76566326D01*
X71869865Y-76772482D01*
X72000342Y-76958820D01*
X72161179Y-77119657D01*
X72347517Y-77250134D01*
X72553673Y-77346265D01*
X72553682Y-77346269D01*
X72749999Y-77398872D01*
X72750000Y-77398871D01*
X72750000Y-76435686D01*
X72754394Y-76440080D01*
X72845606Y-76492741D01*
X72947339Y-76520000D01*
X73052661Y-76520000D01*
X73154394Y-76492741D01*
X73245606Y-76440080D01*
X73250000Y-76435686D01*
X73250000Y-77398872D01*
X73446317Y-77346269D01*
X73446326Y-77346265D01*
X73652482Y-77250134D01*
X73838820Y-77119657D01*
X73999657Y-76958820D01*
X74130134Y-76772482D01*
X74226265Y-76566326D01*
X74226269Y-76566317D01*
X74278872Y-76370000D01*
X73315686Y-76370000D01*
X73320080Y-76365606D01*
X73372741Y-76274394D01*
X73400000Y-76172661D01*
X73400000Y-76067339D01*
X73372741Y-75965606D01*
X73320080Y-75874394D01*
X73315686Y-75870000D01*
X74278872Y-75870000D01*
X74278872Y-75869999D01*
X74226269Y-75673682D01*
X74226265Y-75673673D01*
X74130134Y-75467517D01*
X73999657Y-75281179D01*
X73838820Y-75120342D01*
X73652482Y-74989865D01*
X73446328Y-74893734D01*
X73250000Y-74841127D01*
X73250000Y-75804314D01*
X73245606Y-75799920D01*
X73154394Y-75747259D01*
X73052661Y-75720000D01*
X72947339Y-75720000D01*
X72845606Y-75747259D01*
X72754394Y-75799920D01*
X72750000Y-75804314D01*
X72750000Y-74841127D01*
X72553671Y-74893734D01*
X72347517Y-74989865D01*
X72161179Y-75120342D01*
X72000342Y-75281179D01*
X71869865Y-75467517D01*
X71773734Y-75673673D01*
X71773730Y-75673682D01*
X71721127Y-75869999D01*
X70927617Y-75869999D01*
X73072298Y-73725319D01*
X73133621Y-73691834D01*
X73159979Y-73689000D01*
X91704139Y-73689000D01*
X91704141Y-73689000D01*
X91847584Y-73650565D01*
X91855181Y-73646178D01*
X91883521Y-73629817D01*
X91883522Y-73629816D01*
X91883524Y-73629815D01*
X91976192Y-73576313D01*
X92081201Y-73471304D01*
X92081201Y-73471302D01*
X92091405Y-73461099D01*
X92091408Y-73461094D01*
X93277186Y-72275319D01*
X93338509Y-72241834D01*
X93364867Y-72239000D01*
X94089013Y-72239000D01*
X94156052Y-72258685D01*
G37*
G04 #@! TD.AperFunction*
G04 #@! TA.AperFunction,Conductor*
G36*
X112314449Y-75583685D02*
G01*
X112335091Y-75600319D01*
X123513181Y-86778409D01*
X123546666Y-86839732D01*
X123549500Y-86866089D01*
X123549500Y-87047500D01*
X123549501Y-87047519D01*
X123560000Y-87150296D01*
X123560001Y-87150299D01*
X123604576Y-87284815D01*
X123615186Y-87316834D01*
X123703606Y-87460187D01*
X123707289Y-87466157D01*
X123800951Y-87559819D01*
X123834436Y-87621142D01*
X123829452Y-87690834D01*
X123800951Y-87735181D01*
X123707289Y-87828842D01*
X123615187Y-87978163D01*
X123615185Y-87978168D01*
X123608447Y-87998504D01*
X123568674Y-88055949D01*
X123504158Y-88082772D01*
X123490741Y-88083500D01*
X121432478Y-88083500D01*
X121365439Y-88063815D01*
X121344797Y-88047181D01*
X119736818Y-86439202D01*
X119703333Y-86377879D01*
X119700499Y-86351521D01*
X119700499Y-85972498D01*
X119700498Y-85972481D01*
X119689999Y-85869703D01*
X119689998Y-85869700D01*
X119683467Y-85849991D01*
X119634814Y-85703166D01*
X119542712Y-85553844D01*
X119418656Y-85429788D01*
X119269334Y-85337686D01*
X119102797Y-85282501D01*
X119102795Y-85282500D01*
X119000010Y-85272000D01*
X117999998Y-85272000D01*
X117999980Y-85272001D01*
X117897203Y-85282500D01*
X117897200Y-85282501D01*
X117730668Y-85337685D01*
X117730663Y-85337687D01*
X117581342Y-85429789D01*
X117457289Y-85553842D01*
X117365187Y-85703163D01*
X117362136Y-85709709D01*
X117359747Y-85708595D01*
X117326946Y-85755959D01*
X117262427Y-85782774D01*
X117249025Y-85783500D01*
X114374252Y-85783500D01*
X114225747Y-85783500D01*
X114082303Y-85821935D01*
X114082302Y-85821935D01*
X114082300Y-85821936D01*
X114070342Y-85828841D01*
X114070337Y-85828844D01*
X113953699Y-85896185D01*
X113953693Y-85896189D01*
X113848685Y-86001198D01*
X113139201Y-86710681D01*
X113077878Y-86744166D01*
X113051520Y-86747000D01*
X111552129Y-86747000D01*
X111552123Y-86747001D01*
X111492516Y-86753408D01*
X111357671Y-86803702D01*
X111357664Y-86803706D01*
X111242455Y-86889952D01*
X111242452Y-86889955D01*
X111156206Y-87005164D01*
X111156202Y-87005171D01*
X111105908Y-87140017D01*
X111099501Y-87199616D01*
X111099500Y-87199635D01*
X111099500Y-89095370D01*
X111099501Y-89095376D01*
X111105908Y-89154983D01*
X111156202Y-89289828D01*
X111156206Y-89289835D01*
X111242452Y-89405044D01*
X111242455Y-89405047D01*
X111357664Y-89491293D01*
X111357671Y-89491297D01*
X111492517Y-89541591D01*
X111492516Y-89541591D01*
X111499444Y-89542335D01*
X111552127Y-89548000D01*
X112420191Y-89547999D01*
X112487230Y-89567683D01*
X112532985Y-89620487D01*
X112542929Y-89689646D01*
X112513904Y-89753202D01*
X112507872Y-89759680D01*
X109744726Y-92522826D01*
X109673534Y-92629374D01*
X109624499Y-92747755D01*
X109624497Y-92747761D01*
X109599500Y-92873428D01*
X109599500Y-95123000D01*
X109579815Y-95190039D01*
X109527011Y-95235794D01*
X109475500Y-95247000D01*
X105288429Y-95247000D01*
X105162761Y-95271997D01*
X105162755Y-95271999D01*
X105057808Y-95315470D01*
X105057807Y-95315470D01*
X105044376Y-95321033D01*
X104937826Y-95392226D01*
X104937825Y-95392227D01*
X102710331Y-97619723D01*
X100641873Y-99688181D01*
X100580550Y-99721666D01*
X100554192Y-99724500D01*
X91994808Y-99724500D01*
X91927769Y-99704815D01*
X91882014Y-99652011D01*
X91872070Y-99582853D01*
X91901095Y-99519297D01*
X91907127Y-99512819D01*
X92740697Y-98679249D01*
X95335626Y-96084318D01*
X95396947Y-96050835D01*
X95466639Y-96055819D01*
X95522572Y-96097691D01*
X95528298Y-96106029D01*
X95620179Y-96252256D01*
X95620184Y-96252262D01*
X95747738Y-96379816D01*
X95900478Y-96475789D01*
X96069628Y-96534977D01*
X96070745Y-96535368D01*
X96070750Y-96535369D01*
X96249996Y-96555565D01*
X96250000Y-96555565D01*
X96250004Y-96555565D01*
X96429249Y-96535369D01*
X96429252Y-96535368D01*
X96429255Y-96535368D01*
X96599522Y-96475789D01*
X96752262Y-96379816D01*
X96879816Y-96252262D01*
X96975789Y-96099522D01*
X97035368Y-95929255D01*
X97035368Y-95929253D01*
X97037068Y-95924396D01*
X97077790Y-95867620D01*
X97142742Y-95841872D01*
X97166711Y-95841991D01*
X97249991Y-95850500D01*
X98250008Y-95850499D01*
X98250016Y-95850498D01*
X98250019Y-95850498D01*
X98306302Y-95844748D01*
X98352797Y-95839999D01*
X98519334Y-95784814D01*
X98668656Y-95692712D01*
X98792712Y-95568656D01*
X98884814Y-95419334D01*
X98939999Y-95252797D01*
X98949892Y-95155953D01*
X98976288Y-95091263D01*
X99033468Y-95051112D01*
X99103279Y-95048248D01*
X99160931Y-95080876D01*
X99244724Y-95164669D01*
X99300267Y-95220212D01*
X99335332Y-95255277D01*
X99441866Y-95326461D01*
X99441875Y-95326466D01*
X99468692Y-95337574D01*
X99560256Y-95375501D01*
X99560260Y-95375501D01*
X99560261Y-95375502D01*
X99685928Y-95400500D01*
X99685931Y-95400500D01*
X101034362Y-95400500D01*
X101101401Y-95420185D01*
X101139899Y-95459401D01*
X101207288Y-95568656D01*
X101331344Y-95692712D01*
X101480666Y-95784814D01*
X101647203Y-95839999D01*
X101749991Y-95850500D01*
X101802521Y-95850499D01*
X101869559Y-95870182D01*
X101915314Y-95922986D01*
X101925259Y-95992144D01*
X101896235Y-96055700D01*
X101890202Y-96062180D01*
X100289639Y-97662743D01*
X100228316Y-97696228D01*
X100215842Y-97698282D01*
X100070749Y-97714630D01*
X100070745Y-97714631D01*
X99900476Y-97774211D01*
X99747737Y-97870184D01*
X99620184Y-97997737D01*
X99524211Y-98150476D01*
X99464631Y-98320745D01*
X99464630Y-98320750D01*
X99444435Y-98499996D01*
X99444435Y-98500003D01*
X99464630Y-98679249D01*
X99464631Y-98679254D01*
X99524211Y-98849523D01*
X99605043Y-98978166D01*
X99620184Y-99002262D01*
X99747738Y-99129816D01*
X99900478Y-99225789D01*
X99962502Y-99247492D01*
X100070745Y-99285368D01*
X100070750Y-99285369D01*
X100249996Y-99305565D01*
X100250000Y-99305565D01*
X100250004Y-99305565D01*
X100429249Y-99285369D01*
X100429252Y-99285368D01*
X100429255Y-99285368D01*
X100599522Y-99225789D01*
X100752262Y-99129816D01*
X100879816Y-99002262D01*
X100975789Y-98849522D01*
X101035368Y-98679255D01*
X101041425Y-98625502D01*
X101043275Y-98609077D01*
X101051716Y-98534155D01*
X101078782Y-98469743D01*
X101087245Y-98460369D01*
X108201313Y-91346304D01*
X108275565Y-91217696D01*
X108314001Y-91074252D01*
X108314001Y-90925747D01*
X108314001Y-90918152D01*
X108314000Y-90918134D01*
X108314000Y-75870291D01*
X108333685Y-75803252D01*
X108386489Y-75757497D01*
X108455647Y-75747553D01*
X108478955Y-75753250D01*
X108570737Y-75785366D01*
X108570743Y-75785367D01*
X108570745Y-75785368D01*
X108570746Y-75785368D01*
X108570750Y-75785369D01*
X108749996Y-75805565D01*
X108750000Y-75805565D01*
X108750004Y-75805565D01*
X108929249Y-75785369D01*
X108929252Y-75785368D01*
X108929255Y-75785368D01*
X109099522Y-75725789D01*
X109252262Y-75629816D01*
X109281759Y-75600319D01*
X109343082Y-75566834D01*
X109369440Y-75564000D01*
X112247410Y-75564000D01*
X112314449Y-75583685D01*
G37*
G04 #@! TD.AperFunction*
G04 #@! TA.AperFunction,Conductor*
G36*
X100542539Y-75508685D02*
G01*
X100588294Y-75561489D01*
X100599500Y-75613000D01*
X100599500Y-82545030D01*
X100579815Y-82612069D01*
X100527011Y-82657824D01*
X100457853Y-82667768D01*
X100436497Y-82662736D01*
X100352799Y-82635001D01*
X100352795Y-82635000D01*
X100250010Y-82624500D01*
X99249998Y-82624500D01*
X99249980Y-82624501D01*
X99147203Y-82635000D01*
X99147200Y-82635001D01*
X98980668Y-82690185D01*
X98980663Y-82690187D01*
X98831342Y-82782289D01*
X98804451Y-82809181D01*
X98743128Y-82842666D01*
X98716770Y-82845500D01*
X94016248Y-82845500D01*
X93872804Y-82883935D01*
X93872801Y-82883936D01*
X93744199Y-82958185D01*
X93744197Y-82958186D01*
X93639201Y-83063182D01*
X93577878Y-83096666D01*
X93551520Y-83099500D01*
X92052129Y-83099500D01*
X92052123Y-83099501D01*
X91992516Y-83105908D01*
X91857671Y-83156202D01*
X91857664Y-83156206D01*
X91742455Y-83242452D01*
X91742452Y-83242455D01*
X91656206Y-83357664D01*
X91656202Y-83357671D01*
X91605908Y-83492517D01*
X91599501Y-83552116D01*
X91599500Y-83552135D01*
X91599500Y-85447870D01*
X91599501Y-85447876D01*
X91605908Y-85507483D01*
X91656202Y-85642328D01*
X91656206Y-85642335D01*
X91742452Y-85757544D01*
X91742455Y-85757547D01*
X91857664Y-85843793D01*
X91857671Y-85843797D01*
X91899479Y-85859390D01*
X91992517Y-85894091D01*
X92052127Y-85900500D01*
X92312001Y-85900499D01*
X92379039Y-85920183D01*
X92424794Y-85972987D01*
X92436000Y-86024499D01*
X92436000Y-86465021D01*
X92416315Y-86532060D01*
X92399681Y-86552702D01*
X91525681Y-87426702D01*
X91464358Y-87460187D01*
X91394666Y-87455203D01*
X91338733Y-87413331D01*
X91314316Y-87347867D01*
X91314000Y-87339021D01*
X91314000Y-80459978D01*
X91333685Y-80392939D01*
X91350314Y-80372302D01*
X95955716Y-75766899D01*
X96017037Y-75733416D01*
X96086729Y-75738400D01*
X96142662Y-75780272D01*
X96160673Y-75824494D01*
X96163340Y-75823780D01*
X96165444Y-75831633D01*
X96225899Y-75977585D01*
X96322075Y-76102924D01*
X96447413Y-76199100D01*
X96593365Y-76259554D01*
X96593369Y-76259555D01*
X96710676Y-76274999D01*
X97187499Y-76274999D01*
X97187500Y-76274998D01*
X97187500Y-75749499D01*
X97207185Y-75682460D01*
X97259989Y-75636705D01*
X97311497Y-75625499D01*
X97463501Y-75625499D01*
X97530539Y-75645184D01*
X97576294Y-75697988D01*
X97587500Y-75749499D01*
X97587500Y-76274999D01*
X98064324Y-76274999D01*
X98181628Y-76259557D01*
X98181633Y-76259555D01*
X98327585Y-76199100D01*
X98452924Y-76102924D01*
X98549100Y-75977586D01*
X98609555Y-75831631D01*
X98617012Y-75775000D01*
X98399303Y-75775000D01*
X98332264Y-75755315D01*
X98286509Y-75702511D01*
X98276565Y-75633353D01*
X98305590Y-75569797D01*
X98323816Y-75552625D01*
X98373338Y-75514625D01*
X98438507Y-75489430D01*
X98448825Y-75489000D01*
X100475500Y-75489000D01*
X100542539Y-75508685D01*
G37*
G04 #@! TD.AperFunction*
G04 #@! TA.AperFunction,Conductor*
G36*
X95942460Y-73558685D02*
G01*
X95988215Y-73611489D01*
X95998159Y-73680647D01*
X95969134Y-73744203D01*
X95963102Y-73750681D01*
X89798688Y-79915094D01*
X89798686Y-79915096D01*
X89788277Y-79933127D01*
X89774318Y-79957305D01*
X89754073Y-79992369D01*
X89724433Y-80043706D01*
X89695826Y-80150476D01*
X89695826Y-80150477D01*
X89686000Y-80187147D01*
X89686000Y-83909134D01*
X89666315Y-83976173D01*
X89613511Y-84021928D01*
X89544353Y-84031872D01*
X89480797Y-84002847D01*
X89474319Y-83996815D01*
X87268271Y-81790767D01*
X87268269Y-81790764D01*
X87156194Y-81678689D01*
X87156192Y-81678687D01*
X87027586Y-81604436D01*
X87027585Y-81604435D01*
X86876662Y-81563996D01*
X86817002Y-81527631D01*
X86786473Y-81464784D01*
X86794768Y-81395408D01*
X86821072Y-81356543D01*
X94602297Y-73575319D01*
X94663620Y-73541834D01*
X94689978Y-73539000D01*
X95875421Y-73539000D01*
X95942460Y-73558685D01*
G37*
G04 #@! TD.AperFunction*
G04 #@! TA.AperFunction,Conductor*
G36*
X112354951Y-69408934D02*
G01*
X112411022Y-69450622D01*
X112435654Y-69516005D01*
X112436000Y-69525258D01*
X112436000Y-69574253D01*
X112458318Y-69657544D01*
X112458318Y-69657545D01*
X112474435Y-69717697D01*
X112474436Y-69717698D01*
X112489502Y-69743793D01*
X112548687Y-69846304D01*
X112548689Y-69846306D01*
X112660761Y-69958378D01*
X112660767Y-69958383D01*
X114251702Y-71549319D01*
X114285187Y-71610642D01*
X114280203Y-71680334D01*
X114238331Y-71736267D01*
X114172867Y-71760684D01*
X114164021Y-71761000D01*
X112275632Y-71761000D01*
X112208593Y-71741315D01*
X112162838Y-71688511D01*
X112152894Y-71619353D01*
X112157926Y-71597996D01*
X112189505Y-71502697D01*
X112189506Y-71502690D01*
X112199999Y-71399986D01*
X112200000Y-71399973D01*
X112200000Y-71250000D01*
X109800001Y-71250000D01*
X109800001Y-71399986D01*
X109810494Y-71502697D01*
X109842073Y-71597996D01*
X109844475Y-71667824D01*
X109808743Y-71727866D01*
X109746223Y-71759059D01*
X109724367Y-71761000D01*
X106664914Y-71761000D01*
X106597875Y-71741315D01*
X106552120Y-71688511D01*
X106541694Y-71623117D01*
X106555565Y-71500003D01*
X106555565Y-71499996D01*
X106535369Y-71320750D01*
X106535368Y-71320745D01*
X106509635Y-71247204D01*
X106475789Y-71150478D01*
X106475788Y-71150477D01*
X106475787Y-71150473D01*
X106462277Y-71128972D01*
X106443276Y-71061736D01*
X106463643Y-70994901D01*
X106516911Y-70949686D01*
X106567270Y-70939000D01*
X109699251Y-70939000D01*
X109699253Y-70939000D01*
X109842696Y-70900565D01*
X109853727Y-70894196D01*
X109971304Y-70826313D01*
X110011298Y-70786319D01*
X110072621Y-70752834D01*
X110098979Y-70750000D01*
X112199999Y-70750000D01*
X112199999Y-70600028D01*
X112199998Y-70600013D01*
X112189505Y-70497302D01*
X112134358Y-70330880D01*
X112134356Y-70330875D01*
X112042315Y-70181654D01*
X111948695Y-70088034D01*
X111915210Y-70026711D01*
X111920194Y-69957019D01*
X111948691Y-69912676D01*
X112042712Y-69818656D01*
X112134814Y-69669334D01*
X112189999Y-69502797D01*
X112189999Y-69502791D01*
X112190748Y-69499298D01*
X112191803Y-69497349D01*
X112192128Y-69496371D01*
X112192302Y-69496428D01*
X112224031Y-69437866D01*
X112285244Y-69404179D01*
X112354951Y-69408934D01*
G37*
G04 #@! TD.AperFunction*
G04 #@! TA.AperFunction,Conductor*
G36*
X114842540Y-61583685D02*
G01*
X114888295Y-61636489D01*
X114899501Y-61688000D01*
X114899501Y-61897876D01*
X114905908Y-61957483D01*
X114956202Y-62092328D01*
X114956206Y-62092335D01*
X115042452Y-62207544D01*
X115042455Y-62207547D01*
X115157664Y-62293793D01*
X115157671Y-62293797D01*
X115292517Y-62344091D01*
X115292516Y-62344091D01*
X115299444Y-62344835D01*
X115352127Y-62350500D01*
X117147872Y-62350499D01*
X117207483Y-62344091D01*
X117342331Y-62293796D01*
X117457546Y-62207546D01*
X117543796Y-62092331D01*
X117594091Y-61957483D01*
X117600500Y-61897873D01*
X117600500Y-61688000D01*
X117620185Y-61620961D01*
X117672989Y-61575206D01*
X117724500Y-61564000D01*
X117765022Y-61564000D01*
X117832061Y-61583685D01*
X117852703Y-61600319D01*
X124063181Y-67810797D01*
X124096666Y-67872120D01*
X124099500Y-67898478D01*
X124099500Y-68650001D01*
X124099501Y-68650019D01*
X124110000Y-68752796D01*
X124110001Y-68752799D01*
X124152091Y-68879815D01*
X124165186Y-68919334D01*
X124257288Y-69068656D01*
X124381344Y-69192712D01*
X124530666Y-69284814D01*
X124697203Y-69339999D01*
X124799991Y-69350500D01*
X125800008Y-69350499D01*
X125800016Y-69350498D01*
X125800019Y-69350498D01*
X125856302Y-69344748D01*
X125902797Y-69339999D01*
X126069334Y-69284814D01*
X126218656Y-69192712D01*
X126342712Y-69068656D01*
X126434814Y-68919334D01*
X126489999Y-68752797D01*
X126500500Y-68650009D01*
X126500499Y-67849992D01*
X126500232Y-67847382D01*
X126489999Y-67747203D01*
X126489998Y-67747200D01*
X126461871Y-67662319D01*
X126434814Y-67580666D01*
X126342712Y-67431344D01*
X126249049Y-67337681D01*
X126215564Y-67276358D01*
X126220548Y-67206666D01*
X126249049Y-67162319D01*
X126286388Y-67124980D01*
X126342712Y-67068656D01*
X126410099Y-66959402D01*
X126462047Y-66912679D01*
X126515638Y-66900500D01*
X127034362Y-66900500D01*
X127101401Y-66920185D01*
X127139899Y-66959401D01*
X127202440Y-67060796D01*
X127207289Y-67068657D01*
X127300951Y-67162319D01*
X127334436Y-67223642D01*
X127329452Y-67293334D01*
X127300951Y-67337681D01*
X127207289Y-67431342D01*
X127115187Y-67580663D01*
X127115185Y-67580668D01*
X127091510Y-67652116D01*
X127060001Y-67747203D01*
X127060001Y-67747204D01*
X127060000Y-67747204D01*
X127049500Y-67849983D01*
X127049500Y-68650001D01*
X127049501Y-68650019D01*
X127060000Y-68752796D01*
X127060001Y-68752799D01*
X127070684Y-68785037D01*
X127073086Y-68854865D01*
X127040659Y-68911722D01*
X126039637Y-69912744D01*
X125978314Y-69946229D01*
X125965840Y-69948283D01*
X125820749Y-69964630D01*
X125820745Y-69964631D01*
X125650476Y-70024211D01*
X125497737Y-70120184D01*
X125370184Y-70247737D01*
X125274210Y-70400478D01*
X125214629Y-70570753D01*
X125213080Y-70577541D01*
X125210663Y-70576989D01*
X125188066Y-70630785D01*
X125130477Y-70670348D01*
X125091903Y-70676500D01*
X115025479Y-70676500D01*
X114958440Y-70656815D01*
X114937798Y-70640181D01*
X113600319Y-69302702D01*
X113566834Y-69241379D01*
X113564000Y-69215021D01*
X113564000Y-68584255D01*
X113564001Y-68584242D01*
X113564001Y-68425750D01*
X113564001Y-68425748D01*
X113525565Y-68282304D01*
X113505299Y-68247203D01*
X113451315Y-68153699D01*
X113451310Y-68153693D01*
X113319298Y-68021681D01*
X113285813Y-67960358D01*
X113290797Y-67890666D01*
X113332669Y-67834733D01*
X113398133Y-67810316D01*
X113406979Y-67810000D01*
X115961022Y-67810000D01*
X116028061Y-67829685D01*
X116048703Y-67846319D01*
X117412744Y-69210360D01*
X117446229Y-69271683D01*
X117448283Y-69284158D01*
X117464630Y-69429249D01*
X117464631Y-69429254D01*
X117524211Y-69599523D01*
X117582766Y-69692712D01*
X117620184Y-69752262D01*
X117747738Y-69879816D01*
X117800141Y-69912743D01*
X117896018Y-69972987D01*
X117900478Y-69975789D01*
X117990294Y-70007217D01*
X118070745Y-70035368D01*
X118070750Y-70035369D01*
X118249996Y-70055565D01*
X118250000Y-70055565D01*
X118250004Y-70055565D01*
X118429249Y-70035369D01*
X118429252Y-70035368D01*
X118429255Y-70035368D01*
X118599522Y-69975789D01*
X118752262Y-69879816D01*
X118879816Y-69752262D01*
X118975789Y-69599522D01*
X119035368Y-69429255D01*
X119035369Y-69429249D01*
X119055565Y-69250003D01*
X119055565Y-69249996D01*
X119035369Y-69070750D01*
X119035368Y-69070745D01*
X119014337Y-69010642D01*
X118975789Y-68900478D01*
X118975174Y-68899500D01*
X118928723Y-68825573D01*
X118879816Y-68747738D01*
X118752262Y-68620184D01*
X118720125Y-68599991D01*
X118599523Y-68524211D01*
X118429254Y-68464631D01*
X118429249Y-68464630D01*
X118284158Y-68448283D01*
X118219744Y-68421217D01*
X118210360Y-68412744D01*
X116704383Y-66906767D01*
X116704381Y-66906764D01*
X116592306Y-66794689D01*
X116592304Y-66794687D01*
X116463698Y-66720436D01*
X116463697Y-66720435D01*
X116437401Y-66713389D01*
X116411107Y-66706344D01*
X116411106Y-66706343D01*
X116344596Y-66688522D01*
X116320253Y-66682000D01*
X116320252Y-66682000D01*
X103564977Y-66682000D01*
X103497938Y-66662315D01*
X103452183Y-66609511D01*
X103442239Y-66540353D01*
X103471264Y-66476797D01*
X103477296Y-66470319D01*
X103847296Y-66100319D01*
X103908619Y-66066834D01*
X103934977Y-66064000D01*
X114130560Y-66064000D01*
X114197599Y-66083685D01*
X114218241Y-66100319D01*
X114247738Y-66129816D01*
X114400478Y-66225789D01*
X114570745Y-66285368D01*
X114570750Y-66285369D01*
X114749996Y-66305565D01*
X114750000Y-66305565D01*
X114750004Y-66305565D01*
X114929249Y-66285369D01*
X114929252Y-66285368D01*
X114929255Y-66285368D01*
X115099522Y-66225789D01*
X115252262Y-66129816D01*
X115379816Y-66002262D01*
X115475789Y-65849522D01*
X115535368Y-65679255D01*
X115535504Y-65678050D01*
X115555565Y-65500003D01*
X115555565Y-65499996D01*
X115535369Y-65320750D01*
X115535368Y-65320745D01*
X115511592Y-65252797D01*
X115475789Y-65150478D01*
X115475494Y-65150009D01*
X115405217Y-65038164D01*
X115379816Y-64997738D01*
X115252262Y-64870184D01*
X115239710Y-64862297D01*
X115099523Y-64774211D01*
X114929254Y-64714631D01*
X114929249Y-64714630D01*
X114750004Y-64694435D01*
X114749996Y-64694435D01*
X114570750Y-64714630D01*
X114570745Y-64714631D01*
X114400476Y-64774211D01*
X114247737Y-64870184D01*
X114218241Y-64899681D01*
X114156918Y-64933166D01*
X114130560Y-64936000D01*
X103575746Y-64936000D01*
X103483500Y-64960716D01*
X103483500Y-64960717D01*
X103466434Y-64965289D01*
X103432301Y-64974435D01*
X103432300Y-64974436D01*
X103303698Y-65048685D01*
X103303692Y-65048689D01*
X99275681Y-69076701D01*
X99214358Y-69110186D01*
X99144666Y-69105202D01*
X99088733Y-69063330D01*
X99064316Y-68997866D01*
X99064000Y-68989020D01*
X99064000Y-63869440D01*
X99083685Y-63802401D01*
X99100319Y-63781759D01*
X99112355Y-63769723D01*
X99129816Y-63752262D01*
X99225789Y-63599522D01*
X99285368Y-63429255D01*
X99286012Y-63423538D01*
X99305565Y-63250003D01*
X99305565Y-63249996D01*
X99285369Y-63070750D01*
X99285368Y-63070745D01*
X99225788Y-62900476D01*
X99178563Y-62825318D01*
X99129816Y-62747738D01*
X99002262Y-62620184D01*
X98970154Y-62600009D01*
X98849523Y-62524211D01*
X98679254Y-62464631D01*
X98679249Y-62464630D01*
X98500004Y-62444435D01*
X98499996Y-62444435D01*
X98320750Y-62464630D01*
X98320745Y-62464631D01*
X98150476Y-62524211D01*
X98141469Y-62529871D01*
X98074232Y-62548869D01*
X98007397Y-62528499D01*
X97962185Y-62475230D01*
X97951500Y-62424875D01*
X97951500Y-62379205D01*
X97968112Y-62317206D01*
X98025565Y-62217696D01*
X98037264Y-62174035D01*
X98064000Y-62074253D01*
X98064000Y-61925747D01*
X98064000Y-61784978D01*
X98083685Y-61717939D01*
X98100319Y-61697297D01*
X98197297Y-61600319D01*
X98258620Y-61566834D01*
X98284978Y-61564000D01*
X114775501Y-61564000D01*
X114842540Y-61583685D01*
G37*
G04 #@! TD.AperFunction*
M02*
