M48
; DRILL file {KiCad 8.0.5} date 2024-11-10T14:52:17+0900
; FORMAT={-:-/ absolute / metric / decimal}
; #@! TF.CreationDate,2024-11-10T14:52:17+09:00
; #@! TF.GenerationSoftware,Kicad,Pcbnew,8.0.5
; #@! TF.FileFunction,Plated,1,4,PTH
FMAT,2
METRIC
; #@! TA.AperFunction,Plated,PTH,ViaDrill
T1C0.300
; #@! TA.AperFunction,Plated,PTH,ComponentDrill
T2C0.800
; #@! TA.AperFunction,Plated,PTH,ComponentDrill
T3C0.900
; #@! TA.AperFunction,Plated,PTH,ComponentDrill
T4C1.000
%
G90
G05
T1
X64.25Y-94.75
X64.25Y-99.75
X66.0Y-89.75
X66.0Y-113.5
X68.75Y-65.5
X68.75Y-70.75
X69.0Y-63.0
X74.75Y-115.0
X75.25Y-118.75
X76.75Y-72.0
X77.0Y-115.0
X77.25Y-68.0
X84.5Y-108.75
X84.5Y-112.5
X87.0Y-75.5
X92.5Y-95.0
X94.25Y-75.5
X95.0Y-90.0
X95.5Y-104.25
X96.25Y-77.25
X96.25Y-95.75
X98.5Y-63.25
X99.0Y-75.5
X100.0Y-73.0
X100.25Y-98.5
X101.25Y-90.5
X103.112Y-72.975
X105.0Y-71.75
X105.75Y-71.5
X105.75Y-77.25
X105.75Y-88.75
X106.0Y-69.75
X106.75Y-66.25
X107.25Y-80.5
X107.75Y-75.0
X108.75Y-75.0
X109.0Y-78.25
X113.0Y-71.25
X114.75Y-65.5
X118.25Y-66.5
X118.25Y-69.25
X120.75Y-89.5
X122.5Y-63.75
X123.25Y-71.75
X126.0Y-63.5
X126.0Y-70.75
X127.25Y-64.75
X127.25Y-71.75
X127.75Y-75.5
X128.75Y-73.25
X129.0Y-64.25
X129.0Y-70.75
X129.25Y-121.25
X129.5Y-116.25
X130.5Y-90.75
X131.0Y-72.25
X132.75Y-105.0
X134.5Y-113.0
X135.0Y-76.5
X135.5Y-69.75
X135.5Y-121.25
X136.75Y-100.75
X137.25Y-107.0
T2
X72.0Y-101.483
X72.0Y-109.102
X73.0Y-68.5
X73.0Y-76.12
X77.0Y-117.38
X77.0Y-125.0
X85.25Y-82.13
X85.25Y-89.75
X100.25Y-113.38
X100.25Y-121.0
X119.5Y-93.88
X119.5Y-101.5
X137.25Y-108.983
X137.25Y-116.602
X140.75Y-75.0
X140.75Y-82.62
T3
X68.96Y-118.75
X71.5Y-118.75
X75.21Y-95.25
X75.735Y-63.5
X77.75Y-95.25
X78.275Y-63.5
X93.0Y-84.5
X95.54Y-84.5
X102.96Y-107.13
X105.5Y-107.13
X112.5Y-88.147
X115.04Y-88.147
X131.21Y-123.5
X133.75Y-123.5
X138.475Y-68.5
X141.015Y-68.5
T4
X116.25Y-61.0
X123.67Y-61.0
X126.21Y-61.0
X128.75Y-61.0
X131.29Y-61.0
M30
