G04 #@! TF.GenerationSoftware,KiCad,Pcbnew,8.0.5*
G04 #@! TF.CreationDate,2024-11-10T14:51:54+09:00*
G04 #@! TF.ProjectId,house_controller_multiplex_breakout_board,686f7573-655f-4636-9f6e-74726f6c6c65,rev?*
G04 #@! TF.SameCoordinates,Original*
G04 #@! TF.FileFunction,Legend,Bot*
G04 #@! TF.FilePolarity,Positive*
%FSLAX46Y46*%
G04 Gerber Fmt 4.6, Leading zero omitted, Abs format (unit mm)*
G04 Created by KiCad (PCBNEW 8.0.5) date 2024-11-10 14:51:54*
%MOMM*%
%LPD*%
G01*
G04 APERTURE LIST*
%ADD10R,1.600000X1.600000*%
%ADD11O,1.600000X1.600000*%
%ADD12R,1.800000X1.800000*%
%ADD13C,1.800000*%
%ADD14R,1.700000X1.700000*%
%ADD15O,1.700000X1.700000*%
%ADD16C,2.500000*%
G04 APERTURE END LIST*
%LPC*%
D10*
X140750000Y-75000000D03*
D11*
X140750000Y-82620000D03*
D10*
X77000000Y-117380000D03*
D11*
X77000000Y-125000000D03*
D12*
X75210000Y-95250000D03*
D13*
X77750000Y-95250000D03*
D14*
X131290000Y-61000000D03*
D15*
X128750000Y-61000000D03*
X126210000Y-61000000D03*
X123670000Y-61000000D03*
D10*
X137250000Y-108982500D03*
D11*
X137250000Y-116602500D03*
D12*
X68960000Y-118750000D03*
D13*
X71500000Y-118750000D03*
D10*
X85250000Y-82130000D03*
D11*
X85250000Y-89750000D03*
D16*
X144000000Y-61000000D03*
D12*
X102960000Y-107130000D03*
D13*
X105500000Y-107130000D03*
D10*
X72000000Y-101482500D03*
D11*
X72000000Y-109102500D03*
D16*
X65000000Y-124000000D03*
X144000000Y-124000000D03*
D12*
X112500000Y-88147500D03*
D13*
X115040000Y-88147500D03*
D12*
X93000000Y-84500000D03*
D13*
X95540000Y-84500000D03*
D10*
X119500000Y-93880000D03*
D11*
X119500000Y-101500000D03*
D12*
X78275000Y-63500000D03*
D13*
X75735000Y-63500000D03*
D16*
X65250000Y-61250000D03*
D14*
X116250000Y-61000000D03*
D12*
X131210000Y-123500000D03*
D13*
X133750000Y-123500000D03*
D12*
X138475000Y-68500000D03*
D13*
X141015000Y-68500000D03*
D10*
X100250000Y-113380000D03*
D11*
X100250000Y-121000000D03*
D10*
X73000000Y-68500000D03*
D11*
X73000000Y-76120000D03*
%LPD*%
M02*
