G04 #@! TF.GenerationSoftware,KiCad,Pcbnew,8.0.8*
G04 #@! TF.CreationDate,2025-01-20T22:43:21+09:00*
G04 #@! TF.ProjectId,esp32_primary_board_v0.3.0,65737033-325f-4707-9269-6d6172795f62,rev?*
G04 #@! TF.SameCoordinates,Original*
G04 #@! TF.FileFunction,Paste,Top*
G04 #@! TF.FilePolarity,Positive*
%FSLAX46Y46*%
G04 Gerber Fmt 4.6, Leading zero omitted, Abs format (unit mm)*
G04 Created by KiCad (PCBNEW 8.0.8) date 2025-01-20 22:43:21*
%MOMM*%
%LPD*%
G01*
G04 APERTURE LIST*
G04 Aperture macros list*
%AMRoundRect*
0 Rectangle with rounded corners*
0 $1 Rounding radius*
0 $2 $3 $4 $5 $6 $7 $8 $9 X,Y pos of 4 corners*
0 Add a 4 corners polygon primitive as box body*
4,1,4,$2,$3,$4,$5,$6,$7,$8,$9,$2,$3,0*
0 Add four circle primitives for the rounded corners*
1,1,$1+$1,$2,$3*
1,1,$1+$1,$4,$5*
1,1,$1+$1,$6,$7*
1,1,$1+$1,$8,$9*
0 Add four rect primitives between the rounded corners*
20,1,$1+$1,$2,$3,$4,$5,0*
20,1,$1+$1,$4,$5,$6,$7,0*
20,1,$1+$1,$6,$7,$8,$9,0*
20,1,$1+$1,$8,$9,$2,$3,0*%
G04 Aperture macros list end*
%ADD10C,0.010000*%
%ADD11RoundRect,0.250000X0.450000X-0.350000X0.450000X0.350000X-0.450000X0.350000X-0.450000X-0.350000X0*%
%ADD12RoundRect,0.250000X0.325000X0.450000X-0.325000X0.450000X-0.325000X-0.450000X0.325000X-0.450000X0*%
%ADD13RoundRect,0.250000X0.450000X-0.325000X0.450000X0.325000X-0.450000X0.325000X-0.450000X-0.325000X0*%
%ADD14RoundRect,0.050000X-0.150000X0.380000X-0.150000X-0.380000X0.150000X-0.380000X0.150000X0.380000X0*%
%ADD15RoundRect,0.250000X0.350000X0.450000X-0.350000X0.450000X-0.350000X-0.450000X0.350000X-0.450000X0*%
%ADD16R,1.050000X0.650000*%
%ADD17RoundRect,0.250000X-0.350000X-0.450000X0.350000X-0.450000X0.350000X0.450000X-0.350000X0.450000X0*%
%ADD18RoundRect,0.250000X-0.337500X-0.475000X0.337500X-0.475000X0.337500X0.475000X-0.337500X0.475000X0*%
%ADD19R,0.650000X1.050000*%
%ADD20R,0.900000X0.900000*%
%ADD21R,1.500000X0.900000*%
%ADD22R,0.900000X1.500000*%
%ADD23RoundRect,0.150000X0.512500X0.150000X-0.512500X0.150000X-0.512500X-0.150000X0.512500X-0.150000X0*%
G04 APERTURE END LIST*
D10*
X129200000Y-131695000D02*
X127700000Y-131695000D01*
X127700000Y-130675000D01*
X129200000Y-130675000D01*
X129200000Y-131695000D01*
G36*
X129200000Y-131695000D02*
G01*
X127700000Y-131695000D01*
X127700000Y-130675000D01*
X129200000Y-130675000D01*
X129200000Y-131695000D01*
G37*
D11*
X136500000Y-126000000D03*
X136500000Y-124000000D03*
X117750000Y-126250000D03*
X117750000Y-124250000D03*
D12*
X125725000Y-140300000D03*
X123675000Y-140300000D03*
D13*
X143750000Y-129275000D03*
X143750000Y-127225000D03*
D14*
X129400000Y-129750000D03*
X128450000Y-129750000D03*
X127500000Y-129750000D03*
X127500000Y-132620000D03*
X128450000Y-132620000D03*
X129400000Y-132620000D03*
D15*
X155700000Y-105500000D03*
X153700000Y-105500000D03*
X127500000Y-120000000D03*
X125500000Y-120000000D03*
D16*
X120825000Y-119825000D03*
X116675000Y-119825000D03*
X120825000Y-117675000D03*
X116675000Y-117675000D03*
D17*
X125500000Y-123500000D03*
X127500000Y-123500000D03*
D12*
X131225000Y-140300000D03*
X129175000Y-140300000D03*
D18*
X125712500Y-107000000D03*
X127787500Y-107000000D03*
X130462500Y-123500000D03*
X132537500Y-123500000D03*
D11*
X121250000Y-126250000D03*
X121250000Y-124250000D03*
D18*
X153425000Y-116250000D03*
X155500000Y-116250000D03*
X116712500Y-112750000D03*
X118787500Y-112750000D03*
X125712500Y-103250000D03*
X127787500Y-103250000D03*
D19*
X155750000Y-108750000D03*
X155750000Y-112900000D03*
X153600000Y-108750000D03*
X153600000Y-112900000D03*
D15*
X143250000Y-123750000D03*
X141250000Y-123750000D03*
D20*
X137850000Y-107960000D03*
X137850000Y-109360000D03*
X137850000Y-110760000D03*
X139250000Y-107960000D03*
X139250000Y-109360000D03*
X139250000Y-110760000D03*
X140650000Y-107960000D03*
X140650000Y-109360000D03*
X140650000Y-110760000D03*
D21*
X132000000Y-101640000D03*
X132000000Y-102910000D03*
X132000000Y-104180000D03*
X132000000Y-105450000D03*
X132000000Y-106720000D03*
X132000000Y-107990000D03*
X132000000Y-109260000D03*
X132000000Y-110530000D03*
X132000000Y-111800000D03*
X132000000Y-113070000D03*
X132000000Y-114340000D03*
X132000000Y-115610000D03*
X132000000Y-116880000D03*
X132000000Y-118150000D03*
D22*
X133765000Y-119400000D03*
X135035000Y-119400000D03*
X136305000Y-119400000D03*
X137575000Y-119400000D03*
X138845000Y-119400000D03*
X140115000Y-119400000D03*
X141385000Y-119400000D03*
X142655000Y-119400000D03*
X143925000Y-119400000D03*
X145195000Y-119400000D03*
X146465000Y-119400000D03*
X147735000Y-119400000D03*
D21*
X149500000Y-118150000D03*
X149500000Y-116880000D03*
X149500000Y-115610000D03*
X149500000Y-114340000D03*
X149500000Y-113070000D03*
X149500000Y-111800000D03*
X149500000Y-110530000D03*
X149500000Y-109260000D03*
X149500000Y-107990000D03*
X149500000Y-106720000D03*
X149500000Y-105450000D03*
X149500000Y-104180000D03*
X149500000Y-102910000D03*
X149500000Y-101640000D03*
D15*
X160600000Y-105500000D03*
X158600000Y-105500000D03*
D23*
X137025000Y-131650000D03*
X137025000Y-130700000D03*
X137025000Y-129750000D03*
X134750000Y-129750000D03*
X134750000Y-130700000D03*
X134750000Y-131650000D03*
D11*
X121600000Y-133500000D03*
X121600000Y-131500000D03*
X117350000Y-133500000D03*
X117350000Y-131500000D03*
D15*
X118750000Y-109000000D03*
X116750000Y-109000000D03*
M02*
