G04 #@! TF.GenerationSoftware,KiCad,Pcbnew,8.0.8*
G04 #@! TF.CreationDate,2025-01-20T22:43:21+09:00*
G04 #@! TF.ProjectId,esp32_primary_board_v0.3.0,65737033-325f-4707-9269-6d6172795f62,rev?*
G04 #@! TF.SameCoordinates,Original*
G04 #@! TF.FileFunction,Copper,L1,Top*
G04 #@! TF.FilePolarity,Positive*
%FSLAX46Y46*%
G04 Gerber Fmt 4.6, Leading zero omitted, Abs format (unit mm)*
G04 Created by KiCad (PCBNEW 8.0.8) date 2025-01-20 22:43:21*
%MOMM*%
%LPD*%
G01*
G04 APERTURE LIST*
G04 Aperture macros list*
%AMRoundRect*
0 Rectangle with rounded corners*
0 $1 Rounding radius*
0 $2 $3 $4 $5 $6 $7 $8 $9 X,Y pos of 4 corners*
0 Add a 4 corners polygon primitive as box body*
4,1,4,$2,$3,$4,$5,$6,$7,$8,$9,$2,$3,0*
0 Add four circle primitives for the rounded corners*
1,1,$1+$1,$2,$3*
1,1,$1+$1,$4,$5*
1,1,$1+$1,$6,$7*
1,1,$1+$1,$8,$9*
0 Add four rect primitives between the rounded corners*
20,1,$1+$1,$2,$3,$4,$5,0*
20,1,$1+$1,$4,$5,$6,$7,0*
20,1,$1+$1,$6,$7,$8,$9,0*
20,1,$1+$1,$8,$9,$2,$3,0*%
G04 Aperture macros list end*
G04 #@! TA.AperFunction,SMDPad,CuDef*
%ADD10RoundRect,0.250000X0.450000X-0.350000X0.450000X0.350000X-0.450000X0.350000X-0.450000X-0.350000X0*%
G04 #@! TD*
G04 #@! TA.AperFunction,SMDPad,CuDef*
%ADD11RoundRect,0.250000X0.325000X0.450000X-0.325000X0.450000X-0.325000X-0.450000X0.325000X-0.450000X0*%
G04 #@! TD*
G04 #@! TA.AperFunction,SMDPad,CuDef*
%ADD12RoundRect,0.250000X0.450000X-0.325000X0.450000X0.325000X-0.450000X0.325000X-0.450000X-0.325000X0*%
G04 #@! TD*
G04 #@! TA.AperFunction,SMDPad,CuDef*
%ADD13RoundRect,0.050000X-0.150000X0.380000X-0.150000X-0.380000X0.150000X-0.380000X0.150000X0.380000X0*%
G04 #@! TD*
G04 #@! TA.AperFunction,SMDPad,CuDef*
%ADD14R,2.370000X1.630000*%
G04 #@! TD*
G04 #@! TA.AperFunction,SMDPad,CuDef*
%ADD15RoundRect,0.250000X0.350000X0.450000X-0.350000X0.450000X-0.350000X-0.450000X0.350000X-0.450000X0*%
G04 #@! TD*
G04 #@! TA.AperFunction,SMDPad,CuDef*
%ADD16R,1.050000X0.650000*%
G04 #@! TD*
G04 #@! TA.AperFunction,ComponentPad*
%ADD17RoundRect,0.250000X-0.350000X-0.512000X0.350000X-0.512000X0.350000X0.512000X-0.350000X0.512000X0*%
G04 #@! TD*
G04 #@! TA.AperFunction,ComponentPad*
%ADD18O,1.200000X1.750000*%
G04 #@! TD*
G04 #@! TA.AperFunction,SMDPad,CuDef*
%ADD19RoundRect,0.250000X-0.350000X-0.450000X0.350000X-0.450000X0.350000X0.450000X-0.350000X0.450000X0*%
G04 #@! TD*
G04 #@! TA.AperFunction,SMDPad,CuDef*
%ADD20RoundRect,0.250000X-0.337500X-0.475000X0.337500X-0.475000X0.337500X0.475000X-0.337500X0.475000X0*%
G04 #@! TD*
G04 #@! TA.AperFunction,ComponentPad*
%ADD21C,0.650000*%
G04 #@! TD*
G04 #@! TA.AperFunction,ComponentPad*
%ADD22O,0.900000X1.700000*%
G04 #@! TD*
G04 #@! TA.AperFunction,ComponentPad*
%ADD23O,0.900000X2.400000*%
G04 #@! TD*
G04 #@! TA.AperFunction,SMDPad,CuDef*
%ADD24R,0.650000X1.050000*%
G04 #@! TD*
G04 #@! TA.AperFunction,SMDPad,CuDef*
%ADD25R,1.500000X0.900000*%
G04 #@! TD*
G04 #@! TA.AperFunction,SMDPad,CuDef*
%ADD26R,0.900000X1.500000*%
G04 #@! TD*
G04 #@! TA.AperFunction,HeatsinkPad*
%ADD27C,0.600000*%
G04 #@! TD*
G04 #@! TA.AperFunction,SMDPad,CuDef*
%ADD28R,3.900000X3.900000*%
G04 #@! TD*
G04 #@! TA.AperFunction,SMDPad,CuDef*
%ADD29RoundRect,0.150000X0.512500X0.150000X-0.512500X0.150000X-0.512500X-0.150000X0.512500X-0.150000X0*%
G04 #@! TD*
G04 #@! TA.AperFunction,ViaPad*
%ADD30C,0.600000*%
G04 #@! TD*
G04 #@! TA.AperFunction,Conductor*
%ADD31C,0.250000*%
G04 #@! TD*
G04 #@! TA.AperFunction,Conductor*
%ADD32C,0.127000*%
G04 #@! TD*
G04 #@! TA.AperFunction,Conductor*
%ADD33C,0.200000*%
G04 #@! TD*
G04 #@! TA.AperFunction,Conductor*
%ADD34C,0.152400*%
G04 #@! TD*
G04 APERTURE END LIST*
D10*
X136500000Y-126000000D03*
X136500000Y-124000000D03*
X117750000Y-126250000D03*
X117750000Y-124250000D03*
D11*
X125725000Y-140300000D03*
X123675000Y-140300000D03*
D12*
X143750000Y-129275000D03*
X143750000Y-127225000D03*
D13*
X129400000Y-129750000D03*
X128450000Y-129750000D03*
X127500000Y-129750000D03*
X127500000Y-132620000D03*
X128450000Y-132620000D03*
X129400000Y-132620000D03*
D14*
X128450000Y-131185000D03*
D15*
X155700000Y-105500000D03*
X153700000Y-105500000D03*
X127500000Y-120000000D03*
X125500000Y-120000000D03*
D16*
X120825000Y-119825000D03*
X116675000Y-119825000D03*
X120825000Y-117675000D03*
X116675000Y-117675000D03*
D17*
X149700000Y-133200000D03*
D18*
X151700000Y-133200000D03*
X153700000Y-133200000D03*
X155700000Y-133200000D03*
X157700000Y-133200000D03*
D19*
X125500000Y-123500000D03*
X127500000Y-123500000D03*
D11*
X131225000Y-140300000D03*
X129175000Y-140300000D03*
D20*
X125712500Y-107000000D03*
X127787500Y-107000000D03*
X130462500Y-123500000D03*
X132537500Y-123500000D03*
D10*
X121250000Y-126250000D03*
X121250000Y-124250000D03*
D20*
X153425000Y-116250000D03*
X155500000Y-116250000D03*
D21*
X136275000Y-135390000D03*
X137125000Y-135390000D03*
X137975000Y-135390000D03*
X138825000Y-135390000D03*
X139675000Y-135390000D03*
X140525000Y-135390000D03*
X141375000Y-135390000D03*
X142225000Y-135390000D03*
X142225000Y-136740000D03*
X141375000Y-136740000D03*
X140525000Y-136740000D03*
X139675000Y-136740000D03*
X138825000Y-136740000D03*
X137975000Y-136740000D03*
X137125000Y-136740000D03*
X136275000Y-136740000D03*
D22*
X134925000Y-139750000D03*
X143575000Y-139750000D03*
D23*
X134925000Y-136370000D03*
X143575000Y-136370000D03*
D20*
X116712500Y-112750000D03*
X118787500Y-112750000D03*
X125712500Y-103250000D03*
X127787500Y-103250000D03*
D24*
X155750000Y-108750000D03*
X155750000Y-112900000D03*
X153600000Y-108750000D03*
X153600000Y-112900000D03*
D15*
X143250000Y-123750000D03*
X141250000Y-123750000D03*
D25*
X132000000Y-101640000D03*
X132000000Y-102910000D03*
X132000000Y-104180000D03*
X132000000Y-105450000D03*
X132000000Y-106720000D03*
X132000000Y-107990000D03*
X132000000Y-109260000D03*
X132000000Y-110530000D03*
X132000000Y-111800000D03*
X132000000Y-113070000D03*
X132000000Y-114340000D03*
X132000000Y-115610000D03*
X132000000Y-116880000D03*
X132000000Y-118150000D03*
D26*
X133765000Y-119400000D03*
X135035000Y-119400000D03*
X136305000Y-119400000D03*
X137575000Y-119400000D03*
X138845000Y-119400000D03*
X140115000Y-119400000D03*
X141385000Y-119400000D03*
X142655000Y-119400000D03*
X143925000Y-119400000D03*
X145195000Y-119400000D03*
X146465000Y-119400000D03*
X147735000Y-119400000D03*
D25*
X149500000Y-118150000D03*
X149500000Y-116880000D03*
X149500000Y-115610000D03*
X149500000Y-114340000D03*
X149500000Y-113070000D03*
X149500000Y-111800000D03*
X149500000Y-110530000D03*
X149500000Y-109260000D03*
X149500000Y-107990000D03*
X149500000Y-106720000D03*
X149500000Y-105450000D03*
X149500000Y-104180000D03*
X149500000Y-102910000D03*
X149500000Y-101640000D03*
D27*
X137850000Y-108660000D03*
X137850000Y-110060000D03*
X138550000Y-107960000D03*
X138550000Y-109360000D03*
X138550000Y-110760000D03*
X139250000Y-108660000D03*
D28*
X139250000Y-109360000D03*
D27*
X139250000Y-110060000D03*
X139950000Y-107960000D03*
X139950000Y-109360000D03*
X139950000Y-110760000D03*
X140650000Y-108660000D03*
X140650000Y-110060000D03*
D15*
X160600000Y-105500000D03*
X158600000Y-105500000D03*
D29*
X137025000Y-131650000D03*
X137025000Y-130700000D03*
X137025000Y-129750000D03*
X134750000Y-129750000D03*
X134750000Y-130700000D03*
X134750000Y-131650000D03*
D10*
X121600000Y-133500000D03*
X121600000Y-131500000D03*
X117350000Y-133500000D03*
X117350000Y-131500000D03*
D15*
X118750000Y-109000000D03*
X116750000Y-109000000D03*
D30*
X154500000Y-123000000D03*
X137750000Y-138000000D03*
X133500000Y-140300000D03*
X130200000Y-139700000D03*
X116200000Y-127600000D03*
X138500000Y-130500000D03*
X156300000Y-106900000D03*
X151750000Y-102000000D03*
X146800000Y-139300000D03*
X149750000Y-123250000D03*
X126250000Y-112250000D03*
X116250000Y-135000000D03*
X133500000Y-132500000D03*
X152400000Y-126800000D03*
X122000000Y-121750000D03*
X135000000Y-114000000D03*
X163500000Y-109000000D03*
X124000000Y-130750000D03*
X124750000Y-115250000D03*
X144000000Y-102750000D03*
X158100000Y-110400000D03*
X144250000Y-108750000D03*
X129250000Y-114500000D03*
X123000000Y-108250000D03*
X142250000Y-138500000D03*
X145500000Y-105500000D03*
X129000000Y-125250000D03*
X127100000Y-141100000D03*
X133250000Y-137750000D03*
X140500000Y-138000000D03*
X136000000Y-111800000D03*
X146400000Y-129300000D03*
X157000000Y-100800000D03*
X146250000Y-112750000D03*
X140250000Y-129750000D03*
X135750000Y-129250000D03*
X140250000Y-133750000D03*
X139000000Y-103000000D03*
X122750000Y-102250000D03*
X133250000Y-125500000D03*
X151500000Y-112900000D03*
X156400000Y-136000000D03*
X144000000Y-106250000D03*
X116000000Y-110750000D03*
X136000000Y-138250000D03*
X130500000Y-106000000D03*
X154500000Y-119500000D03*
X122000000Y-114500000D03*
X136250000Y-102500000D03*
X116000000Y-116000000D03*
X132000000Y-104180000D03*
X124500000Y-105000000D03*
X129250000Y-121250000D03*
X130750000Y-121500000D03*
X142500000Y-121500000D03*
X125500000Y-114000000D03*
X140500000Y-128000000D03*
X135250000Y-128500000D03*
X140183677Y-132566323D03*
X138500000Y-132000000D03*
X137051935Y-117448065D03*
X139677000Y-120780647D03*
X138823000Y-120780647D03*
X136448065Y-118051935D03*
X144200000Y-116000000D03*
X134500000Y-106200000D03*
X122200000Y-140300000D03*
X121700000Y-136900000D03*
X125200000Y-131800000D03*
X127800000Y-140100000D03*
X136500000Y-139750000D03*
X160600000Y-103900000D03*
X155700000Y-104000000D03*
D31*
X142225000Y-138475000D02*
X142250000Y-138500000D01*
X136275000Y-136740000D02*
X136275000Y-137975000D01*
X142225000Y-136740000D02*
X142225000Y-135390000D01*
X142225000Y-136740000D02*
X142225000Y-138475000D01*
X136275000Y-135390000D02*
X136275000Y-136740000D01*
X136275000Y-137975000D02*
X136000000Y-138250000D01*
D32*
X116712500Y-117637500D02*
X116675000Y-117675000D01*
X120750000Y-105000000D02*
X116750000Y-109000000D01*
X116712500Y-112750000D02*
X116712500Y-117637500D01*
X116675000Y-117675000D02*
X120825000Y-117675000D01*
X116750000Y-109000000D02*
X116750000Y-112712500D01*
X124500000Y-105000000D02*
X120750000Y-105000000D01*
X116750000Y-112712500D02*
X116712500Y-112750000D01*
D31*
X130462500Y-123500000D02*
X127500000Y-123500000D01*
X121500000Y-111750000D02*
X118750000Y-109000000D01*
X129400000Y-129750000D02*
X130462500Y-128687500D01*
X141250000Y-123750000D02*
X141250000Y-122750000D01*
X130462500Y-128687500D02*
X130462500Y-123500000D01*
X127500000Y-123500000D02*
X129250000Y-121750000D01*
X132000000Y-102910000D02*
X128127500Y-102910000D01*
X125500000Y-111750000D02*
X125500000Y-111250000D01*
X125500000Y-111750000D02*
X121500000Y-111750000D01*
X130462500Y-123500000D02*
X130462500Y-121787500D01*
X128127500Y-102910000D02*
X127787500Y-103250000D01*
X129250000Y-121750000D02*
X129250000Y-121250000D01*
X127787500Y-108962500D02*
X127787500Y-107000000D01*
X125500000Y-111250000D02*
X127787500Y-108962500D01*
X141250000Y-122750000D02*
X142500000Y-121500000D01*
X125500000Y-114000000D02*
X125500000Y-111750000D01*
X130462500Y-121787500D02*
X130750000Y-121500000D01*
X127787500Y-107000000D02*
X127787500Y-103250000D01*
X140500000Y-132102000D02*
X140500000Y-130571000D01*
X137125000Y-136740000D02*
X137125000Y-138625000D01*
X137125000Y-138625000D02*
X137250000Y-138750000D01*
X133250000Y-129750000D02*
X130380000Y-132620000D01*
X134750000Y-129750000D02*
X134750000Y-129000000D01*
X134750000Y-129000000D02*
X135250000Y-128500000D01*
X141250000Y-129821000D02*
X141250000Y-128750000D01*
X137250000Y-138750000D02*
X140750000Y-138750000D01*
X141375000Y-138125000D02*
X141375000Y-136740000D01*
X140500000Y-130571000D02*
X141250000Y-129821000D01*
X141375000Y-135390000D02*
X141375000Y-134625000D01*
X135362500Y-128612500D02*
X135250000Y-128500000D01*
X141250000Y-132852000D02*
X140500000Y-132102000D01*
X141250000Y-134500000D02*
X141250000Y-132852000D01*
X140750000Y-138750000D02*
X141375000Y-138125000D01*
X129400000Y-132620000D02*
X128450000Y-132620000D01*
X141375000Y-134625000D02*
X141250000Y-134500000D01*
X130380000Y-132620000D02*
X129400000Y-132620000D01*
X141250000Y-128750000D02*
X140500000Y-128000000D01*
X137125000Y-135390000D02*
X137125000Y-136740000D01*
X134750000Y-129750000D02*
X133250000Y-129750000D01*
X141375000Y-136740000D02*
X141375000Y-135390000D01*
D33*
X153425000Y-113325000D02*
X153425000Y-116250000D01*
X153600000Y-108750000D02*
X153600000Y-112900000D01*
X153425000Y-116250000D02*
X151525000Y-118150000D01*
X151525000Y-118150000D02*
X149500000Y-118150000D01*
X153600000Y-113150000D02*
X153425000Y-113325000D01*
X153600000Y-112900000D02*
X153600000Y-113150000D01*
D34*
X140183677Y-132566323D02*
X140117354Y-132500000D01*
X139675000Y-135890000D02*
X138825000Y-136740000D01*
X137051935Y-117448065D02*
X136735434Y-117448065D01*
X139453200Y-132500000D02*
X139453200Y-132000000D01*
X136589169Y-117301800D02*
X134156801Y-117301800D01*
X134156801Y-117301800D02*
X133725001Y-116870000D01*
X140117354Y-132500000D02*
X139453200Y-132500000D01*
X139453200Y-132000000D02*
X139453200Y-127250000D01*
X139453200Y-135168200D02*
X139453200Y-132500000D01*
X139453201Y-127249999D02*
X139453201Y-121004446D01*
X133725001Y-116870000D02*
X132600000Y-116870000D01*
X139675000Y-135390000D02*
X139453200Y-135168200D01*
X139453200Y-127250000D02*
X139453201Y-127249999D01*
X139675000Y-135390000D02*
X139675000Y-135890000D01*
X138150000Y-131650000D02*
X138500000Y-132000000D01*
X136735434Y-117448065D02*
X136589169Y-117301800D01*
X139453201Y-121004446D02*
X139677000Y-120780647D01*
X137025000Y-131650000D02*
X138150000Y-131650000D01*
X139046800Y-129500000D02*
X139046800Y-127250000D01*
X136420831Y-117708200D02*
X134156801Y-117708200D01*
X139046800Y-129750000D02*
X139046800Y-129500000D01*
X137025000Y-129750000D02*
X139046800Y-129750000D01*
X134156801Y-117708200D02*
X133725001Y-118140000D01*
X139046800Y-130000000D02*
X139046800Y-129750000D01*
X139046800Y-127250000D02*
X139046799Y-127249999D01*
X138825000Y-135390000D02*
X139046800Y-135168200D01*
X139046799Y-121004446D02*
X138823000Y-120780647D01*
X139046799Y-127249999D02*
X139046799Y-121004446D01*
X136448065Y-117735434D02*
X136420831Y-117708200D01*
X139046800Y-135168200D02*
X139046800Y-130000000D01*
X136448065Y-118051935D02*
X136448065Y-117735434D01*
X133725001Y-118140000D02*
X132600000Y-118140000D01*
D32*
X128450000Y-126450000D02*
X125500000Y-123500000D01*
X127500000Y-120000000D02*
X127500000Y-121500000D01*
X128450000Y-129750000D02*
X128450000Y-126450000D01*
X127500000Y-121500000D02*
X125500000Y-123500000D01*
D33*
X137027000Y-111277000D02*
X132470000Y-106720000D01*
X137027000Y-111491000D02*
X137027000Y-111277000D01*
X132470000Y-106720000D02*
X132000000Y-106720000D01*
X141536000Y-116000000D02*
X137027000Y-111491000D01*
X144200000Y-116000000D02*
X141536000Y-116000000D01*
X133750000Y-105450000D02*
X134500000Y-106200000D01*
X132000000Y-105450000D02*
X133750000Y-105450000D01*
D32*
X117750000Y-126250000D02*
X117750000Y-129050000D01*
X119700000Y-134900000D02*
X121700000Y-136900000D01*
X117750000Y-129050000D02*
X119700000Y-131000000D01*
X122200000Y-140300000D02*
X123675000Y-140300000D01*
X119700000Y-131000000D02*
X119700000Y-134900000D01*
X125200000Y-130200000D02*
X125200000Y-131800000D01*
X127800000Y-140100000D02*
X128000000Y-140300000D01*
X128000000Y-140300000D02*
X129175000Y-140300000D01*
X121250000Y-126250000D02*
X125200000Y-130200000D01*
D33*
X122000000Y-121000000D02*
X122000000Y-118500000D01*
X117750000Y-124250000D02*
X121000000Y-121000000D01*
X127000000Y-110750000D02*
X130000000Y-107750000D01*
X121000000Y-121000000D02*
X122000000Y-121000000D01*
X122000000Y-118500000D02*
X124723000Y-115777000D01*
X124968291Y-115777000D02*
X127000000Y-113745291D01*
X130240000Y-107990000D02*
X132000000Y-107990000D01*
X127000000Y-113745291D02*
X127000000Y-110750000D01*
X130000000Y-107750000D02*
X130240000Y-107990000D01*
X124723000Y-115777000D02*
X124968291Y-115777000D01*
X122750000Y-119000000D02*
X128000000Y-113750000D01*
X122750000Y-122750000D02*
X122750000Y-119000000D01*
X128000000Y-111250000D02*
X129990000Y-109260000D01*
X128000000Y-113750000D02*
X128000000Y-111250000D01*
X121250000Y-124250000D02*
X122750000Y-122750000D01*
X129990000Y-109260000D02*
X132000000Y-109260000D01*
X143750000Y-127225000D02*
X143750000Y-124250000D01*
X143750000Y-124250000D02*
X143250000Y-123750000D01*
D32*
X122559500Y-138709500D02*
X135459500Y-138709500D01*
X117350000Y-133500000D02*
X122559500Y-138709500D01*
X135459500Y-138709500D02*
X136500000Y-139750000D01*
D33*
X125300000Y-133500000D02*
X121600000Y-133500000D01*
X137975000Y-135390000D02*
X137423000Y-134838000D01*
X126600000Y-134800000D02*
X125300000Y-133500000D01*
X131338000Y-134838000D02*
X131300000Y-134800000D01*
X137423000Y-134838000D02*
X131338000Y-134838000D01*
X131300000Y-134800000D02*
X126600000Y-134800000D01*
D32*
X136500000Y-124000000D02*
X136500000Y-123500000D01*
X135035000Y-122035000D02*
X135035000Y-119400000D01*
X136500000Y-123500000D02*
X135035000Y-122035000D01*
X160600000Y-105500000D02*
X160600000Y-103900000D01*
X155700000Y-105500000D02*
X155700000Y-104000000D01*
D33*
X142655000Y-119700000D02*
X148155000Y-125200000D01*
X148155000Y-125200000D02*
X153800000Y-125200000D01*
X142655000Y-119400000D02*
X142655000Y-119700000D01*
X153800000Y-125200000D02*
X155700000Y-127100000D01*
X155700000Y-127100000D02*
X155700000Y-133200000D01*
D32*
X156500000Y-107600000D02*
X158600000Y-105500000D01*
X149770000Y-110530000D02*
X152700000Y-107600000D01*
X152700000Y-107600000D02*
X156500000Y-107600000D01*
X149500000Y-110530000D02*
X149770000Y-110530000D01*
X149500000Y-109260000D02*
X149940000Y-109260000D01*
X149940000Y-109260000D02*
X153700000Y-105500000D01*
G04 #@! TA.AperFunction,Conductor*
G36*
X115705703Y-118246389D02*
G01*
X115723762Y-118265786D01*
X115792454Y-118357546D01*
X115838643Y-118392123D01*
X115907664Y-118443793D01*
X115907671Y-118443797D01*
X116042517Y-118494091D01*
X116042516Y-118494091D01*
X116049444Y-118494835D01*
X116102127Y-118500500D01*
X117247872Y-118500499D01*
X117307483Y-118494091D01*
X117442331Y-118443796D01*
X117557546Y-118357546D01*
X117580501Y-118326882D01*
X117609093Y-118288689D01*
X117665026Y-118246818D01*
X117708359Y-118239000D01*
X119791641Y-118239000D01*
X119858680Y-118258685D01*
X119890907Y-118288689D01*
X119942452Y-118357544D01*
X119942455Y-118357547D01*
X120057664Y-118443793D01*
X120057671Y-118443797D01*
X120192517Y-118494091D01*
X120192516Y-118494091D01*
X120199444Y-118494835D01*
X120252127Y-118500500D01*
X121275500Y-118500499D01*
X121342539Y-118520183D01*
X121388294Y-118572987D01*
X121399500Y-118624499D01*
X121399500Y-118876000D01*
X121379815Y-118943039D01*
X121327011Y-118988794D01*
X121275500Y-119000000D01*
X121075000Y-119000000D01*
X121075000Y-119701000D01*
X121055315Y-119768039D01*
X121002511Y-119813794D01*
X120951000Y-119825000D01*
X120825000Y-119825000D01*
X120825000Y-119951000D01*
X120805315Y-120018039D01*
X120752511Y-120063794D01*
X120701000Y-120075000D01*
X119800000Y-120075000D01*
X119800000Y-120197844D01*
X119806401Y-120257372D01*
X119806403Y-120257379D01*
X119856645Y-120392086D01*
X119856649Y-120392093D01*
X119942809Y-120507187D01*
X119942812Y-120507190D01*
X120057906Y-120593350D01*
X120057913Y-120593354D01*
X120192620Y-120643596D01*
X120192619Y-120643596D01*
X120218939Y-120646426D01*
X120283490Y-120673164D01*
X120323339Y-120730556D01*
X120325834Y-120800381D01*
X120293366Y-120857397D01*
X118037582Y-123113181D01*
X117976259Y-123146666D01*
X117949901Y-123149500D01*
X117249998Y-123149500D01*
X117249980Y-123149501D01*
X117147203Y-123160000D01*
X117147200Y-123160001D01*
X116980668Y-123215185D01*
X116980663Y-123215187D01*
X116831342Y-123307289D01*
X116707289Y-123431342D01*
X116615187Y-123580663D01*
X116615186Y-123580666D01*
X116560001Y-123747203D01*
X116560001Y-123747204D01*
X116560000Y-123747204D01*
X116549500Y-123849983D01*
X116549500Y-124650001D01*
X116549501Y-124650007D01*
X116560000Y-124752796D01*
X116560001Y-124752799D01*
X116615185Y-124919331D01*
X116615187Y-124919336D01*
X116707289Y-125068657D01*
X116800951Y-125162319D01*
X116834436Y-125223642D01*
X116829452Y-125293334D01*
X116800951Y-125337681D01*
X116707289Y-125431342D01*
X116615187Y-125580663D01*
X116615186Y-125580666D01*
X116560001Y-125747203D01*
X116560001Y-125747204D01*
X116560000Y-125747204D01*
X116549500Y-125849983D01*
X116549500Y-126650001D01*
X116549501Y-126650019D01*
X116560000Y-126752796D01*
X116560001Y-126752799D01*
X116581721Y-126818345D01*
X116615186Y-126919334D01*
X116707288Y-127068656D01*
X116831344Y-127192712D01*
X116980666Y-127284814D01*
X117101004Y-127324690D01*
X117158449Y-127364463D01*
X117185272Y-127428979D01*
X117186000Y-127442396D01*
X117186000Y-128975747D01*
X117186000Y-129124253D01*
X117205797Y-129198135D01*
X117211531Y-129219536D01*
X117224435Y-129267697D01*
X117224436Y-129267698D01*
X117298687Y-129396304D01*
X117298689Y-129396306D01*
X117410761Y-129508378D01*
X117410767Y-129508383D01*
X118121422Y-130219038D01*
X118154907Y-130280361D01*
X118149923Y-130350053D01*
X118108051Y-130405986D01*
X118042587Y-130430403D01*
X117994738Y-130424425D01*
X117952700Y-130410495D01*
X117952690Y-130410493D01*
X117849986Y-130400000D01*
X117600000Y-130400000D01*
X117600000Y-131250000D01*
X118549999Y-131250000D01*
X118549999Y-131100028D01*
X118549998Y-131100013D01*
X118539506Y-130997304D01*
X118525575Y-130955264D01*
X118523173Y-130885435D01*
X118558904Y-130825393D01*
X118621425Y-130794200D01*
X118690884Y-130801760D01*
X118730962Y-130828578D01*
X119099681Y-131197297D01*
X119133166Y-131258620D01*
X119136000Y-131284978D01*
X119136000Y-134189021D01*
X119116315Y-134256060D01*
X119063511Y-134301815D01*
X118994353Y-134311759D01*
X118930797Y-134282734D01*
X118924319Y-134276702D01*
X118586818Y-133939202D01*
X118553333Y-133877879D01*
X118550499Y-133851529D01*
X118550499Y-133099992D01*
X118541475Y-133011657D01*
X118539999Y-132997203D01*
X118539998Y-132997200D01*
X118521184Y-132940423D01*
X118484814Y-132830666D01*
X118392712Y-132681344D01*
X118298695Y-132587327D01*
X118265210Y-132526004D01*
X118270194Y-132456312D01*
X118298695Y-132411964D01*
X118392317Y-132318342D01*
X118484356Y-132169124D01*
X118484358Y-132169119D01*
X118539505Y-132002697D01*
X118539506Y-132002690D01*
X118549999Y-131899986D01*
X118550000Y-131899973D01*
X118550000Y-131750000D01*
X116150001Y-131750000D01*
X116150001Y-131899986D01*
X116160494Y-132002697D01*
X116215641Y-132169119D01*
X116215643Y-132169124D01*
X116307684Y-132318345D01*
X116401304Y-132411965D01*
X116434789Y-132473288D01*
X116429805Y-132542980D01*
X116401305Y-132587327D01*
X116307287Y-132681345D01*
X116215187Y-132830663D01*
X116215185Y-132830668D01*
X116192377Y-132899499D01*
X116160001Y-132997203D01*
X116160001Y-132997204D01*
X116160000Y-132997204D01*
X116149500Y-133099983D01*
X116149500Y-133900001D01*
X116149501Y-133900019D01*
X116160000Y-134002796D01*
X116160001Y-134002799D01*
X116215185Y-134169331D01*
X116215187Y-134169336D01*
X116250069Y-134225888D01*
X116307288Y-134318656D01*
X116431344Y-134442712D01*
X116580666Y-134534814D01*
X116747203Y-134589999D01*
X116849991Y-134600500D01*
X117601521Y-134600499D01*
X117668560Y-134620183D01*
X117689201Y-134636817D01*
X122213196Y-139160813D01*
X122213197Y-139160814D01*
X122213199Y-139160815D01*
X122341800Y-139235063D01*
X122341801Y-139235063D01*
X122341804Y-139235065D01*
X122485248Y-139273501D01*
X122485251Y-139273501D01*
X122601632Y-139273501D01*
X122668671Y-139293186D01*
X122714426Y-139345990D01*
X122724370Y-139415148D01*
X122707170Y-139462599D01*
X122674919Y-139514885D01*
X122622971Y-139561609D01*
X122554008Y-139572830D01*
X122528427Y-139566829D01*
X122379257Y-139514632D01*
X122379249Y-139514630D01*
X122200004Y-139494435D01*
X122199996Y-139494435D01*
X122020750Y-139514630D01*
X122020745Y-139514631D01*
X121850476Y-139574211D01*
X121697737Y-139670184D01*
X121570184Y-139797737D01*
X121474211Y-139950476D01*
X121414631Y-140120745D01*
X121414630Y-140120750D01*
X121394435Y-140299996D01*
X121394435Y-140300003D01*
X121414630Y-140479249D01*
X121414631Y-140479254D01*
X121474211Y-140649523D01*
X121479208Y-140657475D01*
X121570184Y-140802262D01*
X121697738Y-140929816D01*
X121850478Y-141025789D01*
X121974928Y-141069336D01*
X122020745Y-141085368D01*
X122020750Y-141085369D01*
X122199996Y-141105565D01*
X122200000Y-141105565D01*
X122200004Y-141105565D01*
X122379249Y-141085369D01*
X122379252Y-141085368D01*
X122379255Y-141085368D01*
X122379256Y-141085367D01*
X122379259Y-141085367D01*
X122425072Y-141069336D01*
X122528428Y-141033169D01*
X122598204Y-141029607D01*
X122658832Y-141064336D01*
X122674918Y-141085113D01*
X122676551Y-141087760D01*
X122757287Y-141218655D01*
X122826451Y-141287819D01*
X122859936Y-141349142D01*
X122854952Y-141418834D01*
X122813080Y-141474767D01*
X122747616Y-141499184D01*
X122738770Y-141499500D01*
X118003751Y-141499500D01*
X117996264Y-141499274D01*
X117706205Y-141481728D01*
X117691340Y-141479923D01*
X117409201Y-141428219D01*
X117394663Y-141424635D01*
X117120832Y-141339306D01*
X117106831Y-141333997D01*
X116845263Y-141216275D01*
X116832004Y-141209316D01*
X116630926Y-141087760D01*
X116586537Y-141060926D01*
X116574217Y-141052422D01*
X116540222Y-141025789D01*
X116360988Y-140885368D01*
X116348426Y-140875526D01*
X116337218Y-140865596D01*
X116134403Y-140662781D01*
X116124473Y-140651573D01*
X116033432Y-140535368D01*
X115947573Y-140425776D01*
X115939075Y-140413465D01*
X115790680Y-140167989D01*
X115783727Y-140154743D01*
X115666000Y-139893163D01*
X115660693Y-139879167D01*
X115660177Y-139877512D01*
X115575363Y-139605335D01*
X115571780Y-139590798D01*
X115539591Y-139415147D01*
X115520075Y-139308657D01*
X115518271Y-139293794D01*
X115517043Y-139273500D01*
X115500726Y-139003736D01*
X115500500Y-138996249D01*
X115500500Y-138631902D01*
X116999500Y-138631902D01*
X116999500Y-138868097D01*
X117036446Y-139101368D01*
X117109433Y-139325996D01*
X117185863Y-139475996D01*
X117216657Y-139536433D01*
X117355483Y-139727510D01*
X117522490Y-139894517D01*
X117713567Y-140033343D01*
X117796807Y-140075756D01*
X117924003Y-140140566D01*
X117924005Y-140140566D01*
X117924008Y-140140568D01*
X118026901Y-140174000D01*
X118148631Y-140213553D01*
X118381903Y-140250500D01*
X118381908Y-140250500D01*
X118618097Y-140250500D01*
X118851368Y-140213553D01*
X119075992Y-140140568D01*
X119286433Y-140033343D01*
X119477510Y-139894517D01*
X119644517Y-139727510D01*
X119783343Y-139536433D01*
X119890568Y-139325992D01*
X119963553Y-139101368D01*
X119976743Y-139018092D01*
X120000500Y-138868097D01*
X120000500Y-138631902D01*
X119963553Y-138398631D01*
X119917920Y-138258189D01*
X119890568Y-138174008D01*
X119890566Y-138174005D01*
X119890566Y-138174003D01*
X119818970Y-138033489D01*
X119783343Y-137963567D01*
X119644517Y-137772490D01*
X119477510Y-137605483D01*
X119286433Y-137466657D01*
X119262672Y-137454550D01*
X119075996Y-137359433D01*
X118851368Y-137286446D01*
X118618097Y-137249500D01*
X118618092Y-137249500D01*
X118381908Y-137249500D01*
X118381903Y-137249500D01*
X118148631Y-137286446D01*
X117924003Y-137359433D01*
X117713566Y-137466657D01*
X117626636Y-137529816D01*
X117522490Y-137605483D01*
X117522488Y-137605485D01*
X117522487Y-137605485D01*
X117355485Y-137772487D01*
X117355485Y-137772488D01*
X117355483Y-137772490D01*
X117324927Y-137814547D01*
X117216657Y-137963566D01*
X117109433Y-138174003D01*
X117036446Y-138398631D01*
X116999500Y-138631902D01*
X115500500Y-138631902D01*
X115500500Y-131100013D01*
X116150000Y-131100013D01*
X116150000Y-131250000D01*
X117100000Y-131250000D01*
X117100000Y-130400000D01*
X116850029Y-130400000D01*
X116850012Y-130400001D01*
X116747302Y-130410494D01*
X116580880Y-130465641D01*
X116580875Y-130465643D01*
X116431654Y-130557684D01*
X116307684Y-130681654D01*
X116215643Y-130830875D01*
X116215641Y-130830880D01*
X116160494Y-130997302D01*
X116160493Y-130997309D01*
X116150000Y-131100013D01*
X115500500Y-131100013D01*
X115500500Y-120489269D01*
X115520185Y-120422230D01*
X115572989Y-120376475D01*
X115642147Y-120366531D01*
X115705703Y-120395556D01*
X115723766Y-120414958D01*
X115792809Y-120507187D01*
X115792812Y-120507190D01*
X115907906Y-120593350D01*
X115907913Y-120593354D01*
X116042620Y-120643596D01*
X116042627Y-120643598D01*
X116102155Y-120649999D01*
X116102172Y-120650000D01*
X116425000Y-120650000D01*
X116925000Y-120650000D01*
X117247828Y-120650000D01*
X117247844Y-120649999D01*
X117307372Y-120643598D01*
X117307379Y-120643596D01*
X117442086Y-120593354D01*
X117442093Y-120593350D01*
X117557187Y-120507190D01*
X117557190Y-120507187D01*
X117643350Y-120392093D01*
X117643354Y-120392086D01*
X117693596Y-120257379D01*
X117693598Y-120257372D01*
X117699999Y-120197844D01*
X117700000Y-120197827D01*
X117700000Y-120075000D01*
X116925000Y-120075000D01*
X116925000Y-120650000D01*
X116425000Y-120650000D01*
X116425000Y-119575000D01*
X116925000Y-119575000D01*
X117700000Y-119575000D01*
X117700000Y-119452172D01*
X117699999Y-119452155D01*
X119800000Y-119452155D01*
X119800000Y-119575000D01*
X120575000Y-119575000D01*
X120575000Y-119000000D01*
X120252155Y-119000000D01*
X120192627Y-119006401D01*
X120192620Y-119006403D01*
X120057913Y-119056645D01*
X120057906Y-119056649D01*
X119942812Y-119142809D01*
X119942809Y-119142812D01*
X119856649Y-119257906D01*
X119856645Y-119257913D01*
X119806403Y-119392620D01*
X119806401Y-119392627D01*
X119800000Y-119452155D01*
X117699999Y-119452155D01*
X117693598Y-119392627D01*
X117693596Y-119392620D01*
X117643354Y-119257913D01*
X117643350Y-119257906D01*
X117557190Y-119142812D01*
X117557187Y-119142809D01*
X117442093Y-119056649D01*
X117442086Y-119056645D01*
X117307379Y-119006403D01*
X117307372Y-119006401D01*
X117247844Y-119000000D01*
X116925000Y-119000000D01*
X116925000Y-119575000D01*
X116425000Y-119575000D01*
X116425000Y-119000000D01*
X116102155Y-119000000D01*
X116042627Y-119006401D01*
X116042620Y-119006403D01*
X115907913Y-119056645D01*
X115907906Y-119056649D01*
X115792812Y-119142809D01*
X115723766Y-119235042D01*
X115667832Y-119276912D01*
X115598140Y-119281896D01*
X115536817Y-119248410D01*
X115503333Y-119187086D01*
X115500500Y-119160730D01*
X115500500Y-118340102D01*
X115520185Y-118273063D01*
X115572989Y-118227308D01*
X115642147Y-118217364D01*
X115705703Y-118246389D01*
G37*
G04 #@! TD.AperFunction*
G04 #@! TA.AperFunction,Conductor*
G36*
X126918622Y-140033886D02*
G01*
X126974557Y-140075756D01*
X126998511Y-140136185D01*
X127014630Y-140279250D01*
X127014631Y-140279254D01*
X127074211Y-140449523D01*
X127140842Y-140555565D01*
X127170184Y-140602262D01*
X127297738Y-140729816D01*
X127450478Y-140825789D01*
X127592618Y-140875526D01*
X127620745Y-140885368D01*
X127620750Y-140885369D01*
X127799996Y-140905565D01*
X127800000Y-140905565D01*
X127800004Y-140905565D01*
X127956667Y-140887913D01*
X127979255Y-140885368D01*
X127979265Y-140885364D01*
X127985573Y-140883925D01*
X128055312Y-140888193D01*
X128111673Y-140929487D01*
X128130881Y-140965809D01*
X128165186Y-141069334D01*
X128257287Y-141218655D01*
X128257289Y-141218657D01*
X128326451Y-141287819D01*
X128359936Y-141349142D01*
X128354952Y-141418834D01*
X128313080Y-141474767D01*
X128247616Y-141499184D01*
X128238770Y-141499500D01*
X126660523Y-141499500D01*
X126593484Y-141479815D01*
X126547729Y-141427011D01*
X126537785Y-141357853D01*
X126566810Y-141294297D01*
X126572842Y-141287819D01*
X126642315Y-141218345D01*
X126734356Y-141069124D01*
X126734358Y-141069119D01*
X126789505Y-140902697D01*
X126789506Y-140902690D01*
X126799999Y-140799986D01*
X126800000Y-140799973D01*
X126800000Y-140550000D01*
X125849000Y-140550000D01*
X125781961Y-140530315D01*
X125736206Y-140477511D01*
X125725000Y-140426000D01*
X125725000Y-140174000D01*
X125744685Y-140106961D01*
X125797489Y-140061206D01*
X125849000Y-140050000D01*
X126810297Y-140050000D01*
X126848930Y-140028903D01*
X126918622Y-140033886D01*
G37*
G04 #@! TD.AperFunction*
G04 #@! TA.AperFunction,Conductor*
G36*
X131047609Y-100520185D02*
G01*
X131093364Y-100572989D01*
X131103308Y-100642147D01*
X131074283Y-100705703D01*
X131023903Y-100740682D01*
X131007913Y-100746645D01*
X131007906Y-100746649D01*
X130892812Y-100832809D01*
X130892809Y-100832812D01*
X130806649Y-100947906D01*
X130806645Y-100947913D01*
X130756403Y-101082620D01*
X130756401Y-101082627D01*
X130750000Y-101142155D01*
X130750000Y-101390000D01*
X133250000Y-101390000D01*
X133250000Y-101142172D01*
X133249999Y-101142155D01*
X133243598Y-101082627D01*
X133243596Y-101082620D01*
X133193354Y-100947913D01*
X133193350Y-100947906D01*
X133107190Y-100832812D01*
X133107187Y-100832809D01*
X132992093Y-100746649D01*
X132992086Y-100746645D01*
X132976097Y-100740682D01*
X132920163Y-100698811D01*
X132895746Y-100633347D01*
X132910597Y-100565074D01*
X132960002Y-100515668D01*
X133019430Y-100500500D01*
X148480570Y-100500500D01*
X148547609Y-100520185D01*
X148593364Y-100572989D01*
X148603308Y-100642147D01*
X148574283Y-100705703D01*
X148523903Y-100740682D01*
X148507913Y-100746645D01*
X148507906Y-100746649D01*
X148392812Y-100832809D01*
X148392809Y-100832812D01*
X148306649Y-100947906D01*
X148306645Y-100947913D01*
X148256403Y-101082620D01*
X148256401Y-101082627D01*
X148250000Y-101142155D01*
X148250000Y-101390000D01*
X150750000Y-101390000D01*
X150750000Y-101142172D01*
X150749999Y-101142155D01*
X150743598Y-101082627D01*
X150743596Y-101082620D01*
X150693354Y-100947913D01*
X150693350Y-100947906D01*
X150607190Y-100832812D01*
X150607187Y-100832809D01*
X150492093Y-100746649D01*
X150492086Y-100746645D01*
X150476097Y-100740682D01*
X150420163Y-100698811D01*
X150395746Y-100633347D01*
X150410597Y-100565074D01*
X150460002Y-100515668D01*
X150519430Y-100500500D01*
X164434108Y-100500500D01*
X164496249Y-100500500D01*
X164503736Y-100500726D01*
X164793796Y-100518271D01*
X164808657Y-100520075D01*
X165090798Y-100571780D01*
X165105335Y-100575363D01*
X165379172Y-100660695D01*
X165393163Y-100666000D01*
X165654743Y-100783727D01*
X165667989Y-100790680D01*
X165913465Y-100939075D01*
X165925776Y-100947573D01*
X166151573Y-101124473D01*
X166162781Y-101134403D01*
X166365596Y-101337218D01*
X166375526Y-101348426D01*
X166495481Y-101501538D01*
X166552422Y-101574217D01*
X166560926Y-101586537D01*
X166591097Y-101636446D01*
X166709316Y-101832004D01*
X166716275Y-101845263D01*
X166833997Y-102106831D01*
X166839306Y-102120832D01*
X166924635Y-102394663D01*
X166928219Y-102409201D01*
X166979923Y-102691340D01*
X166981728Y-102706205D01*
X166999274Y-102996263D01*
X166999500Y-103003750D01*
X166999500Y-138996249D01*
X166999274Y-139003736D01*
X166981728Y-139293794D01*
X166979923Y-139308659D01*
X166928219Y-139590798D01*
X166924635Y-139605336D01*
X166839306Y-139879167D01*
X166833997Y-139893168D01*
X166716275Y-140154736D01*
X166709316Y-140167995D01*
X166560928Y-140413459D01*
X166552422Y-140425782D01*
X166375526Y-140651573D01*
X166365596Y-140662781D01*
X166162781Y-140865596D01*
X166151573Y-140875526D01*
X165925782Y-141052422D01*
X165913459Y-141060928D01*
X165667995Y-141209316D01*
X165654736Y-141216275D01*
X165393168Y-141333997D01*
X165379167Y-141339306D01*
X165105336Y-141424635D01*
X165090798Y-141428219D01*
X164808659Y-141479923D01*
X164793794Y-141481728D01*
X164503736Y-141499274D01*
X164496249Y-141499500D01*
X132160523Y-141499500D01*
X132093484Y-141479815D01*
X132047729Y-141427011D01*
X132037785Y-141357853D01*
X132066810Y-141294297D01*
X132072842Y-141287819D01*
X132142315Y-141218345D01*
X132234356Y-141069124D01*
X132234358Y-141069119D01*
X132289505Y-140902697D01*
X132289506Y-140902690D01*
X132299999Y-140799986D01*
X132300000Y-140799973D01*
X132300000Y-140550000D01*
X131349000Y-140550000D01*
X131281961Y-140530315D01*
X131236206Y-140477511D01*
X131225000Y-140426000D01*
X131225000Y-140174000D01*
X131244685Y-140106961D01*
X131297489Y-140061206D01*
X131349000Y-140050000D01*
X132299999Y-140050000D01*
X132299999Y-139800028D01*
X132299998Y-139800013D01*
X132289505Y-139697302D01*
X132234358Y-139530880D01*
X132234353Y-139530869D01*
X132192242Y-139462597D01*
X132173801Y-139395205D01*
X132194723Y-139328541D01*
X132248365Y-139283772D01*
X132297780Y-139273500D01*
X133851000Y-139273500D01*
X133918039Y-139293185D01*
X133963794Y-139345989D01*
X133975000Y-139397500D01*
X133975000Y-139500000D01*
X134625000Y-139500000D01*
X134625000Y-140000000D01*
X133975000Y-140000000D01*
X133975000Y-140243571D01*
X134011506Y-140427097D01*
X134011508Y-140427105D01*
X134083119Y-140599991D01*
X134083124Y-140600000D01*
X134187086Y-140755589D01*
X134187089Y-140755593D01*
X134319406Y-140887910D01*
X134319410Y-140887913D01*
X134474999Y-140991875D01*
X134475012Y-140991882D01*
X134647889Y-141063489D01*
X134647896Y-141063491D01*
X134675000Y-141068882D01*
X134675000Y-140316988D01*
X134684940Y-140334205D01*
X134740795Y-140390060D01*
X134809204Y-140429556D01*
X134885504Y-140450000D01*
X134964496Y-140450000D01*
X135040796Y-140429556D01*
X135109205Y-140390060D01*
X135165060Y-140334205D01*
X135175000Y-140316988D01*
X135175000Y-141068881D01*
X135202103Y-141063491D01*
X135202110Y-141063489D01*
X135374987Y-140991882D01*
X135375000Y-140991875D01*
X135530589Y-140887913D01*
X135530593Y-140887910D01*
X135662910Y-140755593D01*
X135662913Y-140755589D01*
X135766875Y-140600000D01*
X135766882Y-140599987D01*
X135830726Y-140445853D01*
X135874567Y-140391449D01*
X135940861Y-140369384D01*
X136008560Y-140386663D01*
X136011234Y-140388296D01*
X136057791Y-140417550D01*
X136150475Y-140475788D01*
X136320745Y-140535368D01*
X136320750Y-140535369D01*
X136499996Y-140555565D01*
X136500000Y-140555565D01*
X136500004Y-140555565D01*
X136679249Y-140535369D01*
X136679252Y-140535368D01*
X136679255Y-140535368D01*
X136849522Y-140475789D01*
X137002262Y-140379816D01*
X137129816Y-140252262D01*
X137225789Y-140099522D01*
X137285368Y-139929255D01*
X137288434Y-139902048D01*
X137305565Y-139750000D01*
X137305565Y-139749996D01*
X137285369Y-139570750D01*
X137285366Y-139570737D01*
X137274770Y-139540455D01*
X137271208Y-139470676D01*
X137305936Y-139410049D01*
X137367930Y-139377821D01*
X137391811Y-139375500D01*
X140811607Y-139375500D01*
X140872029Y-139363481D01*
X140932452Y-139351463D01*
X140932455Y-139351461D01*
X140932458Y-139351461D01*
X140965787Y-139337654D01*
X140965786Y-139337654D01*
X140965792Y-139337652D01*
X141046286Y-139304312D01*
X141097509Y-139270084D01*
X141117947Y-139256428D01*
X142625000Y-139256428D01*
X142625000Y-139500000D01*
X143275000Y-139500000D01*
X143275000Y-140000000D01*
X142625000Y-140000000D01*
X142625000Y-140243571D01*
X142661506Y-140427097D01*
X142661508Y-140427105D01*
X142733119Y-140599991D01*
X142733124Y-140600000D01*
X142837086Y-140755589D01*
X142837089Y-140755593D01*
X142969406Y-140887910D01*
X142969410Y-140887913D01*
X143124999Y-140991875D01*
X143125012Y-140991882D01*
X143297889Y-141063489D01*
X143297896Y-141063491D01*
X143325000Y-141068882D01*
X143325000Y-140316988D01*
X143334940Y-140334205D01*
X143390795Y-140390060D01*
X143459204Y-140429556D01*
X143535504Y-140450000D01*
X143614496Y-140450000D01*
X143690796Y-140429556D01*
X143759205Y-140390060D01*
X143815060Y-140334205D01*
X143825000Y-140316988D01*
X143825000Y-141068881D01*
X143852103Y-141063491D01*
X143852110Y-141063489D01*
X144024987Y-140991882D01*
X144025000Y-140991875D01*
X144180589Y-140887913D01*
X144180593Y-140887910D01*
X144312910Y-140755593D01*
X144312913Y-140755589D01*
X144416875Y-140600000D01*
X144416880Y-140599991D01*
X144488491Y-140427105D01*
X144488493Y-140427097D01*
X144524999Y-140243571D01*
X144525000Y-140243569D01*
X144525000Y-140000000D01*
X143875000Y-140000000D01*
X143875000Y-139500000D01*
X144525000Y-139500000D01*
X144525000Y-139256430D01*
X144524999Y-139256428D01*
X144488493Y-139072902D01*
X144488491Y-139072894D01*
X144416880Y-138900008D01*
X144416875Y-138899999D01*
X144337965Y-138781902D01*
X162899500Y-138781902D01*
X162899500Y-139018097D01*
X162936446Y-139251368D01*
X163009433Y-139475996D01*
X163108378Y-139670184D01*
X163116657Y-139686433D01*
X163255483Y-139877510D01*
X163422490Y-140044517D01*
X163613567Y-140183343D01*
X163712991Y-140234002D01*
X163824003Y-140290566D01*
X163824005Y-140290566D01*
X163824008Y-140290568D01*
X163944412Y-140329689D01*
X164048631Y-140363553D01*
X164281903Y-140400500D01*
X164281908Y-140400500D01*
X164518097Y-140400500D01*
X164751368Y-140363553D01*
X164975992Y-140290568D01*
X165186433Y-140183343D01*
X165377510Y-140044517D01*
X165544517Y-139877510D01*
X165683343Y-139686433D01*
X165790568Y-139475992D01*
X165863553Y-139251368D01*
X165866135Y-139235063D01*
X165900500Y-139018097D01*
X165900500Y-138781902D01*
X165863553Y-138548631D01*
X165814815Y-138398632D01*
X165790568Y-138324008D01*
X165790566Y-138324005D01*
X165790566Y-138324003D01*
X165714139Y-138174008D01*
X165683343Y-138113567D01*
X165544517Y-137922490D01*
X165377510Y-137755483D01*
X165186433Y-137616657D01*
X165164503Y-137605483D01*
X164975996Y-137509433D01*
X164751368Y-137436446D01*
X164518097Y-137399500D01*
X164518092Y-137399500D01*
X164281908Y-137399500D01*
X164281903Y-137399500D01*
X164048631Y-137436446D01*
X163824003Y-137509433D01*
X163613566Y-137616657D01*
X163515051Y-137688233D01*
X163422490Y-137755483D01*
X163422488Y-137755485D01*
X163422487Y-137755485D01*
X163255485Y-137922487D01*
X163255485Y-137922488D01*
X163255483Y-137922490D01*
X163225639Y-137963567D01*
X163116657Y-138113566D01*
X163009433Y-138324003D01*
X162936446Y-138548631D01*
X162899500Y-138781902D01*
X144337965Y-138781902D01*
X144312913Y-138744410D01*
X144312910Y-138744406D01*
X144180593Y-138612089D01*
X144180589Y-138612086D01*
X144025000Y-138508124D01*
X144024991Y-138508119D01*
X143852103Y-138436507D01*
X143852100Y-138436506D01*
X143825000Y-138431115D01*
X143825000Y-139183011D01*
X143815060Y-139165795D01*
X143759205Y-139109940D01*
X143690796Y-139070444D01*
X143614496Y-139050000D01*
X143535504Y-139050000D01*
X143459204Y-139070444D01*
X143390795Y-139109940D01*
X143334940Y-139165795D01*
X143325000Y-139183011D01*
X143325000Y-138431116D01*
X143324999Y-138431115D01*
X143297899Y-138436506D01*
X143297896Y-138436507D01*
X143125008Y-138508119D01*
X143124999Y-138508124D01*
X142969410Y-138612086D01*
X142969406Y-138612089D01*
X142837089Y-138744406D01*
X142837086Y-138744410D01*
X142733124Y-138899999D01*
X142733119Y-138900008D01*
X142661508Y-139072894D01*
X142661506Y-139072902D01*
X142625000Y-139256428D01*
X141117947Y-139256428D01*
X141148733Y-139235858D01*
X141235858Y-139148733D01*
X141235858Y-139148731D01*
X141246066Y-139138524D01*
X141246067Y-139138521D01*
X141860857Y-138523734D01*
X141907643Y-138453715D01*
X141929311Y-138421286D01*
X141976463Y-138307452D01*
X141986262Y-138258187D01*
X141992611Y-138226270D01*
X141992611Y-138226267D01*
X142000500Y-138186607D01*
X142000500Y-138063394D01*
X142000500Y-137688233D01*
X142020185Y-137621194D01*
X142072989Y-137575439D01*
X142131790Y-137565841D01*
X142131790Y-137565000D01*
X142136948Y-137565000D01*
X142137475Y-137564914D01*
X142138292Y-137565000D01*
X142311711Y-137565000D01*
X142481342Y-137528943D01*
X142481347Y-137528941D01*
X142563276Y-137492464D01*
X142632526Y-137483179D01*
X142695803Y-137512807D01*
X142728273Y-137558291D01*
X142733117Y-137569987D01*
X142733124Y-137570000D01*
X142837086Y-137725589D01*
X142837089Y-137725593D01*
X142969406Y-137857910D01*
X142969410Y-137857913D01*
X143124999Y-137961875D01*
X143125012Y-137961882D01*
X143297889Y-138033489D01*
X143297896Y-138033491D01*
X143325000Y-138038882D01*
X143325000Y-137286988D01*
X143334940Y-137304205D01*
X143390795Y-137360060D01*
X143459204Y-137399556D01*
X143535504Y-137420000D01*
X143614496Y-137420000D01*
X143690796Y-137399556D01*
X143759205Y-137360060D01*
X143815060Y-137304205D01*
X143825000Y-137286988D01*
X143825000Y-138038881D01*
X143852103Y-138033491D01*
X143852110Y-138033489D01*
X144024987Y-137961882D01*
X144025000Y-137961875D01*
X144180589Y-137857913D01*
X144180593Y-137857910D01*
X144312910Y-137725593D01*
X144312913Y-137725589D01*
X144416875Y-137570000D01*
X144416880Y-137569991D01*
X144488491Y-137397105D01*
X144488493Y-137397097D01*
X144524999Y-137213571D01*
X144525000Y-137213569D01*
X144525000Y-136620000D01*
X143875000Y-136620000D01*
X143875000Y-136120000D01*
X144525000Y-136120000D01*
X144525000Y-135526430D01*
X144524999Y-135526428D01*
X144488493Y-135342902D01*
X144488491Y-135342894D01*
X144438065Y-135221153D01*
X147399500Y-135221153D01*
X147399500Y-135378846D01*
X147430261Y-135533489D01*
X147430264Y-135533501D01*
X147490602Y-135679172D01*
X147490609Y-135679185D01*
X147578210Y-135810288D01*
X147578213Y-135810292D01*
X147689707Y-135921786D01*
X147689711Y-135921789D01*
X147820814Y-136009390D01*
X147820827Y-136009397D01*
X147949620Y-136062744D01*
X147966503Y-136069737D01*
X148121153Y-136100499D01*
X148121156Y-136100500D01*
X148121158Y-136100500D01*
X148278844Y-136100500D01*
X148278845Y-136100499D01*
X148433497Y-136069737D01*
X148557784Y-136018256D01*
X148579172Y-136009397D01*
X148579172Y-136009396D01*
X148579179Y-136009394D01*
X148710289Y-135921789D01*
X148821789Y-135810289D01*
X148909394Y-135679179D01*
X148969737Y-135533497D01*
X149000500Y-135378842D01*
X149000500Y-135221158D01*
X149000500Y-135221155D01*
X149000499Y-135221153D01*
X149000303Y-135220168D01*
X158389500Y-135220168D01*
X158389500Y-135379831D01*
X158420645Y-135536406D01*
X158420648Y-135536418D01*
X158481742Y-135683914D01*
X158481744Y-135683918D01*
X158570439Y-135816659D01*
X158570445Y-135816667D01*
X158683332Y-135929554D01*
X158683340Y-135929560D01*
X158816081Y-136018255D01*
X158816085Y-136018257D01*
X158940373Y-136069738D01*
X158963586Y-136079353D01*
X159120168Y-136110499D01*
X159120172Y-136110500D01*
X159120173Y-136110500D01*
X159279828Y-136110500D01*
X159279829Y-136110499D01*
X159436414Y-136079353D01*
X159583916Y-136018256D01*
X159583918Y-136018255D01*
X159713241Y-135931844D01*
X159716664Y-135929557D01*
X159829557Y-135816664D01*
X159918256Y-135683916D01*
X159926991Y-135662829D01*
X159979351Y-135536418D01*
X159979353Y-135536414D01*
X160010500Y-135379827D01*
X160010500Y-135220173D01*
X159979353Y-135063586D01*
X159979351Y-135063581D01*
X159918257Y-134916085D01*
X159918255Y-134916081D01*
X159829560Y-134783340D01*
X159829554Y-134783332D01*
X159716667Y-134670445D01*
X159716659Y-134670439D01*
X159583918Y-134581744D01*
X159583914Y-134581742D01*
X159436418Y-134520648D01*
X159436406Y-134520645D01*
X159279831Y-134489500D01*
X159279827Y-134489500D01*
X159120173Y-134489500D01*
X159120168Y-134489500D01*
X158963593Y-134520645D01*
X158963581Y-134520648D01*
X158816085Y-134581742D01*
X158816081Y-134581744D01*
X158683340Y-134670439D01*
X158683332Y-134670445D01*
X158570445Y-134783332D01*
X158570439Y-134783340D01*
X158481744Y-134916081D01*
X158481742Y-134916085D01*
X158420648Y-135063581D01*
X158420645Y-135063593D01*
X158389500Y-135220168D01*
X149000303Y-135220168D01*
X148992681Y-135181848D01*
X148969737Y-135066503D01*
X148948158Y-135014406D01*
X148909397Y-134920827D01*
X148909390Y-134920814D01*
X148821789Y-134789711D01*
X148821786Y-134789707D01*
X148710292Y-134678213D01*
X148710288Y-134678210D01*
X148579185Y-134590609D01*
X148579172Y-134590602D01*
X148433501Y-134530264D01*
X148433489Y-134530261D01*
X148278845Y-134499500D01*
X148278842Y-134499500D01*
X148121158Y-134499500D01*
X148121155Y-134499500D01*
X147966510Y-134530261D01*
X147966498Y-134530264D01*
X147820827Y-134590602D01*
X147820814Y-134590609D01*
X147689711Y-134678210D01*
X147689707Y-134678213D01*
X147578213Y-134789707D01*
X147578210Y-134789711D01*
X147490609Y-134920814D01*
X147490602Y-134920827D01*
X147430264Y-135066498D01*
X147430261Y-135066510D01*
X147399500Y-135221153D01*
X144438065Y-135221153D01*
X144416880Y-135170008D01*
X144416875Y-135169999D01*
X144312913Y-135014410D01*
X144312910Y-135014406D01*
X144180593Y-134882089D01*
X144180589Y-134882086D01*
X144025000Y-134778124D01*
X144024991Y-134778119D01*
X143852103Y-134706507D01*
X143852100Y-134706506D01*
X143825000Y-134701115D01*
X143825000Y-135453011D01*
X143815060Y-135435795D01*
X143759205Y-135379940D01*
X143690796Y-135340444D01*
X143614496Y-135320000D01*
X143535504Y-135320000D01*
X143459204Y-135340444D01*
X143390795Y-135379940D01*
X143334940Y-135435795D01*
X143325000Y-135453011D01*
X143325000Y-134701116D01*
X143324999Y-134701115D01*
X143297899Y-134706506D01*
X143297896Y-134706507D01*
X143125008Y-134778119D01*
X143124999Y-134778124D01*
X143028307Y-134842732D01*
X143022559Y-134901098D01*
X143020311Y-134900876D01*
X143017884Y-134934824D01*
X142989383Y-134979171D01*
X142578554Y-135390000D01*
X142989383Y-135800829D01*
X143022868Y-135862152D01*
X143017884Y-135931844D01*
X142989383Y-135976191D01*
X142900574Y-136065000D01*
X142989383Y-136153809D01*
X143022868Y-136215132D01*
X143017884Y-136284824D01*
X142989383Y-136329171D01*
X142489458Y-136829096D01*
X142428135Y-136862581D01*
X142388123Y-136859719D01*
X142394552Y-136853291D01*
X142425000Y-136779782D01*
X142425000Y-136700218D01*
X142394552Y-136626709D01*
X142338291Y-136570448D01*
X142264782Y-136540000D01*
X142185218Y-136540000D01*
X142178854Y-136542635D01*
X142175348Y-136531845D01*
X142173353Y-136462004D01*
X142205598Y-136405847D01*
X142546445Y-136064999D01*
X142205598Y-135724152D01*
X142172113Y-135662829D01*
X142175347Y-135598155D01*
X142178854Y-135587364D01*
X142185218Y-135590000D01*
X142264782Y-135590000D01*
X142338291Y-135559552D01*
X142394552Y-135503291D01*
X142425000Y-135429782D01*
X142425000Y-135350218D01*
X142394552Y-135276709D01*
X142338291Y-135220448D01*
X142264782Y-135190000D01*
X142185218Y-135190000D01*
X142178854Y-135192635D01*
X142175347Y-135181844D01*
X142173351Y-135112007D01*
X142205597Y-135055847D01*
X142605230Y-134656215D01*
X142481340Y-134601056D01*
X142311711Y-134565000D01*
X142138288Y-134565000D01*
X142129276Y-134566915D01*
X142059609Y-134561594D01*
X142003878Y-134519453D01*
X141981886Y-134469814D01*
X141978342Y-134451999D01*
X141977684Y-134448688D01*
X141976463Y-134442548D01*
X141971166Y-134429761D01*
X141956954Y-134395449D01*
X141956944Y-134395428D01*
X141956932Y-134395397D01*
X141929312Y-134328715D01*
X141929309Y-134328710D01*
X141896398Y-134279455D01*
X141875520Y-134212778D01*
X141875500Y-134210564D01*
X141875500Y-132790393D01*
X141875499Y-132790389D01*
X141868804Y-132756732D01*
X141851463Y-132669548D01*
X141804311Y-132555714D01*
X141804310Y-132555713D01*
X141804307Y-132555707D01*
X141735858Y-132453267D01*
X141735855Y-132453263D01*
X141645637Y-132363045D01*
X141645606Y-132363016D01*
X141161819Y-131879229D01*
X141128334Y-131817906D01*
X141125500Y-131791548D01*
X141125500Y-130881451D01*
X141145185Y-130814412D01*
X141161815Y-130793774D01*
X141648729Y-130306860D01*
X141648733Y-130306858D01*
X141735858Y-130219733D01*
X141804311Y-130117286D01*
X141851463Y-130003452D01*
X141875500Y-129882606D01*
X141875500Y-129649986D01*
X142550001Y-129649986D01*
X142560494Y-129752697D01*
X142615641Y-129919119D01*
X142615643Y-129919124D01*
X142707684Y-130068345D01*
X142831654Y-130192315D01*
X142980875Y-130284356D01*
X142980880Y-130284358D01*
X143147302Y-130339505D01*
X143147309Y-130339506D01*
X143250019Y-130349999D01*
X143499999Y-130349999D01*
X144000000Y-130349999D01*
X144249972Y-130349999D01*
X144249986Y-130349998D01*
X144352697Y-130339505D01*
X144519119Y-130284358D01*
X144519124Y-130284356D01*
X144668345Y-130192315D01*
X144792315Y-130068345D01*
X144884356Y-129919124D01*
X144884358Y-129919119D01*
X144939505Y-129752697D01*
X144939506Y-129752690D01*
X144949999Y-129649986D01*
X144950000Y-129649973D01*
X144950000Y-129525000D01*
X144000000Y-129525000D01*
X144000000Y-130349999D01*
X143499999Y-130349999D01*
X143500000Y-130349998D01*
X143500000Y-129525000D01*
X142550001Y-129525000D01*
X142550001Y-129649986D01*
X141875500Y-129649986D01*
X141875500Y-128688394D01*
X141851463Y-128567548D01*
X141804311Y-128453714D01*
X141804310Y-128453713D01*
X141804307Y-128453707D01*
X141735858Y-128351267D01*
X141735855Y-128351263D01*
X141645637Y-128261045D01*
X141645606Y-128261016D01*
X141326211Y-127941621D01*
X141292726Y-127880298D01*
X141290673Y-127867838D01*
X141285368Y-127820745D01*
X141225789Y-127650478D01*
X141194083Y-127600019D01*
X141129815Y-127497737D01*
X141002262Y-127370184D01*
X140849523Y-127274211D01*
X140679254Y-127214631D01*
X140679249Y-127214630D01*
X140500004Y-127194435D01*
X140499996Y-127194435D01*
X140320750Y-127214630D01*
X140320742Y-127214632D01*
X140194855Y-127258682D01*
X140125076Y-127262243D01*
X140064449Y-127227514D01*
X140032222Y-127165521D01*
X140029901Y-127141640D01*
X140029901Y-124656177D01*
X140049586Y-124589138D01*
X140102390Y-124543383D01*
X140171548Y-124533439D01*
X140235104Y-124562464D01*
X140259438Y-124591079D01*
X140282580Y-124628598D01*
X140305380Y-124665564D01*
X140307288Y-124668656D01*
X140431344Y-124792712D01*
X140580666Y-124884814D01*
X140747203Y-124939999D01*
X140849991Y-124950500D01*
X141650008Y-124950499D01*
X141650016Y-124950498D01*
X141650019Y-124950498D01*
X141726238Y-124942712D01*
X141752797Y-124939999D01*
X141919334Y-124884814D01*
X142068656Y-124792712D01*
X142162319Y-124699049D01*
X142223642Y-124665564D01*
X142293334Y-124670548D01*
X142337681Y-124699049D01*
X142431344Y-124792712D01*
X142580666Y-124884814D01*
X142747203Y-124939999D01*
X142849991Y-124950500D01*
X143025500Y-124950499D01*
X143092539Y-124970183D01*
X143138294Y-125022987D01*
X143149500Y-125074499D01*
X143149500Y-126069699D01*
X143129815Y-126136738D01*
X143077011Y-126182493D01*
X143064507Y-126187403D01*
X143031962Y-126198188D01*
X142980668Y-126215185D01*
X142980663Y-126215187D01*
X142831342Y-126307289D01*
X142707289Y-126431342D01*
X142615187Y-126580663D01*
X142615186Y-126580666D01*
X142560001Y-126747203D01*
X142560001Y-126747204D01*
X142560000Y-126747204D01*
X142549500Y-126849983D01*
X142549500Y-127600001D01*
X142549501Y-127600019D01*
X142560000Y-127702796D01*
X142560001Y-127702799D01*
X142615185Y-127869331D01*
X142615187Y-127869336D01*
X142640849Y-127910940D01*
X142707288Y-128018656D01*
X142831344Y-128142712D01*
X142834628Y-128144737D01*
X142834653Y-128144753D01*
X142836445Y-128146746D01*
X142837011Y-128147193D01*
X142836934Y-128147289D01*
X142881379Y-128196699D01*
X142892603Y-128265661D01*
X142864761Y-128329744D01*
X142834665Y-128355826D01*
X142831660Y-128357679D01*
X142831655Y-128357683D01*
X142707684Y-128481654D01*
X142615643Y-128630875D01*
X142615641Y-128630880D01*
X142560494Y-128797302D01*
X142560493Y-128797309D01*
X142550000Y-128900013D01*
X142550000Y-129025000D01*
X144949999Y-129025000D01*
X144949999Y-128900028D01*
X144949998Y-128900013D01*
X144939505Y-128797302D01*
X144884358Y-128630880D01*
X144884356Y-128630875D01*
X144792315Y-128481654D01*
X144668344Y-128357683D01*
X144668341Y-128357681D01*
X144665339Y-128355829D01*
X144663713Y-128354021D01*
X144662677Y-128353202D01*
X144662817Y-128353024D01*
X144618617Y-128303880D01*
X144607397Y-128234917D01*
X144635243Y-128170836D01*
X144665344Y-128144754D01*
X144668656Y-128142712D01*
X144792712Y-128018656D01*
X144884814Y-127869334D01*
X144939999Y-127702797D01*
X144950500Y-127600009D01*
X144950499Y-126849992D01*
X144939999Y-126747203D01*
X144884814Y-126580666D01*
X144792712Y-126431344D01*
X144668656Y-126307288D01*
X144519334Y-126215186D01*
X144435495Y-126187404D01*
X144378051Y-126147632D01*
X144351228Y-126083116D01*
X144350500Y-126069699D01*
X144350500Y-124339060D01*
X144350501Y-124339047D01*
X144350501Y-124159123D01*
X144350499Y-124159101D01*
X144350499Y-123249998D01*
X144350498Y-123249981D01*
X144339999Y-123147203D01*
X144339998Y-123147200D01*
X144310204Y-123057288D01*
X144284814Y-122980666D01*
X144192712Y-122831344D01*
X144068656Y-122707288D01*
X143975888Y-122650069D01*
X143919336Y-122615187D01*
X143919331Y-122615185D01*
X143856817Y-122594470D01*
X143752797Y-122560001D01*
X143752795Y-122560000D01*
X143650010Y-122549500D01*
X142849998Y-122549500D01*
X142849980Y-122549501D01*
X142747203Y-122560000D01*
X142747200Y-122560001D01*
X142611787Y-122604873D01*
X142541958Y-122607275D01*
X142481917Y-122571543D01*
X142450724Y-122509022D01*
X142458285Y-122439563D01*
X142485099Y-122399489D01*
X142558379Y-122326209D01*
X142619700Y-122292726D01*
X142632156Y-122290674D01*
X142679255Y-122285368D01*
X142849522Y-122225789D01*
X143002262Y-122129816D01*
X143129816Y-122002262D01*
X143225789Y-121849522D01*
X143285368Y-121679255D01*
X143288839Y-121648449D01*
X143305565Y-121500003D01*
X143305565Y-121499162D01*
X143305718Y-121498637D01*
X143306345Y-121493081D01*
X143307318Y-121493190D01*
X143325250Y-121432123D01*
X143378054Y-121386368D01*
X143447212Y-121376424D01*
X143510768Y-121405449D01*
X143517244Y-121411479D01*
X147786284Y-125680520D01*
X147786286Y-125680521D01*
X147786290Y-125680524D01*
X147901778Y-125747200D01*
X147923216Y-125759577D01*
X148075943Y-125800501D01*
X148075945Y-125800501D01*
X148241654Y-125800501D01*
X148241670Y-125800500D01*
X153499903Y-125800500D01*
X153566942Y-125820185D01*
X153587584Y-125836819D01*
X155063181Y-127312416D01*
X155096666Y-127373739D01*
X155099500Y-127400097D01*
X155099500Y-131937814D01*
X155079815Y-132004853D01*
X155048387Y-132038131D01*
X154983072Y-132085585D01*
X154860588Y-132208069D01*
X154860581Y-132208078D01*
X154800317Y-132291023D01*
X154744987Y-132333689D01*
X154675374Y-132339667D01*
X154613579Y-132307061D01*
X154599683Y-132291023D01*
X154551608Y-132224856D01*
X154539414Y-132208072D01*
X154416928Y-132085586D01*
X154276788Y-131983768D01*
X154122445Y-131905127D01*
X153957701Y-131851598D01*
X153957699Y-131851597D01*
X153957698Y-131851597D01*
X153826271Y-131830781D01*
X153786611Y-131824500D01*
X153613389Y-131824500D01*
X153573728Y-131830781D01*
X153442302Y-131851597D01*
X153277552Y-131905128D01*
X153123211Y-131983768D01*
X153048388Y-132038131D01*
X152983072Y-132085586D01*
X152983070Y-132085588D01*
X152983069Y-132085588D01*
X152860588Y-132208069D01*
X152860581Y-132208078D01*
X152800317Y-132291023D01*
X152744987Y-132333689D01*
X152675374Y-132339667D01*
X152613579Y-132307061D01*
X152599683Y-132291023D01*
X152551608Y-132224856D01*
X152539414Y-132208072D01*
X152416928Y-132085586D01*
X152276788Y-131983768D01*
X152122445Y-131905127D01*
X151957701Y-131851598D01*
X151957699Y-131851597D01*
X151957698Y-131851597D01*
X151826271Y-131830781D01*
X151786611Y-131824500D01*
X151613389Y-131824500D01*
X151573728Y-131830781D01*
X151442302Y-131851597D01*
X151277552Y-131905128D01*
X151123211Y-131983768D01*
X151048388Y-132038131D01*
X150983072Y-132085586D01*
X150983070Y-132085588D01*
X150983069Y-132085588D01*
X150860588Y-132208069D01*
X150860581Y-132208078D01*
X150847727Y-132225770D01*
X150792397Y-132268436D01*
X150722784Y-132274414D01*
X150660989Y-132241807D01*
X150647387Y-132224856D01*
X150647193Y-132225011D01*
X150642711Y-132219343D01*
X150518657Y-132095289D01*
X150518656Y-132095288D01*
X150369334Y-132003186D01*
X150202797Y-131948001D01*
X150202795Y-131948000D01*
X150100010Y-131937500D01*
X149299998Y-131937500D01*
X149299980Y-131937501D01*
X149197203Y-131948000D01*
X149197200Y-131948001D01*
X149030668Y-132003185D01*
X149030663Y-132003187D01*
X148881342Y-132095289D01*
X148757289Y-132219342D01*
X148665187Y-132368663D01*
X148665185Y-132368668D01*
X148646255Y-132425797D01*
X148610001Y-132535203D01*
X148610001Y-132535204D01*
X148610000Y-132535204D01*
X148599500Y-132637983D01*
X148599500Y-133762001D01*
X148599501Y-133762018D01*
X148610000Y-133864796D01*
X148610001Y-133864799D01*
X148634656Y-133939202D01*
X148665186Y-134031334D01*
X148757288Y-134180656D01*
X148881344Y-134304712D01*
X149030666Y-134396814D01*
X149197203Y-134451999D01*
X149299991Y-134462500D01*
X150100008Y-134462499D01*
X150100016Y-134462498D01*
X150100019Y-134462498D01*
X150156302Y-134456748D01*
X150202797Y-134451999D01*
X150369334Y-134396814D01*
X150518656Y-134304712D01*
X150642712Y-134180656D01*
X150642715Y-134180650D01*
X150647193Y-134174989D01*
X150648523Y-134176041D01*
X150693794Y-134135305D01*
X150762754Y-134124068D01*
X150826843Y-134151898D01*
X150847726Y-134174228D01*
X150856776Y-134186685D01*
X150860586Y-134191928D01*
X150983072Y-134314414D01*
X151123212Y-134416232D01*
X151277555Y-134494873D01*
X151442299Y-134548402D01*
X151613389Y-134575500D01*
X151613390Y-134575500D01*
X151786610Y-134575500D01*
X151786611Y-134575500D01*
X151957701Y-134548402D01*
X152122445Y-134494873D01*
X152276788Y-134416232D01*
X152416928Y-134314414D01*
X152539414Y-134191928D01*
X152599682Y-134108975D01*
X152655012Y-134066311D01*
X152724626Y-134060332D01*
X152786421Y-134092938D01*
X152800315Y-134108973D01*
X152860586Y-134191928D01*
X152983072Y-134314414D01*
X153123212Y-134416232D01*
X153277555Y-134494873D01*
X153442299Y-134548402D01*
X153613389Y-134575500D01*
X153613390Y-134575500D01*
X153786610Y-134575500D01*
X153786611Y-134575500D01*
X153957701Y-134548402D01*
X154122445Y-134494873D01*
X154276788Y-134416232D01*
X154416928Y-134314414D01*
X154539414Y-134191928D01*
X154599682Y-134108975D01*
X154655012Y-134066311D01*
X154724626Y-134060332D01*
X154786421Y-134092938D01*
X154800315Y-134108973D01*
X154860586Y-134191928D01*
X154983072Y-134314414D01*
X155123212Y-134416232D01*
X155277555Y-134494873D01*
X155442299Y-134548402D01*
X155613389Y-134575500D01*
X155613390Y-134575500D01*
X155786610Y-134575500D01*
X155786611Y-134575500D01*
X155957701Y-134548402D01*
X156122445Y-134494873D01*
X156276788Y-134416232D01*
X156416928Y-134314414D01*
X156539414Y-134191928D01*
X156599991Y-134108550D01*
X156655321Y-134065885D01*
X156724934Y-134059906D01*
X156786729Y-134092512D01*
X156800628Y-134108551D01*
X156860967Y-134191602D01*
X156983397Y-134314032D01*
X157123475Y-134415804D01*
X157277744Y-134494408D01*
X157442415Y-134547914D01*
X157442414Y-134547914D01*
X157449999Y-134549115D01*
X157450000Y-134549114D01*
X157450000Y-133480330D01*
X157469745Y-133500075D01*
X157555255Y-133549444D01*
X157650630Y-133575000D01*
X157749370Y-133575000D01*
X157844745Y-133549444D01*
X157930255Y-133500075D01*
X157950000Y-133480330D01*
X157950000Y-134549115D01*
X157957584Y-134547914D01*
X158122255Y-134494408D01*
X158276524Y-134415804D01*
X158416602Y-134314032D01*
X158539032Y-134191602D01*
X158640804Y-134051524D01*
X158719408Y-133897257D01*
X158772914Y-133732584D01*
X158800000Y-133561571D01*
X158800000Y-133450000D01*
X157980330Y-133450000D01*
X158000075Y-133430255D01*
X158049444Y-133344745D01*
X158075000Y-133249370D01*
X158075000Y-133150630D01*
X158049444Y-133055255D01*
X158000075Y-132969745D01*
X157980330Y-132950000D01*
X158800000Y-132950000D01*
X158800000Y-132838428D01*
X158772914Y-132667415D01*
X158719408Y-132502742D01*
X158640804Y-132348475D01*
X158539032Y-132208397D01*
X158416602Y-132085967D01*
X158276524Y-131984195D01*
X158122257Y-131905591D01*
X157957589Y-131852087D01*
X157957581Y-131852085D01*
X157950000Y-131850884D01*
X157950000Y-132919670D01*
X157930255Y-132899925D01*
X157844745Y-132850556D01*
X157749370Y-132825000D01*
X157650630Y-132825000D01*
X157555255Y-132850556D01*
X157469745Y-132899925D01*
X157450000Y-132919670D01*
X157450000Y-131850884D01*
X157449999Y-131850884D01*
X157442418Y-131852085D01*
X157442410Y-131852087D01*
X157277742Y-131905591D01*
X157123475Y-131984195D01*
X156983397Y-132085967D01*
X156860965Y-132208399D01*
X156860961Y-132208404D01*
X156800627Y-132291448D01*
X156745297Y-132334114D01*
X156675684Y-132340093D01*
X156613889Y-132307488D01*
X156599991Y-132291449D01*
X156599990Y-132291448D01*
X156539414Y-132208072D01*
X156416928Y-132085586D01*
X156382260Y-132060398D01*
X156351613Y-132038131D01*
X156308948Y-131982801D01*
X156300500Y-131937814D01*
X156300500Y-127189060D01*
X156300501Y-127189047D01*
X156300501Y-127020944D01*
X156279432Y-126942315D01*
X156259577Y-126868216D01*
X156249059Y-126849998D01*
X156180524Y-126731290D01*
X156180518Y-126731282D01*
X154287590Y-124838355D01*
X154287588Y-124838352D01*
X154168717Y-124719481D01*
X154168709Y-124719475D01*
X154048389Y-124650009D01*
X154048389Y-124650008D01*
X154048384Y-124650007D01*
X154035916Y-124642808D01*
X154031786Y-124640423D01*
X153993603Y-124630192D01*
X153879057Y-124599499D01*
X153720943Y-124599499D01*
X153713347Y-124599499D01*
X153713331Y-124599500D01*
X148455098Y-124599500D01*
X148388059Y-124579815D01*
X148367417Y-124563181D01*
X146534899Y-122730663D01*
X144666414Y-120862179D01*
X144632930Y-120800857D01*
X144637914Y-120731165D01*
X144679786Y-120675232D01*
X144745250Y-120650815D01*
X144754069Y-120650499D01*
X145692872Y-120650499D01*
X145752483Y-120644091D01*
X145786667Y-120631340D01*
X145856358Y-120626357D01*
X145873327Y-120631338D01*
X145907517Y-120644091D01*
X145967127Y-120650500D01*
X146962872Y-120650499D01*
X147022483Y-120644091D01*
X147056667Y-120631340D01*
X147126358Y-120626357D01*
X147143327Y-120631338D01*
X147177517Y-120644091D01*
X147237127Y-120650500D01*
X148232872Y-120650499D01*
X148292483Y-120644091D01*
X148427331Y-120593796D01*
X148542546Y-120507546D01*
X148628796Y-120392331D01*
X148679091Y-120257483D01*
X148685500Y-120197873D01*
X148685499Y-119224498D01*
X148705183Y-119157460D01*
X148757987Y-119111705D01*
X148809494Y-119100499D01*
X150297872Y-119100499D01*
X150357483Y-119094091D01*
X150492331Y-119043796D01*
X150607546Y-118957546D01*
X150693796Y-118842331D01*
X150697960Y-118831165D01*
X150739829Y-118775234D01*
X150805293Y-118750816D01*
X150814141Y-118750500D01*
X151438331Y-118750500D01*
X151438347Y-118750501D01*
X151445943Y-118750501D01*
X151604054Y-118750501D01*
X151604057Y-118750501D01*
X151756785Y-118709577D01*
X151834633Y-118664631D01*
X151893716Y-118630520D01*
X152005520Y-118518716D01*
X152005520Y-118518714D01*
X152015724Y-118508511D01*
X152015728Y-118508506D01*
X153012416Y-117511818D01*
X153073739Y-117478333D01*
X153100097Y-117475499D01*
X153812502Y-117475499D01*
X153812508Y-117475499D01*
X153915297Y-117464999D01*
X154081834Y-117409814D01*
X154231156Y-117317712D01*
X154355212Y-117193656D01*
X154357252Y-117190347D01*
X154359245Y-117188555D01*
X154359693Y-117187989D01*
X154359789Y-117188065D01*
X154409194Y-117143623D01*
X154478156Y-117132395D01*
X154542240Y-117160234D01*
X154568329Y-117190339D01*
X154570181Y-117193341D01*
X154570183Y-117193344D01*
X154694154Y-117317315D01*
X154843375Y-117409356D01*
X154843380Y-117409358D01*
X155009802Y-117464505D01*
X155009809Y-117464506D01*
X155112519Y-117474999D01*
X155249999Y-117474999D01*
X155750000Y-117474999D01*
X155887472Y-117474999D01*
X155887486Y-117474998D01*
X155990197Y-117464505D01*
X156156619Y-117409358D01*
X156156624Y-117409356D01*
X156305845Y-117317315D01*
X156429815Y-117193345D01*
X156521856Y-117044124D01*
X156521858Y-117044119D01*
X156577005Y-116877697D01*
X156577006Y-116877690D01*
X156587499Y-116774986D01*
X156587500Y-116774973D01*
X156587500Y-116500000D01*
X155750000Y-116500000D01*
X155750000Y-117474999D01*
X155249999Y-117474999D01*
X155250000Y-117474998D01*
X155250000Y-116000000D01*
X155750000Y-116000000D01*
X156587499Y-116000000D01*
X156587499Y-115725028D01*
X156587498Y-115725013D01*
X156577005Y-115622302D01*
X156521858Y-115455880D01*
X156521856Y-115455875D01*
X156429815Y-115306654D01*
X156305845Y-115182684D01*
X156156624Y-115090643D01*
X156156619Y-115090641D01*
X155990197Y-115035494D01*
X155990190Y-115035493D01*
X155887486Y-115025000D01*
X155750000Y-115025000D01*
X155750000Y-116000000D01*
X155250000Y-116000000D01*
X155250000Y-115025000D01*
X155112527Y-115025000D01*
X155112512Y-115025001D01*
X155009802Y-115035494D01*
X154843380Y-115090641D01*
X154843375Y-115090643D01*
X154694154Y-115182684D01*
X154570183Y-115306655D01*
X154570179Y-115306660D01*
X154568326Y-115309665D01*
X154566518Y-115311290D01*
X154565702Y-115312323D01*
X154565525Y-115312183D01*
X154516374Y-115356385D01*
X154447411Y-115367601D01*
X154383331Y-115339752D01*
X154357253Y-115309653D01*
X154357237Y-115309628D01*
X154355212Y-115306344D01*
X154231156Y-115182288D01*
X154084402Y-115091770D01*
X154037679Y-115039823D01*
X154025500Y-114986232D01*
X154025500Y-114007790D01*
X154045185Y-113940751D01*
X154097989Y-113894996D01*
X154106146Y-113891616D01*
X154167331Y-113868796D01*
X154282546Y-113782546D01*
X154368796Y-113667331D01*
X154419091Y-113532483D01*
X154425500Y-113472873D01*
X154425500Y-113472844D01*
X154925000Y-113472844D01*
X154931401Y-113532372D01*
X154931403Y-113532379D01*
X154981645Y-113667086D01*
X154981649Y-113667093D01*
X155067809Y-113782187D01*
X155067812Y-113782190D01*
X155182906Y-113868350D01*
X155182913Y-113868354D01*
X155317620Y-113918596D01*
X155317627Y-113918598D01*
X155377155Y-113924999D01*
X155377172Y-113925000D01*
X155500000Y-113925000D01*
X156000000Y-113925000D01*
X156122828Y-113925000D01*
X156122844Y-113924999D01*
X156182372Y-113918598D01*
X156182379Y-113918596D01*
X156317086Y-113868354D01*
X156317093Y-113868350D01*
X156432187Y-113782190D01*
X156432190Y-113782187D01*
X156518350Y-113667093D01*
X156518354Y-113667086D01*
X156568596Y-113532379D01*
X156568598Y-113532372D01*
X156574999Y-113472844D01*
X156575000Y-113472827D01*
X156575000Y-113150000D01*
X156000000Y-113150000D01*
X156000000Y-113925000D01*
X155500000Y-113925000D01*
X155500000Y-113150000D01*
X154925000Y-113150000D01*
X154925000Y-113472844D01*
X154425500Y-113472844D01*
X154425499Y-112327155D01*
X154925000Y-112327155D01*
X154925000Y-112650000D01*
X155500000Y-112650000D01*
X156000000Y-112650000D01*
X156575000Y-112650000D01*
X156575000Y-112327172D01*
X156574999Y-112327155D01*
X156568598Y-112267627D01*
X156568596Y-112267620D01*
X156518354Y-112132913D01*
X156518350Y-112132906D01*
X156432190Y-112017812D01*
X156432187Y-112017809D01*
X156317093Y-111931649D01*
X156317086Y-111931645D01*
X156182379Y-111881403D01*
X156182372Y-111881401D01*
X156122844Y-111875000D01*
X156000000Y-111875000D01*
X156000000Y-112650000D01*
X155500000Y-112650000D01*
X155500000Y-111875000D01*
X155377155Y-111875000D01*
X155317627Y-111881401D01*
X155317620Y-111881403D01*
X155182913Y-111931645D01*
X155182906Y-111931649D01*
X155067812Y-112017809D01*
X155067809Y-112017812D01*
X154981649Y-112132906D01*
X154981645Y-112132913D01*
X154931403Y-112267620D01*
X154931401Y-112267627D01*
X154925000Y-112327155D01*
X154425499Y-112327155D01*
X154425499Y-112327128D01*
X154419091Y-112267517D01*
X154403230Y-112224992D01*
X154368797Y-112132671D01*
X154368793Y-112132664D01*
X154282548Y-112017457D01*
X154282546Y-112017454D01*
X154282544Y-112017452D01*
X154282542Y-112017450D01*
X154250188Y-111993230D01*
X154208318Y-111937296D01*
X154200500Y-111893964D01*
X154200500Y-109756034D01*
X154220185Y-109688995D01*
X154250185Y-109656770D01*
X154282546Y-109632546D01*
X154368796Y-109517331D01*
X154419091Y-109382483D01*
X154425500Y-109322873D01*
X154425500Y-109322844D01*
X154925000Y-109322844D01*
X154931401Y-109382372D01*
X154931403Y-109382379D01*
X154981645Y-109517086D01*
X154981649Y-109517093D01*
X155067809Y-109632187D01*
X155067812Y-109632190D01*
X155182906Y-109718350D01*
X155182913Y-109718354D01*
X155317620Y-109768596D01*
X155317627Y-109768598D01*
X155377155Y-109774999D01*
X155377172Y-109775000D01*
X155500000Y-109775000D01*
X156000000Y-109775000D01*
X156122828Y-109775000D01*
X156122844Y-109774999D01*
X156182372Y-109768598D01*
X156182379Y-109768596D01*
X156317086Y-109718354D01*
X156317093Y-109718350D01*
X156432187Y-109632190D01*
X156432190Y-109632187D01*
X156518350Y-109517093D01*
X156518354Y-109517086D01*
X156568596Y-109382379D01*
X156568598Y-109382372D01*
X156574999Y-109322844D01*
X156575000Y-109322827D01*
X156575000Y-109000000D01*
X156000000Y-109000000D01*
X156000000Y-109775000D01*
X155500000Y-109775000D01*
X155500000Y-109000000D01*
X154925000Y-109000000D01*
X154925000Y-109322844D01*
X154425500Y-109322844D01*
X154425499Y-108287999D01*
X154445183Y-108220961D01*
X154497987Y-108175206D01*
X154549499Y-108164000D01*
X154801000Y-108164000D01*
X154868039Y-108183685D01*
X154913794Y-108236489D01*
X154925000Y-108288000D01*
X154925000Y-108500000D01*
X156575000Y-108500000D01*
X156575000Y-108258948D01*
X156594685Y-108191909D01*
X156647489Y-108146154D01*
X156666899Y-108139175D01*
X156717696Y-108125565D01*
X156729559Y-108118716D01*
X156846304Y-108051313D01*
X156951313Y-107946304D01*
X156951313Y-107946302D01*
X156961517Y-107936099D01*
X156961521Y-107936094D01*
X158160798Y-106736816D01*
X158222119Y-106703333D01*
X158248468Y-106700499D01*
X159000008Y-106700499D01*
X159000016Y-106700498D01*
X159000019Y-106700498D01*
X159056302Y-106694748D01*
X159102797Y-106689999D01*
X159269334Y-106634814D01*
X159418656Y-106542712D01*
X159512319Y-106449049D01*
X159573642Y-106415564D01*
X159643334Y-106420548D01*
X159687681Y-106449049D01*
X159781344Y-106542712D01*
X159930666Y-106634814D01*
X160097203Y-106689999D01*
X160199991Y-106700500D01*
X161000008Y-106700499D01*
X161000016Y-106700498D01*
X161000019Y-106700498D01*
X161056302Y-106694748D01*
X161102797Y-106689999D01*
X161269334Y-106634814D01*
X161418656Y-106542712D01*
X161542712Y-106418656D01*
X161634814Y-106269334D01*
X161689999Y-106102797D01*
X161700500Y-106000009D01*
X161700499Y-104999992D01*
X161695608Y-104952116D01*
X161689999Y-104897203D01*
X161689998Y-104897200D01*
X161664663Y-104820745D01*
X161634814Y-104730666D01*
X161542712Y-104581344D01*
X161418656Y-104457288D01*
X161418655Y-104457287D01*
X161364063Y-104423615D01*
X161317338Y-104371667D01*
X161306115Y-104302705D01*
X161322840Y-104255821D01*
X161322771Y-104255788D01*
X161323086Y-104255132D01*
X161324167Y-104252101D01*
X161325789Y-104249522D01*
X161385368Y-104079255D01*
X161385369Y-104079249D01*
X161405565Y-103900003D01*
X161405565Y-103899996D01*
X161385369Y-103720750D01*
X161385368Y-103720745D01*
X161363937Y-103659500D01*
X161325789Y-103550478D01*
X161229816Y-103397738D01*
X161102262Y-103270184D01*
X160949523Y-103174211D01*
X160779254Y-103114631D01*
X160779249Y-103114630D01*
X160600004Y-103094435D01*
X160599996Y-103094435D01*
X160420750Y-103114630D01*
X160420745Y-103114631D01*
X160250476Y-103174211D01*
X160097737Y-103270184D01*
X159970184Y-103397737D01*
X159874211Y-103550476D01*
X159814631Y-103720745D01*
X159814630Y-103720750D01*
X159794435Y-103899996D01*
X159794435Y-103900003D01*
X159814630Y-104079249D01*
X159814631Y-104079254D01*
X159874212Y-104249525D01*
X159875833Y-104252105D01*
X159876371Y-104254009D01*
X159877231Y-104255795D01*
X159876918Y-104255945D01*
X159894833Y-104319342D01*
X159874465Y-104386177D01*
X159835937Y-104423614D01*
X159781344Y-104457287D01*
X159781343Y-104457288D01*
X159687681Y-104550951D01*
X159626358Y-104584436D01*
X159556666Y-104579452D01*
X159512319Y-104550951D01*
X159418657Y-104457289D01*
X159418656Y-104457288D01*
X159302927Y-104385906D01*
X159269336Y-104365187D01*
X159269331Y-104365185D01*
X159222063Y-104349522D01*
X159102797Y-104310001D01*
X159102795Y-104310000D01*
X159000010Y-104299500D01*
X158199998Y-104299500D01*
X158199980Y-104299501D01*
X158097203Y-104310000D01*
X158097200Y-104310001D01*
X157930668Y-104365185D01*
X157930663Y-104365187D01*
X157781342Y-104457289D01*
X157657289Y-104581342D01*
X157565187Y-104730663D01*
X157565185Y-104730668D01*
X157551600Y-104771666D01*
X157510001Y-104897203D01*
X157510001Y-104897204D01*
X157510000Y-104897204D01*
X157499500Y-104999983D01*
X157499500Y-105751521D01*
X157479815Y-105818560D01*
X157463181Y-105839202D01*
X156956969Y-106345414D01*
X156895646Y-106378899D01*
X156825954Y-106373915D01*
X156770021Y-106332043D01*
X156745604Y-106266579D01*
X156751581Y-106218733D01*
X156789999Y-106102797D01*
X156800500Y-106000009D01*
X156800499Y-104999992D01*
X156795608Y-104952116D01*
X156789999Y-104897203D01*
X156789998Y-104897200D01*
X156764663Y-104820745D01*
X156734814Y-104730666D01*
X156642712Y-104581344D01*
X156518656Y-104457288D01*
X156518655Y-104457287D01*
X156496142Y-104443401D01*
X156449418Y-104391453D01*
X156438197Y-104322490D01*
X156444199Y-104296908D01*
X156478206Y-104199723D01*
X156485367Y-104179259D01*
X156485369Y-104179249D01*
X156505565Y-104000003D01*
X156505565Y-103999996D01*
X156485369Y-103820750D01*
X156485368Y-103820745D01*
X156436862Y-103682123D01*
X156425789Y-103650478D01*
X156329816Y-103497738D01*
X156202262Y-103370184D01*
X156198933Y-103368092D01*
X156049523Y-103274211D01*
X155879254Y-103214631D01*
X155879249Y-103214630D01*
X155700004Y-103194435D01*
X155699996Y-103194435D01*
X155520750Y-103214630D01*
X155520745Y-103214631D01*
X155350476Y-103274211D01*
X155197737Y-103370184D01*
X155070184Y-103497737D01*
X154974211Y-103650476D01*
X154914631Y-103820745D01*
X154914630Y-103820750D01*
X154894435Y-103999996D01*
X154894435Y-104000003D01*
X154914630Y-104179249D01*
X154914633Y-104179262D01*
X154955800Y-104296908D01*
X154959362Y-104366687D01*
X154924634Y-104427314D01*
X154903858Y-104443400D01*
X154881347Y-104457285D01*
X154881343Y-104457288D01*
X154787681Y-104550951D01*
X154726358Y-104584436D01*
X154656666Y-104579452D01*
X154612319Y-104550951D01*
X154518657Y-104457289D01*
X154518656Y-104457288D01*
X154402927Y-104385906D01*
X154369336Y-104365187D01*
X154369331Y-104365185D01*
X154322063Y-104349522D01*
X154202797Y-104310001D01*
X154202795Y-104310000D01*
X154100010Y-104299500D01*
X153299998Y-104299500D01*
X153299980Y-104299501D01*
X153197203Y-104310000D01*
X153197200Y-104310001D01*
X153030668Y-104365185D01*
X153030663Y-104365187D01*
X152881342Y-104457289D01*
X152757289Y-104581342D01*
X152665187Y-104730663D01*
X152665185Y-104730668D01*
X152651600Y-104771666D01*
X152610001Y-104897203D01*
X152610001Y-104897204D01*
X152610000Y-104897204D01*
X152599500Y-104999983D01*
X152599500Y-105751521D01*
X152579815Y-105818560D01*
X152563181Y-105839202D01*
X150941859Y-107460523D01*
X150880536Y-107494008D01*
X150810844Y-107489024D01*
X150754911Y-107447152D01*
X150737997Y-107416177D01*
X150731342Y-107398335D01*
X150726356Y-107328644D01*
X150731340Y-107311669D01*
X150744091Y-107277483D01*
X150750500Y-107217873D01*
X150750499Y-106222128D01*
X150744091Y-106162517D01*
X150731340Y-106128332D01*
X150726357Y-106058642D01*
X150731340Y-106041669D01*
X150744091Y-106007483D01*
X150750500Y-105947873D01*
X150750499Y-104952128D01*
X150744091Y-104892517D01*
X150731340Y-104858332D01*
X150726357Y-104788642D01*
X150731340Y-104771669D01*
X150744091Y-104737483D01*
X150750500Y-104677873D01*
X150750499Y-103682128D01*
X150744091Y-103622517D01*
X150731340Y-103588332D01*
X150726357Y-103518642D01*
X150731340Y-103501669D01*
X150744091Y-103467483D01*
X150750500Y-103407873D01*
X150750500Y-102981902D01*
X162899500Y-102981902D01*
X162899500Y-103218097D01*
X162936446Y-103451368D01*
X163009433Y-103675996D01*
X163085863Y-103825996D01*
X163116657Y-103886433D01*
X163255483Y-104077510D01*
X163422490Y-104244517D01*
X163613567Y-104383343D01*
X163692605Y-104423615D01*
X163824003Y-104490566D01*
X163824005Y-104490566D01*
X163824008Y-104490568D01*
X163913762Y-104519731D01*
X164048631Y-104563553D01*
X164281903Y-104600500D01*
X164281908Y-104600500D01*
X164518097Y-104600500D01*
X164751368Y-104563553D01*
X164975992Y-104490568D01*
X165186433Y-104383343D01*
X165377510Y-104244517D01*
X165544517Y-104077510D01*
X165683343Y-103886433D01*
X165790568Y-103675992D01*
X165863553Y-103451368D01*
X165870440Y-103407883D01*
X165900500Y-103218097D01*
X165900500Y-102981902D01*
X165863553Y-102748631D01*
X165790566Y-102524003D01*
X165705159Y-102356383D01*
X165683343Y-102313567D01*
X165544517Y-102122490D01*
X165377510Y-101955483D01*
X165186433Y-101816657D01*
X165127141Y-101786446D01*
X164975996Y-101709433D01*
X164751368Y-101636446D01*
X164518097Y-101599500D01*
X164518092Y-101599500D01*
X164281908Y-101599500D01*
X164281903Y-101599500D01*
X164048631Y-101636446D01*
X163824003Y-101709433D01*
X163613566Y-101816657D01*
X163583607Y-101838424D01*
X163422490Y-101955483D01*
X163422488Y-101955485D01*
X163422487Y-101955485D01*
X163255485Y-102122487D01*
X163255485Y-102122488D01*
X163255483Y-102122490D01*
X163201078Y-102197372D01*
X163116657Y-102313566D01*
X163009433Y-102524003D01*
X162936446Y-102748631D01*
X162899500Y-102981902D01*
X150750500Y-102981902D01*
X150750499Y-102412128D01*
X150744091Y-102352517D01*
X150731073Y-102317616D01*
X150726090Y-102247926D01*
X150731075Y-102230949D01*
X150743597Y-102197375D01*
X150743598Y-102197372D01*
X150749999Y-102137844D01*
X150750000Y-102137827D01*
X150750000Y-101890000D01*
X148250000Y-101890000D01*
X148250000Y-102137844D01*
X148256401Y-102197372D01*
X148256403Y-102197379D01*
X148268925Y-102230952D01*
X148273909Y-102300643D01*
X148268925Y-102317617D01*
X148255909Y-102352514D01*
X148255908Y-102352516D01*
X148249501Y-102412116D01*
X148249501Y-102412123D01*
X148249500Y-102412135D01*
X148249500Y-103407870D01*
X148249501Y-103407876D01*
X148255908Y-103467481D01*
X148268659Y-103501669D01*
X148273642Y-103571361D01*
X148268659Y-103588331D01*
X148255908Y-103622518D01*
X148250159Y-103675996D01*
X148249501Y-103682123D01*
X148249500Y-103682135D01*
X148249500Y-104677870D01*
X148249501Y-104677876D01*
X148255908Y-104737481D01*
X148268659Y-104771669D01*
X148273642Y-104841361D01*
X148268659Y-104858331D01*
X148255908Y-104892518D01*
X148249501Y-104952116D01*
X148249501Y-104952123D01*
X148249500Y-104952135D01*
X148249500Y-105947870D01*
X148249501Y-105947876D01*
X148255908Y-106007481D01*
X148268659Y-106041669D01*
X148273642Y-106111361D01*
X148268659Y-106128331D01*
X148255908Y-106162518D01*
X148249886Y-106218533D01*
X148249501Y-106222123D01*
X148249500Y-106222135D01*
X148249500Y-107217870D01*
X148249501Y-107217873D01*
X148255908Y-107277481D01*
X148268659Y-107311669D01*
X148273642Y-107381361D01*
X148268659Y-107398331D01*
X148255908Y-107432518D01*
X148249501Y-107492116D01*
X148249500Y-107492135D01*
X148249500Y-108487870D01*
X148249501Y-108487876D01*
X148255908Y-108547481D01*
X148268659Y-108581669D01*
X148273642Y-108651361D01*
X148268659Y-108668331D01*
X148255908Y-108702518D01*
X148249501Y-108762116D01*
X148249501Y-108762123D01*
X148249500Y-108762135D01*
X148249500Y-109757870D01*
X148249501Y-109757876D01*
X148255908Y-109817481D01*
X148268659Y-109851669D01*
X148273642Y-109921361D01*
X148268659Y-109938331D01*
X148255908Y-109972518D01*
X148249501Y-110032116D01*
X148249501Y-110032123D01*
X148249500Y-110032135D01*
X148249500Y-111027870D01*
X148249501Y-111027876D01*
X148255908Y-111087481D01*
X148268659Y-111121669D01*
X148273642Y-111191361D01*
X148268659Y-111208331D01*
X148255908Y-111242518D01*
X148249501Y-111302116D01*
X148249501Y-111302123D01*
X148249500Y-111302135D01*
X148249500Y-112297870D01*
X148249501Y-112297876D01*
X148255908Y-112357481D01*
X148268659Y-112391669D01*
X148273642Y-112461361D01*
X148268659Y-112478331D01*
X148255908Y-112512518D01*
X148249501Y-112572116D01*
X148249501Y-112572123D01*
X148249500Y-112572135D01*
X148249500Y-113567870D01*
X148249501Y-113567876D01*
X148255908Y-113627481D01*
X148268659Y-113661669D01*
X148273642Y-113731361D01*
X148268659Y-113748331D01*
X148255908Y-113782518D01*
X148251798Y-113820750D01*
X148249501Y-113842123D01*
X148249500Y-113842135D01*
X148249500Y-114837870D01*
X148249501Y-114837876D01*
X148255908Y-114897481D01*
X148268659Y-114931669D01*
X148273642Y-115001361D01*
X148268659Y-115018331D01*
X148255908Y-115052518D01*
X148249501Y-115112116D01*
X148249501Y-115112123D01*
X148249500Y-115112135D01*
X148249500Y-116107870D01*
X148249501Y-116107876D01*
X148255908Y-116167481D01*
X148268659Y-116201669D01*
X148273642Y-116271361D01*
X148268659Y-116288331D01*
X148255908Y-116322518D01*
X148250942Y-116368713D01*
X148249501Y-116382123D01*
X148249500Y-116382135D01*
X148249500Y-117377870D01*
X148249501Y-117377876D01*
X148255908Y-117437481D01*
X148268659Y-117471669D01*
X148273642Y-117541361D01*
X148268659Y-117558331D01*
X148255908Y-117592518D01*
X148249501Y-117652116D01*
X148249500Y-117652135D01*
X148249500Y-118025500D01*
X148229815Y-118092539D01*
X148177011Y-118138294D01*
X148125500Y-118149500D01*
X147237129Y-118149500D01*
X147237123Y-118149501D01*
X147177518Y-118155908D01*
X147143331Y-118168659D01*
X147073639Y-118173642D01*
X147056669Y-118168659D01*
X147022480Y-118155908D01*
X147022482Y-118155908D01*
X146962883Y-118149501D01*
X146962881Y-118149500D01*
X146962873Y-118149500D01*
X146962864Y-118149500D01*
X145967129Y-118149500D01*
X145967123Y-118149501D01*
X145907518Y-118155908D01*
X145873331Y-118168659D01*
X145803639Y-118173642D01*
X145786669Y-118168659D01*
X145752480Y-118155908D01*
X145752482Y-118155908D01*
X145692883Y-118149501D01*
X145692881Y-118149500D01*
X145692873Y-118149500D01*
X145692864Y-118149500D01*
X144697129Y-118149500D01*
X144697123Y-118149501D01*
X144637518Y-118155908D01*
X144603331Y-118168659D01*
X144533639Y-118173642D01*
X144516669Y-118168659D01*
X144482480Y-118155908D01*
X144482482Y-118155908D01*
X144422883Y-118149501D01*
X144422881Y-118149500D01*
X144422873Y-118149500D01*
X144422864Y-118149500D01*
X143427129Y-118149500D01*
X143427123Y-118149501D01*
X143367518Y-118155908D01*
X143333331Y-118168659D01*
X143263639Y-118173642D01*
X143246669Y-118168659D01*
X143212480Y-118155908D01*
X143212482Y-118155908D01*
X143152883Y-118149501D01*
X143152881Y-118149500D01*
X143152873Y-118149500D01*
X143152864Y-118149500D01*
X142157129Y-118149500D01*
X142157123Y-118149501D01*
X142097518Y-118155908D01*
X142063331Y-118168659D01*
X141993639Y-118173642D01*
X141976669Y-118168659D01*
X141942480Y-118155908D01*
X141942482Y-118155908D01*
X141882883Y-118149501D01*
X141882881Y-118149500D01*
X141882873Y-118149500D01*
X141882864Y-118149500D01*
X140887129Y-118149500D01*
X140887123Y-118149501D01*
X140827518Y-118155908D01*
X140793331Y-118168659D01*
X140723639Y-118173642D01*
X140706669Y-118168659D01*
X140672480Y-118155908D01*
X140672482Y-118155908D01*
X140612883Y-118149501D01*
X140612881Y-118149500D01*
X140612873Y-118149500D01*
X140612864Y-118149500D01*
X139617129Y-118149500D01*
X139617123Y-118149501D01*
X139557518Y-118155908D01*
X139523331Y-118168659D01*
X139453639Y-118173642D01*
X139436669Y-118168659D01*
X139402480Y-118155908D01*
X139402482Y-118155908D01*
X139342883Y-118149501D01*
X139342881Y-118149500D01*
X139342873Y-118149500D01*
X139342864Y-118149500D01*
X138347129Y-118149500D01*
X138347123Y-118149501D01*
X138287518Y-118155908D01*
X138253331Y-118168659D01*
X138183639Y-118173642D01*
X138166669Y-118168659D01*
X138132480Y-118155908D01*
X138132482Y-118155908D01*
X138072883Y-118149501D01*
X138072881Y-118149500D01*
X138072873Y-118149500D01*
X138072865Y-118149500D01*
X137780404Y-118149500D01*
X137713365Y-118129815D01*
X137667610Y-118077011D01*
X137657666Y-118007853D01*
X137679571Y-117957181D01*
X137678046Y-117956223D01*
X137777723Y-117797588D01*
X137777724Y-117797587D01*
X137837303Y-117627320D01*
X137837895Y-117622069D01*
X137857500Y-117448068D01*
X137857500Y-117448061D01*
X137837304Y-117268815D01*
X137837303Y-117268810D01*
X137828102Y-117242516D01*
X137777724Y-117098543D01*
X137773182Y-117091315D01*
X137711064Y-116992454D01*
X137681751Y-116945803D01*
X137554197Y-116818249D01*
X137501869Y-116785369D01*
X137401458Y-116722276D01*
X137231189Y-116662696D01*
X137231184Y-116662695D01*
X137051939Y-116642500D01*
X137051931Y-116642500D01*
X136872685Y-116662695D01*
X136872680Y-116662696D01*
X136714213Y-116718147D01*
X136673220Y-116722378D01*
X136673220Y-116725100D01*
X134447040Y-116725100D01*
X134380001Y-116705415D01*
X134359359Y-116688781D01*
X134079105Y-116408527D01*
X134079099Y-116408522D01*
X133947601Y-116332602D01*
X133947600Y-116332601D01*
X133947599Y-116332601D01*
X133800925Y-116293300D01*
X133800924Y-116293300D01*
X133368610Y-116293300D01*
X133301571Y-116273615D01*
X133255816Y-116220811D01*
X133245321Y-116156045D01*
X133246378Y-116146203D01*
X133250500Y-116107873D01*
X133250499Y-115112128D01*
X133244091Y-115052517D01*
X133231340Y-115018332D01*
X133226357Y-114948642D01*
X133231340Y-114931669D01*
X133244091Y-114897483D01*
X133250500Y-114837873D01*
X133250499Y-113842128D01*
X133244091Y-113782517D01*
X133231340Y-113748332D01*
X133226357Y-113678642D01*
X133231340Y-113661669D01*
X133244091Y-113627483D01*
X133250500Y-113567873D01*
X133250499Y-112572128D01*
X133244091Y-112512517D01*
X133231340Y-112478332D01*
X133226357Y-112408642D01*
X133231340Y-112391669D01*
X133244091Y-112357483D01*
X133250500Y-112297873D01*
X133250499Y-111302128D01*
X133244091Y-111242517D01*
X133231340Y-111208332D01*
X133226357Y-111138642D01*
X133231340Y-111121669D01*
X133244091Y-111087483D01*
X133250500Y-111027873D01*
X133250499Y-110032128D01*
X133244091Y-109972517D01*
X133231340Y-109938332D01*
X133226357Y-109868642D01*
X133231340Y-109851669D01*
X133244091Y-109817483D01*
X133250500Y-109757873D01*
X133250499Y-108762128D01*
X133244091Y-108702517D01*
X133231340Y-108668332D01*
X133226357Y-108598642D01*
X133231332Y-108581691D01*
X133231340Y-108581669D01*
X133232115Y-108579591D01*
X133273973Y-108523651D01*
X133339432Y-108499220D01*
X133407708Y-108514057D01*
X133435986Y-108535221D01*
X136390180Y-111489415D01*
X136423665Y-111550738D01*
X136424883Y-111562070D01*
X136425438Y-111561997D01*
X136426498Y-111570054D01*
X136458208Y-111688394D01*
X136467423Y-111722785D01*
X136487477Y-111757519D01*
X136532056Y-111834733D01*
X136546479Y-111859714D01*
X136546481Y-111859717D01*
X136665349Y-111978585D01*
X136665355Y-111978590D01*
X141051139Y-116364374D01*
X141051149Y-116364385D01*
X141055479Y-116368715D01*
X141055480Y-116368716D01*
X141167284Y-116480520D01*
X141208716Y-116504440D01*
X141254095Y-116530639D01*
X141254097Y-116530641D01*
X141292151Y-116552611D01*
X141304215Y-116559577D01*
X141456943Y-116600501D01*
X141456946Y-116600501D01*
X141622653Y-116600501D01*
X141622669Y-116600500D01*
X143617588Y-116600500D01*
X143684627Y-116620185D01*
X143694903Y-116627555D01*
X143697736Y-116629814D01*
X143697738Y-116629816D01*
X143850478Y-116725789D01*
X143991038Y-116774973D01*
X144020745Y-116785368D01*
X144020750Y-116785369D01*
X144199996Y-116805565D01*
X144200000Y-116805565D01*
X144200004Y-116805565D01*
X144379249Y-116785369D01*
X144379252Y-116785368D01*
X144379255Y-116785368D01*
X144549522Y-116725789D01*
X144702262Y-116629816D01*
X144829816Y-116502262D01*
X144925789Y-116349522D01*
X144985368Y-116179255D01*
X144986695Y-116167483D01*
X145005565Y-116000000D01*
X145005565Y-115999996D01*
X144985369Y-115820750D01*
X144985368Y-115820745D01*
X144951870Y-115725013D01*
X144925789Y-115650478D01*
X144829816Y-115497738D01*
X144702262Y-115370184D01*
X144610177Y-115312323D01*
X144549523Y-115274211D01*
X144379254Y-115214631D01*
X144379249Y-115214630D01*
X144200004Y-115194435D01*
X144199996Y-115194435D01*
X144020750Y-115214630D01*
X144020745Y-115214631D01*
X143850476Y-115274211D01*
X143697736Y-115370185D01*
X143694903Y-115372445D01*
X143692724Y-115373334D01*
X143691842Y-115373889D01*
X143691744Y-115373734D01*
X143630217Y-115398855D01*
X143617588Y-115399500D01*
X141836097Y-115399500D01*
X141769058Y-115379815D01*
X141748416Y-115363181D01*
X138406916Y-112021681D01*
X138373431Y-111960358D01*
X138378415Y-111890666D01*
X138420287Y-111834733D01*
X138485751Y-111810316D01*
X138494597Y-111810000D01*
X139000000Y-111810000D01*
X139000000Y-110663553D01*
X138999999Y-110663552D01*
X139500000Y-110663552D01*
X139500000Y-111810000D01*
X141247828Y-111810000D01*
X141247844Y-111809999D01*
X141307372Y-111803598D01*
X141307379Y-111803596D01*
X141442086Y-111753354D01*
X141442093Y-111753350D01*
X141557187Y-111667190D01*
X141557190Y-111667187D01*
X141643350Y-111552093D01*
X141643354Y-111552086D01*
X141693596Y-111417379D01*
X141693598Y-111417372D01*
X141699999Y-111357844D01*
X141700000Y-111357827D01*
X141700000Y-109610000D01*
X140553553Y-109610000D01*
X140739095Y-109795542D01*
X140772580Y-109856865D01*
X140767596Y-109926557D01*
X140739096Y-109970904D01*
X140720710Y-109989289D01*
X140706645Y-109975224D01*
X140669891Y-109960000D01*
X140630109Y-109960000D01*
X140593355Y-109975224D01*
X140565224Y-110003355D01*
X140550000Y-110040109D01*
X140550000Y-110079891D01*
X140565224Y-110116645D01*
X140593355Y-110144776D01*
X140630109Y-110160000D01*
X140669891Y-110160000D01*
X140706645Y-110144776D01*
X140720710Y-110130710D01*
X140739095Y-110149095D01*
X140772580Y-110210418D01*
X140767596Y-110280110D01*
X140739095Y-110324457D01*
X140480330Y-110583223D01*
X140214457Y-110849095D01*
X140153134Y-110882580D01*
X140083442Y-110877596D01*
X140039095Y-110849095D01*
X140020710Y-110830710D01*
X140034776Y-110816645D01*
X140050000Y-110779891D01*
X140050000Y-110740109D01*
X140034776Y-110703355D01*
X140006645Y-110675224D01*
X139969891Y-110660000D01*
X139930109Y-110660000D01*
X139893355Y-110675224D01*
X139865224Y-110703355D01*
X139850000Y-110740109D01*
X139850000Y-110779891D01*
X139865224Y-110816645D01*
X139879289Y-110830710D01*
X139860904Y-110849096D01*
X139799581Y-110882580D01*
X139729889Y-110877596D01*
X139685542Y-110849095D01*
X139500000Y-110663552D01*
X138999999Y-110663552D01*
X138814457Y-110849095D01*
X138753134Y-110882580D01*
X138683442Y-110877596D01*
X138639095Y-110849095D01*
X138620710Y-110830710D01*
X138634776Y-110816645D01*
X138650000Y-110779891D01*
X138650000Y-110740109D01*
X138634776Y-110703355D01*
X138606645Y-110675224D01*
X138569891Y-110660000D01*
X138530109Y-110660000D01*
X138493355Y-110675224D01*
X138465224Y-110703355D01*
X138450000Y-110740109D01*
X138450000Y-110779891D01*
X138465224Y-110816645D01*
X138479289Y-110830710D01*
X138460904Y-110849096D01*
X138399581Y-110882580D01*
X138329889Y-110877596D01*
X138285542Y-110849095D01*
X137760904Y-110324457D01*
X137727419Y-110263134D01*
X137732403Y-110193442D01*
X137760904Y-110149094D01*
X137779288Y-110130709D01*
X137793355Y-110144776D01*
X137830109Y-110160000D01*
X137869891Y-110160000D01*
X137906645Y-110144776D01*
X137934776Y-110116645D01*
X137950000Y-110079891D01*
X137950000Y-110060000D01*
X138203553Y-110060000D01*
X138376776Y-110233223D01*
X138550000Y-110406446D01*
X138550001Y-110406446D01*
X138723223Y-110233223D01*
X138896446Y-110060000D01*
X138896446Y-110059999D01*
X138876556Y-110040109D01*
X139150000Y-110040109D01*
X139150000Y-110079891D01*
X139165224Y-110116645D01*
X139193355Y-110144776D01*
X139230109Y-110160000D01*
X139269891Y-110160000D01*
X139306645Y-110144776D01*
X139334776Y-110116645D01*
X139350000Y-110079891D01*
X139350000Y-110060000D01*
X139603553Y-110060000D01*
X139776776Y-110233223D01*
X139950000Y-110406446D01*
X139950001Y-110406446D01*
X140123223Y-110233223D01*
X140296446Y-110060000D01*
X140296446Y-110059999D01*
X139950000Y-109713553D01*
X139603553Y-110060000D01*
X139350000Y-110060000D01*
X139350000Y-110040109D01*
X139334776Y-110003355D01*
X139306645Y-109975224D01*
X139269891Y-109960000D01*
X139230109Y-109960000D01*
X139193355Y-109975224D01*
X139165224Y-110003355D01*
X139150000Y-110040109D01*
X138876556Y-110040109D01*
X138550000Y-109713553D01*
X138203553Y-110060000D01*
X137950000Y-110060000D01*
X137950000Y-110040109D01*
X137934776Y-110003355D01*
X137906645Y-109975224D01*
X137869891Y-109960000D01*
X137830109Y-109960000D01*
X137793355Y-109975224D01*
X137779289Y-109989289D01*
X137760904Y-109970904D01*
X137727419Y-109909581D01*
X137732403Y-109839889D01*
X137760904Y-109795542D01*
X137946446Y-109610000D01*
X136800000Y-109610000D01*
X136800000Y-109901403D01*
X136780315Y-109968442D01*
X136727511Y-110014197D01*
X136658353Y-110024141D01*
X136594797Y-109995116D01*
X136588319Y-109989084D01*
X135929398Y-109330163D01*
X138400000Y-109330163D01*
X138400000Y-109389837D01*
X138422836Y-109444968D01*
X138465032Y-109487164D01*
X138520163Y-109510000D01*
X138579837Y-109510000D01*
X138634968Y-109487164D01*
X138677164Y-109444968D01*
X138700000Y-109389837D01*
X138700000Y-109340109D01*
X139850000Y-109340109D01*
X139850000Y-109379891D01*
X139865224Y-109416645D01*
X139893355Y-109444776D01*
X139930109Y-109460000D01*
X139969891Y-109460000D01*
X140006645Y-109444776D01*
X140034776Y-109416645D01*
X140050000Y-109379891D01*
X140050000Y-109340109D01*
X140034776Y-109303355D01*
X140006645Y-109275224D01*
X139969891Y-109260000D01*
X139930109Y-109260000D01*
X139893355Y-109275224D01*
X139865224Y-109303355D01*
X139850000Y-109340109D01*
X138700000Y-109340109D01*
X138700000Y-109330163D01*
X138677164Y-109275032D01*
X138634968Y-109232836D01*
X138579837Y-109210000D01*
X138520163Y-109210000D01*
X138465032Y-109232836D01*
X138422836Y-109275032D01*
X138400000Y-109330163D01*
X135929398Y-109330163D01*
X133961390Y-107362155D01*
X136800000Y-107362155D01*
X136800000Y-109110000D01*
X137946446Y-109110000D01*
X137946446Y-109109999D01*
X137760904Y-108924457D01*
X137727419Y-108863134D01*
X137732403Y-108793442D01*
X137747624Y-108769756D01*
X137765032Y-108787164D01*
X137820163Y-108810000D01*
X137879837Y-108810000D01*
X137934968Y-108787164D01*
X137977164Y-108744968D01*
X138000000Y-108689837D01*
X138000000Y-108660000D01*
X138203553Y-108660000D01*
X138376776Y-108833223D01*
X138550000Y-109006446D01*
X138550001Y-109006446D01*
X138723223Y-108833223D01*
X138896446Y-108660000D01*
X138896446Y-108659999D01*
X138876556Y-108640109D01*
X139150000Y-108640109D01*
X139150000Y-108679891D01*
X139165224Y-108716645D01*
X139193355Y-108744776D01*
X139230109Y-108760000D01*
X139269891Y-108760000D01*
X139306645Y-108744776D01*
X139334776Y-108716645D01*
X139350000Y-108679891D01*
X139350000Y-108660000D01*
X139603553Y-108660000D01*
X139776776Y-108833223D01*
X139950000Y-109006446D01*
X139950001Y-109006446D01*
X140123223Y-108833223D01*
X140296446Y-108660000D01*
X140296446Y-108659999D01*
X139950000Y-108313553D01*
X139603553Y-108660000D01*
X139350000Y-108660000D01*
X139350000Y-108640109D01*
X139334776Y-108603355D01*
X139306645Y-108575224D01*
X139269891Y-108560000D01*
X139230109Y-108560000D01*
X139193355Y-108575224D01*
X139165224Y-108603355D01*
X139150000Y-108640109D01*
X138876556Y-108640109D01*
X138550000Y-108313553D01*
X138203553Y-108660000D01*
X138000000Y-108660000D01*
X138000000Y-108630163D01*
X137977164Y-108575032D01*
X137934968Y-108532836D01*
X137879837Y-108510000D01*
X137820163Y-108510000D01*
X137765032Y-108532836D01*
X137748916Y-108548951D01*
X137727419Y-108509581D01*
X137732403Y-108439889D01*
X137760904Y-108395542D01*
X138038823Y-108117624D01*
X138285542Y-107870904D01*
X138346865Y-107837419D01*
X138416556Y-107842403D01*
X138440242Y-107857625D01*
X138422836Y-107875032D01*
X138400000Y-107930163D01*
X138400000Y-107989837D01*
X138422836Y-108044968D01*
X138465032Y-108087164D01*
X138520163Y-108110000D01*
X138579837Y-108110000D01*
X138634968Y-108087164D01*
X138677164Y-108044968D01*
X138700000Y-107989837D01*
X138700000Y-107930163D01*
X138677164Y-107875032D01*
X138661048Y-107858916D01*
X138700417Y-107837419D01*
X138770109Y-107842403D01*
X138814457Y-107870904D01*
X138999999Y-108056446D01*
X139500000Y-108056446D01*
X139685542Y-107870904D01*
X139746865Y-107837419D01*
X139816556Y-107842403D01*
X139860904Y-107870904D01*
X139879289Y-107889289D01*
X139865224Y-107903355D01*
X139850000Y-107940109D01*
X139850000Y-107979891D01*
X139865224Y-108016645D01*
X139893355Y-108044776D01*
X139930109Y-108060000D01*
X139969891Y-108060000D01*
X140006645Y-108044776D01*
X140034776Y-108016645D01*
X140050000Y-107979891D01*
X140050000Y-107940109D01*
X140034776Y-107903355D01*
X140020709Y-107889288D01*
X140039094Y-107870904D01*
X140100417Y-107837419D01*
X140170109Y-107842403D01*
X140214457Y-107870904D01*
X140739095Y-108395542D01*
X140772580Y-108456865D01*
X140767596Y-108526557D01*
X140739096Y-108570904D01*
X140720710Y-108589289D01*
X140706645Y-108575224D01*
X140669891Y-108560000D01*
X140630109Y-108560000D01*
X140593355Y-108575224D01*
X140565224Y-108603355D01*
X140550000Y-108640109D01*
X140550000Y-108679891D01*
X140565224Y-108716645D01*
X140593355Y-108744776D01*
X140630109Y-108760000D01*
X140669891Y-108760000D01*
X140706645Y-108744776D01*
X140720710Y-108730710D01*
X140739095Y-108749095D01*
X140772580Y-108810418D01*
X140767596Y-108880110D01*
X140739095Y-108924457D01*
X140553553Y-109109998D01*
X140553554Y-109110000D01*
X141700000Y-109110000D01*
X141700000Y-107362172D01*
X141699999Y-107362155D01*
X141693598Y-107302627D01*
X141693596Y-107302620D01*
X141643354Y-107167913D01*
X141643350Y-107167906D01*
X141557190Y-107052812D01*
X141557187Y-107052809D01*
X141442093Y-106966649D01*
X141442086Y-106966645D01*
X141307379Y-106916403D01*
X141307372Y-106916401D01*
X141247844Y-106910000D01*
X139500000Y-106910000D01*
X139500000Y-108056446D01*
X138999999Y-108056446D01*
X139000000Y-108056445D01*
X139000000Y-106910000D01*
X137252155Y-106910000D01*
X137192627Y-106916401D01*
X137192620Y-106916403D01*
X137057913Y-106966645D01*
X137057906Y-106966649D01*
X136942812Y-107052809D01*
X136942809Y-107052812D01*
X136856649Y-107167906D01*
X136856645Y-107167913D01*
X136806403Y-107302620D01*
X136806401Y-107302627D01*
X136800000Y-107362155D01*
X133961390Y-107362155D01*
X133286818Y-106687583D01*
X133253333Y-106626260D01*
X133250499Y-106599902D01*
X133250499Y-106222129D01*
X133250498Y-106222123D01*
X133250497Y-106222116D01*
X133246804Y-106187753D01*
X133259211Y-106118994D01*
X133306822Y-106067857D01*
X133370094Y-106050500D01*
X133449903Y-106050500D01*
X133516942Y-106070185D01*
X133537584Y-106086819D01*
X133669298Y-106218533D01*
X133702783Y-106279856D01*
X133704837Y-106292330D01*
X133714630Y-106379249D01*
X133774210Y-106549521D01*
X133859282Y-106684911D01*
X133870184Y-106702262D01*
X133997738Y-106829816D01*
X134150478Y-106925789D01*
X134267238Y-106966645D01*
X134320745Y-106985368D01*
X134320750Y-106985369D01*
X134499996Y-107005565D01*
X134500000Y-107005565D01*
X134500004Y-107005565D01*
X134679249Y-106985369D01*
X134679252Y-106985368D01*
X134679255Y-106985368D01*
X134849522Y-106925789D01*
X135002262Y-106829816D01*
X135129816Y-106702262D01*
X135225789Y-106549522D01*
X135285368Y-106379255D01*
X135286151Y-106372309D01*
X135305565Y-106200003D01*
X135305565Y-106199996D01*
X135285369Y-106020750D01*
X135285368Y-106020745D01*
X135254416Y-105932289D01*
X135225789Y-105850478D01*
X135212797Y-105829802D01*
X135163610Y-105751521D01*
X135129816Y-105697738D01*
X135002262Y-105570184D01*
X134894165Y-105502262D01*
X134849521Y-105474210D01*
X134679249Y-105414630D01*
X134592330Y-105404837D01*
X134527916Y-105377770D01*
X134518533Y-105369298D01*
X134237590Y-105088355D01*
X134237588Y-105088352D01*
X134118717Y-104969481D01*
X134118716Y-104969480D01*
X134008400Y-104905789D01*
X134008398Y-104905788D01*
X133981785Y-104890423D01*
X133981784Y-104890422D01*
X133981783Y-104890422D01*
X133925881Y-104875443D01*
X133829057Y-104849499D01*
X133670943Y-104849499D01*
X133663347Y-104849499D01*
X133663331Y-104849500D01*
X133370094Y-104849500D01*
X133303055Y-104829815D01*
X133257300Y-104777011D01*
X133246804Y-104712246D01*
X133250500Y-104677873D01*
X133250499Y-103682128D01*
X133244091Y-103622517D01*
X133231340Y-103588332D01*
X133226357Y-103518642D01*
X133231340Y-103501669D01*
X133244091Y-103467483D01*
X133250500Y-103407873D01*
X133250499Y-102412128D01*
X133244091Y-102352517D01*
X133231073Y-102317616D01*
X133226090Y-102247926D01*
X133231075Y-102230949D01*
X133243597Y-102197375D01*
X133243598Y-102197372D01*
X133249999Y-102137844D01*
X133250000Y-102137827D01*
X133250000Y-101890000D01*
X130750000Y-101890000D01*
X130750000Y-102137834D01*
X130751012Y-102147240D01*
X130738609Y-102216000D01*
X130691001Y-102267139D01*
X130627723Y-102284500D01*
X128747230Y-102284500D01*
X128680191Y-102264815D01*
X128659549Y-102248181D01*
X128593657Y-102182289D01*
X128593656Y-102182288D01*
X128444334Y-102090186D01*
X128277797Y-102035001D01*
X128277795Y-102035000D01*
X128175010Y-102024500D01*
X127399998Y-102024500D01*
X127399980Y-102024501D01*
X127297203Y-102035000D01*
X127297200Y-102035001D01*
X127130668Y-102090185D01*
X127130663Y-102090187D01*
X126981342Y-102182289D01*
X126857288Y-102306343D01*
X126857283Y-102306349D01*
X126855241Y-102309661D01*
X126853247Y-102311453D01*
X126852807Y-102312011D01*
X126852711Y-102311935D01*
X126803291Y-102356383D01*
X126734328Y-102367602D01*
X126670247Y-102339755D01*
X126644168Y-102309656D01*
X126642319Y-102306659D01*
X126642316Y-102306655D01*
X126518345Y-102182684D01*
X126369124Y-102090643D01*
X126369119Y-102090641D01*
X126202697Y-102035494D01*
X126202690Y-102035493D01*
X126099986Y-102025000D01*
X125962500Y-102025000D01*
X125962500Y-104474999D01*
X126099972Y-104474999D01*
X126099986Y-104474998D01*
X126202697Y-104464505D01*
X126369119Y-104409358D01*
X126369124Y-104409356D01*
X126518345Y-104317315D01*
X126642318Y-104193342D01*
X126644165Y-104190348D01*
X126645969Y-104188724D01*
X126646798Y-104187677D01*
X126646976Y-104187818D01*
X126696110Y-104143621D01*
X126765073Y-104132396D01*
X126829156Y-104160236D01*
X126855243Y-104190341D01*
X126857288Y-104193656D01*
X126981344Y-104317712D01*
X127103097Y-104392809D01*
X127149821Y-104444755D01*
X127162000Y-104498347D01*
X127162000Y-105751652D01*
X127142315Y-105818691D01*
X127103098Y-105857189D01*
X127025835Y-105904845D01*
X126981342Y-105932289D01*
X126857288Y-106056343D01*
X126857283Y-106056349D01*
X126855241Y-106059661D01*
X126853247Y-106061453D01*
X126852807Y-106062011D01*
X126852711Y-106061935D01*
X126803291Y-106106383D01*
X126734328Y-106117602D01*
X126670247Y-106089755D01*
X126644168Y-106059656D01*
X126642319Y-106056659D01*
X126642316Y-106056655D01*
X126518345Y-105932684D01*
X126369124Y-105840643D01*
X126369119Y-105840641D01*
X126202697Y-105785494D01*
X126202690Y-105785493D01*
X126099986Y-105775000D01*
X125962500Y-105775000D01*
X125962500Y-108224999D01*
X126099972Y-108224999D01*
X126099986Y-108224998D01*
X126202697Y-108214505D01*
X126369119Y-108159358D01*
X126369124Y-108159356D01*
X126518345Y-108067315D01*
X126642318Y-107943342D01*
X126644165Y-107940348D01*
X126645969Y-107938724D01*
X126646798Y-107937677D01*
X126646976Y-107937818D01*
X126696110Y-107893621D01*
X126765073Y-107882396D01*
X126829156Y-107910236D01*
X126855243Y-107940341D01*
X126857288Y-107943656D01*
X126981344Y-108067712D01*
X127103097Y-108142809D01*
X127149821Y-108194755D01*
X127162000Y-108248347D01*
X127162000Y-108652047D01*
X127142315Y-108719086D01*
X127125681Y-108739728D01*
X125101269Y-110764140D01*
X125101267Y-110764142D01*
X125068931Y-110796478D01*
X125014142Y-110851266D01*
X125000991Y-110870948D01*
X124987928Y-110890499D01*
X124945690Y-110953710D01*
X124945685Y-110953719D01*
X124918971Y-111018213D01*
X124918971Y-111018216D01*
X124906653Y-111047952D01*
X124862814Y-111102355D01*
X124796521Y-111124421D01*
X124792093Y-111124500D01*
X121810452Y-111124500D01*
X121743413Y-111104815D01*
X121722771Y-111088181D01*
X119886818Y-109252228D01*
X119853333Y-109190905D01*
X119850499Y-109164547D01*
X119850499Y-108499998D01*
X119850498Y-108499981D01*
X119839999Y-108397203D01*
X119839998Y-108397200D01*
X119812280Y-108313553D01*
X119784814Y-108230666D01*
X119692712Y-108081344D01*
X119568656Y-107957288D01*
X119447236Y-107882396D01*
X119419336Y-107865187D01*
X119419331Y-107865185D01*
X119387448Y-107854620D01*
X119252797Y-107810001D01*
X119252795Y-107810000D01*
X119150016Y-107799500D01*
X119150009Y-107799500D01*
X119047477Y-107799500D01*
X118980438Y-107779815D01*
X118934683Y-107727011D01*
X118924739Y-107657853D01*
X118953764Y-107594297D01*
X118959796Y-107587819D01*
X119022629Y-107524986D01*
X124625001Y-107524986D01*
X124635494Y-107627697D01*
X124690641Y-107794119D01*
X124690643Y-107794124D01*
X124782684Y-107943345D01*
X124906654Y-108067315D01*
X125055875Y-108159356D01*
X125055880Y-108159358D01*
X125222302Y-108214505D01*
X125222309Y-108214506D01*
X125325019Y-108224999D01*
X125462499Y-108224999D01*
X125462500Y-108224998D01*
X125462500Y-107250000D01*
X124625001Y-107250000D01*
X124625001Y-107524986D01*
X119022629Y-107524986D01*
X119896034Y-106651582D01*
X120947297Y-105600319D01*
X121008620Y-105566834D01*
X121034978Y-105564000D01*
X123880560Y-105564000D01*
X123947599Y-105583685D01*
X123968241Y-105600319D01*
X123997738Y-105629816D01*
X124088080Y-105686582D01*
X124127377Y-105711274D01*
X124150478Y-105725789D01*
X124246947Y-105759545D01*
X124320745Y-105785368D01*
X124320750Y-105785369D01*
X124499996Y-105805565D01*
X124500000Y-105805565D01*
X124500004Y-105805565D01*
X124679249Y-105785369D01*
X124679251Y-105785368D01*
X124679255Y-105785368D01*
X124679258Y-105785366D01*
X124679262Y-105785366D01*
X124742872Y-105763108D01*
X124812651Y-105759545D01*
X124873278Y-105794274D01*
X124905506Y-105856267D01*
X124899101Y-105925843D01*
X124871509Y-105967830D01*
X124782682Y-106056657D01*
X124690643Y-106205875D01*
X124690641Y-106205880D01*
X124635494Y-106372302D01*
X124635493Y-106372309D01*
X124625000Y-106475013D01*
X124625000Y-106750000D01*
X125462500Y-106750000D01*
X125462500Y-105775000D01*
X125325027Y-105775000D01*
X125325012Y-105775001D01*
X125222301Y-105785494D01*
X125157023Y-105807125D01*
X125087195Y-105809527D01*
X125027153Y-105773795D01*
X124995961Y-105711274D01*
X125003522Y-105641815D01*
X125030334Y-105601743D01*
X125129816Y-105502262D01*
X125225789Y-105349522D01*
X125285368Y-105179255D01*
X125295610Y-105088355D01*
X125305565Y-105000003D01*
X125305565Y-104999996D01*
X125285369Y-104820750D01*
X125285368Y-104820745D01*
X125223489Y-104643905D01*
X125225338Y-104643257D01*
X125215555Y-104583867D01*
X125243273Y-104519731D01*
X125301266Y-104480762D01*
X125338628Y-104474999D01*
X125462499Y-104474999D01*
X125462500Y-104474998D01*
X125462500Y-103500000D01*
X124625001Y-103500000D01*
X124625001Y-103774986D01*
X124635494Y-103877697D01*
X124688832Y-104038660D01*
X124691234Y-104108488D01*
X124655502Y-104168530D01*
X124592982Y-104199723D01*
X124557243Y-104200884D01*
X124500004Y-104194435D01*
X124499996Y-104194435D01*
X124320750Y-104214630D01*
X124320745Y-104214631D01*
X124150476Y-104274211D01*
X123997737Y-104370184D01*
X123968241Y-104399681D01*
X123906918Y-104433166D01*
X123880560Y-104436000D01*
X120675747Y-104436000D01*
X120583501Y-104460716D01*
X120583501Y-104460717D01*
X120569364Y-104464505D01*
X120532302Y-104474435D01*
X120532301Y-104474436D01*
X120403699Y-104548685D01*
X120403693Y-104548689D01*
X120298685Y-104653698D01*
X117189201Y-107763181D01*
X117127878Y-107796666D01*
X117101520Y-107799500D01*
X116349998Y-107799500D01*
X116349980Y-107799501D01*
X116247203Y-107810000D01*
X116247200Y-107810001D01*
X116080668Y-107865185D01*
X116080663Y-107865187D01*
X115931342Y-107957289D01*
X115807289Y-108081342D01*
X115807288Y-108081344D01*
X115739092Y-108191909D01*
X115730039Y-108206586D01*
X115678091Y-108253310D01*
X115609129Y-108264533D01*
X115545046Y-108236689D01*
X115506190Y-108178621D01*
X115500500Y-108141489D01*
X115500500Y-103131902D01*
X116749500Y-103131902D01*
X116749500Y-103368097D01*
X116786446Y-103601368D01*
X116859433Y-103825996D01*
X116897142Y-103900003D01*
X116966657Y-104036433D01*
X117105483Y-104227510D01*
X117272490Y-104394517D01*
X117463567Y-104533343D01*
X117554061Y-104579452D01*
X117674003Y-104640566D01*
X117674005Y-104640566D01*
X117674008Y-104640568D01*
X117777587Y-104674223D01*
X117898631Y-104713553D01*
X118131903Y-104750500D01*
X118131908Y-104750500D01*
X118368097Y-104750500D01*
X118601368Y-104713553D01*
X118825992Y-104640568D01*
X119036433Y-104533343D01*
X119227510Y-104394517D01*
X119394517Y-104227510D01*
X119533343Y-104036433D01*
X119640568Y-103825992D01*
X119713553Y-103601368D01*
X119721613Y-103550478D01*
X119750500Y-103368097D01*
X119750500Y-103131902D01*
X119713553Y-102898631D01*
X119664815Y-102748632D01*
X119657141Y-102725013D01*
X124625000Y-102725013D01*
X124625000Y-103000000D01*
X125462500Y-103000000D01*
X125462500Y-102025000D01*
X125325027Y-102025000D01*
X125325012Y-102025001D01*
X125222302Y-102035494D01*
X125055880Y-102090641D01*
X125055875Y-102090643D01*
X124906654Y-102182684D01*
X124782684Y-102306654D01*
X124690643Y-102455875D01*
X124690641Y-102455880D01*
X124635494Y-102622302D01*
X124635493Y-102622309D01*
X124625000Y-102725013D01*
X119657141Y-102725013D01*
X119640568Y-102674008D01*
X119640566Y-102674005D01*
X119640566Y-102674003D01*
X119564139Y-102524008D01*
X119533343Y-102463567D01*
X119394517Y-102272490D01*
X119227510Y-102105483D01*
X119036433Y-101966657D01*
X119014503Y-101955483D01*
X118825996Y-101859433D01*
X118601368Y-101786446D01*
X118368097Y-101749500D01*
X118368092Y-101749500D01*
X118131908Y-101749500D01*
X118131903Y-101749500D01*
X117898631Y-101786446D01*
X117674003Y-101859433D01*
X117463566Y-101966657D01*
X117369501Y-102035000D01*
X117272490Y-102105483D01*
X117272488Y-102105485D01*
X117272487Y-102105485D01*
X117105485Y-102272487D01*
X117105485Y-102272488D01*
X117105483Y-102272490D01*
X117056612Y-102339755D01*
X116966657Y-102463566D01*
X116859433Y-102674003D01*
X116786446Y-102898631D01*
X116749500Y-103131902D01*
X115500500Y-103131902D01*
X115500500Y-103003750D01*
X115500726Y-102996263D01*
X115504486Y-102934108D01*
X115518271Y-102706201D01*
X115520076Y-102691340D01*
X115532727Y-102622309D01*
X115571780Y-102409197D01*
X115575364Y-102394663D01*
X115588497Y-102352518D01*
X115660696Y-102120822D01*
X115665998Y-102106841D01*
X115783731Y-101845249D01*
X115790676Y-101832016D01*
X115939080Y-101586526D01*
X115947567Y-101574230D01*
X116124480Y-101348417D01*
X116134395Y-101337226D01*
X116337226Y-101134395D01*
X116348417Y-101124480D01*
X116574230Y-100947567D01*
X116586526Y-100939080D01*
X116832016Y-100790676D01*
X116845249Y-100783731D01*
X117106841Y-100665998D01*
X117120822Y-100660696D01*
X117394668Y-100575362D01*
X117409197Y-100571780D01*
X117691344Y-100520075D01*
X117706201Y-100518271D01*
X117996264Y-100500726D01*
X118003751Y-100500500D01*
X118065892Y-100500500D01*
X119934108Y-100500500D01*
X130980570Y-100500500D01*
X131047609Y-100520185D01*
G37*
G04 #@! TD.AperFunction*
G04 #@! TA.AperFunction,Conductor*
G36*
X135936723Y-137492464D02*
G01*
X136018652Y-137528941D01*
X136018657Y-137528943D01*
X136188289Y-137565000D01*
X136361708Y-137565000D01*
X136362525Y-137564914D01*
X136362996Y-137565000D01*
X136368210Y-137565000D01*
X136368210Y-137565953D01*
X136431256Y-137577476D01*
X136482285Y-137625202D01*
X136499500Y-137688233D01*
X136499500Y-138652522D01*
X136479815Y-138719561D01*
X136427011Y-138765316D01*
X136357853Y-138775260D01*
X136294297Y-138746235D01*
X136287819Y-138740203D01*
X135917883Y-138370267D01*
X135917881Y-138370264D01*
X135805806Y-138258189D01*
X135805804Y-138258187D01*
X135681824Y-138186607D01*
X135677198Y-138183936D01*
X135677197Y-138183935D01*
X135677196Y-138183935D01*
X135533753Y-138145500D01*
X135533752Y-138145500D01*
X135508960Y-138145500D01*
X135441921Y-138125815D01*
X135396166Y-138073011D01*
X135386222Y-138003853D01*
X135415247Y-137940297D01*
X135440069Y-137918398D01*
X135530589Y-137857913D01*
X135530593Y-137857910D01*
X135662910Y-137725593D01*
X135662913Y-137725589D01*
X135766875Y-137570000D01*
X135766878Y-137569994D01*
X135771723Y-137558297D01*
X135815561Y-137503891D01*
X135881854Y-137481822D01*
X135936723Y-137492464D01*
G37*
G04 #@! TD.AperFunction*
G04 #@! TA.AperFunction,Conductor*
G36*
X125066942Y-134120185D02*
G01*
X125087583Y-134136818D01*
X126231284Y-135280520D01*
X126231286Y-135280521D01*
X126231290Y-135280524D01*
X126368209Y-135359573D01*
X126368216Y-135359577D01*
X126520943Y-135400501D01*
X126520945Y-135400501D01*
X126686654Y-135400501D01*
X126686670Y-135400500D01*
X131100799Y-135400500D01*
X131132892Y-135404725D01*
X131258943Y-135438500D01*
X133851000Y-135438500D01*
X133918039Y-135458185D01*
X133963794Y-135510989D01*
X133975000Y-135562500D01*
X133975000Y-136120000D01*
X134625000Y-136120000D01*
X134625000Y-136620000D01*
X133975000Y-136620000D01*
X133975000Y-137213571D01*
X134011506Y-137397097D01*
X134011508Y-137397105D01*
X134083119Y-137569991D01*
X134083124Y-137570000D01*
X134187086Y-137725589D01*
X134187089Y-137725593D01*
X134319406Y-137857910D01*
X134319410Y-137857913D01*
X134409931Y-137918398D01*
X134454736Y-137972010D01*
X134463443Y-138041335D01*
X134433288Y-138104363D01*
X134373845Y-138141082D01*
X134341040Y-138145500D01*
X122844479Y-138145500D01*
X122777440Y-138125815D01*
X122756798Y-138109181D01*
X122529203Y-137881586D01*
X122277527Y-137629911D01*
X122244043Y-137568589D01*
X122249027Y-137498898D01*
X122277528Y-137454550D01*
X122295632Y-137436446D01*
X122329816Y-137402262D01*
X122425789Y-137249522D01*
X122485368Y-137079255D01*
X122485369Y-137079249D01*
X122505565Y-136900003D01*
X122505565Y-136899996D01*
X122485369Y-136720750D01*
X122485368Y-136720745D01*
X122450116Y-136620000D01*
X122425789Y-136550478D01*
X122329816Y-136397738D01*
X122202262Y-136270184D01*
X122173499Y-136252111D01*
X122049523Y-136174211D01*
X121879254Y-136114631D01*
X121879249Y-136114630D01*
X121734158Y-136098283D01*
X121669744Y-136071217D01*
X121660360Y-136062744D01*
X120300319Y-134702703D01*
X120266834Y-134641380D01*
X120264000Y-134615022D01*
X120264000Y-134280398D01*
X120283685Y-134213359D01*
X120336489Y-134167604D01*
X120405647Y-134157660D01*
X120469203Y-134186685D01*
X120493537Y-134215298D01*
X120557288Y-134318656D01*
X120681344Y-134442712D01*
X120830666Y-134534814D01*
X120997203Y-134589999D01*
X121099991Y-134600500D01*
X122100008Y-134600499D01*
X122100016Y-134600498D01*
X122100019Y-134600498D01*
X122196825Y-134590609D01*
X122202797Y-134589999D01*
X122369334Y-134534814D01*
X122518656Y-134442712D01*
X122642712Y-134318656D01*
X122734814Y-134169334D01*
X122734815Y-134169331D01*
X122738605Y-134163187D01*
X122740399Y-134164293D01*
X122779687Y-134119663D01*
X122845908Y-134100500D01*
X124999903Y-134100500D01*
X125066942Y-134120185D01*
G37*
G04 #@! TD.AperFunction*
G04 #@! TA.AperFunction,Conductor*
G36*
X140150436Y-137476856D02*
G01*
X140268495Y-137529420D01*
X140268501Y-137529422D01*
X140438236Y-137565500D01*
X140438237Y-137565500D01*
X140611762Y-137565500D01*
X140611764Y-137565500D01*
X140611765Y-137565499D01*
X140612532Y-137565419D01*
X140612975Y-137565500D01*
X140618263Y-137565500D01*
X140618263Y-137566466D01*
X140681263Y-137577985D01*
X140732289Y-137625714D01*
X140749500Y-137688739D01*
X140749500Y-137814547D01*
X140729815Y-137881586D01*
X140713181Y-137902228D01*
X140527229Y-138088181D01*
X140465906Y-138121666D01*
X140439548Y-138124500D01*
X137874500Y-138124500D01*
X137807461Y-138104815D01*
X137761706Y-138052011D01*
X137750500Y-138000500D01*
X137750500Y-137688739D01*
X137770185Y-137621700D01*
X137822989Y-137575945D01*
X137881737Y-137566354D01*
X137881737Y-137565500D01*
X137886972Y-137565500D01*
X137887468Y-137565419D01*
X137888234Y-137565499D01*
X137888236Y-137565500D01*
X137888238Y-137565500D01*
X138061762Y-137565500D01*
X138061764Y-137565500D01*
X138231499Y-137529422D01*
X138231501Y-137529420D01*
X138231504Y-137529420D01*
X138349564Y-137476856D01*
X138418814Y-137467571D01*
X138450436Y-137476856D01*
X138568495Y-137529420D01*
X138568501Y-137529422D01*
X138738236Y-137565500D01*
X138738237Y-137565500D01*
X138911762Y-137565500D01*
X138911764Y-137565500D01*
X139081499Y-137529422D01*
X139081501Y-137529420D01*
X139081504Y-137529420D01*
X139199564Y-137476856D01*
X139268814Y-137467571D01*
X139300436Y-137476856D01*
X139418495Y-137529420D01*
X139418501Y-137529422D01*
X139588236Y-137565500D01*
X139588237Y-137565500D01*
X139761762Y-137565500D01*
X139761764Y-137565500D01*
X139931499Y-137529422D01*
X139931501Y-137529420D01*
X139931504Y-137529420D01*
X140049564Y-137476856D01*
X140118814Y-137467571D01*
X140150436Y-137476856D01*
G37*
G04 #@! TD.AperFunction*
G04 #@! TA.AperFunction,Conductor*
G36*
X129361738Y-124145185D02*
G01*
X129407493Y-124197989D01*
X129412403Y-124210492D01*
X129440186Y-124294334D01*
X129532288Y-124443656D01*
X129656344Y-124567712D01*
X129778097Y-124642809D01*
X129824821Y-124694755D01*
X129837000Y-124748347D01*
X129837000Y-128377048D01*
X129817315Y-128444087D01*
X129800681Y-128464729D01*
X129482229Y-128783181D01*
X129420906Y-128816666D01*
X129394548Y-128819500D01*
X129206898Y-128819500D01*
X129181542Y-128822544D01*
X129152782Y-128825998D01*
X129083874Y-128814445D01*
X129032151Y-128767472D01*
X129014000Y-128702882D01*
X129014000Y-126375750D01*
X129014000Y-126375748D01*
X128975565Y-126232304D01*
X128901313Y-126103696D01*
X128796304Y-125998687D01*
X128796303Y-125998686D01*
X128791973Y-125994356D01*
X128791962Y-125994346D01*
X127709796Y-124912180D01*
X127676311Y-124850857D01*
X127681295Y-124781165D01*
X127723167Y-124725232D01*
X127788631Y-124700815D01*
X127797477Y-124700499D01*
X127900002Y-124700499D01*
X127900008Y-124700499D01*
X128002797Y-124689999D01*
X128169334Y-124634814D01*
X128318656Y-124542712D01*
X128442712Y-124418656D01*
X128534814Y-124269334D01*
X128554311Y-124210493D01*
X128594084Y-124153051D01*
X128658600Y-124126228D01*
X128672017Y-124125500D01*
X129294699Y-124125500D01*
X129361738Y-124145185D01*
G37*
G04 #@! TD.AperFunction*
G04 #@! TA.AperFunction,Conductor*
G36*
X130696945Y-109880185D02*
G01*
X130742700Y-109932989D01*
X130753195Y-109997752D01*
X130749500Y-110032127D01*
X130749500Y-110032128D01*
X130749500Y-110032132D01*
X130749500Y-111027870D01*
X130749501Y-111027876D01*
X130755908Y-111087481D01*
X130768659Y-111121669D01*
X130773642Y-111191361D01*
X130768659Y-111208331D01*
X130755908Y-111242518D01*
X130749501Y-111302116D01*
X130749501Y-111302123D01*
X130749500Y-111302135D01*
X130749500Y-112297870D01*
X130749501Y-112297876D01*
X130755908Y-112357481D01*
X130768659Y-112391669D01*
X130773642Y-112461361D01*
X130768659Y-112478331D01*
X130755908Y-112512518D01*
X130749501Y-112572116D01*
X130749501Y-112572123D01*
X130749500Y-112572135D01*
X130749500Y-113567870D01*
X130749501Y-113567876D01*
X130755908Y-113627481D01*
X130768659Y-113661669D01*
X130773642Y-113731361D01*
X130768659Y-113748331D01*
X130755908Y-113782518D01*
X130751798Y-113820750D01*
X130749501Y-113842123D01*
X130749500Y-113842135D01*
X130749500Y-114837870D01*
X130749501Y-114837876D01*
X130755908Y-114897481D01*
X130768659Y-114931669D01*
X130773642Y-115001361D01*
X130768659Y-115018331D01*
X130755908Y-115052518D01*
X130749501Y-115112116D01*
X130749501Y-115112123D01*
X130749500Y-115112135D01*
X130749500Y-116107870D01*
X130749501Y-116107876D01*
X130755908Y-116167481D01*
X130768659Y-116201669D01*
X130773642Y-116271361D01*
X130768659Y-116288331D01*
X130755908Y-116322518D01*
X130750942Y-116368713D01*
X130749501Y-116382123D01*
X130749500Y-116382135D01*
X130749500Y-117377870D01*
X130749501Y-117377876D01*
X130755908Y-117437481D01*
X130768659Y-117471669D01*
X130773642Y-117541361D01*
X130768659Y-117558331D01*
X130755908Y-117592518D01*
X130749501Y-117652116D01*
X130749500Y-117652135D01*
X130749500Y-118647870D01*
X130749501Y-118647876D01*
X130755908Y-118707483D01*
X130806202Y-118842328D01*
X130806206Y-118842335D01*
X130892452Y-118957544D01*
X130892455Y-118957547D01*
X131007664Y-119043793D01*
X131007671Y-119043797D01*
X131142517Y-119094091D01*
X131142516Y-119094091D01*
X131149444Y-119094835D01*
X131202127Y-119100500D01*
X132690500Y-119100499D01*
X132757539Y-119120184D01*
X132803294Y-119172987D01*
X132814500Y-119224499D01*
X132814500Y-120197870D01*
X132814501Y-120197876D01*
X132820908Y-120257483D01*
X132871202Y-120392328D01*
X132871206Y-120392335D01*
X132957452Y-120507544D01*
X132957455Y-120507547D01*
X133072664Y-120593793D01*
X133072671Y-120593797D01*
X133207517Y-120644091D01*
X133207516Y-120644091D01*
X133214444Y-120644835D01*
X133267127Y-120650500D01*
X134262872Y-120650499D01*
X134322483Y-120644091D01*
X134322482Y-120644091D01*
X134330196Y-120643262D01*
X134330456Y-120645682D01*
X134388226Y-120648766D01*
X134444907Y-120689619D01*
X134470504Y-120754631D01*
X134471000Y-120765712D01*
X134471000Y-121960747D01*
X134471000Y-122109253D01*
X134494160Y-122195689D01*
X134504923Y-122235858D01*
X134509436Y-122252699D01*
X134583684Y-122381300D01*
X134583689Y-122381306D01*
X134695761Y-122493378D01*
X134695767Y-122493383D01*
X135359896Y-123157512D01*
X135393381Y-123218835D01*
X135388397Y-123288527D01*
X135377755Y-123310288D01*
X135365188Y-123330661D01*
X135365186Y-123330666D01*
X135310001Y-123497203D01*
X135310001Y-123497204D01*
X135310000Y-123497204D01*
X135299500Y-123599983D01*
X135299500Y-124400001D01*
X135299501Y-124400019D01*
X135310000Y-124502796D01*
X135310001Y-124502799D01*
X135365185Y-124669331D01*
X135365187Y-124669336D01*
X135393048Y-124714506D01*
X135441284Y-124792710D01*
X135457289Y-124818657D01*
X135551304Y-124912672D01*
X135584789Y-124973995D01*
X135579805Y-125043687D01*
X135551305Y-125088034D01*
X135457682Y-125181657D01*
X135365643Y-125330875D01*
X135365641Y-125330880D01*
X135310494Y-125497302D01*
X135310493Y-125497309D01*
X135300000Y-125600013D01*
X135300000Y-125750000D01*
X137699999Y-125750000D01*
X137699999Y-125600028D01*
X137699998Y-125600013D01*
X137689505Y-125497302D01*
X137634358Y-125330880D01*
X137634356Y-125330875D01*
X137542315Y-125181654D01*
X137448695Y-125088034D01*
X137415210Y-125026711D01*
X137420194Y-124957019D01*
X137448691Y-124912676D01*
X137542712Y-124818656D01*
X137634814Y-124669334D01*
X137689999Y-124502797D01*
X137700500Y-124400009D01*
X137700499Y-123599992D01*
X137689999Y-123497203D01*
X137634814Y-123330666D01*
X137542712Y-123181344D01*
X137418656Y-123057288D01*
X137296242Y-122981783D01*
X137269336Y-122965187D01*
X137269331Y-122965185D01*
X137240535Y-122955643D01*
X137102797Y-122910001D01*
X137102795Y-122910000D01*
X137000016Y-122899500D01*
X137000009Y-122899500D01*
X136748478Y-122899500D01*
X136681439Y-122879815D01*
X136660797Y-122863181D01*
X135635319Y-121837703D01*
X135601834Y-121776380D01*
X135599000Y-121750022D01*
X135599000Y-120765712D01*
X135618685Y-120698673D01*
X135671489Y-120652918D01*
X135740647Y-120642974D01*
X135745254Y-120643848D01*
X135762170Y-120645666D01*
X135807127Y-120650500D01*
X136802872Y-120650499D01*
X136862483Y-120644091D01*
X136896667Y-120631340D01*
X136966358Y-120626357D01*
X136983327Y-120631338D01*
X137017517Y-120644091D01*
X137077127Y-120650500D01*
X137893435Y-120650499D01*
X137960474Y-120670183D01*
X138006229Y-120722987D01*
X138017435Y-120774499D01*
X138017435Y-120780650D01*
X138037630Y-120959896D01*
X138037631Y-120959901D01*
X138097211Y-121130170D01*
X138141088Y-121199999D01*
X138193184Y-121282909D01*
X138320738Y-121410463D01*
X138350638Y-121429250D01*
X138412070Y-121467850D01*
X138458362Y-121520184D01*
X138470099Y-121572844D01*
X138470099Y-127335912D01*
X138470100Y-127335925D01*
X138470100Y-129049300D01*
X138450415Y-129116339D01*
X138397611Y-129162094D01*
X138346100Y-129173300D01*
X138082108Y-129173300D01*
X138015069Y-129153615D01*
X137994431Y-129136985D01*
X137939365Y-129081919D01*
X137797898Y-128998256D01*
X137797897Y-128998255D01*
X137797896Y-128998255D01*
X137797893Y-128998254D01*
X137640073Y-128952402D01*
X137640067Y-128952401D01*
X137603201Y-128949500D01*
X137603194Y-128949500D01*
X136446806Y-128949500D01*
X136446798Y-128949500D01*
X136409932Y-128952401D01*
X136409926Y-128952402D01*
X136252106Y-128998254D01*
X136252103Y-128998255D01*
X136103920Y-129085890D01*
X136102275Y-129083108D01*
X136050253Y-129102822D01*
X135981903Y-129088327D01*
X135932241Y-129039179D01*
X135917034Y-128970985D01*
X135935769Y-128913213D01*
X135975788Y-128849524D01*
X135975789Y-128849522D01*
X136035368Y-128679255D01*
X136040819Y-128630875D01*
X136055565Y-128500003D01*
X136055565Y-128499996D01*
X136035369Y-128320750D01*
X136035368Y-128320745D01*
X136028284Y-128300499D01*
X135975789Y-128150478D01*
X135970909Y-128142712D01*
X135892960Y-128018657D01*
X135879816Y-127997738D01*
X135752262Y-127870184D01*
X135748501Y-127867821D01*
X135599523Y-127774211D01*
X135429254Y-127714631D01*
X135429249Y-127714630D01*
X135250004Y-127694435D01*
X135249996Y-127694435D01*
X135070750Y-127714630D01*
X135070745Y-127714631D01*
X134900476Y-127774211D01*
X134747737Y-127870184D01*
X134620184Y-127997737D01*
X134524210Y-128150478D01*
X134464630Y-128320750D01*
X134459326Y-128367825D01*
X134432258Y-128432239D01*
X134423788Y-128441621D01*
X134351270Y-128514139D01*
X134351267Y-128514142D01*
X134307704Y-128557704D01*
X134264142Y-128601266D01*
X134231247Y-128650498D01*
X134231246Y-128650500D01*
X134195687Y-128703714D01*
X134195685Y-128703718D01*
X134148540Y-128817538D01*
X134148536Y-128817553D01*
X134135596Y-128882606D01*
X134103211Y-128944517D01*
X134048575Y-128977490D01*
X133977105Y-128998254D01*
X133977103Y-128998255D01*
X133835637Y-129081917D01*
X133835629Y-129081923D01*
X133829372Y-129088181D01*
X133768049Y-129121666D01*
X133741691Y-129124500D01*
X133188389Y-129124500D01*
X133127971Y-129136518D01*
X133084743Y-129145116D01*
X133067546Y-129148537D01*
X133023429Y-129166812D01*
X133023427Y-129166813D01*
X132953715Y-129195687D01*
X132947455Y-129199871D01*
X132947452Y-129199873D01*
X132851268Y-129264140D01*
X132807705Y-129307703D01*
X132764142Y-129351267D01*
X130346681Y-131768728D01*
X130285358Y-131802213D01*
X130215666Y-131797229D01*
X130159733Y-131755357D01*
X130135316Y-131689893D01*
X130135000Y-131681047D01*
X130135000Y-131435000D01*
X126765000Y-131435000D01*
X126765000Y-132047844D01*
X126771401Y-132107372D01*
X126771403Y-132107379D01*
X126791682Y-132161750D01*
X126799500Y-132205083D01*
X126799500Y-133043102D01*
X126805126Y-133089954D01*
X126810122Y-133131561D01*
X126865639Y-133272343D01*
X126957077Y-133392922D01*
X127077656Y-133484360D01*
X127077657Y-133484360D01*
X127077658Y-133484361D01*
X127218436Y-133539877D01*
X127306898Y-133550500D01*
X127306903Y-133550500D01*
X127693097Y-133550500D01*
X127693102Y-133550500D01*
X127781564Y-133539877D01*
X127922342Y-133484361D01*
X127922342Y-133484360D01*
X127929510Y-133481534D01*
X127999097Y-133475253D01*
X128020490Y-133481534D01*
X128027657Y-133484360D01*
X128027658Y-133484361D01*
X128168436Y-133539877D01*
X128256898Y-133550500D01*
X128256903Y-133550500D01*
X128643097Y-133550500D01*
X128643102Y-133550500D01*
X128731564Y-133539877D01*
X128872342Y-133484361D01*
X128872342Y-133484360D01*
X128879510Y-133481534D01*
X128949097Y-133475253D01*
X128970490Y-133481534D01*
X128977657Y-133484360D01*
X128977658Y-133484361D01*
X129118436Y-133539877D01*
X129206898Y-133550500D01*
X129206903Y-133550500D01*
X129593097Y-133550500D01*
X129593102Y-133550500D01*
X129681564Y-133539877D01*
X129822342Y-133484361D01*
X129942922Y-133392922D01*
X130017501Y-133294574D01*
X130073693Y-133253052D01*
X130116305Y-133245500D01*
X130441607Y-133245500D01*
X130502029Y-133233481D01*
X130562452Y-133221463D01*
X130562455Y-133221461D01*
X130562458Y-133221461D01*
X130595787Y-133207654D01*
X130595786Y-133207654D01*
X130595792Y-133207652D01*
X130676286Y-133174312D01*
X130740680Y-133131284D01*
X130778733Y-133105858D01*
X130865858Y-133018733D01*
X130865859Y-133018731D01*
X130872925Y-133011665D01*
X130872927Y-133011661D01*
X133424262Y-130460327D01*
X133485583Y-130426844D01*
X133555275Y-130431828D01*
X133582366Y-130450000D01*
X133855685Y-130450000D01*
X133918806Y-130467268D01*
X133977102Y-130501744D01*
X134018724Y-130513836D01*
X134134926Y-130547597D01*
X134134929Y-130547597D01*
X134134931Y-130547598D01*
X134171806Y-130550500D01*
X134171814Y-130550500D01*
X135328186Y-130550500D01*
X135328194Y-130550500D01*
X135365069Y-130547598D01*
X135365071Y-130547597D01*
X135365073Y-130547597D01*
X135406691Y-130535505D01*
X135522898Y-130501744D01*
X135581194Y-130467268D01*
X135644315Y-130450000D01*
X136130685Y-130450000D01*
X136193806Y-130467268D01*
X136252102Y-130501744D01*
X136293724Y-130513836D01*
X136409926Y-130547597D01*
X136409929Y-130547597D01*
X136409931Y-130547598D01*
X136446806Y-130550500D01*
X136446814Y-130550500D01*
X137603186Y-130550500D01*
X137603194Y-130550500D01*
X137640069Y-130547598D01*
X137640071Y-130547597D01*
X137640073Y-130547597D01*
X137681691Y-130535505D01*
X137797898Y-130501744D01*
X137856194Y-130467268D01*
X137919315Y-130450000D01*
X138184795Y-130450000D01*
X138188692Y-130445783D01*
X138199981Y-130392050D01*
X138249034Y-130342294D01*
X138309234Y-130326700D01*
X138346100Y-130326700D01*
X138413139Y-130346385D01*
X138458894Y-130399189D01*
X138470100Y-130450700D01*
X138470100Y-130977127D01*
X138450415Y-131044166D01*
X138397611Y-131089921D01*
X138328453Y-131099865D01*
X138314015Y-131096903D01*
X138275755Y-131086652D01*
X138216097Y-131050287D01*
X138185568Y-130987440D01*
X138184233Y-130957152D01*
X138184795Y-130950000D01*
X137919315Y-130950000D01*
X137856194Y-130932732D01*
X137844385Y-130925748D01*
X137797898Y-130898256D01*
X137797897Y-130898255D01*
X137797896Y-130898255D01*
X137797893Y-130898254D01*
X137640073Y-130852402D01*
X137640067Y-130852401D01*
X137603201Y-130849500D01*
X137603194Y-130849500D01*
X136446806Y-130849500D01*
X136446798Y-130849500D01*
X136409932Y-130852401D01*
X136409926Y-130852402D01*
X136252106Y-130898254D01*
X136252103Y-130898255D01*
X136193806Y-130932732D01*
X136130685Y-130950000D01*
X135644315Y-130950000D01*
X135581194Y-130932732D01*
X135569385Y-130925748D01*
X135522898Y-130898256D01*
X135522897Y-130898255D01*
X135522896Y-130898255D01*
X135522893Y-130898254D01*
X135365073Y-130852402D01*
X135365067Y-130852401D01*
X135328201Y-130849500D01*
X135328194Y-130849500D01*
X134171806Y-130849500D01*
X134171798Y-130849500D01*
X134134932Y-130852401D01*
X134134926Y-130852402D01*
X133977106Y-130898254D01*
X133977103Y-130898255D01*
X133918806Y-130932732D01*
X133855685Y-130950000D01*
X133590205Y-130950000D01*
X133590204Y-130950001D01*
X133590399Y-130952488D01*
X133590400Y-130952494D01*
X133636216Y-131110193D01*
X133636220Y-131110203D01*
X133636927Y-131111398D01*
X133637195Y-131112454D01*
X133639316Y-131117356D01*
X133638524Y-131117698D01*
X133654103Y-131179123D01*
X133638493Y-131232284D01*
X133638855Y-131232441D01*
X133637587Y-131235369D01*
X133636927Y-131237620D01*
X133635759Y-131239594D01*
X133635754Y-131239607D01*
X133589902Y-131397426D01*
X133589901Y-131397432D01*
X133587000Y-131434298D01*
X133587000Y-131865701D01*
X133589901Y-131902567D01*
X133589902Y-131902573D01*
X133635754Y-132060393D01*
X133635755Y-132060396D01*
X133635756Y-132060398D01*
X133673181Y-132123681D01*
X133719232Y-132201550D01*
X133719418Y-132201864D01*
X133719423Y-132201870D01*
X133835629Y-132318076D01*
X133835633Y-132318079D01*
X133835635Y-132318081D01*
X133977102Y-132401744D01*
X134005523Y-132410001D01*
X134134926Y-132447597D01*
X134134929Y-132447597D01*
X134134931Y-132447598D01*
X134171806Y-132450500D01*
X134171814Y-132450500D01*
X135328186Y-132450500D01*
X135328194Y-132450500D01*
X135365069Y-132447598D01*
X135365071Y-132447597D01*
X135365073Y-132447597D01*
X135426278Y-132429815D01*
X135522898Y-132401744D01*
X135664365Y-132318081D01*
X135780581Y-132201865D01*
X135780767Y-132201549D01*
X135780977Y-132201353D01*
X135785361Y-132195702D01*
X135786272Y-132196409D01*
X135831836Y-132153866D01*
X135900577Y-132141362D01*
X135965167Y-132168006D01*
X135989355Y-132195921D01*
X135989639Y-132195702D01*
X135993679Y-132200911D01*
X135994232Y-132201548D01*
X135994419Y-132201865D01*
X135994421Y-132201867D01*
X135994423Y-132201870D01*
X136110629Y-132318076D01*
X136110633Y-132318079D01*
X136110635Y-132318081D01*
X136252102Y-132401744D01*
X136280523Y-132410001D01*
X136409926Y-132447597D01*
X136409929Y-132447597D01*
X136409931Y-132447598D01*
X136446806Y-132450500D01*
X136446814Y-132450500D01*
X137603186Y-132450500D01*
X137603194Y-132450500D01*
X137640069Y-132447598D01*
X137715792Y-132425598D01*
X137785659Y-132425797D01*
X137844329Y-132463738D01*
X137855379Y-132478701D01*
X137870182Y-132502259D01*
X137870184Y-132502262D01*
X137997738Y-132629816D01*
X138150478Y-132725789D01*
X138320745Y-132785368D01*
X138359984Y-132789789D01*
X138424396Y-132816854D01*
X138463952Y-132874448D01*
X138470100Y-132913009D01*
X138470100Y-134515866D01*
X138450415Y-134582905D01*
X138397611Y-134628660D01*
X138328453Y-134638604D01*
X138295665Y-134629146D01*
X138231500Y-134600578D01*
X138231498Y-134600577D01*
X138097841Y-134572168D01*
X138061764Y-134564500D01*
X138061763Y-134564500D01*
X138050097Y-134564500D01*
X137983058Y-134544815D01*
X137962416Y-134528181D01*
X137910590Y-134476355D01*
X137910588Y-134476352D01*
X137791717Y-134357481D01*
X137791716Y-134357480D01*
X137700318Y-134304712D01*
X137700317Y-134304711D01*
X137654783Y-134278422D01*
X137571326Y-134256060D01*
X137502057Y-134237499D01*
X137343943Y-134237499D01*
X137336347Y-134237499D01*
X137336331Y-134237500D01*
X131537202Y-134237500D01*
X131505108Y-134233275D01*
X131379057Y-134199499D01*
X131220943Y-134199499D01*
X131213347Y-134199499D01*
X131213331Y-134199500D01*
X126900098Y-134199500D01*
X126833059Y-134179815D01*
X126812417Y-134163181D01*
X125787590Y-133138355D01*
X125787588Y-133138352D01*
X125668717Y-133019481D01*
X125668716Y-133019480D01*
X125581904Y-132969360D01*
X125581904Y-132969359D01*
X125581900Y-132969358D01*
X125531785Y-132940423D01*
X125379057Y-132899499D01*
X125220943Y-132899499D01*
X125213347Y-132899499D01*
X125213331Y-132899500D01*
X122845908Y-132899500D01*
X122778869Y-132879815D01*
X122740363Y-132835728D01*
X122738605Y-132836813D01*
X122731319Y-132825000D01*
X122642712Y-132681344D01*
X122548695Y-132587327D01*
X122515210Y-132526004D01*
X122520194Y-132456312D01*
X122548695Y-132411964D01*
X122642317Y-132318342D01*
X122734356Y-132169124D01*
X122734358Y-132169119D01*
X122789505Y-132002697D01*
X122789506Y-132002690D01*
X122799999Y-131899986D01*
X122800000Y-131899973D01*
X122800000Y-131750000D01*
X121724000Y-131750000D01*
X121656961Y-131730315D01*
X121611206Y-131677511D01*
X121600000Y-131626000D01*
X121600000Y-131500000D01*
X121474000Y-131500000D01*
X121406961Y-131480315D01*
X121361206Y-131427511D01*
X121350000Y-131376000D01*
X121350000Y-131250000D01*
X121850000Y-131250000D01*
X122799999Y-131250000D01*
X122799999Y-131100028D01*
X122799998Y-131100013D01*
X122789505Y-130997302D01*
X122734358Y-130830880D01*
X122734356Y-130830875D01*
X122642315Y-130681654D01*
X122518345Y-130557684D01*
X122369124Y-130465643D01*
X122369119Y-130465641D01*
X122202697Y-130410494D01*
X122202690Y-130410493D01*
X122099986Y-130400000D01*
X121850000Y-130400000D01*
X121850000Y-131250000D01*
X121350000Y-131250000D01*
X121350000Y-130400000D01*
X121100029Y-130400000D01*
X121100012Y-130400001D01*
X120997302Y-130410494D01*
X120830880Y-130465641D01*
X120830875Y-130465643D01*
X120681654Y-130557684D01*
X120557684Y-130681654D01*
X120465637Y-130830885D01*
X120465418Y-130831357D01*
X120465181Y-130831625D01*
X120461851Y-130837025D01*
X120460928Y-130836455D01*
X120419243Y-130883794D01*
X120352049Y-130902942D01*
X120285169Y-130882723D01*
X120239837Y-130829555D01*
X120233264Y-130811038D01*
X120230778Y-130801760D01*
X120225565Y-130782303D01*
X120166788Y-130680500D01*
X120166788Y-130680499D01*
X120151315Y-130653699D01*
X120151314Y-130653698D01*
X120151313Y-130653696D01*
X120046304Y-130548687D01*
X120046303Y-130548686D01*
X120041973Y-130544356D01*
X120041962Y-130544346D01*
X118350319Y-128852703D01*
X118316834Y-128791380D01*
X118314000Y-128765022D01*
X118314000Y-127442396D01*
X118333685Y-127375357D01*
X118386489Y-127329602D01*
X118398996Y-127324690D01*
X118519334Y-127284814D01*
X118668656Y-127192712D01*
X118792712Y-127068656D01*
X118884814Y-126919334D01*
X118939999Y-126752797D01*
X118950500Y-126650009D01*
X118950499Y-125849992D01*
X118949153Y-125836819D01*
X118939999Y-125747203D01*
X118939998Y-125747200D01*
X118884814Y-125580666D01*
X118792712Y-125431344D01*
X118699049Y-125337681D01*
X118665564Y-125276358D01*
X118670548Y-125206666D01*
X118699049Y-125162319D01*
X118792712Y-125068656D01*
X118884814Y-124919334D01*
X118939999Y-124752797D01*
X118950500Y-124650009D01*
X118950499Y-123950095D01*
X118970183Y-123883057D01*
X118986813Y-123862420D01*
X121212416Y-121636819D01*
X121273739Y-121603334D01*
X121300097Y-121600500D01*
X122025500Y-121600500D01*
X122092539Y-121620185D01*
X122138294Y-121672989D01*
X122149500Y-121724500D01*
X122149500Y-122449902D01*
X122129815Y-122516941D01*
X122113181Y-122537583D01*
X121537582Y-123113181D01*
X121476259Y-123146666D01*
X121449901Y-123149500D01*
X120749998Y-123149500D01*
X120749980Y-123149501D01*
X120647203Y-123160000D01*
X120647200Y-123160001D01*
X120480668Y-123215185D01*
X120480663Y-123215187D01*
X120331342Y-123307289D01*
X120207289Y-123431342D01*
X120115187Y-123580663D01*
X120115186Y-123580666D01*
X120060001Y-123747203D01*
X120060001Y-123747204D01*
X120060000Y-123747204D01*
X120049500Y-123849983D01*
X120049500Y-124650001D01*
X120049501Y-124650007D01*
X120060000Y-124752796D01*
X120060001Y-124752799D01*
X120115185Y-124919331D01*
X120115187Y-124919336D01*
X120207289Y-125068657D01*
X120300951Y-125162319D01*
X120334436Y-125223642D01*
X120329452Y-125293334D01*
X120300951Y-125337681D01*
X120207289Y-125431342D01*
X120115187Y-125580663D01*
X120115186Y-125580666D01*
X120060001Y-125747203D01*
X120060001Y-125747204D01*
X120060000Y-125747204D01*
X120049500Y-125849983D01*
X120049500Y-126650001D01*
X120049501Y-126650019D01*
X120060000Y-126752796D01*
X120060001Y-126752799D01*
X120081721Y-126818345D01*
X120115186Y-126919334D01*
X120207288Y-127068656D01*
X120331344Y-127192712D01*
X120480666Y-127284814D01*
X120647203Y-127339999D01*
X120749991Y-127350500D01*
X121501521Y-127350499D01*
X121568560Y-127370183D01*
X121589202Y-127386818D01*
X124599681Y-130397297D01*
X124633166Y-130458620D01*
X124636000Y-130484978D01*
X124636000Y-131180560D01*
X124616315Y-131247599D01*
X124599681Y-131268241D01*
X124570184Y-131297737D01*
X124474211Y-131450476D01*
X124414631Y-131620745D01*
X124414630Y-131620750D01*
X124394435Y-131799996D01*
X124394435Y-131800003D01*
X124414630Y-131979249D01*
X124414631Y-131979254D01*
X124474211Y-132149523D01*
X124548930Y-132268436D01*
X124570184Y-132302262D01*
X124697738Y-132429816D01*
X124850478Y-132525789D01*
X124940497Y-132557288D01*
X125020745Y-132585368D01*
X125020750Y-132585369D01*
X125199996Y-132605565D01*
X125200000Y-132605565D01*
X125200004Y-132605565D01*
X125379249Y-132585369D01*
X125379252Y-132585368D01*
X125379255Y-132585368D01*
X125549522Y-132525789D01*
X125702262Y-132429816D01*
X125829816Y-132302262D01*
X125925789Y-132149522D01*
X125985368Y-131979255D01*
X125986675Y-131967658D01*
X126005565Y-131800003D01*
X126005565Y-131799996D01*
X125985369Y-131620750D01*
X125985368Y-131620745D01*
X125925788Y-131450476D01*
X125829815Y-131297737D01*
X125800319Y-131268241D01*
X125766834Y-131206918D01*
X125764000Y-131180560D01*
X125764000Y-130284255D01*
X125764001Y-130284242D01*
X125764001Y-130125750D01*
X125764001Y-130125748D01*
X125725565Y-129982304D01*
X125720383Y-129973329D01*
X125651315Y-129853699D01*
X125651310Y-129853693D01*
X125124563Y-129326946D01*
X126800000Y-129326946D01*
X126800000Y-129550000D01*
X127300000Y-129550000D01*
X127300000Y-128820832D01*
X127218557Y-128830613D01*
X127218556Y-128830613D01*
X127077904Y-128886079D01*
X126957435Y-128977435D01*
X126866079Y-129097904D01*
X126810613Y-129238556D01*
X126800000Y-129326946D01*
X125124563Y-129326946D01*
X124087616Y-128289999D01*
X122486817Y-126689201D01*
X122453333Y-126627879D01*
X122450499Y-126601529D01*
X122450499Y-125849992D01*
X122449153Y-125836819D01*
X122439999Y-125747203D01*
X122439998Y-125747200D01*
X122384814Y-125580666D01*
X122292712Y-125431344D01*
X122199049Y-125337681D01*
X122165564Y-125276358D01*
X122170548Y-125206666D01*
X122199049Y-125162319D01*
X122292712Y-125068656D01*
X122384814Y-124919334D01*
X122439999Y-124752797D01*
X122450500Y-124650009D01*
X122450499Y-123950095D01*
X122470183Y-123883057D01*
X122486813Y-123862420D01*
X123108506Y-123240728D01*
X123108511Y-123240724D01*
X123118714Y-123230520D01*
X123118716Y-123230520D01*
X123230520Y-123118716D01*
X123299070Y-122999983D01*
X124399500Y-122999983D01*
X124399500Y-124000001D01*
X124399501Y-124000019D01*
X124410000Y-124102796D01*
X124410001Y-124102799D01*
X124465185Y-124269331D01*
X124465187Y-124269336D01*
X124480604Y-124294331D01*
X124557288Y-124418656D01*
X124681344Y-124542712D01*
X124830666Y-124634814D01*
X124997203Y-124689999D01*
X125099991Y-124700500D01*
X125851521Y-124700499D01*
X125918560Y-124720183D01*
X125939202Y-124736818D01*
X127849681Y-126647297D01*
X127883166Y-126708620D01*
X127886000Y-126734978D01*
X127886000Y-128703388D01*
X127866315Y-128770427D01*
X127813511Y-128816182D01*
X127747214Y-128826503D01*
X127700000Y-128820832D01*
X127700000Y-129626000D01*
X127680315Y-129693039D01*
X127627511Y-129738794D01*
X127576000Y-129750000D01*
X127500000Y-129750000D01*
X127500000Y-129826000D01*
X127480315Y-129893039D01*
X127427511Y-129938794D01*
X127376000Y-129950000D01*
X126800000Y-129950000D01*
X126800000Y-130163576D01*
X126792182Y-130206909D01*
X126771403Y-130262620D01*
X126771401Y-130262627D01*
X126765000Y-130322155D01*
X126765000Y-130935000D01*
X130135000Y-130935000D01*
X130135000Y-130322172D01*
X130134999Y-130322155D01*
X130128598Y-130262627D01*
X130128596Y-130262620D01*
X130108318Y-130208250D01*
X130100500Y-130164917D01*
X130100500Y-129985451D01*
X130120185Y-129918412D01*
X130136815Y-129897774D01*
X130861229Y-129173360D01*
X130861233Y-129173358D01*
X130948358Y-129086233D01*
X131004466Y-129002262D01*
X131016812Y-128983785D01*
X131063963Y-128869951D01*
X131088000Y-128749107D01*
X131088000Y-128625893D01*
X131088000Y-126399986D01*
X135300001Y-126399986D01*
X135310494Y-126502697D01*
X135365641Y-126669119D01*
X135365643Y-126669124D01*
X135457684Y-126818345D01*
X135581654Y-126942315D01*
X135730875Y-127034356D01*
X135730880Y-127034358D01*
X135897302Y-127089505D01*
X135897309Y-127089506D01*
X136000019Y-127099999D01*
X136249999Y-127099999D01*
X136750000Y-127099999D01*
X136999972Y-127099999D01*
X136999986Y-127099998D01*
X137102697Y-127089505D01*
X137269119Y-127034358D01*
X137269124Y-127034356D01*
X137418345Y-126942315D01*
X137542315Y-126818345D01*
X137634356Y-126669124D01*
X137634358Y-126669119D01*
X137689505Y-126502697D01*
X137689506Y-126502690D01*
X137699999Y-126399986D01*
X137700000Y-126399973D01*
X137700000Y-126250000D01*
X136750000Y-126250000D01*
X136750000Y-127099999D01*
X136249999Y-127099999D01*
X136250000Y-127099998D01*
X136250000Y-126250000D01*
X135300001Y-126250000D01*
X135300001Y-126399986D01*
X131088000Y-126399986D01*
X131088000Y-124748347D01*
X131107685Y-124681308D01*
X131146901Y-124642810D01*
X131268656Y-124567712D01*
X131392712Y-124443656D01*
X131394752Y-124440347D01*
X131396745Y-124438555D01*
X131397193Y-124437989D01*
X131397289Y-124438065D01*
X131446694Y-124393623D01*
X131515656Y-124382395D01*
X131579740Y-124410234D01*
X131605829Y-124440339D01*
X131607681Y-124443341D01*
X131607683Y-124443344D01*
X131731654Y-124567315D01*
X131880875Y-124659356D01*
X131880880Y-124659358D01*
X132047302Y-124714505D01*
X132047309Y-124714506D01*
X132150019Y-124724999D01*
X132287499Y-124724999D01*
X132787500Y-124724999D01*
X132924972Y-124724999D01*
X132924986Y-124724998D01*
X133027697Y-124714505D01*
X133194119Y-124659358D01*
X133194124Y-124659356D01*
X133343345Y-124567315D01*
X133467315Y-124443345D01*
X133559356Y-124294124D01*
X133559358Y-124294119D01*
X133614505Y-124127697D01*
X133614506Y-124127690D01*
X133624999Y-124024986D01*
X133625000Y-124024973D01*
X133625000Y-123750000D01*
X132787500Y-123750000D01*
X132787500Y-124724999D01*
X132287499Y-124724999D01*
X132287500Y-124724998D01*
X132287500Y-123250000D01*
X132787500Y-123250000D01*
X133624999Y-123250000D01*
X133624999Y-122975028D01*
X133624998Y-122975013D01*
X133614505Y-122872302D01*
X133559358Y-122705880D01*
X133559356Y-122705875D01*
X133467315Y-122556654D01*
X133343345Y-122432684D01*
X133194124Y-122340643D01*
X133194119Y-122340641D01*
X133027697Y-122285494D01*
X133027690Y-122285493D01*
X132924986Y-122275000D01*
X132787500Y-122275000D01*
X132787500Y-123250000D01*
X132287500Y-123250000D01*
X132287500Y-122275000D01*
X132150027Y-122275000D01*
X132150012Y-122275001D01*
X132047302Y-122285494D01*
X131880880Y-122340641D01*
X131880875Y-122340643D01*
X131731654Y-122432684D01*
X131607683Y-122556655D01*
X131607679Y-122556660D01*
X131605826Y-122559665D01*
X131604018Y-122561290D01*
X131603202Y-122562323D01*
X131603025Y-122562183D01*
X131553874Y-122606385D01*
X131484911Y-122617601D01*
X131420831Y-122589752D01*
X131394753Y-122559653D01*
X131394737Y-122559628D01*
X131392712Y-122556344D01*
X131268656Y-122432288D01*
X131268655Y-122432287D01*
X131186986Y-122381914D01*
X131140261Y-122329966D01*
X131129038Y-122261004D01*
X131156881Y-122196922D01*
X131186109Y-122171382D01*
X131252262Y-122129816D01*
X131379816Y-122002262D01*
X131475789Y-121849522D01*
X131535368Y-121679255D01*
X131538839Y-121648449D01*
X131555565Y-121500003D01*
X131555565Y-121499996D01*
X131535369Y-121320750D01*
X131535368Y-121320745D01*
X131510613Y-121250000D01*
X131475789Y-121150478D01*
X131468809Y-121139370D01*
X131407827Y-121042317D01*
X131379816Y-120997738D01*
X131252262Y-120870184D01*
X131206728Y-120841573D01*
X131099523Y-120774211D01*
X130929254Y-120714631D01*
X130929249Y-120714630D01*
X130750004Y-120694435D01*
X130749996Y-120694435D01*
X130570750Y-120714630D01*
X130570745Y-120714631D01*
X130400476Y-120774211D01*
X130247739Y-120870183D01*
X130177912Y-120940010D01*
X130116588Y-120973494D01*
X130046897Y-120968509D01*
X129990963Y-120926638D01*
X129978510Y-120906128D01*
X129975789Y-120900477D01*
X129896450Y-120774211D01*
X129879816Y-120747738D01*
X129752262Y-120620184D01*
X129724432Y-120602697D01*
X129599523Y-120524211D01*
X129429254Y-120464631D01*
X129429249Y-120464630D01*
X129250004Y-120444435D01*
X129249996Y-120444435D01*
X129070750Y-120464630D01*
X129070745Y-120464631D01*
X128900476Y-120524211D01*
X128790471Y-120593332D01*
X128723234Y-120612332D01*
X128656399Y-120591964D01*
X128611185Y-120538696D01*
X128600499Y-120488342D01*
X128600499Y-119499992D01*
X128595612Y-119452155D01*
X128589999Y-119397203D01*
X128589998Y-119397200D01*
X128588480Y-119392620D01*
X128534814Y-119230666D01*
X128442712Y-119081344D01*
X128318656Y-118957288D01*
X128225888Y-118900069D01*
X128169336Y-118865187D01*
X128169331Y-118865185D01*
X128100374Y-118842335D01*
X128002797Y-118810001D01*
X128002795Y-118810000D01*
X127900010Y-118799500D01*
X127099998Y-118799500D01*
X127099980Y-118799501D01*
X126997203Y-118810000D01*
X126997200Y-118810001D01*
X126830668Y-118865185D01*
X126830663Y-118865187D01*
X126681345Y-118957287D01*
X126587327Y-119051305D01*
X126526003Y-119084789D01*
X126456312Y-119079805D01*
X126411965Y-119051304D01*
X126318345Y-118957684D01*
X126169124Y-118865643D01*
X126169119Y-118865641D01*
X126002697Y-118810494D01*
X126002690Y-118810493D01*
X125899986Y-118800000D01*
X125750000Y-118800000D01*
X125750000Y-121199999D01*
X125899972Y-121199999D01*
X125899986Y-121199998D01*
X126002697Y-121189505D01*
X126169119Y-121134358D01*
X126169124Y-121134356D01*
X126318342Y-121042317D01*
X126411964Y-120948695D01*
X126473287Y-120915210D01*
X126542979Y-120920194D01*
X126587327Y-120948695D01*
X126681344Y-121042712D01*
X126830666Y-121134814D01*
X126830669Y-121134815D01*
X126831726Y-121135308D01*
X126832330Y-121135840D01*
X126836813Y-121138605D01*
X126836340Y-121139370D01*
X126884168Y-121181477D01*
X126903324Y-121248670D01*
X126883112Y-121315552D01*
X126867009Y-121335374D01*
X125939201Y-122263181D01*
X125877878Y-122296666D01*
X125851520Y-122299500D01*
X125099998Y-122299500D01*
X125099980Y-122299501D01*
X124997203Y-122310000D01*
X124997200Y-122310001D01*
X124830668Y-122365185D01*
X124830663Y-122365187D01*
X124681342Y-122457289D01*
X124557289Y-122581342D01*
X124465187Y-122730663D01*
X124465186Y-122730666D01*
X124410001Y-122897203D01*
X124410001Y-122897204D01*
X124410000Y-122897204D01*
X124399500Y-122999983D01*
X123299070Y-122999983D01*
X123309577Y-122981784D01*
X123350500Y-122829057D01*
X123350500Y-120499986D01*
X124400001Y-120499986D01*
X124410494Y-120602697D01*
X124465641Y-120769119D01*
X124465643Y-120769124D01*
X124557684Y-120918345D01*
X124681654Y-121042315D01*
X124830875Y-121134356D01*
X124830880Y-121134358D01*
X124997302Y-121189505D01*
X124997309Y-121189506D01*
X125100019Y-121199999D01*
X125249999Y-121199999D01*
X125250000Y-121199998D01*
X125250000Y-120250000D01*
X124400001Y-120250000D01*
X124400001Y-120499986D01*
X123350500Y-120499986D01*
X123350500Y-119500013D01*
X124400000Y-119500013D01*
X124400000Y-119750000D01*
X125250000Y-119750000D01*
X125250000Y-118800000D01*
X125100027Y-118800000D01*
X125100012Y-118800001D01*
X124997302Y-118810494D01*
X124830880Y-118865641D01*
X124830875Y-118865643D01*
X124681654Y-118957684D01*
X124557684Y-119081654D01*
X124465643Y-119230875D01*
X124465641Y-119230880D01*
X124410494Y-119397302D01*
X124410493Y-119397309D01*
X124400000Y-119500013D01*
X123350500Y-119500013D01*
X123350500Y-119300096D01*
X123370185Y-119233057D01*
X123386814Y-119212420D01*
X128358506Y-114240727D01*
X128358511Y-114240724D01*
X128368714Y-114230520D01*
X128368716Y-114230520D01*
X128480520Y-114118716D01*
X128549060Y-114000000D01*
X128559577Y-113981785D01*
X128600500Y-113829058D01*
X128600500Y-113670943D01*
X128600500Y-111550097D01*
X128620185Y-111483058D01*
X128636819Y-111462416D01*
X130202416Y-109896819D01*
X130263739Y-109863334D01*
X130290097Y-109860500D01*
X130629906Y-109860500D01*
X130696945Y-109880185D01*
G37*
G04 #@! TD.AperFunction*
G04 #@! TA.AperFunction,Conductor*
G36*
X140589951Y-133349051D02*
G01*
X140622179Y-133411044D01*
X140624500Y-133434926D01*
X140624500Y-134440500D01*
X140604815Y-134507539D01*
X140552011Y-134553294D01*
X140500500Y-134564500D01*
X140438236Y-134564500D01*
X140408483Y-134570824D01*
X140268501Y-134600577D01*
X140268500Y-134600577D01*
X140204335Y-134629146D01*
X140135085Y-134638430D01*
X140071808Y-134608801D01*
X140034596Y-134549666D01*
X140029900Y-134515866D01*
X140029900Y-133493317D01*
X140049585Y-133426278D01*
X140102389Y-133380523D01*
X140167784Y-133370097D01*
X140183677Y-133371888D01*
X140183678Y-133371887D01*
X140183679Y-133371888D01*
X140183680Y-133371888D01*
X140362926Y-133351692D01*
X140362928Y-133351691D01*
X140362932Y-133351691D01*
X140362935Y-133351689D01*
X140362939Y-133351689D01*
X140459545Y-133317885D01*
X140529324Y-133314323D01*
X140589951Y-133349051D01*
G37*
G04 #@! TD.AperFunction*
G04 #@! TA.AperFunction,Conductor*
G36*
X140194855Y-128741318D02*
G01*
X140320737Y-128785366D01*
X140320742Y-128785367D01*
X140320745Y-128785368D01*
X140367823Y-128790672D01*
X140432236Y-128817737D01*
X140441621Y-128826211D01*
X140588181Y-128972771D01*
X140621666Y-129034094D01*
X140624500Y-129060452D01*
X140624500Y-129510547D01*
X140604815Y-129577586D01*
X140588181Y-129598228D01*
X140241581Y-129944828D01*
X140180258Y-129978313D01*
X140110566Y-129973329D01*
X140054633Y-129931457D01*
X140030216Y-129865993D01*
X140029900Y-129857147D01*
X140029900Y-128858359D01*
X140049585Y-128791320D01*
X140102389Y-128745565D01*
X140171547Y-128735621D01*
X140194855Y-128741318D01*
G37*
G04 #@! TD.AperFunction*
G04 #@! TA.AperFunction,Conductor*
G36*
X117793334Y-109920548D02*
G01*
X117837681Y-109949049D01*
X117931344Y-110042712D01*
X118080666Y-110134814D01*
X118247203Y-110189999D01*
X118349991Y-110200500D01*
X119014547Y-110200499D01*
X119081586Y-110220183D01*
X119102228Y-110236818D01*
X121011016Y-112145606D01*
X121011045Y-112145637D01*
X121101263Y-112235855D01*
X121101267Y-112235858D01*
X121203707Y-112304307D01*
X121203713Y-112304310D01*
X121203714Y-112304311D01*
X121317548Y-112351463D01*
X121347814Y-112357483D01*
X121438391Y-112375499D01*
X121438392Y-112375500D01*
X121438393Y-112375500D01*
X121438394Y-112375500D01*
X124750500Y-112375500D01*
X124817539Y-112395185D01*
X124863294Y-112447989D01*
X124874500Y-112499500D01*
X124874500Y-113455145D01*
X124855494Y-113521117D01*
X124774211Y-113650476D01*
X124714631Y-113820745D01*
X124714630Y-113820750D01*
X124694435Y-113999996D01*
X124694435Y-114000000D01*
X124714630Y-114179249D01*
X124714631Y-114179254D01*
X124774211Y-114349523D01*
X124870184Y-114502262D01*
X124997738Y-114629816D01*
X125030972Y-114650698D01*
X125077263Y-114703033D01*
X125087911Y-114772086D01*
X125059536Y-114835935D01*
X125052682Y-114843373D01*
X124755874Y-115140181D01*
X124694554Y-115173665D01*
X124668195Y-115176499D01*
X124643943Y-115176499D01*
X124567579Y-115196961D01*
X124491214Y-115217423D01*
X124491209Y-115217426D01*
X124354290Y-115296475D01*
X124354282Y-115296481D01*
X122062180Y-117588584D01*
X122000857Y-117622069D01*
X121931165Y-117617085D01*
X121875232Y-117575213D01*
X121850815Y-117509749D01*
X121850499Y-117500903D01*
X121850499Y-117302129D01*
X121850498Y-117302123D01*
X121844091Y-117242516D01*
X121793797Y-117107671D01*
X121793793Y-117107664D01*
X121707547Y-116992455D01*
X121707544Y-116992452D01*
X121592335Y-116906206D01*
X121592328Y-116906202D01*
X121457482Y-116855908D01*
X121457483Y-116855908D01*
X121397883Y-116849501D01*
X121397881Y-116849500D01*
X121397873Y-116849500D01*
X121397864Y-116849500D01*
X120252129Y-116849500D01*
X120252123Y-116849501D01*
X120192516Y-116855908D01*
X120057671Y-116906202D01*
X120057664Y-116906206D01*
X119942455Y-116992452D01*
X119942452Y-116992455D01*
X119890907Y-117061311D01*
X119834974Y-117103182D01*
X119791641Y-117111000D01*
X117708359Y-117111000D01*
X117641320Y-117091315D01*
X117609093Y-117061311D01*
X117557547Y-116992455D01*
X117557544Y-116992452D01*
X117442335Y-116906206D01*
X117442326Y-116906201D01*
X117357168Y-116874440D01*
X117301234Y-116832569D01*
X117276816Y-116767105D01*
X117276500Y-116758258D01*
X117276500Y-114030116D01*
X117296185Y-113963077D01*
X117348989Y-113917322D01*
X117361481Y-113912416D01*
X117369334Y-113909814D01*
X117518656Y-113817712D01*
X117642712Y-113693656D01*
X117644752Y-113690347D01*
X117646745Y-113688555D01*
X117647193Y-113687989D01*
X117647289Y-113688065D01*
X117696694Y-113643623D01*
X117765656Y-113632395D01*
X117829740Y-113660234D01*
X117855829Y-113690339D01*
X117857681Y-113693341D01*
X117857683Y-113693344D01*
X117981654Y-113817315D01*
X118130875Y-113909356D01*
X118130880Y-113909358D01*
X118297302Y-113964505D01*
X118297309Y-113964506D01*
X118400019Y-113974999D01*
X118537499Y-113974999D01*
X119037500Y-113974999D01*
X119174972Y-113974999D01*
X119174986Y-113974998D01*
X119277697Y-113964505D01*
X119444119Y-113909358D01*
X119444124Y-113909356D01*
X119593345Y-113817315D01*
X119717315Y-113693345D01*
X119809356Y-113544124D01*
X119809358Y-113544119D01*
X119864505Y-113377697D01*
X119864506Y-113377690D01*
X119874999Y-113274986D01*
X119875000Y-113274973D01*
X119875000Y-113000000D01*
X119037500Y-113000000D01*
X119037500Y-113974999D01*
X118537499Y-113974999D01*
X118537500Y-113974998D01*
X118537500Y-112500000D01*
X119037500Y-112500000D01*
X119874999Y-112500000D01*
X119874999Y-112225028D01*
X119874998Y-112225013D01*
X119864505Y-112122302D01*
X119809358Y-111955880D01*
X119809356Y-111955875D01*
X119717315Y-111806654D01*
X119593345Y-111682684D01*
X119444124Y-111590643D01*
X119444119Y-111590641D01*
X119277697Y-111535494D01*
X119277690Y-111535493D01*
X119174986Y-111525000D01*
X119037500Y-111525000D01*
X119037500Y-112500000D01*
X118537500Y-112500000D01*
X118537500Y-111525000D01*
X118400027Y-111525000D01*
X118400012Y-111525001D01*
X118297302Y-111535494D01*
X118130880Y-111590641D01*
X118130875Y-111590643D01*
X117981654Y-111682684D01*
X117857683Y-111806655D01*
X117857679Y-111806660D01*
X117855826Y-111809665D01*
X117854018Y-111811290D01*
X117853202Y-111812323D01*
X117853025Y-111812183D01*
X117803874Y-111856385D01*
X117734911Y-111867601D01*
X117670831Y-111839752D01*
X117644753Y-111809653D01*
X117644737Y-111809628D01*
X117642712Y-111806344D01*
X117518656Y-111682288D01*
X117443882Y-111636167D01*
X117372903Y-111592387D01*
X117326179Y-111540439D01*
X117314000Y-111486848D01*
X117314000Y-110259258D01*
X117333685Y-110192219D01*
X117386489Y-110146464D01*
X117398977Y-110141559D01*
X117419334Y-110134814D01*
X117568656Y-110042712D01*
X117662319Y-109949049D01*
X117723642Y-109915564D01*
X117793334Y-109920548D01*
G37*
G04 #@! TD.AperFunction*
G04 #@! TA.AperFunction,Conductor*
G36*
X152693834Y-108506295D02*
G01*
X152749767Y-108548167D01*
X152774184Y-108613631D01*
X152774500Y-108622477D01*
X152774500Y-109322870D01*
X152774501Y-109322876D01*
X152780908Y-109382483D01*
X152831202Y-109517328D01*
X152831203Y-109517329D01*
X152831204Y-109517331D01*
X152917452Y-109632543D01*
X152917451Y-109632543D01*
X152917452Y-109632544D01*
X152917454Y-109632546D01*
X152949812Y-109656769D01*
X152991681Y-109712700D01*
X152999500Y-109756034D01*
X152999500Y-111893964D01*
X152979815Y-111961003D01*
X152949812Y-111993230D01*
X152917457Y-112017450D01*
X152917451Y-112017457D01*
X152831206Y-112132664D01*
X152831202Y-112132671D01*
X152780908Y-112267517D01*
X152774501Y-112327116D01*
X152774501Y-112327123D01*
X152774500Y-112327135D01*
X152774500Y-113472870D01*
X152774501Y-113472876D01*
X152780908Y-113532483D01*
X152816682Y-113628395D01*
X152824500Y-113671728D01*
X152824500Y-114986232D01*
X152804815Y-115053271D01*
X152765598Y-115091769D01*
X152732591Y-115112129D01*
X152618842Y-115182289D01*
X152494789Y-115306342D01*
X152402687Y-115455663D01*
X152402685Y-115455668D01*
X152402615Y-115455880D01*
X152347501Y-115622203D01*
X152347501Y-115622204D01*
X152347500Y-115622204D01*
X152337000Y-115724983D01*
X152337000Y-116437401D01*
X152317315Y-116504440D01*
X152300681Y-116525082D01*
X152050791Y-116774973D01*
X151556950Y-117268815D01*
X151312584Y-117513181D01*
X151251261Y-117546666D01*
X151224903Y-117549500D01*
X150870094Y-117549500D01*
X150803055Y-117529815D01*
X150757300Y-117477011D01*
X150746804Y-117412246D01*
X150750500Y-117377873D01*
X150750499Y-116382128D01*
X150744091Y-116322517D01*
X150731340Y-116288332D01*
X150726357Y-116218642D01*
X150731340Y-116201669D01*
X150744091Y-116167483D01*
X150750500Y-116107873D01*
X150750499Y-115112128D01*
X150744091Y-115052517D01*
X150731340Y-115018332D01*
X150726357Y-114948642D01*
X150731340Y-114931669D01*
X150744091Y-114897483D01*
X150750500Y-114837873D01*
X150750499Y-113842128D01*
X150744091Y-113782517D01*
X150731340Y-113748332D01*
X150726357Y-113678642D01*
X150731340Y-113661669D01*
X150744091Y-113627483D01*
X150750500Y-113567873D01*
X150750499Y-112572128D01*
X150744091Y-112512517D01*
X150731340Y-112478332D01*
X150726357Y-112408642D01*
X150731340Y-112391669D01*
X150744091Y-112357483D01*
X150750500Y-112297873D01*
X150750499Y-111302128D01*
X150744091Y-111242517D01*
X150731340Y-111208332D01*
X150726357Y-111138642D01*
X150731340Y-111121669D01*
X150744091Y-111087483D01*
X150750500Y-111027873D01*
X150750499Y-110398476D01*
X150770183Y-110331438D01*
X150786813Y-110310801D01*
X152562820Y-108534794D01*
X152624142Y-108501311D01*
X152693834Y-108506295D01*
G37*
G04 #@! TD.AperFunction*
G04 #@! TA.AperFunction,Conductor*
G36*
X115705703Y-113580329D02*
G01*
X115730038Y-113608944D01*
X115742035Y-113628395D01*
X115782095Y-113693344D01*
X115782288Y-113693656D01*
X115906344Y-113817712D01*
X116055666Y-113909814D01*
X116063501Y-113912410D01*
X116120945Y-113952178D01*
X116147771Y-114016692D01*
X116148500Y-114030116D01*
X116148500Y-116733130D01*
X116128815Y-116800169D01*
X116076011Y-116845924D01*
X116049828Y-116853111D01*
X116050068Y-116854124D01*
X116042520Y-116855907D01*
X115907671Y-116906202D01*
X115907664Y-116906206D01*
X115792455Y-116992452D01*
X115792452Y-116992455D01*
X115723766Y-117084208D01*
X115667832Y-117126079D01*
X115598141Y-117131063D01*
X115536818Y-117097577D01*
X115503334Y-117036254D01*
X115500500Y-117009897D01*
X115500500Y-113674042D01*
X115520185Y-113607003D01*
X115572989Y-113561248D01*
X115642147Y-113551304D01*
X115705703Y-113580329D01*
G37*
G04 #@! TD.AperFunction*
G04 #@! TA.AperFunction,Conductor*
G36*
X126318834Y-111418270D02*
G01*
X126374767Y-111460142D01*
X126399184Y-111525606D01*
X126399500Y-111534452D01*
X126399500Y-113445192D01*
X126379815Y-113512231D01*
X126363181Y-113532873D01*
X126343373Y-113552681D01*
X126282050Y-113586166D01*
X126212358Y-113581182D01*
X126156425Y-113539310D01*
X126150697Y-113530970D01*
X126144505Y-113521115D01*
X126125500Y-113455145D01*
X126125500Y-111560452D01*
X126145185Y-111493413D01*
X126161819Y-111472771D01*
X126187819Y-111446771D01*
X126249142Y-111413286D01*
X126318834Y-111418270D01*
G37*
G04 #@! TD.AperFunction*
G04 #@! TA.AperFunction,Conductor*
G36*
X115705703Y-109764797D02*
G01*
X115730037Y-109793412D01*
X115765970Y-109851669D01*
X115805380Y-109915564D01*
X115807288Y-109918656D01*
X115931344Y-110042712D01*
X116080666Y-110134814D01*
X116101004Y-110141553D01*
X116158447Y-110181322D01*
X116185272Y-110245837D01*
X116186000Y-110259258D01*
X116186000Y-111457456D01*
X116166315Y-111524495D01*
X116113511Y-111570250D01*
X116101005Y-111575162D01*
X116055666Y-111590186D01*
X115906342Y-111682289D01*
X115782289Y-111806342D01*
X115780033Y-111810000D01*
X115749368Y-111859717D01*
X115730039Y-111891054D01*
X115678091Y-111937778D01*
X115609128Y-111949001D01*
X115545046Y-111921157D01*
X115506190Y-111863089D01*
X115500500Y-111825957D01*
X115500500Y-109858510D01*
X115520185Y-109791471D01*
X115572989Y-109745716D01*
X115642147Y-109735772D01*
X115705703Y-109764797D01*
G37*
G04 #@! TD.AperFunction*
G04 #@! TA.AperFunction,Conductor*
G36*
X130694258Y-103555185D02*
G01*
X130740013Y-103607989D01*
X130750507Y-103672756D01*
X130749500Y-103682127D01*
X130749500Y-103682129D01*
X130749500Y-104677870D01*
X130749501Y-104677876D01*
X130755908Y-104737481D01*
X130768659Y-104771669D01*
X130773642Y-104841361D01*
X130768659Y-104858331D01*
X130755908Y-104892518D01*
X130749501Y-104952116D01*
X130749501Y-104952123D01*
X130749500Y-104952135D01*
X130749500Y-105947870D01*
X130749501Y-105947876D01*
X130755908Y-106007481D01*
X130768659Y-106041669D01*
X130773642Y-106111361D01*
X130768659Y-106128331D01*
X130755908Y-106162518D01*
X130749886Y-106218533D01*
X130749501Y-106222123D01*
X130749500Y-106222135D01*
X130749500Y-107217870D01*
X130749501Y-107217873D01*
X130753196Y-107252247D01*
X130740789Y-107321006D01*
X130693178Y-107372143D01*
X130629906Y-107389500D01*
X130540098Y-107389500D01*
X130473059Y-107369815D01*
X130452417Y-107353181D01*
X130368718Y-107269482D01*
X130368716Y-107269480D01*
X130231785Y-107190423D01*
X130079058Y-107149499D01*
X130079057Y-107149499D01*
X129920943Y-107149499D01*
X129841010Y-107170917D01*
X129768216Y-107190422D01*
X129720669Y-107217874D01*
X129720668Y-107217873D01*
X129631287Y-107269477D01*
X129631282Y-107269481D01*
X129032772Y-107867991D01*
X128971449Y-107901476D01*
X128901757Y-107896492D01*
X128845824Y-107854620D01*
X128821407Y-107789156D01*
X128827384Y-107741309D01*
X128864999Y-107627797D01*
X128875500Y-107525009D01*
X128875499Y-106474992D01*
X128869937Y-106420548D01*
X128864999Y-106372203D01*
X128864998Y-106372200D01*
X128851691Y-106332043D01*
X128809814Y-106205666D01*
X128717712Y-106056344D01*
X128593656Y-105932288D01*
X128471902Y-105857190D01*
X128425179Y-105805243D01*
X128413000Y-105751652D01*
X128413000Y-104498347D01*
X128432685Y-104431308D01*
X128471901Y-104392810D01*
X128593656Y-104317712D01*
X128717712Y-104193656D01*
X128809814Y-104044334D01*
X128864999Y-103877797D01*
X128875500Y-103775009D01*
X128875500Y-103659500D01*
X128895185Y-103592461D01*
X128947989Y-103546706D01*
X128999500Y-103535500D01*
X130627219Y-103535500D01*
X130694258Y-103555185D01*
G37*
G04 #@! TD.AperFunction*
G04 #@! TA.AperFunction,Conductor*
G36*
X154743334Y-106420548D02*
G01*
X154787681Y-106449049D01*
X154881344Y-106542712D01*
X155030666Y-106634814D01*
X155197203Y-106689999D01*
X155299991Y-106700500D01*
X156100008Y-106700499D01*
X156100016Y-106700498D01*
X156100019Y-106700498D01*
X156156302Y-106694748D01*
X156202797Y-106689999D01*
X156318732Y-106651581D01*
X156388556Y-106649180D01*
X156448599Y-106684911D01*
X156479792Y-106747431D01*
X156472232Y-106816891D01*
X156445415Y-106856968D01*
X156302701Y-106999682D01*
X156241381Y-107033166D01*
X156215022Y-107036000D01*
X153260977Y-107036000D01*
X153193938Y-107016315D01*
X153148183Y-106963511D01*
X153138239Y-106894353D01*
X153167264Y-106830797D01*
X153173276Y-106824338D01*
X153260799Y-106736815D01*
X153322118Y-106703333D01*
X153348468Y-106700499D01*
X154100008Y-106700499D01*
X154100016Y-106700498D01*
X154100019Y-106700498D01*
X154156302Y-106694748D01*
X154202797Y-106689999D01*
X154369334Y-106634814D01*
X154518656Y-106542712D01*
X154612319Y-106449049D01*
X154673642Y-106415564D01*
X154743334Y-106420548D01*
G37*
G04 #@! TD.AperFunction*
M02*
