M48
; DRILL file {KiCad 8.0.8} date 2025-01-20T22:43:25+0900
; FORMAT={-:-/ absolute / metric / decimal}
; #@! TF.CreationDate,2025-01-20T22:43:25+09:00
; #@! TF.GenerationSoftware,Kicad,Pcbnew,8.0.8
; #@! TF.FileFunction,Plated,1,4,PTH
FMAT,2
METRIC
; #@! TA.AperFunction,Plated,PTH,ComponentDrill
T1C0.200
; #@! TA.AperFunction,Plated,PTH,ViaDrill
T2C0.300
; #@! TA.AperFunction,Plated,PTH,ComponentDrill
T3C0.300
; #@! TA.AperFunction,Plated,PTH,ComponentDrill
T4C0.400
; #@! TA.AperFunction,Plated,PTH,ComponentDrill
T5C0.600
; #@! TA.AperFunction,Plated,PTH,ComponentDrill
T6C0.750
%
G90
G05
T1
X137.85Y-110.06
X138.55Y-110.76
X139.25Y-108.66
X139.25Y-110.06
X139.95Y-107.96
X139.95Y-109.36
X139.95Y-110.76
X140.65Y-108.66
X140.65Y-110.06
T2
X116.0Y-110.75
X116.0Y-116.0
X116.2Y-127.6
X116.25Y-135.0
X121.7Y-136.9
X122.0Y-114.5
X122.0Y-121.75
X122.2Y-140.3
X122.75Y-102.25
X123.0Y-108.25
X124.0Y-130.75
X124.5Y-105.0
X124.75Y-115.25
X125.2Y-131.8
X125.5Y-114.0
X126.25Y-112.25
X127.1Y-141.1
X127.8Y-140.1
X129.0Y-125.25
X129.25Y-114.5
X129.25Y-121.25
X130.2Y-139.7
X130.5Y-106.0
X130.75Y-121.5
X132.0Y-104.18
X133.25Y-125.5
X133.25Y-137.75
X133.5Y-132.5
X133.5Y-140.3
X134.5Y-106.2
X135.0Y-114.0
X135.25Y-128.5
X135.75Y-129.25
X136.0Y-111.8
X136.0Y-138.25
X136.25Y-102.5
X136.448Y-118.052
X136.5Y-139.75
X137.052Y-117.448
X137.75Y-138.0
X138.5Y-130.5
X138.5Y-132.0
X138.823Y-120.781
X139.0Y-103.0
X139.677Y-120.781
X140.184Y-132.566
X140.25Y-129.75
X140.25Y-133.75
X140.5Y-128.0
X140.5Y-138.0
X142.25Y-138.5
X142.5Y-121.5
X144.0Y-102.75
X144.0Y-106.25
X144.2Y-116.0
X144.25Y-108.75
X145.5Y-105.5
X146.25Y-112.75
X146.4Y-129.3
X146.8Y-139.3
X149.75Y-123.25
X151.5Y-112.9
X151.75Y-102.0
X152.4Y-126.8
X154.5Y-119.5
X154.5Y-123.0
X155.7Y-104.0
X156.3Y-106.9
X156.4Y-136.0
X157.0Y-100.8
X158.1Y-110.4
X160.6Y-103.9
X163.5Y-109.0
T3
X137.85Y-108.66
X138.55Y-107.96
X138.55Y-109.36
T4
X136.275Y-135.39
X136.275Y-136.74
X137.125Y-135.39
X137.125Y-136.74
X137.975Y-135.39
X137.975Y-136.74
X138.825Y-135.39
X138.825Y-136.74
X139.675Y-135.39
X139.675Y-136.74
X140.525Y-135.39
X140.525Y-136.74
X141.375Y-135.39
X141.375Y-136.74
X142.225Y-135.39
X142.225Y-136.74
T6
X149.7Y-133.2
X151.7Y-133.2
X153.7Y-133.2
X155.7Y-133.2
X157.7Y-133.2
T5
X134.925Y-135.62G85X134.925Y-137.12
G05
X134.925Y-139.35G85X134.925Y-140.15
G05
X143.575Y-135.62G85X143.575Y-137.12
G05
X143.575Y-139.35G85X143.575Y-140.15
G05
M30
