G04 #@! TF.GenerationSoftware,KiCad,Pcbnew,8.0.8*
G04 #@! TF.CreationDate,2025-01-20T22:51:13+09:00*
G04 #@! TF.ProjectId,house_controller_multiplex_breakout_board_v0.1.0,686f7573-655f-4636-9f6e-74726f6c6c65,rev?*
G04 #@! TF.SameCoordinates,Original*
G04 #@! TF.FileFunction,Copper,L1,Top*
G04 #@! TF.FilePolarity,Positive*
%FSLAX46Y46*%
G04 Gerber Fmt 4.6, Leading zero omitted, Abs format (unit mm)*
G04 Created by KiCad (PCBNEW 8.0.8) date 2025-01-20 22:51:13*
%MOMM*%
%LPD*%
G01*
G04 APERTURE LIST*
G04 Aperture macros list*
%AMRoundRect*
0 Rectangle with rounded corners*
0 $1 Rounding radius*
0 $2 $3 $4 $5 $6 $7 $8 $9 X,Y pos of 4 corners*
0 Add a 4 corners polygon primitive as box body*
4,1,4,$2,$3,$4,$5,$6,$7,$8,$9,$2,$3,0*
0 Add four circle primitives for the rounded corners*
1,1,$1+$1,$2,$3*
1,1,$1+$1,$4,$5*
1,1,$1+$1,$6,$7*
1,1,$1+$1,$8,$9*
0 Add four rect primitives between the rounded corners*
20,1,$1+$1,$2,$3,$4,$5,0*
20,1,$1+$1,$4,$5,$6,$7,0*
20,1,$1+$1,$6,$7,$8,$9,0*
20,1,$1+$1,$8,$9,$2,$3,0*%
G04 Aperture macros list end*
G04 #@! TA.AperFunction,SMDPad,CuDef*
%ADD10RoundRect,0.250000X-0.450000X0.350000X-0.450000X-0.350000X0.450000X-0.350000X0.450000X0.350000X0*%
G04 #@! TD*
G04 #@! TA.AperFunction,SMDPad,CuDef*
%ADD11RoundRect,0.250000X-0.350000X-0.450000X0.350000X-0.450000X0.350000X0.450000X-0.350000X0.450000X0*%
G04 #@! TD*
G04 #@! TA.AperFunction,ComponentPad*
%ADD12RoundRect,0.250000X0.512000X0.512000X-0.512000X0.512000X-0.512000X-0.512000X0.512000X-0.512000X0*%
G04 #@! TD*
G04 #@! TA.AperFunction,ComponentPad*
%ADD13C,1.524000*%
G04 #@! TD*
G04 #@! TA.AperFunction,SMDPad,CuDef*
%ADD14RoundRect,0.100000X-0.637500X-0.100000X0.637500X-0.100000X0.637500X0.100000X-0.637500X0.100000X0*%
G04 #@! TD*
G04 #@! TA.AperFunction,SMDPad,CuDef*
%ADD15RoundRect,0.250000X0.325000X0.450000X-0.325000X0.450000X-0.325000X-0.450000X0.325000X-0.450000X0*%
G04 #@! TD*
G04 #@! TA.AperFunction,ComponentPad*
%ADD16RoundRect,0.250000X0.350000X0.512000X-0.350000X0.512000X-0.350000X-0.512000X0.350000X-0.512000X0*%
G04 #@! TD*
G04 #@! TA.AperFunction,ComponentPad*
%ADD17O,1.200000X1.750000*%
G04 #@! TD*
G04 #@! TA.AperFunction,SMDPad,CuDef*
%ADD18RoundRect,0.250000X0.350000X0.450000X-0.350000X0.450000X-0.350000X-0.450000X0.350000X-0.450000X0*%
G04 #@! TD*
G04 #@! TA.AperFunction,ViaPad*
%ADD19C,0.600000*%
G04 #@! TD*
G04 #@! TA.AperFunction,Conductor*
%ADD20C,0.127000*%
G04 #@! TD*
G04 #@! TA.AperFunction,Conductor*
%ADD21C,0.300000*%
G04 #@! TD*
G04 APERTURE END LIST*
D10*
X126300000Y-84100000D03*
X126300000Y-86100000D03*
D11*
X67300000Y-79000000D03*
X69300000Y-79000000D03*
D10*
X121300000Y-84100000D03*
X121300000Y-86100000D03*
X98600000Y-78500000D03*
X98600000Y-80500000D03*
D11*
X80000000Y-94500000D03*
X82000000Y-94500000D03*
X72400000Y-81900000D03*
X74400000Y-81900000D03*
X72400000Y-92100000D03*
X74400000Y-92100000D03*
D12*
X92460000Y-72387500D03*
X92460000Y-67307500D03*
D13*
X89920000Y-72387500D03*
X89920000Y-67307500D03*
X87380000Y-72387500D03*
X87380000Y-67307500D03*
X84840000Y-72387500D03*
X84840000Y-67307500D03*
X82300000Y-72387500D03*
X82300000Y-67307500D03*
X79760000Y-72387500D03*
X79760000Y-67307500D03*
X77220000Y-72387500D03*
X77220000Y-67307500D03*
X74680000Y-72387500D03*
X74680000Y-67307500D03*
X72140000Y-72387500D03*
X72140000Y-67307500D03*
D10*
X114500000Y-81600000D03*
X114500000Y-83600000D03*
X123700000Y-78400000D03*
X123700000Y-80400000D03*
D11*
X72400000Y-87000000D03*
X74400000Y-87000000D03*
D10*
X131300000Y-84300000D03*
X131300000Y-86300000D03*
D14*
X103637500Y-85525000D03*
X103637500Y-86175000D03*
X103637500Y-86825000D03*
X103637500Y-87475000D03*
X103637500Y-88125000D03*
X103637500Y-88775000D03*
X103637500Y-89425000D03*
X103637500Y-90075000D03*
X103637500Y-90725000D03*
X103637500Y-91375000D03*
X103637500Y-92025000D03*
X103637500Y-92675000D03*
X109362500Y-92675000D03*
X109362500Y-92025000D03*
X109362500Y-91375000D03*
X109362500Y-90725000D03*
X109362500Y-90075000D03*
X109362500Y-89425000D03*
X109362500Y-88775000D03*
X109362500Y-88125000D03*
X109362500Y-87475000D03*
X109362500Y-86825000D03*
X109362500Y-86175000D03*
X109362500Y-85525000D03*
D10*
X95000000Y-78400000D03*
X95000000Y-80400000D03*
D15*
X88250000Y-101500000D03*
X86200000Y-101500000D03*
D10*
X102500000Y-78200000D03*
X102500000Y-80200000D03*
D11*
X67300000Y-89400000D03*
X69300000Y-89400000D03*
D10*
X128800000Y-78400000D03*
X128800000Y-80400000D03*
D12*
X136460000Y-72287500D03*
X136460000Y-67207500D03*
D13*
X133920000Y-72287500D03*
X133920000Y-67207500D03*
X131380000Y-72287500D03*
X131380000Y-67207500D03*
X128840000Y-72287500D03*
X128840000Y-67207500D03*
X126300000Y-72287500D03*
X126300000Y-67207500D03*
X123760000Y-72287500D03*
X123760000Y-67207500D03*
X121220000Y-72287500D03*
X121220000Y-67207500D03*
X118680000Y-72287500D03*
X118680000Y-67207500D03*
X116140000Y-72287500D03*
X116140000Y-67207500D03*
D11*
X67300000Y-84400000D03*
X69300000Y-84400000D03*
D16*
X110250000Y-66400000D03*
D17*
X108250000Y-66400000D03*
X106250000Y-66400000D03*
X104250000Y-66400000D03*
X102250000Y-66400000D03*
D11*
X105400000Y-78300000D03*
X107400000Y-78300000D03*
D10*
X118600000Y-78400000D03*
X118600000Y-80400000D03*
X134000000Y-78400000D03*
X134000000Y-80400000D03*
D18*
X112100000Y-78500000D03*
X110100000Y-78500000D03*
D11*
X80000000Y-89900000D03*
X82000000Y-89900000D03*
D18*
X76900000Y-98100000D03*
X74900000Y-98100000D03*
D10*
X136500000Y-84100000D03*
X136500000Y-86100000D03*
D19*
X99600000Y-75700000D03*
X105100000Y-75300000D03*
X63500000Y-73100000D03*
X117600000Y-86900000D03*
X130300000Y-69800000D03*
X91000000Y-69900000D03*
X95500000Y-75000000D03*
X111500000Y-72800000D03*
X125400000Y-69200000D03*
X64900000Y-66100000D03*
X86300000Y-77400000D03*
X82000000Y-65000000D03*
X106700000Y-90700000D03*
X122500000Y-88000000D03*
X76000000Y-69700000D03*
X132500000Y-69700000D03*
X68200000Y-73100000D03*
X76600000Y-83000000D03*
X81200000Y-76700000D03*
X130500000Y-81900000D03*
X77000000Y-85000000D03*
X91000000Y-76000000D03*
X99800000Y-71900000D03*
X108800000Y-81800000D03*
X74000000Y-89700000D03*
X89000000Y-77600000D03*
X105300000Y-72700000D03*
X127200000Y-69600000D03*
X141700000Y-74200000D03*
X85700000Y-69900000D03*
X127100000Y-81700000D03*
X83500000Y-77300000D03*
X111100000Y-82700000D03*
X78300000Y-69700000D03*
X135500000Y-70000000D03*
X99400000Y-86200000D03*
X96800000Y-94400000D03*
X73900000Y-79300000D03*
X78600000Y-76700000D03*
X122200000Y-81800000D03*
X105000000Y-63000000D03*
X105100000Y-68900000D03*
X130000000Y-63400000D03*
X108700000Y-61600000D03*
X115900000Y-78800000D03*
X131700000Y-89200000D03*
X77300000Y-82400000D03*
X117500000Y-69300000D03*
X68100000Y-92100000D03*
X122700000Y-69700000D03*
X124700000Y-82500000D03*
X77600000Y-90300000D03*
X119800000Y-69600000D03*
X88000000Y-69800000D03*
X104900000Y-82300000D03*
X133000000Y-81900000D03*
X83200000Y-69800000D03*
X111400000Y-85100000D03*
X81100000Y-69500000D03*
X95400000Y-86300000D03*
X76100000Y-76100000D03*
X77400000Y-78100000D03*
X69300000Y-81500000D03*
X79600000Y-84900000D03*
X85200000Y-79300000D03*
X76500000Y-81200000D03*
X82300000Y-78600000D03*
X82150000Y-80650000D03*
X70200000Y-86600000D03*
X92600000Y-80700000D03*
X84300000Y-91100000D03*
X90000000Y-80100000D03*
X83700000Y-88200000D03*
X79400000Y-87100000D03*
X87380000Y-79280000D03*
D20*
X102500000Y-84387500D02*
X103637500Y-85525000D01*
X104250000Y-78450000D02*
X102500000Y-80200000D01*
X102500000Y-80200000D02*
X102500000Y-84387500D01*
X104250000Y-66400000D02*
X104250000Y-78450000D01*
X106250000Y-66400000D02*
X106250000Y-69350000D01*
X107400000Y-85599999D02*
X108625001Y-86825000D01*
X107400000Y-78300000D02*
X107400000Y-85599999D01*
X107400000Y-70500000D02*
X107400000Y-78300000D01*
X106250000Y-69350000D02*
X107400000Y-70500000D01*
X108625001Y-86825000D02*
X109362500Y-86825000D01*
D21*
X72400000Y-92100000D02*
X72400000Y-94400000D01*
X65400000Y-94500000D02*
X72300000Y-94500000D01*
X116140000Y-67207500D02*
X116140000Y-72287500D01*
X112100000Y-78500000D02*
X112100000Y-82787500D01*
X99600000Y-75700000D02*
X102100000Y-78200000D01*
X80000000Y-89900000D02*
X80000000Y-94500000D01*
X112500000Y-78500000D02*
X116140000Y-74860000D01*
X63500000Y-73100000D02*
X63500000Y-89400000D01*
X67300000Y-89400000D02*
X63500000Y-89400000D01*
X105400000Y-75600000D02*
X105400000Y-78300000D01*
X74900000Y-96900000D02*
X74900000Y-98100000D01*
X115332500Y-66400000D02*
X116140000Y-67207500D01*
X112100000Y-78500000D02*
X112500000Y-78500000D01*
X67300000Y-79000000D02*
X67300000Y-89400000D01*
X102100000Y-78200000D02*
X102500000Y-78200000D01*
X63500000Y-89400000D02*
X63500000Y-92600000D01*
X116140000Y-74860000D02*
X116140000Y-72287500D01*
X63500000Y-92600000D02*
X65400000Y-94500000D01*
X112100000Y-82787500D02*
X109362500Y-85525000D01*
X72400000Y-94400000D02*
X74900000Y-96900000D01*
X72400000Y-81900000D02*
X72400000Y-92100000D01*
X110250000Y-66400000D02*
X115332500Y-66400000D01*
X105100000Y-75300000D02*
X105400000Y-75600000D01*
X72300000Y-94500000D02*
X80000000Y-94500000D01*
X72400000Y-94400000D02*
X72300000Y-94500000D01*
D20*
X108434500Y-84465500D02*
X108434500Y-85984499D01*
X110100000Y-78500000D02*
X110100000Y-82800000D01*
X108250000Y-76650000D02*
X110100000Y-78500000D01*
X108625001Y-86175000D02*
X109362500Y-86175000D01*
X110100000Y-82800000D02*
X108434500Y-84465500D01*
X108434500Y-85984499D02*
X108625001Y-86175000D01*
X108250000Y-66400000D02*
X108250000Y-76650000D01*
X126300000Y-67207500D02*
X126300000Y-72287500D01*
X126300000Y-84100000D02*
X126300000Y-72287500D01*
X128840000Y-67207500D02*
X128840000Y-72287500D01*
X128800000Y-72327500D02*
X128840000Y-72287500D01*
X128800000Y-78400000D02*
X128800000Y-72327500D01*
X134000000Y-78400000D02*
X134000000Y-78200000D01*
X133920000Y-67207500D02*
X133920000Y-72287500D01*
X134000000Y-78200000D02*
X133920000Y-78120000D01*
X133920000Y-78120000D02*
X133920000Y-72287500D01*
X126500000Y-92000000D02*
X126475000Y-92025000D01*
X134000000Y-80400000D02*
X134000000Y-85029888D01*
X134000000Y-85029888D02*
X127029888Y-92000000D01*
X127029888Y-92000000D02*
X126500000Y-92000000D01*
X126475000Y-92025000D02*
X109362500Y-92025000D01*
X121300000Y-84100000D02*
X121300000Y-72367500D01*
X121300000Y-72367500D02*
X121220000Y-72287500D01*
X121220000Y-67207500D02*
X121220000Y-72287500D01*
X131300000Y-72367500D02*
X131380000Y-72287500D01*
X131300000Y-84300000D02*
X131300000Y-72367500D01*
X131380000Y-67207500D02*
X131380000Y-72287500D01*
X118600000Y-72367500D02*
X118680000Y-72287500D01*
X118600000Y-78400000D02*
X118600000Y-72367500D01*
X118680000Y-67207500D02*
X118680000Y-72287500D01*
X136500000Y-72327500D02*
X136460000Y-72287500D01*
X136460000Y-67207500D02*
X136460000Y-72287500D01*
X136500000Y-84100000D02*
X136500000Y-72327500D01*
X123700000Y-78400000D02*
X123700000Y-72347500D01*
X123700000Y-72347500D02*
X123760000Y-72287500D01*
X123760000Y-67207500D02*
X123760000Y-72287500D01*
X69300000Y-84400000D02*
X69300000Y-81500000D01*
X77220000Y-67307500D02*
X77220000Y-72387500D01*
X77220000Y-77920000D02*
X77220000Y-72387500D01*
X103637500Y-91375000D02*
X90675000Y-91375000D01*
X77400000Y-78100000D02*
X77220000Y-77920000D01*
X90675000Y-91375000D02*
X86050000Y-86750000D01*
X86050000Y-86750000D02*
X77400000Y-78100000D01*
X74680000Y-77200000D02*
X74680000Y-72387500D01*
X74680000Y-67307500D02*
X74680000Y-72387500D01*
X89425000Y-92025000D02*
X77500000Y-80100000D01*
X72880000Y-79000000D02*
X74680000Y-77200000D01*
X77450000Y-80150000D02*
X77500000Y-80100000D01*
X77500000Y-80100000D02*
X74680000Y-77280000D01*
X69300000Y-79000000D02*
X72880000Y-79000000D01*
X103637500Y-92025000D02*
X89425000Y-92025000D01*
X74680000Y-77280000D02*
X74680000Y-77200000D01*
X95325000Y-89425000D02*
X85200000Y-79300000D01*
X84740000Y-78200000D02*
X84840000Y-78100000D01*
X85200000Y-79300000D02*
X84840000Y-78940000D01*
X84840000Y-78940000D02*
X84840000Y-78100000D01*
X74400000Y-87000000D02*
X77500000Y-87000000D01*
X77500000Y-87000000D02*
X79600000Y-84900000D01*
X84840000Y-67307500D02*
X84840000Y-72387500D01*
X84840000Y-78100000D02*
X84840000Y-72387500D01*
X103637500Y-89425000D02*
X95325000Y-89425000D01*
X103637500Y-90075000D02*
X93775000Y-90075000D01*
X83950000Y-80250000D02*
X82300000Y-78600000D01*
X82300000Y-78600000D02*
X82300000Y-72387500D01*
X82300000Y-67307500D02*
X82300000Y-72387500D01*
X93775000Y-90075000D02*
X83950000Y-80250000D01*
X74400000Y-81900000D02*
X75800000Y-81900000D01*
X75800000Y-81900000D02*
X76500000Y-81200000D01*
X79760000Y-67307500D02*
X79760000Y-72387500D01*
X85700000Y-84200000D02*
X82150000Y-80650000D01*
X103637500Y-90725000D02*
X92225000Y-90725000D01*
X69300000Y-87500000D02*
X70200000Y-86600000D01*
X79760000Y-78260000D02*
X79760000Y-72387500D01*
X92225000Y-90725000D02*
X85700000Y-84200000D01*
X82150000Y-80650000D02*
X79760000Y-78260000D01*
X69300000Y-89400000D02*
X69300000Y-87500000D01*
X129925000Y-92675000D02*
X109362500Y-92675000D01*
X136500000Y-86100000D02*
X129925000Y-92675000D01*
X103637500Y-87475000D02*
X99375000Y-87475000D01*
X99375000Y-87475000D02*
X92600000Y-80700000D01*
X82000000Y-94500000D02*
X82000000Y-93400000D01*
X92600000Y-80700000D02*
X92460000Y-80560000D01*
X82000000Y-93400000D02*
X84300000Y-91100000D01*
X92460000Y-80560000D02*
X92460000Y-76000000D01*
X92460000Y-76000000D02*
X92460000Y-72387500D01*
X92460000Y-67307500D02*
X92460000Y-72387500D01*
X109362500Y-90725000D02*
X123104888Y-90725000D01*
X128800000Y-85029888D02*
X128800000Y-80400000D01*
X123104888Y-90725000D02*
X128800000Y-85029888D01*
X126225000Y-91375000D02*
X109362500Y-91375000D01*
X131300000Y-86300000D02*
X126225000Y-91375000D01*
X89920000Y-80020000D02*
X89920000Y-72387500D01*
X103637500Y-88125000D02*
X98025000Y-88125000D01*
X98025000Y-88125000D02*
X92450000Y-82550000D01*
X92450000Y-82550000D02*
X90000000Y-80100000D01*
X90000000Y-80100000D02*
X89920000Y-80020000D01*
X89920000Y-67307500D02*
X89920000Y-72387500D01*
X82000000Y-89900000D02*
X83700000Y-88200000D01*
X123700000Y-85129888D02*
X123700000Y-80400000D01*
X119404888Y-89425000D02*
X123700000Y-85129888D01*
X109362500Y-89425000D02*
X119404888Y-89425000D01*
X126300000Y-86100000D02*
X122325000Y-90075000D01*
X122325000Y-90075000D02*
X109362500Y-90075000D01*
X111475000Y-88125000D02*
X109362500Y-88125000D01*
X118600000Y-81000000D02*
X111475000Y-88125000D01*
X118600000Y-80400000D02*
X118600000Y-81000000D01*
X87380000Y-67307500D02*
X87380000Y-72387500D01*
X87380000Y-79280000D02*
X87380000Y-72387500D01*
X96875000Y-88775000D02*
X87380000Y-79280000D01*
X103637500Y-88775000D02*
X96875000Y-88775000D01*
X74400000Y-92100000D02*
X79400000Y-87100000D01*
X121300000Y-86100000D02*
X118625000Y-88775000D01*
X118625000Y-88775000D02*
X109362500Y-88775000D01*
X101425000Y-86825000D02*
X103637500Y-86825000D01*
X95000000Y-80400000D02*
X101425000Y-86825000D01*
X102900001Y-86175000D02*
X103637500Y-86175000D01*
X98600000Y-81874999D02*
X102900001Y-86175000D01*
X98600000Y-80500000D02*
X98600000Y-81874999D01*
X114500000Y-83600000D02*
X110625000Y-87475000D01*
X110625000Y-87475000D02*
X109362500Y-87475000D01*
X80300000Y-101500000D02*
X76900000Y-98100000D01*
X86200000Y-101500000D02*
X80300000Y-101500000D01*
G04 #@! TA.AperFunction,Conductor*
G36*
X74683333Y-78096795D02*
G01*
X74727680Y-78125296D01*
X76814662Y-80212278D01*
X76848147Y-80273601D01*
X76843163Y-80343293D01*
X76801291Y-80399226D01*
X76735827Y-80423643D01*
X76686028Y-80417001D01*
X76679261Y-80414633D01*
X76679249Y-80414630D01*
X76500004Y-80394435D01*
X76499996Y-80394435D01*
X76320750Y-80414630D01*
X76320745Y-80414631D01*
X76150476Y-80474211D01*
X75997737Y-80570184D01*
X75870184Y-80697737D01*
X75774211Y-80850476D01*
X75714631Y-81020745D01*
X75714630Y-81020749D01*
X75698283Y-81165841D01*
X75671216Y-81230255D01*
X75662721Y-81239661D01*
X75660795Y-81241586D01*
X75599464Y-81275055D01*
X75529773Y-81270053D01*
X75473851Y-81228167D01*
X75455432Y-81192889D01*
X75434814Y-81130666D01*
X75342712Y-80981344D01*
X75218656Y-80857288D01*
X75069334Y-80765186D01*
X74902797Y-80710001D01*
X74902795Y-80710000D01*
X74800010Y-80699500D01*
X73999998Y-80699500D01*
X73999980Y-80699501D01*
X73897203Y-80710000D01*
X73897200Y-80710001D01*
X73730668Y-80765185D01*
X73730663Y-80765187D01*
X73581342Y-80857289D01*
X73487681Y-80950951D01*
X73426358Y-80984436D01*
X73356666Y-80979452D01*
X73312319Y-80950951D01*
X73218657Y-80857289D01*
X73218656Y-80857288D01*
X73069334Y-80765186D01*
X72902797Y-80710001D01*
X72902795Y-80710000D01*
X72800010Y-80699500D01*
X71999998Y-80699500D01*
X71999980Y-80699501D01*
X71897203Y-80710000D01*
X71897200Y-80710001D01*
X71730668Y-80765185D01*
X71730663Y-80765187D01*
X71581342Y-80857289D01*
X71457289Y-80981342D01*
X71365187Y-81130663D01*
X71365185Y-81130668D01*
X71352372Y-81169336D01*
X71310001Y-81297203D01*
X71310001Y-81297204D01*
X71310000Y-81297204D01*
X71299500Y-81399983D01*
X71299500Y-82400001D01*
X71299501Y-82400019D01*
X71310000Y-82502796D01*
X71310001Y-82502799D01*
X71331071Y-82566383D01*
X71365186Y-82669334D01*
X71457288Y-82818656D01*
X71581344Y-82942712D01*
X71690597Y-83010099D01*
X71737321Y-83062047D01*
X71749500Y-83115638D01*
X71749500Y-85784362D01*
X71729815Y-85851401D01*
X71690598Y-85889899D01*
X71644655Y-85918238D01*
X71581342Y-85957289D01*
X71457289Y-86081342D01*
X71365187Y-86230663D01*
X71365185Y-86230668D01*
X71358621Y-86250478D01*
X71310001Y-86397203D01*
X71310001Y-86397204D01*
X71310000Y-86397204D01*
X71299500Y-86499983D01*
X71299500Y-87500001D01*
X71299501Y-87500009D01*
X71310000Y-87602796D01*
X71310001Y-87602799D01*
X71365185Y-87769331D01*
X71365187Y-87769336D01*
X71384101Y-87800000D01*
X71457288Y-87918656D01*
X71581344Y-88042712D01*
X71690597Y-88110099D01*
X71737321Y-88162047D01*
X71749500Y-88215638D01*
X71749500Y-90884362D01*
X71729815Y-90951401D01*
X71690598Y-90989899D01*
X71670089Y-91002550D01*
X71581342Y-91057289D01*
X71457289Y-91181342D01*
X71365187Y-91330663D01*
X71365186Y-91330666D01*
X71310001Y-91497203D01*
X71310001Y-91497204D01*
X71310000Y-91497204D01*
X71299500Y-91599983D01*
X71299500Y-92600001D01*
X71299501Y-92600019D01*
X71310000Y-92702796D01*
X71310001Y-92702799D01*
X71365185Y-92869331D01*
X71365187Y-92869336D01*
X71399999Y-92925776D01*
X71457288Y-93018656D01*
X71581344Y-93142712D01*
X71690597Y-93210099D01*
X71737321Y-93262047D01*
X71749500Y-93315638D01*
X71749500Y-93725500D01*
X71729815Y-93792539D01*
X71677011Y-93838294D01*
X71625500Y-93849500D01*
X65720808Y-93849500D01*
X65653769Y-93829815D01*
X65633127Y-93813181D01*
X64186819Y-92366873D01*
X64153334Y-92305550D01*
X64150500Y-92279192D01*
X64150500Y-90174500D01*
X64170185Y-90107461D01*
X64222989Y-90061706D01*
X64274500Y-90050500D01*
X66136267Y-90050500D01*
X66203306Y-90070185D01*
X66249061Y-90122989D01*
X66253972Y-90135494D01*
X66255901Y-90141315D01*
X66265186Y-90169334D01*
X66357288Y-90318656D01*
X66481344Y-90442712D01*
X66630666Y-90534814D01*
X66797203Y-90589999D01*
X66899991Y-90600500D01*
X67700008Y-90600499D01*
X67700016Y-90600498D01*
X67700019Y-90600498D01*
X67756302Y-90594748D01*
X67802797Y-90589999D01*
X67969334Y-90534814D01*
X68118656Y-90442712D01*
X68212319Y-90349049D01*
X68273642Y-90315564D01*
X68343334Y-90320548D01*
X68387681Y-90349049D01*
X68481344Y-90442712D01*
X68630666Y-90534814D01*
X68797203Y-90589999D01*
X68899991Y-90600500D01*
X69700008Y-90600499D01*
X69700016Y-90600498D01*
X69700019Y-90600498D01*
X69756302Y-90594748D01*
X69802797Y-90589999D01*
X69969334Y-90534814D01*
X70118656Y-90442712D01*
X70242712Y-90318656D01*
X70334814Y-90169334D01*
X70389999Y-90002797D01*
X70400500Y-89900009D01*
X70400499Y-88899992D01*
X70393989Y-88836267D01*
X70389999Y-88797203D01*
X70389998Y-88797200D01*
X70379390Y-88765187D01*
X70334814Y-88630666D01*
X70242712Y-88481344D01*
X70118656Y-88357288D01*
X69969334Y-88265186D01*
X69969333Y-88265185D01*
X69969332Y-88265185D01*
X69948993Y-88258445D01*
X69891549Y-88218671D01*
X69864728Y-88154154D01*
X69864000Y-88140740D01*
X69864000Y-87784977D01*
X69883685Y-87717938D01*
X69900315Y-87697300D01*
X70160361Y-87437253D01*
X70221682Y-87403770D01*
X70234148Y-87401717D01*
X70309077Y-87393275D01*
X70379250Y-87385369D01*
X70379253Y-87385368D01*
X70379255Y-87385368D01*
X70549522Y-87325789D01*
X70702262Y-87229816D01*
X70829816Y-87102262D01*
X70925789Y-86949522D01*
X70985368Y-86779255D01*
X70987465Y-86760642D01*
X71005565Y-86600003D01*
X71005565Y-86599996D01*
X70985369Y-86420750D01*
X70985368Y-86420745D01*
X70965341Y-86363511D01*
X70925789Y-86250478D01*
X70920031Y-86241315D01*
X70829815Y-86097737D01*
X70702262Y-85970184D01*
X70549523Y-85874211D01*
X70379254Y-85814631D01*
X70379249Y-85814630D01*
X70200004Y-85794435D01*
X70199996Y-85794435D01*
X70020750Y-85814630D01*
X70020745Y-85814631D01*
X69850476Y-85874211D01*
X69697737Y-85970184D01*
X69570184Y-86097737D01*
X69474211Y-86250476D01*
X69414631Y-86420745D01*
X69414630Y-86420749D01*
X69398282Y-86565842D01*
X69371215Y-86630256D01*
X69362743Y-86639639D01*
X68953698Y-87048685D01*
X68848689Y-87153693D01*
X68848687Y-87153696D01*
X68777894Y-87276313D01*
X68774435Y-87282304D01*
X68774434Y-87282306D01*
X68760145Y-87335638D01*
X68744427Y-87394302D01*
X68742700Y-87400746D01*
X68742699Y-87400749D01*
X68736000Y-87425747D01*
X68736000Y-88140740D01*
X68716315Y-88207779D01*
X68663511Y-88253534D01*
X68651007Y-88258445D01*
X68630667Y-88265185D01*
X68481342Y-88357289D01*
X68387681Y-88450951D01*
X68326358Y-88484436D01*
X68256666Y-88479452D01*
X68212319Y-88450951D01*
X68118657Y-88357289D01*
X68118656Y-88357288D01*
X68009402Y-88289900D01*
X67962679Y-88237953D01*
X67950500Y-88184362D01*
X67950500Y-85615638D01*
X67970185Y-85548599D01*
X68009401Y-85510100D01*
X68118656Y-85442712D01*
X68212319Y-85349049D01*
X68273642Y-85315564D01*
X68343334Y-85320548D01*
X68387681Y-85349049D01*
X68481344Y-85442712D01*
X68630666Y-85534814D01*
X68797203Y-85589999D01*
X68899991Y-85600500D01*
X69700008Y-85600499D01*
X69700016Y-85600498D01*
X69700019Y-85600498D01*
X69756302Y-85594748D01*
X69802797Y-85589999D01*
X69969334Y-85534814D01*
X70118656Y-85442712D01*
X70242712Y-85318656D01*
X70334814Y-85169334D01*
X70389999Y-85002797D01*
X70400500Y-84900009D01*
X70400499Y-83899992D01*
X70389999Y-83797203D01*
X70334814Y-83630666D01*
X70242712Y-83481344D01*
X70118656Y-83357288D01*
X69969334Y-83265186D01*
X69969333Y-83265185D01*
X69969332Y-83265185D01*
X69948993Y-83258445D01*
X69891549Y-83218671D01*
X69864728Y-83154154D01*
X69864000Y-83140740D01*
X69864000Y-82119440D01*
X69883685Y-82052401D01*
X69900319Y-82031759D01*
X69929816Y-82002262D01*
X70025789Y-81849522D01*
X70085368Y-81679255D01*
X70089292Y-81644432D01*
X70105565Y-81500003D01*
X70105565Y-81499996D01*
X70085369Y-81320750D01*
X70085368Y-81320745D01*
X70075996Y-81293962D01*
X70025789Y-81150478D01*
X70020909Y-81142712D01*
X69944272Y-81020745D01*
X69929816Y-80997738D01*
X69802262Y-80870184D01*
X69770897Y-80850476D01*
X69649523Y-80774211D01*
X69479254Y-80714631D01*
X69479249Y-80714630D01*
X69300004Y-80694435D01*
X69299996Y-80694435D01*
X69120750Y-80714630D01*
X69120745Y-80714631D01*
X68950476Y-80774211D01*
X68797737Y-80870184D01*
X68670184Y-80997737D01*
X68574211Y-81150476D01*
X68514631Y-81320745D01*
X68514630Y-81320750D01*
X68494435Y-81499996D01*
X68494435Y-81500003D01*
X68514630Y-81679249D01*
X68514631Y-81679254D01*
X68574211Y-81849523D01*
X68670184Y-82002262D01*
X68699681Y-82031759D01*
X68733166Y-82093082D01*
X68736000Y-82119440D01*
X68736000Y-83140740D01*
X68716315Y-83207779D01*
X68663511Y-83253534D01*
X68651007Y-83258445D01*
X68630667Y-83265185D01*
X68481342Y-83357289D01*
X68387681Y-83450951D01*
X68326358Y-83484436D01*
X68256666Y-83479452D01*
X68212319Y-83450951D01*
X68118657Y-83357289D01*
X68118656Y-83357288D01*
X68009402Y-83289900D01*
X67962679Y-83237953D01*
X67950500Y-83184362D01*
X67950500Y-80215638D01*
X67970185Y-80148599D01*
X68009401Y-80110100D01*
X68118656Y-80042712D01*
X68212319Y-79949049D01*
X68273642Y-79915564D01*
X68343334Y-79920548D01*
X68387681Y-79949049D01*
X68481344Y-80042712D01*
X68630666Y-80134814D01*
X68797203Y-80189999D01*
X68899991Y-80200500D01*
X69700008Y-80200499D01*
X69700016Y-80200498D01*
X69700019Y-80200498D01*
X69756302Y-80194748D01*
X69802797Y-80189999D01*
X69969334Y-80134814D01*
X70118656Y-80042712D01*
X70242712Y-79918656D01*
X70334814Y-79769334D01*
X70374690Y-79648995D01*
X70414463Y-79591551D01*
X70478979Y-79564728D01*
X70492396Y-79564000D01*
X72954251Y-79564000D01*
X72954253Y-79564000D01*
X73097696Y-79525565D01*
X73111325Y-79517696D01*
X73226304Y-79451313D01*
X73331313Y-79346304D01*
X73331313Y-79346302D01*
X73341517Y-79336099D01*
X73341520Y-79336094D01*
X74552322Y-78125293D01*
X74613641Y-78091811D01*
X74683333Y-78096795D01*
G37*
G04 #@! TD.AperFunction*
G04 #@! TA.AperFunction,Conductor*
G36*
X77445732Y-80857743D02*
G01*
X77487721Y-80885337D01*
X83785138Y-87182754D01*
X83818623Y-87244077D01*
X83813639Y-87313769D01*
X83771767Y-87369702D01*
X83706303Y-87394119D01*
X83701174Y-87394302D01*
X83520750Y-87414630D01*
X83520745Y-87414631D01*
X83350476Y-87474211D01*
X83197737Y-87570184D01*
X83070184Y-87697737D01*
X82974211Y-87850476D01*
X82914631Y-88020745D01*
X82914630Y-88020749D01*
X82898282Y-88165842D01*
X82871215Y-88230256D01*
X82862743Y-88239639D01*
X82439201Y-88663181D01*
X82377878Y-88696666D01*
X82351520Y-88699500D01*
X81599998Y-88699500D01*
X81599980Y-88699501D01*
X81497203Y-88710000D01*
X81497200Y-88710001D01*
X81330668Y-88765185D01*
X81330663Y-88765187D01*
X81181342Y-88857289D01*
X81087681Y-88950951D01*
X81026358Y-88984436D01*
X80956666Y-88979452D01*
X80912319Y-88950951D01*
X80818657Y-88857289D01*
X80818656Y-88857288D01*
X80669334Y-88765186D01*
X80502797Y-88710001D01*
X80502795Y-88710000D01*
X80400010Y-88699500D01*
X79599998Y-88699500D01*
X79599980Y-88699501D01*
X79497203Y-88710000D01*
X79497200Y-88710001D01*
X79330668Y-88765185D01*
X79330663Y-88765187D01*
X79181342Y-88857289D01*
X79057289Y-88981342D01*
X78965187Y-89130663D01*
X78965185Y-89130668D01*
X78937349Y-89214670D01*
X78910001Y-89297203D01*
X78910001Y-89297204D01*
X78910000Y-89297204D01*
X78899500Y-89399983D01*
X78899500Y-90400001D01*
X78899501Y-90400019D01*
X78910000Y-90502796D01*
X78910001Y-90502799D01*
X78965185Y-90669331D01*
X78965187Y-90669336D01*
X78999999Y-90725776D01*
X79057288Y-90818656D01*
X79181344Y-90942712D01*
X79290597Y-91010099D01*
X79337321Y-91062047D01*
X79349500Y-91115638D01*
X79349500Y-93284362D01*
X79329815Y-93351401D01*
X79290598Y-93389899D01*
X79229791Y-93427406D01*
X79181342Y-93457289D01*
X79057289Y-93581342D01*
X78965187Y-93730663D01*
X78965184Y-93730671D01*
X78953972Y-93764506D01*
X78914199Y-93821950D01*
X78849683Y-93848772D01*
X78836267Y-93849500D01*
X73174500Y-93849500D01*
X73107461Y-93829815D01*
X73061706Y-93777011D01*
X73050500Y-93725500D01*
X73050500Y-93315638D01*
X73070185Y-93248599D01*
X73109401Y-93210100D01*
X73218656Y-93142712D01*
X73312319Y-93049049D01*
X73373642Y-93015564D01*
X73443334Y-93020548D01*
X73487681Y-93049049D01*
X73581344Y-93142712D01*
X73730666Y-93234814D01*
X73897203Y-93289999D01*
X73999991Y-93300500D01*
X74800008Y-93300499D01*
X74800016Y-93300498D01*
X74800019Y-93300498D01*
X74856302Y-93294748D01*
X74902797Y-93289999D01*
X75069334Y-93234814D01*
X75218656Y-93142712D01*
X75342712Y-93018656D01*
X75434814Y-92869334D01*
X75489999Y-92702797D01*
X75500500Y-92600009D01*
X75500499Y-91848476D01*
X75520183Y-91781438D01*
X75536813Y-91760801D01*
X79360361Y-87937253D01*
X79421682Y-87903770D01*
X79434148Y-87901717D01*
X79509077Y-87893275D01*
X79579250Y-87885369D01*
X79579253Y-87885368D01*
X79579255Y-87885368D01*
X79749522Y-87825789D01*
X79902262Y-87729816D01*
X80029816Y-87602262D01*
X80125789Y-87449522D01*
X80185368Y-87279255D01*
X80185369Y-87279249D01*
X80205565Y-87100003D01*
X80205565Y-87099996D01*
X80185369Y-86920750D01*
X80185368Y-86920745D01*
X80181958Y-86911000D01*
X80125789Y-86750478D01*
X80029816Y-86597738D01*
X79902262Y-86470184D01*
X79874190Y-86452545D01*
X79749523Y-86374211D01*
X79579254Y-86314631D01*
X79579249Y-86314630D01*
X79400004Y-86294435D01*
X79399995Y-86294435D01*
X79304933Y-86305145D01*
X79236112Y-86293090D01*
X79184733Y-86245741D01*
X79167109Y-86178130D01*
X79188836Y-86111724D01*
X79203365Y-86094249D01*
X79560361Y-85737253D01*
X79621682Y-85703770D01*
X79634148Y-85701717D01*
X79709077Y-85693275D01*
X79779250Y-85685369D01*
X79779253Y-85685368D01*
X79779255Y-85685368D01*
X79949522Y-85625789D01*
X80102262Y-85529816D01*
X80229816Y-85402262D01*
X80325789Y-85249522D01*
X80385368Y-85079255D01*
X80385369Y-85079249D01*
X80405565Y-84900003D01*
X80405565Y-84899996D01*
X80385369Y-84720750D01*
X80385368Y-84720745D01*
X80344096Y-84602796D01*
X80325789Y-84550478D01*
X80323166Y-84546304D01*
X80286582Y-84488080D01*
X80229816Y-84397738D01*
X80102262Y-84270184D01*
X80049065Y-84236758D01*
X79949523Y-84174211D01*
X79779254Y-84114631D01*
X79779249Y-84114630D01*
X79600004Y-84094435D01*
X79599996Y-84094435D01*
X79420750Y-84114630D01*
X79420745Y-84114631D01*
X79250476Y-84174211D01*
X79097737Y-84270184D01*
X78970184Y-84397737D01*
X78874211Y-84550476D01*
X78814631Y-84720745D01*
X78814630Y-84720749D01*
X78798282Y-84865842D01*
X78771215Y-84930256D01*
X78762743Y-84939639D01*
X77302703Y-86399681D01*
X77241380Y-86433166D01*
X77215022Y-86436000D01*
X75592396Y-86436000D01*
X75525357Y-86416315D01*
X75479602Y-86363511D01*
X75474690Y-86351004D01*
X75434814Y-86230666D01*
X75342712Y-86081344D01*
X75218656Y-85957288D01*
X75069334Y-85865186D01*
X74902797Y-85810001D01*
X74902795Y-85810000D01*
X74800010Y-85799500D01*
X73999998Y-85799500D01*
X73999980Y-85799501D01*
X73897203Y-85810000D01*
X73897200Y-85810001D01*
X73730668Y-85865185D01*
X73730663Y-85865187D01*
X73581342Y-85957289D01*
X73487681Y-86050951D01*
X73426358Y-86084436D01*
X73356666Y-86079452D01*
X73312319Y-86050951D01*
X73218657Y-85957289D01*
X73218656Y-85957288D01*
X73109402Y-85889900D01*
X73062679Y-85837953D01*
X73050500Y-85784362D01*
X73050500Y-83115638D01*
X73070185Y-83048599D01*
X73109401Y-83010100D01*
X73218656Y-82942712D01*
X73312319Y-82849049D01*
X73373642Y-82815564D01*
X73443334Y-82820548D01*
X73487681Y-82849049D01*
X73581344Y-82942712D01*
X73730666Y-83034814D01*
X73897203Y-83089999D01*
X73999991Y-83100500D01*
X74800008Y-83100499D01*
X74800016Y-83100498D01*
X74800019Y-83100498D01*
X74856302Y-83094748D01*
X74902797Y-83089999D01*
X75069334Y-83034814D01*
X75218656Y-82942712D01*
X75342712Y-82818656D01*
X75434814Y-82669334D01*
X75474690Y-82548995D01*
X75514463Y-82491551D01*
X75578979Y-82464728D01*
X75592396Y-82464000D01*
X75874251Y-82464000D01*
X75874253Y-82464000D01*
X76017696Y-82425565D01*
X76146304Y-82351313D01*
X76251313Y-82246304D01*
X76251313Y-82246302D01*
X76261517Y-82236099D01*
X76261521Y-82236094D01*
X76460361Y-82037253D01*
X76521682Y-82003770D01*
X76534148Y-82001717D01*
X76609077Y-81993275D01*
X76679250Y-81985369D01*
X76679253Y-81985368D01*
X76679255Y-81985368D01*
X76849522Y-81925789D01*
X77002262Y-81829816D01*
X77129816Y-81702262D01*
X77225789Y-81549522D01*
X77285368Y-81379255D01*
X77285369Y-81379249D01*
X77305565Y-81200003D01*
X77305565Y-81199996D01*
X77285369Y-81020750D01*
X77285366Y-81020739D01*
X77283000Y-81013976D01*
X77279436Y-80944197D01*
X77314163Y-80883569D01*
X77376156Y-80851340D01*
X77445732Y-80857743D01*
G37*
G04 #@! TD.AperFunction*
G04 #@! TA.AperFunction,Conductor*
G36*
X135184627Y-72929482D02*
G01*
X135217478Y-72980897D01*
X135257648Y-73102121D01*
X135263186Y-73118834D01*
X135355288Y-73268156D01*
X135479344Y-73392212D01*
X135628666Y-73484314D01*
X135795203Y-73539499D01*
X135824602Y-73542502D01*
X135889293Y-73568897D01*
X135929445Y-73626077D01*
X135936000Y-73665860D01*
X135936000Y-82907604D01*
X135916315Y-82974643D01*
X135863511Y-83020398D01*
X135851006Y-83025309D01*
X135815916Y-83036936D01*
X135730668Y-83065185D01*
X135730663Y-83065187D01*
X135581342Y-83157289D01*
X135457289Y-83281342D01*
X135365187Y-83430663D01*
X135365185Y-83430668D01*
X135348393Y-83481344D01*
X135310001Y-83597203D01*
X135310001Y-83597204D01*
X135310000Y-83597204D01*
X135299500Y-83699983D01*
X135299500Y-84500001D01*
X135299501Y-84500019D01*
X135310000Y-84602796D01*
X135310001Y-84602799D01*
X135342214Y-84700009D01*
X135365186Y-84769334D01*
X135453150Y-84911948D01*
X135457289Y-84918657D01*
X135550951Y-85012319D01*
X135584436Y-85073642D01*
X135579452Y-85143334D01*
X135550951Y-85187681D01*
X135457289Y-85281342D01*
X135365187Y-85430663D01*
X135365185Y-85430668D01*
X135348393Y-85481344D01*
X135310001Y-85597203D01*
X135310001Y-85597204D01*
X135310000Y-85597204D01*
X135299500Y-85699983D01*
X135299500Y-86451520D01*
X135279815Y-86518559D01*
X135263181Y-86539201D01*
X129727703Y-92074681D01*
X129666380Y-92108166D01*
X129640022Y-92111000D01*
X128015866Y-92111000D01*
X127948827Y-92091315D01*
X127903072Y-92038511D01*
X127893128Y-91969353D01*
X127922153Y-91905797D01*
X127928185Y-91899319D01*
X129512874Y-90314630D01*
X134336094Y-85491408D01*
X134336099Y-85491405D01*
X134346302Y-85481201D01*
X134346304Y-85481201D01*
X134451313Y-85376192D01*
X134525565Y-85247584D01*
X134560111Y-85118656D01*
X134564000Y-85104141D01*
X134564000Y-84955635D01*
X134564000Y-81592396D01*
X134583685Y-81525357D01*
X134636489Y-81479602D01*
X134648996Y-81474690D01*
X134769334Y-81434814D01*
X134918656Y-81342712D01*
X135042712Y-81218656D01*
X135134814Y-81069334D01*
X135189999Y-80902797D01*
X135200500Y-80800009D01*
X135200499Y-79999992D01*
X135193330Y-79929816D01*
X135189999Y-79897203D01*
X135189998Y-79897200D01*
X135166330Y-79825776D01*
X135134814Y-79730666D01*
X135042712Y-79581344D01*
X134949049Y-79487681D01*
X134915564Y-79426358D01*
X134920548Y-79356666D01*
X134949049Y-79312319D01*
X134995527Y-79265841D01*
X135042712Y-79218656D01*
X135134814Y-79069334D01*
X135189999Y-78902797D01*
X135200500Y-78800009D01*
X135200499Y-77999992D01*
X135189999Y-77897203D01*
X135134814Y-77730666D01*
X135042712Y-77581344D01*
X134918656Y-77457288D01*
X134825777Y-77400000D01*
X134769336Y-77365187D01*
X134769331Y-77365185D01*
X134728992Y-77351818D01*
X134602797Y-77310001D01*
X134602794Y-77310000D01*
X134595397Y-77309245D01*
X134530705Y-77282849D01*
X134490554Y-77225668D01*
X134484000Y-77185887D01*
X134484000Y-73496514D01*
X134503685Y-73429475D01*
X134549806Y-73389198D01*
X134548967Y-73387745D01*
X134553658Y-73385036D01*
X134553658Y-73385035D01*
X134553662Y-73385034D01*
X134734620Y-73258326D01*
X134890826Y-73102120D01*
X134998197Y-72948777D01*
X135052774Y-72905153D01*
X135122272Y-72897959D01*
X135184627Y-72929482D01*
G37*
G04 #@! TD.AperFunction*
G04 #@! TA.AperFunction,Conductor*
G36*
X78525259Y-86874869D02*
G01*
X78581192Y-86916741D01*
X78605609Y-86982205D01*
X78605145Y-87004935D01*
X78598282Y-87065842D01*
X78571215Y-87130256D01*
X78562743Y-87139639D01*
X74839201Y-90863181D01*
X74777878Y-90896666D01*
X74751520Y-90899500D01*
X73999998Y-90899500D01*
X73999980Y-90899501D01*
X73897203Y-90910000D01*
X73897200Y-90910001D01*
X73730668Y-90965185D01*
X73730663Y-90965187D01*
X73581342Y-91057289D01*
X73487681Y-91150951D01*
X73426358Y-91184436D01*
X73356666Y-91179452D01*
X73312319Y-91150951D01*
X73218657Y-91057289D01*
X73218656Y-91057288D01*
X73109402Y-90989900D01*
X73062679Y-90937953D01*
X73050500Y-90884362D01*
X73050500Y-88215638D01*
X73070185Y-88148599D01*
X73109401Y-88110100D01*
X73218656Y-88042712D01*
X73312319Y-87949049D01*
X73373642Y-87915564D01*
X73443334Y-87920548D01*
X73487681Y-87949049D01*
X73581344Y-88042712D01*
X73730666Y-88134814D01*
X73897203Y-88189999D01*
X73999991Y-88200500D01*
X74800008Y-88200499D01*
X74800016Y-88200498D01*
X74800019Y-88200498D01*
X74856302Y-88194748D01*
X74902797Y-88189999D01*
X75069334Y-88134814D01*
X75218656Y-88042712D01*
X75342712Y-87918656D01*
X75434814Y-87769334D01*
X75474690Y-87648995D01*
X75514463Y-87591551D01*
X75578979Y-87564728D01*
X75592396Y-87564000D01*
X77574251Y-87564000D01*
X77574253Y-87564000D01*
X77717696Y-87525565D01*
X77727369Y-87519980D01*
X77761959Y-87500010D01*
X77761960Y-87500009D01*
X77761974Y-87500001D01*
X77846304Y-87451313D01*
X77951313Y-87346304D01*
X77951313Y-87346302D01*
X77961517Y-87336099D01*
X77961521Y-87336094D01*
X78394246Y-86903368D01*
X78455567Y-86869885D01*
X78525259Y-86874869D01*
G37*
G04 #@! TD.AperFunction*
G04 #@! TA.AperFunction,Conductor*
G36*
X130177865Y-72740935D02*
G01*
X130222382Y-72792311D01*
X130282464Y-72921158D01*
X130282468Y-72921166D01*
X130409170Y-73102115D01*
X130409174Y-73102120D01*
X130509169Y-73202115D01*
X130565381Y-73258327D01*
X130579420Y-73268157D01*
X130676620Y-73336217D01*
X130683123Y-73340770D01*
X130726748Y-73395346D01*
X130736000Y-73442345D01*
X130736000Y-83107604D01*
X130716315Y-83174643D01*
X130663511Y-83220398D01*
X130651004Y-83225310D01*
X130530668Y-83265185D01*
X130530663Y-83265187D01*
X130381342Y-83357289D01*
X130257289Y-83481342D01*
X130165187Y-83630663D01*
X130165186Y-83630666D01*
X130110001Y-83797203D01*
X130110001Y-83797204D01*
X130110000Y-83797204D01*
X130099500Y-83899983D01*
X130099500Y-84700001D01*
X130099501Y-84700019D01*
X130110000Y-84802796D01*
X130110001Y-84802799D01*
X130144578Y-84907144D01*
X130165186Y-84969334D01*
X130257287Y-85118655D01*
X130257289Y-85118657D01*
X130350951Y-85212319D01*
X130384436Y-85273642D01*
X130379452Y-85343334D01*
X130350951Y-85387681D01*
X130257289Y-85481342D01*
X130165187Y-85630663D01*
X130165185Y-85630668D01*
X130142218Y-85699980D01*
X130110001Y-85797203D01*
X130110001Y-85797204D01*
X130110000Y-85797204D01*
X130099500Y-85899983D01*
X130099500Y-86651520D01*
X130079815Y-86718559D01*
X130063181Y-86739201D01*
X126027703Y-90774681D01*
X125966380Y-90808166D01*
X125940022Y-90811000D01*
X124115866Y-90811000D01*
X124048827Y-90791315D01*
X124003072Y-90738511D01*
X123993128Y-90669353D01*
X124022153Y-90605797D01*
X124028185Y-90599319D01*
X126518674Y-88108830D01*
X129251313Y-85376192D01*
X129325565Y-85247584D01*
X129364001Y-85104140D01*
X129364001Y-84955635D01*
X129364001Y-84948040D01*
X129364000Y-84948022D01*
X129364000Y-81592396D01*
X129383685Y-81525357D01*
X129436489Y-81479602D01*
X129448996Y-81474690D01*
X129569334Y-81434814D01*
X129718656Y-81342712D01*
X129842712Y-81218656D01*
X129934814Y-81069334D01*
X129989999Y-80902797D01*
X130000500Y-80800009D01*
X130000499Y-79999992D01*
X129993330Y-79929816D01*
X129989999Y-79897203D01*
X129989998Y-79897200D01*
X129966330Y-79825776D01*
X129934814Y-79730666D01*
X129842712Y-79581344D01*
X129749049Y-79487681D01*
X129715564Y-79426358D01*
X129720548Y-79356666D01*
X129749049Y-79312319D01*
X129795527Y-79265841D01*
X129842712Y-79218656D01*
X129934814Y-79069334D01*
X129989999Y-78902797D01*
X130000500Y-78800009D01*
X130000499Y-77999992D01*
X129989999Y-77897203D01*
X129934814Y-77730666D01*
X129842712Y-77581344D01*
X129718656Y-77457288D01*
X129625777Y-77400000D01*
X129569336Y-77365187D01*
X129569331Y-77365185D01*
X129466261Y-77331031D01*
X129448995Y-77325309D01*
X129391551Y-77285537D01*
X129364728Y-77221021D01*
X129364000Y-77207604D01*
X129364000Y-73515166D01*
X129383685Y-73448127D01*
X129435594Y-73402784D01*
X129473662Y-73385034D01*
X129654620Y-73258326D01*
X129810826Y-73102120D01*
X129937534Y-72921162D01*
X129997618Y-72792311D01*
X130043790Y-72739871D01*
X130110983Y-72720719D01*
X130177865Y-72740935D01*
G37*
G04 #@! TD.AperFunction*
G04 #@! TA.AperFunction,Conductor*
G36*
X125097865Y-72740935D02*
G01*
X125142382Y-72792311D01*
X125202464Y-72921158D01*
X125202468Y-72921166D01*
X125329170Y-73102115D01*
X125329174Y-73102120D01*
X125485380Y-73258326D01*
X125485382Y-73258327D01*
X125485384Y-73258329D01*
X125499420Y-73268157D01*
X125643123Y-73368779D01*
X125666341Y-73385036D01*
X125671033Y-73387745D01*
X125670178Y-73389224D01*
X125716828Y-73430279D01*
X125736000Y-73496514D01*
X125736000Y-82907604D01*
X125716315Y-82974643D01*
X125663511Y-83020398D01*
X125651006Y-83025309D01*
X125615916Y-83036936D01*
X125530668Y-83065185D01*
X125530663Y-83065187D01*
X125381342Y-83157289D01*
X125257289Y-83281342D01*
X125165187Y-83430663D01*
X125165185Y-83430668D01*
X125148393Y-83481344D01*
X125110001Y-83597203D01*
X125110001Y-83597204D01*
X125110000Y-83597204D01*
X125099500Y-83699983D01*
X125099500Y-84500001D01*
X125099501Y-84500019D01*
X125110000Y-84602796D01*
X125110001Y-84602799D01*
X125142214Y-84700009D01*
X125165186Y-84769334D01*
X125253150Y-84911948D01*
X125257289Y-84918657D01*
X125350951Y-85012319D01*
X125384436Y-85073642D01*
X125379452Y-85143334D01*
X125350951Y-85187681D01*
X125257289Y-85281342D01*
X125165187Y-85430663D01*
X125165185Y-85430668D01*
X125148393Y-85481344D01*
X125110001Y-85597203D01*
X125110001Y-85597204D01*
X125110000Y-85597204D01*
X125099500Y-85699983D01*
X125099500Y-86451520D01*
X125079815Y-86518559D01*
X125063181Y-86539201D01*
X122127703Y-89474681D01*
X122066380Y-89508166D01*
X122040022Y-89511000D01*
X120415866Y-89511000D01*
X120348827Y-89491315D01*
X120303072Y-89438511D01*
X120293128Y-89369353D01*
X120322153Y-89305797D01*
X120328185Y-89299319D01*
X122127503Y-87500001D01*
X124151313Y-85476192D01*
X124225565Y-85347584D01*
X124264001Y-85204140D01*
X124264001Y-85055635D01*
X124264001Y-85048040D01*
X124264000Y-85048022D01*
X124264000Y-81592396D01*
X124283685Y-81525357D01*
X124336489Y-81479602D01*
X124348996Y-81474690D01*
X124469334Y-81434814D01*
X124618656Y-81342712D01*
X124742712Y-81218656D01*
X124834814Y-81069334D01*
X124889999Y-80902797D01*
X124900500Y-80800009D01*
X124900499Y-79999992D01*
X124893330Y-79929816D01*
X124889999Y-79897203D01*
X124889998Y-79897200D01*
X124866330Y-79825776D01*
X124834814Y-79730666D01*
X124742712Y-79581344D01*
X124649049Y-79487681D01*
X124615564Y-79426358D01*
X124620548Y-79356666D01*
X124649049Y-79312319D01*
X124695527Y-79265841D01*
X124742712Y-79218656D01*
X124834814Y-79069334D01*
X124889999Y-78902797D01*
X124900500Y-78800009D01*
X124900499Y-77999992D01*
X124889999Y-77897203D01*
X124834814Y-77730666D01*
X124742712Y-77581344D01*
X124618656Y-77457288D01*
X124525777Y-77400000D01*
X124469336Y-77365187D01*
X124469331Y-77365185D01*
X124366261Y-77331031D01*
X124348995Y-77325309D01*
X124291551Y-77285537D01*
X124264728Y-77221021D01*
X124264000Y-77207604D01*
X124264000Y-73524492D01*
X124283685Y-73457453D01*
X124335592Y-73412112D01*
X124393662Y-73385034D01*
X124574620Y-73258326D01*
X124730826Y-73102120D01*
X124857534Y-72921162D01*
X124917618Y-72792311D01*
X124963790Y-72739871D01*
X125030983Y-72720719D01*
X125097865Y-72740935D01*
G37*
G04 #@! TD.AperFunction*
G04 #@! TA.AperFunction,Conductor*
G36*
X120017865Y-72740935D02*
G01*
X120062382Y-72792311D01*
X120122464Y-72921158D01*
X120122468Y-72921166D01*
X120249170Y-73102115D01*
X120249174Y-73102120D01*
X120405380Y-73258326D01*
X120405382Y-73258327D01*
X120405384Y-73258329D01*
X120575999Y-73377795D01*
X120586338Y-73385034D01*
X120664407Y-73421438D01*
X120716843Y-73467607D01*
X120736000Y-73533818D01*
X120736000Y-82907604D01*
X120716315Y-82974643D01*
X120663511Y-83020398D01*
X120651006Y-83025309D01*
X120615916Y-83036936D01*
X120530668Y-83065185D01*
X120530663Y-83065187D01*
X120381342Y-83157289D01*
X120257289Y-83281342D01*
X120165187Y-83430663D01*
X120165185Y-83430668D01*
X120148393Y-83481344D01*
X120110001Y-83597203D01*
X120110001Y-83597204D01*
X120110000Y-83597204D01*
X120099500Y-83699983D01*
X120099500Y-84500001D01*
X120099501Y-84500019D01*
X120110000Y-84602796D01*
X120110001Y-84602799D01*
X120142214Y-84700009D01*
X120165186Y-84769334D01*
X120253150Y-84911948D01*
X120257289Y-84918657D01*
X120350951Y-85012319D01*
X120384436Y-85073642D01*
X120379452Y-85143334D01*
X120350951Y-85187681D01*
X120257289Y-85281342D01*
X120165187Y-85430663D01*
X120165185Y-85430668D01*
X120148393Y-85481344D01*
X120110001Y-85597203D01*
X120110001Y-85597204D01*
X120110000Y-85597204D01*
X120099500Y-85699983D01*
X120099500Y-86451520D01*
X120079815Y-86518559D01*
X120063181Y-86539201D01*
X118427703Y-88174681D01*
X118366380Y-88208166D01*
X118340022Y-88211000D01*
X112485978Y-88211000D01*
X112418939Y-88191315D01*
X112373184Y-88138511D01*
X112363240Y-88069353D01*
X112392265Y-88005797D01*
X112398297Y-87999319D01*
X118860798Y-81536818D01*
X118922121Y-81503333D01*
X118948479Y-81500499D01*
X119100002Y-81500499D01*
X119100008Y-81500499D01*
X119202797Y-81489999D01*
X119369334Y-81434814D01*
X119518656Y-81342712D01*
X119642712Y-81218656D01*
X119734814Y-81069334D01*
X119789999Y-80902797D01*
X119800500Y-80800009D01*
X119800499Y-79999992D01*
X119793330Y-79929816D01*
X119789999Y-79897203D01*
X119789998Y-79897200D01*
X119766330Y-79825776D01*
X119734814Y-79730666D01*
X119642712Y-79581344D01*
X119549049Y-79487681D01*
X119515564Y-79426358D01*
X119520548Y-79356666D01*
X119549049Y-79312319D01*
X119595527Y-79265841D01*
X119642712Y-79218656D01*
X119734814Y-79069334D01*
X119789999Y-78902797D01*
X119800500Y-78800009D01*
X119800499Y-77999992D01*
X119789999Y-77897203D01*
X119734814Y-77730666D01*
X119642712Y-77581344D01*
X119518656Y-77457288D01*
X119425777Y-77400000D01*
X119369336Y-77365187D01*
X119369331Y-77365185D01*
X119266261Y-77331031D01*
X119248995Y-77325309D01*
X119191551Y-77285537D01*
X119164728Y-77221021D01*
X119164000Y-77207604D01*
X119164000Y-73533818D01*
X119183685Y-73466779D01*
X119235592Y-73421438D01*
X119313662Y-73385034D01*
X119494620Y-73258326D01*
X119650826Y-73102120D01*
X119777534Y-72921162D01*
X119837618Y-72792311D01*
X119883790Y-72739871D01*
X119950983Y-72720719D01*
X120017865Y-72740935D01*
G37*
G04 #@! TD.AperFunction*
G04 #@! TA.AperFunction,Conductor*
G36*
X94499991Y-81500500D02*
G01*
X95251521Y-81500499D01*
X95318560Y-81520184D01*
X95339202Y-81536818D01*
X100501703Y-86699319D01*
X100535188Y-86760642D01*
X100530204Y-86830334D01*
X100488332Y-86886267D01*
X100422868Y-86910684D01*
X100414022Y-86911000D01*
X99659978Y-86911000D01*
X99592939Y-86891315D01*
X99572297Y-86874681D01*
X94409796Y-81712180D01*
X94376311Y-81650857D01*
X94381295Y-81581165D01*
X94423167Y-81525232D01*
X94488631Y-81500815D01*
X94497477Y-81500499D01*
X94499981Y-81500499D01*
X94499991Y-81500500D01*
G37*
G04 #@! TD.AperFunction*
G04 #@! TA.AperFunction,Conductor*
G36*
X117477865Y-72740935D02*
G01*
X117522382Y-72792311D01*
X117582464Y-72921158D01*
X117582468Y-72921166D01*
X117709170Y-73102115D01*
X117709174Y-73102120D01*
X117809169Y-73202115D01*
X117865381Y-73258327D01*
X117879420Y-73268157D01*
X117976620Y-73336217D01*
X117983123Y-73340770D01*
X118026748Y-73395346D01*
X118036000Y-73442345D01*
X118036000Y-77207604D01*
X118016315Y-77274643D01*
X117963511Y-77320398D01*
X117951006Y-77325309D01*
X117933739Y-77331031D01*
X117830668Y-77365185D01*
X117830663Y-77365187D01*
X117681342Y-77457289D01*
X117557289Y-77581342D01*
X117465187Y-77730663D01*
X117465185Y-77730668D01*
X117458621Y-77750478D01*
X117410001Y-77897203D01*
X117410001Y-77897204D01*
X117410000Y-77897204D01*
X117399500Y-77999983D01*
X117399500Y-78800001D01*
X117399501Y-78800019D01*
X117410000Y-78902796D01*
X117410001Y-78902799D01*
X117465185Y-79069331D01*
X117465187Y-79069336D01*
X117484560Y-79100745D01*
X117557096Y-79218345D01*
X117557289Y-79218657D01*
X117650951Y-79312319D01*
X117684436Y-79373642D01*
X117679452Y-79443334D01*
X117650951Y-79487681D01*
X117557289Y-79581342D01*
X117465187Y-79730663D01*
X117465185Y-79730668D01*
X117443510Y-79796081D01*
X117410001Y-79897203D01*
X117410001Y-79897204D01*
X117410000Y-79897204D01*
X117399500Y-79999983D01*
X117399500Y-80800001D01*
X117399501Y-80800019D01*
X117410000Y-80902796D01*
X117410001Y-80902799D01*
X117465185Y-81069331D01*
X117465187Y-81069336D01*
X117481009Y-81094988D01*
X117515903Y-81151560D01*
X117534343Y-81218952D01*
X117513420Y-81285615D01*
X117498045Y-81304337D01*
X115835374Y-82967008D01*
X115774051Y-83000493D01*
X115704359Y-82995509D01*
X115648426Y-82953637D01*
X115635310Y-82931731D01*
X115634817Y-82930677D01*
X115634814Y-82930666D01*
X115542712Y-82781344D01*
X115448695Y-82687327D01*
X115415210Y-82626004D01*
X115420194Y-82556312D01*
X115448695Y-82511964D01*
X115542317Y-82418342D01*
X115634356Y-82269124D01*
X115634358Y-82269119D01*
X115689505Y-82102697D01*
X115689506Y-82102690D01*
X115699999Y-81999986D01*
X115700000Y-81999973D01*
X115700000Y-81850000D01*
X113300001Y-81850000D01*
X113300001Y-81999986D01*
X113310494Y-82102697D01*
X113365641Y-82269119D01*
X113365643Y-82269124D01*
X113457684Y-82418345D01*
X113551304Y-82511965D01*
X113584789Y-82573288D01*
X113579805Y-82642980D01*
X113551305Y-82687327D01*
X113457287Y-82781345D01*
X113365187Y-82930663D01*
X113365185Y-82930668D01*
X113343699Y-82995509D01*
X113310001Y-83097203D01*
X113310001Y-83097204D01*
X113310000Y-83097204D01*
X113299500Y-83199983D01*
X113299500Y-83951519D01*
X113279815Y-84018558D01*
X113263181Y-84039200D01*
X110800046Y-86502336D01*
X110738723Y-86535821D01*
X110669031Y-86530837D01*
X110613098Y-86488965D01*
X110588681Y-86423501D01*
X110589425Y-86398479D01*
X110600500Y-86314361D01*
X110600499Y-86035640D01*
X110585044Y-85918238D01*
X110576434Y-85897454D01*
X110568965Y-85827986D01*
X110576435Y-85802545D01*
X110577696Y-85799500D01*
X110585044Y-85781762D01*
X110600500Y-85664361D01*
X110600499Y-85385640D01*
X110600498Y-85385636D01*
X110595682Y-85349049D01*
X110587692Y-85288356D01*
X110598458Y-85219325D01*
X110622947Y-85184497D01*
X112605277Y-83202169D01*
X112676466Y-83095626D01*
X112701655Y-83034814D01*
X112708745Y-83017697D01*
X112708745Y-83017696D01*
X112713574Y-83006037D01*
X112725501Y-82977244D01*
X112739354Y-82907604D01*
X112750500Y-82851571D01*
X112750500Y-81200013D01*
X113300000Y-81200013D01*
X113300000Y-81350000D01*
X114250000Y-81350000D01*
X114750000Y-81350000D01*
X115699999Y-81350000D01*
X115699999Y-81200028D01*
X115699998Y-81200013D01*
X115689505Y-81097302D01*
X115634358Y-80930880D01*
X115634356Y-80930875D01*
X115542315Y-80781654D01*
X115418345Y-80657684D01*
X115269124Y-80565643D01*
X115269119Y-80565641D01*
X115102697Y-80510494D01*
X115102690Y-80510493D01*
X114999986Y-80500000D01*
X114750000Y-80500000D01*
X114750000Y-81350000D01*
X114250000Y-81350000D01*
X114250000Y-80500000D01*
X114000029Y-80500000D01*
X114000012Y-80500001D01*
X113897302Y-80510494D01*
X113730880Y-80565641D01*
X113730875Y-80565643D01*
X113581654Y-80657684D01*
X113457684Y-80781654D01*
X113365643Y-80930875D01*
X113365641Y-80930880D01*
X113310494Y-81097302D01*
X113310493Y-81097309D01*
X113300000Y-81200013D01*
X112750500Y-81200013D01*
X112750500Y-79715638D01*
X112770185Y-79648599D01*
X112809401Y-79610100D01*
X112918656Y-79542712D01*
X113042712Y-79418656D01*
X113134814Y-79269334D01*
X113189999Y-79102797D01*
X113200500Y-79000009D01*
X113200499Y-78770807D01*
X113220183Y-78703768D01*
X113236813Y-78683131D01*
X116645276Y-75274670D01*
X116696680Y-75197738D01*
X116716464Y-75168129D01*
X116736092Y-75120743D01*
X116765501Y-75049744D01*
X116770714Y-75023535D01*
X116790500Y-74924069D01*
X116790500Y-73437793D01*
X116810185Y-73370754D01*
X116843372Y-73336221D01*
X116954620Y-73258326D01*
X117110826Y-73102120D01*
X117237534Y-72921162D01*
X117297618Y-72792311D01*
X117343790Y-72739871D01*
X117410983Y-72720719D01*
X117477865Y-72740935D01*
G37*
G04 #@! TD.AperFunction*
G04 #@! TA.AperFunction,Conductor*
G36*
X132717865Y-72740935D02*
G01*
X132762382Y-72792311D01*
X132822464Y-72921158D01*
X132822468Y-72921166D01*
X132949170Y-73102115D01*
X132949174Y-73102120D01*
X133105380Y-73258326D01*
X133105382Y-73258327D01*
X133105384Y-73258329D01*
X133119420Y-73268157D01*
X133263123Y-73368779D01*
X133286341Y-73385036D01*
X133291033Y-73387745D01*
X133290178Y-73389224D01*
X133336828Y-73430279D01*
X133356000Y-73496514D01*
X133356000Y-77234113D01*
X133336315Y-77301152D01*
X133283511Y-77346907D01*
X133271006Y-77351818D01*
X133230671Y-77365184D01*
X133230663Y-77365187D01*
X133081342Y-77457289D01*
X132957289Y-77581342D01*
X132865187Y-77730663D01*
X132865185Y-77730668D01*
X132858621Y-77750478D01*
X132810001Y-77897203D01*
X132810001Y-77897204D01*
X132810000Y-77897204D01*
X132799500Y-77999983D01*
X132799500Y-78800001D01*
X132799501Y-78800019D01*
X132810000Y-78902796D01*
X132810001Y-78902799D01*
X132865185Y-79069331D01*
X132865187Y-79069336D01*
X132884560Y-79100745D01*
X132957096Y-79218345D01*
X132957289Y-79218657D01*
X133050951Y-79312319D01*
X133084436Y-79373642D01*
X133079452Y-79443334D01*
X133050951Y-79487681D01*
X132957289Y-79581342D01*
X132865187Y-79730663D01*
X132865185Y-79730668D01*
X132843510Y-79796081D01*
X132810001Y-79897203D01*
X132810001Y-79897204D01*
X132810000Y-79897204D01*
X132799500Y-79999983D01*
X132799500Y-80800001D01*
X132799501Y-80800019D01*
X132810000Y-80902796D01*
X132810001Y-80902799D01*
X132865185Y-81069331D01*
X132865187Y-81069336D01*
X132882437Y-81097302D01*
X132957288Y-81218656D01*
X133081344Y-81342712D01*
X133230666Y-81434814D01*
X133351004Y-81474690D01*
X133408449Y-81514463D01*
X133435272Y-81578979D01*
X133436000Y-81592396D01*
X133436000Y-84744909D01*
X133416315Y-84811948D01*
X133399681Y-84832590D01*
X132609335Y-85622935D01*
X132548012Y-85656420D01*
X132478320Y-85651436D01*
X132422387Y-85609564D01*
X132416115Y-85600350D01*
X132409730Y-85589999D01*
X132342712Y-85481344D01*
X132249049Y-85387681D01*
X132215564Y-85326358D01*
X132220548Y-85256666D01*
X132249049Y-85212319D01*
X132292037Y-85169331D01*
X132342712Y-85118656D01*
X132434814Y-84969334D01*
X132489999Y-84802797D01*
X132500500Y-84700009D01*
X132500499Y-83899992D01*
X132489999Y-83797203D01*
X132434814Y-83630666D01*
X132342712Y-83481344D01*
X132218656Y-83357288D01*
X132109404Y-83289901D01*
X132069336Y-83265187D01*
X132069331Y-83265185D01*
X131948996Y-83225310D01*
X131891551Y-83185537D01*
X131864728Y-83121021D01*
X131864000Y-83107604D01*
X131864000Y-73533818D01*
X131883685Y-73466779D01*
X131935592Y-73421438D01*
X132013662Y-73385034D01*
X132194620Y-73258326D01*
X132350826Y-73102120D01*
X132477534Y-72921162D01*
X132537618Y-72792311D01*
X132583790Y-72739871D01*
X132650983Y-72720719D01*
X132717865Y-72740935D01*
G37*
G04 #@! TD.AperFunction*
G04 #@! TA.AperFunction,Conductor*
G36*
X122557865Y-72740935D02*
G01*
X122602382Y-72792311D01*
X122662464Y-72921158D01*
X122662468Y-72921166D01*
X122789170Y-73102115D01*
X122789174Y-73102120D01*
X122945380Y-73258326D01*
X122945382Y-73258327D01*
X122945384Y-73258329D01*
X123083123Y-73354775D01*
X123126748Y-73409352D01*
X123136000Y-73456350D01*
X123136000Y-77207604D01*
X123116315Y-77274643D01*
X123063511Y-77320398D01*
X123051006Y-77325309D01*
X123033739Y-77331031D01*
X122930668Y-77365185D01*
X122930663Y-77365187D01*
X122781342Y-77457289D01*
X122657289Y-77581342D01*
X122565187Y-77730663D01*
X122565185Y-77730668D01*
X122558621Y-77750478D01*
X122510001Y-77897203D01*
X122510001Y-77897204D01*
X122510000Y-77897204D01*
X122499500Y-77999983D01*
X122499500Y-78800001D01*
X122499501Y-78800019D01*
X122510000Y-78902796D01*
X122510001Y-78902799D01*
X122565185Y-79069331D01*
X122565187Y-79069336D01*
X122584560Y-79100745D01*
X122657096Y-79218345D01*
X122657289Y-79218657D01*
X122750951Y-79312319D01*
X122784436Y-79373642D01*
X122779452Y-79443334D01*
X122750951Y-79487681D01*
X122657289Y-79581342D01*
X122565187Y-79730663D01*
X122565185Y-79730668D01*
X122543510Y-79796081D01*
X122510001Y-79897203D01*
X122510001Y-79897204D01*
X122510000Y-79897204D01*
X122499500Y-79999983D01*
X122499500Y-80800001D01*
X122499501Y-80800019D01*
X122510000Y-80902796D01*
X122510001Y-80902799D01*
X122565185Y-81069331D01*
X122565187Y-81069336D01*
X122582437Y-81097302D01*
X122657288Y-81218656D01*
X122781344Y-81342712D01*
X122930666Y-81434814D01*
X123051004Y-81474690D01*
X123108449Y-81514463D01*
X123135272Y-81578979D01*
X123136000Y-81592396D01*
X123136000Y-84844909D01*
X123116315Y-84911948D01*
X123099681Y-84932590D01*
X122609335Y-85422935D01*
X122548012Y-85456420D01*
X122478320Y-85451436D01*
X122422387Y-85409564D01*
X122416115Y-85400350D01*
X122380947Y-85343334D01*
X122342712Y-85281344D01*
X122249049Y-85187681D01*
X122215564Y-85126358D01*
X122220548Y-85056666D01*
X122249049Y-85012319D01*
X122292037Y-84969331D01*
X122342712Y-84918656D01*
X122434814Y-84769334D01*
X122489999Y-84602797D01*
X122500500Y-84500009D01*
X122500499Y-83699992D01*
X122493417Y-83630668D01*
X122489999Y-83597203D01*
X122489998Y-83597200D01*
X122482384Y-83574223D01*
X122434814Y-83430666D01*
X122342712Y-83281344D01*
X122218656Y-83157288D01*
X122069334Y-83065186D01*
X121948995Y-83025309D01*
X121891551Y-82985537D01*
X121864728Y-82921021D01*
X121864000Y-82907604D01*
X121864000Y-73442345D01*
X121883685Y-73375306D01*
X121916877Y-73340770D01*
X122034620Y-73258326D01*
X122190826Y-73102120D01*
X122317534Y-72921162D01*
X122377618Y-72792311D01*
X122423790Y-72739871D01*
X122490983Y-72720719D01*
X122557865Y-72740935D01*
G37*
G04 #@! TD.AperFunction*
G04 #@! TA.AperFunction,Conductor*
G36*
X127637865Y-72740935D02*
G01*
X127682382Y-72792311D01*
X127742464Y-72921158D01*
X127742468Y-72921166D01*
X127869170Y-73102115D01*
X127869174Y-73102120D01*
X128025380Y-73258326D01*
X128025382Y-73258327D01*
X128025384Y-73258329D01*
X128183123Y-73368779D01*
X128226748Y-73423356D01*
X128236000Y-73470354D01*
X128236000Y-77207604D01*
X128216315Y-77274643D01*
X128163511Y-77320398D01*
X128151006Y-77325309D01*
X128133739Y-77331031D01*
X128030668Y-77365185D01*
X128030663Y-77365187D01*
X127881342Y-77457289D01*
X127757289Y-77581342D01*
X127665187Y-77730663D01*
X127665185Y-77730668D01*
X127658621Y-77750478D01*
X127610001Y-77897203D01*
X127610001Y-77897204D01*
X127610000Y-77897204D01*
X127599500Y-77999983D01*
X127599500Y-78800001D01*
X127599501Y-78800019D01*
X127610000Y-78902796D01*
X127610001Y-78902799D01*
X127665185Y-79069331D01*
X127665187Y-79069336D01*
X127684560Y-79100745D01*
X127757096Y-79218345D01*
X127757289Y-79218657D01*
X127850951Y-79312319D01*
X127884436Y-79373642D01*
X127879452Y-79443334D01*
X127850951Y-79487681D01*
X127757289Y-79581342D01*
X127665187Y-79730663D01*
X127665185Y-79730668D01*
X127643510Y-79796081D01*
X127610001Y-79897203D01*
X127610001Y-79897204D01*
X127610000Y-79897204D01*
X127599500Y-79999983D01*
X127599500Y-80800001D01*
X127599501Y-80800019D01*
X127610000Y-80902796D01*
X127610001Y-80902799D01*
X127665185Y-81069331D01*
X127665187Y-81069336D01*
X127682437Y-81097302D01*
X127757288Y-81218656D01*
X127881344Y-81342712D01*
X128030666Y-81434814D01*
X128151004Y-81474690D01*
X128208449Y-81514463D01*
X128235272Y-81578979D01*
X128236000Y-81592396D01*
X128236000Y-84744909D01*
X128216315Y-84811948D01*
X128199681Y-84832590D01*
X127609335Y-85422935D01*
X127548012Y-85456420D01*
X127478320Y-85451436D01*
X127422387Y-85409564D01*
X127416115Y-85400350D01*
X127380947Y-85343334D01*
X127342712Y-85281344D01*
X127249049Y-85187681D01*
X127215564Y-85126358D01*
X127220548Y-85056666D01*
X127249049Y-85012319D01*
X127292037Y-84969331D01*
X127342712Y-84918656D01*
X127434814Y-84769334D01*
X127489999Y-84602797D01*
X127500500Y-84500009D01*
X127500499Y-83699992D01*
X127493417Y-83630668D01*
X127489999Y-83597203D01*
X127489998Y-83597200D01*
X127482384Y-83574223D01*
X127434814Y-83430666D01*
X127342712Y-83281344D01*
X127218656Y-83157288D01*
X127069334Y-83065186D01*
X126948995Y-83025309D01*
X126891551Y-82985537D01*
X126864728Y-82921021D01*
X126864000Y-82907604D01*
X126864000Y-73496514D01*
X126883685Y-73429475D01*
X126929806Y-73389198D01*
X126928967Y-73387745D01*
X126933658Y-73385036D01*
X126933658Y-73385035D01*
X126933662Y-73385034D01*
X127114620Y-73258326D01*
X127270826Y-73102120D01*
X127397534Y-72921162D01*
X127457618Y-72792311D01*
X127503790Y-72739871D01*
X127570983Y-72720719D01*
X127637865Y-72740935D01*
G37*
G04 #@! TD.AperFunction*
G04 #@! TA.AperFunction,Conductor*
G36*
X108705702Y-77903764D02*
G01*
X108712180Y-77909796D01*
X108963181Y-78160797D01*
X108996666Y-78222120D01*
X108999500Y-78248478D01*
X108999500Y-79000001D01*
X108999501Y-79000019D01*
X109010000Y-79102796D01*
X109010001Y-79102799D01*
X109065185Y-79269331D01*
X109065187Y-79269336D01*
X109075653Y-79286304D01*
X109157288Y-79418656D01*
X109281344Y-79542712D01*
X109430666Y-79634814D01*
X109451004Y-79641553D01*
X109508447Y-79681322D01*
X109535272Y-79745837D01*
X109536000Y-79759258D01*
X109536000Y-82515021D01*
X109516315Y-82582060D01*
X109499681Y-82602702D01*
X108175681Y-83926702D01*
X108114358Y-83960187D01*
X108044666Y-83955203D01*
X107988733Y-83913331D01*
X107964316Y-83847867D01*
X107964000Y-83839021D01*
X107964000Y-79559258D01*
X107983685Y-79492219D01*
X108036489Y-79446464D01*
X108048977Y-79441559D01*
X108069334Y-79434814D01*
X108218656Y-79342712D01*
X108342712Y-79218656D01*
X108434814Y-79069334D01*
X108489999Y-78902797D01*
X108500500Y-78800009D01*
X108500499Y-77997476D01*
X108520183Y-77930438D01*
X108572987Y-77884683D01*
X108642146Y-77874739D01*
X108705702Y-77903764D01*
G37*
G04 #@! TD.AperFunction*
G04 #@! TA.AperFunction,Conductor*
G36*
X111143334Y-79420548D02*
G01*
X111187681Y-79449049D01*
X111281344Y-79542712D01*
X111390597Y-79610099D01*
X111437321Y-79662047D01*
X111449500Y-79715638D01*
X111449500Y-82466691D01*
X111429815Y-82533730D01*
X111413181Y-82554372D01*
X110834095Y-83133458D01*
X110772772Y-83166943D01*
X110703080Y-83161959D01*
X110647147Y-83120087D01*
X110622730Y-83054623D01*
X110626638Y-83013690D01*
X110664001Y-82874252D01*
X110664001Y-82725747D01*
X110664001Y-82718152D01*
X110664000Y-82718134D01*
X110664000Y-79759258D01*
X110683685Y-79692219D01*
X110736489Y-79646464D01*
X110748977Y-79641559D01*
X110769334Y-79634814D01*
X110918656Y-79542712D01*
X111012319Y-79449049D01*
X111073642Y-79415564D01*
X111143334Y-79420548D01*
G37*
G04 #@! TD.AperFunction*
G04 #@! TA.AperFunction,Conductor*
G36*
X78557865Y-72840935D02*
G01*
X78602382Y-72892311D01*
X78662464Y-73021158D01*
X78662468Y-73021166D01*
X78789170Y-73202115D01*
X78789175Y-73202121D01*
X78945378Y-73358324D01*
X78945384Y-73358329D01*
X79126341Y-73485036D01*
X79131033Y-73487745D01*
X79130178Y-73489224D01*
X79176828Y-73530279D01*
X79196000Y-73596514D01*
X79196000Y-78185747D01*
X79196000Y-78334253D01*
X79203840Y-78363511D01*
X79220516Y-78425749D01*
X79234434Y-78477695D01*
X79247302Y-78499983D01*
X79308687Y-78606304D01*
X79308689Y-78606306D01*
X79420761Y-78718378D01*
X79420767Y-78718383D01*
X81312744Y-80610360D01*
X81346229Y-80671683D01*
X81348283Y-80684158D01*
X81364630Y-80829249D01*
X81364632Y-80829257D01*
X81420827Y-80989853D01*
X81424388Y-81059631D01*
X81389659Y-81120259D01*
X81327666Y-81152486D01*
X81258090Y-81146081D01*
X81216104Y-81118488D01*
X78237255Y-78139639D01*
X78203770Y-78078316D01*
X78201716Y-78065841D01*
X78201362Y-78062703D01*
X78192304Y-77982302D01*
X78185369Y-77920749D01*
X78185368Y-77920745D01*
X78146617Y-77810001D01*
X78125789Y-77750478D01*
X78113338Y-77730663D01*
X78029815Y-77597737D01*
X77902260Y-77470182D01*
X77902258Y-77470181D01*
X77842027Y-77432334D01*
X77795736Y-77379999D01*
X77784000Y-77327341D01*
X77784000Y-73596514D01*
X77803685Y-73529475D01*
X77849806Y-73489198D01*
X77848967Y-73487745D01*
X77853658Y-73485036D01*
X77853658Y-73485035D01*
X77853662Y-73485034D01*
X78034620Y-73358326D01*
X78190826Y-73202120D01*
X78317534Y-73021162D01*
X78377618Y-72892311D01*
X78423790Y-72839871D01*
X78490983Y-72820719D01*
X78557865Y-72840935D01*
G37*
G04 #@! TD.AperFunction*
G04 #@! TA.AperFunction,Conductor*
G36*
X91184627Y-73029482D02*
G01*
X91217478Y-73080897D01*
X91263185Y-73218831D01*
X91263187Y-73218836D01*
X91293608Y-73268156D01*
X91355288Y-73368156D01*
X91479344Y-73492212D01*
X91628666Y-73584314D01*
X91795203Y-73639499D01*
X91795209Y-73639499D01*
X91797948Y-73640086D01*
X91799483Y-73640917D01*
X91801630Y-73641629D01*
X91801503Y-73642011D01*
X91859384Y-73673364D01*
X91893076Y-73734573D01*
X91896000Y-73761341D01*
X91896000Y-80280076D01*
X91876995Y-80346046D01*
X91874211Y-80350475D01*
X91814631Y-80520745D01*
X91814630Y-80520750D01*
X91794435Y-80699996D01*
X91794435Y-80700004D01*
X91805145Y-80795064D01*
X91793090Y-80863886D01*
X91745741Y-80915265D01*
X91678130Y-80932889D01*
X91611725Y-80911162D01*
X91594244Y-80896628D01*
X90837255Y-80139639D01*
X90803770Y-80078316D01*
X90801716Y-80065841D01*
X90801662Y-80065366D01*
X90788557Y-79949049D01*
X90785369Y-79920749D01*
X90785368Y-79920745D01*
X90765733Y-79864632D01*
X90725789Y-79750478D01*
X90725651Y-79750259D01*
X90662354Y-79649522D01*
X90629816Y-79597738D01*
X90520319Y-79488241D01*
X90486834Y-79426918D01*
X90484000Y-79400560D01*
X90484000Y-73596514D01*
X90503685Y-73529475D01*
X90549806Y-73489198D01*
X90548967Y-73487745D01*
X90553658Y-73485036D01*
X90553658Y-73485035D01*
X90553662Y-73485034D01*
X90734620Y-73358326D01*
X90890826Y-73202120D01*
X90998197Y-73048777D01*
X91052774Y-73005153D01*
X91122272Y-72997959D01*
X91184627Y-73029482D01*
G37*
G04 #@! TD.AperFunction*
G04 #@! TA.AperFunction,Conductor*
G36*
X88717865Y-72840935D02*
G01*
X88762382Y-72892311D01*
X88822464Y-73021158D01*
X88822468Y-73021166D01*
X88949170Y-73202115D01*
X88949175Y-73202121D01*
X89105378Y-73358324D01*
X89105384Y-73358329D01*
X89286341Y-73485036D01*
X89291033Y-73487745D01*
X89290178Y-73489224D01*
X89336828Y-73530279D01*
X89356000Y-73596514D01*
X89356000Y-79584587D01*
X89336994Y-79650559D01*
X89274209Y-79750481D01*
X89214633Y-79920737D01*
X89214630Y-79920749D01*
X89203333Y-80021019D01*
X89176266Y-80085433D01*
X89118671Y-80124988D01*
X89048834Y-80127125D01*
X88992432Y-80094816D01*
X88217255Y-79319639D01*
X88183770Y-79258316D01*
X88181716Y-79245841D01*
X88165369Y-79100749D01*
X88165368Y-79100745D01*
X88154700Y-79070259D01*
X88105789Y-78930478D01*
X88086621Y-78899973D01*
X88022382Y-78797737D01*
X88009816Y-78777738D01*
X87980319Y-78748241D01*
X87946834Y-78686918D01*
X87944000Y-78660560D01*
X87944000Y-73596514D01*
X87963685Y-73529475D01*
X88009806Y-73489198D01*
X88008967Y-73487745D01*
X88013658Y-73485036D01*
X88013658Y-73485035D01*
X88013662Y-73485034D01*
X88194620Y-73358326D01*
X88350826Y-73202120D01*
X88477534Y-73021162D01*
X88537618Y-72892311D01*
X88583790Y-72839871D01*
X88650983Y-72820719D01*
X88717865Y-72840935D01*
G37*
G04 #@! TD.AperFunction*
G04 #@! TA.AperFunction,Conductor*
G36*
X83637865Y-72840935D02*
G01*
X83682382Y-72892311D01*
X83742464Y-73021158D01*
X83742468Y-73021166D01*
X83869170Y-73202115D01*
X83869175Y-73202121D01*
X84025378Y-73358324D01*
X84025384Y-73358329D01*
X84206341Y-73485036D01*
X84211033Y-73487745D01*
X84210178Y-73489224D01*
X84256828Y-73530279D01*
X84276000Y-73596514D01*
X84276000Y-77842445D01*
X84259387Y-77904444D01*
X84248606Y-77923117D01*
X84214435Y-77982302D01*
X84183505Y-78097737D01*
X84176000Y-78125747D01*
X84176000Y-78274253D01*
X84208944Y-78397204D01*
X84214436Y-78417698D01*
X84214437Y-78417701D01*
X84259386Y-78495553D01*
X84276000Y-78557554D01*
X84276000Y-79014252D01*
X84305826Y-79125566D01*
X84305826Y-79125567D01*
X84314433Y-79157692D01*
X84314434Y-79157694D01*
X84314435Y-79157696D01*
X84338859Y-79200000D01*
X84380974Y-79272945D01*
X84396807Y-79321061D01*
X84414630Y-79479250D01*
X84414632Y-79479257D01*
X84470827Y-79639853D01*
X84474388Y-79709631D01*
X84439659Y-79770259D01*
X84377666Y-79802486D01*
X84308090Y-79796081D01*
X84266104Y-79768488D01*
X83137255Y-78639639D01*
X83103770Y-78578316D01*
X83101716Y-78565841D01*
X83100782Y-78557554D01*
X83091785Y-78477695D01*
X83085369Y-78420749D01*
X83085368Y-78420745D01*
X83065341Y-78363511D01*
X83025789Y-78250478D01*
X83024532Y-78248478D01*
X82935726Y-78107144D01*
X82929816Y-78097738D01*
X82900319Y-78068241D01*
X82866834Y-78006918D01*
X82864000Y-77980560D01*
X82864000Y-73596514D01*
X82883685Y-73529475D01*
X82929806Y-73489198D01*
X82928967Y-73487745D01*
X82933658Y-73485036D01*
X82933658Y-73485035D01*
X82933662Y-73485034D01*
X83114620Y-73358326D01*
X83270826Y-73202120D01*
X83397534Y-73021162D01*
X83457618Y-72892311D01*
X83503790Y-72839871D01*
X83570983Y-72820719D01*
X83637865Y-72840935D01*
G37*
G04 #@! TD.AperFunction*
G04 #@! TA.AperFunction,Conductor*
G36*
X86177865Y-72840935D02*
G01*
X86222382Y-72892311D01*
X86282464Y-73021158D01*
X86282468Y-73021166D01*
X86409170Y-73202115D01*
X86409175Y-73202121D01*
X86565378Y-73358324D01*
X86565384Y-73358329D01*
X86746341Y-73485036D01*
X86751033Y-73487745D01*
X86750178Y-73489224D01*
X86796828Y-73530279D01*
X86816000Y-73596514D01*
X86816000Y-78660560D01*
X86796315Y-78727599D01*
X86779681Y-78748241D01*
X86750184Y-78777737D01*
X86654211Y-78930476D01*
X86594631Y-79100745D01*
X86594630Y-79100750D01*
X86574435Y-79279996D01*
X86574435Y-79280003D01*
X86594630Y-79459249D01*
X86594632Y-79459257D01*
X86650827Y-79619853D01*
X86654388Y-79689631D01*
X86619659Y-79750259D01*
X86557666Y-79782486D01*
X86488090Y-79776081D01*
X86446104Y-79748488D01*
X86037255Y-79339639D01*
X86003770Y-79278316D01*
X86001716Y-79265841D01*
X86000752Y-79257288D01*
X85994298Y-79200000D01*
X85985369Y-79120749D01*
X85985368Y-79120745D01*
X85978979Y-79102486D01*
X85925789Y-78950478D01*
X85925188Y-78949522D01*
X85872549Y-78865747D01*
X85829816Y-78797738D01*
X85702262Y-78670184D01*
X85600598Y-78606304D01*
X85549524Y-78574212D01*
X85549520Y-78574210D01*
X85487045Y-78552349D01*
X85430269Y-78511627D01*
X85404522Y-78446675D01*
X85404000Y-78435308D01*
X85404000Y-73596514D01*
X85423685Y-73529475D01*
X85469806Y-73489198D01*
X85468967Y-73487745D01*
X85473658Y-73485036D01*
X85473658Y-73485035D01*
X85473662Y-73485034D01*
X85654620Y-73358326D01*
X85810826Y-73202120D01*
X85937534Y-73021162D01*
X85997618Y-72892311D01*
X86043790Y-72839871D01*
X86110983Y-72820719D01*
X86177865Y-72840935D01*
G37*
G04 #@! TD.AperFunction*
G04 #@! TA.AperFunction,Conductor*
G36*
X81097865Y-72840935D02*
G01*
X81142382Y-72892311D01*
X81202464Y-73021158D01*
X81202468Y-73021166D01*
X81329170Y-73202115D01*
X81329175Y-73202121D01*
X81485378Y-73358324D01*
X81485384Y-73358329D01*
X81666341Y-73485036D01*
X81671033Y-73487745D01*
X81670178Y-73489224D01*
X81716828Y-73530279D01*
X81736000Y-73596514D01*
X81736000Y-77980560D01*
X81716315Y-78047599D01*
X81699681Y-78068241D01*
X81670184Y-78097737D01*
X81574211Y-78250476D01*
X81514631Y-78420745D01*
X81514630Y-78420750D01*
X81494435Y-78599996D01*
X81494435Y-78600003D01*
X81514630Y-78779249D01*
X81514632Y-78779257D01*
X81570827Y-78939853D01*
X81574388Y-79009631D01*
X81539659Y-79070259D01*
X81477666Y-79102486D01*
X81408090Y-79096081D01*
X81366104Y-79068488D01*
X80360319Y-78062703D01*
X80326834Y-78001380D01*
X80324000Y-77975022D01*
X80324000Y-73596514D01*
X80343685Y-73529475D01*
X80389806Y-73489198D01*
X80388967Y-73487745D01*
X80393658Y-73485036D01*
X80393658Y-73485035D01*
X80393662Y-73485034D01*
X80574620Y-73358326D01*
X80730826Y-73202120D01*
X80857534Y-73021162D01*
X80917618Y-72892311D01*
X80963790Y-72839871D01*
X81030983Y-72820719D01*
X81097865Y-72840935D01*
G37*
G04 #@! TD.AperFunction*
G04 #@! TA.AperFunction,Conductor*
G36*
X76017865Y-72840935D02*
G01*
X76062382Y-72892311D01*
X76122464Y-73021158D01*
X76122468Y-73021166D01*
X76249170Y-73202115D01*
X76249175Y-73202121D01*
X76405378Y-73358324D01*
X76405384Y-73358329D01*
X76586341Y-73485036D01*
X76591033Y-73487745D01*
X76590178Y-73489224D01*
X76636828Y-73530279D01*
X76656000Y-73596514D01*
X76656000Y-77781451D01*
X76649042Y-77822405D01*
X76614632Y-77920742D01*
X76614630Y-77920750D01*
X76593655Y-78106919D01*
X76591720Y-78106701D01*
X76574750Y-78164496D01*
X76521946Y-78210251D01*
X76452788Y-78220195D01*
X76389232Y-78191170D01*
X76382754Y-78185138D01*
X75280319Y-77082703D01*
X75246834Y-77021380D01*
X75244000Y-76995022D01*
X75244000Y-73596514D01*
X75263685Y-73529475D01*
X75309806Y-73489198D01*
X75308967Y-73487745D01*
X75313658Y-73485036D01*
X75313658Y-73485035D01*
X75313662Y-73485034D01*
X75494620Y-73358326D01*
X75650826Y-73202120D01*
X75777534Y-73021162D01*
X75837618Y-72892311D01*
X75883790Y-72839871D01*
X75950983Y-72820719D01*
X76017865Y-72840935D01*
G37*
G04 #@! TD.AperFunction*
G04 #@! TA.AperFunction,Conductor*
G36*
X114818129Y-67070185D02*
G01*
X114863884Y-67122989D01*
X114874618Y-67185305D01*
X114872677Y-67207494D01*
X114872677Y-67207502D01*
X114891929Y-67427562D01*
X114891930Y-67427570D01*
X114949104Y-67640945D01*
X114949105Y-67640947D01*
X114949106Y-67640950D01*
X115009054Y-67769509D01*
X115042466Y-67841162D01*
X115042468Y-67841166D01*
X115157668Y-68005688D01*
X115169174Y-68022120D01*
X115325380Y-68178326D01*
X115436625Y-68256220D01*
X115480248Y-68310794D01*
X115489500Y-68357793D01*
X115489500Y-71137205D01*
X115469815Y-71204244D01*
X115436624Y-71238780D01*
X115325382Y-71316672D01*
X115169172Y-71472881D01*
X115042466Y-71653838D01*
X115042465Y-71653840D01*
X114949107Y-71854048D01*
X114949104Y-71854054D01*
X114891930Y-72067429D01*
X114891929Y-72067437D01*
X114872677Y-72287497D01*
X114872677Y-72287502D01*
X114891929Y-72507562D01*
X114891930Y-72507570D01*
X114949104Y-72720945D01*
X114949105Y-72720947D01*
X114949106Y-72720950D01*
X115009054Y-72849509D01*
X115042466Y-72921162D01*
X115042468Y-72921166D01*
X115169170Y-73102115D01*
X115169174Y-73102120D01*
X115325380Y-73258326D01*
X115436625Y-73336220D01*
X115480248Y-73390794D01*
X115489500Y-73437793D01*
X115489500Y-74539191D01*
X115469815Y-74606230D01*
X115453181Y-74626872D01*
X112782506Y-77297546D01*
X112721183Y-77331031D01*
X112655821Y-77327571D01*
X112602798Y-77310001D01*
X112500010Y-77299500D01*
X111699998Y-77299500D01*
X111699980Y-77299501D01*
X111597203Y-77310000D01*
X111597200Y-77310001D01*
X111430668Y-77365185D01*
X111430663Y-77365187D01*
X111281342Y-77457289D01*
X111187681Y-77550951D01*
X111126358Y-77584436D01*
X111056666Y-77579452D01*
X111012319Y-77550951D01*
X110918657Y-77457289D01*
X110918656Y-77457288D01*
X110825777Y-77400000D01*
X110769336Y-77365187D01*
X110769331Y-77365185D01*
X110728992Y-77351818D01*
X110602797Y-77310001D01*
X110602795Y-77310000D01*
X110500016Y-77299500D01*
X109748478Y-77299500D01*
X109681439Y-77279815D01*
X109660797Y-77263181D01*
X108850319Y-76452703D01*
X108816834Y-76391380D01*
X108814000Y-76365022D01*
X108814000Y-67688704D01*
X108833685Y-67621665D01*
X108865112Y-67588387D01*
X108966928Y-67514414D01*
X109089414Y-67391928D01*
X109102272Y-67374229D01*
X109157601Y-67331564D01*
X109227214Y-67325584D01*
X109289009Y-67358190D01*
X109302611Y-67375143D01*
X109302807Y-67374989D01*
X109307288Y-67380656D01*
X109431344Y-67504712D01*
X109580666Y-67596814D01*
X109747203Y-67651999D01*
X109849991Y-67662500D01*
X110650008Y-67662499D01*
X110650016Y-67662498D01*
X110650019Y-67662498D01*
X110706302Y-67656748D01*
X110752797Y-67651999D01*
X110919334Y-67596814D01*
X111068656Y-67504712D01*
X111192712Y-67380656D01*
X111284814Y-67231334D01*
X111316572Y-67135494D01*
X111356343Y-67078051D01*
X111420859Y-67051228D01*
X111434277Y-67050500D01*
X114751090Y-67050500D01*
X114818129Y-67070185D01*
G37*
G04 #@! TD.AperFunction*
G04 #@! TA.AperFunction,Conductor*
G36*
X105336421Y-67292938D02*
G01*
X105350315Y-67308973D01*
X105410586Y-67391928D01*
X105533072Y-67514414D01*
X105634886Y-67588387D01*
X105677551Y-67643716D01*
X105686000Y-67688704D01*
X105686000Y-69424252D01*
X105724435Y-69567696D01*
X105798687Y-69696304D01*
X105798689Y-69696306D01*
X105910761Y-69808378D01*
X105910767Y-69808383D01*
X106799681Y-70697297D01*
X106833166Y-70758620D01*
X106836000Y-70784978D01*
X106836000Y-77040740D01*
X106816315Y-77107779D01*
X106763511Y-77153534D01*
X106751007Y-77158445D01*
X106730667Y-77165185D01*
X106581342Y-77257289D01*
X106487681Y-77350951D01*
X106426358Y-77384436D01*
X106356666Y-77379452D01*
X106312319Y-77350951D01*
X106218657Y-77257289D01*
X106218656Y-77257288D01*
X106109402Y-77189900D01*
X106062679Y-77137953D01*
X106050500Y-77084362D01*
X106050500Y-75535928D01*
X106025502Y-75410261D01*
X106025501Y-75410260D01*
X106025501Y-75410256D01*
X105976465Y-75291873D01*
X105939086Y-75235931D01*
X105906825Y-75187648D01*
X105886708Y-75132642D01*
X105885368Y-75120745D01*
X105825789Y-74950478D01*
X105809194Y-74924068D01*
X105729815Y-74797737D01*
X105602262Y-74670184D01*
X105449523Y-74574211D01*
X105279254Y-74514631D01*
X105279249Y-74514630D01*
X105100004Y-74494435D01*
X105099996Y-74494435D01*
X104951883Y-74511122D01*
X104883061Y-74499067D01*
X104831682Y-74451718D01*
X104814000Y-74387902D01*
X104814000Y-67688704D01*
X104833685Y-67621665D01*
X104865112Y-67588387D01*
X104966928Y-67514414D01*
X105089414Y-67391928D01*
X105149682Y-67308975D01*
X105205012Y-67266311D01*
X105274626Y-67260332D01*
X105336421Y-67292938D01*
G37*
G04 #@! TD.AperFunction*
G04 #@! TA.AperFunction,Conductor*
G36*
X76017865Y-67760935D02*
G01*
X76062382Y-67812311D01*
X76122464Y-67941158D01*
X76122468Y-67941166D01*
X76249170Y-68122115D01*
X76249175Y-68122121D01*
X76405378Y-68278324D01*
X76405384Y-68278329D01*
X76586341Y-68405036D01*
X76591033Y-68407745D01*
X76590178Y-68409224D01*
X76636828Y-68450279D01*
X76656000Y-68516514D01*
X76656000Y-71178485D01*
X76636315Y-71245524D01*
X76590196Y-71285815D01*
X76591029Y-71287258D01*
X76586337Y-71289966D01*
X76405377Y-71416675D01*
X76249175Y-71572877D01*
X76122466Y-71753838D01*
X76122465Y-71753840D01*
X76062382Y-71882689D01*
X76016209Y-71935128D01*
X75949016Y-71954280D01*
X75882135Y-71934064D01*
X75837618Y-71882689D01*
X75777651Y-71754090D01*
X75777534Y-71753839D01*
X75650826Y-71572880D01*
X75494620Y-71416674D01*
X75494616Y-71416671D01*
X75494615Y-71416670D01*
X75313666Y-71289968D01*
X75308976Y-71287261D01*
X75309823Y-71285792D01*
X75263144Y-71244675D01*
X75244000Y-71178485D01*
X75244000Y-68516514D01*
X75263685Y-68449475D01*
X75309806Y-68409198D01*
X75308967Y-68407745D01*
X75313658Y-68405036D01*
X75313658Y-68405035D01*
X75313662Y-68405034D01*
X75494620Y-68278326D01*
X75650826Y-68122120D01*
X75777534Y-67941162D01*
X75837618Y-67812311D01*
X75883790Y-67759871D01*
X75950983Y-67740719D01*
X76017865Y-67760935D01*
G37*
G04 #@! TD.AperFunction*
G04 #@! TA.AperFunction,Conductor*
G36*
X78557865Y-67760935D02*
G01*
X78602382Y-67812311D01*
X78662464Y-67941158D01*
X78662468Y-67941166D01*
X78789170Y-68122115D01*
X78789175Y-68122121D01*
X78945378Y-68278324D01*
X78945384Y-68278329D01*
X79126341Y-68405036D01*
X79131033Y-68407745D01*
X79130178Y-68409224D01*
X79176828Y-68450279D01*
X79196000Y-68516514D01*
X79196000Y-71178485D01*
X79176315Y-71245524D01*
X79130196Y-71285815D01*
X79131029Y-71287258D01*
X79126337Y-71289966D01*
X78945377Y-71416675D01*
X78789175Y-71572877D01*
X78662466Y-71753838D01*
X78662465Y-71753840D01*
X78602382Y-71882689D01*
X78556209Y-71935128D01*
X78489016Y-71954280D01*
X78422135Y-71934064D01*
X78377618Y-71882689D01*
X78317651Y-71754090D01*
X78317534Y-71753839D01*
X78190826Y-71572880D01*
X78034620Y-71416674D01*
X78034616Y-71416671D01*
X78034615Y-71416670D01*
X77853666Y-71289968D01*
X77848976Y-71287261D01*
X77849823Y-71285792D01*
X77803144Y-71244675D01*
X77784000Y-71178485D01*
X77784000Y-68516514D01*
X77803685Y-68449475D01*
X77849806Y-68409198D01*
X77848967Y-68407745D01*
X77853658Y-68405036D01*
X77853658Y-68405035D01*
X77853662Y-68405034D01*
X78034620Y-68278326D01*
X78190826Y-68122120D01*
X78317534Y-67941162D01*
X78377618Y-67812311D01*
X78423790Y-67759871D01*
X78490983Y-67740719D01*
X78557865Y-67760935D01*
G37*
G04 #@! TD.AperFunction*
G04 #@! TA.AperFunction,Conductor*
G36*
X81097865Y-67760935D02*
G01*
X81142382Y-67812311D01*
X81202464Y-67941158D01*
X81202468Y-67941166D01*
X81329170Y-68122115D01*
X81329175Y-68122121D01*
X81485378Y-68278324D01*
X81485384Y-68278329D01*
X81666341Y-68405036D01*
X81671033Y-68407745D01*
X81670178Y-68409224D01*
X81716828Y-68450279D01*
X81736000Y-68516514D01*
X81736000Y-71178485D01*
X81716315Y-71245524D01*
X81670196Y-71285815D01*
X81671029Y-71287258D01*
X81666337Y-71289966D01*
X81485377Y-71416675D01*
X81329175Y-71572877D01*
X81202466Y-71753838D01*
X81202465Y-71753840D01*
X81142382Y-71882689D01*
X81096209Y-71935128D01*
X81029016Y-71954280D01*
X80962135Y-71934064D01*
X80917618Y-71882689D01*
X80857651Y-71754090D01*
X80857534Y-71753839D01*
X80730826Y-71572880D01*
X80574620Y-71416674D01*
X80574616Y-71416671D01*
X80574615Y-71416670D01*
X80393666Y-71289968D01*
X80388976Y-71287261D01*
X80389823Y-71285792D01*
X80343144Y-71244675D01*
X80324000Y-71178485D01*
X80324000Y-68516514D01*
X80343685Y-68449475D01*
X80389806Y-68409198D01*
X80388967Y-68407745D01*
X80393658Y-68405036D01*
X80393658Y-68405035D01*
X80393662Y-68405034D01*
X80574620Y-68278326D01*
X80730826Y-68122120D01*
X80857534Y-67941162D01*
X80917618Y-67812311D01*
X80963790Y-67759871D01*
X81030983Y-67740719D01*
X81097865Y-67760935D01*
G37*
G04 #@! TD.AperFunction*
G04 #@! TA.AperFunction,Conductor*
G36*
X83637865Y-67760935D02*
G01*
X83682382Y-67812311D01*
X83742464Y-67941158D01*
X83742468Y-67941166D01*
X83869170Y-68122115D01*
X83869175Y-68122121D01*
X84025378Y-68278324D01*
X84025384Y-68278329D01*
X84206341Y-68405036D01*
X84211033Y-68407745D01*
X84210178Y-68409224D01*
X84256828Y-68450279D01*
X84276000Y-68516514D01*
X84276000Y-71178485D01*
X84256315Y-71245524D01*
X84210196Y-71285815D01*
X84211029Y-71287258D01*
X84206337Y-71289966D01*
X84025377Y-71416675D01*
X83869175Y-71572877D01*
X83742466Y-71753838D01*
X83742465Y-71753840D01*
X83682382Y-71882689D01*
X83636209Y-71935128D01*
X83569016Y-71954280D01*
X83502135Y-71934064D01*
X83457618Y-71882689D01*
X83397651Y-71754090D01*
X83397534Y-71753839D01*
X83270826Y-71572880D01*
X83114620Y-71416674D01*
X83114616Y-71416671D01*
X83114615Y-71416670D01*
X82933666Y-71289968D01*
X82928976Y-71287261D01*
X82929823Y-71285792D01*
X82883144Y-71244675D01*
X82864000Y-71178485D01*
X82864000Y-68516514D01*
X82883685Y-68449475D01*
X82929806Y-68409198D01*
X82928967Y-68407745D01*
X82933658Y-68405036D01*
X82933658Y-68405035D01*
X82933662Y-68405034D01*
X83114620Y-68278326D01*
X83270826Y-68122120D01*
X83397534Y-67941162D01*
X83457618Y-67812311D01*
X83503790Y-67759871D01*
X83570983Y-67740719D01*
X83637865Y-67760935D01*
G37*
G04 #@! TD.AperFunction*
G04 #@! TA.AperFunction,Conductor*
G36*
X86177865Y-67760935D02*
G01*
X86222382Y-67812311D01*
X86282464Y-67941158D01*
X86282468Y-67941166D01*
X86409170Y-68122115D01*
X86409175Y-68122121D01*
X86565378Y-68278324D01*
X86565384Y-68278329D01*
X86746341Y-68405036D01*
X86751033Y-68407745D01*
X86750178Y-68409224D01*
X86796828Y-68450279D01*
X86816000Y-68516514D01*
X86816000Y-71178485D01*
X86796315Y-71245524D01*
X86750196Y-71285815D01*
X86751029Y-71287258D01*
X86746337Y-71289966D01*
X86565377Y-71416675D01*
X86409175Y-71572877D01*
X86282466Y-71753838D01*
X86282465Y-71753840D01*
X86222382Y-71882689D01*
X86176209Y-71935128D01*
X86109016Y-71954280D01*
X86042135Y-71934064D01*
X85997618Y-71882689D01*
X85937651Y-71754090D01*
X85937534Y-71753839D01*
X85810826Y-71572880D01*
X85654620Y-71416674D01*
X85654616Y-71416671D01*
X85654615Y-71416670D01*
X85473666Y-71289968D01*
X85468976Y-71287261D01*
X85469823Y-71285792D01*
X85423144Y-71244675D01*
X85404000Y-71178485D01*
X85404000Y-68516514D01*
X85423685Y-68449475D01*
X85469806Y-68409198D01*
X85468967Y-68407745D01*
X85473658Y-68405036D01*
X85473658Y-68405035D01*
X85473662Y-68405034D01*
X85654620Y-68278326D01*
X85810826Y-68122120D01*
X85937534Y-67941162D01*
X85997618Y-67812311D01*
X86043790Y-67759871D01*
X86110983Y-67740719D01*
X86177865Y-67760935D01*
G37*
G04 #@! TD.AperFunction*
G04 #@! TA.AperFunction,Conductor*
G36*
X88717865Y-67760935D02*
G01*
X88762382Y-67812311D01*
X88822464Y-67941158D01*
X88822468Y-67941166D01*
X88949170Y-68122115D01*
X88949175Y-68122121D01*
X89105378Y-68278324D01*
X89105384Y-68278329D01*
X89286341Y-68405036D01*
X89291033Y-68407745D01*
X89290178Y-68409224D01*
X89336828Y-68450279D01*
X89356000Y-68516514D01*
X89356000Y-71178485D01*
X89336315Y-71245524D01*
X89290196Y-71285815D01*
X89291029Y-71287258D01*
X89286337Y-71289966D01*
X89105377Y-71416675D01*
X88949175Y-71572877D01*
X88822466Y-71753838D01*
X88822465Y-71753840D01*
X88762382Y-71882689D01*
X88716209Y-71935128D01*
X88649016Y-71954280D01*
X88582135Y-71934064D01*
X88537618Y-71882689D01*
X88477651Y-71754090D01*
X88477534Y-71753839D01*
X88350826Y-71572880D01*
X88194620Y-71416674D01*
X88194616Y-71416671D01*
X88194615Y-71416670D01*
X88013666Y-71289968D01*
X88008976Y-71287261D01*
X88009823Y-71285792D01*
X87963144Y-71244675D01*
X87944000Y-71178485D01*
X87944000Y-68516514D01*
X87963685Y-68449475D01*
X88009806Y-68409198D01*
X88008967Y-68407745D01*
X88013658Y-68405036D01*
X88013658Y-68405035D01*
X88013662Y-68405034D01*
X88194620Y-68278326D01*
X88350826Y-68122120D01*
X88477534Y-67941162D01*
X88537618Y-67812311D01*
X88583790Y-67759871D01*
X88650983Y-67740719D01*
X88717865Y-67760935D01*
G37*
G04 #@! TD.AperFunction*
G04 #@! TA.AperFunction,Conductor*
G36*
X117477865Y-67660935D02*
G01*
X117522382Y-67712311D01*
X117582464Y-67841158D01*
X117582468Y-67841166D01*
X117709170Y-68022115D01*
X117709175Y-68022121D01*
X117865378Y-68178324D01*
X117865384Y-68178329D01*
X118046341Y-68305036D01*
X118051033Y-68307745D01*
X118050178Y-68309224D01*
X118096828Y-68350279D01*
X118116000Y-68416514D01*
X118116000Y-71078485D01*
X118096315Y-71145524D01*
X118050196Y-71185815D01*
X118051029Y-71187258D01*
X118046337Y-71189966D01*
X117865377Y-71316675D01*
X117709175Y-71472877D01*
X117582466Y-71653838D01*
X117582465Y-71653840D01*
X117522382Y-71782689D01*
X117476209Y-71835128D01*
X117409016Y-71854280D01*
X117342135Y-71834064D01*
X117297618Y-71782689D01*
X117237534Y-71653840D01*
X117237533Y-71653838D01*
X117235930Y-71651549D01*
X117174180Y-71563359D01*
X117110827Y-71472881D01*
X117044788Y-71406842D01*
X116954620Y-71316674D01*
X116843376Y-71238780D01*
X116799752Y-71184203D01*
X116790500Y-71137205D01*
X116790500Y-68357793D01*
X116810185Y-68290754D01*
X116843372Y-68256221D01*
X116954620Y-68178326D01*
X117110826Y-68022120D01*
X117237534Y-67841162D01*
X117297618Y-67712311D01*
X117343790Y-67659871D01*
X117410983Y-67640719D01*
X117477865Y-67660935D01*
G37*
G04 #@! TD.AperFunction*
G04 #@! TA.AperFunction,Conductor*
G36*
X120017865Y-67660935D02*
G01*
X120062382Y-67712311D01*
X120122464Y-67841158D01*
X120122468Y-67841166D01*
X120249170Y-68022115D01*
X120249175Y-68022121D01*
X120405378Y-68178324D01*
X120405384Y-68178329D01*
X120586341Y-68305036D01*
X120591033Y-68307745D01*
X120590178Y-68309224D01*
X120636828Y-68350279D01*
X120656000Y-68416514D01*
X120656000Y-71078485D01*
X120636315Y-71145524D01*
X120590196Y-71185815D01*
X120591029Y-71187258D01*
X120586337Y-71189966D01*
X120405377Y-71316675D01*
X120249175Y-71472877D01*
X120122466Y-71653838D01*
X120122465Y-71653840D01*
X120062382Y-71782689D01*
X120016209Y-71835128D01*
X119949016Y-71854280D01*
X119882135Y-71834064D01*
X119837618Y-71782689D01*
X119777534Y-71653840D01*
X119777533Y-71653838D01*
X119775930Y-71651549D01*
X119714180Y-71563359D01*
X119650827Y-71472881D01*
X119584788Y-71406842D01*
X119494620Y-71316674D01*
X119494616Y-71316671D01*
X119494615Y-71316670D01*
X119313666Y-71189968D01*
X119308976Y-71187261D01*
X119309823Y-71185792D01*
X119263144Y-71144675D01*
X119244000Y-71078485D01*
X119244000Y-68416514D01*
X119263685Y-68349475D01*
X119309806Y-68309198D01*
X119308967Y-68307745D01*
X119313658Y-68305036D01*
X119313658Y-68305035D01*
X119313662Y-68305034D01*
X119494620Y-68178326D01*
X119650826Y-68022120D01*
X119777534Y-67841162D01*
X119837618Y-67712311D01*
X119883790Y-67659871D01*
X119950983Y-67640719D01*
X120017865Y-67660935D01*
G37*
G04 #@! TD.AperFunction*
G04 #@! TA.AperFunction,Conductor*
G36*
X122557865Y-67660935D02*
G01*
X122602382Y-67712311D01*
X122662464Y-67841158D01*
X122662468Y-67841166D01*
X122789170Y-68022115D01*
X122789175Y-68022121D01*
X122945378Y-68178324D01*
X122945384Y-68178329D01*
X123126341Y-68305036D01*
X123131033Y-68307745D01*
X123130178Y-68309224D01*
X123176828Y-68350279D01*
X123196000Y-68416514D01*
X123196000Y-71078485D01*
X123176315Y-71145524D01*
X123130196Y-71185815D01*
X123131029Y-71187258D01*
X123126337Y-71189966D01*
X122945377Y-71316675D01*
X122789175Y-71472877D01*
X122662466Y-71653838D01*
X122662465Y-71653840D01*
X122602382Y-71782689D01*
X122556209Y-71835128D01*
X122489016Y-71854280D01*
X122422135Y-71834064D01*
X122377618Y-71782689D01*
X122317534Y-71653840D01*
X122317533Y-71653838D01*
X122315930Y-71651549D01*
X122254180Y-71563359D01*
X122190827Y-71472881D01*
X122124788Y-71406842D01*
X122034620Y-71316674D01*
X122034616Y-71316671D01*
X122034615Y-71316670D01*
X121853666Y-71189968D01*
X121848976Y-71187261D01*
X121849823Y-71185792D01*
X121803144Y-71144675D01*
X121784000Y-71078485D01*
X121784000Y-68416514D01*
X121803685Y-68349475D01*
X121849806Y-68309198D01*
X121848967Y-68307745D01*
X121853658Y-68305036D01*
X121853658Y-68305035D01*
X121853662Y-68305034D01*
X122034620Y-68178326D01*
X122190826Y-68022120D01*
X122317534Y-67841162D01*
X122377618Y-67712311D01*
X122423790Y-67659871D01*
X122490983Y-67640719D01*
X122557865Y-67660935D01*
G37*
G04 #@! TD.AperFunction*
G04 #@! TA.AperFunction,Conductor*
G36*
X125097865Y-67660935D02*
G01*
X125142382Y-67712311D01*
X125202464Y-67841158D01*
X125202468Y-67841166D01*
X125329170Y-68022115D01*
X125329175Y-68022121D01*
X125485378Y-68178324D01*
X125485384Y-68178329D01*
X125666341Y-68305036D01*
X125671033Y-68307745D01*
X125670178Y-68309224D01*
X125716828Y-68350279D01*
X125736000Y-68416514D01*
X125736000Y-71078485D01*
X125716315Y-71145524D01*
X125670196Y-71185815D01*
X125671029Y-71187258D01*
X125666337Y-71189966D01*
X125485377Y-71316675D01*
X125329175Y-71472877D01*
X125202466Y-71653838D01*
X125202465Y-71653840D01*
X125142382Y-71782689D01*
X125096209Y-71835128D01*
X125029016Y-71854280D01*
X124962135Y-71834064D01*
X124917618Y-71782689D01*
X124857534Y-71653840D01*
X124857533Y-71653838D01*
X124855930Y-71651549D01*
X124794180Y-71563359D01*
X124730827Y-71472881D01*
X124664788Y-71406842D01*
X124574620Y-71316674D01*
X124574616Y-71316671D01*
X124574615Y-71316670D01*
X124393666Y-71189968D01*
X124388976Y-71187261D01*
X124389823Y-71185792D01*
X124343144Y-71144675D01*
X124324000Y-71078485D01*
X124324000Y-68416514D01*
X124343685Y-68349475D01*
X124389806Y-68309198D01*
X124388967Y-68307745D01*
X124393658Y-68305036D01*
X124393658Y-68305035D01*
X124393662Y-68305034D01*
X124574620Y-68178326D01*
X124730826Y-68022120D01*
X124857534Y-67841162D01*
X124917618Y-67712311D01*
X124963790Y-67659871D01*
X125030983Y-67640719D01*
X125097865Y-67660935D01*
G37*
G04 #@! TD.AperFunction*
G04 #@! TA.AperFunction,Conductor*
G36*
X127637865Y-67660935D02*
G01*
X127682382Y-67712311D01*
X127742464Y-67841158D01*
X127742468Y-67841166D01*
X127869170Y-68022115D01*
X127869175Y-68022121D01*
X128025378Y-68178324D01*
X128025384Y-68178329D01*
X128206341Y-68305036D01*
X128211033Y-68307745D01*
X128210178Y-68309224D01*
X128256828Y-68350279D01*
X128276000Y-68416514D01*
X128276000Y-71078485D01*
X128256315Y-71145524D01*
X128210196Y-71185815D01*
X128211029Y-71187258D01*
X128206337Y-71189966D01*
X128025377Y-71316675D01*
X127869175Y-71472877D01*
X127742466Y-71653838D01*
X127742465Y-71653840D01*
X127682382Y-71782689D01*
X127636209Y-71835128D01*
X127569016Y-71854280D01*
X127502135Y-71834064D01*
X127457618Y-71782689D01*
X127397534Y-71653840D01*
X127397533Y-71653838D01*
X127395930Y-71651549D01*
X127334180Y-71563359D01*
X127270827Y-71472881D01*
X127204788Y-71406842D01*
X127114620Y-71316674D01*
X127114616Y-71316671D01*
X127114615Y-71316670D01*
X126933666Y-71189968D01*
X126928976Y-71187261D01*
X126929823Y-71185792D01*
X126883144Y-71144675D01*
X126864000Y-71078485D01*
X126864000Y-68416514D01*
X126883685Y-68349475D01*
X126929806Y-68309198D01*
X126928967Y-68307745D01*
X126933658Y-68305036D01*
X126933658Y-68305035D01*
X126933662Y-68305034D01*
X127114620Y-68178326D01*
X127270826Y-68022120D01*
X127397534Y-67841162D01*
X127457618Y-67712311D01*
X127503790Y-67659871D01*
X127570983Y-67640719D01*
X127637865Y-67660935D01*
G37*
G04 #@! TD.AperFunction*
G04 #@! TA.AperFunction,Conductor*
G36*
X130177865Y-67660935D02*
G01*
X130222382Y-67712311D01*
X130282464Y-67841158D01*
X130282468Y-67841166D01*
X130409170Y-68022115D01*
X130409175Y-68022121D01*
X130565378Y-68178324D01*
X130565384Y-68178329D01*
X130746341Y-68305036D01*
X130751033Y-68307745D01*
X130750178Y-68309224D01*
X130796828Y-68350279D01*
X130816000Y-68416514D01*
X130816000Y-71078485D01*
X130796315Y-71145524D01*
X130750196Y-71185815D01*
X130751029Y-71187258D01*
X130746337Y-71189966D01*
X130565377Y-71316675D01*
X130409175Y-71472877D01*
X130282466Y-71653838D01*
X130282465Y-71653840D01*
X130222382Y-71782689D01*
X130176209Y-71835128D01*
X130109016Y-71854280D01*
X130042135Y-71834064D01*
X129997618Y-71782689D01*
X129937534Y-71653840D01*
X129937533Y-71653838D01*
X129935930Y-71651549D01*
X129874180Y-71563359D01*
X129810827Y-71472881D01*
X129744788Y-71406842D01*
X129654620Y-71316674D01*
X129654616Y-71316671D01*
X129654615Y-71316670D01*
X129473666Y-71189968D01*
X129468976Y-71187261D01*
X129469823Y-71185792D01*
X129423144Y-71144675D01*
X129404000Y-71078485D01*
X129404000Y-68416514D01*
X129423685Y-68349475D01*
X129469806Y-68309198D01*
X129468967Y-68307745D01*
X129473658Y-68305036D01*
X129473658Y-68305035D01*
X129473662Y-68305034D01*
X129654620Y-68178326D01*
X129810826Y-68022120D01*
X129937534Y-67841162D01*
X129997618Y-67712311D01*
X130043790Y-67659871D01*
X130110983Y-67640719D01*
X130177865Y-67660935D01*
G37*
G04 #@! TD.AperFunction*
G04 #@! TA.AperFunction,Conductor*
G36*
X132717865Y-67660935D02*
G01*
X132762382Y-67712311D01*
X132822464Y-67841158D01*
X132822468Y-67841166D01*
X132949170Y-68022115D01*
X132949175Y-68022121D01*
X133105378Y-68178324D01*
X133105384Y-68178329D01*
X133286341Y-68305036D01*
X133291033Y-68307745D01*
X133290178Y-68309224D01*
X133336828Y-68350279D01*
X133356000Y-68416514D01*
X133356000Y-71078485D01*
X133336315Y-71145524D01*
X133290196Y-71185815D01*
X133291029Y-71187258D01*
X133286337Y-71189966D01*
X133105377Y-71316675D01*
X132949175Y-71472877D01*
X132822466Y-71653838D01*
X132822465Y-71653840D01*
X132762382Y-71782689D01*
X132716209Y-71835128D01*
X132649016Y-71854280D01*
X132582135Y-71834064D01*
X132537618Y-71782689D01*
X132477534Y-71653840D01*
X132477533Y-71653838D01*
X132475930Y-71651549D01*
X132414180Y-71563359D01*
X132350827Y-71472881D01*
X132284788Y-71406842D01*
X132194620Y-71316674D01*
X132194616Y-71316671D01*
X132194615Y-71316670D01*
X132013666Y-71189968D01*
X132008976Y-71187261D01*
X132009823Y-71185792D01*
X131963144Y-71144675D01*
X131944000Y-71078485D01*
X131944000Y-68416514D01*
X131963685Y-68349475D01*
X132009806Y-68309198D01*
X132008967Y-68307745D01*
X132013658Y-68305036D01*
X132013658Y-68305035D01*
X132013662Y-68305034D01*
X132194620Y-68178326D01*
X132350826Y-68022120D01*
X132477534Y-67841162D01*
X132537618Y-67712311D01*
X132583790Y-67659871D01*
X132650983Y-67640719D01*
X132717865Y-67660935D01*
G37*
G04 #@! TD.AperFunction*
G04 #@! TA.AperFunction,Conductor*
G36*
X91184627Y-67949482D02*
G01*
X91217478Y-68000897D01*
X91263185Y-68138831D01*
X91263187Y-68138836D01*
X91293608Y-68188156D01*
X91355288Y-68288156D01*
X91479344Y-68412212D01*
X91628666Y-68504314D01*
X91795203Y-68559499D01*
X91795209Y-68559499D01*
X91797948Y-68560086D01*
X91799483Y-68560917D01*
X91801630Y-68561629D01*
X91801503Y-68562011D01*
X91859384Y-68593364D01*
X91893076Y-68654573D01*
X91896000Y-68681341D01*
X91896000Y-71013658D01*
X91876315Y-71080697D01*
X91823511Y-71126452D01*
X91797960Y-71134910D01*
X91795206Y-71135499D01*
X91628668Y-71190685D01*
X91628663Y-71190687D01*
X91479342Y-71282789D01*
X91355289Y-71406842D01*
X91263187Y-71556163D01*
X91263185Y-71556168D01*
X91241139Y-71622700D01*
X91219067Y-71689310D01*
X91217478Y-71694104D01*
X91177705Y-71751549D01*
X91113189Y-71778372D01*
X91044414Y-71766057D01*
X90998197Y-71726223D01*
X90997689Y-71725498D01*
X90890826Y-71572880D01*
X90734620Y-71416674D01*
X90734616Y-71416671D01*
X90734615Y-71416670D01*
X90553666Y-71289968D01*
X90548976Y-71287261D01*
X90549823Y-71285792D01*
X90503144Y-71244675D01*
X90484000Y-71178485D01*
X90484000Y-68516514D01*
X90503685Y-68449475D01*
X90549806Y-68409198D01*
X90548967Y-68407745D01*
X90553658Y-68405036D01*
X90553658Y-68405035D01*
X90553662Y-68405034D01*
X90734620Y-68278326D01*
X90890826Y-68122120D01*
X90998197Y-67968777D01*
X91052774Y-67925153D01*
X91122272Y-67917959D01*
X91184627Y-67949482D01*
G37*
G04 #@! TD.AperFunction*
G04 #@! TA.AperFunction,Conductor*
G36*
X135184627Y-67849482D02*
G01*
X135217478Y-67900897D01*
X135257648Y-68022121D01*
X135263186Y-68038834D01*
X135355288Y-68188156D01*
X135479344Y-68312212D01*
X135628666Y-68404314D01*
X135795203Y-68459499D01*
X135795209Y-68459499D01*
X135797948Y-68460086D01*
X135799483Y-68460917D01*
X135801630Y-68461629D01*
X135801503Y-68462011D01*
X135859384Y-68493364D01*
X135893076Y-68554573D01*
X135896000Y-68581341D01*
X135896000Y-70913658D01*
X135876315Y-70980697D01*
X135823511Y-71026452D01*
X135797960Y-71034910D01*
X135795206Y-71035499D01*
X135628668Y-71090685D01*
X135628663Y-71090687D01*
X135479342Y-71182789D01*
X135355289Y-71306842D01*
X135263187Y-71456163D01*
X135263185Y-71456168D01*
X135257647Y-71472881D01*
X135224511Y-71572881D01*
X135217478Y-71594104D01*
X135177705Y-71651549D01*
X135113189Y-71678372D01*
X135044414Y-71666057D01*
X134998197Y-71626223D01*
X134890827Y-71472881D01*
X134824788Y-71406842D01*
X134734620Y-71316674D01*
X134734616Y-71316671D01*
X134734615Y-71316670D01*
X134553666Y-71189968D01*
X134548976Y-71187261D01*
X134549823Y-71185792D01*
X134503144Y-71144675D01*
X134484000Y-71078485D01*
X134484000Y-68416514D01*
X134503685Y-68349475D01*
X134549806Y-68309198D01*
X134548967Y-68307745D01*
X134553658Y-68305036D01*
X134553658Y-68305035D01*
X134553662Y-68305034D01*
X134734620Y-68178326D01*
X134890826Y-68022120D01*
X134998197Y-67868777D01*
X135052774Y-67825153D01*
X135122272Y-67817959D01*
X135184627Y-67849482D01*
G37*
G04 #@! TD.AperFunction*
G04 #@! TA.AperFunction,Conductor*
G36*
X144503736Y-58000726D02*
G01*
X144793796Y-58018271D01*
X144808659Y-58020076D01*
X145090798Y-58071780D01*
X145105335Y-58075363D01*
X145379172Y-58160695D01*
X145393163Y-58166000D01*
X145654743Y-58283727D01*
X145667989Y-58290680D01*
X145913465Y-58439075D01*
X145925776Y-58447573D01*
X146151573Y-58624473D01*
X146162781Y-58634403D01*
X146365596Y-58837218D01*
X146375526Y-58848426D01*
X146495481Y-59001538D01*
X146552422Y-59074217D01*
X146560928Y-59086540D01*
X146709316Y-59332004D01*
X146716275Y-59345263D01*
X146833997Y-59606831D01*
X146839306Y-59620832D01*
X146924635Y-59894663D01*
X146928219Y-59909201D01*
X146979923Y-60191340D01*
X146981728Y-60206205D01*
X146999274Y-60496263D01*
X146999500Y-60503750D01*
X146999500Y-103105180D01*
X146999499Y-103105198D01*
X146999499Y-103174934D01*
X146999273Y-103182420D01*
X146981730Y-103472480D01*
X146979925Y-103487345D01*
X146928224Y-103769477D01*
X146924641Y-103784016D01*
X146839309Y-104057861D01*
X146833999Y-104071862D01*
X146716280Y-104333426D01*
X146709321Y-104346685D01*
X146560933Y-104592150D01*
X146552427Y-104604473D01*
X146375535Y-104830262D01*
X146365606Y-104841470D01*
X146162783Y-105044295D01*
X146151574Y-105054225D01*
X145925787Y-105231119D01*
X145913464Y-105239625D01*
X145667996Y-105388016D01*
X145654738Y-105394974D01*
X145393177Y-105512694D01*
X145379184Y-105518001D01*
X145105399Y-105603316D01*
X145105338Y-105603335D01*
X145090800Y-105606918D01*
X144808661Y-105658623D01*
X144793796Y-105660428D01*
X144504067Y-105677954D01*
X144496580Y-105678180D01*
X64503751Y-105678180D01*
X64496264Y-105677954D01*
X64206206Y-105660408D01*
X64191341Y-105658603D01*
X63909207Y-105606900D01*
X63894668Y-105603316D01*
X63620826Y-105517983D01*
X63606837Y-105512678D01*
X63345256Y-105394949D01*
X63332020Y-105388002D01*
X63086544Y-105239606D01*
X63074223Y-105231102D01*
X62848438Y-105054210D01*
X62837229Y-105044280D01*
X62634408Y-104841457D01*
X62624479Y-104830249D01*
X62447585Y-104604459D01*
X62439079Y-104592135D01*
X62290698Y-104346679D01*
X62283739Y-104333421D01*
X62166020Y-104071857D01*
X62160710Y-104057856D01*
X62087588Y-103823194D01*
X62075376Y-103784005D01*
X62071794Y-103769469D01*
X62057767Y-103692926D01*
X62020093Y-103487339D01*
X62018289Y-103472478D01*
X62010920Y-103350645D01*
X62000726Y-103182087D01*
X62000500Y-103174599D01*
X62000501Y-103112791D01*
X62000500Y-103112787D01*
X62000500Y-102560582D01*
X63499500Y-102560582D01*
X63499500Y-102796777D01*
X63536446Y-103030048D01*
X63609433Y-103254676D01*
X63658333Y-103350646D01*
X63716657Y-103465113D01*
X63855483Y-103656190D01*
X64022490Y-103823197D01*
X64213567Y-103962023D01*
X64312991Y-104012682D01*
X64424003Y-104069246D01*
X64424005Y-104069246D01*
X64424008Y-104069248D01*
X64544412Y-104108369D01*
X64648631Y-104142233D01*
X64881903Y-104179180D01*
X64881908Y-104179180D01*
X65118097Y-104179180D01*
X65351368Y-104142233D01*
X65575992Y-104069248D01*
X65786433Y-103962023D01*
X65977510Y-103823197D01*
X66144517Y-103656190D01*
X66283343Y-103465113D01*
X66390568Y-103254672D01*
X66463553Y-103030048D01*
X66500500Y-102796777D01*
X66500500Y-102560582D01*
X66463553Y-102327311D01*
X66405614Y-102148996D01*
X66390568Y-102102688D01*
X66390566Y-102102685D01*
X66390566Y-102102683D01*
X66313439Y-101951314D01*
X66283343Y-101892247D01*
X66144517Y-101701170D01*
X65977510Y-101534163D01*
X65786433Y-101395337D01*
X65575996Y-101288113D01*
X65351368Y-101215126D01*
X65118097Y-101178180D01*
X65118092Y-101178180D01*
X64881908Y-101178180D01*
X64881903Y-101178180D01*
X64648631Y-101215126D01*
X64424003Y-101288113D01*
X64213566Y-101395337D01*
X64104550Y-101474542D01*
X64022490Y-101534163D01*
X64022488Y-101534165D01*
X64022487Y-101534165D01*
X63855485Y-101701167D01*
X63855485Y-101701168D01*
X63855483Y-101701170D01*
X63820006Y-101750000D01*
X63716657Y-101892246D01*
X63609433Y-102102683D01*
X63536446Y-102327311D01*
X63499500Y-102560582D01*
X62000500Y-102560582D01*
X62000500Y-73099996D01*
X62694435Y-73099996D01*
X62694435Y-73100003D01*
X62714630Y-73279249D01*
X62714631Y-73279254D01*
X62774211Y-73449524D01*
X62830493Y-73539094D01*
X62849500Y-73605067D01*
X62849500Y-89335931D01*
X62849500Y-92664069D01*
X62866445Y-92749253D01*
X62872322Y-92778799D01*
X62874499Y-92789744D01*
X62923534Y-92908125D01*
X62994726Y-93014673D01*
X64985326Y-95005273D01*
X64985329Y-95005275D01*
X64985331Y-95005277D01*
X65073218Y-95064000D01*
X65073217Y-95064000D01*
X65085682Y-95072328D01*
X65091873Y-95076465D01*
X65210256Y-95125501D01*
X65210260Y-95125501D01*
X65210261Y-95125502D01*
X65335928Y-95150500D01*
X65335931Y-95150500D01*
X65464069Y-95150500D01*
X72179192Y-95150500D01*
X72246231Y-95170185D01*
X72266873Y-95186819D01*
X74021662Y-96941608D01*
X74055147Y-97002931D01*
X74050163Y-97072623D01*
X74021662Y-97116970D01*
X73957289Y-97181342D01*
X73865187Y-97330663D01*
X73865186Y-97330666D01*
X73810001Y-97497203D01*
X73810001Y-97497204D01*
X73810000Y-97497204D01*
X73799500Y-97599983D01*
X73799500Y-98600001D01*
X73799501Y-98600019D01*
X73810000Y-98702796D01*
X73810001Y-98702799D01*
X73865185Y-98869331D01*
X73865186Y-98869334D01*
X73957288Y-99018656D01*
X74081344Y-99142712D01*
X74230666Y-99234814D01*
X74397203Y-99289999D01*
X74499991Y-99300500D01*
X75300008Y-99300499D01*
X75300016Y-99300498D01*
X75300019Y-99300498D01*
X75356302Y-99294748D01*
X75402797Y-99289999D01*
X75569334Y-99234814D01*
X75718656Y-99142712D01*
X75812319Y-99049049D01*
X75873642Y-99015564D01*
X75943334Y-99020548D01*
X75987681Y-99049049D01*
X76081344Y-99142712D01*
X76230666Y-99234814D01*
X76397203Y-99289999D01*
X76499991Y-99300500D01*
X77251521Y-99300499D01*
X77318560Y-99320183D01*
X77339202Y-99336818D01*
X79844346Y-101841962D01*
X79844356Y-101841973D01*
X79848686Y-101846303D01*
X79848687Y-101846304D01*
X79953696Y-101951313D01*
X80037978Y-101999973D01*
X80038040Y-102000009D01*
X80038041Y-102000010D01*
X80082298Y-102025562D01*
X80082299Y-102025562D01*
X80082304Y-102025565D01*
X80225747Y-102064000D01*
X80225748Y-102064000D01*
X85032604Y-102064000D01*
X85099643Y-102083685D01*
X85145398Y-102136489D01*
X85150309Y-102148993D01*
X85190186Y-102269334D01*
X85282288Y-102418656D01*
X85406344Y-102542712D01*
X85555666Y-102634814D01*
X85722203Y-102689999D01*
X85824991Y-102700500D01*
X86575008Y-102700499D01*
X86575016Y-102700498D01*
X86575019Y-102700498D01*
X86631302Y-102694748D01*
X86677797Y-102689999D01*
X86844334Y-102634814D01*
X86993656Y-102542712D01*
X87117712Y-102418656D01*
X87119752Y-102415347D01*
X87121745Y-102413555D01*
X87122193Y-102412989D01*
X87122289Y-102413065D01*
X87171694Y-102368623D01*
X87240656Y-102357395D01*
X87304740Y-102385234D01*
X87330829Y-102415339D01*
X87332681Y-102418341D01*
X87332683Y-102418344D01*
X87456654Y-102542315D01*
X87605875Y-102634356D01*
X87605880Y-102634358D01*
X87772302Y-102689505D01*
X87772309Y-102689506D01*
X87875019Y-102699999D01*
X87999999Y-102699999D01*
X88500000Y-102699999D01*
X88624972Y-102699999D01*
X88624986Y-102699998D01*
X88727697Y-102689505D01*
X88894119Y-102634358D01*
X88894124Y-102634356D01*
X89013730Y-102560582D01*
X142499500Y-102560582D01*
X142499500Y-102796777D01*
X142536446Y-103030048D01*
X142609433Y-103254676D01*
X142658333Y-103350646D01*
X142716657Y-103465113D01*
X142855483Y-103656190D01*
X143022490Y-103823197D01*
X143213567Y-103962023D01*
X143312991Y-104012682D01*
X143424003Y-104069246D01*
X143424005Y-104069246D01*
X143424008Y-104069248D01*
X143544412Y-104108369D01*
X143648631Y-104142233D01*
X143881903Y-104179180D01*
X143881908Y-104179180D01*
X144118097Y-104179180D01*
X144351368Y-104142233D01*
X144575992Y-104069248D01*
X144786433Y-103962023D01*
X144977510Y-103823197D01*
X145144517Y-103656190D01*
X145283343Y-103465113D01*
X145390568Y-103254672D01*
X145463553Y-103030048D01*
X145500500Y-102796777D01*
X145500500Y-102560582D01*
X145463553Y-102327311D01*
X145405614Y-102148996D01*
X145390568Y-102102688D01*
X145390566Y-102102685D01*
X145390566Y-102102683D01*
X145313439Y-101951314D01*
X145283343Y-101892247D01*
X145144517Y-101701170D01*
X144977510Y-101534163D01*
X144786433Y-101395337D01*
X144575996Y-101288113D01*
X144351368Y-101215126D01*
X144118097Y-101178180D01*
X144118092Y-101178180D01*
X143881908Y-101178180D01*
X143881903Y-101178180D01*
X143648631Y-101215126D01*
X143424003Y-101288113D01*
X143213566Y-101395337D01*
X143104550Y-101474542D01*
X143022490Y-101534163D01*
X143022488Y-101534165D01*
X143022487Y-101534165D01*
X142855485Y-101701167D01*
X142855485Y-101701168D01*
X142855483Y-101701170D01*
X142820006Y-101750000D01*
X142716657Y-101892246D01*
X142609433Y-102102683D01*
X142536446Y-102327311D01*
X142499500Y-102560582D01*
X89013730Y-102560582D01*
X89043345Y-102542315D01*
X89167315Y-102418345D01*
X89259356Y-102269124D01*
X89259358Y-102269119D01*
X89314505Y-102102697D01*
X89314506Y-102102690D01*
X89324999Y-101999986D01*
X89325000Y-101999973D01*
X89325000Y-101750000D01*
X88500000Y-101750000D01*
X88500000Y-102699999D01*
X87999999Y-102699999D01*
X88000000Y-102699998D01*
X88000000Y-101250000D01*
X88500000Y-101250000D01*
X89324999Y-101250000D01*
X89324999Y-101000028D01*
X89324998Y-101000013D01*
X89314505Y-100897302D01*
X89259358Y-100730880D01*
X89259356Y-100730875D01*
X89167315Y-100581654D01*
X89043345Y-100457684D01*
X88894124Y-100365643D01*
X88894119Y-100365641D01*
X88727697Y-100310494D01*
X88727690Y-100310493D01*
X88624986Y-100300000D01*
X88500000Y-100300000D01*
X88500000Y-101250000D01*
X88000000Y-101250000D01*
X88000000Y-100300000D01*
X87875027Y-100300000D01*
X87875012Y-100300001D01*
X87772302Y-100310494D01*
X87605880Y-100365641D01*
X87605875Y-100365643D01*
X87456654Y-100457684D01*
X87332683Y-100581655D01*
X87332679Y-100581660D01*
X87330826Y-100584665D01*
X87329018Y-100586290D01*
X87328202Y-100587323D01*
X87328025Y-100587183D01*
X87278874Y-100631385D01*
X87209911Y-100642601D01*
X87145831Y-100614752D01*
X87119753Y-100584653D01*
X87119737Y-100584628D01*
X87117712Y-100581344D01*
X86993656Y-100457288D01*
X86844334Y-100365186D01*
X86677797Y-100310001D01*
X86677795Y-100310000D01*
X86575010Y-100299500D01*
X85824998Y-100299500D01*
X85824980Y-100299501D01*
X85722203Y-100310000D01*
X85722200Y-100310001D01*
X85555668Y-100365185D01*
X85555663Y-100365187D01*
X85406342Y-100457289D01*
X85282289Y-100581342D01*
X85190187Y-100730663D01*
X85190185Y-100730668D01*
X85150310Y-100851004D01*
X85110537Y-100908449D01*
X85046021Y-100935272D01*
X85032604Y-100936000D01*
X80584978Y-100936000D01*
X80517939Y-100916315D01*
X80497297Y-100899681D01*
X78036818Y-98439202D01*
X78003333Y-98377879D01*
X78000499Y-98351521D01*
X78000499Y-97599998D01*
X78000498Y-97599981D01*
X77989999Y-97497203D01*
X77989998Y-97497200D01*
X77934814Y-97330666D01*
X77842712Y-97181344D01*
X77718656Y-97057288D01*
X77569334Y-96965186D01*
X77402797Y-96910001D01*
X77402795Y-96910000D01*
X77300010Y-96899500D01*
X76499998Y-96899500D01*
X76499980Y-96899501D01*
X76397203Y-96910000D01*
X76397200Y-96910001D01*
X76230668Y-96965185D01*
X76230663Y-96965187D01*
X76081342Y-97057289D01*
X75987681Y-97150951D01*
X75926358Y-97184436D01*
X75856666Y-97179452D01*
X75812319Y-97150951D01*
X75718657Y-97057289D01*
X75718656Y-97057288D01*
X75609402Y-96989900D01*
X75562679Y-96937953D01*
X75550500Y-96884362D01*
X75550500Y-96835928D01*
X75525502Y-96710261D01*
X75525501Y-96710260D01*
X75525501Y-96710256D01*
X75476465Y-96591873D01*
X75405277Y-96485331D01*
X75405275Y-96485329D01*
X75405273Y-96485326D01*
X75405272Y-96485325D01*
X74282127Y-95362181D01*
X74248642Y-95300858D01*
X74253626Y-95231166D01*
X74295498Y-95175233D01*
X74360962Y-95150816D01*
X74369808Y-95150500D01*
X78836267Y-95150500D01*
X78903306Y-95170185D01*
X78949061Y-95222989D01*
X78953972Y-95235494D01*
X78965186Y-95269334D01*
X79057288Y-95418656D01*
X79181344Y-95542712D01*
X79330666Y-95634814D01*
X79497203Y-95689999D01*
X79599991Y-95700500D01*
X80400008Y-95700499D01*
X80400016Y-95700498D01*
X80400019Y-95700498D01*
X80456302Y-95694748D01*
X80502797Y-95689999D01*
X80669334Y-95634814D01*
X80818656Y-95542712D01*
X80912319Y-95449049D01*
X80973642Y-95415564D01*
X81043334Y-95420548D01*
X81087681Y-95449049D01*
X81181344Y-95542712D01*
X81330666Y-95634814D01*
X81497203Y-95689999D01*
X81599991Y-95700500D01*
X82400008Y-95700499D01*
X82400016Y-95700498D01*
X82400019Y-95700498D01*
X82456302Y-95694748D01*
X82502797Y-95689999D01*
X82669334Y-95634814D01*
X82818656Y-95542712D01*
X82942712Y-95418656D01*
X83034814Y-95269334D01*
X83089999Y-95102797D01*
X83100500Y-95000009D01*
X83100499Y-93999992D01*
X83089999Y-93897203D01*
X83034814Y-93730666D01*
X82942712Y-93581344D01*
X82867172Y-93505804D01*
X82833687Y-93444481D01*
X82838671Y-93374789D01*
X82867170Y-93330444D01*
X84260361Y-91937253D01*
X84321682Y-91903770D01*
X84334148Y-91901717D01*
X84409077Y-91893275D01*
X84479250Y-91885369D01*
X84479253Y-91885368D01*
X84479255Y-91885368D01*
X84649522Y-91825789D01*
X84802262Y-91729816D01*
X84929816Y-91602262D01*
X85025789Y-91449522D01*
X85085368Y-91279255D01*
X85085935Y-91274223D01*
X85105565Y-91100003D01*
X85105565Y-91099996D01*
X85085369Y-90920750D01*
X85085368Y-90920745D01*
X85025789Y-90750478D01*
X84929816Y-90597738D01*
X84802262Y-90470184D01*
X84758541Y-90442712D01*
X84649523Y-90374211D01*
X84479254Y-90314631D01*
X84479249Y-90314630D01*
X84300004Y-90294435D01*
X84299996Y-90294435D01*
X84120750Y-90314630D01*
X84120745Y-90314631D01*
X83950476Y-90374211D01*
X83797737Y-90470184D01*
X83670184Y-90597737D01*
X83574211Y-90750476D01*
X83514631Y-90920745D01*
X83514630Y-90920749D01*
X83498282Y-91065842D01*
X83471215Y-91130256D01*
X83462743Y-91139639D01*
X81653698Y-92948685D01*
X81548689Y-93053693D01*
X81548685Y-93053699D01*
X81474436Y-93182301D01*
X81474435Y-93182302D01*
X81451971Y-93266141D01*
X81415605Y-93325801D01*
X81371203Y-93351752D01*
X81330667Y-93365185D01*
X81181342Y-93457289D01*
X81087681Y-93550951D01*
X81026358Y-93584436D01*
X80956666Y-93579452D01*
X80912319Y-93550951D01*
X80818657Y-93457289D01*
X80818656Y-93457288D01*
X80709402Y-93389900D01*
X80662679Y-93337953D01*
X80650500Y-93284362D01*
X80650500Y-91115638D01*
X80670185Y-91048599D01*
X80709401Y-91010100D01*
X80818656Y-90942712D01*
X80912319Y-90849049D01*
X80973642Y-90815564D01*
X81043334Y-90820548D01*
X81087681Y-90849049D01*
X81181344Y-90942712D01*
X81330666Y-91034814D01*
X81497203Y-91089999D01*
X81599991Y-91100500D01*
X82400008Y-91100499D01*
X82400016Y-91100498D01*
X82400019Y-91100498D01*
X82456302Y-91094748D01*
X82502797Y-91089999D01*
X82669334Y-91034814D01*
X82818656Y-90942712D01*
X82942712Y-90818656D01*
X83034814Y-90669334D01*
X83089999Y-90502797D01*
X83100500Y-90400009D01*
X83100499Y-89648476D01*
X83120183Y-89581438D01*
X83136813Y-89560801D01*
X83660361Y-89037253D01*
X83721682Y-89003770D01*
X83734148Y-89001717D01*
X83809077Y-88993275D01*
X83879250Y-88985369D01*
X83879253Y-88985368D01*
X83879255Y-88985368D01*
X84049522Y-88925789D01*
X84202262Y-88829816D01*
X84329816Y-88702262D01*
X84425789Y-88549522D01*
X84485368Y-88379255D01*
X84495436Y-88289901D01*
X84506345Y-88193081D01*
X84508279Y-88193298D01*
X84525250Y-88135504D01*
X84578054Y-88089749D01*
X84647212Y-88079805D01*
X84710768Y-88108830D01*
X84717244Y-88114861D01*
X89078696Y-92476313D01*
X89078697Y-92476314D01*
X89078699Y-92476315D01*
X89207300Y-92550563D01*
X89207301Y-92550563D01*
X89207304Y-92550565D01*
X89350748Y-92589001D01*
X89350751Y-92589001D01*
X89506849Y-92589001D01*
X89506865Y-92589000D01*
X102576175Y-92589000D01*
X102643214Y-92608685D01*
X102651662Y-92614625D01*
X102701184Y-92652625D01*
X102742386Y-92709053D01*
X102746541Y-92778799D01*
X102712328Y-92839719D01*
X102650611Y-92872471D01*
X102625697Y-92875000D01*
X102407990Y-92875000D01*
X102407988Y-92875001D01*
X102415442Y-92931627D01*
X102415444Y-92931633D01*
X102475899Y-93077585D01*
X102572075Y-93202924D01*
X102697413Y-93299100D01*
X102843365Y-93359554D01*
X102843369Y-93359555D01*
X102960676Y-93374999D01*
X103437499Y-93374999D01*
X103437500Y-93374998D01*
X103437500Y-92849499D01*
X103457185Y-92782460D01*
X103509989Y-92736705D01*
X103561497Y-92725499D01*
X103713501Y-92725499D01*
X103780539Y-92745184D01*
X103826294Y-92797988D01*
X103837500Y-92849499D01*
X103837500Y-93374999D01*
X104314324Y-93374999D01*
X104431628Y-93359557D01*
X104431633Y-93359555D01*
X104577585Y-93299100D01*
X104702924Y-93202924D01*
X104799100Y-93077586D01*
X104859555Y-92931631D01*
X104867012Y-92875000D01*
X104649303Y-92875000D01*
X104582264Y-92855315D01*
X104536509Y-92802511D01*
X104526565Y-92733353D01*
X104555590Y-92669797D01*
X104573816Y-92652624D01*
X104577839Y-92649536D01*
X104577841Y-92649536D01*
X104703282Y-92553282D01*
X104716821Y-92535638D01*
X104726125Y-92523513D01*
X104782553Y-92482310D01*
X104824500Y-92475000D01*
X104867010Y-92475000D01*
X104867011Y-92474998D01*
X104859558Y-92418377D01*
X104859554Y-92418365D01*
X104851163Y-92398106D01*
X104843694Y-92328637D01*
X104851164Y-92303199D01*
X104851433Y-92302550D01*
X104860044Y-92281762D01*
X104875500Y-92164361D01*
X104875499Y-91885640D01*
X104875463Y-91885369D01*
X104867620Y-91825788D01*
X104860044Y-91768238D01*
X104860042Y-91768234D01*
X104851435Y-91747455D01*
X104843965Y-91677986D01*
X104851435Y-91652545D01*
X104860044Y-91631762D01*
X104875500Y-91514361D01*
X104875499Y-91235640D01*
X104860044Y-91118238D01*
X104860042Y-91118234D01*
X104852696Y-91100498D01*
X104851434Y-91097454D01*
X104843965Y-91027986D01*
X104851435Y-91002545D01*
X104860044Y-90981762D01*
X104875500Y-90864361D01*
X104875499Y-90585640D01*
X104860044Y-90468238D01*
X104860042Y-90468234D01*
X104851435Y-90447455D01*
X104843965Y-90377986D01*
X104851435Y-90352545D01*
X104852883Y-90349049D01*
X104860044Y-90331762D01*
X104875500Y-90214361D01*
X104875499Y-89935640D01*
X104860044Y-89818238D01*
X104860042Y-89818234D01*
X104851435Y-89797455D01*
X104843965Y-89727986D01*
X104851435Y-89702545D01*
X104860044Y-89681762D01*
X104875500Y-89564361D01*
X104875499Y-89285640D01*
X104860044Y-89168238D01*
X104860042Y-89168234D01*
X104851435Y-89147455D01*
X104843965Y-89077986D01*
X104851435Y-89052545D01*
X104860044Y-89031762D01*
X104875500Y-88914361D01*
X104875499Y-88635640D01*
X104874844Y-88630668D01*
X104864162Y-88549522D01*
X104860044Y-88518238D01*
X104860042Y-88518234D01*
X104851435Y-88497455D01*
X104843965Y-88427986D01*
X104851435Y-88402545D01*
X104860044Y-88381762D01*
X104875500Y-88264361D01*
X104875499Y-87985640D01*
X104860044Y-87868238D01*
X104860042Y-87868234D01*
X104852687Y-87850478D01*
X104851434Y-87847454D01*
X104843965Y-87777986D01*
X104851435Y-87752545D01*
X104860044Y-87731762D01*
X104875500Y-87614361D01*
X104875499Y-87335640D01*
X104860044Y-87218238D01*
X104851434Y-87197454D01*
X104843965Y-87127986D01*
X104851435Y-87102545D01*
X104854020Y-87096304D01*
X104860044Y-87081762D01*
X104875500Y-86964361D01*
X104875499Y-86685640D01*
X104860044Y-86568238D01*
X104851434Y-86547454D01*
X104843965Y-86477986D01*
X104851435Y-86452545D01*
X104851860Y-86451520D01*
X104860044Y-86431762D01*
X104875500Y-86314361D01*
X104875499Y-86035640D01*
X104860044Y-85918238D01*
X104851434Y-85897454D01*
X104843965Y-85827986D01*
X104851435Y-85802545D01*
X104852696Y-85799500D01*
X104860044Y-85781762D01*
X104875500Y-85664361D01*
X104875499Y-85385640D01*
X104875499Y-85385639D01*
X104875499Y-85385636D01*
X104860046Y-85268246D01*
X104860044Y-85268241D01*
X104860044Y-85268238D01*
X104799536Y-85122159D01*
X104703282Y-84996718D01*
X104577841Y-84900464D01*
X104576759Y-84900016D01*
X104431762Y-84839956D01*
X104431760Y-84839955D01*
X104314370Y-84824501D01*
X104314367Y-84824500D01*
X104314361Y-84824500D01*
X104314354Y-84824500D01*
X103785978Y-84824500D01*
X103718939Y-84804815D01*
X103698297Y-84788181D01*
X103100319Y-84190203D01*
X103066834Y-84128880D01*
X103064000Y-84102522D01*
X103064000Y-81392396D01*
X103083685Y-81325357D01*
X103136489Y-81279602D01*
X103148996Y-81274690D01*
X103269334Y-81234814D01*
X103418656Y-81142712D01*
X103542712Y-81018656D01*
X103634814Y-80869334D01*
X103689999Y-80702797D01*
X103700500Y-80600009D01*
X103700499Y-79848476D01*
X103720183Y-79781438D01*
X103736813Y-79760801D01*
X104280446Y-79217169D01*
X104341765Y-79183687D01*
X104411457Y-79188671D01*
X104455804Y-79217172D01*
X104457288Y-79218656D01*
X104581344Y-79342712D01*
X104730666Y-79434814D01*
X104897203Y-79489999D01*
X104999991Y-79500500D01*
X105800008Y-79500499D01*
X105800016Y-79500498D01*
X105800019Y-79500498D01*
X105881064Y-79492219D01*
X105902797Y-79489999D01*
X106069334Y-79434814D01*
X106218656Y-79342712D01*
X106312319Y-79249049D01*
X106373642Y-79215564D01*
X106443334Y-79220548D01*
X106487681Y-79249049D01*
X106581344Y-79342712D01*
X106730666Y-79434814D01*
X106751004Y-79441553D01*
X106808447Y-79481322D01*
X106835272Y-79545837D01*
X106836000Y-79559258D01*
X106836000Y-85674254D01*
X106842885Y-85699950D01*
X106842897Y-85699992D01*
X106852882Y-85737255D01*
X106873614Y-85814632D01*
X106874435Y-85817694D01*
X106874436Y-85817697D01*
X106886131Y-85837953D01*
X106948687Y-85946303D01*
X106948689Y-85946305D01*
X107060761Y-86058377D01*
X107060767Y-86058382D01*
X108106380Y-87103995D01*
X108139865Y-87165318D01*
X108138809Y-87209890D01*
X108141017Y-87210181D01*
X108139957Y-87218235D01*
X108139956Y-87218238D01*
X108132310Y-87276313D01*
X108124500Y-87335638D01*
X108124500Y-87614363D01*
X108139953Y-87731753D01*
X108139957Y-87731765D01*
X108148566Y-87752550D01*
X108156033Y-87822019D01*
X108148566Y-87847450D01*
X108139957Y-87868234D01*
X108139955Y-87868239D01*
X108124500Y-87985638D01*
X108124500Y-88264363D01*
X108139953Y-88381753D01*
X108139957Y-88381765D01*
X108148566Y-88402550D01*
X108156033Y-88472019D01*
X108148566Y-88497450D01*
X108139957Y-88518234D01*
X108139955Y-88518239D01*
X108124500Y-88635638D01*
X108124500Y-88914363D01*
X108139953Y-89031753D01*
X108139957Y-89031765D01*
X108148566Y-89052550D01*
X108156033Y-89122019D01*
X108148566Y-89147450D01*
X108139957Y-89168234D01*
X108139955Y-89168239D01*
X108124500Y-89285638D01*
X108124500Y-89564363D01*
X108139953Y-89681753D01*
X108139957Y-89681765D01*
X108148566Y-89702550D01*
X108156033Y-89772019D01*
X108148566Y-89797450D01*
X108139957Y-89818234D01*
X108139955Y-89818239D01*
X108124500Y-89935638D01*
X108124500Y-90214363D01*
X108139953Y-90331753D01*
X108139957Y-90331765D01*
X108148566Y-90352550D01*
X108156033Y-90422019D01*
X108148566Y-90447450D01*
X108139957Y-90468234D01*
X108139955Y-90468239D01*
X108124500Y-90585638D01*
X108124500Y-90864363D01*
X108139953Y-90981753D01*
X108139957Y-90981765D01*
X108148566Y-91002550D01*
X108156033Y-91072019D01*
X108148566Y-91097450D01*
X108139957Y-91118234D01*
X108139955Y-91118239D01*
X108124500Y-91235638D01*
X108124500Y-91514363D01*
X108139953Y-91631753D01*
X108139957Y-91631765D01*
X108148566Y-91652550D01*
X108156033Y-91722019D01*
X108148566Y-91747450D01*
X108139957Y-91768234D01*
X108139955Y-91768239D01*
X108124500Y-91885638D01*
X108124500Y-92164363D01*
X108139953Y-92281753D01*
X108139957Y-92281765D01*
X108148566Y-92302550D01*
X108156033Y-92372019D01*
X108148566Y-92397450D01*
X108139957Y-92418234D01*
X108139955Y-92418239D01*
X108124500Y-92535638D01*
X108124500Y-92814363D01*
X108139953Y-92931753D01*
X108139956Y-92931762D01*
X108190461Y-93053693D01*
X108200464Y-93077841D01*
X108296718Y-93203282D01*
X108422159Y-93299536D01*
X108568238Y-93360044D01*
X108685639Y-93375500D01*
X110039360Y-93375499D01*
X110039363Y-93375499D01*
X110156753Y-93360046D01*
X110156757Y-93360044D01*
X110156762Y-93360044D01*
X110302836Y-93299538D01*
X110302837Y-93299538D01*
X110302837Y-93299537D01*
X110302841Y-93299536D01*
X110348340Y-93264623D01*
X110413507Y-93239430D01*
X110423825Y-93239000D01*
X129999251Y-93239000D01*
X129999253Y-93239000D01*
X130142696Y-93200565D01*
X130271304Y-93126313D01*
X130376313Y-93021304D01*
X130376313Y-93021302D01*
X130386517Y-93011099D01*
X130386521Y-93011094D01*
X136160797Y-87236818D01*
X136222120Y-87203333D01*
X136248478Y-87200499D01*
X137000002Y-87200499D01*
X137000008Y-87200499D01*
X137102797Y-87189999D01*
X137269334Y-87134814D01*
X137418656Y-87042712D01*
X137542712Y-86918656D01*
X137634814Y-86769334D01*
X137689999Y-86602797D01*
X137700500Y-86500009D01*
X137700499Y-85699992D01*
X137693417Y-85630668D01*
X137689999Y-85597203D01*
X137689998Y-85597200D01*
X137669325Y-85534814D01*
X137634814Y-85430666D01*
X137542712Y-85281344D01*
X137449049Y-85187681D01*
X137415564Y-85126358D01*
X137420548Y-85056666D01*
X137449049Y-85012319D01*
X137492037Y-84969331D01*
X137542712Y-84918656D01*
X137634814Y-84769334D01*
X137689999Y-84602797D01*
X137700500Y-84500009D01*
X137700499Y-83699992D01*
X137693417Y-83630668D01*
X137689999Y-83597203D01*
X137689998Y-83597200D01*
X137682384Y-83574223D01*
X137634814Y-83430666D01*
X137542712Y-83281344D01*
X137418656Y-83157288D01*
X137269334Y-83065186D01*
X137148995Y-83025309D01*
X137091551Y-82985537D01*
X137064728Y-82921021D01*
X137064000Y-82907604D01*
X137064000Y-73649186D01*
X137083685Y-73582147D01*
X137136489Y-73536392D01*
X137148992Y-73531481D01*
X137291334Y-73484314D01*
X137440656Y-73392212D01*
X137564712Y-73268156D01*
X137656814Y-73118834D01*
X137711999Y-72952297D01*
X137722500Y-72849509D01*
X137722499Y-71725492D01*
X137715179Y-71653838D01*
X137711999Y-71622703D01*
X137711998Y-71622700D01*
X137702522Y-71594104D01*
X137656814Y-71456166D01*
X137564712Y-71306844D01*
X137440656Y-71182788D01*
X137339961Y-71120679D01*
X137291336Y-71090687D01*
X137291331Y-71090685D01*
X137254514Y-71078485D01*
X137124797Y-71035501D01*
X137124795Y-71035500D01*
X137124790Y-71035499D01*
X137122030Y-71034908D01*
X137120493Y-71034075D01*
X137118371Y-71033372D01*
X137118496Y-71032993D01*
X137060600Y-71001619D01*
X137026919Y-70940404D01*
X137024000Y-70913658D01*
X137024000Y-68581341D01*
X137043685Y-68514302D01*
X137096489Y-68468547D01*
X137122052Y-68460086D01*
X137124788Y-68459499D01*
X137124797Y-68459499D01*
X137291334Y-68404314D01*
X137440656Y-68312212D01*
X137564712Y-68188156D01*
X137656814Y-68038834D01*
X137711999Y-67872297D01*
X137722500Y-67769509D01*
X137722499Y-66645492D01*
X137715179Y-66573838D01*
X137711999Y-66542703D01*
X137711998Y-66542700D01*
X137702522Y-66514104D01*
X137656814Y-66376166D01*
X137564712Y-66226844D01*
X137440656Y-66102788D01*
X137291334Y-66010686D01*
X137124797Y-65955501D01*
X137124795Y-65955500D01*
X137022010Y-65945000D01*
X135897998Y-65945000D01*
X135897981Y-65945001D01*
X135795203Y-65955500D01*
X135795200Y-65955501D01*
X135628668Y-66010685D01*
X135628663Y-66010687D01*
X135479342Y-66102789D01*
X135355289Y-66226842D01*
X135263187Y-66376163D01*
X135263185Y-66376168D01*
X135257647Y-66392881D01*
X135224511Y-66492881D01*
X135217478Y-66514104D01*
X135177705Y-66571549D01*
X135113189Y-66598372D01*
X135044414Y-66586057D01*
X134998197Y-66546223D01*
X134890827Y-66392881D01*
X134824788Y-66326842D01*
X134734620Y-66236674D01*
X134734616Y-66236671D01*
X134734615Y-66236670D01*
X134553666Y-66109968D01*
X134553662Y-66109966D01*
X134446346Y-66059924D01*
X134353450Y-66016606D01*
X134353447Y-66016605D01*
X134353445Y-66016604D01*
X134140070Y-65959430D01*
X134140062Y-65959429D01*
X133920002Y-65940177D01*
X133919998Y-65940177D01*
X133699937Y-65959429D01*
X133699929Y-65959430D01*
X133486554Y-66016604D01*
X133486548Y-66016607D01*
X133286340Y-66109965D01*
X133286338Y-66109966D01*
X133105377Y-66236675D01*
X132949175Y-66392877D01*
X132822466Y-66573838D01*
X132822465Y-66573840D01*
X132762382Y-66702689D01*
X132716209Y-66755128D01*
X132649016Y-66774280D01*
X132582135Y-66754064D01*
X132537618Y-66702689D01*
X132477534Y-66573840D01*
X132477533Y-66573838D01*
X132475930Y-66571549D01*
X132414180Y-66483359D01*
X132350827Y-66392881D01*
X132284788Y-66326842D01*
X132194620Y-66236674D01*
X132194616Y-66236671D01*
X132194615Y-66236670D01*
X132013666Y-66109968D01*
X132013662Y-66109966D01*
X131906346Y-66059924D01*
X131813450Y-66016606D01*
X131813447Y-66016605D01*
X131813445Y-66016604D01*
X131600070Y-65959430D01*
X131600062Y-65959429D01*
X131380002Y-65940177D01*
X131379998Y-65940177D01*
X131159937Y-65959429D01*
X131159929Y-65959430D01*
X130946554Y-66016604D01*
X130946548Y-66016607D01*
X130746340Y-66109965D01*
X130746338Y-66109966D01*
X130565377Y-66236675D01*
X130409175Y-66392877D01*
X130282466Y-66573838D01*
X130282465Y-66573840D01*
X130222382Y-66702689D01*
X130176209Y-66755128D01*
X130109016Y-66774280D01*
X130042135Y-66754064D01*
X129997618Y-66702689D01*
X129937534Y-66573840D01*
X129937533Y-66573838D01*
X129935930Y-66571549D01*
X129874180Y-66483359D01*
X129810827Y-66392881D01*
X129744788Y-66326842D01*
X129654620Y-66236674D01*
X129654616Y-66236671D01*
X129654615Y-66236670D01*
X129473666Y-66109968D01*
X129473662Y-66109966D01*
X129366346Y-66059924D01*
X129273450Y-66016606D01*
X129273447Y-66016605D01*
X129273445Y-66016604D01*
X129060070Y-65959430D01*
X129060062Y-65959429D01*
X128840002Y-65940177D01*
X128839998Y-65940177D01*
X128619937Y-65959429D01*
X128619929Y-65959430D01*
X128406554Y-66016604D01*
X128406548Y-66016607D01*
X128206340Y-66109965D01*
X128206338Y-66109966D01*
X128025377Y-66236675D01*
X127869175Y-66392877D01*
X127742466Y-66573838D01*
X127742465Y-66573840D01*
X127682382Y-66702689D01*
X127636209Y-66755128D01*
X127569016Y-66774280D01*
X127502135Y-66754064D01*
X127457618Y-66702689D01*
X127397534Y-66573840D01*
X127397533Y-66573838D01*
X127395930Y-66571549D01*
X127334180Y-66483359D01*
X127270827Y-66392881D01*
X127204788Y-66326842D01*
X127114620Y-66236674D01*
X127114616Y-66236671D01*
X127114615Y-66236670D01*
X126933666Y-66109968D01*
X126933662Y-66109966D01*
X126826346Y-66059924D01*
X126733450Y-66016606D01*
X126733447Y-66016605D01*
X126733445Y-66016604D01*
X126520070Y-65959430D01*
X126520062Y-65959429D01*
X126300002Y-65940177D01*
X126299998Y-65940177D01*
X126079937Y-65959429D01*
X126079929Y-65959430D01*
X125866554Y-66016604D01*
X125866548Y-66016607D01*
X125666340Y-66109965D01*
X125666338Y-66109966D01*
X125485377Y-66236675D01*
X125329175Y-66392877D01*
X125202466Y-66573838D01*
X125202465Y-66573840D01*
X125142382Y-66702689D01*
X125096209Y-66755128D01*
X125029016Y-66774280D01*
X124962135Y-66754064D01*
X124917618Y-66702689D01*
X124857534Y-66573840D01*
X124857533Y-66573838D01*
X124855930Y-66571549D01*
X124794180Y-66483359D01*
X124730827Y-66392881D01*
X124664788Y-66326842D01*
X124574620Y-66236674D01*
X124574616Y-66236671D01*
X124574615Y-66236670D01*
X124393666Y-66109968D01*
X124393662Y-66109966D01*
X124286346Y-66059924D01*
X124193450Y-66016606D01*
X124193447Y-66016605D01*
X124193445Y-66016604D01*
X123980070Y-65959430D01*
X123980062Y-65959429D01*
X123760002Y-65940177D01*
X123759998Y-65940177D01*
X123539937Y-65959429D01*
X123539929Y-65959430D01*
X123326554Y-66016604D01*
X123326548Y-66016607D01*
X123126340Y-66109965D01*
X123126338Y-66109966D01*
X122945377Y-66236675D01*
X122789175Y-66392877D01*
X122662466Y-66573838D01*
X122662465Y-66573840D01*
X122602382Y-66702689D01*
X122556209Y-66755128D01*
X122489016Y-66774280D01*
X122422135Y-66754064D01*
X122377618Y-66702689D01*
X122317534Y-66573840D01*
X122317533Y-66573838D01*
X122315930Y-66571549D01*
X122254180Y-66483359D01*
X122190827Y-66392881D01*
X122124788Y-66326842D01*
X122034620Y-66236674D01*
X122034616Y-66236671D01*
X122034615Y-66236670D01*
X121853666Y-66109968D01*
X121853662Y-66109966D01*
X121746346Y-66059924D01*
X121653450Y-66016606D01*
X121653447Y-66016605D01*
X121653445Y-66016604D01*
X121440070Y-65959430D01*
X121440062Y-65959429D01*
X121220002Y-65940177D01*
X121219998Y-65940177D01*
X120999937Y-65959429D01*
X120999929Y-65959430D01*
X120786554Y-66016604D01*
X120786548Y-66016607D01*
X120586340Y-66109965D01*
X120586338Y-66109966D01*
X120405377Y-66236675D01*
X120249175Y-66392877D01*
X120122466Y-66573838D01*
X120122465Y-66573840D01*
X120062382Y-66702689D01*
X120016209Y-66755128D01*
X119949016Y-66774280D01*
X119882135Y-66754064D01*
X119837618Y-66702689D01*
X119777534Y-66573840D01*
X119777533Y-66573838D01*
X119775930Y-66571549D01*
X119714180Y-66483359D01*
X119650827Y-66392881D01*
X119584788Y-66326842D01*
X119494620Y-66236674D01*
X119494616Y-66236671D01*
X119494615Y-66236670D01*
X119313666Y-66109968D01*
X119313662Y-66109966D01*
X119206346Y-66059924D01*
X119113450Y-66016606D01*
X119113447Y-66016605D01*
X119113445Y-66016604D01*
X118900070Y-65959430D01*
X118900062Y-65959429D01*
X118680002Y-65940177D01*
X118679998Y-65940177D01*
X118459937Y-65959429D01*
X118459929Y-65959430D01*
X118246554Y-66016604D01*
X118246548Y-66016607D01*
X118046340Y-66109965D01*
X118046338Y-66109966D01*
X117865377Y-66236675D01*
X117709175Y-66392877D01*
X117582466Y-66573838D01*
X117582465Y-66573840D01*
X117522382Y-66702689D01*
X117476209Y-66755128D01*
X117409016Y-66774280D01*
X117342135Y-66754064D01*
X117297618Y-66702689D01*
X117237534Y-66573840D01*
X117237533Y-66573838D01*
X117235930Y-66571549D01*
X117174180Y-66483359D01*
X117110827Y-66392881D01*
X117044788Y-66326842D01*
X116954620Y-66236674D01*
X116954616Y-66236671D01*
X116954615Y-66236670D01*
X116773666Y-66109968D01*
X116773662Y-66109966D01*
X116666346Y-66059924D01*
X116573450Y-66016606D01*
X116573447Y-66016605D01*
X116573445Y-66016604D01*
X116360070Y-65959430D01*
X116360062Y-65959429D01*
X116140002Y-65940177D01*
X116139998Y-65940177D01*
X115919937Y-65959429D01*
X115919920Y-65959432D01*
X115903857Y-65963736D01*
X115834007Y-65962070D01*
X115784088Y-65931641D01*
X115747173Y-65894726D01*
X115706125Y-65867299D01*
X115640627Y-65823535D01*
X115522244Y-65774499D01*
X115522238Y-65774497D01*
X115396571Y-65749500D01*
X115396569Y-65749500D01*
X111434277Y-65749500D01*
X111367238Y-65729815D01*
X111321483Y-65677011D01*
X111316575Y-65664514D01*
X111284814Y-65568666D01*
X111192712Y-65419344D01*
X111068656Y-65295288D01*
X110919334Y-65203186D01*
X110752797Y-65148001D01*
X110752795Y-65148000D01*
X110650010Y-65137500D01*
X109849998Y-65137500D01*
X109849980Y-65137501D01*
X109747203Y-65148000D01*
X109747200Y-65148001D01*
X109580668Y-65203185D01*
X109580663Y-65203187D01*
X109431342Y-65295289D01*
X109307288Y-65419343D01*
X109302807Y-65425011D01*
X109301480Y-65423961D01*
X109256177Y-65464707D01*
X109187214Y-65475927D01*
X109123133Y-65448082D01*
X109102273Y-65425770D01*
X109089418Y-65408078D01*
X109089414Y-65408072D01*
X108966928Y-65285586D01*
X108826788Y-65183768D01*
X108672445Y-65105127D01*
X108507701Y-65051598D01*
X108507699Y-65051597D01*
X108507698Y-65051597D01*
X108376271Y-65030781D01*
X108336611Y-65024500D01*
X108163389Y-65024500D01*
X108123728Y-65030781D01*
X107992302Y-65051597D01*
X107827552Y-65105128D01*
X107673211Y-65183768D01*
X107593256Y-65241859D01*
X107533072Y-65285586D01*
X107533070Y-65285588D01*
X107533069Y-65285588D01*
X107410588Y-65408069D01*
X107410581Y-65408078D01*
X107350317Y-65491023D01*
X107294987Y-65533689D01*
X107225374Y-65539667D01*
X107163579Y-65507061D01*
X107149683Y-65491023D01*
X107100958Y-65423961D01*
X107089414Y-65408072D01*
X106966928Y-65285586D01*
X106826788Y-65183768D01*
X106672445Y-65105127D01*
X106507701Y-65051598D01*
X106507699Y-65051597D01*
X106507698Y-65051597D01*
X106376271Y-65030781D01*
X106336611Y-65024500D01*
X106163389Y-65024500D01*
X106123728Y-65030781D01*
X105992302Y-65051597D01*
X105827552Y-65105128D01*
X105673211Y-65183768D01*
X105593256Y-65241859D01*
X105533072Y-65285586D01*
X105533070Y-65285588D01*
X105533069Y-65285588D01*
X105410588Y-65408069D01*
X105410581Y-65408078D01*
X105350317Y-65491023D01*
X105294987Y-65533689D01*
X105225374Y-65539667D01*
X105163579Y-65507061D01*
X105149683Y-65491023D01*
X105100958Y-65423961D01*
X105089414Y-65408072D01*
X104966928Y-65285586D01*
X104826788Y-65183768D01*
X104672445Y-65105127D01*
X104507701Y-65051598D01*
X104507699Y-65051597D01*
X104507698Y-65051597D01*
X104376271Y-65030781D01*
X104336611Y-65024500D01*
X104163389Y-65024500D01*
X104123728Y-65030781D01*
X103992302Y-65051597D01*
X103827552Y-65105128D01*
X103673211Y-65183768D01*
X103593256Y-65241859D01*
X103533072Y-65285586D01*
X103533070Y-65285588D01*
X103533069Y-65285588D01*
X103410585Y-65408072D01*
X103350007Y-65491450D01*
X103294677Y-65534115D01*
X103225063Y-65540093D01*
X103163269Y-65507486D01*
X103149371Y-65491447D01*
X103089036Y-65408401D01*
X102966602Y-65285967D01*
X102826524Y-65184195D01*
X102672257Y-65105591D01*
X102507589Y-65052087D01*
X102507581Y-65052085D01*
X102500000Y-65050884D01*
X102500000Y-66119670D01*
X102480255Y-66099925D01*
X102394745Y-66050556D01*
X102299370Y-66025000D01*
X102200630Y-66025000D01*
X102105255Y-66050556D01*
X102019745Y-66099925D01*
X102000000Y-66119670D01*
X102000000Y-65050884D01*
X101999999Y-65050884D01*
X101992418Y-65052085D01*
X101992410Y-65052087D01*
X101827742Y-65105591D01*
X101673475Y-65184195D01*
X101533397Y-65285967D01*
X101410967Y-65408397D01*
X101309195Y-65548475D01*
X101230591Y-65702742D01*
X101177085Y-65867415D01*
X101150000Y-66038428D01*
X101150000Y-66150000D01*
X101969670Y-66150000D01*
X101949925Y-66169745D01*
X101900556Y-66255255D01*
X101875000Y-66350630D01*
X101875000Y-66449370D01*
X101900556Y-66544745D01*
X101949925Y-66630255D01*
X101969670Y-66650000D01*
X101150000Y-66650000D01*
X101150000Y-66761571D01*
X101177085Y-66932584D01*
X101230591Y-67097257D01*
X101309195Y-67251524D01*
X101410967Y-67391602D01*
X101533397Y-67514032D01*
X101673475Y-67615804D01*
X101827744Y-67694408D01*
X101992415Y-67747914D01*
X101992414Y-67747914D01*
X101999999Y-67749115D01*
X102000000Y-67749114D01*
X102000000Y-66680330D01*
X102019745Y-66700075D01*
X102105255Y-66749444D01*
X102200630Y-66775000D01*
X102299370Y-66775000D01*
X102394745Y-66749444D01*
X102480255Y-66700075D01*
X102500000Y-66680330D01*
X102500000Y-67749115D01*
X102507584Y-67747914D01*
X102672255Y-67694408D01*
X102826524Y-67615804D01*
X102966602Y-67514032D01*
X103089036Y-67391598D01*
X103149371Y-67308552D01*
X103204700Y-67265886D01*
X103274313Y-67259905D01*
X103336109Y-67292510D01*
X103350008Y-67308550D01*
X103350318Y-67308976D01*
X103410586Y-67391928D01*
X103533072Y-67514414D01*
X103634886Y-67588387D01*
X103677551Y-67643716D01*
X103686000Y-67688704D01*
X103686000Y-77225270D01*
X103666315Y-77292309D01*
X103613511Y-77338064D01*
X103544353Y-77348008D01*
X103480797Y-77318983D01*
X103474319Y-77312951D01*
X103418657Y-77257289D01*
X103418656Y-77257288D01*
X103269334Y-77165186D01*
X103102797Y-77110001D01*
X103102795Y-77110000D01*
X103000010Y-77099500D01*
X101999998Y-77099500D01*
X101999978Y-77099502D01*
X101985528Y-77100978D01*
X101916835Y-77088208D01*
X101885247Y-77065301D01*
X100421722Y-75601776D01*
X100388237Y-75540453D01*
X100386182Y-75527973D01*
X100385368Y-75520745D01*
X100325789Y-75350478D01*
X100229816Y-75197738D01*
X100102262Y-75070184D01*
X100028013Y-75023530D01*
X99949523Y-74974211D01*
X99779254Y-74914631D01*
X99779249Y-74914630D01*
X99600004Y-74894435D01*
X99599996Y-74894435D01*
X99420750Y-74914630D01*
X99420745Y-74914631D01*
X99250476Y-74974211D01*
X99097737Y-75070184D01*
X98970184Y-75197737D01*
X98874211Y-75350476D01*
X98814631Y-75520745D01*
X98814630Y-75520750D01*
X98794435Y-75699996D01*
X98794435Y-75700003D01*
X98814630Y-75879249D01*
X98814631Y-75879254D01*
X98874211Y-76049523D01*
X98970184Y-76202262D01*
X99097738Y-76329816D01*
X99250478Y-76425789D01*
X99420745Y-76485368D01*
X99427974Y-76486182D01*
X99492388Y-76513246D01*
X99501776Y-76521722D01*
X101263181Y-78283127D01*
X101296666Y-78344450D01*
X101299500Y-78370807D01*
X101299500Y-78600000D01*
X101299501Y-78600019D01*
X101310000Y-78702796D01*
X101310001Y-78702799D01*
X101363997Y-78865747D01*
X101365186Y-78869334D01*
X101454572Y-79014253D01*
X101457289Y-79018657D01*
X101550951Y-79112319D01*
X101584436Y-79173642D01*
X101579452Y-79243334D01*
X101550951Y-79287681D01*
X101457289Y-79381342D01*
X101365187Y-79530663D01*
X101365185Y-79530668D01*
X101347318Y-79584587D01*
X101310001Y-79697203D01*
X101310001Y-79697204D01*
X101310000Y-79697204D01*
X101299500Y-79799983D01*
X101299500Y-80600001D01*
X101299501Y-80600019D01*
X101310000Y-80702796D01*
X101310001Y-80702799D01*
X101365185Y-80869331D01*
X101365187Y-80869336D01*
X101385825Y-80902795D01*
X101457288Y-81018656D01*
X101581344Y-81142712D01*
X101730666Y-81234814D01*
X101851004Y-81274690D01*
X101908449Y-81314463D01*
X101935272Y-81378979D01*
X101936000Y-81392396D01*
X101936000Y-84114020D01*
X101916315Y-84181059D01*
X101863511Y-84226814D01*
X101794353Y-84236758D01*
X101730797Y-84207733D01*
X101724319Y-84201701D01*
X99277214Y-81754596D01*
X99243729Y-81693273D01*
X99248713Y-81623581D01*
X99290585Y-81567648D01*
X99325887Y-81549210D01*
X99369334Y-81534814D01*
X99518656Y-81442712D01*
X99642712Y-81318656D01*
X99734814Y-81169334D01*
X99789999Y-81002797D01*
X99800500Y-80900009D01*
X99800499Y-80099992D01*
X99797453Y-80070178D01*
X99789999Y-79997203D01*
X99789998Y-79997200D01*
X99734814Y-79830666D01*
X99642712Y-79681344D01*
X99548695Y-79587327D01*
X99515210Y-79526004D01*
X99520194Y-79456312D01*
X99548695Y-79411964D01*
X99642317Y-79318342D01*
X99734356Y-79169124D01*
X99734358Y-79169119D01*
X99789505Y-79002697D01*
X99789506Y-79002690D01*
X99799999Y-78899986D01*
X99800000Y-78899973D01*
X99800000Y-78750000D01*
X97400001Y-78750000D01*
X97400001Y-78899986D01*
X97410494Y-79002697D01*
X97465641Y-79169119D01*
X97465643Y-79169124D01*
X97557684Y-79318345D01*
X97651304Y-79411965D01*
X97684789Y-79473288D01*
X97679805Y-79542980D01*
X97651305Y-79587327D01*
X97557287Y-79681345D01*
X97465187Y-79830663D01*
X97465186Y-79830666D01*
X97410001Y-79997203D01*
X97410001Y-79997204D01*
X97410000Y-79997204D01*
X97399500Y-80099983D01*
X97399500Y-80900001D01*
X97399501Y-80900019D01*
X97410000Y-81002796D01*
X97410001Y-81002799D01*
X97433669Y-81074223D01*
X97465186Y-81169334D01*
X97557288Y-81318656D01*
X97681344Y-81442712D01*
X97830666Y-81534814D01*
X97951004Y-81574690D01*
X98008449Y-81614463D01*
X98035272Y-81678979D01*
X98036000Y-81692396D01*
X98036000Y-81800746D01*
X98036000Y-81949252D01*
X98074435Y-82092695D01*
X98148687Y-82221303D01*
X98148689Y-82221305D01*
X98260761Y-82333377D01*
X98260767Y-82333382D01*
X101976703Y-86049319D01*
X102010188Y-86110642D01*
X102005204Y-86180334D01*
X101963332Y-86236267D01*
X101897868Y-86260684D01*
X101889022Y-86261000D01*
X101709978Y-86261000D01*
X101642939Y-86241315D01*
X101622297Y-86224681D01*
X96236818Y-80839202D01*
X96203333Y-80777879D01*
X96200499Y-80751529D01*
X96200499Y-79999992D01*
X96193330Y-79929816D01*
X96189999Y-79897203D01*
X96189998Y-79897200D01*
X96166330Y-79825776D01*
X96134814Y-79730666D01*
X96042712Y-79581344D01*
X95948695Y-79487327D01*
X95915210Y-79426004D01*
X95920194Y-79356312D01*
X95948695Y-79311964D01*
X96042317Y-79218342D01*
X96134356Y-79069124D01*
X96134358Y-79069119D01*
X96189505Y-78902697D01*
X96189506Y-78902690D01*
X96199999Y-78799986D01*
X96200000Y-78799973D01*
X96200000Y-78650000D01*
X93800001Y-78650000D01*
X93800001Y-78799986D01*
X93810494Y-78902697D01*
X93865641Y-79069119D01*
X93865643Y-79069124D01*
X93957684Y-79218345D01*
X94051304Y-79311965D01*
X94084789Y-79373288D01*
X94079805Y-79442980D01*
X94051305Y-79487327D01*
X93957287Y-79581345D01*
X93865187Y-79730663D01*
X93865185Y-79730668D01*
X93843510Y-79796081D01*
X93810001Y-79897203D01*
X93810001Y-79897204D01*
X93810000Y-79897204D01*
X93799500Y-79999983D01*
X93799500Y-80802522D01*
X93779815Y-80869561D01*
X93727011Y-80915316D01*
X93657853Y-80925260D01*
X93594297Y-80896235D01*
X93587819Y-80890203D01*
X93437255Y-80739639D01*
X93403770Y-80678316D01*
X93401716Y-80665841D01*
X93385369Y-80520749D01*
X93385368Y-80520745D01*
X93367869Y-80470737D01*
X93325789Y-80350478D01*
X93321274Y-80343293D01*
X93231551Y-80200500D01*
X93229816Y-80197738D01*
X93102262Y-80070184D01*
X93102260Y-80070182D01*
X93102255Y-80070178D01*
X93082026Y-80057467D01*
X93035736Y-80005132D01*
X93024000Y-79952475D01*
X93024000Y-78000013D01*
X93800000Y-78000013D01*
X93800000Y-78150000D01*
X94750000Y-78150000D01*
X95250000Y-78150000D01*
X96199999Y-78150000D01*
X96199999Y-78100013D01*
X97400000Y-78100013D01*
X97400000Y-78250000D01*
X98350000Y-78250000D01*
X98850000Y-78250000D01*
X99799999Y-78250000D01*
X99799999Y-78100028D01*
X99799998Y-78100013D01*
X99789505Y-77997302D01*
X99734358Y-77830880D01*
X99734356Y-77830875D01*
X99642315Y-77681654D01*
X99518345Y-77557684D01*
X99369124Y-77465643D01*
X99369119Y-77465641D01*
X99202697Y-77410494D01*
X99202690Y-77410493D01*
X99099986Y-77400000D01*
X98850000Y-77400000D01*
X98850000Y-78250000D01*
X98350000Y-78250000D01*
X98350000Y-77400000D01*
X98100029Y-77400000D01*
X98100012Y-77400001D01*
X97997302Y-77410494D01*
X97830880Y-77465641D01*
X97830875Y-77465643D01*
X97681654Y-77557684D01*
X97557684Y-77681654D01*
X97465643Y-77830875D01*
X97465641Y-77830880D01*
X97410494Y-77997302D01*
X97410493Y-77997309D01*
X97400000Y-78100013D01*
X96199999Y-78100013D01*
X96199999Y-78000028D01*
X96199998Y-78000013D01*
X96189505Y-77897302D01*
X96134358Y-77730880D01*
X96134356Y-77730875D01*
X96042315Y-77581654D01*
X95918345Y-77457684D01*
X95769124Y-77365643D01*
X95769119Y-77365641D01*
X95602697Y-77310494D01*
X95602690Y-77310493D01*
X95499986Y-77300000D01*
X95250000Y-77300000D01*
X95250000Y-78150000D01*
X94750000Y-78150000D01*
X94750000Y-77300000D01*
X94500029Y-77300000D01*
X94500012Y-77300001D01*
X94397302Y-77310494D01*
X94230880Y-77365641D01*
X94230875Y-77365643D01*
X94081654Y-77457684D01*
X93957684Y-77581654D01*
X93865643Y-77730875D01*
X93865641Y-77730880D01*
X93810494Y-77897302D01*
X93810493Y-77897309D01*
X93800000Y-78000013D01*
X93024000Y-78000013D01*
X93024000Y-73761341D01*
X93043685Y-73694302D01*
X93096489Y-73648547D01*
X93122052Y-73640086D01*
X93124788Y-73639499D01*
X93124797Y-73639499D01*
X93291334Y-73584314D01*
X93440656Y-73492212D01*
X93564712Y-73368156D01*
X93656814Y-73218834D01*
X93711999Y-73052297D01*
X93722500Y-72949509D01*
X93722499Y-71825492D01*
X93715179Y-71753838D01*
X93711999Y-71722703D01*
X93711998Y-71722700D01*
X93700934Y-71689311D01*
X93656814Y-71556166D01*
X93564712Y-71406844D01*
X93440656Y-71282788D01*
X93313315Y-71204244D01*
X93291336Y-71190687D01*
X93291331Y-71190685D01*
X93155044Y-71145524D01*
X93124797Y-71135501D01*
X93124795Y-71135500D01*
X93124790Y-71135499D01*
X93122030Y-71134908D01*
X93120493Y-71134075D01*
X93118371Y-71133372D01*
X93118496Y-71132993D01*
X93060600Y-71101619D01*
X93026919Y-71040404D01*
X93024000Y-71013658D01*
X93024000Y-68681341D01*
X93043685Y-68614302D01*
X93096489Y-68568547D01*
X93122052Y-68560086D01*
X93124788Y-68559499D01*
X93124797Y-68559499D01*
X93291334Y-68504314D01*
X93440656Y-68412212D01*
X93564712Y-68288156D01*
X93656814Y-68138834D01*
X93711999Y-67972297D01*
X93722500Y-67869509D01*
X93722499Y-66745492D01*
X93715179Y-66673838D01*
X93711999Y-66642703D01*
X93711998Y-66642700D01*
X93700934Y-66609311D01*
X93656814Y-66476166D01*
X93564712Y-66326844D01*
X93440656Y-66202788D01*
X93347888Y-66145569D01*
X93291336Y-66110687D01*
X93291331Y-66110685D01*
X93267499Y-66102788D01*
X93124797Y-66055501D01*
X93124795Y-66055500D01*
X93022010Y-66045000D01*
X91897998Y-66045000D01*
X91897981Y-66045001D01*
X91795203Y-66055500D01*
X91795200Y-66055501D01*
X91628668Y-66110685D01*
X91628663Y-66110687D01*
X91479342Y-66202789D01*
X91355289Y-66326842D01*
X91263187Y-66476163D01*
X91263185Y-66476168D01*
X91241139Y-66542700D01*
X91219067Y-66609310D01*
X91217478Y-66614104D01*
X91177705Y-66671549D01*
X91113189Y-66698372D01*
X91044414Y-66686057D01*
X90998197Y-66646223D01*
X90997689Y-66645498D01*
X90890826Y-66492880D01*
X90734620Y-66336674D01*
X90734616Y-66336671D01*
X90734615Y-66336670D01*
X90553666Y-66209968D01*
X90553662Y-66209966D01*
X90467407Y-66169745D01*
X90353450Y-66116606D01*
X90353447Y-66116605D01*
X90353445Y-66116604D01*
X90140070Y-66059430D01*
X90140062Y-66059429D01*
X89920002Y-66040177D01*
X89919998Y-66040177D01*
X89699937Y-66059429D01*
X89699929Y-66059430D01*
X89486554Y-66116604D01*
X89486548Y-66116607D01*
X89286340Y-66209965D01*
X89286338Y-66209966D01*
X89105377Y-66336675D01*
X88949175Y-66492877D01*
X88822466Y-66673838D01*
X88822465Y-66673840D01*
X88762382Y-66802689D01*
X88716209Y-66855128D01*
X88649016Y-66874280D01*
X88582135Y-66854064D01*
X88537618Y-66802689D01*
X88477651Y-66674090D01*
X88477534Y-66673839D01*
X88350826Y-66492880D01*
X88194620Y-66336674D01*
X88194616Y-66336671D01*
X88194615Y-66336670D01*
X88013666Y-66209968D01*
X88013662Y-66209966D01*
X87927407Y-66169745D01*
X87813450Y-66116606D01*
X87813447Y-66116605D01*
X87813445Y-66116604D01*
X87600070Y-66059430D01*
X87600062Y-66059429D01*
X87380002Y-66040177D01*
X87379998Y-66040177D01*
X87159937Y-66059429D01*
X87159929Y-66059430D01*
X86946554Y-66116604D01*
X86946548Y-66116607D01*
X86746340Y-66209965D01*
X86746338Y-66209966D01*
X86565377Y-66336675D01*
X86409175Y-66492877D01*
X86282466Y-66673838D01*
X86282465Y-66673840D01*
X86222382Y-66802689D01*
X86176209Y-66855128D01*
X86109016Y-66874280D01*
X86042135Y-66854064D01*
X85997618Y-66802689D01*
X85937651Y-66674090D01*
X85937534Y-66673839D01*
X85810826Y-66492880D01*
X85654620Y-66336674D01*
X85654616Y-66336671D01*
X85654615Y-66336670D01*
X85473666Y-66209968D01*
X85473662Y-66209966D01*
X85387407Y-66169745D01*
X85273450Y-66116606D01*
X85273447Y-66116605D01*
X85273445Y-66116604D01*
X85060070Y-66059430D01*
X85060062Y-66059429D01*
X84840002Y-66040177D01*
X84839998Y-66040177D01*
X84619937Y-66059429D01*
X84619929Y-66059430D01*
X84406554Y-66116604D01*
X84406548Y-66116607D01*
X84206340Y-66209965D01*
X84206338Y-66209966D01*
X84025377Y-66336675D01*
X83869175Y-66492877D01*
X83742466Y-66673838D01*
X83742465Y-66673840D01*
X83682382Y-66802689D01*
X83636209Y-66855128D01*
X83569016Y-66874280D01*
X83502135Y-66854064D01*
X83457618Y-66802689D01*
X83397651Y-66674090D01*
X83397534Y-66673839D01*
X83270826Y-66492880D01*
X83114620Y-66336674D01*
X83114616Y-66336671D01*
X83114615Y-66336670D01*
X82933666Y-66209968D01*
X82933662Y-66209966D01*
X82847407Y-66169745D01*
X82733450Y-66116606D01*
X82733447Y-66116605D01*
X82733445Y-66116604D01*
X82520070Y-66059430D01*
X82520062Y-66059429D01*
X82300002Y-66040177D01*
X82299998Y-66040177D01*
X82079937Y-66059429D01*
X82079929Y-66059430D01*
X81866554Y-66116604D01*
X81866548Y-66116607D01*
X81666340Y-66209965D01*
X81666338Y-66209966D01*
X81485377Y-66336675D01*
X81329175Y-66492877D01*
X81202466Y-66673838D01*
X81202465Y-66673840D01*
X81142382Y-66802689D01*
X81096209Y-66855128D01*
X81029016Y-66874280D01*
X80962135Y-66854064D01*
X80917618Y-66802689D01*
X80857651Y-66674090D01*
X80857534Y-66673839D01*
X80730826Y-66492880D01*
X80574620Y-66336674D01*
X80574616Y-66336671D01*
X80574615Y-66336670D01*
X80393666Y-66209968D01*
X80393662Y-66209966D01*
X80307407Y-66169745D01*
X80193450Y-66116606D01*
X80193447Y-66116605D01*
X80193445Y-66116604D01*
X79980070Y-66059430D01*
X79980062Y-66059429D01*
X79760002Y-66040177D01*
X79759998Y-66040177D01*
X79539937Y-66059429D01*
X79539929Y-66059430D01*
X79326554Y-66116604D01*
X79326548Y-66116607D01*
X79126340Y-66209965D01*
X79126338Y-66209966D01*
X78945377Y-66336675D01*
X78789175Y-66492877D01*
X78662466Y-66673838D01*
X78662465Y-66673840D01*
X78602382Y-66802689D01*
X78556209Y-66855128D01*
X78489016Y-66874280D01*
X78422135Y-66854064D01*
X78377618Y-66802689D01*
X78317651Y-66674090D01*
X78317534Y-66673839D01*
X78190826Y-66492880D01*
X78034620Y-66336674D01*
X78034616Y-66336671D01*
X78034615Y-66336670D01*
X77853666Y-66209968D01*
X77853662Y-66209966D01*
X77767407Y-66169745D01*
X77653450Y-66116606D01*
X77653447Y-66116605D01*
X77653445Y-66116604D01*
X77440070Y-66059430D01*
X77440062Y-66059429D01*
X77220002Y-66040177D01*
X77219998Y-66040177D01*
X76999937Y-66059429D01*
X76999929Y-66059430D01*
X76786554Y-66116604D01*
X76786548Y-66116607D01*
X76586340Y-66209965D01*
X76586338Y-66209966D01*
X76405377Y-66336675D01*
X76249175Y-66492877D01*
X76122466Y-66673838D01*
X76122465Y-66673840D01*
X76062382Y-66802689D01*
X76016209Y-66855128D01*
X75949016Y-66874280D01*
X75882135Y-66854064D01*
X75837618Y-66802689D01*
X75777651Y-66674090D01*
X75777534Y-66673839D01*
X75650826Y-66492880D01*
X75494620Y-66336674D01*
X75494616Y-66336671D01*
X75494615Y-66336670D01*
X75313666Y-66209968D01*
X75313662Y-66209966D01*
X75227407Y-66169745D01*
X75113450Y-66116606D01*
X75113447Y-66116605D01*
X75113445Y-66116604D01*
X74900070Y-66059430D01*
X74900062Y-66059429D01*
X74680002Y-66040177D01*
X74679998Y-66040177D01*
X74459937Y-66059429D01*
X74459929Y-66059430D01*
X74246554Y-66116604D01*
X74246548Y-66116607D01*
X74046340Y-66209965D01*
X74046338Y-66209966D01*
X73865377Y-66336675D01*
X73709175Y-66492877D01*
X73582467Y-66673837D01*
X73522105Y-66803282D01*
X73475932Y-66855721D01*
X73408738Y-66874872D01*
X73341857Y-66854656D01*
X73297341Y-66803280D01*
X73237098Y-66674089D01*
X73237097Y-66674087D01*
X73191741Y-66609311D01*
X73191740Y-66609310D01*
X72622962Y-67178089D01*
X72605925Y-67114507D01*
X72540099Y-67000493D01*
X72447007Y-66907401D01*
X72332993Y-66841575D01*
X72269409Y-66824537D01*
X72838188Y-66255758D01*
X72773411Y-66210401D01*
X72773405Y-66210398D01*
X72573284Y-66117080D01*
X72573270Y-66117075D01*
X72359986Y-66059926D01*
X72359976Y-66059924D01*
X72140001Y-66040679D01*
X72139999Y-66040679D01*
X71920023Y-66059924D01*
X71920013Y-66059926D01*
X71706729Y-66117075D01*
X71706720Y-66117079D01*
X71506590Y-66210401D01*
X71441811Y-66255758D01*
X72010591Y-66824537D01*
X71947007Y-66841575D01*
X71832993Y-66907401D01*
X71739901Y-67000493D01*
X71674075Y-67114507D01*
X71657037Y-67178090D01*
X71088258Y-66609311D01*
X71042901Y-66674090D01*
X70949579Y-66874220D01*
X70949575Y-66874229D01*
X70892426Y-67087513D01*
X70892424Y-67087523D01*
X70873179Y-67307499D01*
X70873179Y-67307500D01*
X70892424Y-67527476D01*
X70892426Y-67527486D01*
X70949575Y-67740770D01*
X70949580Y-67740784D01*
X71042898Y-67940905D01*
X71042901Y-67940911D01*
X71088258Y-68005687D01*
X71088258Y-68005688D01*
X71657037Y-67436908D01*
X71674075Y-67500493D01*
X71739901Y-67614507D01*
X71832993Y-67707599D01*
X71947007Y-67773425D01*
X72010590Y-67790462D01*
X71441810Y-68359240D01*
X71506590Y-68404599D01*
X71506592Y-68404600D01*
X71706715Y-68497919D01*
X71706729Y-68497924D01*
X71920013Y-68555073D01*
X71920023Y-68555075D01*
X72139999Y-68574321D01*
X72140001Y-68574321D01*
X72359976Y-68555075D01*
X72359986Y-68555073D01*
X72573270Y-68497924D01*
X72573284Y-68497919D01*
X72773407Y-68404600D01*
X72773417Y-68404594D01*
X72838188Y-68359241D01*
X72269410Y-67790462D01*
X72332993Y-67773425D01*
X72447007Y-67707599D01*
X72540099Y-67614507D01*
X72605925Y-67500493D01*
X72622962Y-67436909D01*
X73191741Y-68005688D01*
X73237094Y-67940917D01*
X73237095Y-67940916D01*
X73297340Y-67811719D01*
X73343512Y-67759280D01*
X73410706Y-67740127D01*
X73477587Y-67760342D01*
X73522105Y-67811718D01*
X73582466Y-67941162D01*
X73582468Y-67941166D01*
X73709170Y-68122115D01*
X73709175Y-68122121D01*
X73865378Y-68278324D01*
X73865384Y-68278329D01*
X74046341Y-68405036D01*
X74051033Y-68407745D01*
X74050178Y-68409224D01*
X74096828Y-68450279D01*
X74116000Y-68516514D01*
X74116000Y-71178485D01*
X74096315Y-71245524D01*
X74050196Y-71285815D01*
X74051029Y-71287258D01*
X74046337Y-71289966D01*
X73865377Y-71416675D01*
X73709175Y-71572877D01*
X73582467Y-71753837D01*
X73522105Y-71883282D01*
X73475932Y-71935721D01*
X73408738Y-71954872D01*
X73341857Y-71934656D01*
X73297341Y-71883280D01*
X73237098Y-71754089D01*
X73237097Y-71754087D01*
X73191741Y-71689311D01*
X73191740Y-71689310D01*
X72622962Y-72258089D01*
X72605925Y-72194507D01*
X72540099Y-72080493D01*
X72447007Y-71987401D01*
X72332993Y-71921575D01*
X72269409Y-71904537D01*
X72838188Y-71335758D01*
X72773411Y-71290401D01*
X72773405Y-71290398D01*
X72573284Y-71197080D01*
X72573270Y-71197075D01*
X72359986Y-71139926D01*
X72359976Y-71139924D01*
X72140001Y-71120679D01*
X72139999Y-71120679D01*
X71920023Y-71139924D01*
X71920013Y-71139926D01*
X71706729Y-71197075D01*
X71706720Y-71197079D01*
X71506590Y-71290401D01*
X71441811Y-71335758D01*
X72010591Y-71904537D01*
X71947007Y-71921575D01*
X71832993Y-71987401D01*
X71739901Y-72080493D01*
X71674075Y-72194507D01*
X71657037Y-72258090D01*
X71088258Y-71689311D01*
X71042901Y-71754090D01*
X70949579Y-71954220D01*
X70949575Y-71954229D01*
X70892426Y-72167513D01*
X70892424Y-72167523D01*
X70873179Y-72387499D01*
X70873179Y-72387500D01*
X70892424Y-72607476D01*
X70892426Y-72607486D01*
X70949575Y-72820770D01*
X70949580Y-72820784D01*
X71042898Y-73020905D01*
X71042901Y-73020911D01*
X71088258Y-73085687D01*
X71088258Y-73085688D01*
X71657037Y-72516908D01*
X71674075Y-72580493D01*
X71739901Y-72694507D01*
X71832993Y-72787599D01*
X71947007Y-72853425D01*
X72010590Y-72870462D01*
X71441810Y-73439240D01*
X71506590Y-73484599D01*
X71506592Y-73484600D01*
X71706715Y-73577919D01*
X71706729Y-73577924D01*
X71920013Y-73635073D01*
X71920023Y-73635075D01*
X72139999Y-73654321D01*
X72140001Y-73654321D01*
X72359976Y-73635075D01*
X72359986Y-73635073D01*
X72573270Y-73577924D01*
X72573284Y-73577919D01*
X72773407Y-73484600D01*
X72773417Y-73484594D01*
X72838188Y-73439241D01*
X72269410Y-72870462D01*
X72332993Y-72853425D01*
X72447007Y-72787599D01*
X72540099Y-72694507D01*
X72605925Y-72580493D01*
X72622962Y-72516909D01*
X73191741Y-73085688D01*
X73237094Y-73020917D01*
X73237095Y-73020916D01*
X73297340Y-72891719D01*
X73343512Y-72839280D01*
X73410706Y-72820127D01*
X73477587Y-72840342D01*
X73522105Y-72891718D01*
X73582466Y-73021162D01*
X73582468Y-73021166D01*
X73709170Y-73202115D01*
X73709175Y-73202121D01*
X73865378Y-73358324D01*
X73865384Y-73358329D01*
X74046341Y-73485036D01*
X74051033Y-73487745D01*
X74050178Y-73489224D01*
X74096828Y-73530279D01*
X74116000Y-73596514D01*
X74116000Y-76915022D01*
X74096315Y-76982061D01*
X74079681Y-77002703D01*
X72682703Y-78399681D01*
X72621380Y-78433166D01*
X72595022Y-78436000D01*
X70492396Y-78436000D01*
X70425357Y-78416315D01*
X70379602Y-78363511D01*
X70374690Y-78351004D01*
X70364233Y-78319446D01*
X70334814Y-78230666D01*
X70242712Y-78081344D01*
X70118656Y-77957288D01*
X69969334Y-77865186D01*
X69802797Y-77810001D01*
X69802795Y-77810000D01*
X69700010Y-77799500D01*
X68899998Y-77799500D01*
X68899980Y-77799501D01*
X68797203Y-77810000D01*
X68797200Y-77810001D01*
X68630668Y-77865185D01*
X68630663Y-77865187D01*
X68481342Y-77957289D01*
X68387681Y-78050951D01*
X68326358Y-78084436D01*
X68256666Y-78079452D01*
X68212319Y-78050951D01*
X68118657Y-77957289D01*
X68118656Y-77957288D01*
X67969334Y-77865186D01*
X67802797Y-77810001D01*
X67802795Y-77810000D01*
X67700010Y-77799500D01*
X66899998Y-77799500D01*
X66899980Y-77799501D01*
X66797203Y-77810000D01*
X66797200Y-77810001D01*
X66630668Y-77865185D01*
X66630663Y-77865187D01*
X66481342Y-77957289D01*
X66357289Y-78081342D01*
X66265187Y-78230663D01*
X66265185Y-78230668D01*
X66258621Y-78250478D01*
X66210001Y-78397203D01*
X66210001Y-78397204D01*
X66210000Y-78397204D01*
X66199500Y-78499983D01*
X66199500Y-79500001D01*
X66199501Y-79500019D01*
X66210000Y-79602796D01*
X66210001Y-79602799D01*
X66265185Y-79769331D01*
X66265187Y-79769336D01*
X66299999Y-79825776D01*
X66357288Y-79918656D01*
X66481344Y-80042712D01*
X66590597Y-80110099D01*
X66637321Y-80162047D01*
X66649500Y-80215638D01*
X66649500Y-83184362D01*
X66629815Y-83251401D01*
X66590598Y-83289899D01*
X66522288Y-83332033D01*
X66481342Y-83357289D01*
X66357289Y-83481342D01*
X66265187Y-83630663D01*
X66265186Y-83630666D01*
X66210001Y-83797203D01*
X66210001Y-83797204D01*
X66210000Y-83797204D01*
X66199500Y-83899983D01*
X66199500Y-84900001D01*
X66199501Y-84900019D01*
X66210000Y-85002796D01*
X66210001Y-85002799D01*
X66265185Y-85169331D01*
X66265187Y-85169336D01*
X66299999Y-85225776D01*
X66357288Y-85318656D01*
X66481344Y-85442712D01*
X66590597Y-85510099D01*
X66637321Y-85562047D01*
X66649500Y-85615638D01*
X66649500Y-88184362D01*
X66629815Y-88251401D01*
X66590598Y-88289899D01*
X66522288Y-88332033D01*
X66481342Y-88357289D01*
X66357289Y-88481342D01*
X66265187Y-88630663D01*
X66265184Y-88630671D01*
X66253972Y-88664506D01*
X66214199Y-88721950D01*
X66149683Y-88748772D01*
X66136267Y-88749500D01*
X64274500Y-88749500D01*
X64207461Y-88729815D01*
X64161706Y-88677011D01*
X64150500Y-88625500D01*
X64150500Y-73605067D01*
X64169507Y-73539094D01*
X64225788Y-73449524D01*
X64226277Y-73448127D01*
X64285368Y-73279255D01*
X64285369Y-73279249D01*
X64305565Y-73100003D01*
X64305565Y-73099996D01*
X64285369Y-72920750D01*
X64285368Y-72920745D01*
X64277395Y-72897959D01*
X64225789Y-72750478D01*
X64129816Y-72597738D01*
X64002262Y-72470184D01*
X63975433Y-72453326D01*
X63849523Y-72374211D01*
X63679254Y-72314631D01*
X63679249Y-72314630D01*
X63500004Y-72294435D01*
X63499996Y-72294435D01*
X63320750Y-72314630D01*
X63320745Y-72314631D01*
X63150476Y-72374211D01*
X62997737Y-72470184D01*
X62870184Y-72597737D01*
X62774211Y-72750476D01*
X62714631Y-72920745D01*
X62714630Y-72920750D01*
X62694435Y-73099996D01*
X62000500Y-73099996D01*
X62000500Y-64220168D01*
X99939500Y-64220168D01*
X99939500Y-64379831D01*
X99970645Y-64536406D01*
X99970648Y-64536418D01*
X100031742Y-64683914D01*
X100031744Y-64683918D01*
X100120439Y-64816659D01*
X100120445Y-64816667D01*
X100233332Y-64929554D01*
X100233340Y-64929560D01*
X100366081Y-65018255D01*
X100366085Y-65018257D01*
X100490373Y-65069738D01*
X100513586Y-65079353D01*
X100643161Y-65105127D01*
X100670168Y-65110499D01*
X100670172Y-65110500D01*
X100670173Y-65110500D01*
X100829828Y-65110500D01*
X100829829Y-65110499D01*
X100986414Y-65079353D01*
X101133916Y-65018256D01*
X101133918Y-65018255D01*
X101199844Y-64974203D01*
X101266664Y-64929557D01*
X101379557Y-64816664D01*
X101468256Y-64683916D01*
X101529353Y-64536414D01*
X101560500Y-64379827D01*
X101560500Y-64221153D01*
X110949500Y-64221153D01*
X110949500Y-64378846D01*
X110980261Y-64533489D01*
X110980264Y-64533501D01*
X111040602Y-64679172D01*
X111040609Y-64679185D01*
X111128210Y-64810288D01*
X111128213Y-64810292D01*
X111239707Y-64921786D01*
X111239711Y-64921789D01*
X111370814Y-65009390D01*
X111370827Y-65009397D01*
X111516498Y-65069735D01*
X111516503Y-65069737D01*
X111671153Y-65100499D01*
X111671156Y-65100500D01*
X111671158Y-65100500D01*
X111828844Y-65100500D01*
X111828845Y-65100499D01*
X111983497Y-65069737D01*
X112107784Y-65018256D01*
X112129172Y-65009397D01*
X112129172Y-65009396D01*
X112129179Y-65009394D01*
X112260289Y-64921789D01*
X112371789Y-64810289D01*
X112459394Y-64679179D01*
X112519737Y-64533497D01*
X112550500Y-64378842D01*
X112550500Y-64221158D01*
X112550500Y-64221155D01*
X112550499Y-64221153D01*
X112519738Y-64066510D01*
X112519737Y-64066503D01*
X112518527Y-64063581D01*
X112459397Y-63920827D01*
X112459390Y-63920814D01*
X112371789Y-63789711D01*
X112371786Y-63789707D01*
X112260292Y-63678213D01*
X112260288Y-63678210D01*
X112129185Y-63590609D01*
X112129172Y-63590602D01*
X111983501Y-63530264D01*
X111983489Y-63530261D01*
X111828845Y-63499500D01*
X111828842Y-63499500D01*
X111671158Y-63499500D01*
X111671155Y-63499500D01*
X111516510Y-63530261D01*
X111516498Y-63530264D01*
X111370827Y-63590602D01*
X111370814Y-63590609D01*
X111239711Y-63678210D01*
X111239707Y-63678213D01*
X111128213Y-63789707D01*
X111128210Y-63789711D01*
X111040609Y-63920814D01*
X111040602Y-63920827D01*
X110980264Y-64066498D01*
X110980261Y-64066510D01*
X110949500Y-64221153D01*
X101560500Y-64221153D01*
X101560500Y-64220173D01*
X101529353Y-64063586D01*
X101470221Y-63920827D01*
X101468257Y-63916085D01*
X101468255Y-63916081D01*
X101379560Y-63783340D01*
X101379554Y-63783332D01*
X101266667Y-63670445D01*
X101266659Y-63670439D01*
X101133918Y-63581744D01*
X101133914Y-63581742D01*
X100986418Y-63520648D01*
X100986406Y-63520645D01*
X100829831Y-63489500D01*
X100829827Y-63489500D01*
X100670173Y-63489500D01*
X100670168Y-63489500D01*
X100513593Y-63520645D01*
X100513581Y-63520648D01*
X100366085Y-63581742D01*
X100366081Y-63581744D01*
X100233340Y-63670439D01*
X100233332Y-63670445D01*
X100120445Y-63783332D01*
X100120439Y-63783340D01*
X100031744Y-63916081D01*
X100031742Y-63916085D01*
X99970648Y-64063581D01*
X99970645Y-64063593D01*
X99939500Y-64220168D01*
X62000500Y-64220168D01*
X62000500Y-61131902D01*
X63749500Y-61131902D01*
X63749500Y-61368097D01*
X63786446Y-61601368D01*
X63859433Y-61825996D01*
X63936635Y-61977512D01*
X63966657Y-62036433D01*
X64105483Y-62227510D01*
X64272490Y-62394517D01*
X64463567Y-62533343D01*
X64562991Y-62584002D01*
X64674003Y-62640566D01*
X64674005Y-62640566D01*
X64674008Y-62640568D01*
X64794412Y-62679689D01*
X64898631Y-62713553D01*
X65131903Y-62750500D01*
X65131908Y-62750500D01*
X65368097Y-62750500D01*
X65601368Y-62713553D01*
X65825992Y-62640568D01*
X66036433Y-62533343D01*
X66227510Y-62394517D01*
X66394517Y-62227510D01*
X66533343Y-62036433D01*
X66640568Y-61825992D01*
X66713553Y-61601368D01*
X66750500Y-61368097D01*
X66750500Y-61131902D01*
X66713553Y-60898631D01*
X66708117Y-60881902D01*
X142499500Y-60881902D01*
X142499500Y-61118097D01*
X142536446Y-61351368D01*
X142609433Y-61575996D01*
X142716657Y-61786433D01*
X142855483Y-61977510D01*
X143022490Y-62144517D01*
X143213567Y-62283343D01*
X143312991Y-62334002D01*
X143424003Y-62390566D01*
X143424005Y-62390566D01*
X143424008Y-62390568D01*
X143544412Y-62429689D01*
X143648631Y-62463553D01*
X143881903Y-62500500D01*
X143881908Y-62500500D01*
X144118097Y-62500500D01*
X144351368Y-62463553D01*
X144575992Y-62390568D01*
X144786433Y-62283343D01*
X144977510Y-62144517D01*
X145144517Y-61977510D01*
X145283343Y-61786433D01*
X145390568Y-61575992D01*
X145463553Y-61351368D01*
X145500500Y-61118097D01*
X145500500Y-60881902D01*
X145463553Y-60648631D01*
X145414045Y-60496263D01*
X145390568Y-60424008D01*
X145390566Y-60424005D01*
X145390566Y-60424003D01*
X145283342Y-60213566D01*
X145267194Y-60191340D01*
X145144517Y-60022490D01*
X144977510Y-59855483D01*
X144786433Y-59716657D01*
X144575996Y-59609433D01*
X144351368Y-59536446D01*
X144118097Y-59499500D01*
X144118092Y-59499500D01*
X143881908Y-59499500D01*
X143881903Y-59499500D01*
X143648631Y-59536446D01*
X143424003Y-59609433D01*
X143213566Y-59716657D01*
X143104550Y-59795862D01*
X143022490Y-59855483D01*
X143022488Y-59855485D01*
X143022487Y-59855485D01*
X142855485Y-60022487D01*
X142855485Y-60022488D01*
X142855483Y-60022490D01*
X142795862Y-60104550D01*
X142716657Y-60213566D01*
X142609433Y-60424003D01*
X142536446Y-60648631D01*
X142499500Y-60881902D01*
X66708117Y-60881902D01*
X66640566Y-60674003D01*
X66553817Y-60503750D01*
X66533343Y-60463567D01*
X66394517Y-60272490D01*
X66227510Y-60105483D01*
X66036433Y-59966657D01*
X65825996Y-59859433D01*
X65601368Y-59786446D01*
X65368097Y-59749500D01*
X65368092Y-59749500D01*
X65131908Y-59749500D01*
X65131903Y-59749500D01*
X64898631Y-59786446D01*
X64674003Y-59859433D01*
X64463566Y-59966657D01*
X64354550Y-60045862D01*
X64272490Y-60105483D01*
X64272488Y-60105485D01*
X64272487Y-60105485D01*
X64105485Y-60272487D01*
X64105485Y-60272488D01*
X64105483Y-60272490D01*
X64065130Y-60328031D01*
X63966657Y-60463566D01*
X63859433Y-60674003D01*
X63786446Y-60898631D01*
X63749500Y-61131902D01*
X62000500Y-61131902D01*
X62000500Y-60503750D01*
X62000726Y-60496263D01*
X62018271Y-60206205D01*
X62020076Y-60191340D01*
X62051020Y-60022488D01*
X62071780Y-59909197D01*
X62075364Y-59894663D01*
X62086342Y-59859433D01*
X62160696Y-59620822D01*
X62165998Y-59606841D01*
X62283731Y-59345249D01*
X62290676Y-59332016D01*
X62439080Y-59086526D01*
X62447567Y-59074230D01*
X62624480Y-58848417D01*
X62634395Y-58837226D01*
X62837226Y-58634395D01*
X62848417Y-58624480D01*
X63074230Y-58447567D01*
X63086526Y-58439080D01*
X63332016Y-58290676D01*
X63345249Y-58283731D01*
X63606841Y-58165998D01*
X63620822Y-58160696D01*
X63894668Y-58075362D01*
X63909197Y-58071780D01*
X64191344Y-58020075D01*
X64206201Y-58018271D01*
X64496264Y-58000726D01*
X64503751Y-58000500D01*
X64565892Y-58000500D01*
X144434108Y-58000500D01*
X144496249Y-58000500D01*
X144503736Y-58000726D01*
G37*
G04 #@! TD.AperFunction*
M02*
