M48
; DRILL file {KiCad 8.0.8} date 2025-01-20T22:51:22+0900
; FORMAT={-:-/ absolute / metric / decimal}
; #@! TF.CreationDate,2025-01-20T22:51:22+09:00
; #@! TF.GenerationSoftware,Kicad,Pcbnew,8.0.8
; #@! TF.FileFunction,Plated,1,4,PTH
FMAT,2
METRIC
; #@! TA.AperFunction,Plated,PTH,ViaDrill
T1C0.300
; #@! TA.AperFunction,Plated,PTH,ComponentDrill
T2C0.750
; #@! TA.AperFunction,Plated,PTH,ComponentDrill
T3C1.000
%
G90
G05
T1
X63.5Y-73.1
X64.9Y-66.1
X68.1Y-92.1
X68.2Y-73.1
X69.3Y-81.5
X70.2Y-86.6
X73.9Y-79.3
X74.0Y-89.7
X76.0Y-69.7
X76.1Y-76.1
X76.5Y-81.2
X76.6Y-83.0
X77.0Y-85.0
X77.3Y-82.4
X77.4Y-78.1
X77.6Y-90.3
X78.3Y-69.7
X78.6Y-76.7
X79.4Y-87.1
X79.6Y-84.9
X81.1Y-69.5
X81.2Y-76.7
X82.0Y-65.0
X82.15Y-80.65
X82.3Y-78.6
X83.2Y-69.8
X83.5Y-77.3
X83.7Y-88.2
X84.3Y-91.1
X85.2Y-79.3
X85.7Y-69.9
X86.3Y-77.4
X87.38Y-79.28
X88.0Y-69.8
X89.0Y-77.6
X90.0Y-80.1
X91.0Y-69.9
X91.0Y-76.0
X92.6Y-80.7
X95.4Y-86.3
X95.5Y-75.0
X96.8Y-94.4
X99.4Y-86.2
X99.6Y-75.7
X99.8Y-71.9
X104.9Y-82.3
X105.0Y-63.0
X105.1Y-68.9
X105.1Y-75.3
X105.3Y-72.7
X106.7Y-90.7
X108.7Y-61.6
X108.8Y-81.8
X111.1Y-82.7
X111.4Y-85.1
X111.5Y-72.8
X115.9Y-78.8
X117.5Y-69.3
X117.6Y-86.9
X119.8Y-69.6
X122.2Y-81.8
X122.5Y-88.0
X122.7Y-69.7
X124.7Y-82.5
X125.4Y-69.2
X127.1Y-81.7
X127.2Y-69.6
X130.0Y-63.4
X130.3Y-69.8
X130.5Y-81.9
X131.7Y-89.2
X132.5Y-69.7
X133.0Y-81.9
X135.5Y-70.0
X141.7Y-74.2
T2
X102.25Y-66.4
X104.25Y-66.4
X106.25Y-66.4
X108.25Y-66.4
X110.25Y-66.4
T3
X72.14Y-67.307
X72.14Y-72.388
X74.68Y-67.307
X74.68Y-72.388
X77.22Y-67.307
X77.22Y-72.388
X79.76Y-67.307
X79.76Y-72.388
X82.3Y-67.307
X82.3Y-72.388
X84.84Y-67.307
X84.84Y-72.388
X87.38Y-67.307
X87.38Y-72.388
X89.92Y-67.307
X89.92Y-72.388
X92.46Y-67.307
X92.46Y-72.388
X116.14Y-67.207
X116.14Y-72.287
X118.68Y-67.207
X118.68Y-72.287
X121.22Y-67.207
X121.22Y-72.287
X123.76Y-67.207
X123.76Y-72.287
X126.3Y-67.207
X126.3Y-72.287
X128.84Y-67.207
X128.84Y-72.287
X131.38Y-67.207
X131.38Y-72.287
X133.92Y-67.207
X133.92Y-72.287
X136.46Y-67.207
X136.46Y-72.287
M30
