G04 #@! TF.GenerationSoftware,KiCad,Pcbnew,8.0.8*
G04 #@! TF.CreationDate,2025-01-20T22:51:13+09:00*
G04 #@! TF.ProjectId,house_controller_multiplex_breakout_board_v0.1.0,686f7573-655f-4636-9f6e-74726f6c6c65,rev?*
G04 #@! TF.SameCoordinates,Original*
G04 #@! TF.FileFunction,Paste,Top*
G04 #@! TF.FilePolarity,Positive*
%FSLAX46Y46*%
G04 Gerber Fmt 4.6, Leading zero omitted, Abs format (unit mm)*
G04 Created by KiCad (PCBNEW 8.0.8) date 2025-01-20 22:51:13*
%MOMM*%
%LPD*%
G01*
G04 APERTURE LIST*
G04 Aperture macros list*
%AMRoundRect*
0 Rectangle with rounded corners*
0 $1 Rounding radius*
0 $2 $3 $4 $5 $6 $7 $8 $9 X,Y pos of 4 corners*
0 Add a 4 corners polygon primitive as box body*
4,1,4,$2,$3,$4,$5,$6,$7,$8,$9,$2,$3,0*
0 Add four circle primitives for the rounded corners*
1,1,$1+$1,$2,$3*
1,1,$1+$1,$4,$5*
1,1,$1+$1,$6,$7*
1,1,$1+$1,$8,$9*
0 Add four rect primitives between the rounded corners*
20,1,$1+$1,$2,$3,$4,$5,0*
20,1,$1+$1,$4,$5,$6,$7,0*
20,1,$1+$1,$6,$7,$8,$9,0*
20,1,$1+$1,$8,$9,$2,$3,0*%
G04 Aperture macros list end*
%ADD10RoundRect,0.250000X-0.450000X0.350000X-0.450000X-0.350000X0.450000X-0.350000X0.450000X0.350000X0*%
%ADD11RoundRect,0.250000X-0.350000X-0.450000X0.350000X-0.450000X0.350000X0.450000X-0.350000X0.450000X0*%
%ADD12RoundRect,0.100000X-0.637500X-0.100000X0.637500X-0.100000X0.637500X0.100000X-0.637500X0.100000X0*%
%ADD13RoundRect,0.250000X0.325000X0.450000X-0.325000X0.450000X-0.325000X-0.450000X0.325000X-0.450000X0*%
%ADD14RoundRect,0.250000X0.350000X0.450000X-0.350000X0.450000X-0.350000X-0.450000X0.350000X-0.450000X0*%
G04 APERTURE END LIST*
D10*
X126300000Y-84100000D03*
X126300000Y-86100000D03*
D11*
X67300000Y-79000000D03*
X69300000Y-79000000D03*
D10*
X121300000Y-84100000D03*
X121300000Y-86100000D03*
X98600000Y-78500000D03*
X98600000Y-80500000D03*
D11*
X80000000Y-94500000D03*
X82000000Y-94500000D03*
X72400000Y-81900000D03*
X74400000Y-81900000D03*
X72400000Y-92100000D03*
X74400000Y-92100000D03*
D10*
X114500000Y-81600000D03*
X114500000Y-83600000D03*
X123700000Y-78400000D03*
X123700000Y-80400000D03*
D11*
X72400000Y-87000000D03*
X74400000Y-87000000D03*
D10*
X131300000Y-84300000D03*
X131300000Y-86300000D03*
D12*
X103637500Y-85525000D03*
X103637500Y-86175000D03*
X103637500Y-86825000D03*
X103637500Y-87475000D03*
X103637500Y-88125000D03*
X103637500Y-88775000D03*
X103637500Y-89425000D03*
X103637500Y-90075000D03*
X103637500Y-90725000D03*
X103637500Y-91375000D03*
X103637500Y-92025000D03*
X103637500Y-92675000D03*
X109362500Y-92675000D03*
X109362500Y-92025000D03*
X109362500Y-91375000D03*
X109362500Y-90725000D03*
X109362500Y-90075000D03*
X109362500Y-89425000D03*
X109362500Y-88775000D03*
X109362500Y-88125000D03*
X109362500Y-87475000D03*
X109362500Y-86825000D03*
X109362500Y-86175000D03*
X109362500Y-85525000D03*
D10*
X95000000Y-78400000D03*
X95000000Y-80400000D03*
D13*
X88250000Y-101500000D03*
X86200000Y-101500000D03*
D10*
X102500000Y-78200000D03*
X102500000Y-80200000D03*
D11*
X67300000Y-89400000D03*
X69300000Y-89400000D03*
D10*
X128800000Y-78400000D03*
X128800000Y-80400000D03*
D11*
X67300000Y-84400000D03*
X69300000Y-84400000D03*
X105400000Y-78300000D03*
X107400000Y-78300000D03*
D10*
X118600000Y-78400000D03*
X118600000Y-80400000D03*
X134000000Y-78400000D03*
X134000000Y-80400000D03*
D14*
X112100000Y-78500000D03*
X110100000Y-78500000D03*
D11*
X80000000Y-89900000D03*
X82000000Y-89900000D03*
D14*
X76900000Y-98100000D03*
X74900000Y-98100000D03*
D10*
X136500000Y-84100000D03*
X136500000Y-86100000D03*
M02*
