M48
; DRILL file KiCad 10.0.1 date 2026-05-02T18:28:22
; FORMAT={-:-/ absolute / metric / decimal}
; #@! TF.CreationDate,2026-05-02T18:28:22-04:00
; #@! TF.GenerationSoftware,Kicad,Pcbnew,10.0.1
; #@! TF.FileFunction,Plated,1,4,PTH
FMAT,2
METRIC
; #@! TA.AperFunction,Plated,PTH,ComponentDrill
T1C0.200
; #@! TA.AperFunction,Plated,PTH,ViaDrill
T2C0.300
; #@! TA.AperFunction,Plated,PTH,ComponentDrill
T3C0.400
; #@! TA.AperFunction,Plated,PTH,ComponentDrill
T4C0.600
%
G90
G05
T1
X86.35Y-78.5
X86.35Y-79.9
X87.05Y-77.8
X87.05Y-79.2
X87.05Y-80.6
X87.75Y-78.5
X87.75Y-79.9
X88.45Y-77.8
X88.45Y-79.2
X88.45Y-80.6
X89.15Y-78.5
X89.15Y-79.9
T2
X71.25Y-122.5
X71.5Y-106.75
X72.25Y-90.25
X72.5Y-77.5
X73.25Y-75.5
X73.5Y-81.25
X73.5Y-117.75
X73.75Y-71.5
X74.75Y-97.0
X75.25Y-93.5
X75.75Y-95.75
X75.962Y-71.75
X76.75Y-128.75
X77.0Y-82.75
X77.0Y-107.5
X77.25Y-79.0
X77.25Y-85.5
X77.75Y-127.5
X78.0Y-76.5
X78.0Y-78.0
X79.5Y-71.0
X79.5Y-124.0
X80.375Y-118.5
X80.5Y-96.5
X80.85Y-116.2
X82.25Y-77.25
X82.25Y-81.25
X82.25Y-110.5
X82.75Y-79.25
X83.0Y-84.5
X83.125Y-116.2
X83.5Y-103.75
X83.5Y-105.25
X84.125Y-117.25
X84.432Y-87.931
X84.675Y-90.888
X85.0Y-74.25
X85.068Y-87.295
X85.45Y-117.25
X85.575Y-90.888
X86.125Y-125.948
X86.125Y-127.052
X86.5Y-103.75
X86.5Y-122.25
X86.75Y-105.25
X86.75Y-128.75
X87.0Y-96.75
X88.75Y-124.75
X89.5Y-84.0
X90.25Y-100.5
X90.5Y-80.0
X90.5Y-92.25
X91.0Y-72.5
X91.75Y-128.5
X92.0Y-111.25
X92.5Y-105.5
X92.75Y-124.0
X95.0Y-72.75
X95.5Y-82.5
X96.25Y-93.75
X96.5Y-117.75
X97.25Y-123.5
X97.25Y-125.0
X98.75Y-110.5
X99.0Y-113.5
X99.75Y-105.25
X100.0Y-102.75
X100.25Y-75.75
X100.5Y-97.75
X100.5Y-112.25
X100.5Y-113.75
X100.75Y-82.0
X100.75Y-117.75
X100.75Y-128.0
X101.5Y-76.75
X101.5Y-89.25
X101.5Y-90.75
X101.75Y-114.223
X101.75Y-115.5
X102.473Y-116.5
X102.75Y-84.5
X102.975Y-106.725
X103.75Y-112.75
X104.0Y-94.75
X104.0Y-111.362
X104.027Y-84.5
X104.2Y-105.5
X104.5Y-76.75
X104.5Y-92.25
X104.75Y-116.5
X105.0Y-99.775
X105.35Y-106.65
X106.5Y-88.5
X106.5Y-99.5
X106.637Y-111.25
X106.75Y-113.25
X107.0Y-108.0
X107.25Y-75.75
X107.25Y-97.973
X107.5Y-125.75
X108.0Y-92.25
X108.25Y-117.0
X108.362Y-109.5
X108.75Y-99.75
X109.0Y-97.5
X109.5Y-111.973
X109.5Y-113.027
X109.75Y-100.25
X110.25Y-97.75
X110.25Y-99.027
X110.25Y-107.75
X110.25Y-114.0
X110.5Y-91.75
X110.5Y-111.973
X110.5Y-113.027
X110.612Y-104.75
X110.862Y-106.25
X111.25Y-97.5
X111.35Y-107.88
X111.75Y-100.0
X111.75Y-101.75
X111.75Y-104.027
X111.75Y-113.5
X112.0Y-115.75
X112.25Y-92.0
X112.25Y-106.473
X112.3Y-107.88
X112.3Y-109.315
X113.0Y-98.75
X113.0Y-101.75
X113.5Y-93.25
X113.5Y-106.0
X113.5Y-124.75
X113.75Y-103.75
X113.75Y-104.75
X114.0Y-90.75
X114.25Y-97.0
X114.25Y-109.25
X114.5Y-102.0
X114.723Y-99.75
X115.25Y-79.25
X115.25Y-92.0
X115.25Y-100.75
X115.25Y-110.25
X115.25Y-111.973
X115.25Y-113.25
X115.5Y-106.75
X115.75Y-118.75
X115.827Y-104.75
X116.0Y-103.75
X117.0Y-98.75
X117.5Y-103.25
X118.25Y-107.75
X118.75Y-99.75
X118.75Y-100.75
X118.75Y-113.25
X122.25Y-109.25
X124.25Y-109.0
X125.0Y-112.5
X127.0Y-71.75
X128.0Y-116.0
X128.25Y-89.25
T3
X82.15Y-124.0
X82.15Y-125.35
X83.0Y-124.0
X83.0Y-125.35
X83.85Y-124.0
X83.85Y-125.35
X84.7Y-124.0
X84.7Y-125.35
X85.55Y-124.0
X85.55Y-125.35
X86.4Y-124.0
X86.4Y-125.35
X87.25Y-124.0
X87.25Y-125.35
X88.1Y-124.0
X88.1Y-125.35
T4
X80.8Y-124.23G85X80.8Y-125.73
G05
X80.8Y-127.96G85X80.8Y-128.76
G05
X89.45Y-124.23G85X89.45Y-125.73
G05
X89.45Y-127.96G85X89.45Y-128.76
G05
M30
