%TF.GenerationSoftware,KiCad,Pcbnew,10.0.1*%
%TF.CreationDate,2026-05-02T18:28:15-04:00*%
%TF.ProjectId,esp32_web_radio_v0.0.1,65737033-325f-4776-9562-5f726164696f,rev?*%
%TF.SameCoordinates,Original*%
%TF.FileFunction,Paste,Top*%
%TF.FilePolarity,Positive*%
%FSLAX46Y46*%
G04 Gerber Fmt 4.6, Leading zero omitted, Abs format (unit mm)*
G04 Created by KiCad (PCBNEW 10.0.1) date 2026-05-02 18:28:15*
%MOMM*%
%LPD*%
G01*
G04 APERTURE LIST*
G04 Aperture macros list*
%AMRoundRect*
0 Rectangle with rounded corners*
0 $1 Rounding radius*
0 $2 $3 $4 $5 $6 $7 $8 $9 X,Y pos of 4 corners*
0 Add a 4 corners polygon primitive as box body*
4,1,4,$2,$3,$4,$5,$6,$7,$8,$9,$2,$3,0*
0 Add four circle primitives for the rounded corners*
1,1,$1+$1,$2,$3*
1,1,$1+$1,$4,$5*
1,1,$1+$1,$6,$7*
1,1,$1+$1,$8,$9*
0 Add four rect primitives between the rounded corners*
20,1,$1+$1,$2,$3,$4,$5,0*
20,1,$1+$1,$4,$5,$6,$7,0*
20,1,$1+$1,$6,$7,$8,$9,0*
20,1,$1+$1,$8,$9,$2,$3,0*%
G04 Aperture macros list end*
%ADD10C,0.010000*%
%ADD11RoundRect,0.237500X-0.237500X0.300000X-0.237500X-0.300000X0.237500X-0.300000X0.237500X0.300000X0*%
%ADD12RoundRect,0.250000X0.337500X0.475000X-0.337500X0.475000X-0.337500X-0.475000X0.337500X-0.475000X0*%
%ADD13RoundRect,0.250000X-0.337500X-0.475000X0.337500X-0.475000X0.337500X0.475000X-0.337500X0.475000X0*%
%ADD14RoundRect,0.250000X0.325000X0.450000X-0.325000X0.450000X-0.325000X-0.450000X0.325000X-0.450000X0*%
%ADD15R,1.500000X0.900000*%
%ADD16R,0.900000X1.500000*%
%ADD17R,0.900000X0.900000*%
%ADD18RoundRect,0.250001X-0.499999X-1.449999X0.499999X-1.449999X0.499999X1.449999X-0.499999X1.449999X0*%
%ADD19RoundRect,0.250000X-0.250000X-1.500000X0.250000X-1.500000X0.250000X1.500000X-0.250000X1.500000X0*%
%ADD20R,1.050000X0.650000*%
%ADD21RoundRect,0.250000X-0.350000X-0.450000X0.350000X-0.450000X0.350000X0.450000X-0.350000X0.450000X0*%
%ADD22RoundRect,0.250000X0.450000X-0.350000X0.450000X0.350000X-0.450000X0.350000X-0.450000X-0.350000X0*%
%ADD23RoundRect,0.050000X-0.150000X0.380000X-0.150000X-0.380000X0.150000X-0.380000X0.150000X0.380000X0*%
%ADD24RoundRect,0.150000X0.512500X0.150000X-0.512500X0.150000X-0.512500X-0.150000X0.512500X-0.150000X0*%
%ADD25RoundRect,0.250000X0.350000X0.450000X-0.350000X0.450000X-0.350000X-0.450000X0.350000X-0.450000X0*%
%ADD26R,2.000000X1.500000*%
%ADD27RoundRect,0.250000X-0.412500X-0.650000X0.412500X-0.650000X0.412500X0.650000X-0.412500X0.650000X0*%
%ADD28RoundRect,0.237500X-0.300000X-0.237500X0.300000X-0.237500X0.300000X0.237500X-0.300000X0.237500X0*%
%ADD29RoundRect,0.250000X-0.455000X0.455000X-0.455000X-0.455000X0.455000X-0.455000X0.455000X0.455000X0*%
%ADD30RoundRect,0.062500X-0.062500X0.337500X-0.062500X-0.337500X0.062500X-0.337500X0.062500X0.337500X0*%
%ADD31RoundRect,0.062500X-0.337500X0.062500X-0.337500X-0.062500X0.337500X-0.062500X0.337500X0.062500X0*%
%ADD32RoundRect,0.237500X0.237500X-0.300000X0.237500X0.300000X-0.237500X0.300000X-0.237500X-0.300000X0*%
%ADD33RoundRect,0.237500X0.300000X0.237500X-0.300000X0.237500X-0.300000X-0.237500X0.300000X-0.237500X0*%
%ADD34RoundRect,0.250000X-0.475000X0.337500X-0.475000X-0.337500X0.475000X-0.337500X0.475000X0.337500X0*%
%ADD35R,1.950000X1.200000*%
%ADD36RoundRect,0.150000X0.150000X-0.512500X0.150000X0.512500X-0.150000X0.512500X-0.150000X-0.512500X0*%
G04 APERTURE END LIST*
D10*
%TO.C,U2*%
X113050000Y-109825000D02*
X111550000Y-109825000D01*
X111550000Y-108805000D01*
X113050000Y-108805000D01*
X113050000Y-109825000D01*
G36*
X113050000Y-109825000D02*
G01*
X111550000Y-109825000D01*
X111550000Y-108805000D01*
X113050000Y-108805000D01*
X113050000Y-109825000D01*
G37*
%TD*%
D11*
%TO.C,C4*%
X105000000Y-101500000D03*
X105000000Y-99775000D03*
%TD*%
D12*
%TO.C,C20*%
X125287500Y-116750000D03*
X123212500Y-116750000D03*
%TD*%
D13*
%TO.C,C21*%
X75962500Y-71750000D03*
X78037500Y-71750000D03*
%TD*%
D14*
%TO.C,D1*%
X88475000Y-117250000D03*
X90525000Y-117250000D03*
%TD*%
D15*
%TO.C,U4*%
X98000000Y-71480000D03*
X98000000Y-72750000D03*
X98000000Y-74020000D03*
X98000000Y-75290000D03*
X98000000Y-76560000D03*
X98000000Y-77830000D03*
X98000000Y-79100000D03*
X98000000Y-80370000D03*
X98000000Y-81640000D03*
X98000000Y-82910000D03*
X98000000Y-84180000D03*
X98000000Y-85450000D03*
X98000000Y-86720000D03*
X98000000Y-87990000D03*
D16*
X96235000Y-89240000D03*
X94965000Y-89240000D03*
X93695000Y-89240000D03*
X92425000Y-89240000D03*
X91155000Y-89240000D03*
X89885000Y-89240000D03*
X88615000Y-89240000D03*
X87345000Y-89240000D03*
X86075000Y-89240000D03*
X84805000Y-89240000D03*
X83535000Y-89240000D03*
X82265000Y-89240000D03*
D15*
X80500000Y-87990000D03*
X80500000Y-86720000D03*
X80500000Y-85450000D03*
X80500000Y-84180000D03*
X80500000Y-82910000D03*
X80500000Y-81640000D03*
X80500000Y-80370000D03*
X80500000Y-79100000D03*
X80500000Y-77830000D03*
X80500000Y-76560000D03*
X80500000Y-75290000D03*
X80500000Y-74020000D03*
X80500000Y-72750000D03*
X80500000Y-71480000D03*
D17*
X89150000Y-80600000D03*
X89150000Y-79200000D03*
X89150000Y-77800000D03*
X87750000Y-80600000D03*
X87750000Y-79200000D03*
X87750000Y-77800000D03*
X86350000Y-80600000D03*
X86350000Y-79200000D03*
X86350000Y-77800000D03*
%TD*%
D18*
%TO.C,J3*%
X104100000Y-127250000D03*
X97400000Y-127250000D03*
D19*
X101750000Y-121500000D03*
X99750000Y-121500000D03*
%TD*%
D20*
%TO.C,SW6*%
X123350000Y-111850000D03*
X127500000Y-111850000D03*
X123350000Y-114000000D03*
X127500000Y-114000000D03*
%TD*%
%TO.C,SW5*%
X77075000Y-86575000D03*
X72925000Y-86575000D03*
X77075000Y-84425000D03*
X72925000Y-84425000D03*
%TD*%
D21*
%TO.C,R10*%
X75750000Y-98250000D03*
X73750000Y-98250000D03*
%TD*%
D14*
%TO.C,D3*%
X73700000Y-95750000D03*
X75750000Y-95750000D03*
%TD*%
D13*
%TO.C,C12*%
X123962500Y-98000000D03*
X126037500Y-98000000D03*
%TD*%
%TO.C,C11*%
X126000000Y-80250000D03*
X123925000Y-80250000D03*
%TD*%
D20*
%TO.C,SW3*%
X126900000Y-94575000D03*
X122750000Y-94575000D03*
X126900000Y-92425000D03*
X122750000Y-92425000D03*
%TD*%
D22*
%TO.C,R12*%
X101500000Y-76750000D03*
X101500000Y-78750000D03*
%TD*%
%TO.C,R8*%
X101500000Y-72500000D03*
X101500000Y-74500000D03*
%TD*%
%TO.C,R11*%
X101500000Y-84500000D03*
X101500000Y-86500000D03*
%TD*%
D13*
%TO.C,C13*%
X126000000Y-88750000D03*
X123925000Y-88750000D03*
%TD*%
D23*
%TO.C,U2*%
X113250000Y-107880000D03*
X112300000Y-107880000D03*
X111350000Y-107880000D03*
X111350000Y-110750000D03*
X112300000Y-110750000D03*
X113250000Y-110750000D03*
%TD*%
D24*
%TO.C,D2*%
X83125000Y-117150000D03*
X83125000Y-116200000D03*
X83125000Y-115250000D03*
X80850000Y-115250000D03*
X80850000Y-116200000D03*
X80850000Y-117150000D03*
%TD*%
D25*
%TO.C,R2*%
X82875000Y-120500000D03*
X80875000Y-120500000D03*
%TD*%
%TO.C,R3*%
X75625000Y-120500000D03*
X73625000Y-120500000D03*
%TD*%
D21*
%TO.C,R4*%
X88500000Y-120250000D03*
X90500000Y-120250000D03*
%TD*%
%TO.C,R1*%
X78500000Y-107000000D03*
X80500000Y-107000000D03*
%TD*%
D25*
%TO.C,R6*%
X107750000Y-95750000D03*
X105750000Y-95750000D03*
%TD*%
D21*
%TO.C,R7*%
X76000000Y-76500000D03*
X78000000Y-76500000D03*
%TD*%
D26*
%TO.C,J4*%
X119000000Y-127900000D03*
X112000000Y-127900000D03*
X119000000Y-124500000D03*
X112000000Y-120700000D03*
X112000000Y-118500000D03*
X119000000Y-119000000D03*
%TD*%
D27*
%TO.C,C2*%
X117187500Y-116000000D03*
X120312500Y-116000000D03*
%TD*%
D13*
%TO.C,C18*%
X73712500Y-89500000D03*
X75787500Y-89500000D03*
%TD*%
D11*
%TO.C,C6*%
X103500000Y-98025000D03*
X103500000Y-99750000D03*
%TD*%
D28*
%TO.C,C9*%
X98775000Y-109000000D03*
X100500000Y-109000000D03*
%TD*%
D29*
%TO.C,U3*%
X105075000Y-104625000D03*
X103325000Y-104625000D03*
X105075000Y-106375000D03*
X103325000Y-106375000D03*
D30*
X105950000Y-103050000D03*
X105450000Y-103050000D03*
X104950000Y-103050000D03*
X104450000Y-103050000D03*
X103950000Y-103050000D03*
X103450000Y-103050000D03*
X102950000Y-103050000D03*
X102450000Y-103050000D03*
D31*
X101750000Y-103750000D03*
X101750000Y-104250000D03*
X101750000Y-104750000D03*
X101750000Y-105250000D03*
X101750000Y-105750000D03*
X101750000Y-106250000D03*
X101750000Y-106750000D03*
X101750000Y-107250000D03*
D30*
X102450000Y-107950000D03*
X102950000Y-107950000D03*
X103450000Y-107950000D03*
X103950000Y-107950000D03*
X104450000Y-107950000D03*
X104950000Y-107950000D03*
X105450000Y-107950000D03*
X105950000Y-107950000D03*
D31*
X106650000Y-107250000D03*
X106650000Y-106750000D03*
X106650000Y-106250000D03*
X106650000Y-105750000D03*
X106650000Y-105250000D03*
X106650000Y-104750000D03*
X106650000Y-104250000D03*
X106650000Y-103750000D03*
%TD*%
D25*
%TO.C,R16*%
X109500000Y-93500000D03*
X107500000Y-93500000D03*
%TD*%
D11*
%TO.C,C14*%
X106500000Y-99500000D03*
X106500000Y-101225000D03*
%TD*%
D32*
%TO.C,C16*%
X102500000Y-112612500D03*
X102500000Y-110887500D03*
%TD*%
D28*
%TO.C,C8*%
X98387500Y-107500000D03*
X100112500Y-107500000D03*
%TD*%
D33*
%TO.C,C17*%
X108362500Y-109500000D03*
X106637500Y-109500000D03*
%TD*%
D27*
%TO.C,C1*%
X110500000Y-116000000D03*
X113625000Y-116000000D03*
%TD*%
D21*
%TO.C,R15*%
X80750000Y-91750000D03*
X82750000Y-91750000D03*
%TD*%
%TO.C,R9*%
X74000000Y-78750000D03*
X76000000Y-78750000D03*
%TD*%
D33*
%TO.C,C7*%
X110862500Y-106250000D03*
X109137500Y-106250000D03*
%TD*%
D20*
%TO.C,SW2*%
X122750000Y-74250000D03*
X126900000Y-74250000D03*
X122750000Y-76400000D03*
X126900000Y-76400000D03*
%TD*%
D33*
%TO.C,C5*%
X110612500Y-104750000D03*
X108887500Y-104750000D03*
%TD*%
D25*
%TO.C,R17*%
X101500000Y-96000000D03*
X99500000Y-96000000D03*
%TD*%
D33*
%TO.C,C19*%
X108362500Y-111250000D03*
X106637500Y-111250000D03*
%TD*%
D34*
%TO.C,C3*%
X115250000Y-108175000D03*
X115250000Y-110250000D03*
%TD*%
D33*
%TO.C,C10*%
X109975000Y-101750000D03*
X108250000Y-101750000D03*
%TD*%
D21*
%TO.C,R13*%
X73750000Y-92000000D03*
X75750000Y-92000000D03*
%TD*%
D20*
%TO.C,SW4*%
X122750000Y-83337500D03*
X126900000Y-83337500D03*
X122750000Y-85487500D03*
X126900000Y-85487500D03*
%TD*%
D32*
%TO.C,C15*%
X104000000Y-111362500D03*
X104000000Y-109637500D03*
%TD*%
D25*
%TO.C,R5*%
X112250000Y-96500000D03*
X110250000Y-96500000D03*
%TD*%
D21*
%TO.C,R14*%
X125500000Y-109250000D03*
X127500000Y-109250000D03*
%TD*%
D13*
%TO.C,C22*%
X75962500Y-74250000D03*
X78037500Y-74250000D03*
%TD*%
D35*
%TO.C,SW1*%
X77750000Y-109500000D03*
X77750000Y-112000000D03*
X77750000Y-114500000D03*
X72100000Y-109500000D03*
X72100000Y-112000000D03*
X72100000Y-114500000D03*
%TD*%
D36*
%TO.C,U1*%
X117350000Y-109112500D03*
X119250000Y-109112500D03*
X119250000Y-111387500D03*
X118300000Y-111387500D03*
X117350000Y-111387500D03*
%TD*%
M02*
