G04 #@! TF.GenerationSoftware,KiCad,Pcbnew,9.0.0*
G04 #@! TF.CreationDate,2025-03-06T07:06:35+09:00*
G04 #@! TF.ProjectId,house_controller_multiplex_breakout_board_v0.2.2,686f7573-655f-4636-9f6e-74726f6c6c65,rev?*
G04 #@! TF.SameCoordinates,Original*
G04 #@! TF.FileFunction,Paste,Top*
G04 #@! TF.FilePolarity,Positive*
%FSLAX46Y46*%
G04 Gerber Fmt 4.6, Leading zero omitted, Abs format (unit mm)*
G04 Created by KiCad (PCBNEW 9.0.0) date 2025-03-06 07:06:35*
%MOMM*%
%LPD*%
G01*
G04 APERTURE LIST*
G04 Aperture macros list*
%AMRoundRect*
0 Rectangle with rounded corners*
0 $1 Rounding radius*
0 $2 $3 $4 $5 $6 $7 $8 $9 X,Y pos of 4 corners*
0 Add a 4 corners polygon primitive as box body*
4,1,4,$2,$3,$4,$5,$6,$7,$8,$9,$2,$3,0*
0 Add four circle primitives for the rounded corners*
1,1,$1+$1,$2,$3*
1,1,$1+$1,$4,$5*
1,1,$1+$1,$6,$7*
1,1,$1+$1,$8,$9*
0 Add four rect primitives between the rounded corners*
20,1,$1+$1,$2,$3,$4,$5,0*
20,1,$1+$1,$4,$5,$6,$7,0*
20,1,$1+$1,$6,$7,$8,$9,0*
20,1,$1+$1,$8,$9,$2,$3,0*%
G04 Aperture macros list end*
%ADD10RoundRect,0.250000X-0.450000X0.350000X-0.450000X-0.350000X0.450000X-0.350000X0.450000X0.350000X0*%
%ADD11RoundRect,0.250000X0.450000X-0.350000X0.450000X0.350000X-0.450000X0.350000X-0.450000X-0.350000X0*%
%ADD12RoundRect,0.250000X-0.450000X0.325000X-0.450000X-0.325000X0.450000X-0.325000X0.450000X0.325000X0*%
%ADD13RoundRect,0.100000X-0.637500X-0.100000X0.637500X-0.100000X0.637500X0.100000X-0.637500X0.100000X0*%
G04 APERTURE END LIST*
D10*
X101900000Y-91725000D03*
X101900000Y-93725000D03*
X124300000Y-101200000D03*
X124300000Y-103200000D03*
D11*
X76685714Y-103200000D03*
X76685714Y-101200000D03*
D10*
X95880000Y-74500000D03*
X95880000Y-76500000D03*
X105900000Y-74500000D03*
X105900000Y-76500000D03*
D11*
X92000000Y-103200000D03*
X92000000Y-101200000D03*
D10*
X116300000Y-101200000D03*
X116300000Y-103200000D03*
X139300000Y-101200000D03*
X139300000Y-103200000D03*
X102560000Y-74500000D03*
X102560000Y-76500000D03*
D12*
X106400000Y-91700000D03*
X106400000Y-93750000D03*
D13*
X101275000Y-79900000D03*
X101275000Y-80550000D03*
X101275000Y-81200000D03*
X101275000Y-81850000D03*
X101275000Y-82500000D03*
X101275000Y-83150000D03*
X101275000Y-83800000D03*
X101275000Y-84450000D03*
X101275000Y-85100000D03*
X101275000Y-85750000D03*
X101275000Y-86400000D03*
X101275000Y-87050000D03*
X107000000Y-87050000D03*
X107000000Y-86400000D03*
X107000000Y-85750000D03*
X107000000Y-85100000D03*
X107000000Y-84450000D03*
X107000000Y-83800000D03*
X107000000Y-83150000D03*
X107000000Y-82500000D03*
X107000000Y-81850000D03*
X107000000Y-81200000D03*
X107000000Y-80550000D03*
X107000000Y-79900000D03*
D10*
X135400000Y-101200000D03*
X135400000Y-103200000D03*
X109240000Y-74400000D03*
X109240000Y-76400000D03*
X128100000Y-101200000D03*
X128100000Y-103200000D03*
D11*
X88171429Y-103200000D03*
X88171429Y-101200000D03*
D10*
X112580000Y-74400000D03*
X112580000Y-76400000D03*
D11*
X69028571Y-103200000D03*
X69028571Y-101200000D03*
D10*
X131600000Y-101200000D03*
X131600000Y-103200000D03*
X120200000Y-101200000D03*
X120200000Y-103200000D03*
D11*
X84342857Y-103200000D03*
X84342857Y-101200000D03*
X80514286Y-103200000D03*
X80514286Y-101200000D03*
D10*
X99220000Y-74500000D03*
X99220000Y-76500000D03*
X143000000Y-101200000D03*
X143000000Y-103200000D03*
D11*
X65200000Y-103200000D03*
X65200000Y-101200000D03*
X72857143Y-103200000D03*
X72857143Y-101200000D03*
M02*
