%TF.GenerationSoftware,KiCad,Pcbnew,9.0.0*%
%TF.CreationDate,2025-03-06T07:06:53+09:00*%
%TF.ProjectId,house_controller_multiplex_breakout_board_v0.2.2,686f7573-655f-4636-9f6e-74726f6c6c65,rev?*%
%TF.SameCoordinates,Original*%
%TF.FileFunction,Drillmap*%
%TF.FilePolarity,Positive*%
%FSLAX45Y45*%
G04 Gerber Fmt 4.5, Leading zero omitted, Abs format (unit mm)*
G04 Created by KiCad (PCBNEW 9.0.0) date 2025-03-06 07:06:53*
%MOMM*%
%LPD*%
G01*
G04 APERTURE LIST*
%ADD10C,0.038100*%
%ADD11C,0.200000*%
%ADD12C,0.110000*%
%ADD13C,0.112000*%
%ADD14C,0.250000*%
G04 APERTURE END LIST*
D10*
X15260000Y-10317870D02*
G75*
G02*
X14960000Y-10617870I-300000J0D01*
G01*
X15260000Y-10317870D02*
X15260000Y-6050000D01*
X5860000Y-10617868D02*
X14960000Y-10617870D01*
X14950000Y-5740000D02*
G75*
G02*
X15260000Y-6050000I0J-310000D01*
G01*
X5560000Y-6050000D02*
G75*
G02*
X5860000Y-5750000I300000J0D01*
G01*
X14950000Y-5740000D02*
X5860000Y-5750000D01*
X5560000Y-6050000D02*
X5560000Y-10317868D01*
X5860000Y-10617868D02*
G75*
G02*
X5560002Y-10317868I0J299998D01*
G01*
D11*
D12*
X6275000Y-9095000D02*
X6385000Y-9205000D01*
X6385000Y-9095000D02*
X6275000Y-9205000D01*
X6725000Y-6345000D02*
X6835000Y-6455000D01*
X6835000Y-6345000D02*
X6725000Y-6455000D01*
X7155000Y-9095000D02*
X7265000Y-9205000D01*
X7265000Y-9095000D02*
X7155000Y-9205000D01*
X7608333Y-6345000D02*
X7718333Y-6455000D01*
X7718333Y-6345000D02*
X7608333Y-6455000D01*
X8045000Y-9095000D02*
X8155000Y-9205000D01*
X8155000Y-9095000D02*
X8045000Y-9205000D01*
X8491667Y-6345000D02*
X8601667Y-6455000D01*
X8601667Y-6345000D02*
X8491667Y-6455000D01*
X8925000Y-9095000D02*
X9035000Y-9205000D01*
X9035000Y-9095000D02*
X8925000Y-9205000D01*
X9375000Y-6345000D02*
X9485000Y-6455000D01*
X9485000Y-6345000D02*
X9375000Y-6455000D01*
X10900000Y-6345000D02*
X11010000Y-6455000D01*
X11010000Y-6345000D02*
X10900000Y-6455000D01*
X11845000Y-6355000D02*
X11955000Y-6465000D01*
X11955000Y-6355000D02*
X11845000Y-6465000D01*
X12255000Y-9085000D02*
X12365000Y-9195000D01*
X12365000Y-9085000D02*
X12255000Y-9195000D01*
X12695000Y-6355000D02*
X12805000Y-6465000D01*
X12805000Y-6355000D02*
X12695000Y-6465000D01*
X13135000Y-9075000D02*
X13245000Y-9185000D01*
X13245000Y-9075000D02*
X13135000Y-9185000D01*
X13595000Y-6345000D02*
X13705000Y-6455000D01*
X13705000Y-6345000D02*
X13595000Y-6455000D01*
X14025000Y-9075000D02*
X14135000Y-9185000D01*
X14135000Y-9075000D02*
X14025000Y-9185000D01*
X14475000Y-6345000D02*
X14585000Y-6455000D01*
X14585000Y-6345000D02*
X14475000Y-6455000D01*
X14905000Y-9075000D02*
X15015000Y-9185000D01*
X15015000Y-9075000D02*
X14905000Y-9185000D01*
D13*
X5886000Y-9150000D02*
G75*
G02*
X5774000Y-9150000I-56000J0D01*
G01*
X5774000Y-9150000D02*
G75*
G02*
X5886000Y-9150000I56000J0D01*
G01*
X6336000Y-6400000D02*
G75*
G02*
X6224000Y-6400000I-56000J0D01*
G01*
X6224000Y-6400000D02*
G75*
G02*
X6336000Y-6400000I56000J0D01*
G01*
X6766000Y-9150000D02*
G75*
G02*
X6654000Y-9150000I-56000J0D01*
G01*
X6654000Y-9150000D02*
G75*
G02*
X6766000Y-9150000I56000J0D01*
G01*
X7219333Y-6400000D02*
G75*
G02*
X7107333Y-6400000I-56000J0D01*
G01*
X7107333Y-6400000D02*
G75*
G02*
X7219333Y-6400000I56000J0D01*
G01*
X7656000Y-9150000D02*
G75*
G02*
X7544000Y-9150000I-56000J0D01*
G01*
X7544000Y-9150000D02*
G75*
G02*
X7656000Y-9150000I56000J0D01*
G01*
X8102667Y-6400000D02*
G75*
G02*
X7990667Y-6400000I-56000J0D01*
G01*
X7990667Y-6400000D02*
G75*
G02*
X8102667Y-6400000I56000J0D01*
G01*
X8536000Y-9150000D02*
G75*
G02*
X8424000Y-9150000I-56000J0D01*
G01*
X8424000Y-9150000D02*
G75*
G02*
X8536000Y-9150000I56000J0D01*
G01*
X8986000Y-6400000D02*
G75*
G02*
X8874000Y-6400000I-56000J0D01*
G01*
X8874000Y-6400000D02*
G75*
G02*
X8986000Y-6400000I56000J0D01*
G01*
X9911000Y-6400000D02*
G75*
G02*
X9799000Y-6400000I-56000J0D01*
G01*
X9799000Y-6400000D02*
G75*
G02*
X9911000Y-6400000I56000J0D01*
G01*
X11456000Y-6410000D02*
G75*
G02*
X11344000Y-6410000I-56000J0D01*
G01*
X11344000Y-6410000D02*
G75*
G02*
X11456000Y-6410000I56000J0D01*
G01*
X11866000Y-9140000D02*
G75*
G02*
X11754000Y-9140000I-56000J0D01*
G01*
X11754000Y-9140000D02*
G75*
G02*
X11866000Y-9140000I56000J0D01*
G01*
X12306000Y-6410000D02*
G75*
G02*
X12194000Y-6410000I-56000J0D01*
G01*
X12194000Y-6410000D02*
G75*
G02*
X12306000Y-6410000I56000J0D01*
G01*
X12746000Y-9130000D02*
G75*
G02*
X12634000Y-9130000I-56000J0D01*
G01*
X12634000Y-9130000D02*
G75*
G02*
X12746000Y-9130000I56000J0D01*
G01*
X13206000Y-6400000D02*
G75*
G02*
X13094000Y-6400000I-56000J0D01*
G01*
X13094000Y-6400000D02*
G75*
G02*
X13206000Y-6400000I56000J0D01*
G01*
X13636000Y-9130000D02*
G75*
G02*
X13524000Y-9130000I-56000J0D01*
G01*
X13524000Y-9130000D02*
G75*
G02*
X13636000Y-9130000I56000J0D01*
G01*
X14086000Y-6400000D02*
G75*
G02*
X13974000Y-6400000I-56000J0D01*
G01*
X13974000Y-6400000D02*
G75*
G02*
X14086000Y-6400000I56000J0D01*
G01*
X14516000Y-9130000D02*
G75*
G02*
X14404000Y-9130000I-56000J0D01*
G01*
X14404000Y-9130000D02*
G75*
G02*
X14516000Y-9130000I56000J0D01*
G01*
D14*
X5910000Y-5975000D02*
X5910000Y-6225000D01*
X5785000Y-6100000D02*
X6035000Y-6100000D01*
X5920000Y-10135000D02*
X5920000Y-10385000D01*
X5795000Y-10260000D02*
X6045000Y-10260000D01*
X14900000Y-5985000D02*
X14900000Y-6235000D01*
X14775000Y-6110000D02*
X15025000Y-6110000D01*
X14900000Y-10135000D02*
X14900000Y-10385000D01*
X14775000Y-10260000D02*
X15025000Y-10260000D01*
D11*
X5818872Y-10931259D02*
X5818872Y-10731259D01*
X5818872Y-10731259D02*
X5866491Y-10731259D01*
X5866491Y-10731259D02*
X5895062Y-10740783D01*
X5895062Y-10740783D02*
X5914110Y-10759830D01*
X5914110Y-10759830D02*
X5923634Y-10778878D01*
X5923634Y-10778878D02*
X5933157Y-10816973D01*
X5933157Y-10816973D02*
X5933157Y-10845545D01*
X5933157Y-10845545D02*
X5923634Y-10883640D01*
X5923634Y-10883640D02*
X5914110Y-10902687D01*
X5914110Y-10902687D02*
X5895062Y-10921735D01*
X5895062Y-10921735D02*
X5866491Y-10931259D01*
X5866491Y-10931259D02*
X5818872Y-10931259D01*
X6018872Y-10931259D02*
X6018872Y-10797925D01*
X6018872Y-10836021D02*
X6028396Y-10816973D01*
X6028396Y-10816973D02*
X6037919Y-10807449D01*
X6037919Y-10807449D02*
X6056967Y-10797925D01*
X6056967Y-10797925D02*
X6076015Y-10797925D01*
X6142681Y-10931259D02*
X6142681Y-10797925D01*
X6142681Y-10731259D02*
X6133157Y-10740783D01*
X6133157Y-10740783D02*
X6142681Y-10750306D01*
X6142681Y-10750306D02*
X6152205Y-10740783D01*
X6152205Y-10740783D02*
X6142681Y-10731259D01*
X6142681Y-10731259D02*
X6142681Y-10750306D01*
X6266491Y-10931259D02*
X6247443Y-10921735D01*
X6247443Y-10921735D02*
X6237919Y-10902687D01*
X6237919Y-10902687D02*
X6237919Y-10731259D01*
X6371253Y-10931259D02*
X6352205Y-10921735D01*
X6352205Y-10921735D02*
X6342681Y-10902687D01*
X6342681Y-10902687D02*
X6342681Y-10731259D01*
X6599824Y-10931259D02*
X6599824Y-10731259D01*
X6599824Y-10731259D02*
X6666491Y-10874116D01*
X6666491Y-10874116D02*
X6733157Y-10731259D01*
X6733157Y-10731259D02*
X6733157Y-10931259D01*
X6914110Y-10931259D02*
X6914110Y-10826497D01*
X6914110Y-10826497D02*
X6904586Y-10807449D01*
X6904586Y-10807449D02*
X6885538Y-10797925D01*
X6885538Y-10797925D02*
X6847443Y-10797925D01*
X6847443Y-10797925D02*
X6828396Y-10807449D01*
X6914110Y-10921735D02*
X6895062Y-10931259D01*
X6895062Y-10931259D02*
X6847443Y-10931259D01*
X6847443Y-10931259D02*
X6828396Y-10921735D01*
X6828396Y-10921735D02*
X6818872Y-10902687D01*
X6818872Y-10902687D02*
X6818872Y-10883640D01*
X6818872Y-10883640D02*
X6828396Y-10864592D01*
X6828396Y-10864592D02*
X6847443Y-10855068D01*
X6847443Y-10855068D02*
X6895062Y-10855068D01*
X6895062Y-10855068D02*
X6914110Y-10845545D01*
X7009348Y-10797925D02*
X7009348Y-10997925D01*
X7009348Y-10807449D02*
X7028396Y-10797925D01*
X7028396Y-10797925D02*
X7066491Y-10797925D01*
X7066491Y-10797925D02*
X7085538Y-10807449D01*
X7085538Y-10807449D02*
X7095062Y-10816973D01*
X7095062Y-10816973D02*
X7104586Y-10836021D01*
X7104586Y-10836021D02*
X7104586Y-10893164D01*
X7104586Y-10893164D02*
X7095062Y-10912211D01*
X7095062Y-10912211D02*
X7085538Y-10921735D01*
X7085538Y-10921735D02*
X7066491Y-10931259D01*
X7066491Y-10931259D02*
X7028396Y-10931259D01*
X7028396Y-10931259D02*
X7009348Y-10921735D01*
X7190300Y-10912211D02*
X7199824Y-10921735D01*
X7199824Y-10921735D02*
X7190300Y-10931259D01*
X7190300Y-10931259D02*
X7180777Y-10921735D01*
X7180777Y-10921735D02*
X7190300Y-10912211D01*
X7190300Y-10912211D02*
X7190300Y-10931259D01*
X7190300Y-10807449D02*
X7199824Y-10816973D01*
X7199824Y-10816973D02*
X7190300Y-10826497D01*
X7190300Y-10826497D02*
X7180777Y-10816973D01*
X7180777Y-10816973D02*
X7190300Y-10807449D01*
X7190300Y-10807449D02*
X7190300Y-10826497D01*
D12*
X5448095Y-11204775D02*
X5558095Y-11314775D01*
X5558095Y-11204775D02*
X5448095Y-11314775D01*
D11*
X5923634Y-11351259D02*
X5809348Y-11351259D01*
X5866491Y-11351259D02*
X5866491Y-11151259D01*
X5866491Y-11151259D02*
X5847443Y-11179830D01*
X5847443Y-11179830D02*
X5828396Y-11198878D01*
X5828396Y-11198878D02*
X5809348Y-11208402D01*
X6009348Y-11332211D02*
X6018872Y-11341735D01*
X6018872Y-11341735D02*
X6009348Y-11351259D01*
X6009348Y-11351259D02*
X5999824Y-11341735D01*
X5999824Y-11341735D02*
X6009348Y-11332211D01*
X6009348Y-11332211D02*
X6009348Y-11351259D01*
X6209348Y-11351259D02*
X6095062Y-11351259D01*
X6152205Y-11351259D02*
X6152205Y-11151259D01*
X6152205Y-11151259D02*
X6133157Y-11179830D01*
X6133157Y-11179830D02*
X6114110Y-11198878D01*
X6114110Y-11198878D02*
X6095062Y-11208402D01*
X6333157Y-11151259D02*
X6352205Y-11151259D01*
X6352205Y-11151259D02*
X6371253Y-11160783D01*
X6371253Y-11160783D02*
X6380777Y-11170306D01*
X6380777Y-11170306D02*
X6390300Y-11189354D01*
X6390300Y-11189354D02*
X6399824Y-11227449D01*
X6399824Y-11227449D02*
X6399824Y-11275068D01*
X6399824Y-11275068D02*
X6390300Y-11313163D01*
X6390300Y-11313163D02*
X6380777Y-11332211D01*
X6380777Y-11332211D02*
X6371253Y-11341735D01*
X6371253Y-11341735D02*
X6352205Y-11351259D01*
X6352205Y-11351259D02*
X6333157Y-11351259D01*
X6333157Y-11351259D02*
X6314110Y-11341735D01*
X6314110Y-11341735D02*
X6304586Y-11332211D01*
X6304586Y-11332211D02*
X6295062Y-11313163D01*
X6295062Y-11313163D02*
X6285538Y-11275068D01*
X6285538Y-11275068D02*
X6285538Y-11227449D01*
X6285538Y-11227449D02*
X6295062Y-11189354D01*
X6295062Y-11189354D02*
X6304586Y-11170306D01*
X6304586Y-11170306D02*
X6314110Y-11160783D01*
X6314110Y-11160783D02*
X6333157Y-11151259D01*
X6523634Y-11151259D02*
X6542681Y-11151259D01*
X6542681Y-11151259D02*
X6561729Y-11160783D01*
X6561729Y-11160783D02*
X6571253Y-11170306D01*
X6571253Y-11170306D02*
X6580777Y-11189354D01*
X6580777Y-11189354D02*
X6590300Y-11227449D01*
X6590300Y-11227449D02*
X6590300Y-11275068D01*
X6590300Y-11275068D02*
X6580777Y-11313163D01*
X6580777Y-11313163D02*
X6571253Y-11332211D01*
X6571253Y-11332211D02*
X6561729Y-11341735D01*
X6561729Y-11341735D02*
X6542681Y-11351259D01*
X6542681Y-11351259D02*
X6523634Y-11351259D01*
X6523634Y-11351259D02*
X6504586Y-11341735D01*
X6504586Y-11341735D02*
X6495062Y-11332211D01*
X6495062Y-11332211D02*
X6485538Y-11313163D01*
X6485538Y-11313163D02*
X6476015Y-11275068D01*
X6476015Y-11275068D02*
X6476015Y-11227449D01*
X6476015Y-11227449D02*
X6485538Y-11189354D01*
X6485538Y-11189354D02*
X6495062Y-11170306D01*
X6495062Y-11170306D02*
X6504586Y-11160783D01*
X6504586Y-11160783D02*
X6523634Y-11151259D01*
X6676015Y-11351259D02*
X6676015Y-11217925D01*
X6676015Y-11236973D02*
X6685538Y-11227449D01*
X6685538Y-11227449D02*
X6704586Y-11217925D01*
X6704586Y-11217925D02*
X6733158Y-11217925D01*
X6733158Y-11217925D02*
X6752205Y-11227449D01*
X6752205Y-11227449D02*
X6761729Y-11246497D01*
X6761729Y-11246497D02*
X6761729Y-11351259D01*
X6761729Y-11246497D02*
X6771253Y-11227449D01*
X6771253Y-11227449D02*
X6790300Y-11217925D01*
X6790300Y-11217925D02*
X6818872Y-11217925D01*
X6818872Y-11217925D02*
X6837919Y-11227449D01*
X6837919Y-11227449D02*
X6847443Y-11246497D01*
X6847443Y-11246497D02*
X6847443Y-11351259D01*
X6942681Y-11351259D02*
X6942681Y-11217925D01*
X6942681Y-11236973D02*
X6952205Y-11227449D01*
X6952205Y-11227449D02*
X6971253Y-11217925D01*
X6971253Y-11217925D02*
X6999824Y-11217925D01*
X6999824Y-11217925D02*
X7018872Y-11227449D01*
X7018872Y-11227449D02*
X7028396Y-11246497D01*
X7028396Y-11246497D02*
X7028396Y-11351259D01*
X7028396Y-11246497D02*
X7037919Y-11227449D01*
X7037919Y-11227449D02*
X7056967Y-11217925D01*
X7056967Y-11217925D02*
X7085538Y-11217925D01*
X7085538Y-11217925D02*
X7104586Y-11227449D01*
X7104586Y-11227449D02*
X7114110Y-11246497D01*
X7114110Y-11246497D02*
X7114110Y-11351259D01*
X7504586Y-11141735D02*
X7333158Y-11398878D01*
X7761729Y-11151259D02*
X7780777Y-11151259D01*
X7780777Y-11151259D02*
X7799824Y-11160783D01*
X7799824Y-11160783D02*
X7809348Y-11170306D01*
X7809348Y-11170306D02*
X7818872Y-11189354D01*
X7818872Y-11189354D02*
X7828396Y-11227449D01*
X7828396Y-11227449D02*
X7828396Y-11275068D01*
X7828396Y-11275068D02*
X7818872Y-11313163D01*
X7818872Y-11313163D02*
X7809348Y-11332211D01*
X7809348Y-11332211D02*
X7799824Y-11341735D01*
X7799824Y-11341735D02*
X7780777Y-11351259D01*
X7780777Y-11351259D02*
X7761729Y-11351259D01*
X7761729Y-11351259D02*
X7742681Y-11341735D01*
X7742681Y-11341735D02*
X7733158Y-11332211D01*
X7733158Y-11332211D02*
X7723634Y-11313163D01*
X7723634Y-11313163D02*
X7714110Y-11275068D01*
X7714110Y-11275068D02*
X7714110Y-11227449D01*
X7714110Y-11227449D02*
X7723634Y-11189354D01*
X7723634Y-11189354D02*
X7733158Y-11170306D01*
X7733158Y-11170306D02*
X7742681Y-11160783D01*
X7742681Y-11160783D02*
X7761729Y-11151259D01*
X7914110Y-11332211D02*
X7923634Y-11341735D01*
X7923634Y-11341735D02*
X7914110Y-11351259D01*
X7914110Y-11351259D02*
X7904586Y-11341735D01*
X7904586Y-11341735D02*
X7914110Y-11332211D01*
X7914110Y-11332211D02*
X7914110Y-11351259D01*
X8047443Y-11151259D02*
X8066491Y-11151259D01*
X8066491Y-11151259D02*
X8085539Y-11160783D01*
X8085539Y-11160783D02*
X8095062Y-11170306D01*
X8095062Y-11170306D02*
X8104586Y-11189354D01*
X8104586Y-11189354D02*
X8114110Y-11227449D01*
X8114110Y-11227449D02*
X8114110Y-11275068D01*
X8114110Y-11275068D02*
X8104586Y-11313163D01*
X8104586Y-11313163D02*
X8095062Y-11332211D01*
X8095062Y-11332211D02*
X8085539Y-11341735D01*
X8085539Y-11341735D02*
X8066491Y-11351259D01*
X8066491Y-11351259D02*
X8047443Y-11351259D01*
X8047443Y-11351259D02*
X8028396Y-11341735D01*
X8028396Y-11341735D02*
X8018872Y-11332211D01*
X8018872Y-11332211D02*
X8009348Y-11313163D01*
X8009348Y-11313163D02*
X7999824Y-11275068D01*
X7999824Y-11275068D02*
X7999824Y-11227449D01*
X7999824Y-11227449D02*
X8009348Y-11189354D01*
X8009348Y-11189354D02*
X8018872Y-11170306D01*
X8018872Y-11170306D02*
X8028396Y-11160783D01*
X8028396Y-11160783D02*
X8047443Y-11151259D01*
X8285539Y-11217925D02*
X8285539Y-11351259D01*
X8237920Y-11141735D02*
X8190301Y-11284592D01*
X8190301Y-11284592D02*
X8314110Y-11284592D01*
X8371253Y-11151259D02*
X8495063Y-11151259D01*
X8495063Y-11151259D02*
X8428396Y-11227449D01*
X8428396Y-11227449D02*
X8456967Y-11227449D01*
X8456967Y-11227449D02*
X8476015Y-11236973D01*
X8476015Y-11236973D02*
X8485539Y-11246497D01*
X8485539Y-11246497D02*
X8495063Y-11265544D01*
X8495063Y-11265544D02*
X8495063Y-11313163D01*
X8495063Y-11313163D02*
X8485539Y-11332211D01*
X8485539Y-11332211D02*
X8476015Y-11341735D01*
X8476015Y-11341735D02*
X8456967Y-11351259D01*
X8456967Y-11351259D02*
X8399824Y-11351259D01*
X8399824Y-11351259D02*
X8380777Y-11341735D01*
X8380777Y-11341735D02*
X8371253Y-11332211D01*
X8561729Y-11151259D02*
X8685539Y-11151259D01*
X8685539Y-11151259D02*
X8618872Y-11227449D01*
X8618872Y-11227449D02*
X8647444Y-11227449D01*
X8647444Y-11227449D02*
X8666491Y-11236973D01*
X8666491Y-11236973D02*
X8676015Y-11246497D01*
X8676015Y-11246497D02*
X8685539Y-11265544D01*
X8685539Y-11265544D02*
X8685539Y-11313163D01*
X8685539Y-11313163D02*
X8676015Y-11332211D01*
X8676015Y-11332211D02*
X8666491Y-11341735D01*
X8666491Y-11341735D02*
X8647444Y-11351259D01*
X8647444Y-11351259D02*
X8590301Y-11351259D01*
X8590301Y-11351259D02*
X8571253Y-11341735D01*
X8571253Y-11341735D02*
X8561729Y-11332211D01*
X8761729Y-11151259D02*
X8761729Y-11189354D01*
X8837920Y-11151259D02*
X8837920Y-11189354D01*
X9133158Y-11427449D02*
X9123634Y-11417925D01*
X9123634Y-11417925D02*
X9104586Y-11389354D01*
X9104586Y-11389354D02*
X9095063Y-11370306D01*
X9095063Y-11370306D02*
X9085539Y-11341735D01*
X9085539Y-11341735D02*
X9076015Y-11294116D01*
X9076015Y-11294116D02*
X9076015Y-11256021D01*
X9076015Y-11256021D02*
X9085539Y-11208402D01*
X9085539Y-11208402D02*
X9095063Y-11179830D01*
X9095063Y-11179830D02*
X9104586Y-11160783D01*
X9104586Y-11160783D02*
X9123634Y-11132211D01*
X9123634Y-11132211D02*
X9133158Y-11122687D01*
X9314110Y-11351259D02*
X9199825Y-11351259D01*
X9256967Y-11351259D02*
X9256967Y-11151259D01*
X9256967Y-11151259D02*
X9237920Y-11179830D01*
X9237920Y-11179830D02*
X9218872Y-11198878D01*
X9218872Y-11198878D02*
X9199825Y-11208402D01*
X9380777Y-11151259D02*
X9514110Y-11151259D01*
X9514110Y-11151259D02*
X9428396Y-11351259D01*
X9742682Y-11351259D02*
X9742682Y-11151259D01*
X9828396Y-11351259D02*
X9828396Y-11246497D01*
X9828396Y-11246497D02*
X9818872Y-11227449D01*
X9818872Y-11227449D02*
X9799825Y-11217925D01*
X9799825Y-11217925D02*
X9771253Y-11217925D01*
X9771253Y-11217925D02*
X9752206Y-11227449D01*
X9752206Y-11227449D02*
X9742682Y-11236973D01*
X9952206Y-11351259D02*
X9933158Y-11341735D01*
X9933158Y-11341735D02*
X9923634Y-11332211D01*
X9923634Y-11332211D02*
X9914110Y-11313163D01*
X9914110Y-11313163D02*
X9914110Y-11256021D01*
X9914110Y-11256021D02*
X9923634Y-11236973D01*
X9923634Y-11236973D02*
X9933158Y-11227449D01*
X9933158Y-11227449D02*
X9952206Y-11217925D01*
X9952206Y-11217925D02*
X9980777Y-11217925D01*
X9980777Y-11217925D02*
X9999825Y-11227449D01*
X9999825Y-11227449D02*
X10009348Y-11236973D01*
X10009348Y-11236973D02*
X10018872Y-11256021D01*
X10018872Y-11256021D02*
X10018872Y-11313163D01*
X10018872Y-11313163D02*
X10009348Y-11332211D01*
X10009348Y-11332211D02*
X9999825Y-11341735D01*
X9999825Y-11341735D02*
X9980777Y-11351259D01*
X9980777Y-11351259D02*
X9952206Y-11351259D01*
X10133158Y-11351259D02*
X10114110Y-11341735D01*
X10114110Y-11341735D02*
X10104587Y-11322687D01*
X10104587Y-11322687D02*
X10104587Y-11151259D01*
X10285539Y-11341735D02*
X10266491Y-11351259D01*
X10266491Y-11351259D02*
X10228396Y-11351259D01*
X10228396Y-11351259D02*
X10209348Y-11341735D01*
X10209348Y-11341735D02*
X10199825Y-11322687D01*
X10199825Y-11322687D02*
X10199825Y-11246497D01*
X10199825Y-11246497D02*
X10209348Y-11227449D01*
X10209348Y-11227449D02*
X10228396Y-11217925D01*
X10228396Y-11217925D02*
X10266491Y-11217925D01*
X10266491Y-11217925D02*
X10285539Y-11227449D01*
X10285539Y-11227449D02*
X10295063Y-11246497D01*
X10295063Y-11246497D02*
X10295063Y-11265544D01*
X10295063Y-11265544D02*
X10199825Y-11284592D01*
X10371253Y-11341735D02*
X10390301Y-11351259D01*
X10390301Y-11351259D02*
X10428396Y-11351259D01*
X10428396Y-11351259D02*
X10447444Y-11341735D01*
X10447444Y-11341735D02*
X10456968Y-11322687D01*
X10456968Y-11322687D02*
X10456968Y-11313163D01*
X10456968Y-11313163D02*
X10447444Y-11294116D01*
X10447444Y-11294116D02*
X10428396Y-11284592D01*
X10428396Y-11284592D02*
X10399825Y-11284592D01*
X10399825Y-11284592D02*
X10380777Y-11275068D01*
X10380777Y-11275068D02*
X10371253Y-11256021D01*
X10371253Y-11256021D02*
X10371253Y-11246497D01*
X10371253Y-11246497D02*
X10380777Y-11227449D01*
X10380777Y-11227449D02*
X10399825Y-11217925D01*
X10399825Y-11217925D02*
X10428396Y-11217925D01*
X10428396Y-11217925D02*
X10447444Y-11227449D01*
X10523634Y-11427449D02*
X10533158Y-11417925D01*
X10533158Y-11417925D02*
X10552206Y-11389354D01*
X10552206Y-11389354D02*
X10561729Y-11370306D01*
X10561729Y-11370306D02*
X10571253Y-11341735D01*
X10571253Y-11341735D02*
X10580777Y-11294116D01*
X10580777Y-11294116D02*
X10580777Y-11256021D01*
X10580777Y-11256021D02*
X10571253Y-11208402D01*
X10571253Y-11208402D02*
X10561729Y-11179830D01*
X10561729Y-11179830D02*
X10552206Y-11160783D01*
X10552206Y-11160783D02*
X10533158Y-11132211D01*
X10533158Y-11132211D02*
X10523634Y-11122687D01*
X10885539Y-11427449D02*
X10876015Y-11417925D01*
X10876015Y-11417925D02*
X10856968Y-11389354D01*
X10856968Y-11389354D02*
X10847444Y-11370306D01*
X10847444Y-11370306D02*
X10837920Y-11341735D01*
X10837920Y-11341735D02*
X10828396Y-11294116D01*
X10828396Y-11294116D02*
X10828396Y-11256021D01*
X10828396Y-11256021D02*
X10837920Y-11208402D01*
X10837920Y-11208402D02*
X10847444Y-11179830D01*
X10847444Y-11179830D02*
X10856968Y-11160783D01*
X10856968Y-11160783D02*
X10876015Y-11132211D01*
X10876015Y-11132211D02*
X10885539Y-11122687D01*
X10961729Y-11217925D02*
X10961729Y-11351259D01*
X10961729Y-11236973D02*
X10971253Y-11227449D01*
X10971253Y-11227449D02*
X10990301Y-11217925D01*
X10990301Y-11217925D02*
X11018872Y-11217925D01*
X11018872Y-11217925D02*
X11037920Y-11227449D01*
X11037920Y-11227449D02*
X11047444Y-11246497D01*
X11047444Y-11246497D02*
X11047444Y-11351259D01*
X11171253Y-11351259D02*
X11152206Y-11341735D01*
X11152206Y-11341735D02*
X11142682Y-11332211D01*
X11142682Y-11332211D02*
X11133158Y-11313163D01*
X11133158Y-11313163D02*
X11133158Y-11256021D01*
X11133158Y-11256021D02*
X11142682Y-11236973D01*
X11142682Y-11236973D02*
X11152206Y-11227449D01*
X11152206Y-11227449D02*
X11171253Y-11217925D01*
X11171253Y-11217925D02*
X11199825Y-11217925D01*
X11199825Y-11217925D02*
X11218872Y-11227449D01*
X11218872Y-11227449D02*
X11228396Y-11236973D01*
X11228396Y-11236973D02*
X11237920Y-11256021D01*
X11237920Y-11256021D02*
X11237920Y-11313163D01*
X11237920Y-11313163D02*
X11228396Y-11332211D01*
X11228396Y-11332211D02*
X11218872Y-11341735D01*
X11218872Y-11341735D02*
X11199825Y-11351259D01*
X11199825Y-11351259D02*
X11171253Y-11351259D01*
X11295063Y-11217925D02*
X11371253Y-11217925D01*
X11323634Y-11151259D02*
X11323634Y-11322687D01*
X11323634Y-11322687D02*
X11333158Y-11341735D01*
X11333158Y-11341735D02*
X11352206Y-11351259D01*
X11352206Y-11351259D02*
X11371253Y-11351259D01*
X11590301Y-11217925D02*
X11590301Y-11417925D01*
X11590301Y-11227449D02*
X11609348Y-11217925D01*
X11609348Y-11217925D02*
X11647444Y-11217925D01*
X11647444Y-11217925D02*
X11666491Y-11227449D01*
X11666491Y-11227449D02*
X11676015Y-11236973D01*
X11676015Y-11236973D02*
X11685539Y-11256021D01*
X11685539Y-11256021D02*
X11685539Y-11313163D01*
X11685539Y-11313163D02*
X11676015Y-11332211D01*
X11676015Y-11332211D02*
X11666491Y-11341735D01*
X11666491Y-11341735D02*
X11647444Y-11351259D01*
X11647444Y-11351259D02*
X11609348Y-11351259D01*
X11609348Y-11351259D02*
X11590301Y-11341735D01*
X11799825Y-11351259D02*
X11780777Y-11341735D01*
X11780777Y-11341735D02*
X11771253Y-11322687D01*
X11771253Y-11322687D02*
X11771253Y-11151259D01*
X11961729Y-11351259D02*
X11961729Y-11246497D01*
X11961729Y-11246497D02*
X11952206Y-11227449D01*
X11952206Y-11227449D02*
X11933158Y-11217925D01*
X11933158Y-11217925D02*
X11895063Y-11217925D01*
X11895063Y-11217925D02*
X11876015Y-11227449D01*
X11961729Y-11341735D02*
X11942682Y-11351259D01*
X11942682Y-11351259D02*
X11895063Y-11351259D01*
X11895063Y-11351259D02*
X11876015Y-11341735D01*
X11876015Y-11341735D02*
X11866491Y-11322687D01*
X11866491Y-11322687D02*
X11866491Y-11303640D01*
X11866491Y-11303640D02*
X11876015Y-11284592D01*
X11876015Y-11284592D02*
X11895063Y-11275068D01*
X11895063Y-11275068D02*
X11942682Y-11275068D01*
X11942682Y-11275068D02*
X11961729Y-11265544D01*
X12028396Y-11217925D02*
X12104587Y-11217925D01*
X12056968Y-11151259D02*
X12056968Y-11322687D01*
X12056968Y-11322687D02*
X12066491Y-11341735D01*
X12066491Y-11341735D02*
X12085539Y-11351259D01*
X12085539Y-11351259D02*
X12104587Y-11351259D01*
X12247444Y-11341735D02*
X12228396Y-11351259D01*
X12228396Y-11351259D02*
X12190301Y-11351259D01*
X12190301Y-11351259D02*
X12171253Y-11341735D01*
X12171253Y-11341735D02*
X12161729Y-11322687D01*
X12161729Y-11322687D02*
X12161729Y-11246497D01*
X12161729Y-11246497D02*
X12171253Y-11227449D01*
X12171253Y-11227449D02*
X12190301Y-11217925D01*
X12190301Y-11217925D02*
X12228396Y-11217925D01*
X12228396Y-11217925D02*
X12247444Y-11227449D01*
X12247444Y-11227449D02*
X12256968Y-11246497D01*
X12256968Y-11246497D02*
X12256968Y-11265544D01*
X12256968Y-11265544D02*
X12161729Y-11284592D01*
X12428396Y-11351259D02*
X12428396Y-11151259D01*
X12428396Y-11341735D02*
X12409349Y-11351259D01*
X12409349Y-11351259D02*
X12371253Y-11351259D01*
X12371253Y-11351259D02*
X12352206Y-11341735D01*
X12352206Y-11341735D02*
X12342682Y-11332211D01*
X12342682Y-11332211D02*
X12333158Y-11313163D01*
X12333158Y-11313163D02*
X12333158Y-11256021D01*
X12333158Y-11256021D02*
X12342682Y-11236973D01*
X12342682Y-11236973D02*
X12352206Y-11227449D01*
X12352206Y-11227449D02*
X12371253Y-11217925D01*
X12371253Y-11217925D02*
X12409349Y-11217925D01*
X12409349Y-11217925D02*
X12428396Y-11227449D01*
X12504587Y-11427449D02*
X12514110Y-11417925D01*
X12514110Y-11417925D02*
X12533158Y-11389354D01*
X12533158Y-11389354D02*
X12542682Y-11370306D01*
X12542682Y-11370306D02*
X12552206Y-11341735D01*
X12552206Y-11341735D02*
X12561729Y-11294116D01*
X12561729Y-11294116D02*
X12561729Y-11256021D01*
X12561729Y-11256021D02*
X12552206Y-11208402D01*
X12552206Y-11208402D02*
X12542682Y-11179830D01*
X12542682Y-11179830D02*
X12533158Y-11160783D01*
X12533158Y-11160783D02*
X12514110Y-11132211D01*
X12514110Y-11132211D02*
X12504587Y-11122687D01*
D13*
X5558095Y-11523775D02*
G75*
G02*
X5446095Y-11523775I-56000J0D01*
G01*
X5446095Y-11523775D02*
G75*
G02*
X5558095Y-11523775I56000J0D01*
G01*
D11*
X5923634Y-11615259D02*
X5809348Y-11615259D01*
X5866491Y-11615259D02*
X5866491Y-11415259D01*
X5866491Y-11415259D02*
X5847443Y-11443830D01*
X5847443Y-11443830D02*
X5828396Y-11462878D01*
X5828396Y-11462878D02*
X5809348Y-11472402D01*
X6009348Y-11596211D02*
X6018872Y-11605735D01*
X6018872Y-11605735D02*
X6009348Y-11615259D01*
X6009348Y-11615259D02*
X5999824Y-11605735D01*
X5999824Y-11605735D02*
X6009348Y-11596211D01*
X6009348Y-11596211D02*
X6009348Y-11615259D01*
X6209348Y-11615259D02*
X6095062Y-11615259D01*
X6152205Y-11615259D02*
X6152205Y-11415259D01*
X6152205Y-11415259D02*
X6133157Y-11443830D01*
X6133157Y-11443830D02*
X6114110Y-11462878D01*
X6114110Y-11462878D02*
X6095062Y-11472402D01*
X6285538Y-11434306D02*
X6295062Y-11424783D01*
X6295062Y-11424783D02*
X6314110Y-11415259D01*
X6314110Y-11415259D02*
X6361729Y-11415259D01*
X6361729Y-11415259D02*
X6380777Y-11424783D01*
X6380777Y-11424783D02*
X6390300Y-11434306D01*
X6390300Y-11434306D02*
X6399824Y-11453354D01*
X6399824Y-11453354D02*
X6399824Y-11472402D01*
X6399824Y-11472402D02*
X6390300Y-11500973D01*
X6390300Y-11500973D02*
X6276015Y-11615259D01*
X6276015Y-11615259D02*
X6399824Y-11615259D01*
X6523634Y-11415259D02*
X6542681Y-11415259D01*
X6542681Y-11415259D02*
X6561729Y-11424783D01*
X6561729Y-11424783D02*
X6571253Y-11434306D01*
X6571253Y-11434306D02*
X6580777Y-11453354D01*
X6580777Y-11453354D02*
X6590300Y-11491449D01*
X6590300Y-11491449D02*
X6590300Y-11539068D01*
X6590300Y-11539068D02*
X6580777Y-11577163D01*
X6580777Y-11577163D02*
X6571253Y-11596211D01*
X6571253Y-11596211D02*
X6561729Y-11605735D01*
X6561729Y-11605735D02*
X6542681Y-11615259D01*
X6542681Y-11615259D02*
X6523634Y-11615259D01*
X6523634Y-11615259D02*
X6504586Y-11605735D01*
X6504586Y-11605735D02*
X6495062Y-11596211D01*
X6495062Y-11596211D02*
X6485538Y-11577163D01*
X6485538Y-11577163D02*
X6476015Y-11539068D01*
X6476015Y-11539068D02*
X6476015Y-11491449D01*
X6476015Y-11491449D02*
X6485538Y-11453354D01*
X6485538Y-11453354D02*
X6495062Y-11434306D01*
X6495062Y-11434306D02*
X6504586Y-11424783D01*
X6504586Y-11424783D02*
X6523634Y-11415259D01*
X6676015Y-11615259D02*
X6676015Y-11481925D01*
X6676015Y-11500973D02*
X6685538Y-11491449D01*
X6685538Y-11491449D02*
X6704586Y-11481925D01*
X6704586Y-11481925D02*
X6733158Y-11481925D01*
X6733158Y-11481925D02*
X6752205Y-11491449D01*
X6752205Y-11491449D02*
X6761729Y-11510497D01*
X6761729Y-11510497D02*
X6761729Y-11615259D01*
X6761729Y-11510497D02*
X6771253Y-11491449D01*
X6771253Y-11491449D02*
X6790300Y-11481925D01*
X6790300Y-11481925D02*
X6818872Y-11481925D01*
X6818872Y-11481925D02*
X6837919Y-11491449D01*
X6837919Y-11491449D02*
X6847443Y-11510497D01*
X6847443Y-11510497D02*
X6847443Y-11615259D01*
X6942681Y-11615259D02*
X6942681Y-11481925D01*
X6942681Y-11500973D02*
X6952205Y-11491449D01*
X6952205Y-11491449D02*
X6971253Y-11481925D01*
X6971253Y-11481925D02*
X6999824Y-11481925D01*
X6999824Y-11481925D02*
X7018872Y-11491449D01*
X7018872Y-11491449D02*
X7028396Y-11510497D01*
X7028396Y-11510497D02*
X7028396Y-11615259D01*
X7028396Y-11510497D02*
X7037919Y-11491449D01*
X7037919Y-11491449D02*
X7056967Y-11481925D01*
X7056967Y-11481925D02*
X7085538Y-11481925D01*
X7085538Y-11481925D02*
X7104586Y-11491449D01*
X7104586Y-11491449D02*
X7114110Y-11510497D01*
X7114110Y-11510497D02*
X7114110Y-11615259D01*
X7504586Y-11405735D02*
X7333158Y-11662878D01*
X7761729Y-11415259D02*
X7780777Y-11415259D01*
X7780777Y-11415259D02*
X7799824Y-11424783D01*
X7799824Y-11424783D02*
X7809348Y-11434306D01*
X7809348Y-11434306D02*
X7818872Y-11453354D01*
X7818872Y-11453354D02*
X7828396Y-11491449D01*
X7828396Y-11491449D02*
X7828396Y-11539068D01*
X7828396Y-11539068D02*
X7818872Y-11577163D01*
X7818872Y-11577163D02*
X7809348Y-11596211D01*
X7809348Y-11596211D02*
X7799824Y-11605735D01*
X7799824Y-11605735D02*
X7780777Y-11615259D01*
X7780777Y-11615259D02*
X7761729Y-11615259D01*
X7761729Y-11615259D02*
X7742681Y-11605735D01*
X7742681Y-11605735D02*
X7733158Y-11596211D01*
X7733158Y-11596211D02*
X7723634Y-11577163D01*
X7723634Y-11577163D02*
X7714110Y-11539068D01*
X7714110Y-11539068D02*
X7714110Y-11491449D01*
X7714110Y-11491449D02*
X7723634Y-11453354D01*
X7723634Y-11453354D02*
X7733158Y-11434306D01*
X7733158Y-11434306D02*
X7742681Y-11424783D01*
X7742681Y-11424783D02*
X7761729Y-11415259D01*
X7914110Y-11596211D02*
X7923634Y-11605735D01*
X7923634Y-11605735D02*
X7914110Y-11615259D01*
X7914110Y-11615259D02*
X7904586Y-11605735D01*
X7904586Y-11605735D02*
X7914110Y-11596211D01*
X7914110Y-11596211D02*
X7914110Y-11615259D01*
X8047443Y-11415259D02*
X8066491Y-11415259D01*
X8066491Y-11415259D02*
X8085539Y-11424783D01*
X8085539Y-11424783D02*
X8095062Y-11434306D01*
X8095062Y-11434306D02*
X8104586Y-11453354D01*
X8104586Y-11453354D02*
X8114110Y-11491449D01*
X8114110Y-11491449D02*
X8114110Y-11539068D01*
X8114110Y-11539068D02*
X8104586Y-11577163D01*
X8104586Y-11577163D02*
X8095062Y-11596211D01*
X8095062Y-11596211D02*
X8085539Y-11605735D01*
X8085539Y-11605735D02*
X8066491Y-11615259D01*
X8066491Y-11615259D02*
X8047443Y-11615259D01*
X8047443Y-11615259D02*
X8028396Y-11605735D01*
X8028396Y-11605735D02*
X8018872Y-11596211D01*
X8018872Y-11596211D02*
X8009348Y-11577163D01*
X8009348Y-11577163D02*
X7999824Y-11539068D01*
X7999824Y-11539068D02*
X7999824Y-11491449D01*
X7999824Y-11491449D02*
X8009348Y-11453354D01*
X8009348Y-11453354D02*
X8018872Y-11434306D01*
X8018872Y-11434306D02*
X8028396Y-11424783D01*
X8028396Y-11424783D02*
X8047443Y-11415259D01*
X8285539Y-11481925D02*
X8285539Y-11615259D01*
X8237920Y-11405735D02*
X8190301Y-11548592D01*
X8190301Y-11548592D02*
X8314110Y-11548592D01*
X8476015Y-11481925D02*
X8476015Y-11615259D01*
X8428396Y-11405735D02*
X8380777Y-11548592D01*
X8380777Y-11548592D02*
X8504586Y-11548592D01*
X8685539Y-11615259D02*
X8571253Y-11615259D01*
X8628396Y-11615259D02*
X8628396Y-11415259D01*
X8628396Y-11415259D02*
X8609348Y-11443830D01*
X8609348Y-11443830D02*
X8590301Y-11462878D01*
X8590301Y-11462878D02*
X8571253Y-11472402D01*
X8761729Y-11415259D02*
X8761729Y-11453354D01*
X8837920Y-11415259D02*
X8837920Y-11453354D01*
X9133158Y-11691449D02*
X9123634Y-11681925D01*
X9123634Y-11681925D02*
X9104586Y-11653354D01*
X9104586Y-11653354D02*
X9095063Y-11634306D01*
X9095063Y-11634306D02*
X9085539Y-11605735D01*
X9085539Y-11605735D02*
X9076015Y-11558116D01*
X9076015Y-11558116D02*
X9076015Y-11520021D01*
X9076015Y-11520021D02*
X9085539Y-11472402D01*
X9085539Y-11472402D02*
X9095063Y-11443830D01*
X9095063Y-11443830D02*
X9104586Y-11424783D01*
X9104586Y-11424783D02*
X9123634Y-11396211D01*
X9123634Y-11396211D02*
X9133158Y-11386687D01*
X9314110Y-11615259D02*
X9199825Y-11615259D01*
X9256967Y-11615259D02*
X9256967Y-11415259D01*
X9256967Y-11415259D02*
X9237920Y-11443830D01*
X9237920Y-11443830D02*
X9218872Y-11462878D01*
X9218872Y-11462878D02*
X9199825Y-11472402D01*
X9380777Y-11415259D02*
X9514110Y-11415259D01*
X9514110Y-11415259D02*
X9428396Y-11615259D01*
X9742682Y-11615259D02*
X9742682Y-11415259D01*
X9828396Y-11615259D02*
X9828396Y-11510497D01*
X9828396Y-11510497D02*
X9818872Y-11491449D01*
X9818872Y-11491449D02*
X9799825Y-11481925D01*
X9799825Y-11481925D02*
X9771253Y-11481925D01*
X9771253Y-11481925D02*
X9752206Y-11491449D01*
X9752206Y-11491449D02*
X9742682Y-11500973D01*
X9952206Y-11615259D02*
X9933158Y-11605735D01*
X9933158Y-11605735D02*
X9923634Y-11596211D01*
X9923634Y-11596211D02*
X9914110Y-11577163D01*
X9914110Y-11577163D02*
X9914110Y-11520021D01*
X9914110Y-11520021D02*
X9923634Y-11500973D01*
X9923634Y-11500973D02*
X9933158Y-11491449D01*
X9933158Y-11491449D02*
X9952206Y-11481925D01*
X9952206Y-11481925D02*
X9980777Y-11481925D01*
X9980777Y-11481925D02*
X9999825Y-11491449D01*
X9999825Y-11491449D02*
X10009348Y-11500973D01*
X10009348Y-11500973D02*
X10018872Y-11520021D01*
X10018872Y-11520021D02*
X10018872Y-11577163D01*
X10018872Y-11577163D02*
X10009348Y-11596211D01*
X10009348Y-11596211D02*
X9999825Y-11605735D01*
X9999825Y-11605735D02*
X9980777Y-11615259D01*
X9980777Y-11615259D02*
X9952206Y-11615259D01*
X10133158Y-11615259D02*
X10114110Y-11605735D01*
X10114110Y-11605735D02*
X10104587Y-11586687D01*
X10104587Y-11586687D02*
X10104587Y-11415259D01*
X10285539Y-11605735D02*
X10266491Y-11615259D01*
X10266491Y-11615259D02*
X10228396Y-11615259D01*
X10228396Y-11615259D02*
X10209348Y-11605735D01*
X10209348Y-11605735D02*
X10199825Y-11586687D01*
X10199825Y-11586687D02*
X10199825Y-11510497D01*
X10199825Y-11510497D02*
X10209348Y-11491449D01*
X10209348Y-11491449D02*
X10228396Y-11481925D01*
X10228396Y-11481925D02*
X10266491Y-11481925D01*
X10266491Y-11481925D02*
X10285539Y-11491449D01*
X10285539Y-11491449D02*
X10295063Y-11510497D01*
X10295063Y-11510497D02*
X10295063Y-11529544D01*
X10295063Y-11529544D02*
X10199825Y-11548592D01*
X10371253Y-11605735D02*
X10390301Y-11615259D01*
X10390301Y-11615259D02*
X10428396Y-11615259D01*
X10428396Y-11615259D02*
X10447444Y-11605735D01*
X10447444Y-11605735D02*
X10456968Y-11586687D01*
X10456968Y-11586687D02*
X10456968Y-11577163D01*
X10456968Y-11577163D02*
X10447444Y-11558116D01*
X10447444Y-11558116D02*
X10428396Y-11548592D01*
X10428396Y-11548592D02*
X10399825Y-11548592D01*
X10399825Y-11548592D02*
X10380777Y-11539068D01*
X10380777Y-11539068D02*
X10371253Y-11520021D01*
X10371253Y-11520021D02*
X10371253Y-11510497D01*
X10371253Y-11510497D02*
X10380777Y-11491449D01*
X10380777Y-11491449D02*
X10399825Y-11481925D01*
X10399825Y-11481925D02*
X10428396Y-11481925D01*
X10428396Y-11481925D02*
X10447444Y-11491449D01*
X10523634Y-11691449D02*
X10533158Y-11681925D01*
X10533158Y-11681925D02*
X10552206Y-11653354D01*
X10552206Y-11653354D02*
X10561729Y-11634306D01*
X10561729Y-11634306D02*
X10571253Y-11605735D01*
X10571253Y-11605735D02*
X10580777Y-11558116D01*
X10580777Y-11558116D02*
X10580777Y-11520021D01*
X10580777Y-11520021D02*
X10571253Y-11472402D01*
X10571253Y-11472402D02*
X10561729Y-11443830D01*
X10561729Y-11443830D02*
X10552206Y-11424783D01*
X10552206Y-11424783D02*
X10533158Y-11396211D01*
X10533158Y-11396211D02*
X10523634Y-11386687D01*
X10885539Y-11691449D02*
X10876015Y-11681925D01*
X10876015Y-11681925D02*
X10856968Y-11653354D01*
X10856968Y-11653354D02*
X10847444Y-11634306D01*
X10847444Y-11634306D02*
X10837920Y-11605735D01*
X10837920Y-11605735D02*
X10828396Y-11558116D01*
X10828396Y-11558116D02*
X10828396Y-11520021D01*
X10828396Y-11520021D02*
X10837920Y-11472402D01*
X10837920Y-11472402D02*
X10847444Y-11443830D01*
X10847444Y-11443830D02*
X10856968Y-11424783D01*
X10856968Y-11424783D02*
X10876015Y-11396211D01*
X10876015Y-11396211D02*
X10885539Y-11386687D01*
X10961729Y-11481925D02*
X10961729Y-11615259D01*
X10961729Y-11500973D02*
X10971253Y-11491449D01*
X10971253Y-11491449D02*
X10990301Y-11481925D01*
X10990301Y-11481925D02*
X11018872Y-11481925D01*
X11018872Y-11481925D02*
X11037920Y-11491449D01*
X11037920Y-11491449D02*
X11047444Y-11510497D01*
X11047444Y-11510497D02*
X11047444Y-11615259D01*
X11171253Y-11615259D02*
X11152206Y-11605735D01*
X11152206Y-11605735D02*
X11142682Y-11596211D01*
X11142682Y-11596211D02*
X11133158Y-11577163D01*
X11133158Y-11577163D02*
X11133158Y-11520021D01*
X11133158Y-11520021D02*
X11142682Y-11500973D01*
X11142682Y-11500973D02*
X11152206Y-11491449D01*
X11152206Y-11491449D02*
X11171253Y-11481925D01*
X11171253Y-11481925D02*
X11199825Y-11481925D01*
X11199825Y-11481925D02*
X11218872Y-11491449D01*
X11218872Y-11491449D02*
X11228396Y-11500973D01*
X11228396Y-11500973D02*
X11237920Y-11520021D01*
X11237920Y-11520021D02*
X11237920Y-11577163D01*
X11237920Y-11577163D02*
X11228396Y-11596211D01*
X11228396Y-11596211D02*
X11218872Y-11605735D01*
X11218872Y-11605735D02*
X11199825Y-11615259D01*
X11199825Y-11615259D02*
X11171253Y-11615259D01*
X11295063Y-11481925D02*
X11371253Y-11481925D01*
X11323634Y-11415259D02*
X11323634Y-11586687D01*
X11323634Y-11586687D02*
X11333158Y-11605735D01*
X11333158Y-11605735D02*
X11352206Y-11615259D01*
X11352206Y-11615259D02*
X11371253Y-11615259D01*
X11590301Y-11481925D02*
X11590301Y-11681925D01*
X11590301Y-11491449D02*
X11609348Y-11481925D01*
X11609348Y-11481925D02*
X11647444Y-11481925D01*
X11647444Y-11481925D02*
X11666491Y-11491449D01*
X11666491Y-11491449D02*
X11676015Y-11500973D01*
X11676015Y-11500973D02*
X11685539Y-11520021D01*
X11685539Y-11520021D02*
X11685539Y-11577163D01*
X11685539Y-11577163D02*
X11676015Y-11596211D01*
X11676015Y-11596211D02*
X11666491Y-11605735D01*
X11666491Y-11605735D02*
X11647444Y-11615259D01*
X11647444Y-11615259D02*
X11609348Y-11615259D01*
X11609348Y-11615259D02*
X11590301Y-11605735D01*
X11799825Y-11615259D02*
X11780777Y-11605735D01*
X11780777Y-11605735D02*
X11771253Y-11586687D01*
X11771253Y-11586687D02*
X11771253Y-11415259D01*
X11961729Y-11615259D02*
X11961729Y-11510497D01*
X11961729Y-11510497D02*
X11952206Y-11491449D01*
X11952206Y-11491449D02*
X11933158Y-11481925D01*
X11933158Y-11481925D02*
X11895063Y-11481925D01*
X11895063Y-11481925D02*
X11876015Y-11491449D01*
X11961729Y-11605735D02*
X11942682Y-11615259D01*
X11942682Y-11615259D02*
X11895063Y-11615259D01*
X11895063Y-11615259D02*
X11876015Y-11605735D01*
X11876015Y-11605735D02*
X11866491Y-11586687D01*
X11866491Y-11586687D02*
X11866491Y-11567640D01*
X11866491Y-11567640D02*
X11876015Y-11548592D01*
X11876015Y-11548592D02*
X11895063Y-11539068D01*
X11895063Y-11539068D02*
X11942682Y-11539068D01*
X11942682Y-11539068D02*
X11961729Y-11529544D01*
X12028396Y-11481925D02*
X12104587Y-11481925D01*
X12056968Y-11415259D02*
X12056968Y-11586687D01*
X12056968Y-11586687D02*
X12066491Y-11605735D01*
X12066491Y-11605735D02*
X12085539Y-11615259D01*
X12085539Y-11615259D02*
X12104587Y-11615259D01*
X12247444Y-11605735D02*
X12228396Y-11615259D01*
X12228396Y-11615259D02*
X12190301Y-11615259D01*
X12190301Y-11615259D02*
X12171253Y-11605735D01*
X12171253Y-11605735D02*
X12161729Y-11586687D01*
X12161729Y-11586687D02*
X12161729Y-11510497D01*
X12161729Y-11510497D02*
X12171253Y-11491449D01*
X12171253Y-11491449D02*
X12190301Y-11481925D01*
X12190301Y-11481925D02*
X12228396Y-11481925D01*
X12228396Y-11481925D02*
X12247444Y-11491449D01*
X12247444Y-11491449D02*
X12256968Y-11510497D01*
X12256968Y-11510497D02*
X12256968Y-11529544D01*
X12256968Y-11529544D02*
X12161729Y-11548592D01*
X12428396Y-11615259D02*
X12428396Y-11415259D01*
X12428396Y-11605735D02*
X12409349Y-11615259D01*
X12409349Y-11615259D02*
X12371253Y-11615259D01*
X12371253Y-11615259D02*
X12352206Y-11605735D01*
X12352206Y-11605735D02*
X12342682Y-11596211D01*
X12342682Y-11596211D02*
X12333158Y-11577163D01*
X12333158Y-11577163D02*
X12333158Y-11520021D01*
X12333158Y-11520021D02*
X12342682Y-11500973D01*
X12342682Y-11500973D02*
X12352206Y-11491449D01*
X12352206Y-11491449D02*
X12371253Y-11481925D01*
X12371253Y-11481925D02*
X12409349Y-11481925D01*
X12409349Y-11481925D02*
X12428396Y-11491449D01*
X12504587Y-11691449D02*
X12514110Y-11681925D01*
X12514110Y-11681925D02*
X12533158Y-11653354D01*
X12533158Y-11653354D02*
X12542682Y-11634306D01*
X12542682Y-11634306D02*
X12552206Y-11605735D01*
X12552206Y-11605735D02*
X12561729Y-11558116D01*
X12561729Y-11558116D02*
X12561729Y-11520021D01*
X12561729Y-11520021D02*
X12552206Y-11472402D01*
X12552206Y-11472402D02*
X12542682Y-11443830D01*
X12542682Y-11443830D02*
X12533158Y-11424783D01*
X12533158Y-11424783D02*
X12514110Y-11396211D01*
X12514110Y-11396211D02*
X12504587Y-11386687D01*
X5458095Y-11687775D02*
X5458095Y-11887775D01*
X5358095Y-11787775D02*
X5558095Y-11787775D01*
X5809348Y-11698306D02*
X5818872Y-11688783D01*
X5818872Y-11688783D02*
X5837919Y-11679259D01*
X5837919Y-11679259D02*
X5885538Y-11679259D01*
X5885538Y-11679259D02*
X5904586Y-11688783D01*
X5904586Y-11688783D02*
X5914110Y-11698306D01*
X5914110Y-11698306D02*
X5923634Y-11717354D01*
X5923634Y-11717354D02*
X5923634Y-11736402D01*
X5923634Y-11736402D02*
X5914110Y-11764973D01*
X5914110Y-11764973D02*
X5799824Y-11879259D01*
X5799824Y-11879259D02*
X5923634Y-11879259D01*
X6009348Y-11860211D02*
X6018872Y-11869735D01*
X6018872Y-11869735D02*
X6009348Y-11879259D01*
X6009348Y-11879259D02*
X5999824Y-11869735D01*
X5999824Y-11869735D02*
X6009348Y-11860211D01*
X6009348Y-11860211D02*
X6009348Y-11879259D01*
X6199824Y-11679259D02*
X6104586Y-11679259D01*
X6104586Y-11679259D02*
X6095062Y-11774497D01*
X6095062Y-11774497D02*
X6104586Y-11764973D01*
X6104586Y-11764973D02*
X6123634Y-11755449D01*
X6123634Y-11755449D02*
X6171253Y-11755449D01*
X6171253Y-11755449D02*
X6190300Y-11764973D01*
X6190300Y-11764973D02*
X6199824Y-11774497D01*
X6199824Y-11774497D02*
X6209348Y-11793544D01*
X6209348Y-11793544D02*
X6209348Y-11841163D01*
X6209348Y-11841163D02*
X6199824Y-11860211D01*
X6199824Y-11860211D02*
X6190300Y-11869735D01*
X6190300Y-11869735D02*
X6171253Y-11879259D01*
X6171253Y-11879259D02*
X6123634Y-11879259D01*
X6123634Y-11879259D02*
X6104586Y-11869735D01*
X6104586Y-11869735D02*
X6095062Y-11860211D01*
X6333157Y-11679259D02*
X6352205Y-11679259D01*
X6352205Y-11679259D02*
X6371253Y-11688783D01*
X6371253Y-11688783D02*
X6380777Y-11698306D01*
X6380777Y-11698306D02*
X6390300Y-11717354D01*
X6390300Y-11717354D02*
X6399824Y-11755449D01*
X6399824Y-11755449D02*
X6399824Y-11803068D01*
X6399824Y-11803068D02*
X6390300Y-11841163D01*
X6390300Y-11841163D02*
X6380777Y-11860211D01*
X6380777Y-11860211D02*
X6371253Y-11869735D01*
X6371253Y-11869735D02*
X6352205Y-11879259D01*
X6352205Y-11879259D02*
X6333157Y-11879259D01*
X6333157Y-11879259D02*
X6314110Y-11869735D01*
X6314110Y-11869735D02*
X6304586Y-11860211D01*
X6304586Y-11860211D02*
X6295062Y-11841163D01*
X6295062Y-11841163D02*
X6285538Y-11803068D01*
X6285538Y-11803068D02*
X6285538Y-11755449D01*
X6285538Y-11755449D02*
X6295062Y-11717354D01*
X6295062Y-11717354D02*
X6304586Y-11698306D01*
X6304586Y-11698306D02*
X6314110Y-11688783D01*
X6314110Y-11688783D02*
X6333157Y-11679259D01*
X6523634Y-11679259D02*
X6542681Y-11679259D01*
X6542681Y-11679259D02*
X6561729Y-11688783D01*
X6561729Y-11688783D02*
X6571253Y-11698306D01*
X6571253Y-11698306D02*
X6580777Y-11717354D01*
X6580777Y-11717354D02*
X6590300Y-11755449D01*
X6590300Y-11755449D02*
X6590300Y-11803068D01*
X6590300Y-11803068D02*
X6580777Y-11841163D01*
X6580777Y-11841163D02*
X6571253Y-11860211D01*
X6571253Y-11860211D02*
X6561729Y-11869735D01*
X6561729Y-11869735D02*
X6542681Y-11879259D01*
X6542681Y-11879259D02*
X6523634Y-11879259D01*
X6523634Y-11879259D02*
X6504586Y-11869735D01*
X6504586Y-11869735D02*
X6495062Y-11860211D01*
X6495062Y-11860211D02*
X6485538Y-11841163D01*
X6485538Y-11841163D02*
X6476015Y-11803068D01*
X6476015Y-11803068D02*
X6476015Y-11755449D01*
X6476015Y-11755449D02*
X6485538Y-11717354D01*
X6485538Y-11717354D02*
X6495062Y-11698306D01*
X6495062Y-11698306D02*
X6504586Y-11688783D01*
X6504586Y-11688783D02*
X6523634Y-11679259D01*
X6676015Y-11879259D02*
X6676015Y-11745925D01*
X6676015Y-11764973D02*
X6685538Y-11755449D01*
X6685538Y-11755449D02*
X6704586Y-11745925D01*
X6704586Y-11745925D02*
X6733158Y-11745925D01*
X6733158Y-11745925D02*
X6752205Y-11755449D01*
X6752205Y-11755449D02*
X6761729Y-11774497D01*
X6761729Y-11774497D02*
X6761729Y-11879259D01*
X6761729Y-11774497D02*
X6771253Y-11755449D01*
X6771253Y-11755449D02*
X6790300Y-11745925D01*
X6790300Y-11745925D02*
X6818872Y-11745925D01*
X6818872Y-11745925D02*
X6837919Y-11755449D01*
X6837919Y-11755449D02*
X6847443Y-11774497D01*
X6847443Y-11774497D02*
X6847443Y-11879259D01*
X6942681Y-11879259D02*
X6942681Y-11745925D01*
X6942681Y-11764973D02*
X6952205Y-11755449D01*
X6952205Y-11755449D02*
X6971253Y-11745925D01*
X6971253Y-11745925D02*
X6999824Y-11745925D01*
X6999824Y-11745925D02*
X7018872Y-11755449D01*
X7018872Y-11755449D02*
X7028396Y-11774497D01*
X7028396Y-11774497D02*
X7028396Y-11879259D01*
X7028396Y-11774497D02*
X7037919Y-11755449D01*
X7037919Y-11755449D02*
X7056967Y-11745925D01*
X7056967Y-11745925D02*
X7085538Y-11745925D01*
X7085538Y-11745925D02*
X7104586Y-11755449D01*
X7104586Y-11755449D02*
X7114110Y-11774497D01*
X7114110Y-11774497D02*
X7114110Y-11879259D01*
X7504586Y-11669735D02*
X7333158Y-11926878D01*
X7761729Y-11679259D02*
X7780777Y-11679259D01*
X7780777Y-11679259D02*
X7799824Y-11688783D01*
X7799824Y-11688783D02*
X7809348Y-11698306D01*
X7809348Y-11698306D02*
X7818872Y-11717354D01*
X7818872Y-11717354D02*
X7828396Y-11755449D01*
X7828396Y-11755449D02*
X7828396Y-11803068D01*
X7828396Y-11803068D02*
X7818872Y-11841163D01*
X7818872Y-11841163D02*
X7809348Y-11860211D01*
X7809348Y-11860211D02*
X7799824Y-11869735D01*
X7799824Y-11869735D02*
X7780777Y-11879259D01*
X7780777Y-11879259D02*
X7761729Y-11879259D01*
X7761729Y-11879259D02*
X7742681Y-11869735D01*
X7742681Y-11869735D02*
X7733158Y-11860211D01*
X7733158Y-11860211D02*
X7723634Y-11841163D01*
X7723634Y-11841163D02*
X7714110Y-11803068D01*
X7714110Y-11803068D02*
X7714110Y-11755449D01*
X7714110Y-11755449D02*
X7723634Y-11717354D01*
X7723634Y-11717354D02*
X7733158Y-11698306D01*
X7733158Y-11698306D02*
X7742681Y-11688783D01*
X7742681Y-11688783D02*
X7761729Y-11679259D01*
X7914110Y-11860211D02*
X7923634Y-11869735D01*
X7923634Y-11869735D02*
X7914110Y-11879259D01*
X7914110Y-11879259D02*
X7904586Y-11869735D01*
X7904586Y-11869735D02*
X7914110Y-11860211D01*
X7914110Y-11860211D02*
X7914110Y-11879259D01*
X8047443Y-11679259D02*
X8066491Y-11679259D01*
X8066491Y-11679259D02*
X8085539Y-11688783D01*
X8085539Y-11688783D02*
X8095062Y-11698306D01*
X8095062Y-11698306D02*
X8104586Y-11717354D01*
X8104586Y-11717354D02*
X8114110Y-11755449D01*
X8114110Y-11755449D02*
X8114110Y-11803068D01*
X8114110Y-11803068D02*
X8104586Y-11841163D01*
X8104586Y-11841163D02*
X8095062Y-11860211D01*
X8095062Y-11860211D02*
X8085539Y-11869735D01*
X8085539Y-11869735D02*
X8066491Y-11879259D01*
X8066491Y-11879259D02*
X8047443Y-11879259D01*
X8047443Y-11879259D02*
X8028396Y-11869735D01*
X8028396Y-11869735D02*
X8018872Y-11860211D01*
X8018872Y-11860211D02*
X8009348Y-11841163D01*
X8009348Y-11841163D02*
X7999824Y-11803068D01*
X7999824Y-11803068D02*
X7999824Y-11755449D01*
X7999824Y-11755449D02*
X8009348Y-11717354D01*
X8009348Y-11717354D02*
X8018872Y-11698306D01*
X8018872Y-11698306D02*
X8028396Y-11688783D01*
X8028396Y-11688783D02*
X8047443Y-11679259D01*
X8209348Y-11879259D02*
X8247443Y-11879259D01*
X8247443Y-11879259D02*
X8266491Y-11869735D01*
X8266491Y-11869735D02*
X8276015Y-11860211D01*
X8276015Y-11860211D02*
X8295062Y-11831640D01*
X8295062Y-11831640D02*
X8304586Y-11793544D01*
X8304586Y-11793544D02*
X8304586Y-11717354D01*
X8304586Y-11717354D02*
X8295062Y-11698306D01*
X8295062Y-11698306D02*
X8285539Y-11688783D01*
X8285539Y-11688783D02*
X8266491Y-11679259D01*
X8266491Y-11679259D02*
X8228396Y-11679259D01*
X8228396Y-11679259D02*
X8209348Y-11688783D01*
X8209348Y-11688783D02*
X8199824Y-11698306D01*
X8199824Y-11698306D02*
X8190301Y-11717354D01*
X8190301Y-11717354D02*
X8190301Y-11764973D01*
X8190301Y-11764973D02*
X8199824Y-11784021D01*
X8199824Y-11784021D02*
X8209348Y-11793544D01*
X8209348Y-11793544D02*
X8228396Y-11803068D01*
X8228396Y-11803068D02*
X8266491Y-11803068D01*
X8266491Y-11803068D02*
X8285539Y-11793544D01*
X8285539Y-11793544D02*
X8295062Y-11784021D01*
X8295062Y-11784021D02*
X8304586Y-11764973D01*
X8418872Y-11764973D02*
X8399824Y-11755449D01*
X8399824Y-11755449D02*
X8390301Y-11745925D01*
X8390301Y-11745925D02*
X8380777Y-11726878D01*
X8380777Y-11726878D02*
X8380777Y-11717354D01*
X8380777Y-11717354D02*
X8390301Y-11698306D01*
X8390301Y-11698306D02*
X8399824Y-11688783D01*
X8399824Y-11688783D02*
X8418872Y-11679259D01*
X8418872Y-11679259D02*
X8456967Y-11679259D01*
X8456967Y-11679259D02*
X8476015Y-11688783D01*
X8476015Y-11688783D02*
X8485539Y-11698306D01*
X8485539Y-11698306D02*
X8495063Y-11717354D01*
X8495063Y-11717354D02*
X8495063Y-11726878D01*
X8495063Y-11726878D02*
X8485539Y-11745925D01*
X8485539Y-11745925D02*
X8476015Y-11755449D01*
X8476015Y-11755449D02*
X8456967Y-11764973D01*
X8456967Y-11764973D02*
X8418872Y-11764973D01*
X8418872Y-11764973D02*
X8399824Y-11774497D01*
X8399824Y-11774497D02*
X8390301Y-11784021D01*
X8390301Y-11784021D02*
X8380777Y-11803068D01*
X8380777Y-11803068D02*
X8380777Y-11841163D01*
X8380777Y-11841163D02*
X8390301Y-11860211D01*
X8390301Y-11860211D02*
X8399824Y-11869735D01*
X8399824Y-11869735D02*
X8418872Y-11879259D01*
X8418872Y-11879259D02*
X8456967Y-11879259D01*
X8456967Y-11879259D02*
X8476015Y-11869735D01*
X8476015Y-11869735D02*
X8485539Y-11860211D01*
X8485539Y-11860211D02*
X8495063Y-11841163D01*
X8495063Y-11841163D02*
X8495063Y-11803068D01*
X8495063Y-11803068D02*
X8485539Y-11784021D01*
X8485539Y-11784021D02*
X8476015Y-11774497D01*
X8476015Y-11774497D02*
X8456967Y-11764973D01*
X8666491Y-11745925D02*
X8666491Y-11879259D01*
X8618872Y-11669735D02*
X8571253Y-11812592D01*
X8571253Y-11812592D02*
X8695063Y-11812592D01*
X8761729Y-11679259D02*
X8761729Y-11717354D01*
X8837920Y-11679259D02*
X8837920Y-11717354D01*
X9133158Y-11955449D02*
X9123634Y-11945925D01*
X9123634Y-11945925D02*
X9104586Y-11917354D01*
X9104586Y-11917354D02*
X9095063Y-11898306D01*
X9095063Y-11898306D02*
X9085539Y-11869735D01*
X9085539Y-11869735D02*
X9076015Y-11822116D01*
X9076015Y-11822116D02*
X9076015Y-11784021D01*
X9076015Y-11784021D02*
X9085539Y-11736402D01*
X9085539Y-11736402D02*
X9095063Y-11707830D01*
X9095063Y-11707830D02*
X9104586Y-11688783D01*
X9104586Y-11688783D02*
X9123634Y-11660211D01*
X9123634Y-11660211D02*
X9133158Y-11650687D01*
X9295063Y-11745925D02*
X9295063Y-11879259D01*
X9247444Y-11669735D02*
X9199825Y-11812592D01*
X9199825Y-11812592D02*
X9323634Y-11812592D01*
X9552206Y-11879259D02*
X9552206Y-11679259D01*
X9637920Y-11879259D02*
X9637920Y-11774497D01*
X9637920Y-11774497D02*
X9628396Y-11755449D01*
X9628396Y-11755449D02*
X9609348Y-11745925D01*
X9609348Y-11745925D02*
X9580777Y-11745925D01*
X9580777Y-11745925D02*
X9561729Y-11755449D01*
X9561729Y-11755449D02*
X9552206Y-11764973D01*
X9761729Y-11879259D02*
X9742682Y-11869735D01*
X9742682Y-11869735D02*
X9733158Y-11860211D01*
X9733158Y-11860211D02*
X9723634Y-11841163D01*
X9723634Y-11841163D02*
X9723634Y-11784021D01*
X9723634Y-11784021D02*
X9733158Y-11764973D01*
X9733158Y-11764973D02*
X9742682Y-11755449D01*
X9742682Y-11755449D02*
X9761729Y-11745925D01*
X9761729Y-11745925D02*
X9790301Y-11745925D01*
X9790301Y-11745925D02*
X9809348Y-11755449D01*
X9809348Y-11755449D02*
X9818872Y-11764973D01*
X9818872Y-11764973D02*
X9828396Y-11784021D01*
X9828396Y-11784021D02*
X9828396Y-11841163D01*
X9828396Y-11841163D02*
X9818872Y-11860211D01*
X9818872Y-11860211D02*
X9809348Y-11869735D01*
X9809348Y-11869735D02*
X9790301Y-11879259D01*
X9790301Y-11879259D02*
X9761729Y-11879259D01*
X9942682Y-11879259D02*
X9923634Y-11869735D01*
X9923634Y-11869735D02*
X9914110Y-11850687D01*
X9914110Y-11850687D02*
X9914110Y-11679259D01*
X10095063Y-11869735D02*
X10076015Y-11879259D01*
X10076015Y-11879259D02*
X10037920Y-11879259D01*
X10037920Y-11879259D02*
X10018872Y-11869735D01*
X10018872Y-11869735D02*
X10009348Y-11850687D01*
X10009348Y-11850687D02*
X10009348Y-11774497D01*
X10009348Y-11774497D02*
X10018872Y-11755449D01*
X10018872Y-11755449D02*
X10037920Y-11745925D01*
X10037920Y-11745925D02*
X10076015Y-11745925D01*
X10076015Y-11745925D02*
X10095063Y-11755449D01*
X10095063Y-11755449D02*
X10104587Y-11774497D01*
X10104587Y-11774497D02*
X10104587Y-11793544D01*
X10104587Y-11793544D02*
X10009348Y-11812592D01*
X10180777Y-11869735D02*
X10199825Y-11879259D01*
X10199825Y-11879259D02*
X10237920Y-11879259D01*
X10237920Y-11879259D02*
X10256968Y-11869735D01*
X10256968Y-11869735D02*
X10266491Y-11850687D01*
X10266491Y-11850687D02*
X10266491Y-11841163D01*
X10266491Y-11841163D02*
X10256968Y-11822116D01*
X10256968Y-11822116D02*
X10237920Y-11812592D01*
X10237920Y-11812592D02*
X10209348Y-11812592D01*
X10209348Y-11812592D02*
X10190301Y-11803068D01*
X10190301Y-11803068D02*
X10180777Y-11784021D01*
X10180777Y-11784021D02*
X10180777Y-11774497D01*
X10180777Y-11774497D02*
X10190301Y-11755449D01*
X10190301Y-11755449D02*
X10209348Y-11745925D01*
X10209348Y-11745925D02*
X10237920Y-11745925D01*
X10237920Y-11745925D02*
X10256968Y-11755449D01*
X10333158Y-11955449D02*
X10342682Y-11945925D01*
X10342682Y-11945925D02*
X10361729Y-11917354D01*
X10361729Y-11917354D02*
X10371253Y-11898306D01*
X10371253Y-11898306D02*
X10380777Y-11869735D01*
X10380777Y-11869735D02*
X10390301Y-11822116D01*
X10390301Y-11822116D02*
X10390301Y-11784021D01*
X10390301Y-11784021D02*
X10380777Y-11736402D01*
X10380777Y-11736402D02*
X10371253Y-11707830D01*
X10371253Y-11707830D02*
X10361729Y-11688783D01*
X10361729Y-11688783D02*
X10342682Y-11660211D01*
X10342682Y-11660211D02*
X10333158Y-11650687D01*
X10695063Y-11955449D02*
X10685539Y-11945925D01*
X10685539Y-11945925D02*
X10666491Y-11917354D01*
X10666491Y-11917354D02*
X10656968Y-11898306D01*
X10656968Y-11898306D02*
X10647444Y-11869735D01*
X10647444Y-11869735D02*
X10637920Y-11822116D01*
X10637920Y-11822116D02*
X10637920Y-11784021D01*
X10637920Y-11784021D02*
X10647444Y-11736402D01*
X10647444Y-11736402D02*
X10656968Y-11707830D01*
X10656968Y-11707830D02*
X10666491Y-11688783D01*
X10666491Y-11688783D02*
X10685539Y-11660211D01*
X10685539Y-11660211D02*
X10695063Y-11650687D01*
X10771253Y-11745925D02*
X10771253Y-11879259D01*
X10771253Y-11764973D02*
X10780777Y-11755449D01*
X10780777Y-11755449D02*
X10799825Y-11745925D01*
X10799825Y-11745925D02*
X10828396Y-11745925D01*
X10828396Y-11745925D02*
X10847444Y-11755449D01*
X10847444Y-11755449D02*
X10856968Y-11774497D01*
X10856968Y-11774497D02*
X10856968Y-11879259D01*
X10980777Y-11879259D02*
X10961729Y-11869735D01*
X10961729Y-11869735D02*
X10952206Y-11860211D01*
X10952206Y-11860211D02*
X10942682Y-11841163D01*
X10942682Y-11841163D02*
X10942682Y-11784021D01*
X10942682Y-11784021D02*
X10952206Y-11764973D01*
X10952206Y-11764973D02*
X10961729Y-11755449D01*
X10961729Y-11755449D02*
X10980777Y-11745925D01*
X10980777Y-11745925D02*
X11009349Y-11745925D01*
X11009349Y-11745925D02*
X11028396Y-11755449D01*
X11028396Y-11755449D02*
X11037920Y-11764973D01*
X11037920Y-11764973D02*
X11047444Y-11784021D01*
X11047444Y-11784021D02*
X11047444Y-11841163D01*
X11047444Y-11841163D02*
X11037920Y-11860211D01*
X11037920Y-11860211D02*
X11028396Y-11869735D01*
X11028396Y-11869735D02*
X11009349Y-11879259D01*
X11009349Y-11879259D02*
X10980777Y-11879259D01*
X11104587Y-11745925D02*
X11180777Y-11745925D01*
X11133158Y-11679259D02*
X11133158Y-11850687D01*
X11133158Y-11850687D02*
X11142682Y-11869735D01*
X11142682Y-11869735D02*
X11161729Y-11879259D01*
X11161729Y-11879259D02*
X11180777Y-11879259D01*
X11399825Y-11745925D02*
X11399825Y-11945925D01*
X11399825Y-11755449D02*
X11418872Y-11745925D01*
X11418872Y-11745925D02*
X11456968Y-11745925D01*
X11456968Y-11745925D02*
X11476015Y-11755449D01*
X11476015Y-11755449D02*
X11485539Y-11764973D01*
X11485539Y-11764973D02*
X11495063Y-11784021D01*
X11495063Y-11784021D02*
X11495063Y-11841163D01*
X11495063Y-11841163D02*
X11485539Y-11860211D01*
X11485539Y-11860211D02*
X11476015Y-11869735D01*
X11476015Y-11869735D02*
X11456968Y-11879259D01*
X11456968Y-11879259D02*
X11418872Y-11879259D01*
X11418872Y-11879259D02*
X11399825Y-11869735D01*
X11609348Y-11879259D02*
X11590301Y-11869735D01*
X11590301Y-11869735D02*
X11580777Y-11850687D01*
X11580777Y-11850687D02*
X11580777Y-11679259D01*
X11771253Y-11879259D02*
X11771253Y-11774497D01*
X11771253Y-11774497D02*
X11761729Y-11755449D01*
X11761729Y-11755449D02*
X11742682Y-11745925D01*
X11742682Y-11745925D02*
X11704587Y-11745925D01*
X11704587Y-11745925D02*
X11685539Y-11755449D01*
X11771253Y-11869735D02*
X11752206Y-11879259D01*
X11752206Y-11879259D02*
X11704587Y-11879259D01*
X11704587Y-11879259D02*
X11685539Y-11869735D01*
X11685539Y-11869735D02*
X11676015Y-11850687D01*
X11676015Y-11850687D02*
X11676015Y-11831640D01*
X11676015Y-11831640D02*
X11685539Y-11812592D01*
X11685539Y-11812592D02*
X11704587Y-11803068D01*
X11704587Y-11803068D02*
X11752206Y-11803068D01*
X11752206Y-11803068D02*
X11771253Y-11793544D01*
X11837920Y-11745925D02*
X11914110Y-11745925D01*
X11866491Y-11679259D02*
X11866491Y-11850687D01*
X11866491Y-11850687D02*
X11876015Y-11869735D01*
X11876015Y-11869735D02*
X11895063Y-11879259D01*
X11895063Y-11879259D02*
X11914110Y-11879259D01*
X12056968Y-11869735D02*
X12037920Y-11879259D01*
X12037920Y-11879259D02*
X11999825Y-11879259D01*
X11999825Y-11879259D02*
X11980777Y-11869735D01*
X11980777Y-11869735D02*
X11971253Y-11850687D01*
X11971253Y-11850687D02*
X11971253Y-11774497D01*
X11971253Y-11774497D02*
X11980777Y-11755449D01*
X11980777Y-11755449D02*
X11999825Y-11745925D01*
X11999825Y-11745925D02*
X12037920Y-11745925D01*
X12037920Y-11745925D02*
X12056968Y-11755449D01*
X12056968Y-11755449D02*
X12066491Y-11774497D01*
X12066491Y-11774497D02*
X12066491Y-11793544D01*
X12066491Y-11793544D02*
X11971253Y-11812592D01*
X12237920Y-11879259D02*
X12237920Y-11679259D01*
X12237920Y-11869735D02*
X12218872Y-11879259D01*
X12218872Y-11879259D02*
X12180777Y-11879259D01*
X12180777Y-11879259D02*
X12161729Y-11869735D01*
X12161729Y-11869735D02*
X12152206Y-11860211D01*
X12152206Y-11860211D02*
X12142682Y-11841163D01*
X12142682Y-11841163D02*
X12142682Y-11784021D01*
X12142682Y-11784021D02*
X12152206Y-11764973D01*
X12152206Y-11764973D02*
X12161729Y-11755449D01*
X12161729Y-11755449D02*
X12180777Y-11745925D01*
X12180777Y-11745925D02*
X12218872Y-11745925D01*
X12218872Y-11745925D02*
X12237920Y-11755449D01*
X12314110Y-11955449D02*
X12323634Y-11945925D01*
X12323634Y-11945925D02*
X12342682Y-11917354D01*
X12342682Y-11917354D02*
X12352206Y-11898306D01*
X12352206Y-11898306D02*
X12361729Y-11869735D01*
X12361729Y-11869735D02*
X12371253Y-11822116D01*
X12371253Y-11822116D02*
X12371253Y-11784021D01*
X12371253Y-11784021D02*
X12361729Y-11736402D01*
X12361729Y-11736402D02*
X12352206Y-11707830D01*
X12352206Y-11707830D02*
X12342682Y-11688783D01*
X12342682Y-11688783D02*
X12323634Y-11660211D01*
X12323634Y-11660211D02*
X12314110Y-11650687D01*
M02*
