G04 #@! TF.GenerationSoftware,KiCad,Pcbnew,9.0.0*
G04 #@! TF.CreationDate,2025-03-06T07:06:35+09:00*
G04 #@! TF.ProjectId,house_controller_multiplex_breakout_board_v0.2.2,686f7573-655f-4636-9f6e-74726f6c6c65,rev?*
G04 #@! TF.SameCoordinates,Original*
G04 #@! TF.FileFunction,Soldermask,Bot*
G04 #@! TF.FilePolarity,Negative*
%FSLAX46Y46*%
G04 Gerber Fmt 4.6, Leading zero omitted, Abs format (unit mm)*
G04 Created by KiCad (PCBNEW 9.0.0) date 2025-03-06 07:06:35*
%MOMM*%
%LPD*%
G01*
G04 APERTURE LIST*
G04 APERTURE END LIST*
G36*
X59491807Y-101384538D02*
G01*
X59678354Y-101445151D01*
X59853123Y-101534200D01*
X60011810Y-101649493D01*
X60150507Y-101788190D01*
X60265800Y-101946877D01*
X60354849Y-102121646D01*
X60415462Y-102308193D01*
X60446147Y-102501926D01*
X60446147Y-102698074D01*
X60415462Y-102891807D01*
X60354849Y-103078354D01*
X60265800Y-103253123D01*
X60150507Y-103411810D01*
X60011810Y-103550507D01*
X59853123Y-103665800D01*
X59678354Y-103754849D01*
X59491807Y-103815462D01*
X59298074Y-103846147D01*
X59101926Y-103846147D01*
X58908193Y-103815462D01*
X58721646Y-103754849D01*
X58546877Y-103665800D01*
X58388190Y-103550507D01*
X58249493Y-103411810D01*
X58134200Y-103253123D01*
X58045151Y-103078354D01*
X57984538Y-102891807D01*
X57953853Y-102698074D01*
X57953853Y-102501926D01*
X57984538Y-102308193D01*
X58045151Y-102121646D01*
X58134200Y-101946877D01*
X58249493Y-101788190D01*
X58388190Y-101649493D01*
X58546877Y-101534200D01*
X58721646Y-101445151D01*
X58908193Y-101384538D01*
X59101926Y-101353853D01*
X59298074Y-101353853D01*
X59491807Y-101384538D01*
G37*
G36*
X149291807Y-101384538D02*
G01*
X149478354Y-101445151D01*
X149653123Y-101534200D01*
X149811810Y-101649493D01*
X149950507Y-101788190D01*
X150065800Y-101946877D01*
X150154849Y-102121646D01*
X150215462Y-102308193D01*
X150246147Y-102501926D01*
X150246147Y-102698074D01*
X150215462Y-102891807D01*
X150154849Y-103078354D01*
X150065800Y-103253123D01*
X149950507Y-103411810D01*
X149811810Y-103550507D01*
X149653123Y-103665800D01*
X149478354Y-103754849D01*
X149291807Y-103815462D01*
X149098074Y-103846147D01*
X148901926Y-103846147D01*
X148708193Y-103815462D01*
X148521646Y-103754849D01*
X148346877Y-103665800D01*
X148188190Y-103550507D01*
X148049493Y-103411810D01*
X147934200Y-103253123D01*
X147845151Y-103078354D01*
X147784538Y-102891807D01*
X147753853Y-102698074D01*
X147753853Y-102501926D01*
X147784538Y-102308193D01*
X147845151Y-102121646D01*
X147934200Y-101946877D01*
X148049493Y-101788190D01*
X148188190Y-101649493D01*
X148346877Y-101534200D01*
X148521646Y-101445151D01*
X148708193Y-101384538D01*
X148901926Y-101353853D01*
X149098074Y-101353853D01*
X149291807Y-101384538D01*
G37*
G36*
X59868612Y-92730133D02*
G01*
X59878316Y-92730133D01*
X59906272Y-92737623D01*
X59974084Y-92751112D01*
X60006091Y-92764370D01*
X60029610Y-92770672D01*
X60050698Y-92782847D01*
X60082702Y-92796104D01*
X60140184Y-92834512D01*
X60165257Y-92848988D01*
X60172119Y-92855850D01*
X60180449Y-92861416D01*
X60263583Y-92944550D01*
X60269148Y-92952879D01*
X60276012Y-92959743D01*
X60290489Y-92984818D01*
X60328895Y-93042297D01*
X60342150Y-93074298D01*
X60354328Y-93095390D01*
X60360630Y-93118912D01*
X60373887Y-93150915D01*
X60387374Y-93218722D01*
X60394867Y-93246684D01*
X60395815Y-93261157D01*
X60397111Y-93267670D01*
X60399710Y-93320577D01*
X60400000Y-93325000D01*
X60400000Y-93875000D01*
X60399709Y-93879425D01*
X60397111Y-93932329D01*
X60395815Y-93938840D01*
X60394867Y-93953316D01*
X60387373Y-93981280D01*
X60373887Y-94049084D01*
X60360631Y-94081084D01*
X60354328Y-94104610D01*
X60342149Y-94125704D01*
X60328895Y-94157702D01*
X60290493Y-94215173D01*
X60276012Y-94240257D01*
X60269146Y-94247122D01*
X60263583Y-94255449D01*
X60180449Y-94338583D01*
X60172122Y-94344146D01*
X60165257Y-94351012D01*
X60140173Y-94365493D01*
X60082702Y-94403895D01*
X60050704Y-94417149D01*
X60029610Y-94429328D01*
X60006084Y-94435631D01*
X59974084Y-94448887D01*
X59906278Y-94462374D01*
X59878316Y-94469867D01*
X59868611Y-94469867D01*
X59858783Y-94471822D01*
X59741217Y-94471822D01*
X59731389Y-94469867D01*
X59721684Y-94469867D01*
X59693722Y-94462374D01*
X59625915Y-94448887D01*
X59593912Y-94435630D01*
X59570390Y-94429328D01*
X59549298Y-94417150D01*
X59517297Y-94403895D01*
X59459818Y-94365489D01*
X59434743Y-94351012D01*
X59427879Y-94344148D01*
X59419550Y-94338583D01*
X59336416Y-94255449D01*
X59330850Y-94247119D01*
X59323988Y-94240257D01*
X59309512Y-94215184D01*
X59271104Y-94157702D01*
X59257847Y-94125698D01*
X59245672Y-94104610D01*
X59239370Y-94081091D01*
X59226112Y-94049084D01*
X59212622Y-93981266D01*
X59205133Y-93953316D01*
X59204184Y-93938848D01*
X59202888Y-93932329D01*
X59200289Y-93879419D01*
X59200000Y-93875000D01*
X59200000Y-93325000D01*
X59200289Y-93320583D01*
X59202888Y-93267670D01*
X59204184Y-93261150D01*
X59205133Y-93246684D01*
X59212621Y-93218736D01*
X59226112Y-93150915D01*
X59239371Y-93118905D01*
X59245672Y-93095390D01*
X59257845Y-93074304D01*
X59271104Y-93042297D01*
X59309516Y-92984807D01*
X59323988Y-92959743D01*
X59330848Y-92952882D01*
X59336416Y-92944550D01*
X59419550Y-92861416D01*
X59427882Y-92855848D01*
X59434743Y-92848988D01*
X59459807Y-92834516D01*
X59517297Y-92796104D01*
X59549304Y-92782845D01*
X59570390Y-92770672D01*
X59593905Y-92764371D01*
X59625915Y-92751112D01*
X59693728Y-92737623D01*
X59721684Y-92730133D01*
X59731388Y-92730133D01*
X59741217Y-92728178D01*
X59858783Y-92728178D01*
X59868612Y-92730133D01*
G37*
G36*
X68668612Y-92730133D02*
G01*
X68678316Y-92730133D01*
X68706272Y-92737623D01*
X68774084Y-92751112D01*
X68806091Y-92764370D01*
X68829610Y-92770672D01*
X68850698Y-92782847D01*
X68882702Y-92796104D01*
X68940184Y-92834512D01*
X68965257Y-92848988D01*
X68972119Y-92855850D01*
X68980449Y-92861416D01*
X69063583Y-92944550D01*
X69069148Y-92952879D01*
X69076012Y-92959743D01*
X69090489Y-92984818D01*
X69128895Y-93042297D01*
X69142150Y-93074298D01*
X69154328Y-93095390D01*
X69160630Y-93118912D01*
X69173887Y-93150915D01*
X69187374Y-93218722D01*
X69194867Y-93246684D01*
X69195815Y-93261157D01*
X69197111Y-93267670D01*
X69199710Y-93320577D01*
X69200000Y-93325000D01*
X69200000Y-93875000D01*
X69199709Y-93879425D01*
X69197111Y-93932329D01*
X69195815Y-93938840D01*
X69194867Y-93953316D01*
X69187373Y-93981280D01*
X69173887Y-94049084D01*
X69160631Y-94081084D01*
X69154328Y-94104610D01*
X69142149Y-94125704D01*
X69128895Y-94157702D01*
X69090493Y-94215173D01*
X69076012Y-94240257D01*
X69069146Y-94247122D01*
X69063583Y-94255449D01*
X68980449Y-94338583D01*
X68972122Y-94344146D01*
X68965257Y-94351012D01*
X68940173Y-94365493D01*
X68882702Y-94403895D01*
X68850704Y-94417149D01*
X68829610Y-94429328D01*
X68806084Y-94435631D01*
X68774084Y-94448887D01*
X68706278Y-94462374D01*
X68678316Y-94469867D01*
X68668611Y-94469867D01*
X68658783Y-94471822D01*
X68541217Y-94471822D01*
X68531389Y-94469867D01*
X68521684Y-94469867D01*
X68493722Y-94462374D01*
X68425915Y-94448887D01*
X68393912Y-94435630D01*
X68370390Y-94429328D01*
X68349298Y-94417150D01*
X68317297Y-94403895D01*
X68259818Y-94365489D01*
X68234743Y-94351012D01*
X68227879Y-94344148D01*
X68219550Y-94338583D01*
X68136416Y-94255449D01*
X68130850Y-94247119D01*
X68123988Y-94240257D01*
X68109512Y-94215184D01*
X68071104Y-94157702D01*
X68057847Y-94125698D01*
X68045672Y-94104610D01*
X68039370Y-94081091D01*
X68026112Y-94049084D01*
X68012622Y-93981266D01*
X68005133Y-93953316D01*
X68004184Y-93938848D01*
X68002888Y-93932329D01*
X68000289Y-93879419D01*
X68000000Y-93875000D01*
X68000000Y-93325000D01*
X68000289Y-93320583D01*
X68002888Y-93267670D01*
X68004184Y-93261150D01*
X68005133Y-93246684D01*
X68012621Y-93218736D01*
X68026112Y-93150915D01*
X68039371Y-93118905D01*
X68045672Y-93095390D01*
X68057845Y-93074304D01*
X68071104Y-93042297D01*
X68109516Y-92984807D01*
X68123988Y-92959743D01*
X68130848Y-92952882D01*
X68136416Y-92944550D01*
X68219550Y-92861416D01*
X68227882Y-92855848D01*
X68234743Y-92848988D01*
X68259807Y-92834516D01*
X68317297Y-92796104D01*
X68349304Y-92782845D01*
X68370390Y-92770672D01*
X68393905Y-92764371D01*
X68425915Y-92751112D01*
X68493728Y-92737623D01*
X68521684Y-92730133D01*
X68531388Y-92730133D01*
X68541217Y-92728178D01*
X68658783Y-92728178D01*
X68668612Y-92730133D01*
G37*
G36*
X77568612Y-92730133D02*
G01*
X77578316Y-92730133D01*
X77606272Y-92737623D01*
X77674084Y-92751112D01*
X77706091Y-92764370D01*
X77729610Y-92770672D01*
X77750698Y-92782847D01*
X77782702Y-92796104D01*
X77840184Y-92834512D01*
X77865257Y-92848988D01*
X77872119Y-92855850D01*
X77880449Y-92861416D01*
X77963583Y-92944550D01*
X77969148Y-92952879D01*
X77976012Y-92959743D01*
X77990489Y-92984818D01*
X78028895Y-93042297D01*
X78042150Y-93074298D01*
X78054328Y-93095390D01*
X78060630Y-93118912D01*
X78073887Y-93150915D01*
X78087374Y-93218722D01*
X78094867Y-93246684D01*
X78095815Y-93261157D01*
X78097111Y-93267670D01*
X78099710Y-93320577D01*
X78100000Y-93325000D01*
X78100000Y-93875000D01*
X78099709Y-93879425D01*
X78097111Y-93932329D01*
X78095815Y-93938840D01*
X78094867Y-93953316D01*
X78087373Y-93981280D01*
X78073887Y-94049084D01*
X78060631Y-94081084D01*
X78054328Y-94104610D01*
X78042149Y-94125704D01*
X78028895Y-94157702D01*
X77990493Y-94215173D01*
X77976012Y-94240257D01*
X77969146Y-94247122D01*
X77963583Y-94255449D01*
X77880449Y-94338583D01*
X77872122Y-94344146D01*
X77865257Y-94351012D01*
X77840173Y-94365493D01*
X77782702Y-94403895D01*
X77750704Y-94417149D01*
X77729610Y-94429328D01*
X77706084Y-94435631D01*
X77674084Y-94448887D01*
X77606278Y-94462374D01*
X77578316Y-94469867D01*
X77568611Y-94469867D01*
X77558783Y-94471822D01*
X77441217Y-94471822D01*
X77431389Y-94469867D01*
X77421684Y-94469867D01*
X77393722Y-94462374D01*
X77325915Y-94448887D01*
X77293912Y-94435630D01*
X77270390Y-94429328D01*
X77249298Y-94417150D01*
X77217297Y-94403895D01*
X77159818Y-94365489D01*
X77134743Y-94351012D01*
X77127879Y-94344148D01*
X77119550Y-94338583D01*
X77036416Y-94255449D01*
X77030850Y-94247119D01*
X77023988Y-94240257D01*
X77009512Y-94215184D01*
X76971104Y-94157702D01*
X76957847Y-94125698D01*
X76945672Y-94104610D01*
X76939370Y-94081091D01*
X76926112Y-94049084D01*
X76912622Y-93981266D01*
X76905133Y-93953316D01*
X76904184Y-93938848D01*
X76902888Y-93932329D01*
X76900289Y-93879419D01*
X76900000Y-93875000D01*
X76900000Y-93325000D01*
X76900289Y-93320583D01*
X76902888Y-93267670D01*
X76904184Y-93261150D01*
X76905133Y-93246684D01*
X76912621Y-93218736D01*
X76926112Y-93150915D01*
X76939371Y-93118905D01*
X76945672Y-93095390D01*
X76957845Y-93074304D01*
X76971104Y-93042297D01*
X77009516Y-92984807D01*
X77023988Y-92959743D01*
X77030848Y-92952882D01*
X77036416Y-92944550D01*
X77119550Y-92861416D01*
X77127882Y-92855848D01*
X77134743Y-92848988D01*
X77159807Y-92834516D01*
X77217297Y-92796104D01*
X77249304Y-92782845D01*
X77270390Y-92770672D01*
X77293905Y-92764371D01*
X77325915Y-92751112D01*
X77393728Y-92737623D01*
X77421684Y-92730133D01*
X77431388Y-92730133D01*
X77441217Y-92728178D01*
X77558783Y-92728178D01*
X77568612Y-92730133D01*
G37*
G36*
X86368612Y-92730133D02*
G01*
X86378316Y-92730133D01*
X86406272Y-92737623D01*
X86474084Y-92751112D01*
X86506091Y-92764370D01*
X86529610Y-92770672D01*
X86550698Y-92782847D01*
X86582702Y-92796104D01*
X86640184Y-92834512D01*
X86665257Y-92848988D01*
X86672119Y-92855850D01*
X86680449Y-92861416D01*
X86763583Y-92944550D01*
X86769148Y-92952879D01*
X86776012Y-92959743D01*
X86790489Y-92984818D01*
X86828895Y-93042297D01*
X86842150Y-93074298D01*
X86854328Y-93095390D01*
X86860630Y-93118912D01*
X86873887Y-93150915D01*
X86887374Y-93218722D01*
X86894867Y-93246684D01*
X86895815Y-93261157D01*
X86897111Y-93267670D01*
X86899710Y-93320577D01*
X86900000Y-93325000D01*
X86900000Y-93875000D01*
X86899709Y-93879425D01*
X86897111Y-93932329D01*
X86895815Y-93938840D01*
X86894867Y-93953316D01*
X86887373Y-93981280D01*
X86873887Y-94049084D01*
X86860631Y-94081084D01*
X86854328Y-94104610D01*
X86842149Y-94125704D01*
X86828895Y-94157702D01*
X86790493Y-94215173D01*
X86776012Y-94240257D01*
X86769146Y-94247122D01*
X86763583Y-94255449D01*
X86680449Y-94338583D01*
X86672122Y-94344146D01*
X86665257Y-94351012D01*
X86640173Y-94365493D01*
X86582702Y-94403895D01*
X86550704Y-94417149D01*
X86529610Y-94429328D01*
X86506084Y-94435631D01*
X86474084Y-94448887D01*
X86406278Y-94462374D01*
X86378316Y-94469867D01*
X86368611Y-94469867D01*
X86358783Y-94471822D01*
X86241217Y-94471822D01*
X86231389Y-94469867D01*
X86221684Y-94469867D01*
X86193722Y-94462374D01*
X86125915Y-94448887D01*
X86093912Y-94435630D01*
X86070390Y-94429328D01*
X86049298Y-94417150D01*
X86017297Y-94403895D01*
X85959818Y-94365489D01*
X85934743Y-94351012D01*
X85927879Y-94344148D01*
X85919550Y-94338583D01*
X85836416Y-94255449D01*
X85830850Y-94247119D01*
X85823988Y-94240257D01*
X85809512Y-94215184D01*
X85771104Y-94157702D01*
X85757847Y-94125698D01*
X85745672Y-94104610D01*
X85739370Y-94081091D01*
X85726112Y-94049084D01*
X85712622Y-93981266D01*
X85705133Y-93953316D01*
X85704184Y-93938848D01*
X85702888Y-93932329D01*
X85700289Y-93879419D01*
X85700000Y-93875000D01*
X85700000Y-93325000D01*
X85700289Y-93320583D01*
X85702888Y-93267670D01*
X85704184Y-93261150D01*
X85705133Y-93246684D01*
X85712621Y-93218736D01*
X85726112Y-93150915D01*
X85739371Y-93118905D01*
X85745672Y-93095390D01*
X85757845Y-93074304D01*
X85771104Y-93042297D01*
X85809516Y-92984807D01*
X85823988Y-92959743D01*
X85830848Y-92952882D01*
X85836416Y-92944550D01*
X85919550Y-92861416D01*
X85927882Y-92855848D01*
X85934743Y-92848988D01*
X85959807Y-92834516D01*
X86017297Y-92796104D01*
X86049304Y-92782845D01*
X86070390Y-92770672D01*
X86093905Y-92764371D01*
X86125915Y-92751112D01*
X86193728Y-92737623D01*
X86221684Y-92730133D01*
X86231388Y-92730133D01*
X86241217Y-92728178D01*
X86358783Y-92728178D01*
X86368612Y-92730133D01*
G37*
G36*
X119668612Y-92630133D02*
G01*
X119678316Y-92630133D01*
X119706272Y-92637623D01*
X119774084Y-92651112D01*
X119806091Y-92664370D01*
X119829610Y-92670672D01*
X119850698Y-92682847D01*
X119882702Y-92696104D01*
X119940184Y-92734512D01*
X119965257Y-92748988D01*
X119972119Y-92755850D01*
X119980449Y-92761416D01*
X120063583Y-92844550D01*
X120069148Y-92852879D01*
X120076012Y-92859743D01*
X120090489Y-92884818D01*
X120128895Y-92942297D01*
X120142150Y-92974298D01*
X120154328Y-92995390D01*
X120160630Y-93018912D01*
X120173887Y-93050915D01*
X120187374Y-93118722D01*
X120194867Y-93146684D01*
X120195815Y-93161157D01*
X120197111Y-93167670D01*
X120199710Y-93220577D01*
X120200000Y-93225000D01*
X120200000Y-93775000D01*
X120199709Y-93779425D01*
X120197111Y-93832329D01*
X120195815Y-93838840D01*
X120194867Y-93853316D01*
X120187373Y-93881280D01*
X120173887Y-93949084D01*
X120160631Y-93981084D01*
X120154328Y-94004610D01*
X120142149Y-94025704D01*
X120128895Y-94057702D01*
X120090493Y-94115173D01*
X120076012Y-94140257D01*
X120069146Y-94147122D01*
X120063583Y-94155449D01*
X119980449Y-94238583D01*
X119972122Y-94244146D01*
X119965257Y-94251012D01*
X119940173Y-94265493D01*
X119882702Y-94303895D01*
X119850704Y-94317149D01*
X119829610Y-94329328D01*
X119806084Y-94335631D01*
X119774084Y-94348887D01*
X119706278Y-94362374D01*
X119678316Y-94369867D01*
X119668611Y-94369867D01*
X119658783Y-94371822D01*
X119541217Y-94371822D01*
X119531389Y-94369867D01*
X119521684Y-94369867D01*
X119493722Y-94362374D01*
X119425915Y-94348887D01*
X119393912Y-94335630D01*
X119370390Y-94329328D01*
X119349298Y-94317150D01*
X119317297Y-94303895D01*
X119259818Y-94265489D01*
X119234743Y-94251012D01*
X119227879Y-94244148D01*
X119219550Y-94238583D01*
X119136416Y-94155449D01*
X119130850Y-94147119D01*
X119123988Y-94140257D01*
X119109512Y-94115184D01*
X119071104Y-94057702D01*
X119057847Y-94025698D01*
X119045672Y-94004610D01*
X119039370Y-93981091D01*
X119026112Y-93949084D01*
X119012622Y-93881266D01*
X119005133Y-93853316D01*
X119004184Y-93838848D01*
X119002888Y-93832329D01*
X119000289Y-93779419D01*
X119000000Y-93775000D01*
X119000000Y-93225000D01*
X119000289Y-93220583D01*
X119002888Y-93167670D01*
X119004184Y-93161150D01*
X119005133Y-93146684D01*
X119012621Y-93118736D01*
X119026112Y-93050915D01*
X119039371Y-93018905D01*
X119045672Y-92995390D01*
X119057845Y-92974304D01*
X119071104Y-92942297D01*
X119109516Y-92884807D01*
X119123988Y-92859743D01*
X119130848Y-92852882D01*
X119136416Y-92844550D01*
X119219550Y-92761416D01*
X119227882Y-92755848D01*
X119234743Y-92748988D01*
X119259807Y-92734516D01*
X119317297Y-92696104D01*
X119349304Y-92682845D01*
X119370390Y-92670672D01*
X119393905Y-92664371D01*
X119425915Y-92651112D01*
X119493728Y-92637623D01*
X119521684Y-92630133D01*
X119531388Y-92630133D01*
X119541217Y-92628178D01*
X119658783Y-92628178D01*
X119668612Y-92630133D01*
G37*
G36*
X62154850Y-92838964D02*
G01*
X62205040Y-92844787D01*
X62222189Y-92852359D01*
X62245671Y-92857030D01*
X62270810Y-92873827D01*
X62290696Y-92882608D01*
X62304277Y-92896189D01*
X62326777Y-92911223D01*
X62341810Y-92933722D01*
X62355391Y-92947303D01*
X62364170Y-92967186D01*
X62380970Y-92992329D01*
X62385641Y-93015812D01*
X62393212Y-93032959D01*
X62399033Y-93083139D01*
X62400000Y-93088000D01*
X62400000Y-94112000D01*
X62399032Y-94116863D01*
X62393212Y-94167040D01*
X62385641Y-94184185D01*
X62380970Y-94207671D01*
X62364169Y-94232815D01*
X62355391Y-94252696D01*
X62341812Y-94266274D01*
X62326777Y-94288777D01*
X62304274Y-94303812D01*
X62290696Y-94317391D01*
X62270815Y-94326169D01*
X62245671Y-94342970D01*
X62222185Y-94347641D01*
X62205040Y-94355212D01*
X62154861Y-94361032D01*
X62150000Y-94362000D01*
X61450000Y-94362000D01*
X61445138Y-94361032D01*
X61394959Y-94355212D01*
X61377812Y-94347641D01*
X61354329Y-94342970D01*
X61329186Y-94326170D01*
X61309303Y-94317391D01*
X61295722Y-94303810D01*
X61273223Y-94288777D01*
X61258189Y-94266277D01*
X61244608Y-94252696D01*
X61235827Y-94232810D01*
X61219030Y-94207671D01*
X61214359Y-94184189D01*
X61206787Y-94167040D01*
X61200964Y-94116849D01*
X61200000Y-94112000D01*
X61200000Y-93088000D01*
X61200964Y-93083150D01*
X61206787Y-93032959D01*
X61214359Y-93015808D01*
X61219030Y-92992329D01*
X61235826Y-92967191D01*
X61244608Y-92947303D01*
X61258191Y-92933719D01*
X61273223Y-92911223D01*
X61295719Y-92896191D01*
X61309303Y-92882608D01*
X61329191Y-92873826D01*
X61354329Y-92857030D01*
X61377808Y-92852359D01*
X61394959Y-92844787D01*
X61445151Y-92838964D01*
X61450000Y-92838000D01*
X62150000Y-92838000D01*
X62154850Y-92838964D01*
G37*
G36*
X70954850Y-92838964D02*
G01*
X71005040Y-92844787D01*
X71022189Y-92852359D01*
X71045671Y-92857030D01*
X71070810Y-92873827D01*
X71090696Y-92882608D01*
X71104277Y-92896189D01*
X71126777Y-92911223D01*
X71141810Y-92933722D01*
X71155391Y-92947303D01*
X71164170Y-92967186D01*
X71180970Y-92992329D01*
X71185641Y-93015812D01*
X71193212Y-93032959D01*
X71199033Y-93083139D01*
X71200000Y-93088000D01*
X71200000Y-94112000D01*
X71199032Y-94116863D01*
X71193212Y-94167040D01*
X71185641Y-94184185D01*
X71180970Y-94207671D01*
X71164169Y-94232815D01*
X71155391Y-94252696D01*
X71141812Y-94266274D01*
X71126777Y-94288777D01*
X71104274Y-94303812D01*
X71090696Y-94317391D01*
X71070815Y-94326169D01*
X71045671Y-94342970D01*
X71022185Y-94347641D01*
X71005040Y-94355212D01*
X70954861Y-94361032D01*
X70950000Y-94362000D01*
X70250000Y-94362000D01*
X70245138Y-94361032D01*
X70194959Y-94355212D01*
X70177812Y-94347641D01*
X70154329Y-94342970D01*
X70129186Y-94326170D01*
X70109303Y-94317391D01*
X70095722Y-94303810D01*
X70073223Y-94288777D01*
X70058189Y-94266277D01*
X70044608Y-94252696D01*
X70035827Y-94232810D01*
X70019030Y-94207671D01*
X70014359Y-94184189D01*
X70006787Y-94167040D01*
X70000964Y-94116849D01*
X70000000Y-94112000D01*
X70000000Y-93088000D01*
X70000964Y-93083150D01*
X70006787Y-93032959D01*
X70014359Y-93015808D01*
X70019030Y-92992329D01*
X70035826Y-92967191D01*
X70044608Y-92947303D01*
X70058191Y-92933719D01*
X70073223Y-92911223D01*
X70095719Y-92896191D01*
X70109303Y-92882608D01*
X70129191Y-92873826D01*
X70154329Y-92857030D01*
X70177808Y-92852359D01*
X70194959Y-92844787D01*
X70245151Y-92838964D01*
X70250000Y-92838000D01*
X70950000Y-92838000D01*
X70954850Y-92838964D01*
G37*
G36*
X79854850Y-92838964D02*
G01*
X79905040Y-92844787D01*
X79922189Y-92852359D01*
X79945671Y-92857030D01*
X79970810Y-92873827D01*
X79990696Y-92882608D01*
X80004277Y-92896189D01*
X80026777Y-92911223D01*
X80041810Y-92933722D01*
X80055391Y-92947303D01*
X80064170Y-92967186D01*
X80080970Y-92992329D01*
X80085641Y-93015812D01*
X80093212Y-93032959D01*
X80099033Y-93083139D01*
X80100000Y-93088000D01*
X80100000Y-94112000D01*
X80099032Y-94116863D01*
X80093212Y-94167040D01*
X80085641Y-94184185D01*
X80080970Y-94207671D01*
X80064169Y-94232815D01*
X80055391Y-94252696D01*
X80041812Y-94266274D01*
X80026777Y-94288777D01*
X80004274Y-94303812D01*
X79990696Y-94317391D01*
X79970815Y-94326169D01*
X79945671Y-94342970D01*
X79922185Y-94347641D01*
X79905040Y-94355212D01*
X79854861Y-94361032D01*
X79850000Y-94362000D01*
X79150000Y-94362000D01*
X79145138Y-94361032D01*
X79094959Y-94355212D01*
X79077812Y-94347641D01*
X79054329Y-94342970D01*
X79029186Y-94326170D01*
X79009303Y-94317391D01*
X78995722Y-94303810D01*
X78973223Y-94288777D01*
X78958189Y-94266277D01*
X78944608Y-94252696D01*
X78935827Y-94232810D01*
X78919030Y-94207671D01*
X78914359Y-94184189D01*
X78906787Y-94167040D01*
X78900964Y-94116849D01*
X78900000Y-94112000D01*
X78900000Y-93088000D01*
X78900964Y-93083150D01*
X78906787Y-93032959D01*
X78914359Y-93015808D01*
X78919030Y-92992329D01*
X78935826Y-92967191D01*
X78944608Y-92947303D01*
X78958191Y-92933719D01*
X78973223Y-92911223D01*
X78995719Y-92896191D01*
X79009303Y-92882608D01*
X79029191Y-92873826D01*
X79054329Y-92857030D01*
X79077808Y-92852359D01*
X79094959Y-92844787D01*
X79145151Y-92838964D01*
X79150000Y-92838000D01*
X79850000Y-92838000D01*
X79854850Y-92838964D01*
G37*
G36*
X88654850Y-92838964D02*
G01*
X88705040Y-92844787D01*
X88722189Y-92852359D01*
X88745671Y-92857030D01*
X88770810Y-92873827D01*
X88790696Y-92882608D01*
X88804277Y-92896189D01*
X88826777Y-92911223D01*
X88841810Y-92933722D01*
X88855391Y-92947303D01*
X88864170Y-92967186D01*
X88880970Y-92992329D01*
X88885641Y-93015812D01*
X88893212Y-93032959D01*
X88899033Y-93083139D01*
X88900000Y-93088000D01*
X88900000Y-94112000D01*
X88899032Y-94116863D01*
X88893212Y-94167040D01*
X88885641Y-94184185D01*
X88880970Y-94207671D01*
X88864169Y-94232815D01*
X88855391Y-94252696D01*
X88841812Y-94266274D01*
X88826777Y-94288777D01*
X88804274Y-94303812D01*
X88790696Y-94317391D01*
X88770815Y-94326169D01*
X88745671Y-94342970D01*
X88722185Y-94347641D01*
X88705040Y-94355212D01*
X88654861Y-94361032D01*
X88650000Y-94362000D01*
X87950000Y-94362000D01*
X87945138Y-94361032D01*
X87894959Y-94355212D01*
X87877812Y-94347641D01*
X87854329Y-94342970D01*
X87829186Y-94326170D01*
X87809303Y-94317391D01*
X87795722Y-94303810D01*
X87773223Y-94288777D01*
X87758189Y-94266277D01*
X87744608Y-94252696D01*
X87735827Y-94232810D01*
X87719030Y-94207671D01*
X87714359Y-94184189D01*
X87706787Y-94167040D01*
X87700964Y-94116849D01*
X87700000Y-94112000D01*
X87700000Y-93088000D01*
X87700964Y-93083150D01*
X87706787Y-93032959D01*
X87714359Y-93015808D01*
X87719030Y-92992329D01*
X87735826Y-92967191D01*
X87744608Y-92947303D01*
X87758191Y-92933719D01*
X87773223Y-92911223D01*
X87795719Y-92896191D01*
X87809303Y-92882608D01*
X87829191Y-92873826D01*
X87854329Y-92857030D01*
X87877808Y-92852359D01*
X87894959Y-92844787D01*
X87945151Y-92838964D01*
X87950000Y-92838000D01*
X88650000Y-92838000D01*
X88654850Y-92838964D01*
G37*
G36*
X128468612Y-92530133D02*
G01*
X128478316Y-92530133D01*
X128506272Y-92537623D01*
X128574084Y-92551112D01*
X128606091Y-92564370D01*
X128629610Y-92570672D01*
X128650698Y-92582847D01*
X128682702Y-92596104D01*
X128740184Y-92634512D01*
X128765257Y-92648988D01*
X128772119Y-92655850D01*
X128780449Y-92661416D01*
X128863583Y-92744550D01*
X128869148Y-92752879D01*
X128876012Y-92759743D01*
X128890489Y-92784818D01*
X128928895Y-92842297D01*
X128942150Y-92874298D01*
X128954328Y-92895390D01*
X128960630Y-92918912D01*
X128973887Y-92950915D01*
X128987374Y-93018722D01*
X128994867Y-93046684D01*
X128995815Y-93061157D01*
X128997111Y-93067670D01*
X128999710Y-93120577D01*
X129000000Y-93125000D01*
X129000000Y-93675000D01*
X128999709Y-93679425D01*
X128997111Y-93732329D01*
X128995815Y-93738840D01*
X128994867Y-93753316D01*
X128987373Y-93781280D01*
X128973887Y-93849084D01*
X128960631Y-93881084D01*
X128954328Y-93904610D01*
X128942149Y-93925704D01*
X128928895Y-93957702D01*
X128890493Y-94015173D01*
X128876012Y-94040257D01*
X128869146Y-94047122D01*
X128863583Y-94055449D01*
X128780449Y-94138583D01*
X128772122Y-94144146D01*
X128765257Y-94151012D01*
X128740173Y-94165493D01*
X128682702Y-94203895D01*
X128650704Y-94217149D01*
X128629610Y-94229328D01*
X128606084Y-94235631D01*
X128574084Y-94248887D01*
X128506278Y-94262374D01*
X128478316Y-94269867D01*
X128468611Y-94269867D01*
X128458783Y-94271822D01*
X128341217Y-94271822D01*
X128331389Y-94269867D01*
X128321684Y-94269867D01*
X128293722Y-94262374D01*
X128225915Y-94248887D01*
X128193912Y-94235630D01*
X128170390Y-94229328D01*
X128149298Y-94217150D01*
X128117297Y-94203895D01*
X128059818Y-94165489D01*
X128034743Y-94151012D01*
X128027879Y-94144148D01*
X128019550Y-94138583D01*
X127936416Y-94055449D01*
X127930850Y-94047119D01*
X127923988Y-94040257D01*
X127909512Y-94015184D01*
X127871104Y-93957702D01*
X127857847Y-93925698D01*
X127845672Y-93904610D01*
X127839370Y-93881091D01*
X127826112Y-93849084D01*
X127812622Y-93781266D01*
X127805133Y-93753316D01*
X127804184Y-93738848D01*
X127802888Y-93732329D01*
X127800289Y-93679419D01*
X127800000Y-93675000D01*
X127800000Y-93125000D01*
X127800289Y-93120583D01*
X127802888Y-93067670D01*
X127804184Y-93061150D01*
X127805133Y-93046684D01*
X127812621Y-93018736D01*
X127826112Y-92950915D01*
X127839371Y-92918905D01*
X127845672Y-92895390D01*
X127857845Y-92874304D01*
X127871104Y-92842297D01*
X127909516Y-92784807D01*
X127923988Y-92759743D01*
X127930848Y-92752882D01*
X127936416Y-92744550D01*
X128019550Y-92661416D01*
X128027882Y-92655848D01*
X128034743Y-92648988D01*
X128059807Y-92634516D01*
X128117297Y-92596104D01*
X128149304Y-92582845D01*
X128170390Y-92570672D01*
X128193905Y-92564371D01*
X128225915Y-92551112D01*
X128293728Y-92537623D01*
X128321684Y-92530133D01*
X128331388Y-92530133D01*
X128341217Y-92528178D01*
X128458783Y-92528178D01*
X128468612Y-92530133D01*
G37*
G36*
X137368612Y-92530133D02*
G01*
X137378316Y-92530133D01*
X137406272Y-92537623D01*
X137474084Y-92551112D01*
X137506091Y-92564370D01*
X137529610Y-92570672D01*
X137550698Y-92582847D01*
X137582702Y-92596104D01*
X137640184Y-92634512D01*
X137665257Y-92648988D01*
X137672119Y-92655850D01*
X137680449Y-92661416D01*
X137763583Y-92744550D01*
X137769148Y-92752879D01*
X137776012Y-92759743D01*
X137790489Y-92784818D01*
X137828895Y-92842297D01*
X137842150Y-92874298D01*
X137854328Y-92895390D01*
X137860630Y-92918912D01*
X137873887Y-92950915D01*
X137887374Y-93018722D01*
X137894867Y-93046684D01*
X137895815Y-93061157D01*
X137897111Y-93067670D01*
X137899710Y-93120577D01*
X137900000Y-93125000D01*
X137900000Y-93675000D01*
X137899709Y-93679425D01*
X137897111Y-93732329D01*
X137895815Y-93738840D01*
X137894867Y-93753316D01*
X137887373Y-93781280D01*
X137873887Y-93849084D01*
X137860631Y-93881084D01*
X137854328Y-93904610D01*
X137842149Y-93925704D01*
X137828895Y-93957702D01*
X137790493Y-94015173D01*
X137776012Y-94040257D01*
X137769146Y-94047122D01*
X137763583Y-94055449D01*
X137680449Y-94138583D01*
X137672122Y-94144146D01*
X137665257Y-94151012D01*
X137640173Y-94165493D01*
X137582702Y-94203895D01*
X137550704Y-94217149D01*
X137529610Y-94229328D01*
X137506084Y-94235631D01*
X137474084Y-94248887D01*
X137406278Y-94262374D01*
X137378316Y-94269867D01*
X137368611Y-94269867D01*
X137358783Y-94271822D01*
X137241217Y-94271822D01*
X137231389Y-94269867D01*
X137221684Y-94269867D01*
X137193722Y-94262374D01*
X137125915Y-94248887D01*
X137093912Y-94235630D01*
X137070390Y-94229328D01*
X137049298Y-94217150D01*
X137017297Y-94203895D01*
X136959818Y-94165489D01*
X136934743Y-94151012D01*
X136927879Y-94144148D01*
X136919550Y-94138583D01*
X136836416Y-94055449D01*
X136830850Y-94047119D01*
X136823988Y-94040257D01*
X136809512Y-94015184D01*
X136771104Y-93957702D01*
X136757847Y-93925698D01*
X136745672Y-93904610D01*
X136739370Y-93881091D01*
X136726112Y-93849084D01*
X136712622Y-93781266D01*
X136705133Y-93753316D01*
X136704184Y-93738848D01*
X136702888Y-93732329D01*
X136700289Y-93679419D01*
X136700000Y-93675000D01*
X136700000Y-93125000D01*
X136700289Y-93120583D01*
X136702888Y-93067670D01*
X136704184Y-93061150D01*
X136705133Y-93046684D01*
X136712621Y-93018736D01*
X136726112Y-92950915D01*
X136739371Y-92918905D01*
X136745672Y-92895390D01*
X136757845Y-92874304D01*
X136771104Y-92842297D01*
X136809516Y-92784807D01*
X136823988Y-92759743D01*
X136830848Y-92752882D01*
X136836416Y-92744550D01*
X136919550Y-92661416D01*
X136927882Y-92655848D01*
X136934743Y-92648988D01*
X136959807Y-92634516D01*
X137017297Y-92596104D01*
X137049304Y-92582845D01*
X137070390Y-92570672D01*
X137093905Y-92564371D01*
X137125915Y-92551112D01*
X137193728Y-92537623D01*
X137221684Y-92530133D01*
X137231388Y-92530133D01*
X137241217Y-92528178D01*
X137358783Y-92528178D01*
X137368612Y-92530133D01*
G37*
G36*
X146168612Y-92530133D02*
G01*
X146178316Y-92530133D01*
X146206272Y-92537623D01*
X146274084Y-92551112D01*
X146306091Y-92564370D01*
X146329610Y-92570672D01*
X146350698Y-92582847D01*
X146382702Y-92596104D01*
X146440184Y-92634512D01*
X146465257Y-92648988D01*
X146472119Y-92655850D01*
X146480449Y-92661416D01*
X146563583Y-92744550D01*
X146569148Y-92752879D01*
X146576012Y-92759743D01*
X146590489Y-92784818D01*
X146628895Y-92842297D01*
X146642150Y-92874298D01*
X146654328Y-92895390D01*
X146660630Y-92918912D01*
X146673887Y-92950915D01*
X146687374Y-93018722D01*
X146694867Y-93046684D01*
X146695815Y-93061157D01*
X146697111Y-93067670D01*
X146699710Y-93120577D01*
X146700000Y-93125000D01*
X146700000Y-93675000D01*
X146699709Y-93679425D01*
X146697111Y-93732329D01*
X146695815Y-93738840D01*
X146694867Y-93753316D01*
X146687373Y-93781280D01*
X146673887Y-93849084D01*
X146660631Y-93881084D01*
X146654328Y-93904610D01*
X146642149Y-93925704D01*
X146628895Y-93957702D01*
X146590493Y-94015173D01*
X146576012Y-94040257D01*
X146569146Y-94047122D01*
X146563583Y-94055449D01*
X146480449Y-94138583D01*
X146472122Y-94144146D01*
X146465257Y-94151012D01*
X146440173Y-94165493D01*
X146382702Y-94203895D01*
X146350704Y-94217149D01*
X146329610Y-94229328D01*
X146306084Y-94235631D01*
X146274084Y-94248887D01*
X146206278Y-94262374D01*
X146178316Y-94269867D01*
X146168611Y-94269867D01*
X146158783Y-94271822D01*
X146041217Y-94271822D01*
X146031389Y-94269867D01*
X146021684Y-94269867D01*
X145993722Y-94262374D01*
X145925915Y-94248887D01*
X145893912Y-94235630D01*
X145870390Y-94229328D01*
X145849298Y-94217150D01*
X145817297Y-94203895D01*
X145759818Y-94165489D01*
X145734743Y-94151012D01*
X145727879Y-94144148D01*
X145719550Y-94138583D01*
X145636416Y-94055449D01*
X145630850Y-94047119D01*
X145623988Y-94040257D01*
X145609512Y-94015184D01*
X145571104Y-93957702D01*
X145557847Y-93925698D01*
X145545672Y-93904610D01*
X145539370Y-93881091D01*
X145526112Y-93849084D01*
X145512622Y-93781266D01*
X145505133Y-93753316D01*
X145504184Y-93738848D01*
X145502888Y-93732329D01*
X145500289Y-93679419D01*
X145500000Y-93675000D01*
X145500000Y-93125000D01*
X145500289Y-93120583D01*
X145502888Y-93067670D01*
X145504184Y-93061150D01*
X145505133Y-93046684D01*
X145512621Y-93018736D01*
X145526112Y-92950915D01*
X145539371Y-92918905D01*
X145545672Y-92895390D01*
X145557845Y-92874304D01*
X145571104Y-92842297D01*
X145609516Y-92784807D01*
X145623988Y-92759743D01*
X145630848Y-92752882D01*
X145636416Y-92744550D01*
X145719550Y-92661416D01*
X145727882Y-92655848D01*
X145734743Y-92648988D01*
X145759807Y-92634516D01*
X145817297Y-92596104D01*
X145849304Y-92582845D01*
X145870390Y-92570672D01*
X145893905Y-92564371D01*
X145925915Y-92551112D01*
X145993728Y-92537623D01*
X146021684Y-92530133D01*
X146031388Y-92530133D01*
X146041217Y-92528178D01*
X146158783Y-92528178D01*
X146168612Y-92530133D01*
G37*
G36*
X121954850Y-92738964D02*
G01*
X122005040Y-92744787D01*
X122022189Y-92752359D01*
X122045671Y-92757030D01*
X122070810Y-92773827D01*
X122090696Y-92782608D01*
X122104277Y-92796189D01*
X122126777Y-92811223D01*
X122141810Y-92833722D01*
X122155391Y-92847303D01*
X122164170Y-92867186D01*
X122180970Y-92892329D01*
X122185641Y-92915812D01*
X122193212Y-92932959D01*
X122199033Y-92983139D01*
X122200000Y-92988000D01*
X122200000Y-94012000D01*
X122199032Y-94016863D01*
X122193212Y-94067040D01*
X122185641Y-94084185D01*
X122180970Y-94107671D01*
X122164169Y-94132815D01*
X122155391Y-94152696D01*
X122141812Y-94166274D01*
X122126777Y-94188777D01*
X122104274Y-94203812D01*
X122090696Y-94217391D01*
X122070815Y-94226169D01*
X122045671Y-94242970D01*
X122022185Y-94247641D01*
X122005040Y-94255212D01*
X121954861Y-94261032D01*
X121950000Y-94262000D01*
X121250000Y-94262000D01*
X121245138Y-94261032D01*
X121194959Y-94255212D01*
X121177812Y-94247641D01*
X121154329Y-94242970D01*
X121129186Y-94226170D01*
X121109303Y-94217391D01*
X121095722Y-94203810D01*
X121073223Y-94188777D01*
X121058189Y-94166277D01*
X121044608Y-94152696D01*
X121035827Y-94132810D01*
X121019030Y-94107671D01*
X121014359Y-94084189D01*
X121006787Y-94067040D01*
X121000964Y-94016849D01*
X121000000Y-94012000D01*
X121000000Y-92988000D01*
X121000964Y-92983150D01*
X121006787Y-92932959D01*
X121014359Y-92915808D01*
X121019030Y-92892329D01*
X121035826Y-92867191D01*
X121044608Y-92847303D01*
X121058191Y-92833719D01*
X121073223Y-92811223D01*
X121095719Y-92796191D01*
X121109303Y-92782608D01*
X121129191Y-92773826D01*
X121154329Y-92757030D01*
X121177808Y-92752359D01*
X121194959Y-92744787D01*
X121245151Y-92738964D01*
X121250000Y-92738000D01*
X121950000Y-92738000D01*
X121954850Y-92738964D01*
G37*
G36*
X130754850Y-92638964D02*
G01*
X130805040Y-92644787D01*
X130822189Y-92652359D01*
X130845671Y-92657030D01*
X130870810Y-92673827D01*
X130890696Y-92682608D01*
X130904277Y-92696189D01*
X130926777Y-92711223D01*
X130941810Y-92733722D01*
X130955391Y-92747303D01*
X130964170Y-92767186D01*
X130980970Y-92792329D01*
X130985641Y-92815812D01*
X130993212Y-92832959D01*
X130999033Y-92883139D01*
X131000000Y-92888000D01*
X131000000Y-93912000D01*
X130999032Y-93916863D01*
X130993212Y-93967040D01*
X130985641Y-93984185D01*
X130980970Y-94007671D01*
X130964169Y-94032815D01*
X130955391Y-94052696D01*
X130941812Y-94066274D01*
X130926777Y-94088777D01*
X130904274Y-94103812D01*
X130890696Y-94117391D01*
X130870815Y-94126169D01*
X130845671Y-94142970D01*
X130822185Y-94147641D01*
X130805040Y-94155212D01*
X130754861Y-94161032D01*
X130750000Y-94162000D01*
X130050000Y-94162000D01*
X130045138Y-94161032D01*
X129994959Y-94155212D01*
X129977812Y-94147641D01*
X129954329Y-94142970D01*
X129929186Y-94126170D01*
X129909303Y-94117391D01*
X129895722Y-94103810D01*
X129873223Y-94088777D01*
X129858189Y-94066277D01*
X129844608Y-94052696D01*
X129835827Y-94032810D01*
X129819030Y-94007671D01*
X129814359Y-93984189D01*
X129806787Y-93967040D01*
X129800964Y-93916849D01*
X129800000Y-93912000D01*
X129800000Y-92888000D01*
X129800964Y-92883150D01*
X129806787Y-92832959D01*
X129814359Y-92815808D01*
X129819030Y-92792329D01*
X129835826Y-92767191D01*
X129844608Y-92747303D01*
X129858191Y-92733719D01*
X129873223Y-92711223D01*
X129895719Y-92696191D01*
X129909303Y-92682608D01*
X129929191Y-92673826D01*
X129954329Y-92657030D01*
X129977808Y-92652359D01*
X129994959Y-92644787D01*
X130045151Y-92638964D01*
X130050000Y-92638000D01*
X130750000Y-92638000D01*
X130754850Y-92638964D01*
G37*
G36*
X139654850Y-92638964D02*
G01*
X139705040Y-92644787D01*
X139722189Y-92652359D01*
X139745671Y-92657030D01*
X139770810Y-92673827D01*
X139790696Y-92682608D01*
X139804277Y-92696189D01*
X139826777Y-92711223D01*
X139841810Y-92733722D01*
X139855391Y-92747303D01*
X139864170Y-92767186D01*
X139880970Y-92792329D01*
X139885641Y-92815812D01*
X139893212Y-92832959D01*
X139899033Y-92883139D01*
X139900000Y-92888000D01*
X139900000Y-93912000D01*
X139899032Y-93916863D01*
X139893212Y-93967040D01*
X139885641Y-93984185D01*
X139880970Y-94007671D01*
X139864169Y-94032815D01*
X139855391Y-94052696D01*
X139841812Y-94066274D01*
X139826777Y-94088777D01*
X139804274Y-94103812D01*
X139790696Y-94117391D01*
X139770815Y-94126169D01*
X139745671Y-94142970D01*
X139722185Y-94147641D01*
X139705040Y-94155212D01*
X139654861Y-94161032D01*
X139650000Y-94162000D01*
X138950000Y-94162000D01*
X138945138Y-94161032D01*
X138894959Y-94155212D01*
X138877812Y-94147641D01*
X138854329Y-94142970D01*
X138829186Y-94126170D01*
X138809303Y-94117391D01*
X138795722Y-94103810D01*
X138773223Y-94088777D01*
X138758189Y-94066277D01*
X138744608Y-94052696D01*
X138735827Y-94032810D01*
X138719030Y-94007671D01*
X138714359Y-93984189D01*
X138706787Y-93967040D01*
X138700964Y-93916849D01*
X138700000Y-93912000D01*
X138700000Y-92888000D01*
X138700964Y-92883150D01*
X138706787Y-92832959D01*
X138714359Y-92815808D01*
X138719030Y-92792329D01*
X138735826Y-92767191D01*
X138744608Y-92747303D01*
X138758191Y-92733719D01*
X138773223Y-92711223D01*
X138795719Y-92696191D01*
X138809303Y-92682608D01*
X138829191Y-92673826D01*
X138854329Y-92657030D01*
X138877808Y-92652359D01*
X138894959Y-92644787D01*
X138945151Y-92638964D01*
X138950000Y-92638000D01*
X139650000Y-92638000D01*
X139654850Y-92638964D01*
G37*
G36*
X148454850Y-92638964D02*
G01*
X148505040Y-92644787D01*
X148522189Y-92652359D01*
X148545671Y-92657030D01*
X148570810Y-92673827D01*
X148590696Y-92682608D01*
X148604277Y-92696189D01*
X148626777Y-92711223D01*
X148641810Y-92733722D01*
X148655391Y-92747303D01*
X148664170Y-92767186D01*
X148680970Y-92792329D01*
X148685641Y-92815812D01*
X148693212Y-92832959D01*
X148699033Y-92883139D01*
X148700000Y-92888000D01*
X148700000Y-93912000D01*
X148699032Y-93916863D01*
X148693212Y-93967040D01*
X148685641Y-93984185D01*
X148680970Y-94007671D01*
X148664169Y-94032815D01*
X148655391Y-94052696D01*
X148641812Y-94066274D01*
X148626777Y-94088777D01*
X148604274Y-94103812D01*
X148590696Y-94117391D01*
X148570815Y-94126169D01*
X148545671Y-94142970D01*
X148522185Y-94147641D01*
X148505040Y-94155212D01*
X148454861Y-94161032D01*
X148450000Y-94162000D01*
X147750000Y-94162000D01*
X147745138Y-94161032D01*
X147694959Y-94155212D01*
X147677812Y-94147641D01*
X147654329Y-94142970D01*
X147629186Y-94126170D01*
X147609303Y-94117391D01*
X147595722Y-94103810D01*
X147573223Y-94088777D01*
X147558189Y-94066277D01*
X147544608Y-94052696D01*
X147535827Y-94032810D01*
X147519030Y-94007671D01*
X147514359Y-93984189D01*
X147506787Y-93967040D01*
X147500964Y-93916849D01*
X147500000Y-93912000D01*
X147500000Y-92888000D01*
X147500964Y-92883150D01*
X147506787Y-92832959D01*
X147514359Y-92815808D01*
X147519030Y-92792329D01*
X147535826Y-92767191D01*
X147544608Y-92747303D01*
X147558191Y-92733719D01*
X147573223Y-92711223D01*
X147595719Y-92696191D01*
X147609303Y-92682608D01*
X147629191Y-92673826D01*
X147654329Y-92657030D01*
X147677808Y-92652359D01*
X147694959Y-92644787D01*
X147745151Y-92638964D01*
X147750000Y-92638000D01*
X148450000Y-92638000D01*
X148454850Y-92638964D01*
G37*
G36*
X58491342Y-91038060D02*
G01*
X58604381Y-91103323D01*
X58696677Y-91195619D01*
X58761940Y-91308658D01*
X58795722Y-91434737D01*
X58795722Y-91565263D01*
X58761940Y-91691342D01*
X58696677Y-91804381D01*
X58604381Y-91896677D01*
X58491342Y-91961940D01*
X58365263Y-91995722D01*
X58234737Y-91995722D01*
X58108658Y-91961940D01*
X57995619Y-91896677D01*
X57903323Y-91804381D01*
X57838060Y-91691342D01*
X57804278Y-91565263D01*
X57804278Y-91434737D01*
X57838060Y-91308658D01*
X57903323Y-91195619D01*
X57995619Y-91103323D01*
X58108658Y-91038060D01*
X58234737Y-91004278D01*
X58365263Y-91004278D01*
X58491342Y-91038060D01*
G37*
G36*
X63491342Y-91038060D02*
G01*
X63604381Y-91103323D01*
X63696677Y-91195619D01*
X63761940Y-91308658D01*
X63795722Y-91434737D01*
X63795722Y-91565263D01*
X63761940Y-91691342D01*
X63696677Y-91804381D01*
X63604381Y-91896677D01*
X63491342Y-91961940D01*
X63365263Y-91995722D01*
X63234737Y-91995722D01*
X63108658Y-91961940D01*
X62995619Y-91896677D01*
X62903323Y-91804381D01*
X62838060Y-91691342D01*
X62804278Y-91565263D01*
X62804278Y-91434737D01*
X62838060Y-91308658D01*
X62903323Y-91195619D01*
X62995619Y-91103323D01*
X63108658Y-91038060D01*
X63234737Y-91004278D01*
X63365263Y-91004278D01*
X63491342Y-91038060D01*
G37*
G36*
X67291342Y-91038060D02*
G01*
X67404381Y-91103323D01*
X67496677Y-91195619D01*
X67561940Y-91308658D01*
X67595722Y-91434737D01*
X67595722Y-91565263D01*
X67561940Y-91691342D01*
X67496677Y-91804381D01*
X67404381Y-91896677D01*
X67291342Y-91961940D01*
X67165263Y-91995722D01*
X67034737Y-91995722D01*
X66908658Y-91961940D01*
X66795619Y-91896677D01*
X66703323Y-91804381D01*
X66638060Y-91691342D01*
X66604278Y-91565263D01*
X66604278Y-91434737D01*
X66638060Y-91308658D01*
X66703323Y-91195619D01*
X66795619Y-91103323D01*
X66908658Y-91038060D01*
X67034737Y-91004278D01*
X67165263Y-91004278D01*
X67291342Y-91038060D01*
G37*
G36*
X72291342Y-91038060D02*
G01*
X72404381Y-91103323D01*
X72496677Y-91195619D01*
X72561940Y-91308658D01*
X72595722Y-91434737D01*
X72595722Y-91565263D01*
X72561940Y-91691342D01*
X72496677Y-91804381D01*
X72404381Y-91896677D01*
X72291342Y-91961940D01*
X72165263Y-91995722D01*
X72034737Y-91995722D01*
X71908658Y-91961940D01*
X71795619Y-91896677D01*
X71703323Y-91804381D01*
X71638060Y-91691342D01*
X71604278Y-91565263D01*
X71604278Y-91434737D01*
X71638060Y-91308658D01*
X71703323Y-91195619D01*
X71795619Y-91103323D01*
X71908658Y-91038060D01*
X72034737Y-91004278D01*
X72165263Y-91004278D01*
X72291342Y-91038060D01*
G37*
G36*
X76191342Y-91038060D02*
G01*
X76304381Y-91103323D01*
X76396677Y-91195619D01*
X76461940Y-91308658D01*
X76495722Y-91434737D01*
X76495722Y-91565263D01*
X76461940Y-91691342D01*
X76396677Y-91804381D01*
X76304381Y-91896677D01*
X76191342Y-91961940D01*
X76065263Y-91995722D01*
X75934737Y-91995722D01*
X75808658Y-91961940D01*
X75695619Y-91896677D01*
X75603323Y-91804381D01*
X75538060Y-91691342D01*
X75504278Y-91565263D01*
X75504278Y-91434737D01*
X75538060Y-91308658D01*
X75603323Y-91195619D01*
X75695619Y-91103323D01*
X75808658Y-91038060D01*
X75934737Y-91004278D01*
X76065263Y-91004278D01*
X76191342Y-91038060D01*
G37*
G36*
X81191342Y-91038060D02*
G01*
X81304381Y-91103323D01*
X81396677Y-91195619D01*
X81461940Y-91308658D01*
X81495722Y-91434737D01*
X81495722Y-91565263D01*
X81461940Y-91691342D01*
X81396677Y-91804381D01*
X81304381Y-91896677D01*
X81191342Y-91961940D01*
X81065263Y-91995722D01*
X80934737Y-91995722D01*
X80808658Y-91961940D01*
X80695619Y-91896677D01*
X80603323Y-91804381D01*
X80538060Y-91691342D01*
X80504278Y-91565263D01*
X80504278Y-91434737D01*
X80538060Y-91308658D01*
X80603323Y-91195619D01*
X80695619Y-91103323D01*
X80808658Y-91038060D01*
X80934737Y-91004278D01*
X81065263Y-91004278D01*
X81191342Y-91038060D01*
G37*
G36*
X84991342Y-91038060D02*
G01*
X85104381Y-91103323D01*
X85196677Y-91195619D01*
X85261940Y-91308658D01*
X85295722Y-91434737D01*
X85295722Y-91565263D01*
X85261940Y-91691342D01*
X85196677Y-91804381D01*
X85104381Y-91896677D01*
X84991342Y-91961940D01*
X84865263Y-91995722D01*
X84734737Y-91995722D01*
X84608658Y-91961940D01*
X84495619Y-91896677D01*
X84403323Y-91804381D01*
X84338060Y-91691342D01*
X84304278Y-91565263D01*
X84304278Y-91434737D01*
X84338060Y-91308658D01*
X84403323Y-91195619D01*
X84495619Y-91103323D01*
X84608658Y-91038060D01*
X84734737Y-91004278D01*
X84865263Y-91004278D01*
X84991342Y-91038060D01*
G37*
G36*
X89991342Y-91038060D02*
G01*
X90104381Y-91103323D01*
X90196677Y-91195619D01*
X90261940Y-91308658D01*
X90295722Y-91434737D01*
X90295722Y-91565263D01*
X90261940Y-91691342D01*
X90196677Y-91804381D01*
X90104381Y-91896677D01*
X89991342Y-91961940D01*
X89865263Y-91995722D01*
X89734737Y-91995722D01*
X89608658Y-91961940D01*
X89495619Y-91896677D01*
X89403323Y-91804381D01*
X89338060Y-91691342D01*
X89304278Y-91565263D01*
X89304278Y-91434737D01*
X89338060Y-91308658D01*
X89403323Y-91195619D01*
X89495619Y-91103323D01*
X89608658Y-91038060D01*
X89734737Y-91004278D01*
X89865263Y-91004278D01*
X89991342Y-91038060D01*
G37*
G36*
X118291342Y-90938060D02*
G01*
X118404381Y-91003323D01*
X118496677Y-91095619D01*
X118561940Y-91208658D01*
X118595722Y-91334737D01*
X118595722Y-91465263D01*
X118561940Y-91591342D01*
X118496677Y-91704381D01*
X118404381Y-91796677D01*
X118291342Y-91861940D01*
X118165263Y-91895722D01*
X118034737Y-91895722D01*
X117908658Y-91861940D01*
X117795619Y-91796677D01*
X117703323Y-91704381D01*
X117638060Y-91591342D01*
X117604278Y-91465263D01*
X117604278Y-91334737D01*
X117638060Y-91208658D01*
X117703323Y-91095619D01*
X117795619Y-91003323D01*
X117908658Y-90938060D01*
X118034737Y-90904278D01*
X118165263Y-90904278D01*
X118291342Y-90938060D01*
G37*
G36*
X123291342Y-90938060D02*
G01*
X123404381Y-91003323D01*
X123496677Y-91095619D01*
X123561940Y-91208658D01*
X123595722Y-91334737D01*
X123595722Y-91465263D01*
X123561940Y-91591342D01*
X123496677Y-91704381D01*
X123404381Y-91796677D01*
X123291342Y-91861940D01*
X123165263Y-91895722D01*
X123034737Y-91895722D01*
X122908658Y-91861940D01*
X122795619Y-91796677D01*
X122703323Y-91704381D01*
X122638060Y-91591342D01*
X122604278Y-91465263D01*
X122604278Y-91334737D01*
X122638060Y-91208658D01*
X122703323Y-91095619D01*
X122795619Y-91003323D01*
X122908658Y-90938060D01*
X123034737Y-90904278D01*
X123165263Y-90904278D01*
X123291342Y-90938060D01*
G37*
G36*
X127091342Y-90838060D02*
G01*
X127204381Y-90903323D01*
X127296677Y-90995619D01*
X127361940Y-91108658D01*
X127395722Y-91234737D01*
X127395722Y-91365263D01*
X127361940Y-91491342D01*
X127296677Y-91604381D01*
X127204381Y-91696677D01*
X127091342Y-91761940D01*
X126965263Y-91795722D01*
X126834737Y-91795722D01*
X126708658Y-91761940D01*
X126595619Y-91696677D01*
X126503323Y-91604381D01*
X126438060Y-91491342D01*
X126404278Y-91365263D01*
X126404278Y-91234737D01*
X126438060Y-91108658D01*
X126503323Y-90995619D01*
X126595619Y-90903323D01*
X126708658Y-90838060D01*
X126834737Y-90804278D01*
X126965263Y-90804278D01*
X127091342Y-90838060D01*
G37*
G36*
X132091342Y-90838060D02*
G01*
X132204381Y-90903323D01*
X132296677Y-90995619D01*
X132361940Y-91108658D01*
X132395722Y-91234737D01*
X132395722Y-91365263D01*
X132361940Y-91491342D01*
X132296677Y-91604381D01*
X132204381Y-91696677D01*
X132091342Y-91761940D01*
X131965263Y-91795722D01*
X131834737Y-91795722D01*
X131708658Y-91761940D01*
X131595619Y-91696677D01*
X131503323Y-91604381D01*
X131438060Y-91491342D01*
X131404278Y-91365263D01*
X131404278Y-91234737D01*
X131438060Y-91108658D01*
X131503323Y-90995619D01*
X131595619Y-90903323D01*
X131708658Y-90838060D01*
X131834737Y-90804278D01*
X131965263Y-90804278D01*
X132091342Y-90838060D01*
G37*
G36*
X135991342Y-90838060D02*
G01*
X136104381Y-90903323D01*
X136196677Y-90995619D01*
X136261940Y-91108658D01*
X136295722Y-91234737D01*
X136295722Y-91365263D01*
X136261940Y-91491342D01*
X136196677Y-91604381D01*
X136104381Y-91696677D01*
X135991342Y-91761940D01*
X135865263Y-91795722D01*
X135734737Y-91795722D01*
X135608658Y-91761940D01*
X135495619Y-91696677D01*
X135403323Y-91604381D01*
X135338060Y-91491342D01*
X135304278Y-91365263D01*
X135304278Y-91234737D01*
X135338060Y-91108658D01*
X135403323Y-90995619D01*
X135495619Y-90903323D01*
X135608658Y-90838060D01*
X135734737Y-90804278D01*
X135865263Y-90804278D01*
X135991342Y-90838060D01*
G37*
G36*
X140991342Y-90838060D02*
G01*
X141104381Y-90903323D01*
X141196677Y-90995619D01*
X141261940Y-91108658D01*
X141295722Y-91234737D01*
X141295722Y-91365263D01*
X141261940Y-91491342D01*
X141196677Y-91604381D01*
X141104381Y-91696677D01*
X140991342Y-91761940D01*
X140865263Y-91795722D01*
X140734737Y-91795722D01*
X140608658Y-91761940D01*
X140495619Y-91696677D01*
X140403323Y-91604381D01*
X140338060Y-91491342D01*
X140304278Y-91365263D01*
X140304278Y-91234737D01*
X140338060Y-91108658D01*
X140403323Y-90995619D01*
X140495619Y-90903323D01*
X140608658Y-90838060D01*
X140734737Y-90804278D01*
X140865263Y-90804278D01*
X140991342Y-90838060D01*
G37*
G36*
X144791342Y-90838060D02*
G01*
X144904381Y-90903323D01*
X144996677Y-90995619D01*
X145061940Y-91108658D01*
X145095722Y-91234737D01*
X145095722Y-91365263D01*
X145061940Y-91491342D01*
X144996677Y-91604381D01*
X144904381Y-91696677D01*
X144791342Y-91761940D01*
X144665263Y-91795722D01*
X144534737Y-91795722D01*
X144408658Y-91761940D01*
X144295619Y-91696677D01*
X144203323Y-91604381D01*
X144138060Y-91491342D01*
X144104278Y-91365263D01*
X144104278Y-91234737D01*
X144138060Y-91108658D01*
X144203323Y-90995619D01*
X144295619Y-90903323D01*
X144408658Y-90838060D01*
X144534737Y-90804278D01*
X144665263Y-90804278D01*
X144791342Y-90838060D01*
G37*
G36*
X149791342Y-90838060D02*
G01*
X149904381Y-90903323D01*
X149996677Y-90995619D01*
X150061940Y-91108658D01*
X150095722Y-91234737D01*
X150095722Y-91365263D01*
X150061940Y-91491342D01*
X149996677Y-91604381D01*
X149904381Y-91696677D01*
X149791342Y-91761940D01*
X149665263Y-91795722D01*
X149534737Y-91795722D01*
X149408658Y-91761940D01*
X149295619Y-91696677D01*
X149203323Y-91604381D01*
X149138060Y-91491342D01*
X149104278Y-91365263D01*
X149104278Y-91234737D01*
X149138060Y-91108658D01*
X149203323Y-90995619D01*
X149295619Y-90903323D01*
X149408658Y-90838060D01*
X149534737Y-90804278D01*
X149665263Y-90804278D01*
X149791342Y-90838060D01*
G37*
G36*
X115568612Y-65330133D02*
G01*
X115578316Y-65330133D01*
X115606272Y-65337623D01*
X115674084Y-65351112D01*
X115706091Y-65364370D01*
X115729610Y-65370672D01*
X115750698Y-65382847D01*
X115782702Y-65396104D01*
X115840184Y-65434512D01*
X115865257Y-65448988D01*
X115872119Y-65455850D01*
X115880449Y-65461416D01*
X115963583Y-65544550D01*
X115969148Y-65552879D01*
X115976012Y-65559743D01*
X115990489Y-65584818D01*
X116028895Y-65642297D01*
X116042150Y-65674298D01*
X116054328Y-65695390D01*
X116060630Y-65718912D01*
X116073887Y-65750915D01*
X116087374Y-65818722D01*
X116094867Y-65846684D01*
X116095815Y-65861157D01*
X116097111Y-65867670D01*
X116099710Y-65920577D01*
X116100000Y-65925000D01*
X116100000Y-66475000D01*
X116099709Y-66479425D01*
X116097111Y-66532329D01*
X116095815Y-66538840D01*
X116094867Y-66553316D01*
X116087373Y-66581280D01*
X116073887Y-66649084D01*
X116060631Y-66681084D01*
X116054328Y-66704610D01*
X116042149Y-66725704D01*
X116028895Y-66757702D01*
X115990493Y-66815173D01*
X115976012Y-66840257D01*
X115969146Y-66847122D01*
X115963583Y-66855449D01*
X115880449Y-66938583D01*
X115872122Y-66944146D01*
X115865257Y-66951012D01*
X115840173Y-66965493D01*
X115782702Y-67003895D01*
X115750704Y-67017149D01*
X115729610Y-67029328D01*
X115706084Y-67035631D01*
X115674084Y-67048887D01*
X115606278Y-67062374D01*
X115578316Y-67069867D01*
X115568611Y-67069867D01*
X115558783Y-67071822D01*
X115441217Y-67071822D01*
X115431389Y-67069867D01*
X115421684Y-67069867D01*
X115393722Y-67062374D01*
X115325915Y-67048887D01*
X115293912Y-67035630D01*
X115270390Y-67029328D01*
X115249298Y-67017150D01*
X115217297Y-67003895D01*
X115159818Y-66965489D01*
X115134743Y-66951012D01*
X115127879Y-66944148D01*
X115119550Y-66938583D01*
X115036416Y-66855449D01*
X115030850Y-66847119D01*
X115023988Y-66840257D01*
X115009512Y-66815184D01*
X114971104Y-66757702D01*
X114957847Y-66725698D01*
X114945672Y-66704610D01*
X114939370Y-66681091D01*
X114926112Y-66649084D01*
X114912622Y-66581266D01*
X114905133Y-66553316D01*
X114904184Y-66538848D01*
X114902888Y-66532329D01*
X114900289Y-66479419D01*
X114900000Y-66475000D01*
X114900000Y-65925000D01*
X114900289Y-65920583D01*
X114902888Y-65867670D01*
X114904184Y-65861150D01*
X114905133Y-65846684D01*
X114912621Y-65818736D01*
X114926112Y-65750915D01*
X114939371Y-65718905D01*
X114945672Y-65695390D01*
X114957845Y-65674304D01*
X114971104Y-65642297D01*
X115009516Y-65584807D01*
X115023988Y-65559743D01*
X115030848Y-65552882D01*
X115036416Y-65544550D01*
X115119550Y-65461416D01*
X115127882Y-65455848D01*
X115134743Y-65448988D01*
X115159807Y-65434516D01*
X115217297Y-65396104D01*
X115249304Y-65382845D01*
X115270390Y-65370672D01*
X115293905Y-65364371D01*
X115325915Y-65351112D01*
X115393728Y-65337623D01*
X115421684Y-65330133D01*
X115431388Y-65330133D01*
X115441217Y-65328178D01*
X115558783Y-65328178D01*
X115568612Y-65330133D01*
G37*
G36*
X124068612Y-65330133D02*
G01*
X124078316Y-65330133D01*
X124106272Y-65337623D01*
X124174084Y-65351112D01*
X124206091Y-65364370D01*
X124229610Y-65370672D01*
X124250698Y-65382847D01*
X124282702Y-65396104D01*
X124340184Y-65434512D01*
X124365257Y-65448988D01*
X124372119Y-65455850D01*
X124380449Y-65461416D01*
X124463583Y-65544550D01*
X124469148Y-65552879D01*
X124476012Y-65559743D01*
X124490489Y-65584818D01*
X124528895Y-65642297D01*
X124542150Y-65674298D01*
X124554328Y-65695390D01*
X124560630Y-65718912D01*
X124573887Y-65750915D01*
X124587374Y-65818722D01*
X124594867Y-65846684D01*
X124595815Y-65861157D01*
X124597111Y-65867670D01*
X124599710Y-65920577D01*
X124600000Y-65925000D01*
X124600000Y-66475000D01*
X124599709Y-66479425D01*
X124597111Y-66532329D01*
X124595815Y-66538840D01*
X124594867Y-66553316D01*
X124587373Y-66581280D01*
X124573887Y-66649084D01*
X124560631Y-66681084D01*
X124554328Y-66704610D01*
X124542149Y-66725704D01*
X124528895Y-66757702D01*
X124490493Y-66815173D01*
X124476012Y-66840257D01*
X124469146Y-66847122D01*
X124463583Y-66855449D01*
X124380449Y-66938583D01*
X124372122Y-66944146D01*
X124365257Y-66951012D01*
X124340173Y-66965493D01*
X124282702Y-67003895D01*
X124250704Y-67017149D01*
X124229610Y-67029328D01*
X124206084Y-67035631D01*
X124174084Y-67048887D01*
X124106278Y-67062374D01*
X124078316Y-67069867D01*
X124068611Y-67069867D01*
X124058783Y-67071822D01*
X123941217Y-67071822D01*
X123931389Y-67069867D01*
X123921684Y-67069867D01*
X123893722Y-67062374D01*
X123825915Y-67048887D01*
X123793912Y-67035630D01*
X123770390Y-67029328D01*
X123749298Y-67017150D01*
X123717297Y-67003895D01*
X123659818Y-66965489D01*
X123634743Y-66951012D01*
X123627879Y-66944148D01*
X123619550Y-66938583D01*
X123536416Y-66855449D01*
X123530850Y-66847119D01*
X123523988Y-66840257D01*
X123509512Y-66815184D01*
X123471104Y-66757702D01*
X123457847Y-66725698D01*
X123445672Y-66704610D01*
X123439370Y-66681091D01*
X123426112Y-66649084D01*
X123412622Y-66581266D01*
X123405133Y-66553316D01*
X123404184Y-66538848D01*
X123402888Y-66532329D01*
X123400289Y-66479419D01*
X123400000Y-66475000D01*
X123400000Y-65925000D01*
X123400289Y-65920583D01*
X123402888Y-65867670D01*
X123404184Y-65861150D01*
X123405133Y-65846684D01*
X123412621Y-65818736D01*
X123426112Y-65750915D01*
X123439371Y-65718905D01*
X123445672Y-65695390D01*
X123457845Y-65674304D01*
X123471104Y-65642297D01*
X123509516Y-65584807D01*
X123523988Y-65559743D01*
X123530848Y-65552882D01*
X123536416Y-65544550D01*
X123619550Y-65461416D01*
X123627882Y-65455848D01*
X123634743Y-65448988D01*
X123659807Y-65434516D01*
X123717297Y-65396104D01*
X123749304Y-65382845D01*
X123770390Y-65370672D01*
X123793905Y-65364371D01*
X123825915Y-65351112D01*
X123893728Y-65337623D01*
X123921684Y-65330133D01*
X123931388Y-65330133D01*
X123941217Y-65328178D01*
X124058783Y-65328178D01*
X124068612Y-65330133D01*
G37*
G36*
X64368612Y-65230133D02*
G01*
X64378316Y-65230133D01*
X64406272Y-65237623D01*
X64474084Y-65251112D01*
X64506091Y-65264370D01*
X64529610Y-65270672D01*
X64550698Y-65282847D01*
X64582702Y-65296104D01*
X64640184Y-65334512D01*
X64665257Y-65348988D01*
X64672119Y-65355850D01*
X64680449Y-65361416D01*
X64763583Y-65444550D01*
X64769148Y-65452879D01*
X64776012Y-65459743D01*
X64790489Y-65484818D01*
X64828895Y-65542297D01*
X64842150Y-65574298D01*
X64854328Y-65595390D01*
X64860630Y-65618912D01*
X64873887Y-65650915D01*
X64887374Y-65718722D01*
X64894867Y-65746684D01*
X64895815Y-65761157D01*
X64897111Y-65767670D01*
X64899710Y-65820577D01*
X64900000Y-65825000D01*
X64900000Y-66375000D01*
X64899709Y-66379425D01*
X64897111Y-66432329D01*
X64895815Y-66438840D01*
X64894867Y-66453316D01*
X64887373Y-66481280D01*
X64873887Y-66549084D01*
X64860631Y-66581084D01*
X64854328Y-66604610D01*
X64842149Y-66625704D01*
X64828895Y-66657702D01*
X64790493Y-66715173D01*
X64776012Y-66740257D01*
X64769146Y-66747122D01*
X64763583Y-66755449D01*
X64680449Y-66838583D01*
X64672122Y-66844146D01*
X64665257Y-66851012D01*
X64640173Y-66865493D01*
X64582702Y-66903895D01*
X64550704Y-66917149D01*
X64529610Y-66929328D01*
X64506084Y-66935631D01*
X64474084Y-66948887D01*
X64406278Y-66962374D01*
X64378316Y-66969867D01*
X64368611Y-66969867D01*
X64358783Y-66971822D01*
X64241217Y-66971822D01*
X64231389Y-66969867D01*
X64221684Y-66969867D01*
X64193722Y-66962374D01*
X64125915Y-66948887D01*
X64093912Y-66935630D01*
X64070390Y-66929328D01*
X64049298Y-66917150D01*
X64017297Y-66903895D01*
X63959818Y-66865489D01*
X63934743Y-66851012D01*
X63927879Y-66844148D01*
X63919550Y-66838583D01*
X63836416Y-66755449D01*
X63830850Y-66747119D01*
X63823988Y-66740257D01*
X63809512Y-66715184D01*
X63771104Y-66657702D01*
X63757847Y-66625698D01*
X63745672Y-66604610D01*
X63739370Y-66581091D01*
X63726112Y-66549084D01*
X63712622Y-66481266D01*
X63705133Y-66453316D01*
X63704184Y-66438848D01*
X63702888Y-66432329D01*
X63700289Y-66379419D01*
X63700000Y-66375000D01*
X63700000Y-65825000D01*
X63700289Y-65820583D01*
X63702888Y-65767670D01*
X63704184Y-65761150D01*
X63705133Y-65746684D01*
X63712621Y-65718736D01*
X63726112Y-65650915D01*
X63739371Y-65618905D01*
X63745672Y-65595390D01*
X63757845Y-65574304D01*
X63771104Y-65542297D01*
X63809516Y-65484807D01*
X63823988Y-65459743D01*
X63830848Y-65452882D01*
X63836416Y-65444550D01*
X63919550Y-65361416D01*
X63927882Y-65355848D01*
X63934743Y-65348988D01*
X63959807Y-65334516D01*
X64017297Y-65296104D01*
X64049304Y-65282845D01*
X64070390Y-65270672D01*
X64093905Y-65264371D01*
X64125915Y-65251112D01*
X64193728Y-65237623D01*
X64221684Y-65230133D01*
X64231388Y-65230133D01*
X64241217Y-65228178D01*
X64358783Y-65228178D01*
X64368612Y-65230133D01*
G37*
G36*
X73201945Y-65230133D02*
G01*
X73211649Y-65230133D01*
X73239605Y-65237623D01*
X73307417Y-65251112D01*
X73339424Y-65264370D01*
X73362943Y-65270672D01*
X73384031Y-65282847D01*
X73416035Y-65296104D01*
X73473517Y-65334512D01*
X73498590Y-65348988D01*
X73505452Y-65355850D01*
X73513782Y-65361416D01*
X73596916Y-65444550D01*
X73602481Y-65452879D01*
X73609345Y-65459743D01*
X73623822Y-65484818D01*
X73662228Y-65542297D01*
X73675483Y-65574298D01*
X73687661Y-65595390D01*
X73693963Y-65618912D01*
X73707220Y-65650915D01*
X73720707Y-65718722D01*
X73728200Y-65746684D01*
X73729148Y-65761157D01*
X73730444Y-65767670D01*
X73733043Y-65820577D01*
X73733333Y-65825000D01*
X73733333Y-66375000D01*
X73733042Y-66379425D01*
X73730444Y-66432329D01*
X73729148Y-66438840D01*
X73728200Y-66453316D01*
X73720706Y-66481280D01*
X73707220Y-66549084D01*
X73693964Y-66581084D01*
X73687661Y-66604610D01*
X73675482Y-66625704D01*
X73662228Y-66657702D01*
X73623826Y-66715173D01*
X73609345Y-66740257D01*
X73602479Y-66747122D01*
X73596916Y-66755449D01*
X73513782Y-66838583D01*
X73505455Y-66844146D01*
X73498590Y-66851012D01*
X73473506Y-66865493D01*
X73416035Y-66903895D01*
X73384037Y-66917149D01*
X73362943Y-66929328D01*
X73339417Y-66935631D01*
X73307417Y-66948887D01*
X73239611Y-66962374D01*
X73211649Y-66969867D01*
X73201944Y-66969867D01*
X73192116Y-66971822D01*
X73074550Y-66971822D01*
X73064722Y-66969867D01*
X73055017Y-66969867D01*
X73027055Y-66962374D01*
X72959248Y-66948887D01*
X72927245Y-66935630D01*
X72903723Y-66929328D01*
X72882631Y-66917150D01*
X72850630Y-66903895D01*
X72793151Y-66865489D01*
X72768076Y-66851012D01*
X72761212Y-66844148D01*
X72752883Y-66838583D01*
X72669749Y-66755449D01*
X72664183Y-66747119D01*
X72657321Y-66740257D01*
X72642845Y-66715184D01*
X72604437Y-66657702D01*
X72591180Y-66625698D01*
X72579005Y-66604610D01*
X72572703Y-66581091D01*
X72559445Y-66549084D01*
X72545955Y-66481266D01*
X72538466Y-66453316D01*
X72537517Y-66438848D01*
X72536221Y-66432329D01*
X72533622Y-66379419D01*
X72533333Y-66375000D01*
X72533333Y-65825000D01*
X72533622Y-65820583D01*
X72536221Y-65767670D01*
X72537517Y-65761150D01*
X72538466Y-65746684D01*
X72545954Y-65718736D01*
X72559445Y-65650915D01*
X72572704Y-65618905D01*
X72579005Y-65595390D01*
X72591178Y-65574304D01*
X72604437Y-65542297D01*
X72642849Y-65484807D01*
X72657321Y-65459743D01*
X72664181Y-65452882D01*
X72669749Y-65444550D01*
X72752883Y-65361416D01*
X72761215Y-65355848D01*
X72768076Y-65348988D01*
X72793140Y-65334516D01*
X72850630Y-65296104D01*
X72882637Y-65282845D01*
X72903723Y-65270672D01*
X72927238Y-65264371D01*
X72959248Y-65251112D01*
X73027061Y-65237623D01*
X73055017Y-65230133D01*
X73064721Y-65230133D01*
X73074550Y-65228178D01*
X73192116Y-65228178D01*
X73201945Y-65230133D01*
G37*
G36*
X82035279Y-65230133D02*
G01*
X82044983Y-65230133D01*
X82072939Y-65237623D01*
X82140751Y-65251112D01*
X82172758Y-65264370D01*
X82196277Y-65270672D01*
X82217365Y-65282847D01*
X82249369Y-65296104D01*
X82306851Y-65334512D01*
X82331924Y-65348988D01*
X82338786Y-65355850D01*
X82347116Y-65361416D01*
X82430250Y-65444550D01*
X82435815Y-65452879D01*
X82442679Y-65459743D01*
X82457156Y-65484818D01*
X82495562Y-65542297D01*
X82508817Y-65574298D01*
X82520995Y-65595390D01*
X82527297Y-65618912D01*
X82540554Y-65650915D01*
X82554041Y-65718722D01*
X82561534Y-65746684D01*
X82562482Y-65761157D01*
X82563778Y-65767670D01*
X82566377Y-65820577D01*
X82566667Y-65825000D01*
X82566667Y-66375000D01*
X82566376Y-66379425D01*
X82563778Y-66432329D01*
X82562482Y-66438840D01*
X82561534Y-66453316D01*
X82554040Y-66481280D01*
X82540554Y-66549084D01*
X82527298Y-66581084D01*
X82520995Y-66604610D01*
X82508816Y-66625704D01*
X82495562Y-66657702D01*
X82457160Y-66715173D01*
X82442679Y-66740257D01*
X82435813Y-66747122D01*
X82430250Y-66755449D01*
X82347116Y-66838583D01*
X82338789Y-66844146D01*
X82331924Y-66851012D01*
X82306840Y-66865493D01*
X82249369Y-66903895D01*
X82217371Y-66917149D01*
X82196277Y-66929328D01*
X82172751Y-66935631D01*
X82140751Y-66948887D01*
X82072945Y-66962374D01*
X82044983Y-66969867D01*
X82035278Y-66969867D01*
X82025450Y-66971822D01*
X81907884Y-66971822D01*
X81898056Y-66969867D01*
X81888351Y-66969867D01*
X81860389Y-66962374D01*
X81792582Y-66948887D01*
X81760579Y-66935630D01*
X81737057Y-66929328D01*
X81715965Y-66917150D01*
X81683964Y-66903895D01*
X81626485Y-66865489D01*
X81601410Y-66851012D01*
X81594546Y-66844148D01*
X81586217Y-66838583D01*
X81503083Y-66755449D01*
X81497517Y-66747119D01*
X81490655Y-66740257D01*
X81476179Y-66715184D01*
X81437771Y-66657702D01*
X81424514Y-66625698D01*
X81412339Y-66604610D01*
X81406037Y-66581091D01*
X81392779Y-66549084D01*
X81379289Y-66481266D01*
X81371800Y-66453316D01*
X81370851Y-66438848D01*
X81369555Y-66432329D01*
X81366956Y-66379419D01*
X81366667Y-66375000D01*
X81366667Y-65825000D01*
X81366956Y-65820583D01*
X81369555Y-65767670D01*
X81370851Y-65761150D01*
X81371800Y-65746684D01*
X81379288Y-65718736D01*
X81392779Y-65650915D01*
X81406038Y-65618905D01*
X81412339Y-65595390D01*
X81424512Y-65574304D01*
X81437771Y-65542297D01*
X81476183Y-65484807D01*
X81490655Y-65459743D01*
X81497515Y-65452882D01*
X81503083Y-65444550D01*
X81586217Y-65361416D01*
X81594549Y-65355848D01*
X81601410Y-65348988D01*
X81626474Y-65334516D01*
X81683964Y-65296104D01*
X81715971Y-65282845D01*
X81737057Y-65270672D01*
X81760572Y-65264371D01*
X81792582Y-65251112D01*
X81860395Y-65237623D01*
X81888351Y-65230133D01*
X81898055Y-65230133D01*
X81907884Y-65228178D01*
X82025450Y-65228178D01*
X82035279Y-65230133D01*
G37*
G36*
X90868612Y-65230133D02*
G01*
X90878316Y-65230133D01*
X90906272Y-65237623D01*
X90974084Y-65251112D01*
X91006091Y-65264370D01*
X91029610Y-65270672D01*
X91050698Y-65282847D01*
X91082702Y-65296104D01*
X91140184Y-65334512D01*
X91165257Y-65348988D01*
X91172119Y-65355850D01*
X91180449Y-65361416D01*
X91263583Y-65444550D01*
X91269148Y-65452879D01*
X91276012Y-65459743D01*
X91290489Y-65484818D01*
X91328895Y-65542297D01*
X91342150Y-65574298D01*
X91354328Y-65595390D01*
X91360630Y-65618912D01*
X91373887Y-65650915D01*
X91387374Y-65718722D01*
X91394867Y-65746684D01*
X91395815Y-65761157D01*
X91397111Y-65767670D01*
X91399710Y-65820577D01*
X91400000Y-65825000D01*
X91400000Y-66375000D01*
X91399709Y-66379425D01*
X91397111Y-66432329D01*
X91395815Y-66438840D01*
X91394867Y-66453316D01*
X91387373Y-66481280D01*
X91373887Y-66549084D01*
X91360631Y-66581084D01*
X91354328Y-66604610D01*
X91342149Y-66625704D01*
X91328895Y-66657702D01*
X91290493Y-66715173D01*
X91276012Y-66740257D01*
X91269146Y-66747122D01*
X91263583Y-66755449D01*
X91180449Y-66838583D01*
X91172122Y-66844146D01*
X91165257Y-66851012D01*
X91140173Y-66865493D01*
X91082702Y-66903895D01*
X91050704Y-66917149D01*
X91029610Y-66929328D01*
X91006084Y-66935631D01*
X90974084Y-66948887D01*
X90906278Y-66962374D01*
X90878316Y-66969867D01*
X90868611Y-66969867D01*
X90858783Y-66971822D01*
X90741217Y-66971822D01*
X90731389Y-66969867D01*
X90721684Y-66969867D01*
X90693722Y-66962374D01*
X90625915Y-66948887D01*
X90593912Y-66935630D01*
X90570390Y-66929328D01*
X90549298Y-66917150D01*
X90517297Y-66903895D01*
X90459818Y-66865489D01*
X90434743Y-66851012D01*
X90427879Y-66844148D01*
X90419550Y-66838583D01*
X90336416Y-66755449D01*
X90330850Y-66747119D01*
X90323988Y-66740257D01*
X90309512Y-66715184D01*
X90271104Y-66657702D01*
X90257847Y-66625698D01*
X90245672Y-66604610D01*
X90239370Y-66581091D01*
X90226112Y-66549084D01*
X90212622Y-66481266D01*
X90205133Y-66453316D01*
X90204184Y-66438848D01*
X90202888Y-66432329D01*
X90200289Y-66379419D01*
X90200000Y-66375000D01*
X90200000Y-65825000D01*
X90200289Y-65820583D01*
X90202888Y-65767670D01*
X90204184Y-65761150D01*
X90205133Y-65746684D01*
X90212621Y-65718736D01*
X90226112Y-65650915D01*
X90239371Y-65618905D01*
X90245672Y-65595390D01*
X90257845Y-65574304D01*
X90271104Y-65542297D01*
X90309516Y-65484807D01*
X90323988Y-65459743D01*
X90330848Y-65452882D01*
X90336416Y-65444550D01*
X90419550Y-65361416D01*
X90427882Y-65355848D01*
X90434743Y-65348988D01*
X90459807Y-65334516D01*
X90517297Y-65296104D01*
X90549304Y-65282845D01*
X90570390Y-65270672D01*
X90593905Y-65264371D01*
X90625915Y-65251112D01*
X90693728Y-65237623D01*
X90721684Y-65230133D01*
X90731388Y-65230133D01*
X90741217Y-65228178D01*
X90858783Y-65228178D01*
X90868612Y-65230133D01*
G37*
G36*
X100118612Y-65230133D02*
G01*
X100128316Y-65230133D01*
X100156272Y-65237623D01*
X100224084Y-65251112D01*
X100256091Y-65264370D01*
X100279610Y-65270672D01*
X100300698Y-65282847D01*
X100332702Y-65296104D01*
X100390184Y-65334512D01*
X100415257Y-65348988D01*
X100422119Y-65355850D01*
X100430449Y-65361416D01*
X100513583Y-65444550D01*
X100519148Y-65452879D01*
X100526012Y-65459743D01*
X100540489Y-65484818D01*
X100578895Y-65542297D01*
X100592150Y-65574298D01*
X100604328Y-65595390D01*
X100610630Y-65618912D01*
X100623887Y-65650915D01*
X100637374Y-65718722D01*
X100644867Y-65746684D01*
X100645815Y-65761157D01*
X100647111Y-65767670D01*
X100649710Y-65820577D01*
X100650000Y-65825000D01*
X100650000Y-66375000D01*
X100649709Y-66379425D01*
X100647111Y-66432329D01*
X100645815Y-66438840D01*
X100644867Y-66453316D01*
X100637373Y-66481280D01*
X100623887Y-66549084D01*
X100610631Y-66581084D01*
X100604328Y-66604610D01*
X100592149Y-66625704D01*
X100578895Y-66657702D01*
X100540493Y-66715173D01*
X100526012Y-66740257D01*
X100519146Y-66747122D01*
X100513583Y-66755449D01*
X100430449Y-66838583D01*
X100422122Y-66844146D01*
X100415257Y-66851012D01*
X100390173Y-66865493D01*
X100332702Y-66903895D01*
X100300704Y-66917149D01*
X100279610Y-66929328D01*
X100256084Y-66935631D01*
X100224084Y-66948887D01*
X100156278Y-66962374D01*
X100128316Y-66969867D01*
X100118611Y-66969867D01*
X100108783Y-66971822D01*
X99991217Y-66971822D01*
X99981389Y-66969867D01*
X99971684Y-66969867D01*
X99943722Y-66962374D01*
X99875915Y-66948887D01*
X99843912Y-66935630D01*
X99820390Y-66929328D01*
X99799298Y-66917150D01*
X99767297Y-66903895D01*
X99709818Y-66865489D01*
X99684743Y-66851012D01*
X99677879Y-66844148D01*
X99669550Y-66838583D01*
X99586416Y-66755449D01*
X99580850Y-66747119D01*
X99573988Y-66740257D01*
X99559512Y-66715184D01*
X99521104Y-66657702D01*
X99507847Y-66625698D01*
X99495672Y-66604610D01*
X99489370Y-66581091D01*
X99476112Y-66549084D01*
X99462622Y-66481266D01*
X99455133Y-66453316D01*
X99454184Y-66438848D01*
X99452888Y-66432329D01*
X99450289Y-66379419D01*
X99450000Y-66375000D01*
X99450000Y-65825000D01*
X99450289Y-65820583D01*
X99452888Y-65767670D01*
X99454184Y-65761150D01*
X99455133Y-65746684D01*
X99462621Y-65718736D01*
X99476112Y-65650915D01*
X99489371Y-65618905D01*
X99495672Y-65595390D01*
X99507845Y-65574304D01*
X99521104Y-65542297D01*
X99559516Y-65484807D01*
X99573988Y-65459743D01*
X99580848Y-65452882D01*
X99586416Y-65444550D01*
X99669550Y-65361416D01*
X99677882Y-65355848D01*
X99684743Y-65348988D01*
X99709807Y-65334516D01*
X99767297Y-65296104D01*
X99799304Y-65282845D01*
X99820390Y-65270672D01*
X99843905Y-65264371D01*
X99875915Y-65251112D01*
X99943728Y-65237623D01*
X99971684Y-65230133D01*
X99981388Y-65230133D01*
X99991217Y-65228178D01*
X100108783Y-65228178D01*
X100118612Y-65230133D01*
G37*
G36*
X102118612Y-65230133D02*
G01*
X102128316Y-65230133D01*
X102156272Y-65237623D01*
X102224084Y-65251112D01*
X102256091Y-65264370D01*
X102279610Y-65270672D01*
X102300698Y-65282847D01*
X102332702Y-65296104D01*
X102390184Y-65334512D01*
X102415257Y-65348988D01*
X102422119Y-65355850D01*
X102430449Y-65361416D01*
X102513583Y-65444550D01*
X102519148Y-65452879D01*
X102526012Y-65459743D01*
X102540489Y-65484818D01*
X102578895Y-65542297D01*
X102592150Y-65574298D01*
X102604328Y-65595390D01*
X102610630Y-65618912D01*
X102623887Y-65650915D01*
X102637374Y-65718722D01*
X102644867Y-65746684D01*
X102645815Y-65761157D01*
X102647111Y-65767670D01*
X102649710Y-65820577D01*
X102650000Y-65825000D01*
X102650000Y-66375000D01*
X102649709Y-66379425D01*
X102647111Y-66432329D01*
X102645815Y-66438840D01*
X102644867Y-66453316D01*
X102637373Y-66481280D01*
X102623887Y-66549084D01*
X102610631Y-66581084D01*
X102604328Y-66604610D01*
X102592149Y-66625704D01*
X102578895Y-66657702D01*
X102540493Y-66715173D01*
X102526012Y-66740257D01*
X102519146Y-66747122D01*
X102513583Y-66755449D01*
X102430449Y-66838583D01*
X102422122Y-66844146D01*
X102415257Y-66851012D01*
X102390173Y-66865493D01*
X102332702Y-66903895D01*
X102300704Y-66917149D01*
X102279610Y-66929328D01*
X102256084Y-66935631D01*
X102224084Y-66948887D01*
X102156278Y-66962374D01*
X102128316Y-66969867D01*
X102118611Y-66969867D01*
X102108783Y-66971822D01*
X101991217Y-66971822D01*
X101981389Y-66969867D01*
X101971684Y-66969867D01*
X101943722Y-66962374D01*
X101875915Y-66948887D01*
X101843912Y-66935630D01*
X101820390Y-66929328D01*
X101799298Y-66917150D01*
X101767297Y-66903895D01*
X101709818Y-66865489D01*
X101684743Y-66851012D01*
X101677879Y-66844148D01*
X101669550Y-66838583D01*
X101586416Y-66755449D01*
X101580850Y-66747119D01*
X101573988Y-66740257D01*
X101559512Y-66715184D01*
X101521104Y-66657702D01*
X101507847Y-66625698D01*
X101495672Y-66604610D01*
X101489370Y-66581091D01*
X101476112Y-66549084D01*
X101462622Y-66481266D01*
X101455133Y-66453316D01*
X101454184Y-66438848D01*
X101452888Y-66432329D01*
X101450289Y-66379419D01*
X101450000Y-66375000D01*
X101450000Y-65825000D01*
X101450289Y-65820583D01*
X101452888Y-65767670D01*
X101454184Y-65761150D01*
X101455133Y-65746684D01*
X101462621Y-65718736D01*
X101476112Y-65650915D01*
X101489371Y-65618905D01*
X101495672Y-65595390D01*
X101507845Y-65574304D01*
X101521104Y-65542297D01*
X101559516Y-65484807D01*
X101573988Y-65459743D01*
X101580848Y-65452882D01*
X101586416Y-65444550D01*
X101669550Y-65361416D01*
X101677882Y-65355848D01*
X101684743Y-65348988D01*
X101709807Y-65334516D01*
X101767297Y-65296104D01*
X101799304Y-65282845D01*
X101820390Y-65270672D01*
X101843905Y-65264371D01*
X101875915Y-65251112D01*
X101943728Y-65237623D01*
X101971684Y-65230133D01*
X101981388Y-65230133D01*
X101991217Y-65228178D01*
X102108783Y-65228178D01*
X102118612Y-65230133D01*
G37*
G36*
X104118612Y-65230133D02*
G01*
X104128316Y-65230133D01*
X104156272Y-65237623D01*
X104224084Y-65251112D01*
X104256091Y-65264370D01*
X104279610Y-65270672D01*
X104300698Y-65282847D01*
X104332702Y-65296104D01*
X104390184Y-65334512D01*
X104415257Y-65348988D01*
X104422119Y-65355850D01*
X104430449Y-65361416D01*
X104513583Y-65444550D01*
X104519148Y-65452879D01*
X104526012Y-65459743D01*
X104540489Y-65484818D01*
X104578895Y-65542297D01*
X104592150Y-65574298D01*
X104604328Y-65595390D01*
X104610630Y-65618912D01*
X104623887Y-65650915D01*
X104637374Y-65718722D01*
X104644867Y-65746684D01*
X104645815Y-65761157D01*
X104647111Y-65767670D01*
X104649710Y-65820577D01*
X104650000Y-65825000D01*
X104650000Y-66375000D01*
X104649709Y-66379425D01*
X104647111Y-66432329D01*
X104645815Y-66438840D01*
X104644867Y-66453316D01*
X104637373Y-66481280D01*
X104623887Y-66549084D01*
X104610631Y-66581084D01*
X104604328Y-66604610D01*
X104592149Y-66625704D01*
X104578895Y-66657702D01*
X104540493Y-66715173D01*
X104526012Y-66740257D01*
X104519146Y-66747122D01*
X104513583Y-66755449D01*
X104430449Y-66838583D01*
X104422122Y-66844146D01*
X104415257Y-66851012D01*
X104390173Y-66865493D01*
X104332702Y-66903895D01*
X104300704Y-66917149D01*
X104279610Y-66929328D01*
X104256084Y-66935631D01*
X104224084Y-66948887D01*
X104156278Y-66962374D01*
X104128316Y-66969867D01*
X104118611Y-66969867D01*
X104108783Y-66971822D01*
X103991217Y-66971822D01*
X103981389Y-66969867D01*
X103971684Y-66969867D01*
X103943722Y-66962374D01*
X103875915Y-66948887D01*
X103843912Y-66935630D01*
X103820390Y-66929328D01*
X103799298Y-66917150D01*
X103767297Y-66903895D01*
X103709818Y-66865489D01*
X103684743Y-66851012D01*
X103677879Y-66844148D01*
X103669550Y-66838583D01*
X103586416Y-66755449D01*
X103580850Y-66747119D01*
X103573988Y-66740257D01*
X103559512Y-66715184D01*
X103521104Y-66657702D01*
X103507847Y-66625698D01*
X103495672Y-66604610D01*
X103489370Y-66581091D01*
X103476112Y-66549084D01*
X103462622Y-66481266D01*
X103455133Y-66453316D01*
X103454184Y-66438848D01*
X103452888Y-66432329D01*
X103450289Y-66379419D01*
X103450000Y-66375000D01*
X103450000Y-65825000D01*
X103450289Y-65820583D01*
X103452888Y-65767670D01*
X103454184Y-65761150D01*
X103455133Y-65746684D01*
X103462621Y-65718736D01*
X103476112Y-65650915D01*
X103489371Y-65618905D01*
X103495672Y-65595390D01*
X103507845Y-65574304D01*
X103521104Y-65542297D01*
X103559516Y-65484807D01*
X103573988Y-65459743D01*
X103580848Y-65452882D01*
X103586416Y-65444550D01*
X103669550Y-65361416D01*
X103677882Y-65355848D01*
X103684743Y-65348988D01*
X103709807Y-65334516D01*
X103767297Y-65296104D01*
X103799304Y-65282845D01*
X103820390Y-65270672D01*
X103843905Y-65264371D01*
X103875915Y-65251112D01*
X103943728Y-65237623D01*
X103971684Y-65230133D01*
X103981388Y-65230133D01*
X103991217Y-65228178D01*
X104108783Y-65228178D01*
X104118612Y-65230133D01*
G37*
G36*
X106118612Y-65230133D02*
G01*
X106128316Y-65230133D01*
X106156272Y-65237623D01*
X106224084Y-65251112D01*
X106256091Y-65264370D01*
X106279610Y-65270672D01*
X106300698Y-65282847D01*
X106332702Y-65296104D01*
X106390184Y-65334512D01*
X106415257Y-65348988D01*
X106422119Y-65355850D01*
X106430449Y-65361416D01*
X106513583Y-65444550D01*
X106519148Y-65452879D01*
X106526012Y-65459743D01*
X106540489Y-65484818D01*
X106578895Y-65542297D01*
X106592150Y-65574298D01*
X106604328Y-65595390D01*
X106610630Y-65618912D01*
X106623887Y-65650915D01*
X106637374Y-65718722D01*
X106644867Y-65746684D01*
X106645815Y-65761157D01*
X106647111Y-65767670D01*
X106649710Y-65820577D01*
X106650000Y-65825000D01*
X106650000Y-66375000D01*
X106649709Y-66379425D01*
X106647111Y-66432329D01*
X106645815Y-66438840D01*
X106644867Y-66453316D01*
X106637373Y-66481280D01*
X106623887Y-66549084D01*
X106610631Y-66581084D01*
X106604328Y-66604610D01*
X106592149Y-66625704D01*
X106578895Y-66657702D01*
X106540493Y-66715173D01*
X106526012Y-66740257D01*
X106519146Y-66747122D01*
X106513583Y-66755449D01*
X106430449Y-66838583D01*
X106422122Y-66844146D01*
X106415257Y-66851012D01*
X106390173Y-66865493D01*
X106332702Y-66903895D01*
X106300704Y-66917149D01*
X106279610Y-66929328D01*
X106256084Y-66935631D01*
X106224084Y-66948887D01*
X106156278Y-66962374D01*
X106128316Y-66969867D01*
X106118611Y-66969867D01*
X106108783Y-66971822D01*
X105991217Y-66971822D01*
X105981389Y-66969867D01*
X105971684Y-66969867D01*
X105943722Y-66962374D01*
X105875915Y-66948887D01*
X105843912Y-66935630D01*
X105820390Y-66929328D01*
X105799298Y-66917150D01*
X105767297Y-66903895D01*
X105709818Y-66865489D01*
X105684743Y-66851012D01*
X105677879Y-66844148D01*
X105669550Y-66838583D01*
X105586416Y-66755449D01*
X105580850Y-66747119D01*
X105573988Y-66740257D01*
X105559512Y-66715184D01*
X105521104Y-66657702D01*
X105507847Y-66625698D01*
X105495672Y-66604610D01*
X105489370Y-66581091D01*
X105476112Y-66549084D01*
X105462622Y-66481266D01*
X105455133Y-66453316D01*
X105454184Y-66438848D01*
X105452888Y-66432329D01*
X105450289Y-66379419D01*
X105450000Y-66375000D01*
X105450000Y-65825000D01*
X105450289Y-65820583D01*
X105452888Y-65767670D01*
X105454184Y-65761150D01*
X105455133Y-65746684D01*
X105462621Y-65718736D01*
X105476112Y-65650915D01*
X105489371Y-65618905D01*
X105495672Y-65595390D01*
X105507845Y-65574304D01*
X105521104Y-65542297D01*
X105559516Y-65484807D01*
X105573988Y-65459743D01*
X105580848Y-65452882D01*
X105586416Y-65444550D01*
X105669550Y-65361416D01*
X105677882Y-65355848D01*
X105684743Y-65348988D01*
X105709807Y-65334516D01*
X105767297Y-65296104D01*
X105799304Y-65282845D01*
X105820390Y-65270672D01*
X105843905Y-65264371D01*
X105875915Y-65251112D01*
X105943728Y-65237623D01*
X105971684Y-65230133D01*
X105981388Y-65230133D01*
X105991217Y-65228178D01*
X106108783Y-65228178D01*
X106118612Y-65230133D01*
G37*
G36*
X133068612Y-65230133D02*
G01*
X133078316Y-65230133D01*
X133106272Y-65237623D01*
X133174084Y-65251112D01*
X133206091Y-65264370D01*
X133229610Y-65270672D01*
X133250698Y-65282847D01*
X133282702Y-65296104D01*
X133340184Y-65334512D01*
X133365257Y-65348988D01*
X133372119Y-65355850D01*
X133380449Y-65361416D01*
X133463583Y-65444550D01*
X133469148Y-65452879D01*
X133476012Y-65459743D01*
X133490489Y-65484818D01*
X133528895Y-65542297D01*
X133542150Y-65574298D01*
X133554328Y-65595390D01*
X133560630Y-65618912D01*
X133573887Y-65650915D01*
X133587374Y-65718722D01*
X133594867Y-65746684D01*
X133595815Y-65761157D01*
X133597111Y-65767670D01*
X133599710Y-65820577D01*
X133600000Y-65825000D01*
X133600000Y-66375000D01*
X133599709Y-66379425D01*
X133597111Y-66432329D01*
X133595815Y-66438840D01*
X133594867Y-66453316D01*
X133587373Y-66481280D01*
X133573887Y-66549084D01*
X133560631Y-66581084D01*
X133554328Y-66604610D01*
X133542149Y-66625704D01*
X133528895Y-66657702D01*
X133490493Y-66715173D01*
X133476012Y-66740257D01*
X133469146Y-66747122D01*
X133463583Y-66755449D01*
X133380449Y-66838583D01*
X133372122Y-66844146D01*
X133365257Y-66851012D01*
X133340173Y-66865493D01*
X133282702Y-66903895D01*
X133250704Y-66917149D01*
X133229610Y-66929328D01*
X133206084Y-66935631D01*
X133174084Y-66948887D01*
X133106278Y-66962374D01*
X133078316Y-66969867D01*
X133068611Y-66969867D01*
X133058783Y-66971822D01*
X132941217Y-66971822D01*
X132931389Y-66969867D01*
X132921684Y-66969867D01*
X132893722Y-66962374D01*
X132825915Y-66948887D01*
X132793912Y-66935630D01*
X132770390Y-66929328D01*
X132749298Y-66917150D01*
X132717297Y-66903895D01*
X132659818Y-66865489D01*
X132634743Y-66851012D01*
X132627879Y-66844148D01*
X132619550Y-66838583D01*
X132536416Y-66755449D01*
X132530850Y-66747119D01*
X132523988Y-66740257D01*
X132509512Y-66715184D01*
X132471104Y-66657702D01*
X132457847Y-66625698D01*
X132445672Y-66604610D01*
X132439370Y-66581091D01*
X132426112Y-66549084D01*
X132412622Y-66481266D01*
X132405133Y-66453316D01*
X132404184Y-66438848D01*
X132402888Y-66432329D01*
X132400289Y-66379419D01*
X132400000Y-66375000D01*
X132400000Y-65825000D01*
X132400289Y-65820583D01*
X132402888Y-65767670D01*
X132404184Y-65761150D01*
X132405133Y-65746684D01*
X132412621Y-65718736D01*
X132426112Y-65650915D01*
X132439371Y-65618905D01*
X132445672Y-65595390D01*
X132457845Y-65574304D01*
X132471104Y-65542297D01*
X132509516Y-65484807D01*
X132523988Y-65459743D01*
X132530848Y-65452882D01*
X132536416Y-65444550D01*
X132619550Y-65361416D01*
X132627882Y-65355848D01*
X132634743Y-65348988D01*
X132659807Y-65334516D01*
X132717297Y-65296104D01*
X132749304Y-65282845D01*
X132770390Y-65270672D01*
X132793905Y-65264371D01*
X132825915Y-65251112D01*
X132893728Y-65237623D01*
X132921684Y-65230133D01*
X132931388Y-65230133D01*
X132941217Y-65228178D01*
X133058783Y-65228178D01*
X133068612Y-65230133D01*
G37*
G36*
X141868612Y-65230133D02*
G01*
X141878316Y-65230133D01*
X141906272Y-65237623D01*
X141974084Y-65251112D01*
X142006091Y-65264370D01*
X142029610Y-65270672D01*
X142050698Y-65282847D01*
X142082702Y-65296104D01*
X142140184Y-65334512D01*
X142165257Y-65348988D01*
X142172119Y-65355850D01*
X142180449Y-65361416D01*
X142263583Y-65444550D01*
X142269148Y-65452879D01*
X142276012Y-65459743D01*
X142290489Y-65484818D01*
X142328895Y-65542297D01*
X142342150Y-65574298D01*
X142354328Y-65595390D01*
X142360630Y-65618912D01*
X142373887Y-65650915D01*
X142387374Y-65718722D01*
X142394867Y-65746684D01*
X142395815Y-65761157D01*
X142397111Y-65767670D01*
X142399710Y-65820577D01*
X142400000Y-65825000D01*
X142400000Y-66375000D01*
X142399709Y-66379425D01*
X142397111Y-66432329D01*
X142395815Y-66438840D01*
X142394867Y-66453316D01*
X142387373Y-66481280D01*
X142373887Y-66549084D01*
X142360631Y-66581084D01*
X142354328Y-66604610D01*
X142342149Y-66625704D01*
X142328895Y-66657702D01*
X142290493Y-66715173D01*
X142276012Y-66740257D01*
X142269146Y-66747122D01*
X142263583Y-66755449D01*
X142180449Y-66838583D01*
X142172122Y-66844146D01*
X142165257Y-66851012D01*
X142140173Y-66865493D01*
X142082702Y-66903895D01*
X142050704Y-66917149D01*
X142029610Y-66929328D01*
X142006084Y-66935631D01*
X141974084Y-66948887D01*
X141906278Y-66962374D01*
X141878316Y-66969867D01*
X141868611Y-66969867D01*
X141858783Y-66971822D01*
X141741217Y-66971822D01*
X141731389Y-66969867D01*
X141721684Y-66969867D01*
X141693722Y-66962374D01*
X141625915Y-66948887D01*
X141593912Y-66935630D01*
X141570390Y-66929328D01*
X141549298Y-66917150D01*
X141517297Y-66903895D01*
X141459818Y-66865489D01*
X141434743Y-66851012D01*
X141427879Y-66844148D01*
X141419550Y-66838583D01*
X141336416Y-66755449D01*
X141330850Y-66747119D01*
X141323988Y-66740257D01*
X141309512Y-66715184D01*
X141271104Y-66657702D01*
X141257847Y-66625698D01*
X141245672Y-66604610D01*
X141239370Y-66581091D01*
X141226112Y-66549084D01*
X141212622Y-66481266D01*
X141205133Y-66453316D01*
X141204184Y-66438848D01*
X141202888Y-66432329D01*
X141200289Y-66379419D01*
X141200000Y-66375000D01*
X141200000Y-65825000D01*
X141200289Y-65820583D01*
X141202888Y-65767670D01*
X141204184Y-65761150D01*
X141205133Y-65746684D01*
X141212621Y-65718736D01*
X141226112Y-65650915D01*
X141239371Y-65618905D01*
X141245672Y-65595390D01*
X141257845Y-65574304D01*
X141271104Y-65542297D01*
X141309516Y-65484807D01*
X141323988Y-65459743D01*
X141330848Y-65452882D01*
X141336416Y-65444550D01*
X141419550Y-65361416D01*
X141427882Y-65355848D01*
X141434743Y-65348988D01*
X141459807Y-65334516D01*
X141517297Y-65296104D01*
X141549304Y-65282845D01*
X141570390Y-65270672D01*
X141593905Y-65264371D01*
X141625915Y-65251112D01*
X141693728Y-65237623D01*
X141721684Y-65230133D01*
X141731388Y-65230133D01*
X141741217Y-65228178D01*
X141858783Y-65228178D01*
X141868612Y-65230133D01*
G37*
G36*
X117854850Y-65438964D02*
G01*
X117905040Y-65444787D01*
X117922189Y-65452359D01*
X117945671Y-65457030D01*
X117970810Y-65473827D01*
X117990696Y-65482608D01*
X118004277Y-65496189D01*
X118026777Y-65511223D01*
X118041810Y-65533722D01*
X118055391Y-65547303D01*
X118064170Y-65567186D01*
X118080970Y-65592329D01*
X118085641Y-65615812D01*
X118093212Y-65632959D01*
X118099033Y-65683139D01*
X118100000Y-65688000D01*
X118100000Y-66712000D01*
X118099032Y-66716863D01*
X118093212Y-66767040D01*
X118085641Y-66784185D01*
X118080970Y-66807671D01*
X118064169Y-66832815D01*
X118055391Y-66852696D01*
X118041812Y-66866274D01*
X118026777Y-66888777D01*
X118004274Y-66903812D01*
X117990696Y-66917391D01*
X117970815Y-66926169D01*
X117945671Y-66942970D01*
X117922185Y-66947641D01*
X117905040Y-66955212D01*
X117854861Y-66961032D01*
X117850000Y-66962000D01*
X117150000Y-66962000D01*
X117145138Y-66961032D01*
X117094959Y-66955212D01*
X117077812Y-66947641D01*
X117054329Y-66942970D01*
X117029186Y-66926170D01*
X117009303Y-66917391D01*
X116995722Y-66903810D01*
X116973223Y-66888777D01*
X116958189Y-66866277D01*
X116944608Y-66852696D01*
X116935827Y-66832810D01*
X116919030Y-66807671D01*
X116914359Y-66784189D01*
X116906787Y-66767040D01*
X116900964Y-66716849D01*
X116900000Y-66712000D01*
X116900000Y-65688000D01*
X116900964Y-65683150D01*
X116906787Y-65632959D01*
X116914359Y-65615808D01*
X116919030Y-65592329D01*
X116935826Y-65567191D01*
X116944608Y-65547303D01*
X116958191Y-65533719D01*
X116973223Y-65511223D01*
X116995719Y-65496191D01*
X117009303Y-65482608D01*
X117029191Y-65473826D01*
X117054329Y-65457030D01*
X117077808Y-65452359D01*
X117094959Y-65444787D01*
X117145151Y-65438964D01*
X117150000Y-65438000D01*
X117850000Y-65438000D01*
X117854850Y-65438964D01*
G37*
G36*
X126354850Y-65438964D02*
G01*
X126405040Y-65444787D01*
X126422189Y-65452359D01*
X126445671Y-65457030D01*
X126470810Y-65473827D01*
X126490696Y-65482608D01*
X126504277Y-65496189D01*
X126526777Y-65511223D01*
X126541810Y-65533722D01*
X126555391Y-65547303D01*
X126564170Y-65567186D01*
X126580970Y-65592329D01*
X126585641Y-65615812D01*
X126593212Y-65632959D01*
X126599033Y-65683139D01*
X126600000Y-65688000D01*
X126600000Y-66712000D01*
X126599032Y-66716863D01*
X126593212Y-66767040D01*
X126585641Y-66784185D01*
X126580970Y-66807671D01*
X126564169Y-66832815D01*
X126555391Y-66852696D01*
X126541812Y-66866274D01*
X126526777Y-66888777D01*
X126504274Y-66903812D01*
X126490696Y-66917391D01*
X126470815Y-66926169D01*
X126445671Y-66942970D01*
X126422185Y-66947641D01*
X126405040Y-66955212D01*
X126354861Y-66961032D01*
X126350000Y-66962000D01*
X125650000Y-66962000D01*
X125645138Y-66961032D01*
X125594959Y-66955212D01*
X125577812Y-66947641D01*
X125554329Y-66942970D01*
X125529186Y-66926170D01*
X125509303Y-66917391D01*
X125495722Y-66903810D01*
X125473223Y-66888777D01*
X125458189Y-66866277D01*
X125444608Y-66852696D01*
X125435827Y-66832810D01*
X125419030Y-66807671D01*
X125414359Y-66784189D01*
X125406787Y-66767040D01*
X125400964Y-66716849D01*
X125400000Y-66712000D01*
X125400000Y-65688000D01*
X125400964Y-65683150D01*
X125406787Y-65632959D01*
X125414359Y-65615808D01*
X125419030Y-65592329D01*
X125435826Y-65567191D01*
X125444608Y-65547303D01*
X125458191Y-65533719D01*
X125473223Y-65511223D01*
X125495719Y-65496191D01*
X125509303Y-65482608D01*
X125529191Y-65473826D01*
X125554329Y-65457030D01*
X125577808Y-65452359D01*
X125594959Y-65444787D01*
X125645151Y-65438964D01*
X125650000Y-65438000D01*
X126350000Y-65438000D01*
X126354850Y-65438964D01*
G37*
G36*
X66654850Y-65338964D02*
G01*
X66705040Y-65344787D01*
X66722189Y-65352359D01*
X66745671Y-65357030D01*
X66770810Y-65373827D01*
X66790696Y-65382608D01*
X66804277Y-65396189D01*
X66826777Y-65411223D01*
X66841810Y-65433722D01*
X66855391Y-65447303D01*
X66864170Y-65467186D01*
X66880970Y-65492329D01*
X66885641Y-65515812D01*
X66893212Y-65532959D01*
X66899033Y-65583139D01*
X66900000Y-65588000D01*
X66900000Y-66612000D01*
X66899032Y-66616863D01*
X66893212Y-66667040D01*
X66885641Y-66684185D01*
X66880970Y-66707671D01*
X66864169Y-66732815D01*
X66855391Y-66752696D01*
X66841812Y-66766274D01*
X66826777Y-66788777D01*
X66804274Y-66803812D01*
X66790696Y-66817391D01*
X66770815Y-66826169D01*
X66745671Y-66842970D01*
X66722185Y-66847641D01*
X66705040Y-66855212D01*
X66654861Y-66861032D01*
X66650000Y-66862000D01*
X65950000Y-66862000D01*
X65945138Y-66861032D01*
X65894959Y-66855212D01*
X65877812Y-66847641D01*
X65854329Y-66842970D01*
X65829186Y-66826170D01*
X65809303Y-66817391D01*
X65795722Y-66803810D01*
X65773223Y-66788777D01*
X65758189Y-66766277D01*
X65744608Y-66752696D01*
X65735827Y-66732810D01*
X65719030Y-66707671D01*
X65714359Y-66684189D01*
X65706787Y-66667040D01*
X65700964Y-66616849D01*
X65700000Y-66612000D01*
X65700000Y-65588000D01*
X65700964Y-65583150D01*
X65706787Y-65532959D01*
X65714359Y-65515808D01*
X65719030Y-65492329D01*
X65735826Y-65467191D01*
X65744608Y-65447303D01*
X65758191Y-65433719D01*
X65773223Y-65411223D01*
X65795719Y-65396191D01*
X65809303Y-65382608D01*
X65829191Y-65373826D01*
X65854329Y-65357030D01*
X65877808Y-65352359D01*
X65894959Y-65344787D01*
X65945151Y-65338964D01*
X65950000Y-65338000D01*
X66650000Y-65338000D01*
X66654850Y-65338964D01*
G37*
G36*
X75488183Y-65338964D02*
G01*
X75538373Y-65344787D01*
X75555522Y-65352359D01*
X75579004Y-65357030D01*
X75604143Y-65373827D01*
X75624029Y-65382608D01*
X75637610Y-65396189D01*
X75660110Y-65411223D01*
X75675143Y-65433722D01*
X75688724Y-65447303D01*
X75697503Y-65467186D01*
X75714303Y-65492329D01*
X75718974Y-65515812D01*
X75726545Y-65532959D01*
X75732366Y-65583139D01*
X75733333Y-65588000D01*
X75733333Y-66612000D01*
X75732365Y-66616863D01*
X75726545Y-66667040D01*
X75718974Y-66684185D01*
X75714303Y-66707671D01*
X75697502Y-66732815D01*
X75688724Y-66752696D01*
X75675145Y-66766274D01*
X75660110Y-66788777D01*
X75637607Y-66803812D01*
X75624029Y-66817391D01*
X75604148Y-66826169D01*
X75579004Y-66842970D01*
X75555518Y-66847641D01*
X75538373Y-66855212D01*
X75488194Y-66861032D01*
X75483333Y-66862000D01*
X74783333Y-66862000D01*
X74778471Y-66861032D01*
X74728292Y-66855212D01*
X74711145Y-66847641D01*
X74687662Y-66842970D01*
X74662519Y-66826170D01*
X74642636Y-66817391D01*
X74629055Y-66803810D01*
X74606556Y-66788777D01*
X74591522Y-66766277D01*
X74577941Y-66752696D01*
X74569160Y-66732810D01*
X74552363Y-66707671D01*
X74547692Y-66684189D01*
X74540120Y-66667040D01*
X74534297Y-66616849D01*
X74533333Y-66612000D01*
X74533333Y-65588000D01*
X74534297Y-65583150D01*
X74540120Y-65532959D01*
X74547692Y-65515808D01*
X74552363Y-65492329D01*
X74569159Y-65467191D01*
X74577941Y-65447303D01*
X74591524Y-65433719D01*
X74606556Y-65411223D01*
X74629052Y-65396191D01*
X74642636Y-65382608D01*
X74662524Y-65373826D01*
X74687662Y-65357030D01*
X74711141Y-65352359D01*
X74728292Y-65344787D01*
X74778484Y-65338964D01*
X74783333Y-65338000D01*
X75483333Y-65338000D01*
X75488183Y-65338964D01*
G37*
G36*
X84321517Y-65338964D02*
G01*
X84371707Y-65344787D01*
X84388856Y-65352359D01*
X84412338Y-65357030D01*
X84437477Y-65373827D01*
X84457363Y-65382608D01*
X84470944Y-65396189D01*
X84493444Y-65411223D01*
X84508477Y-65433722D01*
X84522058Y-65447303D01*
X84530837Y-65467186D01*
X84547637Y-65492329D01*
X84552308Y-65515812D01*
X84559879Y-65532959D01*
X84565700Y-65583139D01*
X84566667Y-65588000D01*
X84566667Y-66612000D01*
X84565699Y-66616863D01*
X84559879Y-66667040D01*
X84552308Y-66684185D01*
X84547637Y-66707671D01*
X84530836Y-66732815D01*
X84522058Y-66752696D01*
X84508479Y-66766274D01*
X84493444Y-66788777D01*
X84470941Y-66803812D01*
X84457363Y-66817391D01*
X84437482Y-66826169D01*
X84412338Y-66842970D01*
X84388852Y-66847641D01*
X84371707Y-66855212D01*
X84321528Y-66861032D01*
X84316667Y-66862000D01*
X83616667Y-66862000D01*
X83611805Y-66861032D01*
X83561626Y-66855212D01*
X83544479Y-66847641D01*
X83520996Y-66842970D01*
X83495853Y-66826170D01*
X83475970Y-66817391D01*
X83462389Y-66803810D01*
X83439890Y-66788777D01*
X83424856Y-66766277D01*
X83411275Y-66752696D01*
X83402494Y-66732810D01*
X83385697Y-66707671D01*
X83381026Y-66684189D01*
X83373454Y-66667040D01*
X83367631Y-66616849D01*
X83366667Y-66612000D01*
X83366667Y-65588000D01*
X83367631Y-65583150D01*
X83373454Y-65532959D01*
X83381026Y-65515808D01*
X83385697Y-65492329D01*
X83402493Y-65467191D01*
X83411275Y-65447303D01*
X83424858Y-65433719D01*
X83439890Y-65411223D01*
X83462386Y-65396191D01*
X83475970Y-65382608D01*
X83495858Y-65373826D01*
X83520996Y-65357030D01*
X83544475Y-65352359D01*
X83561626Y-65344787D01*
X83611818Y-65338964D01*
X83616667Y-65338000D01*
X84316667Y-65338000D01*
X84321517Y-65338964D01*
G37*
G36*
X93154850Y-65338964D02*
G01*
X93205040Y-65344787D01*
X93222189Y-65352359D01*
X93245671Y-65357030D01*
X93270810Y-65373827D01*
X93290696Y-65382608D01*
X93304277Y-65396189D01*
X93326777Y-65411223D01*
X93341810Y-65433722D01*
X93355391Y-65447303D01*
X93364170Y-65467186D01*
X93380970Y-65492329D01*
X93385641Y-65515812D01*
X93393212Y-65532959D01*
X93399033Y-65583139D01*
X93400000Y-65588000D01*
X93400000Y-66612000D01*
X93399032Y-66616863D01*
X93393212Y-66667040D01*
X93385641Y-66684185D01*
X93380970Y-66707671D01*
X93364169Y-66732815D01*
X93355391Y-66752696D01*
X93341812Y-66766274D01*
X93326777Y-66788777D01*
X93304274Y-66803812D01*
X93290696Y-66817391D01*
X93270815Y-66826169D01*
X93245671Y-66842970D01*
X93222185Y-66847641D01*
X93205040Y-66855212D01*
X93154861Y-66861032D01*
X93150000Y-66862000D01*
X92450000Y-66862000D01*
X92445138Y-66861032D01*
X92394959Y-66855212D01*
X92377812Y-66847641D01*
X92354329Y-66842970D01*
X92329186Y-66826170D01*
X92309303Y-66817391D01*
X92295722Y-66803810D01*
X92273223Y-66788777D01*
X92258189Y-66766277D01*
X92244608Y-66752696D01*
X92235827Y-66732810D01*
X92219030Y-66707671D01*
X92214359Y-66684189D01*
X92206787Y-66667040D01*
X92200964Y-66616849D01*
X92200000Y-66612000D01*
X92200000Y-65588000D01*
X92200964Y-65583150D01*
X92206787Y-65532959D01*
X92214359Y-65515808D01*
X92219030Y-65492329D01*
X92235826Y-65467191D01*
X92244608Y-65447303D01*
X92258191Y-65433719D01*
X92273223Y-65411223D01*
X92295719Y-65396191D01*
X92309303Y-65382608D01*
X92329191Y-65373826D01*
X92354329Y-65357030D01*
X92377808Y-65352359D01*
X92394959Y-65344787D01*
X92445151Y-65338964D01*
X92450000Y-65338000D01*
X93150000Y-65338000D01*
X93154850Y-65338964D01*
G37*
G36*
X108404850Y-65338964D02*
G01*
X108455040Y-65344787D01*
X108472189Y-65352359D01*
X108495671Y-65357030D01*
X108520810Y-65373827D01*
X108540696Y-65382608D01*
X108554277Y-65396189D01*
X108576777Y-65411223D01*
X108591810Y-65433722D01*
X108605391Y-65447303D01*
X108614170Y-65467186D01*
X108630970Y-65492329D01*
X108635641Y-65515812D01*
X108643212Y-65532959D01*
X108649033Y-65583139D01*
X108650000Y-65588000D01*
X108650000Y-66612000D01*
X108649032Y-66616863D01*
X108643212Y-66667040D01*
X108635641Y-66684185D01*
X108630970Y-66707671D01*
X108614169Y-66732815D01*
X108605391Y-66752696D01*
X108591812Y-66766274D01*
X108576777Y-66788777D01*
X108554274Y-66803812D01*
X108540696Y-66817391D01*
X108520815Y-66826169D01*
X108495671Y-66842970D01*
X108472185Y-66847641D01*
X108455040Y-66855212D01*
X108404861Y-66861032D01*
X108400000Y-66862000D01*
X107700000Y-66862000D01*
X107695138Y-66861032D01*
X107644959Y-66855212D01*
X107627812Y-66847641D01*
X107604329Y-66842970D01*
X107579186Y-66826170D01*
X107559303Y-66817391D01*
X107545722Y-66803810D01*
X107523223Y-66788777D01*
X107508189Y-66766277D01*
X107494608Y-66752696D01*
X107485827Y-66732810D01*
X107469030Y-66707671D01*
X107464359Y-66684189D01*
X107456787Y-66667040D01*
X107450964Y-66616849D01*
X107450000Y-66612000D01*
X107450000Y-65588000D01*
X107450964Y-65583150D01*
X107456787Y-65532959D01*
X107464359Y-65515808D01*
X107469030Y-65492329D01*
X107485826Y-65467191D01*
X107494608Y-65447303D01*
X107508191Y-65433719D01*
X107523223Y-65411223D01*
X107545719Y-65396191D01*
X107559303Y-65382608D01*
X107579191Y-65373826D01*
X107604329Y-65357030D01*
X107627808Y-65352359D01*
X107644959Y-65344787D01*
X107695151Y-65338964D01*
X107700000Y-65338000D01*
X108400000Y-65338000D01*
X108404850Y-65338964D01*
G37*
G36*
X135354850Y-65338964D02*
G01*
X135405040Y-65344787D01*
X135422189Y-65352359D01*
X135445671Y-65357030D01*
X135470810Y-65373827D01*
X135490696Y-65382608D01*
X135504277Y-65396189D01*
X135526777Y-65411223D01*
X135541810Y-65433722D01*
X135555391Y-65447303D01*
X135564170Y-65467186D01*
X135580970Y-65492329D01*
X135585641Y-65515812D01*
X135593212Y-65532959D01*
X135599033Y-65583139D01*
X135600000Y-65588000D01*
X135600000Y-66612000D01*
X135599032Y-66616863D01*
X135593212Y-66667040D01*
X135585641Y-66684185D01*
X135580970Y-66707671D01*
X135564169Y-66732815D01*
X135555391Y-66752696D01*
X135541812Y-66766274D01*
X135526777Y-66788777D01*
X135504274Y-66803812D01*
X135490696Y-66817391D01*
X135470815Y-66826169D01*
X135445671Y-66842970D01*
X135422185Y-66847641D01*
X135405040Y-66855212D01*
X135354861Y-66861032D01*
X135350000Y-66862000D01*
X134650000Y-66862000D01*
X134645138Y-66861032D01*
X134594959Y-66855212D01*
X134577812Y-66847641D01*
X134554329Y-66842970D01*
X134529186Y-66826170D01*
X134509303Y-66817391D01*
X134495722Y-66803810D01*
X134473223Y-66788777D01*
X134458189Y-66766277D01*
X134444608Y-66752696D01*
X134435827Y-66732810D01*
X134419030Y-66707671D01*
X134414359Y-66684189D01*
X134406787Y-66667040D01*
X134400964Y-66616849D01*
X134400000Y-66612000D01*
X134400000Y-65588000D01*
X134400964Y-65583150D01*
X134406787Y-65532959D01*
X134414359Y-65515808D01*
X134419030Y-65492329D01*
X134435826Y-65467191D01*
X134444608Y-65447303D01*
X134458191Y-65433719D01*
X134473223Y-65411223D01*
X134495719Y-65396191D01*
X134509303Y-65382608D01*
X134529191Y-65373826D01*
X134554329Y-65357030D01*
X134577808Y-65352359D01*
X134594959Y-65344787D01*
X134645151Y-65338964D01*
X134650000Y-65338000D01*
X135350000Y-65338000D01*
X135354850Y-65338964D01*
G37*
G36*
X144154850Y-65338964D02*
G01*
X144205040Y-65344787D01*
X144222189Y-65352359D01*
X144245671Y-65357030D01*
X144270810Y-65373827D01*
X144290696Y-65382608D01*
X144304277Y-65396189D01*
X144326777Y-65411223D01*
X144341810Y-65433722D01*
X144355391Y-65447303D01*
X144364170Y-65467186D01*
X144380970Y-65492329D01*
X144385641Y-65515812D01*
X144393212Y-65532959D01*
X144399033Y-65583139D01*
X144400000Y-65588000D01*
X144400000Y-66612000D01*
X144399032Y-66616863D01*
X144393212Y-66667040D01*
X144385641Y-66684185D01*
X144380970Y-66707671D01*
X144364169Y-66732815D01*
X144355391Y-66752696D01*
X144341812Y-66766274D01*
X144326777Y-66788777D01*
X144304274Y-66803812D01*
X144290696Y-66817391D01*
X144270815Y-66826169D01*
X144245671Y-66842970D01*
X144222185Y-66847641D01*
X144205040Y-66855212D01*
X144154861Y-66861032D01*
X144150000Y-66862000D01*
X143450000Y-66862000D01*
X143445138Y-66861032D01*
X143394959Y-66855212D01*
X143377812Y-66847641D01*
X143354329Y-66842970D01*
X143329186Y-66826170D01*
X143309303Y-66817391D01*
X143295722Y-66803810D01*
X143273223Y-66788777D01*
X143258189Y-66766277D01*
X143244608Y-66752696D01*
X143235827Y-66732810D01*
X143219030Y-66707671D01*
X143214359Y-66684189D01*
X143206787Y-66667040D01*
X143200964Y-66616849D01*
X143200000Y-66612000D01*
X143200000Y-65588000D01*
X143200964Y-65583150D01*
X143206787Y-65532959D01*
X143214359Y-65515808D01*
X143219030Y-65492329D01*
X143235826Y-65467191D01*
X143244608Y-65447303D01*
X143258191Y-65433719D01*
X143273223Y-65411223D01*
X143295719Y-65396191D01*
X143309303Y-65382608D01*
X143329191Y-65373826D01*
X143354329Y-65357030D01*
X143377808Y-65352359D01*
X143394959Y-65344787D01*
X143445151Y-65338964D01*
X143450000Y-65338000D01*
X144150000Y-65338000D01*
X144154850Y-65338964D01*
G37*
G36*
X114191342Y-63638060D02*
G01*
X114304381Y-63703323D01*
X114396677Y-63795619D01*
X114461940Y-63908658D01*
X114495722Y-64034737D01*
X114495722Y-64165263D01*
X114461940Y-64291342D01*
X114396677Y-64404381D01*
X114304381Y-64496677D01*
X114191342Y-64561940D01*
X114065263Y-64595722D01*
X113934737Y-64595722D01*
X113808658Y-64561940D01*
X113695619Y-64496677D01*
X113603323Y-64404381D01*
X113538060Y-64291342D01*
X113504278Y-64165263D01*
X113504278Y-64034737D01*
X113538060Y-63908658D01*
X113603323Y-63795619D01*
X113695619Y-63703323D01*
X113808658Y-63638060D01*
X113934737Y-63604278D01*
X114065263Y-63604278D01*
X114191342Y-63638060D01*
G37*
G36*
X119191342Y-63638060D02*
G01*
X119304381Y-63703323D01*
X119396677Y-63795619D01*
X119461940Y-63908658D01*
X119495722Y-64034737D01*
X119495722Y-64165263D01*
X119461940Y-64291342D01*
X119396677Y-64404381D01*
X119304381Y-64496677D01*
X119191342Y-64561940D01*
X119065263Y-64595722D01*
X118934737Y-64595722D01*
X118808658Y-64561940D01*
X118695619Y-64496677D01*
X118603323Y-64404381D01*
X118538060Y-64291342D01*
X118504278Y-64165263D01*
X118504278Y-64034737D01*
X118538060Y-63908658D01*
X118603323Y-63795619D01*
X118695619Y-63703323D01*
X118808658Y-63638060D01*
X118934737Y-63604278D01*
X119065263Y-63604278D01*
X119191342Y-63638060D01*
G37*
G36*
X122691342Y-63638060D02*
G01*
X122804381Y-63703323D01*
X122896677Y-63795619D01*
X122961940Y-63908658D01*
X122995722Y-64034737D01*
X122995722Y-64165263D01*
X122961940Y-64291342D01*
X122896677Y-64404381D01*
X122804381Y-64496677D01*
X122691342Y-64561940D01*
X122565263Y-64595722D01*
X122434737Y-64595722D01*
X122308658Y-64561940D01*
X122195619Y-64496677D01*
X122103323Y-64404381D01*
X122038060Y-64291342D01*
X122004278Y-64165263D01*
X122004278Y-64034737D01*
X122038060Y-63908658D01*
X122103323Y-63795619D01*
X122195619Y-63703323D01*
X122308658Y-63638060D01*
X122434737Y-63604278D01*
X122565263Y-63604278D01*
X122691342Y-63638060D01*
G37*
G36*
X127691342Y-63638060D02*
G01*
X127804381Y-63703323D01*
X127896677Y-63795619D01*
X127961940Y-63908658D01*
X127995722Y-64034737D01*
X127995722Y-64165263D01*
X127961940Y-64291342D01*
X127896677Y-64404381D01*
X127804381Y-64496677D01*
X127691342Y-64561940D01*
X127565263Y-64595722D01*
X127434737Y-64595722D01*
X127308658Y-64561940D01*
X127195619Y-64496677D01*
X127103323Y-64404381D01*
X127038060Y-64291342D01*
X127004278Y-64165263D01*
X127004278Y-64034737D01*
X127038060Y-63908658D01*
X127103323Y-63795619D01*
X127195619Y-63703323D01*
X127308658Y-63638060D01*
X127434737Y-63604278D01*
X127565263Y-63604278D01*
X127691342Y-63638060D01*
G37*
G36*
X62991342Y-63538060D02*
G01*
X63104381Y-63603323D01*
X63196677Y-63695619D01*
X63261940Y-63808658D01*
X63295722Y-63934737D01*
X63295722Y-64065263D01*
X63261940Y-64191342D01*
X63196677Y-64304381D01*
X63104381Y-64396677D01*
X62991342Y-64461940D01*
X62865263Y-64495722D01*
X62734737Y-64495722D01*
X62608658Y-64461940D01*
X62495619Y-64396677D01*
X62403323Y-64304381D01*
X62338060Y-64191342D01*
X62304278Y-64065263D01*
X62304278Y-63934737D01*
X62338060Y-63808658D01*
X62403323Y-63695619D01*
X62495619Y-63603323D01*
X62608658Y-63538060D01*
X62734737Y-63504278D01*
X62865263Y-63504278D01*
X62991342Y-63538060D01*
G37*
G36*
X67991342Y-63538060D02*
G01*
X68104381Y-63603323D01*
X68196677Y-63695619D01*
X68261940Y-63808658D01*
X68295722Y-63934737D01*
X68295722Y-64065263D01*
X68261940Y-64191342D01*
X68196677Y-64304381D01*
X68104381Y-64396677D01*
X67991342Y-64461940D01*
X67865263Y-64495722D01*
X67734737Y-64495722D01*
X67608658Y-64461940D01*
X67495619Y-64396677D01*
X67403323Y-64304381D01*
X67338060Y-64191342D01*
X67304278Y-64065263D01*
X67304278Y-63934737D01*
X67338060Y-63808658D01*
X67403323Y-63695619D01*
X67495619Y-63603323D01*
X67608658Y-63538060D01*
X67734737Y-63504278D01*
X67865263Y-63504278D01*
X67991342Y-63538060D01*
G37*
G36*
X71824675Y-63538060D02*
G01*
X71937714Y-63603323D01*
X72030010Y-63695619D01*
X72095273Y-63808658D01*
X72129055Y-63934737D01*
X72129055Y-64065263D01*
X72095273Y-64191342D01*
X72030010Y-64304381D01*
X71937714Y-64396677D01*
X71824675Y-64461940D01*
X71698596Y-64495722D01*
X71568070Y-64495722D01*
X71441991Y-64461940D01*
X71328952Y-64396677D01*
X71236656Y-64304381D01*
X71171393Y-64191342D01*
X71137611Y-64065263D01*
X71137611Y-63934737D01*
X71171393Y-63808658D01*
X71236656Y-63695619D01*
X71328952Y-63603323D01*
X71441991Y-63538060D01*
X71568070Y-63504278D01*
X71698596Y-63504278D01*
X71824675Y-63538060D01*
G37*
G36*
X76824675Y-63538060D02*
G01*
X76937714Y-63603323D01*
X77030010Y-63695619D01*
X77095273Y-63808658D01*
X77129055Y-63934737D01*
X77129055Y-64065263D01*
X77095273Y-64191342D01*
X77030010Y-64304381D01*
X76937714Y-64396677D01*
X76824675Y-64461940D01*
X76698596Y-64495722D01*
X76568070Y-64495722D01*
X76441991Y-64461940D01*
X76328952Y-64396677D01*
X76236656Y-64304381D01*
X76171393Y-64191342D01*
X76137611Y-64065263D01*
X76137611Y-63934737D01*
X76171393Y-63808658D01*
X76236656Y-63695619D01*
X76328952Y-63603323D01*
X76441991Y-63538060D01*
X76568070Y-63504278D01*
X76698596Y-63504278D01*
X76824675Y-63538060D01*
G37*
G36*
X80658009Y-63538060D02*
G01*
X80771048Y-63603323D01*
X80863344Y-63695619D01*
X80928607Y-63808658D01*
X80962389Y-63934737D01*
X80962389Y-64065263D01*
X80928607Y-64191342D01*
X80863344Y-64304381D01*
X80771048Y-64396677D01*
X80658009Y-64461940D01*
X80531930Y-64495722D01*
X80401404Y-64495722D01*
X80275325Y-64461940D01*
X80162286Y-64396677D01*
X80069990Y-64304381D01*
X80004727Y-64191342D01*
X79970945Y-64065263D01*
X79970945Y-63934737D01*
X80004727Y-63808658D01*
X80069990Y-63695619D01*
X80162286Y-63603323D01*
X80275325Y-63538060D01*
X80401404Y-63504278D01*
X80531930Y-63504278D01*
X80658009Y-63538060D01*
G37*
G36*
X85658009Y-63538060D02*
G01*
X85771048Y-63603323D01*
X85863344Y-63695619D01*
X85928607Y-63808658D01*
X85962389Y-63934737D01*
X85962389Y-64065263D01*
X85928607Y-64191342D01*
X85863344Y-64304381D01*
X85771048Y-64396677D01*
X85658009Y-64461940D01*
X85531930Y-64495722D01*
X85401404Y-64495722D01*
X85275325Y-64461940D01*
X85162286Y-64396677D01*
X85069990Y-64304381D01*
X85004727Y-64191342D01*
X84970945Y-64065263D01*
X84970945Y-63934737D01*
X85004727Y-63808658D01*
X85069990Y-63695619D01*
X85162286Y-63603323D01*
X85275325Y-63538060D01*
X85401404Y-63504278D01*
X85531930Y-63504278D01*
X85658009Y-63538060D01*
G37*
G36*
X89491342Y-63538060D02*
G01*
X89604381Y-63603323D01*
X89696677Y-63695619D01*
X89761940Y-63808658D01*
X89795722Y-63934737D01*
X89795722Y-64065263D01*
X89761940Y-64191342D01*
X89696677Y-64304381D01*
X89604381Y-64396677D01*
X89491342Y-64461940D01*
X89365263Y-64495722D01*
X89234737Y-64495722D01*
X89108658Y-64461940D01*
X88995619Y-64396677D01*
X88903323Y-64304381D01*
X88838060Y-64191342D01*
X88804278Y-64065263D01*
X88804278Y-63934737D01*
X88838060Y-63808658D01*
X88903323Y-63695619D01*
X88995619Y-63603323D01*
X89108658Y-63538060D01*
X89234737Y-63504278D01*
X89365263Y-63504278D01*
X89491342Y-63538060D01*
G37*
G36*
X94491342Y-63538060D02*
G01*
X94604381Y-63603323D01*
X94696677Y-63695619D01*
X94761940Y-63808658D01*
X94795722Y-63934737D01*
X94795722Y-64065263D01*
X94761940Y-64191342D01*
X94696677Y-64304381D01*
X94604381Y-64396677D01*
X94491342Y-64461940D01*
X94365263Y-64495722D01*
X94234737Y-64495722D01*
X94108658Y-64461940D01*
X93995619Y-64396677D01*
X93903323Y-64304381D01*
X93838060Y-64191342D01*
X93804278Y-64065263D01*
X93804278Y-63934737D01*
X93838060Y-63808658D01*
X93903323Y-63695619D01*
X93995619Y-63603323D01*
X94108658Y-63538060D01*
X94234737Y-63504278D01*
X94365263Y-63504278D01*
X94491342Y-63538060D01*
G37*
G36*
X98741342Y-63538060D02*
G01*
X98854381Y-63603323D01*
X98946677Y-63695619D01*
X99011940Y-63808658D01*
X99045722Y-63934737D01*
X99045722Y-64065263D01*
X99011940Y-64191342D01*
X98946677Y-64304381D01*
X98854381Y-64396677D01*
X98741342Y-64461940D01*
X98615263Y-64495722D01*
X98484737Y-64495722D01*
X98358658Y-64461940D01*
X98245619Y-64396677D01*
X98153323Y-64304381D01*
X98088060Y-64191342D01*
X98054278Y-64065263D01*
X98054278Y-63934737D01*
X98088060Y-63808658D01*
X98153323Y-63695619D01*
X98245619Y-63603323D01*
X98358658Y-63538060D01*
X98484737Y-63504278D01*
X98615263Y-63504278D01*
X98741342Y-63538060D01*
G37*
G36*
X109741342Y-63538060D02*
G01*
X109854381Y-63603323D01*
X109946677Y-63695619D01*
X110011940Y-63808658D01*
X110045722Y-63934737D01*
X110045722Y-64065263D01*
X110011940Y-64191342D01*
X109946677Y-64304381D01*
X109854381Y-64396677D01*
X109741342Y-64461940D01*
X109615263Y-64495722D01*
X109484737Y-64495722D01*
X109358658Y-64461940D01*
X109245619Y-64396677D01*
X109153323Y-64304381D01*
X109088060Y-64191342D01*
X109054278Y-64065263D01*
X109054278Y-63934737D01*
X109088060Y-63808658D01*
X109153323Y-63695619D01*
X109245619Y-63603323D01*
X109358658Y-63538060D01*
X109484737Y-63504278D01*
X109615263Y-63504278D01*
X109741342Y-63538060D01*
G37*
G36*
X131691342Y-63538060D02*
G01*
X131804381Y-63603323D01*
X131896677Y-63695619D01*
X131961940Y-63808658D01*
X131995722Y-63934737D01*
X131995722Y-64065263D01*
X131961940Y-64191342D01*
X131896677Y-64304381D01*
X131804381Y-64396677D01*
X131691342Y-64461940D01*
X131565263Y-64495722D01*
X131434737Y-64495722D01*
X131308658Y-64461940D01*
X131195619Y-64396677D01*
X131103323Y-64304381D01*
X131038060Y-64191342D01*
X131004278Y-64065263D01*
X131004278Y-63934737D01*
X131038060Y-63808658D01*
X131103323Y-63695619D01*
X131195619Y-63603323D01*
X131308658Y-63538060D01*
X131434737Y-63504278D01*
X131565263Y-63504278D01*
X131691342Y-63538060D01*
G37*
G36*
X136691342Y-63538060D02*
G01*
X136804381Y-63603323D01*
X136896677Y-63695619D01*
X136961940Y-63808658D01*
X136995722Y-63934737D01*
X136995722Y-64065263D01*
X136961940Y-64191342D01*
X136896677Y-64304381D01*
X136804381Y-64396677D01*
X136691342Y-64461940D01*
X136565263Y-64495722D01*
X136434737Y-64495722D01*
X136308658Y-64461940D01*
X136195619Y-64396677D01*
X136103323Y-64304381D01*
X136038060Y-64191342D01*
X136004278Y-64065263D01*
X136004278Y-63934737D01*
X136038060Y-63808658D01*
X136103323Y-63695619D01*
X136195619Y-63603323D01*
X136308658Y-63538060D01*
X136434737Y-63504278D01*
X136565263Y-63504278D01*
X136691342Y-63538060D01*
G37*
G36*
X140491342Y-63538060D02*
G01*
X140604381Y-63603323D01*
X140696677Y-63695619D01*
X140761940Y-63808658D01*
X140795722Y-63934737D01*
X140795722Y-64065263D01*
X140761940Y-64191342D01*
X140696677Y-64304381D01*
X140604381Y-64396677D01*
X140491342Y-64461940D01*
X140365263Y-64495722D01*
X140234737Y-64495722D01*
X140108658Y-64461940D01*
X139995619Y-64396677D01*
X139903323Y-64304381D01*
X139838060Y-64191342D01*
X139804278Y-64065263D01*
X139804278Y-63934737D01*
X139838060Y-63808658D01*
X139903323Y-63695619D01*
X139995619Y-63603323D01*
X140108658Y-63538060D01*
X140234737Y-63504278D01*
X140365263Y-63504278D01*
X140491342Y-63538060D01*
G37*
G36*
X145491342Y-63538060D02*
G01*
X145604381Y-63603323D01*
X145696677Y-63695619D01*
X145761940Y-63808658D01*
X145795722Y-63934737D01*
X145795722Y-64065263D01*
X145761940Y-64191342D01*
X145696677Y-64304381D01*
X145604381Y-64396677D01*
X145491342Y-64461940D01*
X145365263Y-64495722D01*
X145234737Y-64495722D01*
X145108658Y-64461940D01*
X144995619Y-64396677D01*
X144903323Y-64304381D01*
X144838060Y-64191342D01*
X144804278Y-64065263D01*
X144804278Y-63934737D01*
X144838060Y-63808658D01*
X144903323Y-63695619D01*
X144995619Y-63603323D01*
X145108658Y-63538060D01*
X145234737Y-63504278D01*
X145365263Y-63504278D01*
X145491342Y-63538060D01*
G37*
G36*
X149291807Y-59884538D02*
G01*
X149478354Y-59945151D01*
X149653123Y-60034200D01*
X149811810Y-60149493D01*
X149950507Y-60288190D01*
X150065800Y-60446877D01*
X150154849Y-60621646D01*
X150215462Y-60808193D01*
X150246147Y-61001926D01*
X150246147Y-61198074D01*
X150215462Y-61391807D01*
X150154849Y-61578354D01*
X150065800Y-61753123D01*
X149950507Y-61911810D01*
X149811810Y-62050507D01*
X149653123Y-62165800D01*
X149478354Y-62254849D01*
X149291807Y-62315462D01*
X149098074Y-62346147D01*
X148901926Y-62346147D01*
X148708193Y-62315462D01*
X148521646Y-62254849D01*
X148346877Y-62165800D01*
X148188190Y-62050507D01*
X148049493Y-61911810D01*
X147934200Y-61753123D01*
X147845151Y-61578354D01*
X147784538Y-61391807D01*
X147753853Y-61198074D01*
X147753853Y-61001926D01*
X147784538Y-60808193D01*
X147845151Y-60621646D01*
X147934200Y-60446877D01*
X148049493Y-60288190D01*
X148188190Y-60149493D01*
X148346877Y-60034200D01*
X148521646Y-59945151D01*
X148708193Y-59884538D01*
X148901926Y-59853853D01*
X149098074Y-59853853D01*
X149291807Y-59884538D01*
G37*
G36*
X59391807Y-59784538D02*
G01*
X59578354Y-59845151D01*
X59753123Y-59934200D01*
X59911810Y-60049493D01*
X60050507Y-60188190D01*
X60165800Y-60346877D01*
X60254849Y-60521646D01*
X60315462Y-60708193D01*
X60346147Y-60901926D01*
X60346147Y-61098074D01*
X60315462Y-61291807D01*
X60254849Y-61478354D01*
X60165800Y-61653123D01*
X60050507Y-61811810D01*
X59911810Y-61950507D01*
X59753123Y-62065800D01*
X59578354Y-62154849D01*
X59391807Y-62215462D01*
X59198074Y-62246147D01*
X59001926Y-62246147D01*
X58808193Y-62215462D01*
X58621646Y-62154849D01*
X58446877Y-62065800D01*
X58288190Y-61950507D01*
X58149493Y-61811810D01*
X58034200Y-61653123D01*
X57945151Y-61478354D01*
X57884538Y-61291807D01*
X57853853Y-61098074D01*
X57853853Y-60901926D01*
X57884538Y-60708193D01*
X57945151Y-60521646D01*
X58034200Y-60346877D01*
X58149493Y-60188190D01*
X58288190Y-60049493D01*
X58446877Y-59934200D01*
X58621646Y-59845151D01*
X58808193Y-59784538D01*
X59001926Y-59753853D01*
X59198074Y-59753853D01*
X59391807Y-59784538D01*
G37*
M02*
