M48
; DRILL file {KiCad 9.0.0} date 2025-03-06T07:06:53+0900
; FORMAT={-:-/ absolute / metric / decimal}
; #@! TF.CreationDate,2025-03-06T07:06:53+09:00
; #@! TF.GenerationSoftware,Kicad,Pcbnew,9.0.0
; #@! TF.FileFunction,Plated,1,4,PTH
FMAT,2
METRIC
; #@! TA.AperFunction,Plated,PTH,ViaDrill
T1C0.300
; #@! TA.AperFunction,Plated,PTH,ComponentDrill
T2C0.750
%
G90
G05
T1
X56.7Y-98.9
X57.7Y-65.9
X58.7Y-81.7
X59.4Y-76.4
X61.8Y-96.2
X63.7Y-101.3
X64.4Y-81.4
X65.1Y-96.7
X66.3Y-68.4
X66.7Y-75.8
X67.4Y-101.4
X70.2Y-95.5
X71.2Y-81.2
X71.3Y-101.3
X73.0Y-87.6
X73.2Y-77.2
X75.0Y-101.4
X75.2Y-68.1
X77.7Y-78.4
X78.5Y-61.2
X79.2Y-95.5
X81.2Y-83.3
X81.4Y-80.2
X81.7Y-77.9
X82.1Y-100.2
X82.3Y-96.8
X82.5Y-97.6
X83.2Y-96.7
X84.0Y-67.9
X84.1Y-96.9
X85.4Y-87.2
X86.1Y-101.1
X86.5Y-77.8
X87.4Y-79.2
X88.1Y-95.2
X88.4Y-82.6
X91.6Y-68.5
X91.6Y-99.1
X93.1Y-83.9
X93.5Y-89.6
X96.8Y-61.0
X98.3Y-78.5
X99.3Y-90.6
X99.9Y-78.7
X101.0Y-76.1
X101.0Y-100.7
X101.3Y-77.8
X103.4Y-72.9
X103.7Y-95.8
X103.8Y-68.0
X105.9Y-78.9
X106.6Y-64.0
X106.7Y-70.4
X107.3Y-77.7
X107.8Y-103.5
X108.0Y-74.7
X108.5Y-78.8
X108.8Y-82.5
X108.8Y-85.1
X108.9Y-72.9
X109.7Y-85.7
X109.9Y-83.2
X110.7Y-86.4
X110.8Y-73.4
X110.8Y-83.8
X111.0Y-62.4
X111.0Y-76.4
X111.0Y-79.0
X111.8Y-84.5
X111.8Y-87.1
X112.7Y-100.9
X113.8Y-72.9
X116.6Y-63.9
X117.6Y-103.1
X118.3Y-100.5
X118.9Y-73.8
X118.9Y-103.2
X120.2Y-60.9
X120.8Y-90.0
X124.1Y-77.7
X124.2Y-93.2
X124.2Y-95.7
X125.3Y-63.8
X125.6Y-103.2
X125.8Y-93.3
X125.9Y-95.7
X126.7Y-102.0
X129.1Y-90.5
X129.2Y-72.7
X129.4Y-103.2
X129.6Y-61.5
X131.3Y-79.4
X133.1Y-93.4
X133.1Y-95.6
X133.1Y-102.7
X134.0Y-88.1
X134.1Y-63.6
X134.1Y-75.0
X134.7Y-93.5
X134.7Y-95.6
X137.0Y-102.5
X137.6Y-84.2
X138.3Y-63.7
X138.6Y-90.4
X140.3Y-80.1
X141.2Y-103.4
X141.9Y-91.1
X141.9Y-93.3
X142.8Y-85.9
X143.4Y-90.8
X143.4Y-93.3
X144.5Y-102.9
X145.2Y-104.5
X149.0Y-68.9
X149.5Y-76.8
X150.9Y-98.1
T2
X59.8Y-93.6
X61.8Y-93.6
X64.3Y-66.1
X66.3Y-66.1
X68.6Y-93.6
X70.6Y-93.6
X73.133Y-66.1
X75.133Y-66.1
X77.5Y-93.6
X79.5Y-93.6
X81.967Y-66.1
X83.967Y-66.1
X86.3Y-93.6
X88.3Y-93.6
X90.8Y-66.1
X92.8Y-66.1
X100.05Y-66.1
X102.05Y-66.1
X104.05Y-66.1
X106.05Y-66.1
X108.05Y-66.1
X115.5Y-66.2
X117.5Y-66.2
X119.6Y-93.5
X121.6Y-93.5
X124.0Y-66.2
X126.0Y-66.2
X128.4Y-93.4
X130.4Y-93.4
X133.0Y-66.1
X135.0Y-66.1
X137.3Y-93.4
X139.3Y-93.4
X141.8Y-66.1
X143.8Y-66.1
X146.1Y-93.4
X148.1Y-93.4
M30
