M48
; DRILL file {KiCad 9.0.0} date 2025-03-06T07:06:53+0900
; FORMAT={-:-/ absolute / metric / decimal}
; #@! TF.CreationDate,2025-03-06T07:06:53+09:00
; #@! TF.GenerationSoftware,Kicad,Pcbnew,9.0.0
; #@! TF.FileFunction,NonPlated,1,4,NPTH
FMAT,2
METRIC
; #@! TA.AperFunction,NonPlated,NPTH,ComponentDrill
T1C1.100
; #@! TA.AperFunction,NonPlated,NPTH,ComponentDrill
T2C1.120
; #@! TA.AperFunction,NonPlated,NPTH,ComponentDrill
T3C2.500
%
G90
G05
T1
X63.3Y-91.5
X67.8Y-64.0
X72.1Y-91.5
X76.633Y-64.0
X81.0Y-91.5
X85.467Y-64.0
X89.8Y-91.5
X94.3Y-64.0
X109.55Y-64.0
X119.0Y-64.1
X123.1Y-91.4
X127.5Y-64.1
X131.9Y-91.3
X136.5Y-64.0
X140.8Y-91.3
X145.3Y-64.0
X149.6Y-91.3
T2
X58.3Y-91.5
X62.8Y-64.0
X67.1Y-91.5
X71.633Y-64.0
X76.0Y-91.5
X80.467Y-64.0
X84.8Y-91.5
X89.3Y-64.0
X98.55Y-64.0
X114.0Y-64.1
X118.1Y-91.4
X122.5Y-64.1
X126.9Y-91.3
X131.5Y-64.0
X135.8Y-91.3
X140.3Y-64.0
X144.6Y-91.3
T3
X59.1Y-61.0
X59.2Y-102.6
X149.0Y-61.1
X149.0Y-102.6
M30
