G04 #@! TF.GenerationSoftware,KiCad,Pcbnew,8.0.5*
G04 #@! TF.CreationDate,2024-11-29T11:32:06+09:00*
G04 #@! TF.ProjectId,esp32_primary_board_v2,65737033-325f-4707-9269-6d6172795f62,rev?*
G04 #@! TF.SameCoordinates,Original*
G04 #@! TF.FileFunction,Copper,L4,Bot*
G04 #@! TF.FilePolarity,Positive*
%FSLAX46Y46*%
G04 Gerber Fmt 4.6, Leading zero omitted, Abs format (unit mm)*
G04 Created by KiCad (PCBNEW 8.0.5) date 2024-11-29 11:32:06*
%MOMM*%
%LPD*%
G01*
G04 APERTURE LIST*
G04 #@! TA.AperFunction,ComponentPad*
%ADD10C,0.650000*%
G04 #@! TD*
G04 #@! TA.AperFunction,ComponentPad*
%ADD11O,0.900000X1.700000*%
G04 #@! TD*
G04 #@! TA.AperFunction,ComponentPad*
%ADD12O,0.900000X2.400000*%
G04 #@! TD*
G04 #@! TA.AperFunction,ComponentPad*
%ADD13R,1.700000X1.700000*%
G04 #@! TD*
G04 #@! TA.AperFunction,ComponentPad*
%ADD14O,1.700000X1.700000*%
G04 #@! TD*
G04 #@! TA.AperFunction,HeatsinkPad*
%ADD15C,0.600000*%
G04 #@! TD*
G04 #@! TA.AperFunction,ViaPad*
%ADD16C,0.600000*%
G04 #@! TD*
G04 #@! TA.AperFunction,Conductor*
%ADD17C,0.127000*%
G04 #@! TD*
G04 #@! TA.AperFunction,Conductor*
%ADD18C,0.250000*%
G04 #@! TD*
G04 #@! TA.AperFunction,Conductor*
%ADD19C,0.152400*%
G04 #@! TD*
G04 #@! TA.AperFunction,Conductor*
%ADD20C,0.200000*%
G04 #@! TD*
G04 APERTURE END LIST*
D10*
X136275000Y-135390000D03*
X137125000Y-135390000D03*
X137975000Y-135390000D03*
X138825000Y-135390000D03*
X139675000Y-135390000D03*
X140525000Y-135390000D03*
X141375000Y-135390000D03*
X142225000Y-135390000D03*
X142225000Y-136740000D03*
X141375000Y-136740000D03*
X140525000Y-136740000D03*
X139675000Y-136740000D03*
X138825000Y-136740000D03*
X137975000Y-136740000D03*
X137125000Y-136740000D03*
X136275000Y-136740000D03*
D11*
X134925000Y-139750000D03*
X143575000Y-139750000D03*
D12*
X134925000Y-136370000D03*
X143575000Y-136370000D03*
D13*
X156975000Y-129300000D03*
D14*
X156975000Y-126760000D03*
X156975000Y-124220000D03*
X156975000Y-121680000D03*
D15*
X137850000Y-108660000D03*
X137850000Y-110060000D03*
X138550000Y-107960000D03*
X138550000Y-109360000D03*
X138550000Y-110760000D03*
X139250000Y-108660000D03*
X139250000Y-110060000D03*
X139950000Y-107960000D03*
X139950000Y-109360000D03*
X139950000Y-110760000D03*
X140650000Y-108660000D03*
X140650000Y-110060000D03*
D16*
X154500000Y-123000000D03*
X137750000Y-138000000D03*
X138500000Y-130500000D03*
X151750000Y-102000000D03*
X147750000Y-140500000D03*
X149750000Y-123250000D03*
X126250000Y-112250000D03*
X116250000Y-135000000D03*
X133500000Y-132500000D03*
X122000000Y-121750000D03*
X135000000Y-114000000D03*
X124000000Y-130750000D03*
X124750000Y-115250000D03*
X144000000Y-102750000D03*
X158000000Y-107000000D03*
X144250000Y-108750000D03*
X129250000Y-114500000D03*
X123000000Y-108250000D03*
X142250000Y-138500000D03*
X145500000Y-105500000D03*
X120000000Y-134250000D03*
X129000000Y-125250000D03*
X133250000Y-137750000D03*
X140500000Y-138000000D03*
X136000000Y-111800000D03*
X146250000Y-112750000D03*
X140250000Y-129750000D03*
X135750000Y-129250000D03*
X140250000Y-133750000D03*
X139000000Y-103000000D03*
X122750000Y-102250000D03*
X133250000Y-125500000D03*
X154750000Y-134250000D03*
X144000000Y-106250000D03*
X116000000Y-110750000D03*
X136000000Y-138250000D03*
X130500000Y-106000000D03*
X154500000Y-119500000D03*
X122000000Y-114500000D03*
X136250000Y-102500000D03*
X116000000Y-116000000D03*
X132000000Y-104180000D03*
X124500000Y-105000000D03*
X129250000Y-121250000D03*
X130750000Y-121500000D03*
X154750000Y-121500000D03*
X142500000Y-121500000D03*
X125500000Y-114000000D03*
X140500000Y-128000000D03*
X135250000Y-128500000D03*
X140183677Y-132566323D03*
X138500000Y-132000000D03*
X137051935Y-117448065D03*
X139677000Y-120780647D03*
X138823000Y-120780647D03*
X136448065Y-118051935D03*
X147000000Y-116000000D03*
X153250000Y-119750000D03*
X147750000Y-111750000D03*
X136500000Y-139750000D03*
D17*
X131180000Y-105000000D02*
X132000000Y-104180000D01*
X124500000Y-105000000D02*
X131180000Y-105000000D01*
D18*
X142500000Y-121500000D02*
X149000000Y-121500000D01*
X149000000Y-121500000D02*
X154750000Y-121500000D01*
X129250000Y-117750000D02*
X125500000Y-114000000D01*
X129250000Y-121250000D02*
X129250000Y-117750000D01*
X130750000Y-121500000D02*
X142500000Y-121500000D01*
X140000000Y-128500000D02*
X140500000Y-128000000D01*
X135250000Y-128500000D02*
X140000000Y-128500000D01*
D19*
X139453201Y-120556848D02*
X139453201Y-120165832D01*
X139677000Y-120780647D02*
X139453201Y-120556848D01*
X138500000Y-132000000D02*
X139617354Y-132000000D01*
X139617354Y-132000000D02*
X140183677Y-132566323D01*
X137051935Y-117764566D02*
X137051935Y-117448065D01*
X139453201Y-120165832D02*
X137051935Y-117764566D01*
X139675000Y-136740000D02*
X138825000Y-135890000D01*
X139046799Y-120556848D02*
X139046799Y-120334168D01*
X138823000Y-120780647D02*
X139046799Y-120556848D01*
X139046799Y-120334168D02*
X136764566Y-118051935D01*
X136764566Y-118051935D02*
X136448065Y-118051935D01*
X138825000Y-135890000D02*
X138825000Y-135390000D01*
D20*
X147000000Y-116000000D02*
X149500000Y-116000000D01*
X149500000Y-116000000D02*
X153250000Y-119750000D01*
X158052000Y-121233891D02*
X158052000Y-123143000D01*
X158052000Y-123143000D02*
X156975000Y-124220000D01*
X148568109Y-111750000D02*
X158052000Y-121233891D01*
X147750000Y-111750000D02*
X148568109Y-111750000D01*
X137515000Y-139750000D02*
X140525000Y-136740000D01*
X136500000Y-139750000D02*
X137515000Y-139750000D01*
G04 #@! TA.AperFunction,Conductor*
G36*
X135881340Y-136008634D02*
G01*
X135925688Y-136037135D01*
X136294401Y-136405848D01*
X136327886Y-136467171D01*
X136324652Y-136531845D01*
X136321145Y-136542635D01*
X136314782Y-136540000D01*
X136235218Y-136540000D01*
X136161709Y-136570448D01*
X136105448Y-136626709D01*
X136075000Y-136700218D01*
X136075000Y-136779782D01*
X136105448Y-136853291D01*
X136161709Y-136909552D01*
X136221084Y-136934145D01*
X136174178Y-136945999D01*
X136107936Y-136923777D01*
X136091217Y-136909770D01*
X135801447Y-136620000D01*
X135225000Y-136620000D01*
X135225000Y-136120000D01*
X135667461Y-136120000D01*
X135750325Y-136037135D01*
X135811648Y-136003650D01*
X135881340Y-136008634D01*
G37*
G04 #@! TD.AperFunction*
G04 #@! TA.AperFunction,Conductor*
G36*
X142705326Y-136008634D02*
G01*
X142749673Y-136037135D01*
X142832538Y-136120000D01*
X143275000Y-136120000D01*
X143275000Y-136620000D01*
X142698552Y-136620000D01*
X142408782Y-136909770D01*
X142347459Y-136943255D01*
X142277767Y-136938271D01*
X142274628Y-136935921D01*
X142338291Y-136909552D01*
X142394552Y-136853291D01*
X142425000Y-136779782D01*
X142425000Y-136700218D01*
X142394552Y-136626709D01*
X142338291Y-136570448D01*
X142264782Y-136540000D01*
X142185218Y-136540000D01*
X142178854Y-136542635D01*
X142175347Y-136531845D01*
X142173353Y-136462005D01*
X142205598Y-136405847D01*
X142574311Y-136037135D01*
X142635634Y-136003650D01*
X142705326Y-136008634D01*
G37*
G04 #@! TD.AperFunction*
G04 #@! TA.AperFunction,Conductor*
G36*
X156253736Y-100500726D02*
G01*
X156543796Y-100518271D01*
X156558659Y-100520076D01*
X156840798Y-100571780D01*
X156855335Y-100575363D01*
X157129172Y-100660695D01*
X157143163Y-100666000D01*
X157404743Y-100783727D01*
X157417989Y-100790680D01*
X157663465Y-100939075D01*
X157675776Y-100947573D01*
X157901573Y-101124473D01*
X157912781Y-101134403D01*
X158115596Y-101337218D01*
X158125526Y-101348426D01*
X158245481Y-101501538D01*
X158302422Y-101574217D01*
X158310928Y-101586540D01*
X158459316Y-101832004D01*
X158466275Y-101845263D01*
X158583997Y-102106831D01*
X158589306Y-102120832D01*
X158674635Y-102394663D01*
X158678219Y-102409201D01*
X158729923Y-102691340D01*
X158731728Y-102706205D01*
X158749274Y-102996263D01*
X158749500Y-103003750D01*
X158749500Y-120782792D01*
X158729815Y-120849831D01*
X158677011Y-120895586D01*
X158607853Y-120905530D01*
X158544297Y-120876505D01*
X158537819Y-120870473D01*
X158416397Y-120749051D01*
X158416374Y-120749030D01*
X149055699Y-111388355D01*
X149055697Y-111388352D01*
X148936826Y-111269481D01*
X148936818Y-111269475D01*
X148835045Y-111210717D01*
X148835043Y-111210716D01*
X148799899Y-111190425D01*
X148799898Y-111190424D01*
X148787372Y-111187067D01*
X148647166Y-111149499D01*
X148489052Y-111149499D01*
X148481456Y-111149499D01*
X148481440Y-111149500D01*
X148332412Y-111149500D01*
X148265373Y-111129815D01*
X148255097Y-111122445D01*
X148252263Y-111120185D01*
X148252262Y-111120184D01*
X148195496Y-111084515D01*
X148099523Y-111024211D01*
X147929254Y-110964631D01*
X147929249Y-110964630D01*
X147750004Y-110944435D01*
X147749996Y-110944435D01*
X147570750Y-110964630D01*
X147570745Y-110964631D01*
X147400476Y-111024211D01*
X147247737Y-111120184D01*
X147120184Y-111247737D01*
X147024211Y-111400476D01*
X146964631Y-111570745D01*
X146964630Y-111570750D01*
X146944435Y-111749996D01*
X146944435Y-111750003D01*
X146964630Y-111929249D01*
X146964631Y-111929254D01*
X147024211Y-112099523D01*
X147120184Y-112252262D01*
X147247738Y-112379816D01*
X147400478Y-112475789D01*
X147570745Y-112535368D01*
X147570750Y-112535369D01*
X147749996Y-112555565D01*
X147750000Y-112555565D01*
X147750004Y-112555565D01*
X147929249Y-112535369D01*
X147929252Y-112535368D01*
X147929255Y-112535368D01*
X148099522Y-112475789D01*
X148227751Y-112395216D01*
X148294987Y-112376217D01*
X148361823Y-112396585D01*
X148381404Y-112412530D01*
X156297174Y-120328300D01*
X156330659Y-120389623D01*
X156325675Y-120459315D01*
X156283803Y-120515248D01*
X156280616Y-120517556D01*
X156103597Y-120641505D01*
X155936505Y-120808597D01*
X155800965Y-121002169D01*
X155800964Y-121002171D01*
X155714325Y-121187969D01*
X155668152Y-121240408D01*
X155600959Y-121259560D01*
X155534078Y-121239344D01*
X155488743Y-121186179D01*
X155484901Y-121176518D01*
X155475789Y-121150478D01*
X155458711Y-121123298D01*
X155379816Y-120997738D01*
X155252262Y-120870184D01*
X155228883Y-120855494D01*
X155099523Y-120774211D01*
X154929254Y-120714631D01*
X154929249Y-120714630D01*
X154750004Y-120694435D01*
X154749996Y-120694435D01*
X154570750Y-120714630D01*
X154570745Y-120714631D01*
X154400476Y-120774211D01*
X154271117Y-120855494D01*
X154205145Y-120874500D01*
X143044855Y-120874500D01*
X142978883Y-120855494D01*
X142849523Y-120774211D01*
X142679254Y-120714631D01*
X142679249Y-120714630D01*
X142500004Y-120694435D01*
X142499996Y-120694435D01*
X142320750Y-120714630D01*
X142320745Y-120714631D01*
X142150476Y-120774211D01*
X142021117Y-120855494D01*
X141955145Y-120874500D01*
X140603953Y-120874500D01*
X140536914Y-120854815D01*
X140491159Y-120802011D01*
X140480733Y-120764383D01*
X140462369Y-120601397D01*
X140462368Y-120601392D01*
X140446332Y-120555565D01*
X140402789Y-120431125D01*
X140306816Y-120278385D01*
X140179262Y-120150831D01*
X140060497Y-120076206D01*
X140014207Y-120023872D01*
X140006697Y-120003312D01*
X139990600Y-119943234D01*
X139914676Y-119811730D01*
X139807303Y-119704357D01*
X137864651Y-117761705D01*
X137831166Y-117700382D01*
X137835293Y-117633064D01*
X137837302Y-117627322D01*
X137837303Y-117627320D01*
X137856863Y-117453720D01*
X137857500Y-117448068D01*
X137857500Y-117448061D01*
X137837304Y-117268815D01*
X137837303Y-117268810D01*
X137777723Y-117098541D01*
X137681750Y-116945802D01*
X137554197Y-116818249D01*
X137401458Y-116722276D01*
X137231189Y-116662696D01*
X137231184Y-116662695D01*
X137051939Y-116642500D01*
X137051931Y-116642500D01*
X136872685Y-116662695D01*
X136872680Y-116662696D01*
X136702411Y-116722276D01*
X136549672Y-116818249D01*
X136422119Y-116945802D01*
X136326147Y-117098540D01*
X136326146Y-117098541D01*
X136286870Y-117210785D01*
X136246148Y-117267560D01*
X136210785Y-117286870D01*
X136098541Y-117326146D01*
X136098540Y-117326147D01*
X135945802Y-117422119D01*
X135818249Y-117549672D01*
X135722276Y-117702411D01*
X135662696Y-117872680D01*
X135662695Y-117872685D01*
X135642500Y-118051931D01*
X135642500Y-118051938D01*
X135662695Y-118231184D01*
X135662696Y-118231189D01*
X135722276Y-118401458D01*
X135818249Y-118554197D01*
X135945803Y-118681751D01*
X136098543Y-118777724D01*
X136252875Y-118831727D01*
X136268810Y-118837303D01*
X136268815Y-118837304D01*
X136448061Y-118857500D01*
X136448065Y-118857500D01*
X136448069Y-118857500D01*
X136627312Y-118837304D01*
X136627313Y-118837303D01*
X136627320Y-118837303D01*
X136633064Y-118835292D01*
X136702842Y-118831727D01*
X136761705Y-118864651D01*
X138116412Y-120219358D01*
X138149897Y-120280681D01*
X138144913Y-120350373D01*
X138133726Y-120373009D01*
X138097209Y-120431127D01*
X138037633Y-120601384D01*
X138037630Y-120601397D01*
X138019267Y-120764383D01*
X137992201Y-120828797D01*
X137934606Y-120868353D01*
X137896047Y-120874500D01*
X131294855Y-120874500D01*
X131228883Y-120855494D01*
X131099523Y-120774211D01*
X130929254Y-120714631D01*
X130929249Y-120714630D01*
X130750004Y-120694435D01*
X130749996Y-120694435D01*
X130570750Y-120714630D01*
X130570745Y-120714631D01*
X130400476Y-120774211D01*
X130247739Y-120870183D01*
X130177912Y-120940010D01*
X130116588Y-120973494D01*
X130046897Y-120968509D01*
X129990963Y-120926638D01*
X129978510Y-120906128D01*
X129975789Y-120900477D01*
X129894506Y-120771117D01*
X129875500Y-120705145D01*
X129875500Y-117688393D01*
X129875499Y-117688389D01*
X129851463Y-117567548D01*
X129828724Y-117512652D01*
X129804312Y-117453715D01*
X129769379Y-117401435D01*
X129735858Y-117351267D01*
X129735856Y-117351264D01*
X129645637Y-117261045D01*
X129645606Y-117261016D01*
X128384586Y-115999996D01*
X146194435Y-115999996D01*
X146194435Y-116000003D01*
X146214630Y-116179249D01*
X146214631Y-116179254D01*
X146274211Y-116349523D01*
X146370184Y-116502262D01*
X146497738Y-116629816D01*
X146650478Y-116725789D01*
X146820745Y-116785368D01*
X146820750Y-116785369D01*
X146999996Y-116805565D01*
X147000000Y-116805565D01*
X147000004Y-116805565D01*
X147179249Y-116785369D01*
X147179252Y-116785368D01*
X147179255Y-116785368D01*
X147349522Y-116725789D01*
X147502262Y-116629816D01*
X147502267Y-116629810D01*
X147505097Y-116627555D01*
X147507275Y-116626665D01*
X147508158Y-116626111D01*
X147508255Y-116626265D01*
X147569783Y-116601145D01*
X147582412Y-116600500D01*
X149199903Y-116600500D01*
X149266942Y-116620185D01*
X149287584Y-116636819D01*
X152419298Y-119768533D01*
X152452783Y-119829856D01*
X152454837Y-119842330D01*
X152464630Y-119929249D01*
X152464631Y-119929254D01*
X152464632Y-119929255D01*
X152469524Y-119943235D01*
X152524210Y-120099521D01*
X152599509Y-120219358D01*
X152620184Y-120252262D01*
X152747738Y-120379816D01*
X152900478Y-120475789D01*
X153019841Y-120517556D01*
X153070745Y-120535368D01*
X153070750Y-120535369D01*
X153249996Y-120555565D01*
X153250000Y-120555565D01*
X153250004Y-120555565D01*
X153429249Y-120535369D01*
X153429252Y-120535368D01*
X153429255Y-120535368D01*
X153599522Y-120475789D01*
X153752262Y-120379816D01*
X153879816Y-120252262D01*
X153975789Y-120099522D01*
X154035368Y-119929255D01*
X154045162Y-119842330D01*
X154055565Y-119750003D01*
X154055565Y-119749996D01*
X154035369Y-119570750D01*
X154035368Y-119570745D01*
X153975788Y-119400476D01*
X153879815Y-119247737D01*
X153752262Y-119120184D01*
X153599521Y-119024210D01*
X153429249Y-118964630D01*
X153342330Y-118954837D01*
X153277916Y-118927770D01*
X153268533Y-118919298D01*
X149987590Y-115638355D01*
X149987588Y-115638352D01*
X149868717Y-115519481D01*
X149868709Y-115519475D01*
X149766936Y-115460717D01*
X149766934Y-115460716D01*
X149731790Y-115440425D01*
X149731789Y-115440424D01*
X149719263Y-115437067D01*
X149579057Y-115399499D01*
X149420943Y-115399499D01*
X149413347Y-115399499D01*
X149413331Y-115399500D01*
X147582412Y-115399500D01*
X147515373Y-115379815D01*
X147505097Y-115372445D01*
X147502263Y-115370185D01*
X147502262Y-115370184D01*
X147445496Y-115334515D01*
X147349523Y-115274211D01*
X147179254Y-115214631D01*
X147179249Y-115214630D01*
X147000004Y-115194435D01*
X146999996Y-115194435D01*
X146820750Y-115214630D01*
X146820745Y-115214631D01*
X146650476Y-115274211D01*
X146497737Y-115370184D01*
X146370184Y-115497737D01*
X146274211Y-115650476D01*
X146214631Y-115820745D01*
X146214630Y-115820750D01*
X146194435Y-115999996D01*
X128384586Y-115999996D01*
X126326211Y-113941621D01*
X126292726Y-113880298D01*
X126290673Y-113867838D01*
X126285368Y-113820745D01*
X126225789Y-113650478D01*
X126129816Y-113497738D01*
X126002262Y-113370184D01*
X125849523Y-113274211D01*
X125679254Y-113214631D01*
X125679249Y-113214630D01*
X125500004Y-113194435D01*
X125499996Y-113194435D01*
X125320750Y-113214630D01*
X125320745Y-113214631D01*
X125150476Y-113274211D01*
X124997737Y-113370184D01*
X124870184Y-113497737D01*
X124774211Y-113650476D01*
X124714631Y-113820745D01*
X124714630Y-113820750D01*
X124694435Y-113999996D01*
X124694435Y-114000003D01*
X124714630Y-114179249D01*
X124714631Y-114179254D01*
X124774211Y-114349523D01*
X124870184Y-114502262D01*
X124997738Y-114629816D01*
X125150478Y-114725789D01*
X125320745Y-114785368D01*
X125367823Y-114790672D01*
X125432236Y-114817737D01*
X125441621Y-114826211D01*
X128588181Y-117972771D01*
X128621666Y-118034094D01*
X128624500Y-118060452D01*
X128624500Y-120705145D01*
X128605494Y-120771117D01*
X128524211Y-120900476D01*
X128464631Y-121070745D01*
X128464630Y-121070750D01*
X128444435Y-121249996D01*
X128444435Y-121250003D01*
X128464630Y-121429249D01*
X128464631Y-121429254D01*
X128524211Y-121599523D01*
X128620184Y-121752262D01*
X128747738Y-121879816D01*
X128900478Y-121975789D01*
X129070745Y-122035368D01*
X129070750Y-122035369D01*
X129249996Y-122055565D01*
X129250000Y-122055565D01*
X129250004Y-122055565D01*
X129429249Y-122035369D01*
X129429252Y-122035368D01*
X129429255Y-122035368D01*
X129599522Y-121975789D01*
X129752262Y-121879816D01*
X129822090Y-121809987D01*
X129883409Y-121776505D01*
X129953101Y-121781489D01*
X130009035Y-121823360D01*
X130021487Y-121843867D01*
X130024209Y-121849519D01*
X130091462Y-121956551D01*
X130120184Y-122002262D01*
X130247738Y-122129816D01*
X130400478Y-122225789D01*
X130570745Y-122285368D01*
X130570750Y-122285369D01*
X130749996Y-122305565D01*
X130750000Y-122305565D01*
X130750004Y-122305565D01*
X130929249Y-122285369D01*
X130929252Y-122285368D01*
X130929255Y-122285368D01*
X131099522Y-122225789D01*
X131228883Y-122144505D01*
X131294855Y-122125500D01*
X141955145Y-122125500D01*
X142021116Y-122144505D01*
X142150478Y-122225789D01*
X142320745Y-122285368D01*
X142320750Y-122285369D01*
X142499996Y-122305565D01*
X142500000Y-122305565D01*
X142500004Y-122305565D01*
X142679249Y-122285369D01*
X142679252Y-122285368D01*
X142679255Y-122285368D01*
X142849522Y-122225789D01*
X142978883Y-122144505D01*
X143044855Y-122125500D01*
X148938394Y-122125500D01*
X154205145Y-122125500D01*
X154271116Y-122144505D01*
X154400478Y-122225789D01*
X154570745Y-122285368D01*
X154570750Y-122285369D01*
X154749996Y-122305565D01*
X154750000Y-122305565D01*
X154750004Y-122305565D01*
X154929249Y-122285369D01*
X154929252Y-122285368D01*
X154929255Y-122285368D01*
X155099522Y-122225789D01*
X155252262Y-122129816D01*
X155379816Y-122002262D01*
X155427279Y-121926725D01*
X155479613Y-121880435D01*
X155548666Y-121869787D01*
X155612515Y-121898162D01*
X155650887Y-121956551D01*
X155652047Y-121960605D01*
X155701094Y-122143655D01*
X155701096Y-122143659D01*
X155701097Y-122143663D01*
X155739393Y-122225788D01*
X155800965Y-122357830D01*
X155800967Y-122357834D01*
X155936501Y-122551395D01*
X155936506Y-122551402D01*
X156103597Y-122718493D01*
X156103603Y-122718498D01*
X156289158Y-122848425D01*
X156332783Y-122903002D01*
X156339977Y-122972500D01*
X156308454Y-123034855D01*
X156289158Y-123051575D01*
X156103597Y-123181505D01*
X155936505Y-123348597D01*
X155800965Y-123542169D01*
X155800964Y-123542171D01*
X155701098Y-123756335D01*
X155701094Y-123756344D01*
X155639938Y-123984586D01*
X155639936Y-123984596D01*
X155619341Y-124219999D01*
X155619341Y-124220000D01*
X155639936Y-124455403D01*
X155639938Y-124455413D01*
X155701094Y-124683655D01*
X155701096Y-124683659D01*
X155701097Y-124683663D01*
X155800965Y-124897830D01*
X155800967Y-124897834D01*
X155936501Y-125091395D01*
X155936506Y-125091402D01*
X156103597Y-125258493D01*
X156103603Y-125258498D01*
X156289158Y-125388425D01*
X156332783Y-125443002D01*
X156339977Y-125512500D01*
X156308454Y-125574855D01*
X156289158Y-125591575D01*
X156103597Y-125721505D01*
X155936505Y-125888597D01*
X155800965Y-126082169D01*
X155800964Y-126082171D01*
X155701098Y-126296335D01*
X155701094Y-126296344D01*
X155639938Y-126524586D01*
X155639936Y-126524596D01*
X155619341Y-126759999D01*
X155619341Y-126760000D01*
X155639936Y-126995403D01*
X155639938Y-126995413D01*
X155701094Y-127223655D01*
X155701096Y-127223659D01*
X155701097Y-127223663D01*
X155724668Y-127274211D01*
X155800965Y-127437830D01*
X155800967Y-127437834D01*
X155842912Y-127497737D01*
X155936501Y-127631396D01*
X155936506Y-127631402D01*
X156058818Y-127753714D01*
X156092303Y-127815037D01*
X156087319Y-127884729D01*
X156045447Y-127940662D01*
X156014471Y-127957577D01*
X155882912Y-128006646D01*
X155882906Y-128006649D01*
X155767812Y-128092809D01*
X155767809Y-128092812D01*
X155681649Y-128207906D01*
X155681645Y-128207913D01*
X155631403Y-128342620D01*
X155631401Y-128342627D01*
X155625000Y-128402155D01*
X155625000Y-129050000D01*
X156541988Y-129050000D01*
X156509075Y-129107007D01*
X156475000Y-129234174D01*
X156475000Y-129365826D01*
X156509075Y-129492993D01*
X156541988Y-129550000D01*
X155625000Y-129550000D01*
X155625000Y-130197844D01*
X155631401Y-130257372D01*
X155631403Y-130257379D01*
X155681645Y-130392086D01*
X155681649Y-130392093D01*
X155767809Y-130507187D01*
X155767812Y-130507190D01*
X155882906Y-130593350D01*
X155882913Y-130593354D01*
X156017620Y-130643596D01*
X156017627Y-130643598D01*
X156077155Y-130649999D01*
X156077172Y-130650000D01*
X156725000Y-130650000D01*
X156725000Y-129733012D01*
X156782007Y-129765925D01*
X156909174Y-129800000D01*
X157040826Y-129800000D01*
X157167993Y-129765925D01*
X157225000Y-129733012D01*
X157225000Y-130650000D01*
X157872828Y-130650000D01*
X157872844Y-130649999D01*
X157932372Y-130643598D01*
X157932379Y-130643596D01*
X158067086Y-130593354D01*
X158067093Y-130593350D01*
X158182187Y-130507190D01*
X158182190Y-130507187D01*
X158268350Y-130392093D01*
X158268354Y-130392086D01*
X158318596Y-130257379D01*
X158318598Y-130257372D01*
X158324999Y-130197844D01*
X158325000Y-130197827D01*
X158325000Y-129550000D01*
X157408012Y-129550000D01*
X157440925Y-129492993D01*
X157475000Y-129365826D01*
X157475000Y-129234174D01*
X157440925Y-129107007D01*
X157408012Y-129050000D01*
X158325000Y-129050000D01*
X158325000Y-128402172D01*
X158324999Y-128402155D01*
X158318598Y-128342627D01*
X158318596Y-128342620D01*
X158268354Y-128207913D01*
X158268350Y-128207906D01*
X158182190Y-128092812D01*
X158182187Y-128092809D01*
X158067093Y-128006649D01*
X158067088Y-128006646D01*
X157935528Y-127957577D01*
X157879595Y-127915705D01*
X157855178Y-127850241D01*
X157870030Y-127781968D01*
X157891175Y-127753720D01*
X158013495Y-127631401D01*
X158149035Y-127437830D01*
X158248903Y-127223663D01*
X158310063Y-126995408D01*
X158330659Y-126760000D01*
X158310063Y-126524592D01*
X158248903Y-126296337D01*
X158149035Y-126082171D01*
X158013495Y-125888599D01*
X158013494Y-125888597D01*
X157846402Y-125721506D01*
X157846396Y-125721501D01*
X157660842Y-125591575D01*
X157617217Y-125536998D01*
X157610023Y-125467500D01*
X157641546Y-125405145D01*
X157660842Y-125388425D01*
X157683026Y-125372891D01*
X157846401Y-125258495D01*
X158013495Y-125091401D01*
X158149035Y-124897830D01*
X158248903Y-124683663D01*
X158310063Y-124455408D01*
X158330659Y-124220000D01*
X158310063Y-123984592D01*
X158275671Y-123856239D01*
X158277334Y-123786393D01*
X158307763Y-123736470D01*
X158410506Y-123633728D01*
X158410511Y-123633724D01*
X158420714Y-123623520D01*
X158420716Y-123623520D01*
X158532520Y-123511716D01*
X158532520Y-123511715D01*
X158537819Y-123506417D01*
X158599142Y-123472932D01*
X158668834Y-123477916D01*
X158724767Y-123519788D01*
X158749184Y-123585252D01*
X158749500Y-123594098D01*
X158749500Y-138996249D01*
X158749274Y-139003736D01*
X158731728Y-139293794D01*
X158729923Y-139308659D01*
X158678219Y-139590798D01*
X158674635Y-139605336D01*
X158589306Y-139879167D01*
X158583997Y-139893168D01*
X158466275Y-140154736D01*
X158459316Y-140167995D01*
X158310928Y-140413459D01*
X158302422Y-140425782D01*
X158125526Y-140651573D01*
X158115596Y-140662781D01*
X157912781Y-140865596D01*
X157901573Y-140875526D01*
X157675782Y-141052422D01*
X157663459Y-141060928D01*
X157417995Y-141209316D01*
X157404736Y-141216275D01*
X157143168Y-141333997D01*
X157129167Y-141339306D01*
X156855336Y-141424635D01*
X156840798Y-141428219D01*
X156558659Y-141479923D01*
X156543794Y-141481728D01*
X156253736Y-141499274D01*
X156246249Y-141499500D01*
X118003751Y-141499500D01*
X117996264Y-141499274D01*
X117706205Y-141481728D01*
X117691340Y-141479923D01*
X117409201Y-141428219D01*
X117394663Y-141424635D01*
X117120832Y-141339306D01*
X117106831Y-141333997D01*
X116845263Y-141216275D01*
X116832004Y-141209316D01*
X116590780Y-141063491D01*
X116586537Y-141060926D01*
X116574217Y-141052422D01*
X116496943Y-140991882D01*
X116348426Y-140875526D01*
X116337218Y-140865596D01*
X116134403Y-140662781D01*
X116124473Y-140651573D01*
X116033432Y-140535368D01*
X115947573Y-140425776D01*
X115939075Y-140413465D01*
X115790680Y-140167989D01*
X115783727Y-140154743D01*
X115666000Y-139893163D01*
X115660693Y-139879167D01*
X115613435Y-139727512D01*
X115575363Y-139605335D01*
X115571780Y-139590798D01*
X115555141Y-139500000D01*
X115520075Y-139308657D01*
X115518271Y-139293794D01*
X115500726Y-139003736D01*
X115500500Y-138996249D01*
X115500500Y-138631902D01*
X116999500Y-138631902D01*
X116999500Y-138868097D01*
X117036446Y-139101368D01*
X117109433Y-139325996D01*
X117147384Y-139400478D01*
X117216657Y-139536433D01*
X117355483Y-139727510D01*
X117522490Y-139894517D01*
X117713567Y-140033343D01*
X117812991Y-140084002D01*
X117924003Y-140140566D01*
X117924005Y-140140566D01*
X117924008Y-140140568D01*
X118044412Y-140179689D01*
X118148631Y-140213553D01*
X118381903Y-140250500D01*
X118381908Y-140250500D01*
X118618097Y-140250500D01*
X118851368Y-140213553D01*
X119075992Y-140140568D01*
X119286433Y-140033343D01*
X119477510Y-139894517D01*
X119644517Y-139727510D01*
X119783343Y-139536433D01*
X119890568Y-139325992D01*
X119963553Y-139101368D01*
X119971689Y-139050000D01*
X120000500Y-138868097D01*
X120000500Y-138631902D01*
X119963553Y-138398631D01*
X119890566Y-138174003D01*
X119783342Y-137963566D01*
X119644517Y-137772490D01*
X119477510Y-137605483D01*
X119286433Y-137466657D01*
X119271095Y-137458842D01*
X119075996Y-137359433D01*
X118851368Y-137286446D01*
X118618097Y-137249500D01*
X118618092Y-137249500D01*
X118381908Y-137249500D01*
X118381903Y-137249500D01*
X118148631Y-137286446D01*
X117924003Y-137359433D01*
X117713566Y-137466657D01*
X117615848Y-137537654D01*
X117522490Y-137605483D01*
X117522488Y-137605485D01*
X117522487Y-137605485D01*
X117355485Y-137772487D01*
X117355485Y-137772488D01*
X117355483Y-137772490D01*
X117295862Y-137854550D01*
X117216657Y-137963566D01*
X117109433Y-138174003D01*
X117036446Y-138398631D01*
X116999500Y-138631902D01*
X115500500Y-138631902D01*
X115500500Y-135526428D01*
X133975000Y-135526428D01*
X133975000Y-136120000D01*
X134625000Y-136120000D01*
X134625000Y-136620000D01*
X133975000Y-136620000D01*
X133975000Y-137213571D01*
X134011506Y-137397097D01*
X134011508Y-137397105D01*
X134083119Y-137569991D01*
X134083124Y-137570000D01*
X134187086Y-137725589D01*
X134187089Y-137725593D01*
X134319406Y-137857910D01*
X134319410Y-137857913D01*
X134474999Y-137961875D01*
X134475012Y-137961882D01*
X134647889Y-138033489D01*
X134647896Y-138033491D01*
X134675000Y-138038882D01*
X134675000Y-137286988D01*
X134684940Y-137304205D01*
X134740795Y-137360060D01*
X134809204Y-137399556D01*
X134885504Y-137420000D01*
X134964496Y-137420000D01*
X135040796Y-137399556D01*
X135109205Y-137360060D01*
X135165060Y-137304205D01*
X135175000Y-137286988D01*
X135175000Y-138038881D01*
X135202103Y-138033491D01*
X135202110Y-138033489D01*
X135374987Y-137961882D01*
X135375000Y-137961875D01*
X135530589Y-137857913D01*
X135530593Y-137857910D01*
X135662910Y-137725593D01*
X135662913Y-137725589D01*
X135766875Y-137570000D01*
X135766878Y-137569994D01*
X135771723Y-137558297D01*
X135815561Y-137503891D01*
X135881854Y-137481822D01*
X135936723Y-137492464D01*
X136018652Y-137528941D01*
X136018657Y-137528943D01*
X136188289Y-137565000D01*
X136361711Y-137565000D01*
X136531342Y-137528943D01*
X136531347Y-137528941D01*
X136648947Y-137476582D01*
X136718197Y-137467297D01*
X136749818Y-137476581D01*
X136821639Y-137508557D01*
X136868501Y-137529422D01*
X137038236Y-137565500D01*
X137038237Y-137565500D01*
X137211762Y-137565500D01*
X137211764Y-137565500D01*
X137381499Y-137529422D01*
X137381501Y-137529420D01*
X137381504Y-137529420D01*
X137499564Y-137476856D01*
X137568814Y-137467571D01*
X137600436Y-137476856D01*
X137718495Y-137529420D01*
X137718501Y-137529422D01*
X137888236Y-137565500D01*
X137888237Y-137565500D01*
X138061762Y-137565500D01*
X138061764Y-137565500D01*
X138231499Y-137529422D01*
X138231501Y-137529420D01*
X138231504Y-137529420D01*
X138349564Y-137476856D01*
X138418814Y-137467571D01*
X138450436Y-137476856D01*
X138568495Y-137529420D01*
X138568497Y-137529420D01*
X138568501Y-137529422D01*
X138607240Y-137537656D01*
X138668718Y-137570846D01*
X138702496Y-137632008D01*
X138697844Y-137701723D01*
X138669138Y-137746626D01*
X137302584Y-139113181D01*
X137241261Y-139146666D01*
X137214903Y-139149500D01*
X137082412Y-139149500D01*
X137015373Y-139129815D01*
X137005097Y-139122445D01*
X137002263Y-139120185D01*
X137002262Y-139120184D01*
X136927013Y-139072902D01*
X136849523Y-139024211D01*
X136679254Y-138964631D01*
X136679249Y-138964630D01*
X136500004Y-138944435D01*
X136499996Y-138944435D01*
X136320750Y-138964630D01*
X136320745Y-138964631D01*
X136150476Y-139024211D01*
X136011259Y-139111688D01*
X135944022Y-139130688D01*
X135877187Y-139110320D01*
X135831973Y-139057052D01*
X135830726Y-139054146D01*
X135766882Y-138900012D01*
X135766875Y-138899999D01*
X135662913Y-138744410D01*
X135662910Y-138744406D01*
X135530593Y-138612089D01*
X135530589Y-138612086D01*
X135375000Y-138508124D01*
X135374991Y-138508119D01*
X135202103Y-138436507D01*
X135202100Y-138436506D01*
X135175000Y-138431115D01*
X135175000Y-139183011D01*
X135165060Y-139165795D01*
X135109205Y-139109940D01*
X135040796Y-139070444D01*
X134964496Y-139050000D01*
X134885504Y-139050000D01*
X134809204Y-139070444D01*
X134740795Y-139109940D01*
X134684940Y-139165795D01*
X134675000Y-139183011D01*
X134675000Y-138431116D01*
X134674999Y-138431115D01*
X134647899Y-138436506D01*
X134647896Y-138436507D01*
X134475008Y-138508119D01*
X134474999Y-138508124D01*
X134319410Y-138612086D01*
X134319406Y-138612089D01*
X134187089Y-138744406D01*
X134187086Y-138744410D01*
X134083124Y-138899999D01*
X134083119Y-138900008D01*
X134011508Y-139072894D01*
X134011506Y-139072902D01*
X133975000Y-139256428D01*
X133975000Y-139500000D01*
X134625000Y-139500000D01*
X134625000Y-140000000D01*
X133975000Y-140000000D01*
X133975000Y-140243571D01*
X134011506Y-140427097D01*
X134011508Y-140427105D01*
X134083119Y-140599991D01*
X134083124Y-140600000D01*
X134187086Y-140755589D01*
X134187089Y-140755593D01*
X134319406Y-140887910D01*
X134319410Y-140887913D01*
X134474999Y-140991875D01*
X134475012Y-140991882D01*
X134647889Y-141063489D01*
X134647896Y-141063491D01*
X134675000Y-141068882D01*
X134675000Y-140316988D01*
X134684940Y-140334205D01*
X134740795Y-140390060D01*
X134809204Y-140429556D01*
X134885504Y-140450000D01*
X134964496Y-140450000D01*
X135040796Y-140429556D01*
X135109205Y-140390060D01*
X135165060Y-140334205D01*
X135175000Y-140316988D01*
X135175000Y-141068881D01*
X135202103Y-141063491D01*
X135202110Y-141063489D01*
X135374987Y-140991882D01*
X135375000Y-140991875D01*
X135530589Y-140887913D01*
X135530593Y-140887910D01*
X135662910Y-140755593D01*
X135662913Y-140755589D01*
X135766875Y-140600000D01*
X135766882Y-140599987D01*
X135830726Y-140445853D01*
X135874567Y-140391449D01*
X135940861Y-140369384D01*
X136008560Y-140386663D01*
X136011234Y-140388296D01*
X136057791Y-140417550D01*
X136150475Y-140475788D01*
X136320745Y-140535368D01*
X136320750Y-140535369D01*
X136499996Y-140555565D01*
X136500000Y-140555565D01*
X136500004Y-140555565D01*
X136679249Y-140535369D01*
X136679252Y-140535368D01*
X136679255Y-140535368D01*
X136849522Y-140475789D01*
X137002262Y-140379816D01*
X137002267Y-140379810D01*
X137005097Y-140377555D01*
X137007275Y-140376665D01*
X137008158Y-140376111D01*
X137008255Y-140376265D01*
X137069783Y-140351145D01*
X137082412Y-140350500D01*
X137428331Y-140350500D01*
X137428347Y-140350501D01*
X137435943Y-140350501D01*
X137594054Y-140350501D01*
X137594057Y-140350501D01*
X137746785Y-140309577D01*
X137796904Y-140280639D01*
X137883716Y-140230520D01*
X137995520Y-140118716D01*
X137995520Y-140118714D01*
X138005728Y-140108507D01*
X138005729Y-140108504D01*
X138857806Y-139256428D01*
X142625000Y-139256428D01*
X142625000Y-139500000D01*
X143275000Y-139500000D01*
X143275000Y-140000000D01*
X142625000Y-140000000D01*
X142625000Y-140243571D01*
X142661506Y-140427097D01*
X142661508Y-140427105D01*
X142733119Y-140599991D01*
X142733124Y-140600000D01*
X142837086Y-140755589D01*
X142837089Y-140755593D01*
X142969406Y-140887910D01*
X142969410Y-140887913D01*
X143124999Y-140991875D01*
X143125012Y-140991882D01*
X143297889Y-141063489D01*
X143297896Y-141063491D01*
X143325000Y-141068882D01*
X143325000Y-140316988D01*
X143334940Y-140334205D01*
X143390795Y-140390060D01*
X143459204Y-140429556D01*
X143535504Y-140450000D01*
X143614496Y-140450000D01*
X143690796Y-140429556D01*
X143759205Y-140390060D01*
X143815060Y-140334205D01*
X143825000Y-140316988D01*
X143825000Y-141068881D01*
X143852103Y-141063491D01*
X143852110Y-141063489D01*
X144024987Y-140991882D01*
X144025000Y-140991875D01*
X144180589Y-140887913D01*
X144180593Y-140887910D01*
X144312910Y-140755593D01*
X144312913Y-140755589D01*
X144416875Y-140600000D01*
X144416880Y-140599991D01*
X144488491Y-140427105D01*
X144488493Y-140427097D01*
X144524999Y-140243571D01*
X144525000Y-140243569D01*
X144525000Y-140000000D01*
X143875000Y-140000000D01*
X143875000Y-139500000D01*
X144525000Y-139500000D01*
X144525000Y-139256430D01*
X144524999Y-139256428D01*
X144488493Y-139072902D01*
X144488491Y-139072894D01*
X144416880Y-138900008D01*
X144416875Y-138899999D01*
X144312913Y-138744410D01*
X144312910Y-138744406D01*
X144200406Y-138631902D01*
X154749500Y-138631902D01*
X154749500Y-138868097D01*
X154786446Y-139101368D01*
X154859433Y-139325996D01*
X154897384Y-139400478D01*
X154966657Y-139536433D01*
X155105483Y-139727510D01*
X155272490Y-139894517D01*
X155463567Y-140033343D01*
X155562991Y-140084002D01*
X155674003Y-140140566D01*
X155674005Y-140140566D01*
X155674008Y-140140568D01*
X155794412Y-140179689D01*
X155898631Y-140213553D01*
X156131903Y-140250500D01*
X156131908Y-140250500D01*
X156368097Y-140250500D01*
X156601368Y-140213553D01*
X156825992Y-140140568D01*
X157036433Y-140033343D01*
X157227510Y-139894517D01*
X157394517Y-139727510D01*
X157533343Y-139536433D01*
X157640568Y-139325992D01*
X157713553Y-139101368D01*
X157721689Y-139050000D01*
X157750500Y-138868097D01*
X157750500Y-138631902D01*
X157713553Y-138398631D01*
X157640566Y-138174003D01*
X157533342Y-137963566D01*
X157394517Y-137772490D01*
X157227510Y-137605483D01*
X157036433Y-137466657D01*
X157021095Y-137458842D01*
X156825996Y-137359433D01*
X156601368Y-137286446D01*
X156368097Y-137249500D01*
X156368092Y-137249500D01*
X156131908Y-137249500D01*
X156131903Y-137249500D01*
X155898631Y-137286446D01*
X155674003Y-137359433D01*
X155463566Y-137466657D01*
X155365848Y-137537654D01*
X155272490Y-137605483D01*
X155272488Y-137605485D01*
X155272487Y-137605485D01*
X155105485Y-137772487D01*
X155105485Y-137772488D01*
X155105483Y-137772490D01*
X155045862Y-137854550D01*
X154966657Y-137963566D01*
X154859433Y-138174003D01*
X154786446Y-138398631D01*
X154749500Y-138631902D01*
X144200406Y-138631902D01*
X144180593Y-138612089D01*
X144180589Y-138612086D01*
X144025000Y-138508124D01*
X144024991Y-138508119D01*
X143852103Y-138436507D01*
X143852100Y-138436506D01*
X143825000Y-138431115D01*
X143825000Y-139183011D01*
X143815060Y-139165795D01*
X143759205Y-139109940D01*
X143690796Y-139070444D01*
X143614496Y-139050000D01*
X143535504Y-139050000D01*
X143459204Y-139070444D01*
X143390795Y-139109940D01*
X143334940Y-139165795D01*
X143325000Y-139183011D01*
X143325000Y-138431116D01*
X143324999Y-138431115D01*
X143297899Y-138436506D01*
X143297896Y-138436507D01*
X143125008Y-138508119D01*
X143124999Y-138508124D01*
X142969410Y-138612086D01*
X142969406Y-138612089D01*
X142837089Y-138744406D01*
X142837086Y-138744410D01*
X142733124Y-138899999D01*
X142733119Y-138900008D01*
X142661508Y-139072894D01*
X142661506Y-139072902D01*
X142625000Y-139256428D01*
X138857806Y-139256428D01*
X140512416Y-137601819D01*
X140573739Y-137568334D01*
X140600097Y-137565500D01*
X140611762Y-137565500D01*
X140611764Y-137565500D01*
X140781499Y-137529422D01*
X140781501Y-137529420D01*
X140781504Y-137529420D01*
X140899564Y-137476856D01*
X140968814Y-137467571D01*
X141000436Y-137476856D01*
X141118495Y-137529420D01*
X141118501Y-137529422D01*
X141288236Y-137565500D01*
X141288237Y-137565500D01*
X141461762Y-137565500D01*
X141461764Y-137565500D01*
X141631499Y-137529422D01*
X141631501Y-137529420D01*
X141631504Y-137529420D01*
X141750179Y-137476582D01*
X141819429Y-137467297D01*
X141851050Y-137476581D01*
X141968657Y-137528943D01*
X142138289Y-137565000D01*
X142311711Y-137565000D01*
X142481342Y-137528943D01*
X142481347Y-137528941D01*
X142563276Y-137492464D01*
X142632526Y-137483179D01*
X142695803Y-137512807D01*
X142728273Y-137558291D01*
X142733117Y-137569987D01*
X142733124Y-137570000D01*
X142837086Y-137725589D01*
X142837089Y-137725593D01*
X142969406Y-137857910D01*
X142969410Y-137857913D01*
X143124999Y-137961875D01*
X143125012Y-137961882D01*
X143297889Y-138033489D01*
X143297896Y-138033491D01*
X143325000Y-138038882D01*
X143325000Y-137286988D01*
X143334940Y-137304205D01*
X143390795Y-137360060D01*
X143459204Y-137399556D01*
X143535504Y-137420000D01*
X143614496Y-137420000D01*
X143690796Y-137399556D01*
X143759205Y-137360060D01*
X143815060Y-137304205D01*
X143825000Y-137286988D01*
X143825000Y-138038881D01*
X143852103Y-138033491D01*
X143852110Y-138033489D01*
X144024987Y-137961882D01*
X144025000Y-137961875D01*
X144180589Y-137857913D01*
X144180593Y-137857910D01*
X144312910Y-137725593D01*
X144312913Y-137725589D01*
X144416875Y-137570000D01*
X144416880Y-137569991D01*
X144488491Y-137397105D01*
X144488493Y-137397097D01*
X144524999Y-137213571D01*
X144525000Y-137213569D01*
X144525000Y-136620000D01*
X143875000Y-136620000D01*
X143875000Y-136120000D01*
X144525000Y-136120000D01*
X144525000Y-135526430D01*
X144524999Y-135526428D01*
X144488493Y-135342902D01*
X144488491Y-135342894D01*
X144416880Y-135170008D01*
X144416875Y-135169999D01*
X144312913Y-135014410D01*
X144312910Y-135014406D01*
X144180593Y-134882089D01*
X144180589Y-134882086D01*
X144025000Y-134778124D01*
X144024991Y-134778119D01*
X143852103Y-134706507D01*
X143852100Y-134706506D01*
X143825000Y-134701115D01*
X143825000Y-135453011D01*
X143815060Y-135435795D01*
X143759205Y-135379940D01*
X143690796Y-135340444D01*
X143614496Y-135320000D01*
X143535504Y-135320000D01*
X143459204Y-135340444D01*
X143390795Y-135379940D01*
X143334940Y-135435795D01*
X143325000Y-135453011D01*
X143325000Y-134701116D01*
X143324999Y-134701115D01*
X143297899Y-134706506D01*
X143297896Y-134706507D01*
X143125008Y-134778119D01*
X143124999Y-134778124D01*
X142969415Y-134882082D01*
X142969407Y-134882089D01*
X142957016Y-134894478D01*
X142957016Y-134918714D01*
X142961349Y-134926649D01*
X142956365Y-134996341D01*
X142927864Y-135040688D01*
X142408782Y-135559770D01*
X142347459Y-135593255D01*
X142277767Y-135588271D01*
X142274628Y-135585921D01*
X142338291Y-135559552D01*
X142394552Y-135503291D01*
X142425000Y-135429782D01*
X142425000Y-135350218D01*
X142394552Y-135276709D01*
X142338291Y-135220448D01*
X142264782Y-135190000D01*
X142185218Y-135190000D01*
X142178854Y-135192635D01*
X142175347Y-135181845D01*
X142173353Y-135112005D01*
X142205598Y-135055847D01*
X142605231Y-134656215D01*
X142481340Y-134601056D01*
X142311711Y-134565000D01*
X142138289Y-134565000D01*
X141968657Y-134601056D01*
X141968656Y-134601056D01*
X141851050Y-134653418D01*
X141781800Y-134662702D01*
X141750180Y-134653418D01*
X141631500Y-134600578D01*
X141631498Y-134600577D01*
X141497841Y-134572168D01*
X141461764Y-134564500D01*
X141288236Y-134564500D01*
X141258483Y-134570824D01*
X141118501Y-134600577D01*
X141118500Y-134600577D01*
X141000434Y-134653144D01*
X140931184Y-134662428D01*
X140899564Y-134653144D01*
X140781500Y-134600578D01*
X140781498Y-134600577D01*
X140647841Y-134572168D01*
X140611764Y-134564500D01*
X140438236Y-134564500D01*
X140408483Y-134570824D01*
X140268501Y-134600577D01*
X140268500Y-134600577D01*
X140150434Y-134653144D01*
X140081184Y-134662428D01*
X140049564Y-134653144D01*
X139931500Y-134600578D01*
X139931498Y-134600577D01*
X139797841Y-134572168D01*
X139761764Y-134564500D01*
X139588236Y-134564500D01*
X139558483Y-134570824D01*
X139418501Y-134600577D01*
X139418500Y-134600577D01*
X139300434Y-134653144D01*
X139231184Y-134662428D01*
X139199564Y-134653144D01*
X139081500Y-134600578D01*
X139081498Y-134600577D01*
X138947841Y-134572168D01*
X138911764Y-134564500D01*
X138738236Y-134564500D01*
X138708483Y-134570824D01*
X138568501Y-134600577D01*
X138568500Y-134600577D01*
X138450434Y-134653144D01*
X138381184Y-134662428D01*
X138349564Y-134653144D01*
X138231500Y-134600578D01*
X138231498Y-134600577D01*
X138097841Y-134572168D01*
X138061764Y-134564500D01*
X137888236Y-134564500D01*
X137858483Y-134570824D01*
X137718501Y-134600577D01*
X137718500Y-134600577D01*
X137600434Y-134653144D01*
X137531184Y-134662428D01*
X137499564Y-134653144D01*
X137381500Y-134600578D01*
X137381498Y-134600577D01*
X137247841Y-134572168D01*
X137211764Y-134564500D01*
X137038236Y-134564500D01*
X137008483Y-134570824D01*
X136868501Y-134600577D01*
X136868496Y-134600579D01*
X136749820Y-134653418D01*
X136680570Y-134662703D01*
X136648949Y-134653419D01*
X136531340Y-134601056D01*
X136525000Y-134599707D01*
X136525000Y-134775077D01*
X136505315Y-134842116D01*
X136493151Y-134858049D01*
X136453477Y-134902111D01*
X136453476Y-134902112D01*
X136366712Y-135052391D01*
X136321145Y-135192635D01*
X136314782Y-135190000D01*
X136235218Y-135190000D01*
X136161709Y-135220448D01*
X136105448Y-135276709D01*
X136075000Y-135350218D01*
X136075000Y-135429782D01*
X136105448Y-135503291D01*
X136161709Y-135559552D01*
X136235218Y-135590000D01*
X136277210Y-135590000D01*
X136246534Y-135622792D01*
X136183514Y-135640000D01*
X136149000Y-135640000D01*
X136081961Y-135620315D01*
X136036206Y-135567511D01*
X136025000Y-135516000D01*
X136025000Y-134599707D01*
X136018660Y-134601056D01*
X135860226Y-134671595D01*
X135719925Y-134773530D01*
X135659584Y-134840545D01*
X135600097Y-134877193D01*
X135530240Y-134875862D01*
X135498544Y-134860674D01*
X135375000Y-134778124D01*
X135374991Y-134778119D01*
X135202103Y-134706507D01*
X135202100Y-134706506D01*
X135175000Y-134701115D01*
X135175000Y-135453011D01*
X135165060Y-135435795D01*
X135109205Y-135379940D01*
X135040796Y-135340444D01*
X134964496Y-135320000D01*
X134885504Y-135320000D01*
X134809204Y-135340444D01*
X134740795Y-135379940D01*
X134684940Y-135435795D01*
X134675000Y-135453011D01*
X134675000Y-134701116D01*
X134674999Y-134701115D01*
X134647899Y-134706506D01*
X134647896Y-134706507D01*
X134475008Y-134778119D01*
X134474999Y-134778124D01*
X134319410Y-134882086D01*
X134319406Y-134882089D01*
X134187089Y-135014406D01*
X134187086Y-135014410D01*
X134083124Y-135169999D01*
X134083119Y-135170008D01*
X134011508Y-135342894D01*
X134011506Y-135342902D01*
X133975000Y-135526428D01*
X115500500Y-135526428D01*
X115500500Y-131999996D01*
X137694435Y-131999996D01*
X137694435Y-132000003D01*
X137714630Y-132179249D01*
X137714631Y-132179254D01*
X137774211Y-132349523D01*
X137870184Y-132502262D01*
X137997738Y-132629816D01*
X138150478Y-132725789D01*
X138207015Y-132745572D01*
X138320745Y-132785368D01*
X138320750Y-132785369D01*
X138499996Y-132805565D01*
X138500000Y-132805565D01*
X138500004Y-132805565D01*
X138679249Y-132785369D01*
X138679252Y-132785368D01*
X138679255Y-132785368D01*
X138849522Y-132725789D01*
X139002262Y-132629816D01*
X139019059Y-132613019D01*
X139080382Y-132579534D01*
X139106740Y-132576700D01*
X139268468Y-132576700D01*
X139335507Y-132596385D01*
X139381262Y-132649189D01*
X139391688Y-132686817D01*
X139398307Y-132745572D01*
X139457887Y-132915844D01*
X139553861Y-133068585D01*
X139681415Y-133196139D01*
X139834155Y-133292112D01*
X140004422Y-133351691D01*
X140004427Y-133351692D01*
X140183673Y-133371888D01*
X140183677Y-133371888D01*
X140183681Y-133371888D01*
X140362926Y-133351692D01*
X140362929Y-133351691D01*
X140362932Y-133351691D01*
X140533199Y-133292112D01*
X140685939Y-133196139D01*
X140813493Y-133068585D01*
X140909466Y-132915845D01*
X140969045Y-132745578D01*
X140975666Y-132686817D01*
X140989242Y-132566326D01*
X140989242Y-132566319D01*
X140969046Y-132387073D01*
X140969045Y-132387068D01*
X140909465Y-132216799D01*
X140813492Y-132064060D01*
X140685939Y-131936507D01*
X140533198Y-131840533D01*
X140362926Y-131780953D01*
X140238075Y-131766886D01*
X140173661Y-131739819D01*
X140164278Y-131731347D01*
X139971458Y-131538527D01*
X139971452Y-131538522D01*
X139839954Y-131462602D01*
X139839953Y-131462601D01*
X139839952Y-131462601D01*
X139693278Y-131423300D01*
X139693277Y-131423300D01*
X139106740Y-131423300D01*
X139039701Y-131403615D01*
X139019059Y-131386981D01*
X139002262Y-131370184D01*
X138849523Y-131274211D01*
X138679254Y-131214631D01*
X138679249Y-131214630D01*
X138500004Y-131194435D01*
X138499996Y-131194435D01*
X138320750Y-131214630D01*
X138320745Y-131214631D01*
X138150476Y-131274211D01*
X137997737Y-131370184D01*
X137870184Y-131497737D01*
X137774211Y-131650476D01*
X137714631Y-131820745D01*
X137714630Y-131820750D01*
X137694435Y-131999996D01*
X115500500Y-131999996D01*
X115500500Y-128499996D01*
X134444435Y-128499996D01*
X134444435Y-128500003D01*
X134464630Y-128679249D01*
X134464631Y-128679254D01*
X134524211Y-128849523D01*
X134555132Y-128898733D01*
X134620184Y-129002262D01*
X134747738Y-129129816D01*
X134900478Y-129225789D01*
X135070745Y-129285368D01*
X135070750Y-129285369D01*
X135249996Y-129305565D01*
X135250000Y-129305565D01*
X135250004Y-129305565D01*
X135429249Y-129285369D01*
X135429252Y-129285368D01*
X135429255Y-129285368D01*
X135599522Y-129225789D01*
X135728883Y-129144505D01*
X135794855Y-129125500D01*
X140061608Y-129125500D01*
X140061608Y-129125499D01*
X140125978Y-129112696D01*
X140125979Y-129112696D01*
X140154579Y-129107007D01*
X140182452Y-129101463D01*
X140215792Y-129087652D01*
X140296286Y-129054312D01*
X140347509Y-129020084D01*
X140398733Y-128985858D01*
X140485858Y-128898733D01*
X140485859Y-128898731D01*
X140492925Y-128891665D01*
X140492928Y-128891661D01*
X140558379Y-128826209D01*
X140619700Y-128792726D01*
X140632156Y-128790674D01*
X140679255Y-128785368D01*
X140849522Y-128725789D01*
X141002262Y-128629816D01*
X141129816Y-128502262D01*
X141225789Y-128349522D01*
X141285368Y-128179255D01*
X141285369Y-128179249D01*
X141305565Y-128000003D01*
X141305565Y-127999996D01*
X141285369Y-127820750D01*
X141285368Y-127820745D01*
X141225788Y-127650476D01*
X141129815Y-127497737D01*
X141002262Y-127370184D01*
X140849523Y-127274211D01*
X140679254Y-127214631D01*
X140679249Y-127214630D01*
X140500004Y-127194435D01*
X140499996Y-127194435D01*
X140320750Y-127214630D01*
X140320745Y-127214631D01*
X140150476Y-127274211D01*
X139997737Y-127370184D01*
X139870184Y-127497737D01*
X139774210Y-127650478D01*
X139744055Y-127736658D01*
X139724880Y-127791455D01*
X139684160Y-127848230D01*
X139619208Y-127873978D01*
X139607840Y-127874500D01*
X135794855Y-127874500D01*
X135728883Y-127855494D01*
X135599523Y-127774211D01*
X135429254Y-127714631D01*
X135429249Y-127714630D01*
X135250004Y-127694435D01*
X135249996Y-127694435D01*
X135070750Y-127714630D01*
X135070745Y-127714631D01*
X134900476Y-127774211D01*
X134747737Y-127870184D01*
X134620184Y-127997737D01*
X134524211Y-128150476D01*
X134464631Y-128320745D01*
X134464630Y-128320750D01*
X134444435Y-128499996D01*
X115500500Y-128499996D01*
X115500500Y-111476660D01*
X138186892Y-111476660D01*
X138186892Y-111476661D01*
X138200692Y-111485333D01*
X138200691Y-111485333D01*
X138370861Y-111544878D01*
X138549997Y-111565062D01*
X138550003Y-111565062D01*
X138729138Y-111544878D01*
X138729141Y-111544877D01*
X138899305Y-111485334D01*
X138899306Y-111485334D01*
X138913106Y-111476661D01*
X138913106Y-111476660D01*
X139586892Y-111476660D01*
X139586892Y-111476661D01*
X139600692Y-111485333D01*
X139600691Y-111485333D01*
X139770861Y-111544878D01*
X139949997Y-111565062D01*
X139950003Y-111565062D01*
X140129138Y-111544878D01*
X140129141Y-111544877D01*
X140299305Y-111485334D01*
X140299306Y-111485334D01*
X140313106Y-111476661D01*
X140313106Y-111476660D01*
X139950001Y-111113553D01*
X139950000Y-111113553D01*
X139586892Y-111476660D01*
X138913106Y-111476660D01*
X138550001Y-111113553D01*
X138550000Y-111113553D01*
X138186892Y-111476660D01*
X115500500Y-111476660D01*
X115500500Y-110776660D01*
X137486892Y-110776660D01*
X137486892Y-110776661D01*
X137500692Y-110785333D01*
X137500691Y-110785333D01*
X137670862Y-110844878D01*
X137671644Y-110845057D01*
X137672097Y-110845310D01*
X137677431Y-110847177D01*
X137677104Y-110848111D01*
X137732623Y-110879166D01*
X137761952Y-110932874D01*
X137762822Y-110932570D01*
X137764670Y-110937852D01*
X137764940Y-110938346D01*
X137765121Y-110939142D01*
X137824663Y-111109300D01*
X137824663Y-111109301D01*
X137833338Y-111123107D01*
X138196446Y-110760000D01*
X138176555Y-110740109D01*
X138450000Y-110740109D01*
X138450000Y-110779891D01*
X138465224Y-110816645D01*
X138493355Y-110844776D01*
X138530109Y-110860000D01*
X138569891Y-110860000D01*
X138606645Y-110844776D01*
X138634776Y-110816645D01*
X138650000Y-110779891D01*
X138650000Y-110759999D01*
X138903553Y-110759999D01*
X138903553Y-110760000D01*
X139250000Y-111106446D01*
X139250001Y-111106446D01*
X139596446Y-110760000D01*
X139576555Y-110740109D01*
X139850000Y-110740109D01*
X139850000Y-110779891D01*
X139865224Y-110816645D01*
X139893355Y-110844776D01*
X139930109Y-110860000D01*
X139969891Y-110860000D01*
X140006645Y-110844776D01*
X140034776Y-110816645D01*
X140050000Y-110779891D01*
X140050000Y-110759999D01*
X140303553Y-110759999D01*
X140303553Y-110760000D01*
X140666660Y-111123106D01*
X140666661Y-111123106D01*
X140675334Y-111109306D01*
X140675334Y-111109305D01*
X140734876Y-110939144D01*
X140735056Y-110938358D01*
X140735311Y-110937901D01*
X140737177Y-110932570D01*
X140738110Y-110932896D01*
X140769164Y-110877379D01*
X140822875Y-110848049D01*
X140822570Y-110847177D01*
X140827870Y-110845322D01*
X140828358Y-110845056D01*
X140829144Y-110844876D01*
X140999305Y-110785334D01*
X140999306Y-110785334D01*
X141013106Y-110776661D01*
X141013106Y-110776660D01*
X140650000Y-110413553D01*
X140584240Y-110479314D01*
X140584239Y-110479314D01*
X140303553Y-110759999D01*
X140050000Y-110759999D01*
X140050000Y-110740109D01*
X140034776Y-110703355D01*
X140006645Y-110675224D01*
X139969891Y-110660000D01*
X139930109Y-110660000D01*
X139893355Y-110675224D01*
X139865224Y-110703355D01*
X139850000Y-110740109D01*
X139576555Y-110740109D01*
X139315760Y-110479314D01*
X139250000Y-110413553D01*
X139184240Y-110479314D01*
X139184239Y-110479314D01*
X138903553Y-110759999D01*
X138650000Y-110759999D01*
X138650000Y-110740109D01*
X138634776Y-110703355D01*
X138606645Y-110675224D01*
X138569891Y-110660000D01*
X138530109Y-110660000D01*
X138493355Y-110675224D01*
X138465224Y-110703355D01*
X138450000Y-110740109D01*
X138176555Y-110740109D01*
X137849999Y-110413553D01*
X137849998Y-110413553D01*
X137486892Y-110776660D01*
X115500500Y-110776660D01*
X115500500Y-110059997D01*
X137044938Y-110059997D01*
X137044938Y-110060002D01*
X137065121Y-110239138D01*
X137124665Y-110409304D01*
X137133338Y-110423107D01*
X137496446Y-110060000D01*
X137496446Y-110059999D01*
X137476556Y-110040109D01*
X137750000Y-110040109D01*
X137750000Y-110079891D01*
X137765224Y-110116645D01*
X137793355Y-110144776D01*
X137830109Y-110160000D01*
X137869891Y-110160000D01*
X137906645Y-110144776D01*
X137934776Y-110116645D01*
X137950000Y-110079891D01*
X137950000Y-110059999D01*
X138203553Y-110059999D01*
X138550000Y-110406446D01*
X138896446Y-110060000D01*
X138876555Y-110040109D01*
X139150000Y-110040109D01*
X139150000Y-110079891D01*
X139165224Y-110116645D01*
X139193355Y-110144776D01*
X139230109Y-110160000D01*
X139269891Y-110160000D01*
X139306645Y-110144776D01*
X139334776Y-110116645D01*
X139350000Y-110079891D01*
X139350000Y-110059999D01*
X139603553Y-110059999D01*
X139950000Y-110406446D01*
X140296446Y-110060000D01*
X140276555Y-110040109D01*
X140550000Y-110040109D01*
X140550000Y-110079891D01*
X140565224Y-110116645D01*
X140593355Y-110144776D01*
X140630109Y-110160000D01*
X140669891Y-110160000D01*
X140706645Y-110144776D01*
X140734776Y-110116645D01*
X140750000Y-110079891D01*
X140750000Y-110060000D01*
X141003552Y-110060000D01*
X141366660Y-110423106D01*
X141366661Y-110423106D01*
X141375334Y-110409306D01*
X141375334Y-110409305D01*
X141434877Y-110239141D01*
X141434878Y-110239138D01*
X141455062Y-110060002D01*
X141455062Y-110059997D01*
X141434878Y-109880861D01*
X141375333Y-109710692D01*
X141366661Y-109696892D01*
X141366660Y-109696892D01*
X141003552Y-110060000D01*
X140750000Y-110060000D01*
X140750000Y-110040109D01*
X140734776Y-110003355D01*
X140706645Y-109975224D01*
X140669891Y-109960000D01*
X140630109Y-109960000D01*
X140593355Y-109975224D01*
X140565224Y-110003355D01*
X140550000Y-110040109D01*
X140276555Y-110040109D01*
X140015760Y-109779314D01*
X139950000Y-109713553D01*
X139884240Y-109779314D01*
X139884239Y-109779314D01*
X139603553Y-110059999D01*
X139350000Y-110059999D01*
X139350000Y-110040109D01*
X139334776Y-110003355D01*
X139306645Y-109975224D01*
X139269891Y-109960000D01*
X139230109Y-109960000D01*
X139193355Y-109975224D01*
X139165224Y-110003355D01*
X139150000Y-110040109D01*
X138876555Y-110040109D01*
X138615760Y-109779314D01*
X138550000Y-109713553D01*
X138484240Y-109779314D01*
X138484239Y-109779314D01*
X138203553Y-110059999D01*
X137950000Y-110059999D01*
X137950000Y-110040109D01*
X137934776Y-110003355D01*
X137906645Y-109975224D01*
X137869891Y-109960000D01*
X137830109Y-109960000D01*
X137793355Y-109975224D01*
X137765224Y-110003355D01*
X137750000Y-110040109D01*
X137476556Y-110040109D01*
X137133338Y-109696891D01*
X137133337Y-109696891D01*
X137124667Y-109710691D01*
X137124662Y-109710701D01*
X137065122Y-109880858D01*
X137065121Y-109880861D01*
X137044938Y-110059997D01*
X115500500Y-110059997D01*
X115500500Y-109359999D01*
X137503553Y-109359999D01*
X137503553Y-109360001D01*
X137849998Y-109706446D01*
X137849999Y-109706446D01*
X138125869Y-109430577D01*
X138196446Y-109360000D01*
X138166609Y-109330163D01*
X138400000Y-109330163D01*
X138400000Y-109389837D01*
X138422836Y-109444968D01*
X138465032Y-109487164D01*
X138520163Y-109510000D01*
X138579837Y-109510000D01*
X138634968Y-109487164D01*
X138677164Y-109444968D01*
X138700000Y-109389837D01*
X138700000Y-109359999D01*
X138903553Y-109359999D01*
X139250000Y-109706446D01*
X139596446Y-109360000D01*
X139576555Y-109340109D01*
X139850000Y-109340109D01*
X139850000Y-109379891D01*
X139865224Y-109416645D01*
X139893355Y-109444776D01*
X139930109Y-109460000D01*
X139969891Y-109460000D01*
X140006645Y-109444776D01*
X140034776Y-109416645D01*
X140050000Y-109379891D01*
X140050000Y-109359999D01*
X140303553Y-109359999D01*
X140650000Y-109706446D01*
X140996446Y-109360000D01*
X140996446Y-109359999D01*
X140650000Y-109013553D01*
X140584240Y-109079314D01*
X140584239Y-109079314D01*
X140303553Y-109359999D01*
X140050000Y-109359999D01*
X140050000Y-109340109D01*
X140034776Y-109303355D01*
X140006645Y-109275224D01*
X139969891Y-109260000D01*
X139930109Y-109260000D01*
X139893355Y-109275224D01*
X139865224Y-109303355D01*
X139850000Y-109340109D01*
X139576555Y-109340109D01*
X139315760Y-109079314D01*
X139250000Y-109013553D01*
X139184240Y-109079314D01*
X139184239Y-109079314D01*
X138903553Y-109359999D01*
X138700000Y-109359999D01*
X138700000Y-109330163D01*
X138677164Y-109275032D01*
X138634968Y-109232836D01*
X138579837Y-109210000D01*
X138520163Y-109210000D01*
X138465032Y-109232836D01*
X138422836Y-109275032D01*
X138400000Y-109330163D01*
X138166609Y-109330163D01*
X137849999Y-109013553D01*
X137849998Y-109013553D01*
X137503553Y-109359999D01*
X115500500Y-109359999D01*
X115500500Y-108659997D01*
X137044938Y-108659997D01*
X137044938Y-108660002D01*
X137065121Y-108839138D01*
X137124665Y-109009304D01*
X137133338Y-109023107D01*
X137496446Y-108660000D01*
X137496446Y-108659999D01*
X137466610Y-108630163D01*
X137700000Y-108630163D01*
X137700000Y-108689837D01*
X137722836Y-108744968D01*
X137765032Y-108787164D01*
X137820163Y-108810000D01*
X137879837Y-108810000D01*
X137934968Y-108787164D01*
X137977164Y-108744968D01*
X138000000Y-108689837D01*
X138000000Y-108659999D01*
X138203553Y-108659999D01*
X138550000Y-109006446D01*
X138896446Y-108660000D01*
X138876555Y-108640109D01*
X139150000Y-108640109D01*
X139150000Y-108679891D01*
X139165224Y-108716645D01*
X139193355Y-108744776D01*
X139230109Y-108760000D01*
X139269891Y-108760000D01*
X139306645Y-108744776D01*
X139334776Y-108716645D01*
X139350000Y-108679891D01*
X139350000Y-108659999D01*
X139603553Y-108659999D01*
X139950000Y-109006446D01*
X140296446Y-108660000D01*
X140276555Y-108640109D01*
X140550000Y-108640109D01*
X140550000Y-108679891D01*
X140565224Y-108716645D01*
X140593355Y-108744776D01*
X140630109Y-108760000D01*
X140669891Y-108760000D01*
X140706645Y-108744776D01*
X140734776Y-108716645D01*
X140750000Y-108679891D01*
X140750000Y-108660000D01*
X141003552Y-108660000D01*
X141366660Y-109023106D01*
X141366661Y-109023106D01*
X141375334Y-109009306D01*
X141375334Y-109009305D01*
X141434877Y-108839141D01*
X141434878Y-108839138D01*
X141455062Y-108660002D01*
X141455062Y-108659997D01*
X141434878Y-108480861D01*
X141375333Y-108310692D01*
X141366661Y-108296892D01*
X141366660Y-108296892D01*
X141003552Y-108660000D01*
X140750000Y-108660000D01*
X140750000Y-108640109D01*
X140734776Y-108603355D01*
X140706645Y-108575224D01*
X140669891Y-108560000D01*
X140630109Y-108560000D01*
X140593355Y-108575224D01*
X140565224Y-108603355D01*
X140550000Y-108640109D01*
X140276555Y-108640109D01*
X140015760Y-108379314D01*
X139950000Y-108313553D01*
X139884240Y-108379314D01*
X139884239Y-108379314D01*
X139603553Y-108659999D01*
X139350000Y-108659999D01*
X139350000Y-108640109D01*
X139334776Y-108603355D01*
X139306645Y-108575224D01*
X139269891Y-108560000D01*
X139230109Y-108560000D01*
X139193355Y-108575224D01*
X139165224Y-108603355D01*
X139150000Y-108640109D01*
X138876555Y-108640109D01*
X138615760Y-108379314D01*
X138550000Y-108313553D01*
X138484240Y-108379314D01*
X138484239Y-108379314D01*
X138203553Y-108659999D01*
X138000000Y-108659999D01*
X138000000Y-108630163D01*
X137977164Y-108575032D01*
X137934968Y-108532836D01*
X137879837Y-108510000D01*
X137820163Y-108510000D01*
X137765032Y-108532836D01*
X137722836Y-108575032D01*
X137700000Y-108630163D01*
X137466610Y-108630163D01*
X137133338Y-108296891D01*
X137133337Y-108296891D01*
X137124667Y-108310691D01*
X137124662Y-108310701D01*
X137065122Y-108480858D01*
X137065121Y-108480861D01*
X137044938Y-108659997D01*
X115500500Y-108659997D01*
X115500500Y-107943337D01*
X137486891Y-107943337D01*
X137486891Y-107943338D01*
X137849998Y-108306446D01*
X137849999Y-108306446D01*
X138125868Y-108030577D01*
X138196446Y-107959998D01*
X138166611Y-107930163D01*
X138400000Y-107930163D01*
X138400000Y-107989837D01*
X138422836Y-108044968D01*
X138465032Y-108087164D01*
X138520163Y-108110000D01*
X138579837Y-108110000D01*
X138634968Y-108087164D01*
X138677164Y-108044968D01*
X138700000Y-107989837D01*
X138700000Y-107959998D01*
X138903553Y-107959998D01*
X138903553Y-107959999D01*
X139250000Y-108306446D01*
X139525870Y-108030577D01*
X139596446Y-107959999D01*
X139596446Y-107959998D01*
X139576557Y-107940109D01*
X139850000Y-107940109D01*
X139850000Y-107979891D01*
X139865224Y-108016645D01*
X139893355Y-108044776D01*
X139930109Y-108060000D01*
X139969891Y-108060000D01*
X140006645Y-108044776D01*
X140034776Y-108016645D01*
X140050000Y-107979891D01*
X140050000Y-107959998D01*
X140303553Y-107959998D01*
X140303553Y-107959999D01*
X140650000Y-108306446D01*
X140650001Y-108306446D01*
X141013107Y-107943338D01*
X140999301Y-107934663D01*
X140829142Y-107875121D01*
X140828346Y-107874940D01*
X140827883Y-107874681D01*
X140822570Y-107872822D01*
X140822895Y-107871890D01*
X140767370Y-107840827D01*
X140738049Y-107787125D01*
X140737177Y-107787431D01*
X140735321Y-107782128D01*
X140735057Y-107781644D01*
X140734878Y-107780862D01*
X140675333Y-107610692D01*
X140666661Y-107596892D01*
X140666660Y-107596892D01*
X140303553Y-107959998D01*
X140050000Y-107959998D01*
X140050000Y-107940109D01*
X140034776Y-107903355D01*
X140006645Y-107875224D01*
X139969891Y-107860000D01*
X139930109Y-107860000D01*
X139893355Y-107875224D01*
X139865224Y-107903355D01*
X139850000Y-107940109D01*
X139576557Y-107940109D01*
X139250001Y-107613553D01*
X139250000Y-107613553D01*
X138903553Y-107959998D01*
X138700000Y-107959998D01*
X138700000Y-107930163D01*
X138677164Y-107875032D01*
X138634968Y-107832836D01*
X138579837Y-107810000D01*
X138520163Y-107810000D01*
X138465032Y-107832836D01*
X138422836Y-107875032D01*
X138400000Y-107930163D01*
X138166611Y-107930163D01*
X137833338Y-107596891D01*
X137833337Y-107596891D01*
X137824667Y-107610691D01*
X137824662Y-107610701D01*
X137765119Y-107780866D01*
X137764939Y-107781656D01*
X137764682Y-107782113D01*
X137762823Y-107787429D01*
X137761891Y-107787103D01*
X137730824Y-107842631D01*
X137677124Y-107871952D01*
X137677429Y-107872823D01*
X137672145Y-107874671D01*
X137671656Y-107874939D01*
X137670866Y-107875119D01*
X137500701Y-107934662D01*
X137500691Y-107934667D01*
X137486891Y-107943337D01*
X115500500Y-107943337D01*
X115500500Y-107243337D01*
X138186891Y-107243337D01*
X138186891Y-107243338D01*
X138550000Y-107606446D01*
X138550001Y-107606446D01*
X138913107Y-107243338D01*
X138913105Y-107243337D01*
X139586891Y-107243337D01*
X139586891Y-107243338D01*
X139950000Y-107606446D01*
X139950001Y-107606446D01*
X140313107Y-107243338D01*
X140299304Y-107234665D01*
X140129138Y-107175121D01*
X139950003Y-107154938D01*
X139949997Y-107154938D01*
X139770861Y-107175121D01*
X139770858Y-107175122D01*
X139600701Y-107234662D01*
X139600691Y-107234667D01*
X139586891Y-107243337D01*
X138913105Y-107243337D01*
X138899304Y-107234665D01*
X138729138Y-107175121D01*
X138550003Y-107154938D01*
X138549997Y-107154938D01*
X138370861Y-107175121D01*
X138370858Y-107175122D01*
X138200701Y-107234662D01*
X138200691Y-107234667D01*
X138186891Y-107243337D01*
X115500500Y-107243337D01*
X115500500Y-104999996D01*
X123694435Y-104999996D01*
X123694435Y-105000003D01*
X123714630Y-105179249D01*
X123714631Y-105179254D01*
X123774211Y-105349523D01*
X123838171Y-105451314D01*
X123870184Y-105502262D01*
X123997738Y-105629816D01*
X124150478Y-105725789D01*
X124320745Y-105785368D01*
X124320750Y-105785369D01*
X124499996Y-105805565D01*
X124500000Y-105805565D01*
X124500004Y-105805565D01*
X124679249Y-105785369D01*
X124679252Y-105785368D01*
X124679255Y-105785368D01*
X124849522Y-105725789D01*
X125002262Y-105629816D01*
X125031759Y-105600319D01*
X125093082Y-105566834D01*
X125119440Y-105564000D01*
X131254251Y-105564000D01*
X131254253Y-105564000D01*
X131397696Y-105525565D01*
X131526304Y-105451313D01*
X131631313Y-105346304D01*
X131631313Y-105346302D01*
X131641517Y-105336099D01*
X131641521Y-105336094D01*
X131960361Y-105017253D01*
X132021682Y-104983770D01*
X132034148Y-104981717D01*
X132109077Y-104973275D01*
X132179250Y-104965369D01*
X132179253Y-104965368D01*
X132179255Y-104965368D01*
X132349522Y-104905789D01*
X132502262Y-104809816D01*
X132629816Y-104682262D01*
X132725789Y-104529522D01*
X132785368Y-104359255D01*
X132801663Y-104214631D01*
X132805565Y-104180003D01*
X132805565Y-104179996D01*
X132785369Y-104000750D01*
X132785368Y-104000745D01*
X132725789Y-103830478D01*
X132629816Y-103677738D01*
X132502262Y-103550184D01*
X132349523Y-103454211D01*
X132179254Y-103394631D01*
X132179249Y-103394630D01*
X132066279Y-103381902D01*
X154249500Y-103381902D01*
X154249500Y-103618097D01*
X154286446Y-103851368D01*
X154359433Y-104075996D01*
X154436635Y-104227512D01*
X154466657Y-104286433D01*
X154605483Y-104477510D01*
X154772490Y-104644517D01*
X154963567Y-104783343D01*
X155062991Y-104834002D01*
X155174003Y-104890566D01*
X155174005Y-104890566D01*
X155174008Y-104890568D01*
X155294412Y-104929689D01*
X155398631Y-104963553D01*
X155631903Y-105000500D01*
X155631908Y-105000500D01*
X155868097Y-105000500D01*
X156101368Y-104963553D01*
X156325992Y-104890568D01*
X156536433Y-104783343D01*
X156727510Y-104644517D01*
X156894517Y-104477510D01*
X157033343Y-104286433D01*
X157140568Y-104075992D01*
X157213553Y-103851368D01*
X157216862Y-103830476D01*
X157250500Y-103618097D01*
X157250500Y-103381902D01*
X157213553Y-103148631D01*
X157164045Y-102996263D01*
X157140568Y-102924008D01*
X157140566Y-102924005D01*
X157140566Y-102924003D01*
X157033342Y-102713566D01*
X157017194Y-102691340D01*
X156894517Y-102522490D01*
X156727510Y-102355483D01*
X156536433Y-102216657D01*
X156325996Y-102109433D01*
X156101368Y-102036446D01*
X155868097Y-101999500D01*
X155868092Y-101999500D01*
X155631908Y-101999500D01*
X155631903Y-101999500D01*
X155398631Y-102036446D01*
X155174003Y-102109433D01*
X154963566Y-102216657D01*
X154854550Y-102295862D01*
X154772490Y-102355483D01*
X154772488Y-102355485D01*
X154772487Y-102355485D01*
X154605485Y-102522487D01*
X154605485Y-102522488D01*
X154605483Y-102522490D01*
X154545862Y-102604550D01*
X154466657Y-102713566D01*
X154359433Y-102924003D01*
X154286446Y-103148631D01*
X154249500Y-103381902D01*
X132066279Y-103381902D01*
X132000004Y-103374435D01*
X131999996Y-103374435D01*
X131820750Y-103394630D01*
X131820745Y-103394631D01*
X131650476Y-103454211D01*
X131497737Y-103550184D01*
X131370184Y-103677737D01*
X131274211Y-103830476D01*
X131214631Y-104000745D01*
X131214630Y-104000749D01*
X131198282Y-104145842D01*
X131171215Y-104210256D01*
X131162744Y-104219639D01*
X130982701Y-104399682D01*
X130921381Y-104433166D01*
X130895022Y-104436000D01*
X125119440Y-104436000D01*
X125052401Y-104416315D01*
X125031759Y-104399681D01*
X125002262Y-104370184D01*
X124849523Y-104274211D01*
X124679254Y-104214631D01*
X124679249Y-104214630D01*
X124500004Y-104194435D01*
X124499996Y-104194435D01*
X124320750Y-104214630D01*
X124320745Y-104214631D01*
X124150476Y-104274211D01*
X123997737Y-104370184D01*
X123870184Y-104497737D01*
X123774211Y-104650476D01*
X123714631Y-104820745D01*
X123714630Y-104820750D01*
X123694435Y-104999996D01*
X115500500Y-104999996D01*
X115500500Y-103131902D01*
X116749500Y-103131902D01*
X116749500Y-103368097D01*
X116786446Y-103601368D01*
X116859433Y-103825996D01*
X116966657Y-104036433D01*
X117105483Y-104227510D01*
X117272490Y-104394517D01*
X117463567Y-104533343D01*
X117562991Y-104584002D01*
X117674003Y-104640566D01*
X117674005Y-104640566D01*
X117674008Y-104640568D01*
X117794412Y-104679689D01*
X117898631Y-104713553D01*
X118131903Y-104750500D01*
X118131908Y-104750500D01*
X118368097Y-104750500D01*
X118601368Y-104713553D01*
X118697671Y-104682262D01*
X118825992Y-104640568D01*
X119036433Y-104533343D01*
X119227510Y-104394517D01*
X119394517Y-104227510D01*
X119533343Y-104036433D01*
X119640568Y-103825992D01*
X119713553Y-103601368D01*
X119721660Y-103550184D01*
X119750500Y-103368097D01*
X119750500Y-103131902D01*
X119713553Y-102898631D01*
X119679689Y-102794412D01*
X119640568Y-102674008D01*
X119640566Y-102674005D01*
X119640566Y-102674003D01*
X119563364Y-102522487D01*
X119533343Y-102463567D01*
X119394517Y-102272490D01*
X119227510Y-102105483D01*
X119036433Y-101966657D01*
X118825996Y-101859433D01*
X118601368Y-101786446D01*
X118368097Y-101749500D01*
X118368092Y-101749500D01*
X118131908Y-101749500D01*
X118131903Y-101749500D01*
X117898631Y-101786446D01*
X117674003Y-101859433D01*
X117463566Y-101966657D01*
X117354550Y-102045862D01*
X117272490Y-102105483D01*
X117272488Y-102105485D01*
X117272487Y-102105485D01*
X117105485Y-102272487D01*
X117105485Y-102272488D01*
X117105483Y-102272490D01*
X117045862Y-102354550D01*
X116966657Y-102463566D01*
X116859433Y-102674003D01*
X116786446Y-102898631D01*
X116749500Y-103131902D01*
X115500500Y-103131902D01*
X115500500Y-103003750D01*
X115500726Y-102996263D01*
X115505097Y-102924003D01*
X115518271Y-102706201D01*
X115520076Y-102691340D01*
X115551020Y-102522488D01*
X115571780Y-102409197D01*
X115575364Y-102394663D01*
X115660696Y-102120822D01*
X115665998Y-102106841D01*
X115783731Y-101845249D01*
X115790676Y-101832016D01*
X115939080Y-101586526D01*
X115947567Y-101574230D01*
X116124480Y-101348417D01*
X116134395Y-101337226D01*
X116337226Y-101134395D01*
X116348417Y-101124480D01*
X116574230Y-100947567D01*
X116586526Y-100939080D01*
X116832016Y-100790676D01*
X116845249Y-100783731D01*
X117106841Y-100665998D01*
X117120822Y-100660696D01*
X117394668Y-100575362D01*
X117409197Y-100571780D01*
X117691344Y-100520075D01*
X117706201Y-100518271D01*
X117996264Y-100500726D01*
X118003751Y-100500500D01*
X118065892Y-100500500D01*
X119934108Y-100500500D01*
X156184108Y-100500500D01*
X156246249Y-100500500D01*
X156253736Y-100500726D01*
G37*
G04 #@! TD.AperFunction*
M02*
