G04 #@! TF.GenerationSoftware,KiCad,Pcbnew,8.0.5*
G04 #@! TF.CreationDate,2024-11-29T11:32:06+09:00*
G04 #@! TF.ProjectId,esp32_primary_board_v2,65737033-325f-4707-9269-6d6172795f62,rev?*
G04 #@! TF.SameCoordinates,Original*
G04 #@! TF.FileFunction,Soldermask,Top*
G04 #@! TF.FilePolarity,Negative*
%FSLAX46Y46*%
G04 Gerber Fmt 4.6, Leading zero omitted, Abs format (unit mm)*
G04 Created by KiCad (PCBNEW 8.0.5) date 2024-11-29 11:32:06*
%MOMM*%
%LPD*%
G01*
G04 APERTURE LIST*
G04 APERTURE END LIST*
G36*
X134988002Y-138802722D02*
G01*
X134997050Y-138802722D01*
X135023115Y-138809706D01*
X135085150Y-138822045D01*
X135114433Y-138834174D01*
X135136241Y-138840018D01*
X135155794Y-138851307D01*
X135185078Y-138863437D01*
X135237679Y-138898583D01*
X135261036Y-138912069D01*
X135267428Y-138918461D01*
X135274996Y-138923518D01*
X135351481Y-139000003D01*
X135356537Y-139007570D01*
X135362931Y-139013964D01*
X135376418Y-139037324D01*
X135411562Y-139089921D01*
X135423690Y-139119202D01*
X135434982Y-139138759D01*
X135440826Y-139160570D01*
X135452954Y-139189849D01*
X135465292Y-139251880D01*
X135472278Y-139277950D01*
X135473162Y-139291444D01*
X135474342Y-139297375D01*
X135476709Y-139345574D01*
X135477000Y-139350000D01*
X135477000Y-140150000D01*
X135476709Y-140154428D01*
X135474342Y-140202624D01*
X135473162Y-140208553D01*
X135472278Y-140222050D01*
X135465291Y-140248122D01*
X135452954Y-140310150D01*
X135440827Y-140339426D01*
X135434982Y-140361241D01*
X135423689Y-140380800D01*
X135411562Y-140410078D01*
X135376422Y-140462668D01*
X135362931Y-140486036D01*
X135356535Y-140492431D01*
X135351481Y-140499996D01*
X135274996Y-140576481D01*
X135267431Y-140581535D01*
X135261036Y-140587931D01*
X135237668Y-140601422D01*
X135185078Y-140636562D01*
X135155800Y-140648689D01*
X135136241Y-140659982D01*
X135114426Y-140665827D01*
X135085150Y-140677954D01*
X135023121Y-140690292D01*
X134997050Y-140697278D01*
X134988002Y-140697278D01*
X134979078Y-140699053D01*
X134870922Y-140699053D01*
X134861998Y-140697278D01*
X134852950Y-140697278D01*
X134826880Y-140690292D01*
X134764849Y-140677954D01*
X134735570Y-140665826D01*
X134713759Y-140659982D01*
X134694202Y-140648690D01*
X134664921Y-140636562D01*
X134612324Y-140601418D01*
X134588964Y-140587931D01*
X134582570Y-140581537D01*
X134575003Y-140576481D01*
X134498518Y-140499996D01*
X134493461Y-140492428D01*
X134487069Y-140486036D01*
X134473583Y-140462679D01*
X134438437Y-140410078D01*
X134426307Y-140380794D01*
X134415018Y-140361241D01*
X134409174Y-140339433D01*
X134397045Y-140310150D01*
X134384704Y-140248108D01*
X134377722Y-140222050D01*
X134376837Y-140208561D01*
X134375657Y-140202624D01*
X134373289Y-140154421D01*
X134373000Y-140150000D01*
X134373000Y-139350000D01*
X134373289Y-139345581D01*
X134375657Y-139297375D01*
X134376838Y-139291437D01*
X134377722Y-139277950D01*
X134384703Y-139251894D01*
X134397045Y-139189849D01*
X134409175Y-139160563D01*
X134415018Y-139138759D01*
X134426305Y-139119208D01*
X134438437Y-139089921D01*
X134473588Y-139037313D01*
X134487069Y-139013964D01*
X134493459Y-139007573D01*
X134498518Y-139000003D01*
X134575003Y-138923518D01*
X134582573Y-138918459D01*
X134588964Y-138912069D01*
X134612313Y-138898588D01*
X134664921Y-138863437D01*
X134694208Y-138851305D01*
X134713759Y-138840018D01*
X134735563Y-138834175D01*
X134764849Y-138822045D01*
X134826886Y-138809705D01*
X134852950Y-138802722D01*
X134861998Y-138802722D01*
X134870922Y-138800947D01*
X134979078Y-138800947D01*
X134988002Y-138802722D01*
G37*
G36*
X143638002Y-138802722D02*
G01*
X143647050Y-138802722D01*
X143673115Y-138809706D01*
X143735150Y-138822045D01*
X143764433Y-138834174D01*
X143786241Y-138840018D01*
X143805794Y-138851307D01*
X143835078Y-138863437D01*
X143887679Y-138898583D01*
X143911036Y-138912069D01*
X143917428Y-138918461D01*
X143924996Y-138923518D01*
X144001481Y-139000003D01*
X144006537Y-139007570D01*
X144012931Y-139013964D01*
X144026418Y-139037324D01*
X144061562Y-139089921D01*
X144073690Y-139119202D01*
X144084982Y-139138759D01*
X144090826Y-139160570D01*
X144102954Y-139189849D01*
X144115292Y-139251880D01*
X144122278Y-139277950D01*
X144123162Y-139291444D01*
X144124342Y-139297375D01*
X144126709Y-139345574D01*
X144127000Y-139350000D01*
X144127000Y-140150000D01*
X144126709Y-140154428D01*
X144124342Y-140202624D01*
X144123162Y-140208553D01*
X144122278Y-140222050D01*
X144115291Y-140248122D01*
X144102954Y-140310150D01*
X144090827Y-140339426D01*
X144084982Y-140361241D01*
X144073689Y-140380800D01*
X144061562Y-140410078D01*
X144026422Y-140462668D01*
X144012931Y-140486036D01*
X144006535Y-140492431D01*
X144001481Y-140499996D01*
X143924996Y-140576481D01*
X143917431Y-140581535D01*
X143911036Y-140587931D01*
X143887668Y-140601422D01*
X143835078Y-140636562D01*
X143805800Y-140648689D01*
X143786241Y-140659982D01*
X143764426Y-140665827D01*
X143735150Y-140677954D01*
X143673121Y-140690292D01*
X143647050Y-140697278D01*
X143638002Y-140697278D01*
X143629078Y-140699053D01*
X143520922Y-140699053D01*
X143511998Y-140697278D01*
X143502950Y-140697278D01*
X143476880Y-140690292D01*
X143414849Y-140677954D01*
X143385570Y-140665826D01*
X143363759Y-140659982D01*
X143344202Y-140648690D01*
X143314921Y-140636562D01*
X143262324Y-140601418D01*
X143238964Y-140587931D01*
X143232570Y-140581537D01*
X143225003Y-140576481D01*
X143148518Y-140499996D01*
X143143461Y-140492428D01*
X143137069Y-140486036D01*
X143123583Y-140462679D01*
X143088437Y-140410078D01*
X143076307Y-140380794D01*
X143065018Y-140361241D01*
X143059174Y-140339433D01*
X143047045Y-140310150D01*
X143034704Y-140248108D01*
X143027722Y-140222050D01*
X143026837Y-140208561D01*
X143025657Y-140202624D01*
X143023289Y-140154421D01*
X143023000Y-140150000D01*
X143023000Y-139350000D01*
X143023289Y-139345581D01*
X143025657Y-139297375D01*
X143026838Y-139291437D01*
X143027722Y-139277950D01*
X143034703Y-139251894D01*
X143047045Y-139189849D01*
X143059175Y-139160563D01*
X143065018Y-139138759D01*
X143076305Y-139119208D01*
X143088437Y-139089921D01*
X143123588Y-139037313D01*
X143137069Y-139013964D01*
X143143459Y-139007573D01*
X143148518Y-139000003D01*
X143225003Y-138923518D01*
X143232573Y-138918459D01*
X143238964Y-138912069D01*
X143262313Y-138898588D01*
X143314921Y-138863437D01*
X143344208Y-138851305D01*
X143363759Y-138840018D01*
X143385563Y-138834175D01*
X143414849Y-138822045D01*
X143476886Y-138809705D01*
X143502950Y-138802722D01*
X143511998Y-138802722D01*
X143520922Y-138800947D01*
X143629078Y-138800947D01*
X143638002Y-138802722D01*
G37*
G36*
X118717060Y-137518990D02*
G01*
X118927525Y-137575384D01*
X119125000Y-137667468D01*
X119303485Y-137792444D01*
X119457556Y-137946515D01*
X119582532Y-138125000D01*
X119674616Y-138322475D01*
X119731010Y-138532940D01*
X119750000Y-138750000D01*
X119731010Y-138967060D01*
X119674616Y-139177525D01*
X119582532Y-139375000D01*
X119457556Y-139553485D01*
X119303485Y-139707556D01*
X119125000Y-139832532D01*
X118927525Y-139924616D01*
X118717060Y-139981010D01*
X118500000Y-140000000D01*
X118282940Y-139981010D01*
X118072475Y-139924616D01*
X117875000Y-139832532D01*
X117696515Y-139707556D01*
X117542444Y-139553485D01*
X117417468Y-139375000D01*
X117325384Y-139177525D01*
X117268990Y-138967060D01*
X117250000Y-138750000D01*
X117268990Y-138532940D01*
X117325384Y-138322475D01*
X117417468Y-138125000D01*
X117542444Y-137946515D01*
X117696515Y-137792444D01*
X117875000Y-137667468D01*
X118072475Y-137575384D01*
X118282940Y-137518990D01*
X118500000Y-137500000D01*
X118717060Y-137518990D01*
G37*
G36*
X156467060Y-137518990D02*
G01*
X156677525Y-137575384D01*
X156875000Y-137667468D01*
X157053485Y-137792444D01*
X157207556Y-137946515D01*
X157332532Y-138125000D01*
X157424616Y-138322475D01*
X157481010Y-138532940D01*
X157500000Y-138750000D01*
X157481010Y-138967060D01*
X157424616Y-139177525D01*
X157332532Y-139375000D01*
X157207556Y-139553485D01*
X157053485Y-139707556D01*
X156875000Y-139832532D01*
X156677525Y-139924616D01*
X156467060Y-139981010D01*
X156250000Y-140000000D01*
X156032940Y-139981010D01*
X155822475Y-139924616D01*
X155625000Y-139832532D01*
X155446515Y-139707556D01*
X155292444Y-139553485D01*
X155167468Y-139375000D01*
X155075384Y-139177525D01*
X155018990Y-138967060D01*
X155000000Y-138750000D01*
X155018990Y-138532940D01*
X155075384Y-138322475D01*
X155167468Y-138125000D01*
X155292444Y-137946515D01*
X155446515Y-137792444D01*
X155625000Y-137667468D01*
X155822475Y-137575384D01*
X156032940Y-137518990D01*
X156250000Y-137500000D01*
X156467060Y-137518990D01*
G37*
G36*
X126454850Y-137900964D02*
G01*
X126505040Y-137906787D01*
X126522189Y-137914359D01*
X126545671Y-137919030D01*
X126570810Y-137935827D01*
X126590696Y-137944608D01*
X126604277Y-137958189D01*
X126626777Y-137973223D01*
X126641810Y-137995722D01*
X126655391Y-138009303D01*
X126664170Y-138029186D01*
X126680970Y-138054329D01*
X126685641Y-138077812D01*
X126693212Y-138094959D01*
X126699033Y-138145139D01*
X126700000Y-138150000D01*
X126700000Y-138850000D01*
X126699032Y-138854863D01*
X126693212Y-138905040D01*
X126685641Y-138922185D01*
X126680970Y-138945671D01*
X126664169Y-138970815D01*
X126655391Y-138990696D01*
X126641812Y-139004274D01*
X126626777Y-139026777D01*
X126604274Y-139041812D01*
X126590696Y-139055391D01*
X126570815Y-139064169D01*
X126545671Y-139080970D01*
X126522185Y-139085641D01*
X126505040Y-139093212D01*
X126454861Y-139099032D01*
X126450000Y-139100000D01*
X125550000Y-139100000D01*
X125545138Y-139099032D01*
X125494959Y-139093212D01*
X125477812Y-139085641D01*
X125454329Y-139080970D01*
X125429186Y-139064170D01*
X125409303Y-139055391D01*
X125395722Y-139041810D01*
X125373223Y-139026777D01*
X125358189Y-139004277D01*
X125344608Y-138990696D01*
X125335827Y-138970810D01*
X125319030Y-138945671D01*
X125314359Y-138922189D01*
X125306787Y-138905040D01*
X125300964Y-138854849D01*
X125300000Y-138850000D01*
X125300000Y-138150000D01*
X125300964Y-138145150D01*
X125306787Y-138094959D01*
X125314359Y-138077808D01*
X125319030Y-138054329D01*
X125335826Y-138029191D01*
X125344608Y-138009303D01*
X125358191Y-137995719D01*
X125373223Y-137973223D01*
X125395719Y-137958191D01*
X125409303Y-137944608D01*
X125429191Y-137935826D01*
X125454329Y-137919030D01*
X125477808Y-137914359D01*
X125494959Y-137906787D01*
X125545151Y-137900964D01*
X125550000Y-137900000D01*
X126450000Y-137900000D01*
X126454850Y-137900964D01*
G37*
G36*
X130704850Y-137900964D02*
G01*
X130755040Y-137906787D01*
X130772189Y-137914359D01*
X130795671Y-137919030D01*
X130820810Y-137935827D01*
X130840696Y-137944608D01*
X130854277Y-137958189D01*
X130876777Y-137973223D01*
X130891810Y-137995722D01*
X130905391Y-138009303D01*
X130914170Y-138029186D01*
X130930970Y-138054329D01*
X130935641Y-138077812D01*
X130943212Y-138094959D01*
X130949033Y-138145139D01*
X130950000Y-138150000D01*
X130950000Y-138850000D01*
X130949032Y-138854863D01*
X130943212Y-138905040D01*
X130935641Y-138922185D01*
X130930970Y-138945671D01*
X130914169Y-138970815D01*
X130905391Y-138990696D01*
X130891812Y-139004274D01*
X130876777Y-139026777D01*
X130854274Y-139041812D01*
X130840696Y-139055391D01*
X130820815Y-139064169D01*
X130795671Y-139080970D01*
X130772185Y-139085641D01*
X130755040Y-139093212D01*
X130704861Y-139099032D01*
X130700000Y-139100000D01*
X129800000Y-139100000D01*
X129795138Y-139099032D01*
X129744959Y-139093212D01*
X129727812Y-139085641D01*
X129704329Y-139080970D01*
X129679186Y-139064170D01*
X129659303Y-139055391D01*
X129645722Y-139041810D01*
X129623223Y-139026777D01*
X129608189Y-139004277D01*
X129594608Y-138990696D01*
X129585827Y-138970810D01*
X129569030Y-138945671D01*
X129564359Y-138922189D01*
X129556787Y-138905040D01*
X129550964Y-138854849D01*
X129550000Y-138850000D01*
X129550000Y-138150000D01*
X129550964Y-138145150D01*
X129556787Y-138094959D01*
X129564359Y-138077808D01*
X129569030Y-138054329D01*
X129585826Y-138029191D01*
X129594608Y-138009303D01*
X129608191Y-137995719D01*
X129623223Y-137973223D01*
X129645719Y-137958191D01*
X129659303Y-137944608D01*
X129679191Y-137935826D01*
X129704329Y-137919030D01*
X129727808Y-137914359D01*
X129744959Y-137906787D01*
X129795151Y-137900964D01*
X129800000Y-137900000D01*
X130700000Y-137900000D01*
X130704850Y-137900964D01*
G37*
G36*
X134988002Y-135072722D02*
G01*
X134997050Y-135072722D01*
X135023115Y-135079706D01*
X135085150Y-135092045D01*
X135114433Y-135104174D01*
X135136241Y-135110018D01*
X135155794Y-135121307D01*
X135185078Y-135133437D01*
X135237679Y-135168583D01*
X135261036Y-135182069D01*
X135267428Y-135188461D01*
X135274996Y-135193518D01*
X135351481Y-135270003D01*
X135356537Y-135277570D01*
X135362931Y-135283964D01*
X135376418Y-135307324D01*
X135411562Y-135359921D01*
X135423690Y-135389202D01*
X135434982Y-135408759D01*
X135440826Y-135430570D01*
X135452954Y-135459849D01*
X135465292Y-135521880D01*
X135472278Y-135547950D01*
X135473162Y-135561444D01*
X135474342Y-135567375D01*
X135476709Y-135615574D01*
X135477000Y-135620000D01*
X135477000Y-137120000D01*
X135476709Y-137124428D01*
X135474342Y-137172624D01*
X135473162Y-137178553D01*
X135472278Y-137192050D01*
X135465291Y-137218122D01*
X135452954Y-137280150D01*
X135440827Y-137309426D01*
X135434982Y-137331241D01*
X135423689Y-137350800D01*
X135411562Y-137380078D01*
X135376422Y-137432668D01*
X135362931Y-137456036D01*
X135356535Y-137462431D01*
X135351481Y-137469996D01*
X135274996Y-137546481D01*
X135267431Y-137551535D01*
X135261036Y-137557931D01*
X135237668Y-137571422D01*
X135185078Y-137606562D01*
X135155800Y-137618689D01*
X135136241Y-137629982D01*
X135114426Y-137635827D01*
X135085150Y-137647954D01*
X135023121Y-137660292D01*
X134997050Y-137667278D01*
X134988002Y-137667278D01*
X134979078Y-137669053D01*
X134870922Y-137669053D01*
X134861998Y-137667278D01*
X134852950Y-137667278D01*
X134826880Y-137660292D01*
X134764849Y-137647954D01*
X134735570Y-137635826D01*
X134713759Y-137629982D01*
X134694202Y-137618690D01*
X134664921Y-137606562D01*
X134612324Y-137571418D01*
X134588964Y-137557931D01*
X134582570Y-137551537D01*
X134575003Y-137546481D01*
X134498518Y-137469996D01*
X134493461Y-137462428D01*
X134487069Y-137456036D01*
X134473583Y-137432679D01*
X134438437Y-137380078D01*
X134426307Y-137350794D01*
X134415018Y-137331241D01*
X134409174Y-137309433D01*
X134397045Y-137280150D01*
X134384704Y-137218108D01*
X134377722Y-137192050D01*
X134376837Y-137178561D01*
X134375657Y-137172624D01*
X134373289Y-137124421D01*
X134373000Y-137120000D01*
X134373000Y-135620000D01*
X134373289Y-135615581D01*
X134375657Y-135567375D01*
X134376838Y-135561437D01*
X134377722Y-135547950D01*
X134384703Y-135521894D01*
X134397045Y-135459849D01*
X134409175Y-135430563D01*
X134415018Y-135408759D01*
X134426305Y-135389208D01*
X134438437Y-135359921D01*
X134473588Y-135307313D01*
X134487069Y-135283964D01*
X134493459Y-135277573D01*
X134498518Y-135270003D01*
X134575003Y-135193518D01*
X134582573Y-135188459D01*
X134588964Y-135182069D01*
X134612313Y-135168588D01*
X134664921Y-135133437D01*
X134694208Y-135121305D01*
X134713759Y-135110018D01*
X134735563Y-135104175D01*
X134764849Y-135092045D01*
X134826886Y-135079705D01*
X134852950Y-135072722D01*
X134861998Y-135072722D01*
X134870922Y-135070947D01*
X134979078Y-135070947D01*
X134988002Y-135072722D01*
G37*
G36*
X143638002Y-135072722D02*
G01*
X143647050Y-135072722D01*
X143673115Y-135079706D01*
X143735150Y-135092045D01*
X143764433Y-135104174D01*
X143786241Y-135110018D01*
X143805794Y-135121307D01*
X143835078Y-135133437D01*
X143887679Y-135168583D01*
X143911036Y-135182069D01*
X143917428Y-135188461D01*
X143924996Y-135193518D01*
X144001481Y-135270003D01*
X144006537Y-135277570D01*
X144012931Y-135283964D01*
X144026418Y-135307324D01*
X144061562Y-135359921D01*
X144073690Y-135389202D01*
X144084982Y-135408759D01*
X144090826Y-135430570D01*
X144102954Y-135459849D01*
X144115292Y-135521880D01*
X144122278Y-135547950D01*
X144123162Y-135561444D01*
X144124342Y-135567375D01*
X144126709Y-135615574D01*
X144127000Y-135620000D01*
X144127000Y-137120000D01*
X144126709Y-137124428D01*
X144124342Y-137172624D01*
X144123162Y-137178553D01*
X144122278Y-137192050D01*
X144115291Y-137218122D01*
X144102954Y-137280150D01*
X144090827Y-137309426D01*
X144084982Y-137331241D01*
X144073689Y-137350800D01*
X144061562Y-137380078D01*
X144026422Y-137432668D01*
X144012931Y-137456036D01*
X144006535Y-137462431D01*
X144001481Y-137469996D01*
X143924996Y-137546481D01*
X143917431Y-137551535D01*
X143911036Y-137557931D01*
X143887668Y-137571422D01*
X143835078Y-137606562D01*
X143805800Y-137618689D01*
X143786241Y-137629982D01*
X143764426Y-137635827D01*
X143735150Y-137647954D01*
X143673121Y-137660292D01*
X143647050Y-137667278D01*
X143638002Y-137667278D01*
X143629078Y-137669053D01*
X143520922Y-137669053D01*
X143511998Y-137667278D01*
X143502950Y-137667278D01*
X143476880Y-137660292D01*
X143414849Y-137647954D01*
X143385570Y-137635826D01*
X143363759Y-137629982D01*
X143344202Y-137618690D01*
X143314921Y-137606562D01*
X143262324Y-137571418D01*
X143238964Y-137557931D01*
X143232570Y-137551537D01*
X143225003Y-137546481D01*
X143148518Y-137469996D01*
X143143461Y-137462428D01*
X143137069Y-137456036D01*
X143123583Y-137432679D01*
X143088437Y-137380078D01*
X143076307Y-137350794D01*
X143065018Y-137331241D01*
X143059174Y-137309433D01*
X143047045Y-137280150D01*
X143034704Y-137218108D01*
X143027722Y-137192050D01*
X143026837Y-137178561D01*
X143025657Y-137172624D01*
X143023289Y-137124421D01*
X143023000Y-137120000D01*
X143023000Y-135620000D01*
X143023289Y-135615581D01*
X143025657Y-135567375D01*
X143026838Y-135561437D01*
X143027722Y-135547950D01*
X143034703Y-135521894D01*
X143047045Y-135459849D01*
X143059175Y-135430563D01*
X143065018Y-135408759D01*
X143076305Y-135389208D01*
X143088437Y-135359921D01*
X143123588Y-135307313D01*
X143137069Y-135283964D01*
X143143459Y-135277573D01*
X143148518Y-135270003D01*
X143225003Y-135193518D01*
X143232573Y-135188459D01*
X143238964Y-135182069D01*
X143262313Y-135168588D01*
X143314921Y-135133437D01*
X143344208Y-135121305D01*
X143363759Y-135110018D01*
X143385563Y-135104175D01*
X143414849Y-135092045D01*
X143476886Y-135079705D01*
X143502950Y-135072722D01*
X143511998Y-135072722D01*
X143520922Y-135070947D01*
X143629078Y-135070947D01*
X143638002Y-135072722D01*
G37*
G36*
X136452382Y-136351587D02*
G01*
X136554626Y-136417295D01*
X136634215Y-136509146D01*
X136662111Y-136570231D01*
X136737889Y-136570231D01*
X136765785Y-136509146D01*
X136845374Y-136417295D01*
X136947618Y-136351587D01*
X137064232Y-136317346D01*
X137185768Y-136317346D01*
X137302382Y-136351587D01*
X137404626Y-136417295D01*
X137484215Y-136509146D01*
X137512111Y-136570231D01*
X137587889Y-136570231D01*
X137615785Y-136509146D01*
X137695374Y-136417295D01*
X137797618Y-136351587D01*
X137914232Y-136317346D01*
X138035768Y-136317346D01*
X138152382Y-136351587D01*
X138254626Y-136417295D01*
X138334215Y-136509146D01*
X138362111Y-136570231D01*
X138437889Y-136570231D01*
X138465785Y-136509146D01*
X138545374Y-136417295D01*
X138647618Y-136351587D01*
X138764232Y-136317346D01*
X138885768Y-136317346D01*
X139002382Y-136351587D01*
X139104626Y-136417295D01*
X139184215Y-136509146D01*
X139212111Y-136570231D01*
X139287889Y-136570231D01*
X139315785Y-136509146D01*
X139395374Y-136417295D01*
X139497618Y-136351587D01*
X139614232Y-136317346D01*
X139735768Y-136317346D01*
X139852382Y-136351587D01*
X139954626Y-136417295D01*
X140034215Y-136509146D01*
X140062111Y-136570231D01*
X140137889Y-136570231D01*
X140165785Y-136509146D01*
X140245374Y-136417295D01*
X140347618Y-136351587D01*
X140464232Y-136317346D01*
X140585768Y-136317346D01*
X140702382Y-136351587D01*
X140804626Y-136417295D01*
X140884215Y-136509146D01*
X140912111Y-136570231D01*
X140987889Y-136570231D01*
X141015785Y-136509146D01*
X141095374Y-136417295D01*
X141197618Y-136351587D01*
X141314232Y-136317346D01*
X141435768Y-136317346D01*
X141552382Y-136351587D01*
X141654626Y-136417295D01*
X141734215Y-136509146D01*
X141762111Y-136570231D01*
X141837889Y-136570231D01*
X141865785Y-136509146D01*
X141945374Y-136417295D01*
X142047618Y-136351587D01*
X142164232Y-136317346D01*
X142285768Y-136317346D01*
X142402382Y-136351587D01*
X142504626Y-136417295D01*
X142584215Y-136509146D01*
X142634703Y-136619700D01*
X142652000Y-136740000D01*
X142634703Y-136860300D01*
X142584215Y-136970854D01*
X142504626Y-137062705D01*
X142402382Y-137128413D01*
X142285768Y-137162654D01*
X142164232Y-137162654D01*
X142047618Y-137128413D01*
X141945374Y-137062705D01*
X141865785Y-136970854D01*
X141837888Y-136909768D01*
X141762112Y-136909768D01*
X141734215Y-136970854D01*
X141654626Y-137062705D01*
X141552382Y-137128413D01*
X141435768Y-137162654D01*
X141314232Y-137162654D01*
X141197618Y-137128413D01*
X141095374Y-137062705D01*
X141015785Y-136970854D01*
X140987888Y-136909768D01*
X140912112Y-136909768D01*
X140884215Y-136970854D01*
X140804626Y-137062705D01*
X140702382Y-137128413D01*
X140585768Y-137162654D01*
X140464232Y-137162654D01*
X140347618Y-137128413D01*
X140245374Y-137062705D01*
X140165785Y-136970854D01*
X140137888Y-136909768D01*
X140062112Y-136909768D01*
X140034215Y-136970854D01*
X139954626Y-137062705D01*
X139852382Y-137128413D01*
X139735768Y-137162654D01*
X139614232Y-137162654D01*
X139497618Y-137128413D01*
X139395374Y-137062705D01*
X139315785Y-136970854D01*
X139287888Y-136909768D01*
X139212112Y-136909768D01*
X139184215Y-136970854D01*
X139104626Y-137062705D01*
X139002382Y-137128413D01*
X138885768Y-137162654D01*
X138764232Y-137162654D01*
X138647618Y-137128413D01*
X138545374Y-137062705D01*
X138465785Y-136970854D01*
X138437888Y-136909768D01*
X138362112Y-136909768D01*
X138334215Y-136970854D01*
X138254626Y-137062705D01*
X138152382Y-137128413D01*
X138035768Y-137162654D01*
X137914232Y-137162654D01*
X137797618Y-137128413D01*
X137695374Y-137062705D01*
X137615785Y-136970854D01*
X137587888Y-136909768D01*
X137512112Y-136909768D01*
X137484215Y-136970854D01*
X137404626Y-137062705D01*
X137302382Y-137128413D01*
X137185768Y-137162654D01*
X137064232Y-137162654D01*
X136947618Y-137128413D01*
X136845374Y-137062705D01*
X136765785Y-136970854D01*
X136737888Y-136909768D01*
X136662112Y-136909768D01*
X136634215Y-136970854D01*
X136554626Y-137062705D01*
X136452382Y-137128413D01*
X136335768Y-137162654D01*
X136214232Y-137162654D01*
X136097618Y-137128413D01*
X135995374Y-137062705D01*
X135915785Y-136970854D01*
X135865297Y-136860300D01*
X135848000Y-136740000D01*
X135865297Y-136619700D01*
X135915785Y-136509146D01*
X135995374Y-136417295D01*
X136097618Y-136351587D01*
X136214232Y-136317346D01*
X136335768Y-136317346D01*
X136452382Y-136351587D01*
G37*
G36*
X126454850Y-135900964D02*
G01*
X126505040Y-135906787D01*
X126522189Y-135914359D01*
X126545671Y-135919030D01*
X126570810Y-135935827D01*
X126590696Y-135944608D01*
X126604277Y-135958189D01*
X126626777Y-135973223D01*
X126641810Y-135995722D01*
X126655391Y-136009303D01*
X126664170Y-136029186D01*
X126680970Y-136054329D01*
X126685641Y-136077812D01*
X126693212Y-136094959D01*
X126699033Y-136145139D01*
X126700000Y-136150000D01*
X126700000Y-136850000D01*
X126699032Y-136854863D01*
X126693212Y-136905040D01*
X126685641Y-136922185D01*
X126680970Y-136945671D01*
X126664169Y-136970815D01*
X126655391Y-136990696D01*
X126641812Y-137004274D01*
X126626777Y-137026777D01*
X126604274Y-137041812D01*
X126590696Y-137055391D01*
X126570815Y-137064169D01*
X126545671Y-137080970D01*
X126522185Y-137085641D01*
X126505040Y-137093212D01*
X126454861Y-137099032D01*
X126450000Y-137100000D01*
X125550000Y-137100000D01*
X125545138Y-137099032D01*
X125494959Y-137093212D01*
X125477812Y-137085641D01*
X125454329Y-137080970D01*
X125429186Y-137064170D01*
X125409303Y-137055391D01*
X125395722Y-137041810D01*
X125373223Y-137026777D01*
X125358189Y-137004277D01*
X125344608Y-136990696D01*
X125335827Y-136970810D01*
X125319030Y-136945671D01*
X125314359Y-136922189D01*
X125306787Y-136905040D01*
X125300964Y-136854849D01*
X125300000Y-136850000D01*
X125300000Y-136150000D01*
X125300964Y-136145150D01*
X125306787Y-136094959D01*
X125314359Y-136077808D01*
X125319030Y-136054329D01*
X125335826Y-136029191D01*
X125344608Y-136009303D01*
X125358191Y-135995719D01*
X125373223Y-135973223D01*
X125395719Y-135958191D01*
X125409303Y-135944608D01*
X125429191Y-135935826D01*
X125454329Y-135919030D01*
X125477808Y-135914359D01*
X125494959Y-135906787D01*
X125545151Y-135900964D01*
X125550000Y-135900000D01*
X126450000Y-135900000D01*
X126454850Y-135900964D01*
G37*
G36*
X130704850Y-135900964D02*
G01*
X130755040Y-135906787D01*
X130772189Y-135914359D01*
X130795671Y-135919030D01*
X130820810Y-135935827D01*
X130840696Y-135944608D01*
X130854277Y-135958189D01*
X130876777Y-135973223D01*
X130891810Y-135995722D01*
X130905391Y-136009303D01*
X130914170Y-136029186D01*
X130930970Y-136054329D01*
X130935641Y-136077812D01*
X130943212Y-136094959D01*
X130949033Y-136145139D01*
X130950000Y-136150000D01*
X130950000Y-136850000D01*
X130949032Y-136854863D01*
X130943212Y-136905040D01*
X130935641Y-136922185D01*
X130930970Y-136945671D01*
X130914169Y-136970815D01*
X130905391Y-136990696D01*
X130891812Y-137004274D01*
X130876777Y-137026777D01*
X130854274Y-137041812D01*
X130840696Y-137055391D01*
X130820815Y-137064169D01*
X130795671Y-137080970D01*
X130772185Y-137085641D01*
X130755040Y-137093212D01*
X130704861Y-137099032D01*
X130700000Y-137100000D01*
X129800000Y-137100000D01*
X129795138Y-137099032D01*
X129744959Y-137093212D01*
X129727812Y-137085641D01*
X129704329Y-137080970D01*
X129679186Y-137064170D01*
X129659303Y-137055391D01*
X129645722Y-137041810D01*
X129623223Y-137026777D01*
X129608189Y-137004277D01*
X129594608Y-136990696D01*
X129585827Y-136970810D01*
X129569030Y-136945671D01*
X129564359Y-136922189D01*
X129556787Y-136905040D01*
X129550964Y-136854849D01*
X129550000Y-136850000D01*
X129550000Y-136150000D01*
X129550964Y-136145150D01*
X129556787Y-136094959D01*
X129564359Y-136077808D01*
X129569030Y-136054329D01*
X129585826Y-136029191D01*
X129594608Y-136009303D01*
X129608191Y-135995719D01*
X129623223Y-135973223D01*
X129645719Y-135958191D01*
X129659303Y-135944608D01*
X129679191Y-135935826D01*
X129704329Y-135919030D01*
X129727808Y-135914359D01*
X129744959Y-135906787D01*
X129795151Y-135900964D01*
X129800000Y-135900000D01*
X130700000Y-135900000D01*
X130704850Y-135900964D01*
G37*
G36*
X136452382Y-135001587D02*
G01*
X136554626Y-135067295D01*
X136634215Y-135159146D01*
X136662111Y-135220231D01*
X136737889Y-135220231D01*
X136765785Y-135159146D01*
X136845374Y-135067295D01*
X136947618Y-135001587D01*
X137064232Y-134967346D01*
X137185768Y-134967346D01*
X137302382Y-135001587D01*
X137404626Y-135067295D01*
X137484215Y-135159146D01*
X137512111Y-135220231D01*
X137587889Y-135220231D01*
X137615785Y-135159146D01*
X137695374Y-135067295D01*
X137797618Y-135001587D01*
X137914232Y-134967346D01*
X138035768Y-134967346D01*
X138152382Y-135001587D01*
X138254626Y-135067295D01*
X138334215Y-135159146D01*
X138362111Y-135220231D01*
X138437889Y-135220231D01*
X138465785Y-135159146D01*
X138545374Y-135067295D01*
X138647618Y-135001587D01*
X138764232Y-134967346D01*
X138885768Y-134967346D01*
X139002382Y-135001587D01*
X139104626Y-135067295D01*
X139184215Y-135159146D01*
X139212111Y-135220231D01*
X139287889Y-135220231D01*
X139315785Y-135159146D01*
X139395374Y-135067295D01*
X139497618Y-135001587D01*
X139614232Y-134967346D01*
X139735768Y-134967346D01*
X139852382Y-135001587D01*
X139954626Y-135067295D01*
X140034215Y-135159146D01*
X140062111Y-135220231D01*
X140137889Y-135220231D01*
X140165785Y-135159146D01*
X140245374Y-135067295D01*
X140347618Y-135001587D01*
X140464232Y-134967346D01*
X140585768Y-134967346D01*
X140702382Y-135001587D01*
X140804626Y-135067295D01*
X140884215Y-135159146D01*
X140912111Y-135220231D01*
X140987889Y-135220231D01*
X141015785Y-135159146D01*
X141095374Y-135067295D01*
X141197618Y-135001587D01*
X141314232Y-134967346D01*
X141435768Y-134967346D01*
X141552382Y-135001587D01*
X141654626Y-135067295D01*
X141734215Y-135159146D01*
X141762111Y-135220231D01*
X141837889Y-135220231D01*
X141865785Y-135159146D01*
X141945374Y-135067295D01*
X142047618Y-135001587D01*
X142164232Y-134967346D01*
X142285768Y-134967346D01*
X142402382Y-135001587D01*
X142504626Y-135067295D01*
X142584215Y-135159146D01*
X142634703Y-135269700D01*
X142652000Y-135390000D01*
X142634703Y-135510300D01*
X142584215Y-135620854D01*
X142504626Y-135712705D01*
X142402382Y-135778413D01*
X142285768Y-135812654D01*
X142164232Y-135812654D01*
X142047618Y-135778413D01*
X141945374Y-135712705D01*
X141865785Y-135620854D01*
X141837888Y-135559768D01*
X141762112Y-135559768D01*
X141734215Y-135620854D01*
X141654626Y-135712705D01*
X141552382Y-135778413D01*
X141435768Y-135812654D01*
X141314232Y-135812654D01*
X141197618Y-135778413D01*
X141095374Y-135712705D01*
X141015785Y-135620854D01*
X140987888Y-135559768D01*
X140912112Y-135559768D01*
X140884215Y-135620854D01*
X140804626Y-135712705D01*
X140702382Y-135778413D01*
X140585768Y-135812654D01*
X140464232Y-135812654D01*
X140347618Y-135778413D01*
X140245374Y-135712705D01*
X140165785Y-135620854D01*
X140137888Y-135559768D01*
X140062112Y-135559768D01*
X140034215Y-135620854D01*
X139954626Y-135712705D01*
X139852382Y-135778413D01*
X139735768Y-135812654D01*
X139614232Y-135812654D01*
X139497618Y-135778413D01*
X139395374Y-135712705D01*
X139315785Y-135620854D01*
X139287888Y-135559768D01*
X139212112Y-135559768D01*
X139184215Y-135620854D01*
X139104626Y-135712705D01*
X139002382Y-135778413D01*
X138885768Y-135812654D01*
X138764232Y-135812654D01*
X138647618Y-135778413D01*
X138545374Y-135712705D01*
X138465785Y-135620854D01*
X138437888Y-135559768D01*
X138362112Y-135559768D01*
X138334215Y-135620854D01*
X138254626Y-135712705D01*
X138152382Y-135778413D01*
X138035768Y-135812654D01*
X137914232Y-135812654D01*
X137797618Y-135778413D01*
X137695374Y-135712705D01*
X137615785Y-135620854D01*
X137587888Y-135559768D01*
X137512112Y-135559768D01*
X137484215Y-135620854D01*
X137404626Y-135712705D01*
X137302382Y-135778413D01*
X137185768Y-135812654D01*
X137064232Y-135812654D01*
X136947618Y-135778413D01*
X136845374Y-135712705D01*
X136765785Y-135620854D01*
X136737888Y-135559768D01*
X136662112Y-135559768D01*
X136634215Y-135620854D01*
X136554626Y-135712705D01*
X136452382Y-135778413D01*
X136335768Y-135812654D01*
X136214232Y-135812654D01*
X136097618Y-135778413D01*
X135995374Y-135712705D01*
X135915785Y-135620854D01*
X135865297Y-135510300D01*
X135848000Y-135390000D01*
X135865297Y-135269700D01*
X135915785Y-135159146D01*
X135995374Y-135067295D01*
X136097618Y-135001587D01*
X136214232Y-134967346D01*
X136335768Y-134967346D01*
X136452382Y-135001587D01*
G37*
G36*
X127708168Y-129229570D02*
G01*
X127757480Y-129262520D01*
X127790430Y-129311832D01*
X127802000Y-129370000D01*
X127802000Y-130130000D01*
X127790430Y-130188168D01*
X127788756Y-130190673D01*
X127782102Y-130224128D01*
X127818107Y-130268000D01*
X128131892Y-130268000D01*
X128167897Y-130224129D01*
X128161242Y-130190671D01*
X128159570Y-130188168D01*
X128148000Y-130130000D01*
X128148000Y-129370000D01*
X128159570Y-129311832D01*
X128192520Y-129262520D01*
X128241832Y-129229570D01*
X128300000Y-129218000D01*
X128600000Y-129218000D01*
X128658168Y-129229570D01*
X128707480Y-129262520D01*
X128740430Y-129311832D01*
X128752000Y-129370000D01*
X128752000Y-130130000D01*
X128740430Y-130188168D01*
X128738756Y-130190673D01*
X128732102Y-130224128D01*
X128768107Y-130268000D01*
X129081892Y-130268000D01*
X129117897Y-130224129D01*
X129111242Y-130190671D01*
X129109570Y-130188168D01*
X129098000Y-130130000D01*
X129098000Y-129370000D01*
X129109570Y-129311832D01*
X129142520Y-129262520D01*
X129191832Y-129229570D01*
X129250000Y-129218000D01*
X129550000Y-129218000D01*
X129608168Y-129229570D01*
X129657480Y-129262520D01*
X129690430Y-129311832D01*
X129702000Y-129370000D01*
X129702000Y-130130000D01*
X129690430Y-130188168D01*
X129663150Y-130228994D01*
X129672388Y-130275436D01*
X129674034Y-130275764D01*
X129707125Y-130297875D01*
X129729236Y-130330966D01*
X129737000Y-130370000D01*
X129737000Y-132000000D01*
X129729236Y-132039034D01*
X129707125Y-132072125D01*
X129674034Y-132094236D01*
X129672388Y-132094563D01*
X129663149Y-132141005D01*
X129690430Y-132181832D01*
X129702000Y-132240000D01*
X129702000Y-133000000D01*
X129690430Y-133058168D01*
X129657480Y-133107480D01*
X129608168Y-133140430D01*
X129550000Y-133152000D01*
X129250000Y-133152000D01*
X129191832Y-133140430D01*
X129142520Y-133107480D01*
X129109570Y-133058168D01*
X129098000Y-133000000D01*
X129098000Y-132240000D01*
X129109570Y-132181832D01*
X129111241Y-132179329D01*
X129117897Y-132145870D01*
X129081893Y-132102000D01*
X128768106Y-132102000D01*
X128732102Y-132145870D01*
X128738756Y-132179327D01*
X128740430Y-132181832D01*
X128752000Y-132240000D01*
X128752000Y-133000000D01*
X128740430Y-133058168D01*
X128707480Y-133107480D01*
X128658168Y-133140430D01*
X128600000Y-133152000D01*
X128300000Y-133152000D01*
X128241832Y-133140430D01*
X128192520Y-133107480D01*
X128159570Y-133058168D01*
X128148000Y-133000000D01*
X128148000Y-132240000D01*
X128159570Y-132181832D01*
X128161241Y-132179329D01*
X128167897Y-132145870D01*
X128131893Y-132102000D01*
X127818106Y-132102000D01*
X127782102Y-132145870D01*
X127788756Y-132179327D01*
X127790430Y-132181832D01*
X127802000Y-132240000D01*
X127802000Y-133000000D01*
X127790430Y-133058168D01*
X127757480Y-133107480D01*
X127708168Y-133140430D01*
X127650000Y-133152000D01*
X127350000Y-133152000D01*
X127291832Y-133140430D01*
X127242520Y-133107480D01*
X127209570Y-133058168D01*
X127198000Y-133000000D01*
X127198000Y-132240000D01*
X127209570Y-132181832D01*
X127236849Y-132141006D01*
X127227610Y-132094563D01*
X127225966Y-132094236D01*
X127192875Y-132072125D01*
X127170764Y-132039034D01*
X127163000Y-132000000D01*
X127163000Y-130370000D01*
X127170764Y-130330966D01*
X127192875Y-130297875D01*
X127225966Y-130275764D01*
X127227610Y-130275436D01*
X127236848Y-130228992D01*
X127209570Y-130188168D01*
X127198000Y-130130000D01*
X127198000Y-129370000D01*
X127209570Y-129311832D01*
X127242520Y-129262520D01*
X127291832Y-129229570D01*
X127350000Y-129218000D01*
X127650000Y-129218000D01*
X127708168Y-129229570D01*
G37*
G36*
X118204850Y-130950964D02*
G01*
X118255040Y-130956787D01*
X118272189Y-130964359D01*
X118295671Y-130969030D01*
X118320810Y-130985827D01*
X118340696Y-130994608D01*
X118354277Y-131008189D01*
X118376777Y-131023223D01*
X118391810Y-131045722D01*
X118405391Y-131059303D01*
X118414170Y-131079186D01*
X118430970Y-131104329D01*
X118435641Y-131127812D01*
X118443212Y-131144959D01*
X118449033Y-131195139D01*
X118450000Y-131200000D01*
X118450000Y-131850000D01*
X118449032Y-131854863D01*
X118443212Y-131905040D01*
X118435641Y-131922185D01*
X118430970Y-131945671D01*
X118414169Y-131970815D01*
X118405391Y-131990696D01*
X118391812Y-132004274D01*
X118376777Y-132026777D01*
X118354274Y-132041812D01*
X118340696Y-132055391D01*
X118320815Y-132064169D01*
X118295671Y-132080970D01*
X118272185Y-132085641D01*
X118255040Y-132093212D01*
X118204861Y-132099032D01*
X118200000Y-132100000D01*
X117300000Y-132100000D01*
X117295138Y-132099032D01*
X117244959Y-132093212D01*
X117227812Y-132085641D01*
X117204329Y-132080970D01*
X117179186Y-132064170D01*
X117159303Y-132055391D01*
X117145722Y-132041810D01*
X117123223Y-132026777D01*
X117108189Y-132004277D01*
X117094608Y-131990696D01*
X117085827Y-131970810D01*
X117069030Y-131945671D01*
X117064359Y-131922189D01*
X117056787Y-131905040D01*
X117050964Y-131854849D01*
X117050000Y-131850000D01*
X117050000Y-131200000D01*
X117050964Y-131195150D01*
X117056787Y-131144959D01*
X117064359Y-131127808D01*
X117069030Y-131104329D01*
X117085826Y-131079191D01*
X117094608Y-131059303D01*
X117108191Y-131045719D01*
X117123223Y-131023223D01*
X117145719Y-131008191D01*
X117159303Y-130994608D01*
X117179191Y-130985826D01*
X117204329Y-130969030D01*
X117227808Y-130964359D01*
X117244959Y-130956787D01*
X117295151Y-130950964D01*
X117300000Y-130950000D01*
X118200000Y-130950000D01*
X118204850Y-130950964D01*
G37*
G36*
X121704850Y-130950964D02*
G01*
X121755040Y-130956787D01*
X121772189Y-130964359D01*
X121795671Y-130969030D01*
X121820810Y-130985827D01*
X121840696Y-130994608D01*
X121854277Y-131008189D01*
X121876777Y-131023223D01*
X121891810Y-131045722D01*
X121905391Y-131059303D01*
X121914170Y-131079186D01*
X121930970Y-131104329D01*
X121935641Y-131127812D01*
X121943212Y-131144959D01*
X121949033Y-131195139D01*
X121950000Y-131200000D01*
X121950000Y-131850000D01*
X121949032Y-131854863D01*
X121943212Y-131905040D01*
X121935641Y-131922185D01*
X121930970Y-131945671D01*
X121914169Y-131970815D01*
X121905391Y-131990696D01*
X121891812Y-132004274D01*
X121876777Y-132026777D01*
X121854274Y-132041812D01*
X121840696Y-132055391D01*
X121820815Y-132064169D01*
X121795671Y-132080970D01*
X121772185Y-132085641D01*
X121755040Y-132093212D01*
X121704861Y-132099032D01*
X121700000Y-132100000D01*
X120800000Y-132100000D01*
X120795138Y-132099032D01*
X120744959Y-132093212D01*
X120727812Y-132085641D01*
X120704329Y-132080970D01*
X120679186Y-132064170D01*
X120659303Y-132055391D01*
X120645722Y-132041810D01*
X120623223Y-132026777D01*
X120608189Y-132004277D01*
X120594608Y-131990696D01*
X120585827Y-131970810D01*
X120569030Y-131945671D01*
X120564359Y-131922189D01*
X120556787Y-131905040D01*
X120550964Y-131854849D01*
X120550000Y-131850000D01*
X120550000Y-131200000D01*
X120550964Y-131195150D01*
X120556787Y-131144959D01*
X120564359Y-131127808D01*
X120569030Y-131104329D01*
X120585826Y-131079191D01*
X120594608Y-131059303D01*
X120608191Y-131045719D01*
X120623223Y-131023223D01*
X120645719Y-131008191D01*
X120659303Y-130994608D01*
X120679191Y-130985826D01*
X120704329Y-130969030D01*
X120727808Y-130964359D01*
X120744959Y-130956787D01*
X120795151Y-130950964D01*
X120800000Y-130950000D01*
X121700000Y-130950000D01*
X121704850Y-130950964D01*
G37*
G36*
X135319903Y-131361418D02*
G01*
X135368566Y-131393934D01*
X135401082Y-131442597D01*
X135412500Y-131500000D01*
X135412500Y-131800000D01*
X135401082Y-131857403D01*
X135368566Y-131906066D01*
X135319903Y-131938582D01*
X135262500Y-131950000D01*
X134237500Y-131950000D01*
X134180097Y-131938582D01*
X134131434Y-131906066D01*
X134098918Y-131857403D01*
X134087500Y-131800000D01*
X134087500Y-131500000D01*
X134098918Y-131442597D01*
X134131434Y-131393934D01*
X134180097Y-131361418D01*
X134237500Y-131350000D01*
X135262500Y-131350000D01*
X135319903Y-131361418D01*
G37*
G36*
X137594903Y-131361418D02*
G01*
X137643566Y-131393934D01*
X137676082Y-131442597D01*
X137687500Y-131500000D01*
X137687500Y-131800000D01*
X137676082Y-131857403D01*
X137643566Y-131906066D01*
X137594903Y-131938582D01*
X137537500Y-131950000D01*
X136512500Y-131950000D01*
X136455097Y-131938582D01*
X136406434Y-131906066D01*
X136373918Y-131857403D01*
X136362500Y-131800000D01*
X136362500Y-131500000D01*
X136373918Y-131442597D01*
X136406434Y-131393934D01*
X136455097Y-131361418D01*
X136512500Y-131350000D01*
X137537500Y-131350000D01*
X137594903Y-131361418D01*
G37*
G36*
X135319903Y-130411418D02*
G01*
X135368566Y-130443934D01*
X135401082Y-130492597D01*
X135412500Y-130550000D01*
X135412500Y-130850000D01*
X135401082Y-130907403D01*
X135368566Y-130956066D01*
X135319903Y-130988582D01*
X135262500Y-131000000D01*
X134237500Y-131000000D01*
X134180097Y-130988582D01*
X134131434Y-130956066D01*
X134098918Y-130907403D01*
X134087500Y-130850000D01*
X134087500Y-130550000D01*
X134098918Y-130492597D01*
X134131434Y-130443934D01*
X134180097Y-130411418D01*
X134237500Y-130400000D01*
X135262500Y-130400000D01*
X135319903Y-130411418D01*
G37*
G36*
X137594903Y-130411418D02*
G01*
X137643566Y-130443934D01*
X137676082Y-130492597D01*
X137687500Y-130550000D01*
X137687500Y-130850000D01*
X137676082Y-130907403D01*
X137643566Y-130956066D01*
X137594903Y-130988582D01*
X137537500Y-131000000D01*
X136512500Y-131000000D01*
X136455097Y-130988582D01*
X136406434Y-130956066D01*
X136373918Y-130907403D01*
X136362500Y-130850000D01*
X136362500Y-130550000D01*
X136373918Y-130492597D01*
X136406434Y-130443934D01*
X136455097Y-130411418D01*
X136512500Y-130400000D01*
X137537500Y-130400000D01*
X137594903Y-130411418D01*
G37*
G36*
X157825000Y-130150000D02*
G01*
X156125000Y-130150000D01*
X156125000Y-128450000D01*
X157825000Y-128450000D01*
X157825000Y-130150000D01*
G37*
G36*
X118204850Y-128900964D02*
G01*
X118255040Y-128906787D01*
X118272189Y-128914359D01*
X118295671Y-128919030D01*
X118320810Y-128935827D01*
X118340696Y-128944608D01*
X118354277Y-128958189D01*
X118376777Y-128973223D01*
X118391810Y-128995722D01*
X118405391Y-129009303D01*
X118414170Y-129029186D01*
X118430970Y-129054329D01*
X118435641Y-129077812D01*
X118443212Y-129094959D01*
X118449033Y-129145139D01*
X118450000Y-129150000D01*
X118450000Y-129800000D01*
X118449032Y-129804863D01*
X118443212Y-129855040D01*
X118435641Y-129872185D01*
X118430970Y-129895671D01*
X118414169Y-129920815D01*
X118405391Y-129940696D01*
X118391812Y-129954274D01*
X118376777Y-129976777D01*
X118354274Y-129991812D01*
X118340696Y-130005391D01*
X118320815Y-130014169D01*
X118295671Y-130030970D01*
X118272185Y-130035641D01*
X118255040Y-130043212D01*
X118204861Y-130049032D01*
X118200000Y-130050000D01*
X117300000Y-130050000D01*
X117295138Y-130049032D01*
X117244959Y-130043212D01*
X117227812Y-130035641D01*
X117204329Y-130030970D01*
X117179186Y-130014170D01*
X117159303Y-130005391D01*
X117145722Y-129991810D01*
X117123223Y-129976777D01*
X117108189Y-129954277D01*
X117094608Y-129940696D01*
X117085827Y-129920810D01*
X117069030Y-129895671D01*
X117064359Y-129872189D01*
X117056787Y-129855040D01*
X117050964Y-129804849D01*
X117050000Y-129800000D01*
X117050000Y-129150000D01*
X117050964Y-129145150D01*
X117056787Y-129094959D01*
X117064359Y-129077808D01*
X117069030Y-129054329D01*
X117085826Y-129029191D01*
X117094608Y-129009303D01*
X117108191Y-128995719D01*
X117123223Y-128973223D01*
X117145719Y-128958191D01*
X117159303Y-128944608D01*
X117179191Y-128935826D01*
X117204329Y-128919030D01*
X117227808Y-128914359D01*
X117244959Y-128906787D01*
X117295151Y-128900964D01*
X117300000Y-128900000D01*
X118200000Y-128900000D01*
X118204850Y-128900964D01*
G37*
G36*
X121704850Y-128900964D02*
G01*
X121755040Y-128906787D01*
X121772189Y-128914359D01*
X121795671Y-128919030D01*
X121820810Y-128935827D01*
X121840696Y-128944608D01*
X121854277Y-128958189D01*
X121876777Y-128973223D01*
X121891810Y-128995722D01*
X121905391Y-129009303D01*
X121914170Y-129029186D01*
X121930970Y-129054329D01*
X121935641Y-129077812D01*
X121943212Y-129094959D01*
X121949033Y-129145139D01*
X121950000Y-129150000D01*
X121950000Y-129800000D01*
X121949032Y-129804863D01*
X121943212Y-129855040D01*
X121935641Y-129872185D01*
X121930970Y-129895671D01*
X121914169Y-129920815D01*
X121905391Y-129940696D01*
X121891812Y-129954274D01*
X121876777Y-129976777D01*
X121854274Y-129991812D01*
X121840696Y-130005391D01*
X121820815Y-130014169D01*
X121795671Y-130030970D01*
X121772185Y-130035641D01*
X121755040Y-130043212D01*
X121704861Y-130049032D01*
X121700000Y-130050000D01*
X120800000Y-130050000D01*
X120795138Y-130049032D01*
X120744959Y-130043212D01*
X120727812Y-130035641D01*
X120704329Y-130030970D01*
X120679186Y-130014170D01*
X120659303Y-130005391D01*
X120645722Y-129991810D01*
X120623223Y-129976777D01*
X120608189Y-129954277D01*
X120594608Y-129940696D01*
X120585827Y-129920810D01*
X120569030Y-129895671D01*
X120564359Y-129872189D01*
X120556787Y-129855040D01*
X120550964Y-129804849D01*
X120550000Y-129800000D01*
X120550000Y-129150000D01*
X120550964Y-129145150D01*
X120556787Y-129094959D01*
X120564359Y-129077808D01*
X120569030Y-129054329D01*
X120585826Y-129029191D01*
X120594608Y-129009303D01*
X120608191Y-128995719D01*
X120623223Y-128973223D01*
X120645719Y-128958191D01*
X120659303Y-128944608D01*
X120679191Y-128935826D01*
X120704329Y-128919030D01*
X120727808Y-128914359D01*
X120744959Y-128906787D01*
X120795151Y-128900964D01*
X120800000Y-128900000D01*
X121700000Y-128900000D01*
X121704850Y-128900964D01*
G37*
G36*
X135319903Y-129461418D02*
G01*
X135368566Y-129493934D01*
X135401082Y-129542597D01*
X135412500Y-129600000D01*
X135412500Y-129900000D01*
X135401082Y-129957403D01*
X135368566Y-130006066D01*
X135319903Y-130038582D01*
X135262500Y-130050000D01*
X134237500Y-130050000D01*
X134180097Y-130038582D01*
X134131434Y-130006066D01*
X134098918Y-129957403D01*
X134087500Y-129900000D01*
X134087500Y-129600000D01*
X134098918Y-129542597D01*
X134131434Y-129493934D01*
X134180097Y-129461418D01*
X134237500Y-129450000D01*
X135262500Y-129450000D01*
X135319903Y-129461418D01*
G37*
G36*
X137594903Y-129461418D02*
G01*
X137643566Y-129493934D01*
X137676082Y-129542597D01*
X137687500Y-129600000D01*
X137687500Y-129900000D01*
X137676082Y-129957403D01*
X137643566Y-130006066D01*
X137594903Y-130038582D01*
X137537500Y-130050000D01*
X136512500Y-130050000D01*
X136455097Y-130038582D01*
X136406434Y-130006066D01*
X136373918Y-129957403D01*
X136362500Y-129900000D01*
X136362500Y-129600000D01*
X136373918Y-129542597D01*
X136406434Y-129493934D01*
X136455097Y-129461418D01*
X136512500Y-129450000D01*
X137537500Y-129450000D01*
X137594903Y-129461418D01*
G37*
G36*
X144204850Y-128700964D02*
G01*
X144255040Y-128706787D01*
X144272189Y-128714359D01*
X144295671Y-128719030D01*
X144320810Y-128735827D01*
X144340696Y-128744608D01*
X144354277Y-128758189D01*
X144376777Y-128773223D01*
X144391810Y-128795722D01*
X144405391Y-128809303D01*
X144414170Y-128829186D01*
X144430970Y-128854329D01*
X144435641Y-128877812D01*
X144443212Y-128894959D01*
X144449033Y-128945139D01*
X144450000Y-128950000D01*
X144450000Y-129600000D01*
X144449032Y-129604863D01*
X144443212Y-129655040D01*
X144435641Y-129672185D01*
X144430970Y-129695671D01*
X144414169Y-129720815D01*
X144405391Y-129740696D01*
X144391812Y-129754274D01*
X144376777Y-129776777D01*
X144354274Y-129791812D01*
X144340696Y-129805391D01*
X144320815Y-129814169D01*
X144295671Y-129830970D01*
X144272185Y-129835641D01*
X144255040Y-129843212D01*
X144204861Y-129849032D01*
X144200000Y-129850000D01*
X143300000Y-129850000D01*
X143295138Y-129849032D01*
X143244959Y-129843212D01*
X143227812Y-129835641D01*
X143204329Y-129830970D01*
X143179186Y-129814170D01*
X143159303Y-129805391D01*
X143145722Y-129791810D01*
X143123223Y-129776777D01*
X143108189Y-129754277D01*
X143094608Y-129740696D01*
X143085827Y-129720810D01*
X143069030Y-129695671D01*
X143064359Y-129672189D01*
X143056787Y-129655040D01*
X143050964Y-129604849D01*
X143050000Y-129600000D01*
X143050000Y-128950000D01*
X143050964Y-128945150D01*
X143056787Y-128894959D01*
X143064359Y-128877808D01*
X143069030Y-128854329D01*
X143085826Y-128829191D01*
X143094608Y-128809303D01*
X143108191Y-128795719D01*
X143123223Y-128773223D01*
X143145719Y-128758191D01*
X143159303Y-128744608D01*
X143179191Y-128735826D01*
X143204329Y-128719030D01*
X143227808Y-128714359D01*
X143244959Y-128706787D01*
X143295151Y-128700964D01*
X143300000Y-128700000D01*
X144200000Y-128700000D01*
X144204850Y-128700964D01*
G37*
G36*
X144204850Y-126650964D02*
G01*
X144255040Y-126656787D01*
X144272189Y-126664359D01*
X144295671Y-126669030D01*
X144320810Y-126685827D01*
X144340696Y-126694608D01*
X144354277Y-126708189D01*
X144376777Y-126723223D01*
X144391810Y-126745722D01*
X144405391Y-126759303D01*
X144414170Y-126779186D01*
X144430970Y-126804329D01*
X144435641Y-126827812D01*
X144443212Y-126844959D01*
X144449033Y-126895139D01*
X144450000Y-126900000D01*
X144450000Y-127550000D01*
X144449032Y-127554863D01*
X144443212Y-127605040D01*
X144435641Y-127622185D01*
X144430970Y-127645671D01*
X144414169Y-127670815D01*
X144405391Y-127690696D01*
X144391812Y-127704274D01*
X144376777Y-127726777D01*
X144354274Y-127741812D01*
X144340696Y-127755391D01*
X144320815Y-127764169D01*
X144295671Y-127780970D01*
X144272185Y-127785641D01*
X144255040Y-127793212D01*
X144204861Y-127799032D01*
X144200000Y-127800000D01*
X143300000Y-127800000D01*
X143295138Y-127799032D01*
X143244959Y-127793212D01*
X143227812Y-127785641D01*
X143204329Y-127780970D01*
X143179186Y-127764170D01*
X143159303Y-127755391D01*
X143145722Y-127741810D01*
X143123223Y-127726777D01*
X143108189Y-127704277D01*
X143094608Y-127690696D01*
X143085827Y-127670810D01*
X143069030Y-127645671D01*
X143064359Y-127622189D01*
X143056787Y-127605040D01*
X143050964Y-127554849D01*
X143050000Y-127550000D01*
X143050000Y-126900000D01*
X143050964Y-126895150D01*
X143056787Y-126844959D01*
X143064359Y-126827808D01*
X143069030Y-126804329D01*
X143085826Y-126779191D01*
X143094608Y-126759303D01*
X143108191Y-126745719D01*
X143123223Y-126723223D01*
X143145719Y-126708191D01*
X143159303Y-126694608D01*
X143179191Y-126685826D01*
X143204329Y-126669030D01*
X143227808Y-126664359D01*
X143244959Y-126656787D01*
X143295151Y-126650964D01*
X143300000Y-126650000D01*
X144200000Y-126650000D01*
X144204850Y-126650964D01*
G37*
G36*
X157237664Y-125951602D02*
G01*
X157400000Y-126023878D01*
X157543761Y-126128327D01*
X157662664Y-126260383D01*
X157751514Y-126414274D01*
X157806425Y-126583275D01*
X157825000Y-126760000D01*
X157806425Y-126936725D01*
X157751514Y-127105726D01*
X157662664Y-127259617D01*
X157543761Y-127391673D01*
X157400000Y-127496122D01*
X157237664Y-127568398D01*
X157063849Y-127605344D01*
X156886151Y-127605344D01*
X156712336Y-127568398D01*
X156550000Y-127496122D01*
X156406239Y-127391673D01*
X156287336Y-127259617D01*
X156198486Y-127105726D01*
X156143575Y-126936725D01*
X156125000Y-126760000D01*
X156143575Y-126583275D01*
X156198486Y-126414274D01*
X156287336Y-126260383D01*
X156406239Y-126128327D01*
X156550000Y-126023878D01*
X156712336Y-125951602D01*
X156886151Y-125914656D01*
X157063849Y-125914656D01*
X157237664Y-125951602D01*
G37*
G36*
X118204850Y-125650964D02*
G01*
X118255040Y-125656787D01*
X118272189Y-125664359D01*
X118295671Y-125669030D01*
X118320810Y-125685827D01*
X118340696Y-125694608D01*
X118354277Y-125708189D01*
X118376777Y-125723223D01*
X118391810Y-125745722D01*
X118405391Y-125759303D01*
X118414170Y-125779186D01*
X118430970Y-125804329D01*
X118435641Y-125827812D01*
X118443212Y-125844959D01*
X118449033Y-125895139D01*
X118450000Y-125900000D01*
X118450000Y-126600000D01*
X118449032Y-126604863D01*
X118443212Y-126655040D01*
X118435641Y-126672185D01*
X118430970Y-126695671D01*
X118414169Y-126720815D01*
X118405391Y-126740696D01*
X118391812Y-126754274D01*
X118376777Y-126776777D01*
X118354274Y-126791812D01*
X118340696Y-126805391D01*
X118320815Y-126814169D01*
X118295671Y-126830970D01*
X118272185Y-126835641D01*
X118255040Y-126843212D01*
X118204861Y-126849032D01*
X118200000Y-126850000D01*
X117300000Y-126850000D01*
X117295138Y-126849032D01*
X117244959Y-126843212D01*
X117227812Y-126835641D01*
X117204329Y-126830970D01*
X117179186Y-126814170D01*
X117159303Y-126805391D01*
X117145722Y-126791810D01*
X117123223Y-126776777D01*
X117108189Y-126754277D01*
X117094608Y-126740696D01*
X117085827Y-126720810D01*
X117069030Y-126695671D01*
X117064359Y-126672189D01*
X117056787Y-126655040D01*
X117050964Y-126604849D01*
X117050000Y-126600000D01*
X117050000Y-125900000D01*
X117050964Y-125895150D01*
X117056787Y-125844959D01*
X117064359Y-125827808D01*
X117069030Y-125804329D01*
X117085826Y-125779191D01*
X117094608Y-125759303D01*
X117108191Y-125745719D01*
X117123223Y-125723223D01*
X117145719Y-125708191D01*
X117159303Y-125694608D01*
X117179191Y-125685826D01*
X117204329Y-125669030D01*
X117227808Y-125664359D01*
X117244959Y-125656787D01*
X117295151Y-125650964D01*
X117300000Y-125650000D01*
X118200000Y-125650000D01*
X118204850Y-125650964D01*
G37*
G36*
X121704850Y-125650964D02*
G01*
X121755040Y-125656787D01*
X121772189Y-125664359D01*
X121795671Y-125669030D01*
X121820810Y-125685827D01*
X121840696Y-125694608D01*
X121854277Y-125708189D01*
X121876777Y-125723223D01*
X121891810Y-125745722D01*
X121905391Y-125759303D01*
X121914170Y-125779186D01*
X121930970Y-125804329D01*
X121935641Y-125827812D01*
X121943212Y-125844959D01*
X121949033Y-125895139D01*
X121950000Y-125900000D01*
X121950000Y-126600000D01*
X121949032Y-126604863D01*
X121943212Y-126655040D01*
X121935641Y-126672185D01*
X121930970Y-126695671D01*
X121914169Y-126720815D01*
X121905391Y-126740696D01*
X121891812Y-126754274D01*
X121876777Y-126776777D01*
X121854274Y-126791812D01*
X121840696Y-126805391D01*
X121820815Y-126814169D01*
X121795671Y-126830970D01*
X121772185Y-126835641D01*
X121755040Y-126843212D01*
X121704861Y-126849032D01*
X121700000Y-126850000D01*
X120800000Y-126850000D01*
X120795138Y-126849032D01*
X120744959Y-126843212D01*
X120727812Y-126835641D01*
X120704329Y-126830970D01*
X120679186Y-126814170D01*
X120659303Y-126805391D01*
X120645722Y-126791810D01*
X120623223Y-126776777D01*
X120608189Y-126754277D01*
X120594608Y-126740696D01*
X120585827Y-126720810D01*
X120569030Y-126695671D01*
X120564359Y-126672189D01*
X120556787Y-126655040D01*
X120550964Y-126604849D01*
X120550000Y-126600000D01*
X120550000Y-125900000D01*
X120550964Y-125895150D01*
X120556787Y-125844959D01*
X120564359Y-125827808D01*
X120569030Y-125804329D01*
X120585826Y-125779191D01*
X120594608Y-125759303D01*
X120608191Y-125745719D01*
X120623223Y-125723223D01*
X120645719Y-125708191D01*
X120659303Y-125694608D01*
X120679191Y-125685826D01*
X120704329Y-125669030D01*
X120727808Y-125664359D01*
X120744959Y-125656787D01*
X120795151Y-125650964D01*
X120800000Y-125650000D01*
X121700000Y-125650000D01*
X121704850Y-125650964D01*
G37*
G36*
X136954850Y-125400964D02*
G01*
X137005040Y-125406787D01*
X137022189Y-125414359D01*
X137045671Y-125419030D01*
X137070810Y-125435827D01*
X137090696Y-125444608D01*
X137104277Y-125458189D01*
X137126777Y-125473223D01*
X137141810Y-125495722D01*
X137155391Y-125509303D01*
X137164170Y-125529186D01*
X137180970Y-125554329D01*
X137185641Y-125577812D01*
X137193212Y-125594959D01*
X137199033Y-125645139D01*
X137200000Y-125650000D01*
X137200000Y-126350000D01*
X137199032Y-126354863D01*
X137193212Y-126405040D01*
X137185641Y-126422185D01*
X137180970Y-126445671D01*
X137164169Y-126470815D01*
X137155391Y-126490696D01*
X137141812Y-126504274D01*
X137126777Y-126526777D01*
X137104274Y-126541812D01*
X137090696Y-126555391D01*
X137070815Y-126564169D01*
X137045671Y-126580970D01*
X137022185Y-126585641D01*
X137005040Y-126593212D01*
X136954861Y-126599032D01*
X136950000Y-126600000D01*
X136050000Y-126600000D01*
X136045138Y-126599032D01*
X135994959Y-126593212D01*
X135977812Y-126585641D01*
X135954329Y-126580970D01*
X135929186Y-126564170D01*
X135909303Y-126555391D01*
X135895722Y-126541810D01*
X135873223Y-126526777D01*
X135858189Y-126504277D01*
X135844608Y-126490696D01*
X135835827Y-126470810D01*
X135819030Y-126445671D01*
X135814359Y-126422189D01*
X135806787Y-126405040D01*
X135800964Y-126354849D01*
X135800000Y-126350000D01*
X135800000Y-125650000D01*
X135800964Y-125645150D01*
X135806787Y-125594959D01*
X135814359Y-125577808D01*
X135819030Y-125554329D01*
X135835826Y-125529191D01*
X135844608Y-125509303D01*
X135858191Y-125495719D01*
X135873223Y-125473223D01*
X135895719Y-125458191D01*
X135909303Y-125444608D01*
X135929191Y-125435826D01*
X135954329Y-125419030D01*
X135977808Y-125414359D01*
X135994959Y-125406787D01*
X136045151Y-125400964D01*
X136050000Y-125400000D01*
X136950000Y-125400000D01*
X136954850Y-125400964D01*
G37*
G36*
X157237664Y-123411602D02*
G01*
X157400000Y-123483878D01*
X157543761Y-123588327D01*
X157662664Y-123720383D01*
X157751514Y-123874274D01*
X157806425Y-124043275D01*
X157825000Y-124220000D01*
X157806425Y-124396725D01*
X157751514Y-124565726D01*
X157662664Y-124719617D01*
X157543761Y-124851673D01*
X157400000Y-124956122D01*
X157237664Y-125028398D01*
X157063849Y-125065344D01*
X156886151Y-125065344D01*
X156712336Y-125028398D01*
X156550000Y-124956122D01*
X156406239Y-124851673D01*
X156287336Y-124719617D01*
X156198486Y-124565726D01*
X156143575Y-124396725D01*
X156125000Y-124220000D01*
X156143575Y-124043275D01*
X156198486Y-123874274D01*
X156287336Y-123720383D01*
X156406239Y-123588327D01*
X156550000Y-123483878D01*
X156712336Y-123411602D01*
X156886151Y-123374656D01*
X157063849Y-123374656D01*
X157237664Y-123411602D01*
G37*
G36*
X118204850Y-123650964D02*
G01*
X118255040Y-123656787D01*
X118272189Y-123664359D01*
X118295671Y-123669030D01*
X118320810Y-123685827D01*
X118340696Y-123694608D01*
X118354277Y-123708189D01*
X118376777Y-123723223D01*
X118391810Y-123745722D01*
X118405391Y-123759303D01*
X118414170Y-123779186D01*
X118430970Y-123804329D01*
X118435641Y-123827812D01*
X118443212Y-123844959D01*
X118449033Y-123895139D01*
X118450000Y-123900000D01*
X118450000Y-124600000D01*
X118449032Y-124604863D01*
X118443212Y-124655040D01*
X118435641Y-124672185D01*
X118430970Y-124695671D01*
X118414169Y-124720815D01*
X118405391Y-124740696D01*
X118391812Y-124754274D01*
X118376777Y-124776777D01*
X118354274Y-124791812D01*
X118340696Y-124805391D01*
X118320815Y-124814169D01*
X118295671Y-124830970D01*
X118272185Y-124835641D01*
X118255040Y-124843212D01*
X118204861Y-124849032D01*
X118200000Y-124850000D01*
X117300000Y-124850000D01*
X117295138Y-124849032D01*
X117244959Y-124843212D01*
X117227812Y-124835641D01*
X117204329Y-124830970D01*
X117179186Y-124814170D01*
X117159303Y-124805391D01*
X117145722Y-124791810D01*
X117123223Y-124776777D01*
X117108189Y-124754277D01*
X117094608Y-124740696D01*
X117085827Y-124720810D01*
X117069030Y-124695671D01*
X117064359Y-124672189D01*
X117056787Y-124655040D01*
X117050964Y-124604849D01*
X117050000Y-124600000D01*
X117050000Y-123900000D01*
X117050964Y-123895150D01*
X117056787Y-123844959D01*
X117064359Y-123827808D01*
X117069030Y-123804329D01*
X117085826Y-123779191D01*
X117094608Y-123759303D01*
X117108191Y-123745719D01*
X117123223Y-123723223D01*
X117145719Y-123708191D01*
X117159303Y-123694608D01*
X117179191Y-123685826D01*
X117204329Y-123669030D01*
X117227808Y-123664359D01*
X117244959Y-123656787D01*
X117295151Y-123650964D01*
X117300000Y-123650000D01*
X118200000Y-123650000D01*
X118204850Y-123650964D01*
G37*
G36*
X121704850Y-123650964D02*
G01*
X121755040Y-123656787D01*
X121772189Y-123664359D01*
X121795671Y-123669030D01*
X121820810Y-123685827D01*
X121840696Y-123694608D01*
X121854277Y-123708189D01*
X121876777Y-123723223D01*
X121891810Y-123745722D01*
X121905391Y-123759303D01*
X121914170Y-123779186D01*
X121930970Y-123804329D01*
X121935641Y-123827812D01*
X121943212Y-123844959D01*
X121949033Y-123895139D01*
X121950000Y-123900000D01*
X121950000Y-124600000D01*
X121949032Y-124604863D01*
X121943212Y-124655040D01*
X121935641Y-124672185D01*
X121930970Y-124695671D01*
X121914169Y-124720815D01*
X121905391Y-124740696D01*
X121891812Y-124754274D01*
X121876777Y-124776777D01*
X121854274Y-124791812D01*
X121840696Y-124805391D01*
X121820815Y-124814169D01*
X121795671Y-124830970D01*
X121772185Y-124835641D01*
X121755040Y-124843212D01*
X121704861Y-124849032D01*
X121700000Y-124850000D01*
X120800000Y-124850000D01*
X120795138Y-124849032D01*
X120744959Y-124843212D01*
X120727812Y-124835641D01*
X120704329Y-124830970D01*
X120679186Y-124814170D01*
X120659303Y-124805391D01*
X120645722Y-124791810D01*
X120623223Y-124776777D01*
X120608189Y-124754277D01*
X120594608Y-124740696D01*
X120585827Y-124720810D01*
X120569030Y-124695671D01*
X120564359Y-124672189D01*
X120556787Y-124655040D01*
X120550964Y-124604849D01*
X120550000Y-124600000D01*
X120550000Y-123900000D01*
X120550964Y-123895150D01*
X120556787Y-123844959D01*
X120564359Y-123827808D01*
X120569030Y-123804329D01*
X120585826Y-123779191D01*
X120594608Y-123759303D01*
X120608191Y-123745719D01*
X120623223Y-123723223D01*
X120645719Y-123708191D01*
X120659303Y-123694608D01*
X120679191Y-123685826D01*
X120704329Y-123669030D01*
X120727808Y-123664359D01*
X120744959Y-123656787D01*
X120795151Y-123650964D01*
X120800000Y-123650000D01*
X121700000Y-123650000D01*
X121704850Y-123650964D01*
G37*
G36*
X136954850Y-123400964D02*
G01*
X137005040Y-123406787D01*
X137022189Y-123414359D01*
X137045671Y-123419030D01*
X137070810Y-123435827D01*
X137090696Y-123444608D01*
X137104277Y-123458189D01*
X137126777Y-123473223D01*
X137141810Y-123495722D01*
X137155391Y-123509303D01*
X137164170Y-123529186D01*
X137180970Y-123554329D01*
X137185641Y-123577812D01*
X137193212Y-123594959D01*
X137199033Y-123645139D01*
X137200000Y-123650000D01*
X137200000Y-124350000D01*
X137199032Y-124354863D01*
X137193212Y-124405040D01*
X137185641Y-124422185D01*
X137180970Y-124445671D01*
X137164169Y-124470815D01*
X137155391Y-124490696D01*
X137141812Y-124504274D01*
X137126777Y-124526777D01*
X137104274Y-124541812D01*
X137090696Y-124555391D01*
X137070815Y-124564169D01*
X137045671Y-124580970D01*
X137022185Y-124585641D01*
X137005040Y-124593212D01*
X136954861Y-124599032D01*
X136950000Y-124600000D01*
X136050000Y-124600000D01*
X136045138Y-124599032D01*
X135994959Y-124593212D01*
X135977812Y-124585641D01*
X135954329Y-124580970D01*
X135929186Y-124564170D01*
X135909303Y-124555391D01*
X135895722Y-124541810D01*
X135873223Y-124526777D01*
X135858189Y-124504277D01*
X135844608Y-124490696D01*
X135835827Y-124470810D01*
X135819030Y-124445671D01*
X135814359Y-124422189D01*
X135806787Y-124405040D01*
X135800964Y-124354849D01*
X135800000Y-124350000D01*
X135800000Y-123650000D01*
X135800964Y-123645150D01*
X135806787Y-123594959D01*
X135814359Y-123577808D01*
X135819030Y-123554329D01*
X135835826Y-123529191D01*
X135844608Y-123509303D01*
X135858191Y-123495719D01*
X135873223Y-123473223D01*
X135895719Y-123458191D01*
X135909303Y-123444608D01*
X135929191Y-123435826D01*
X135954329Y-123419030D01*
X135977808Y-123414359D01*
X135994959Y-123406787D01*
X136045151Y-123400964D01*
X136050000Y-123400000D01*
X136950000Y-123400000D01*
X136954850Y-123400964D01*
G37*
G36*
X141604850Y-123050964D02*
G01*
X141655040Y-123056787D01*
X141672189Y-123064359D01*
X141695671Y-123069030D01*
X141720810Y-123085827D01*
X141740696Y-123094608D01*
X141754277Y-123108189D01*
X141776777Y-123123223D01*
X141791810Y-123145722D01*
X141805391Y-123159303D01*
X141814170Y-123179186D01*
X141830970Y-123204329D01*
X141835641Y-123227812D01*
X141843212Y-123244959D01*
X141849033Y-123295139D01*
X141850000Y-123300000D01*
X141850000Y-124200000D01*
X141849032Y-124204863D01*
X141843212Y-124255040D01*
X141835641Y-124272185D01*
X141830970Y-124295671D01*
X141814169Y-124320815D01*
X141805391Y-124340696D01*
X141791812Y-124354274D01*
X141776777Y-124376777D01*
X141754274Y-124391812D01*
X141740696Y-124405391D01*
X141720815Y-124414169D01*
X141695671Y-124430970D01*
X141672185Y-124435641D01*
X141655040Y-124443212D01*
X141604861Y-124449032D01*
X141600000Y-124450000D01*
X140900000Y-124450000D01*
X140895138Y-124449032D01*
X140844959Y-124443212D01*
X140827812Y-124435641D01*
X140804329Y-124430970D01*
X140779186Y-124414170D01*
X140759303Y-124405391D01*
X140745722Y-124391810D01*
X140723223Y-124376777D01*
X140708189Y-124354277D01*
X140694608Y-124340696D01*
X140685827Y-124320810D01*
X140669030Y-124295671D01*
X140664359Y-124272189D01*
X140656787Y-124255040D01*
X140650964Y-124204849D01*
X140650000Y-124200000D01*
X140650000Y-123300000D01*
X140650964Y-123295150D01*
X140656787Y-123244959D01*
X140664359Y-123227808D01*
X140669030Y-123204329D01*
X140685826Y-123179191D01*
X140694608Y-123159303D01*
X140708191Y-123145719D01*
X140723223Y-123123223D01*
X140745719Y-123108191D01*
X140759303Y-123094608D01*
X140779191Y-123085826D01*
X140804329Y-123069030D01*
X140827808Y-123064359D01*
X140844959Y-123056787D01*
X140895151Y-123050964D01*
X140900000Y-123050000D01*
X141600000Y-123050000D01*
X141604850Y-123050964D01*
G37*
G36*
X143604850Y-123050964D02*
G01*
X143655040Y-123056787D01*
X143672189Y-123064359D01*
X143695671Y-123069030D01*
X143720810Y-123085827D01*
X143740696Y-123094608D01*
X143754277Y-123108189D01*
X143776777Y-123123223D01*
X143791810Y-123145722D01*
X143805391Y-123159303D01*
X143814170Y-123179186D01*
X143830970Y-123204329D01*
X143835641Y-123227812D01*
X143843212Y-123244959D01*
X143849033Y-123295139D01*
X143850000Y-123300000D01*
X143850000Y-124200000D01*
X143849032Y-124204863D01*
X143843212Y-124255040D01*
X143835641Y-124272185D01*
X143830970Y-124295671D01*
X143814169Y-124320815D01*
X143805391Y-124340696D01*
X143791812Y-124354274D01*
X143776777Y-124376777D01*
X143754274Y-124391812D01*
X143740696Y-124405391D01*
X143720815Y-124414169D01*
X143695671Y-124430970D01*
X143672185Y-124435641D01*
X143655040Y-124443212D01*
X143604861Y-124449032D01*
X143600000Y-124450000D01*
X142900000Y-124450000D01*
X142895138Y-124449032D01*
X142844959Y-124443212D01*
X142827812Y-124435641D01*
X142804329Y-124430970D01*
X142779186Y-124414170D01*
X142759303Y-124405391D01*
X142745722Y-124391810D01*
X142723223Y-124376777D01*
X142708189Y-124354277D01*
X142694608Y-124340696D01*
X142685827Y-124320810D01*
X142669030Y-124295671D01*
X142664359Y-124272189D01*
X142656787Y-124255040D01*
X142650964Y-124204849D01*
X142650000Y-124200000D01*
X142650000Y-123300000D01*
X142650964Y-123295150D01*
X142656787Y-123244959D01*
X142664359Y-123227808D01*
X142669030Y-123204329D01*
X142685826Y-123179191D01*
X142694608Y-123159303D01*
X142708191Y-123145719D01*
X142723223Y-123123223D01*
X142745719Y-123108191D01*
X142759303Y-123094608D01*
X142779191Y-123085826D01*
X142804329Y-123069030D01*
X142827808Y-123064359D01*
X142844959Y-123056787D01*
X142895151Y-123050964D01*
X142900000Y-123050000D01*
X143600000Y-123050000D01*
X143604850Y-123050964D01*
G37*
G36*
X130804850Y-122775964D02*
G01*
X130855040Y-122781787D01*
X130872189Y-122789359D01*
X130895671Y-122794030D01*
X130920810Y-122810827D01*
X130940696Y-122819608D01*
X130954277Y-122833189D01*
X130976777Y-122848223D01*
X130991810Y-122870722D01*
X131005391Y-122884303D01*
X131014170Y-122904186D01*
X131030970Y-122929329D01*
X131035641Y-122952812D01*
X131043212Y-122969959D01*
X131049033Y-123020139D01*
X131050000Y-123025000D01*
X131050000Y-123975000D01*
X131049032Y-123979863D01*
X131043212Y-124030040D01*
X131035641Y-124047185D01*
X131030970Y-124070671D01*
X131014169Y-124095815D01*
X131005391Y-124115696D01*
X130991812Y-124129274D01*
X130976777Y-124151777D01*
X130954274Y-124166812D01*
X130940696Y-124180391D01*
X130920815Y-124189169D01*
X130895671Y-124205970D01*
X130872185Y-124210641D01*
X130855040Y-124218212D01*
X130804861Y-124224032D01*
X130800000Y-124225000D01*
X130125000Y-124225000D01*
X130120138Y-124224032D01*
X130069959Y-124218212D01*
X130052812Y-124210641D01*
X130029329Y-124205970D01*
X130004186Y-124189170D01*
X129984303Y-124180391D01*
X129970722Y-124166810D01*
X129948223Y-124151777D01*
X129933189Y-124129277D01*
X129919608Y-124115696D01*
X129910827Y-124095810D01*
X129894030Y-124070671D01*
X129889359Y-124047189D01*
X129881787Y-124030040D01*
X129875964Y-123979849D01*
X129875000Y-123975000D01*
X129875000Y-123025000D01*
X129875964Y-123020150D01*
X129881787Y-122969959D01*
X129889359Y-122952808D01*
X129894030Y-122929329D01*
X129910826Y-122904191D01*
X129919608Y-122884303D01*
X129933191Y-122870719D01*
X129948223Y-122848223D01*
X129970719Y-122833191D01*
X129984303Y-122819608D01*
X130004191Y-122810826D01*
X130029329Y-122794030D01*
X130052808Y-122789359D01*
X130069959Y-122781787D01*
X130120151Y-122775964D01*
X130125000Y-122775000D01*
X130800000Y-122775000D01*
X130804850Y-122775964D01*
G37*
G36*
X132879850Y-122775964D02*
G01*
X132930040Y-122781787D01*
X132947189Y-122789359D01*
X132970671Y-122794030D01*
X132995810Y-122810827D01*
X133015696Y-122819608D01*
X133029277Y-122833189D01*
X133051777Y-122848223D01*
X133066810Y-122870722D01*
X133080391Y-122884303D01*
X133089170Y-122904186D01*
X133105970Y-122929329D01*
X133110641Y-122952812D01*
X133118212Y-122969959D01*
X133124033Y-123020139D01*
X133125000Y-123025000D01*
X133125000Y-123975000D01*
X133124032Y-123979863D01*
X133118212Y-124030040D01*
X133110641Y-124047185D01*
X133105970Y-124070671D01*
X133089169Y-124095815D01*
X133080391Y-124115696D01*
X133066812Y-124129274D01*
X133051777Y-124151777D01*
X133029274Y-124166812D01*
X133015696Y-124180391D01*
X132995815Y-124189169D01*
X132970671Y-124205970D01*
X132947185Y-124210641D01*
X132930040Y-124218212D01*
X132879861Y-124224032D01*
X132875000Y-124225000D01*
X132200000Y-124225000D01*
X132195138Y-124224032D01*
X132144959Y-124218212D01*
X132127812Y-124210641D01*
X132104329Y-124205970D01*
X132079186Y-124189170D01*
X132059303Y-124180391D01*
X132045722Y-124166810D01*
X132023223Y-124151777D01*
X132008189Y-124129277D01*
X131994608Y-124115696D01*
X131985827Y-124095810D01*
X131969030Y-124070671D01*
X131964359Y-124047189D01*
X131956787Y-124030040D01*
X131950964Y-123979849D01*
X131950000Y-123975000D01*
X131950000Y-123025000D01*
X131950964Y-123020150D01*
X131956787Y-122969959D01*
X131964359Y-122952808D01*
X131969030Y-122929329D01*
X131985826Y-122904191D01*
X131994608Y-122884303D01*
X132008191Y-122870719D01*
X132023223Y-122848223D01*
X132045719Y-122833191D01*
X132059303Y-122819608D01*
X132079191Y-122810826D01*
X132104329Y-122794030D01*
X132127808Y-122789359D01*
X132144959Y-122781787D01*
X132195151Y-122775964D01*
X132200000Y-122775000D01*
X132875000Y-122775000D01*
X132879850Y-122775964D01*
G37*
G36*
X125854850Y-122800964D02*
G01*
X125905040Y-122806787D01*
X125922189Y-122814359D01*
X125945671Y-122819030D01*
X125970810Y-122835827D01*
X125990696Y-122844608D01*
X126004277Y-122858189D01*
X126026777Y-122873223D01*
X126041810Y-122895722D01*
X126055391Y-122909303D01*
X126064170Y-122929186D01*
X126080970Y-122954329D01*
X126085641Y-122977812D01*
X126093212Y-122994959D01*
X126099033Y-123045139D01*
X126100000Y-123050000D01*
X126100000Y-123950000D01*
X126099032Y-123954863D01*
X126093212Y-124005040D01*
X126085641Y-124022185D01*
X126080970Y-124045671D01*
X126064169Y-124070815D01*
X126055391Y-124090696D01*
X126041812Y-124104274D01*
X126026777Y-124126777D01*
X126004274Y-124141812D01*
X125990696Y-124155391D01*
X125970815Y-124164169D01*
X125945671Y-124180970D01*
X125922185Y-124185641D01*
X125905040Y-124193212D01*
X125854861Y-124199032D01*
X125850000Y-124200000D01*
X125150000Y-124200000D01*
X125145138Y-124199032D01*
X125094959Y-124193212D01*
X125077812Y-124185641D01*
X125054329Y-124180970D01*
X125029186Y-124164170D01*
X125009303Y-124155391D01*
X124995722Y-124141810D01*
X124973223Y-124126777D01*
X124958189Y-124104277D01*
X124944608Y-124090696D01*
X124935827Y-124070810D01*
X124919030Y-124045671D01*
X124914359Y-124022189D01*
X124906787Y-124005040D01*
X124900964Y-123954849D01*
X124900000Y-123950000D01*
X124900000Y-123050000D01*
X124900964Y-123045150D01*
X124906787Y-122994959D01*
X124914359Y-122977808D01*
X124919030Y-122954329D01*
X124935826Y-122929191D01*
X124944608Y-122909303D01*
X124958191Y-122895719D01*
X124973223Y-122873223D01*
X124995719Y-122858191D01*
X125009303Y-122844608D01*
X125029191Y-122835826D01*
X125054329Y-122819030D01*
X125077808Y-122814359D01*
X125094959Y-122806787D01*
X125145151Y-122800964D01*
X125150000Y-122800000D01*
X125850000Y-122800000D01*
X125854850Y-122800964D01*
G37*
G36*
X127854850Y-122800964D02*
G01*
X127905040Y-122806787D01*
X127922189Y-122814359D01*
X127945671Y-122819030D01*
X127970810Y-122835827D01*
X127990696Y-122844608D01*
X128004277Y-122858189D01*
X128026777Y-122873223D01*
X128041810Y-122895722D01*
X128055391Y-122909303D01*
X128064170Y-122929186D01*
X128080970Y-122954329D01*
X128085641Y-122977812D01*
X128093212Y-122994959D01*
X128099033Y-123045139D01*
X128100000Y-123050000D01*
X128100000Y-123950000D01*
X128099032Y-123954863D01*
X128093212Y-124005040D01*
X128085641Y-124022185D01*
X128080970Y-124045671D01*
X128064169Y-124070815D01*
X128055391Y-124090696D01*
X128041812Y-124104274D01*
X128026777Y-124126777D01*
X128004274Y-124141812D01*
X127990696Y-124155391D01*
X127970815Y-124164169D01*
X127945671Y-124180970D01*
X127922185Y-124185641D01*
X127905040Y-124193212D01*
X127854861Y-124199032D01*
X127850000Y-124200000D01*
X127150000Y-124200000D01*
X127145138Y-124199032D01*
X127094959Y-124193212D01*
X127077812Y-124185641D01*
X127054329Y-124180970D01*
X127029186Y-124164170D01*
X127009303Y-124155391D01*
X126995722Y-124141810D01*
X126973223Y-124126777D01*
X126958189Y-124104277D01*
X126944608Y-124090696D01*
X126935827Y-124070810D01*
X126919030Y-124045671D01*
X126914359Y-124022189D01*
X126906787Y-124005040D01*
X126900964Y-123954849D01*
X126900000Y-123950000D01*
X126900000Y-123050000D01*
X126900964Y-123045150D01*
X126906787Y-122994959D01*
X126914359Y-122977808D01*
X126919030Y-122954329D01*
X126935826Y-122929191D01*
X126944608Y-122909303D01*
X126958191Y-122895719D01*
X126973223Y-122873223D01*
X126995719Y-122858191D01*
X127009303Y-122844608D01*
X127029191Y-122835826D01*
X127054329Y-122819030D01*
X127077808Y-122814359D01*
X127094959Y-122806787D01*
X127145151Y-122800964D01*
X127150000Y-122800000D01*
X127850000Y-122800000D01*
X127854850Y-122800964D01*
G37*
G36*
X157237664Y-120871602D02*
G01*
X157400000Y-120943878D01*
X157543761Y-121048327D01*
X157662664Y-121180383D01*
X157751514Y-121334274D01*
X157806425Y-121503275D01*
X157825000Y-121680000D01*
X157806425Y-121856725D01*
X157751514Y-122025726D01*
X157662664Y-122179617D01*
X157543761Y-122311673D01*
X157400000Y-122416122D01*
X157237664Y-122488398D01*
X157063849Y-122525344D01*
X156886151Y-122525344D01*
X156712336Y-122488398D01*
X156550000Y-122416122D01*
X156406239Y-122311673D01*
X156287336Y-122179617D01*
X156198486Y-122025726D01*
X156143575Y-121856725D01*
X156125000Y-121680000D01*
X156143575Y-121503275D01*
X156198486Y-121334274D01*
X156287336Y-121180383D01*
X156406239Y-121048327D01*
X156550000Y-120943878D01*
X156712336Y-120871602D01*
X156886151Y-120834656D01*
X157063849Y-120834656D01*
X157237664Y-120871602D01*
G37*
G36*
X125854850Y-119300964D02*
G01*
X125905040Y-119306787D01*
X125922189Y-119314359D01*
X125945671Y-119319030D01*
X125970810Y-119335827D01*
X125990696Y-119344608D01*
X126004277Y-119358189D01*
X126026777Y-119373223D01*
X126041810Y-119395722D01*
X126055391Y-119409303D01*
X126064170Y-119429186D01*
X126080970Y-119454329D01*
X126085641Y-119477812D01*
X126093212Y-119494959D01*
X126099033Y-119545139D01*
X126100000Y-119550000D01*
X126100000Y-120450000D01*
X126099032Y-120454863D01*
X126093212Y-120505040D01*
X126085641Y-120522185D01*
X126080970Y-120545671D01*
X126064169Y-120570815D01*
X126055391Y-120590696D01*
X126041812Y-120604274D01*
X126026777Y-120626777D01*
X126004274Y-120641812D01*
X125990696Y-120655391D01*
X125970815Y-120664169D01*
X125945671Y-120680970D01*
X125922185Y-120685641D01*
X125905040Y-120693212D01*
X125854861Y-120699032D01*
X125850000Y-120700000D01*
X125150000Y-120700000D01*
X125145138Y-120699032D01*
X125094959Y-120693212D01*
X125077812Y-120685641D01*
X125054329Y-120680970D01*
X125029186Y-120664170D01*
X125009303Y-120655391D01*
X124995722Y-120641810D01*
X124973223Y-120626777D01*
X124958189Y-120604277D01*
X124944608Y-120590696D01*
X124935827Y-120570810D01*
X124919030Y-120545671D01*
X124914359Y-120522189D01*
X124906787Y-120505040D01*
X124900964Y-120454849D01*
X124900000Y-120450000D01*
X124900000Y-119550000D01*
X124900964Y-119545150D01*
X124906787Y-119494959D01*
X124914359Y-119477808D01*
X124919030Y-119454329D01*
X124935826Y-119429191D01*
X124944608Y-119409303D01*
X124958191Y-119395719D01*
X124973223Y-119373223D01*
X124995719Y-119358191D01*
X125009303Y-119344608D01*
X125029191Y-119335826D01*
X125054329Y-119319030D01*
X125077808Y-119314359D01*
X125094959Y-119306787D01*
X125145151Y-119300964D01*
X125150000Y-119300000D01*
X125850000Y-119300000D01*
X125854850Y-119300964D01*
G37*
G36*
X127854850Y-119300964D02*
G01*
X127905040Y-119306787D01*
X127922189Y-119314359D01*
X127945671Y-119319030D01*
X127970810Y-119335827D01*
X127990696Y-119344608D01*
X128004277Y-119358189D01*
X128026777Y-119373223D01*
X128041810Y-119395722D01*
X128055391Y-119409303D01*
X128064170Y-119429186D01*
X128080970Y-119454329D01*
X128085641Y-119477812D01*
X128093212Y-119494959D01*
X128099033Y-119545139D01*
X128100000Y-119550000D01*
X128100000Y-120450000D01*
X128099032Y-120454863D01*
X128093212Y-120505040D01*
X128085641Y-120522185D01*
X128080970Y-120545671D01*
X128064169Y-120570815D01*
X128055391Y-120590696D01*
X128041812Y-120604274D01*
X128026777Y-120626777D01*
X128004274Y-120641812D01*
X127990696Y-120655391D01*
X127970815Y-120664169D01*
X127945671Y-120680970D01*
X127922185Y-120685641D01*
X127905040Y-120693212D01*
X127854861Y-120699032D01*
X127850000Y-120700000D01*
X127150000Y-120700000D01*
X127145138Y-120699032D01*
X127094959Y-120693212D01*
X127077812Y-120685641D01*
X127054329Y-120680970D01*
X127029186Y-120664170D01*
X127009303Y-120655391D01*
X126995722Y-120641810D01*
X126973223Y-120626777D01*
X126958189Y-120604277D01*
X126944608Y-120590696D01*
X126935827Y-120570810D01*
X126919030Y-120545671D01*
X126914359Y-120522189D01*
X126906787Y-120505040D01*
X126900964Y-120454849D01*
X126900000Y-120450000D01*
X126900000Y-119550000D01*
X126900964Y-119545150D01*
X126906787Y-119494959D01*
X126914359Y-119477808D01*
X126919030Y-119454329D01*
X126935826Y-119429191D01*
X126944608Y-119409303D01*
X126958191Y-119395719D01*
X126973223Y-119373223D01*
X126995719Y-119358191D01*
X127009303Y-119344608D01*
X127029191Y-119335826D01*
X127054329Y-119319030D01*
X127077808Y-119314359D01*
X127094959Y-119306787D01*
X127145151Y-119300964D01*
X127150000Y-119300000D01*
X127850000Y-119300000D01*
X127854850Y-119300964D01*
G37*
G36*
X117200000Y-120150000D02*
G01*
X116150000Y-120150000D01*
X116150000Y-119500000D01*
X117200000Y-119500000D01*
X117200000Y-120150000D01*
G37*
G36*
X121350000Y-120150000D02*
G01*
X120300000Y-120150000D01*
X120300000Y-119500000D01*
X121350000Y-119500000D01*
X121350000Y-120150000D01*
G37*
G36*
X134215000Y-120150000D02*
G01*
X133315000Y-120150000D01*
X133315000Y-118650000D01*
X134215000Y-118650000D01*
X134215000Y-120150000D01*
G37*
G36*
X135485000Y-120150000D02*
G01*
X134585000Y-120150000D01*
X134585000Y-118650000D01*
X135485000Y-118650000D01*
X135485000Y-120150000D01*
G37*
G36*
X136755000Y-120150000D02*
G01*
X135855000Y-120150000D01*
X135855000Y-118650000D01*
X136755000Y-118650000D01*
X136755000Y-120150000D01*
G37*
G36*
X138025000Y-120150000D02*
G01*
X137125000Y-120150000D01*
X137125000Y-118650000D01*
X138025000Y-118650000D01*
X138025000Y-120150000D01*
G37*
G36*
X139295000Y-120150000D02*
G01*
X138395000Y-120150000D01*
X138395000Y-118650000D01*
X139295000Y-118650000D01*
X139295000Y-120150000D01*
G37*
G36*
X140565000Y-120150000D02*
G01*
X139665000Y-120150000D01*
X139665000Y-118650000D01*
X140565000Y-118650000D01*
X140565000Y-120150000D01*
G37*
G36*
X141835000Y-120150000D02*
G01*
X140935000Y-120150000D01*
X140935000Y-118650000D01*
X141835000Y-118650000D01*
X141835000Y-120150000D01*
G37*
G36*
X143105000Y-120150000D02*
G01*
X142205000Y-120150000D01*
X142205000Y-118650000D01*
X143105000Y-118650000D01*
X143105000Y-120150000D01*
G37*
G36*
X144375000Y-120150000D02*
G01*
X143475000Y-120150000D01*
X143475000Y-118650000D01*
X144375000Y-118650000D01*
X144375000Y-120150000D01*
G37*
G36*
X145645000Y-120150000D02*
G01*
X144745000Y-120150000D01*
X144745000Y-118650000D01*
X145645000Y-118650000D01*
X145645000Y-120150000D01*
G37*
G36*
X146915000Y-120150000D02*
G01*
X146015000Y-120150000D01*
X146015000Y-118650000D01*
X146915000Y-118650000D01*
X146915000Y-120150000D01*
G37*
G36*
X148185000Y-120150000D02*
G01*
X147285000Y-120150000D01*
X147285000Y-118650000D01*
X148185000Y-118650000D01*
X148185000Y-120150000D01*
G37*
G36*
X132750000Y-118600000D02*
G01*
X131250000Y-118600000D01*
X131250000Y-117700000D01*
X132750000Y-117700000D01*
X132750000Y-118600000D01*
G37*
G36*
X150250000Y-118600000D02*
G01*
X148750000Y-118600000D01*
X148750000Y-117700000D01*
X150250000Y-117700000D01*
X150250000Y-118600000D01*
G37*
G36*
X117200000Y-118000000D02*
G01*
X116150000Y-118000000D01*
X116150000Y-117350000D01*
X117200000Y-117350000D01*
X117200000Y-118000000D01*
G37*
G36*
X121350000Y-118000000D02*
G01*
X120300000Y-118000000D01*
X120300000Y-117350000D01*
X121350000Y-117350000D01*
X121350000Y-118000000D01*
G37*
G36*
X132750000Y-117330000D02*
G01*
X131250000Y-117330000D01*
X131250000Y-116430000D01*
X132750000Y-116430000D01*
X132750000Y-117330000D01*
G37*
G36*
X150250000Y-117330000D02*
G01*
X148750000Y-117330000D01*
X148750000Y-116430000D01*
X150250000Y-116430000D01*
X150250000Y-117330000D01*
G37*
G36*
X153767350Y-115525964D02*
G01*
X153817540Y-115531787D01*
X153834689Y-115539359D01*
X153858171Y-115544030D01*
X153883310Y-115560827D01*
X153903196Y-115569608D01*
X153916777Y-115583189D01*
X153939277Y-115598223D01*
X153954310Y-115620722D01*
X153967891Y-115634303D01*
X153976670Y-115654186D01*
X153993470Y-115679329D01*
X153998141Y-115702812D01*
X154005712Y-115719959D01*
X154011533Y-115770139D01*
X154012500Y-115775000D01*
X154012500Y-116725000D01*
X154011532Y-116729863D01*
X154005712Y-116780040D01*
X153998141Y-116797185D01*
X153993470Y-116820671D01*
X153976669Y-116845815D01*
X153967891Y-116865696D01*
X153954312Y-116879274D01*
X153939277Y-116901777D01*
X153916774Y-116916812D01*
X153903196Y-116930391D01*
X153883315Y-116939169D01*
X153858171Y-116955970D01*
X153834685Y-116960641D01*
X153817540Y-116968212D01*
X153767361Y-116974032D01*
X153762500Y-116975000D01*
X153087500Y-116975000D01*
X153082638Y-116974032D01*
X153032459Y-116968212D01*
X153015312Y-116960641D01*
X152991829Y-116955970D01*
X152966686Y-116939170D01*
X152946803Y-116930391D01*
X152933222Y-116916810D01*
X152910723Y-116901777D01*
X152895689Y-116879277D01*
X152882108Y-116865696D01*
X152873327Y-116845810D01*
X152856530Y-116820671D01*
X152851859Y-116797189D01*
X152844287Y-116780040D01*
X152838464Y-116729849D01*
X152837500Y-116725000D01*
X152837500Y-115775000D01*
X152838464Y-115770150D01*
X152844287Y-115719959D01*
X152851859Y-115702808D01*
X152856530Y-115679329D01*
X152873326Y-115654191D01*
X152882108Y-115634303D01*
X152895691Y-115620719D01*
X152910723Y-115598223D01*
X152933219Y-115583191D01*
X152946803Y-115569608D01*
X152966691Y-115560826D01*
X152991829Y-115544030D01*
X153015308Y-115539359D01*
X153032459Y-115531787D01*
X153082651Y-115525964D01*
X153087500Y-115525000D01*
X153762500Y-115525000D01*
X153767350Y-115525964D01*
G37*
G36*
X155842350Y-115525964D02*
G01*
X155892540Y-115531787D01*
X155909689Y-115539359D01*
X155933171Y-115544030D01*
X155958310Y-115560827D01*
X155978196Y-115569608D01*
X155991777Y-115583189D01*
X156014277Y-115598223D01*
X156029310Y-115620722D01*
X156042891Y-115634303D01*
X156051670Y-115654186D01*
X156068470Y-115679329D01*
X156073141Y-115702812D01*
X156080712Y-115719959D01*
X156086533Y-115770139D01*
X156087500Y-115775000D01*
X156087500Y-116725000D01*
X156086532Y-116729863D01*
X156080712Y-116780040D01*
X156073141Y-116797185D01*
X156068470Y-116820671D01*
X156051669Y-116845815D01*
X156042891Y-116865696D01*
X156029312Y-116879274D01*
X156014277Y-116901777D01*
X155991774Y-116916812D01*
X155978196Y-116930391D01*
X155958315Y-116939169D01*
X155933171Y-116955970D01*
X155909685Y-116960641D01*
X155892540Y-116968212D01*
X155842361Y-116974032D01*
X155837500Y-116975000D01*
X155162500Y-116975000D01*
X155157638Y-116974032D01*
X155107459Y-116968212D01*
X155090312Y-116960641D01*
X155066829Y-116955970D01*
X155041686Y-116939170D01*
X155021803Y-116930391D01*
X155008222Y-116916810D01*
X154985723Y-116901777D01*
X154970689Y-116879277D01*
X154957108Y-116865696D01*
X154948327Y-116845810D01*
X154931530Y-116820671D01*
X154926859Y-116797189D01*
X154919287Y-116780040D01*
X154913464Y-116729849D01*
X154912500Y-116725000D01*
X154912500Y-115775000D01*
X154913464Y-115770150D01*
X154919287Y-115719959D01*
X154926859Y-115702808D01*
X154931530Y-115679329D01*
X154948326Y-115654191D01*
X154957108Y-115634303D01*
X154970691Y-115620719D01*
X154985723Y-115598223D01*
X155008219Y-115583191D01*
X155021803Y-115569608D01*
X155041691Y-115560826D01*
X155066829Y-115544030D01*
X155090308Y-115539359D01*
X155107459Y-115531787D01*
X155157651Y-115525964D01*
X155162500Y-115525000D01*
X155837500Y-115525000D01*
X155842350Y-115525964D01*
G37*
G36*
X132750000Y-116060000D02*
G01*
X131250000Y-116060000D01*
X131250000Y-115160000D01*
X132750000Y-115160000D01*
X132750000Y-116060000D01*
G37*
G36*
X150250000Y-116060000D02*
G01*
X148750000Y-116060000D01*
X148750000Y-115160000D01*
X150250000Y-115160000D01*
X150250000Y-116060000D01*
G37*
G36*
X132750000Y-114790000D02*
G01*
X131250000Y-114790000D01*
X131250000Y-113890000D01*
X132750000Y-113890000D01*
X132750000Y-114790000D01*
G37*
G36*
X150250000Y-114790000D02*
G01*
X148750000Y-114790000D01*
X148750000Y-113890000D01*
X150250000Y-113890000D01*
X150250000Y-114790000D01*
G37*
G36*
X132750000Y-113520000D02*
G01*
X131250000Y-113520000D01*
X131250000Y-112620000D01*
X132750000Y-112620000D01*
X132750000Y-113520000D01*
G37*
G36*
X150250000Y-113520000D02*
G01*
X148750000Y-113520000D01*
X148750000Y-112620000D01*
X150250000Y-112620000D01*
X150250000Y-113520000D01*
G37*
G36*
X117054850Y-112025964D02*
G01*
X117105040Y-112031787D01*
X117122189Y-112039359D01*
X117145671Y-112044030D01*
X117170810Y-112060827D01*
X117190696Y-112069608D01*
X117204277Y-112083189D01*
X117226777Y-112098223D01*
X117241810Y-112120722D01*
X117255391Y-112134303D01*
X117264170Y-112154186D01*
X117280970Y-112179329D01*
X117285641Y-112202812D01*
X117293212Y-112219959D01*
X117299033Y-112270139D01*
X117300000Y-112275000D01*
X117300000Y-113225000D01*
X117299032Y-113229863D01*
X117293212Y-113280040D01*
X117285641Y-113297185D01*
X117280970Y-113320671D01*
X117264169Y-113345815D01*
X117255391Y-113365696D01*
X117241812Y-113379274D01*
X117226777Y-113401777D01*
X117204274Y-113416812D01*
X117190696Y-113430391D01*
X117170815Y-113439169D01*
X117145671Y-113455970D01*
X117122185Y-113460641D01*
X117105040Y-113468212D01*
X117054861Y-113474032D01*
X117050000Y-113475000D01*
X116375000Y-113475000D01*
X116370138Y-113474032D01*
X116319959Y-113468212D01*
X116302812Y-113460641D01*
X116279329Y-113455970D01*
X116254186Y-113439170D01*
X116234303Y-113430391D01*
X116220722Y-113416810D01*
X116198223Y-113401777D01*
X116183189Y-113379277D01*
X116169608Y-113365696D01*
X116160827Y-113345810D01*
X116144030Y-113320671D01*
X116139359Y-113297189D01*
X116131787Y-113280040D01*
X116125964Y-113229849D01*
X116125000Y-113225000D01*
X116125000Y-112275000D01*
X116125964Y-112270150D01*
X116131787Y-112219959D01*
X116139359Y-112202808D01*
X116144030Y-112179329D01*
X116160826Y-112154191D01*
X116169608Y-112134303D01*
X116183191Y-112120719D01*
X116198223Y-112098223D01*
X116220719Y-112083191D01*
X116234303Y-112069608D01*
X116254191Y-112060826D01*
X116279329Y-112044030D01*
X116302808Y-112039359D01*
X116319959Y-112031787D01*
X116370151Y-112025964D01*
X116375000Y-112025000D01*
X117050000Y-112025000D01*
X117054850Y-112025964D01*
G37*
G36*
X119129850Y-112025964D02*
G01*
X119180040Y-112031787D01*
X119197189Y-112039359D01*
X119220671Y-112044030D01*
X119245810Y-112060827D01*
X119265696Y-112069608D01*
X119279277Y-112083189D01*
X119301777Y-112098223D01*
X119316810Y-112120722D01*
X119330391Y-112134303D01*
X119339170Y-112154186D01*
X119355970Y-112179329D01*
X119360641Y-112202812D01*
X119368212Y-112219959D01*
X119374033Y-112270139D01*
X119375000Y-112275000D01*
X119375000Y-113225000D01*
X119374032Y-113229863D01*
X119368212Y-113280040D01*
X119360641Y-113297185D01*
X119355970Y-113320671D01*
X119339169Y-113345815D01*
X119330391Y-113365696D01*
X119316812Y-113379274D01*
X119301777Y-113401777D01*
X119279274Y-113416812D01*
X119265696Y-113430391D01*
X119245815Y-113439169D01*
X119220671Y-113455970D01*
X119197185Y-113460641D01*
X119180040Y-113468212D01*
X119129861Y-113474032D01*
X119125000Y-113475000D01*
X118450000Y-113475000D01*
X118445138Y-113474032D01*
X118394959Y-113468212D01*
X118377812Y-113460641D01*
X118354329Y-113455970D01*
X118329186Y-113439170D01*
X118309303Y-113430391D01*
X118295722Y-113416810D01*
X118273223Y-113401777D01*
X118258189Y-113379277D01*
X118244608Y-113365696D01*
X118235827Y-113345810D01*
X118219030Y-113320671D01*
X118214359Y-113297189D01*
X118206787Y-113280040D01*
X118200964Y-113229849D01*
X118200000Y-113225000D01*
X118200000Y-112275000D01*
X118200964Y-112270150D01*
X118206787Y-112219959D01*
X118214359Y-112202808D01*
X118219030Y-112179329D01*
X118235826Y-112154191D01*
X118244608Y-112134303D01*
X118258191Y-112120719D01*
X118273223Y-112098223D01*
X118295719Y-112083191D01*
X118309303Y-112069608D01*
X118329191Y-112060826D01*
X118354329Y-112044030D01*
X118377808Y-112039359D01*
X118394959Y-112031787D01*
X118445151Y-112025964D01*
X118450000Y-112025000D01*
X119125000Y-112025000D01*
X119129850Y-112025964D01*
G37*
G36*
X153925000Y-113425000D02*
G01*
X153275000Y-113425000D01*
X153275000Y-112375000D01*
X153925000Y-112375000D01*
X153925000Y-113425000D01*
G37*
G36*
X156075000Y-113425000D02*
G01*
X155425000Y-113425000D01*
X155425000Y-112375000D01*
X156075000Y-112375000D01*
X156075000Y-113425000D01*
G37*
G36*
X132750000Y-112250000D02*
G01*
X131250000Y-112250000D01*
X131250000Y-111350000D01*
X132750000Y-111350000D01*
X132750000Y-112250000D01*
G37*
G36*
X150250000Y-112250000D02*
G01*
X148750000Y-112250000D01*
X148750000Y-111350000D01*
X150250000Y-111350000D01*
X150250000Y-112250000D01*
G37*
G36*
X141200000Y-111310000D02*
G01*
X137300000Y-111310000D01*
X137300000Y-107410000D01*
X141200000Y-107410000D01*
X141200000Y-111310000D01*
G37*
G36*
X132750000Y-110980000D02*
G01*
X131250000Y-110980000D01*
X131250000Y-110080000D01*
X132750000Y-110080000D01*
X132750000Y-110980000D01*
G37*
G36*
X150250000Y-110980000D02*
G01*
X148750000Y-110980000D01*
X148750000Y-110080000D01*
X150250000Y-110080000D01*
X150250000Y-110980000D01*
G37*
G36*
X132750000Y-109710000D02*
G01*
X131250000Y-109710000D01*
X131250000Y-108810000D01*
X132750000Y-108810000D01*
X132750000Y-109710000D01*
G37*
G36*
X150250000Y-109710000D02*
G01*
X148750000Y-109710000D01*
X148750000Y-108810000D01*
X150250000Y-108810000D01*
X150250000Y-109710000D01*
G37*
G36*
X117104850Y-108300964D02*
G01*
X117155040Y-108306787D01*
X117172189Y-108314359D01*
X117195671Y-108319030D01*
X117220810Y-108335827D01*
X117240696Y-108344608D01*
X117254277Y-108358189D01*
X117276777Y-108373223D01*
X117291810Y-108395722D01*
X117305391Y-108409303D01*
X117314170Y-108429186D01*
X117330970Y-108454329D01*
X117335641Y-108477812D01*
X117343212Y-108494959D01*
X117349033Y-108545139D01*
X117350000Y-108550000D01*
X117350000Y-109450000D01*
X117349032Y-109454863D01*
X117343212Y-109505040D01*
X117335641Y-109522185D01*
X117330970Y-109545671D01*
X117314169Y-109570815D01*
X117305391Y-109590696D01*
X117291812Y-109604274D01*
X117276777Y-109626777D01*
X117254274Y-109641812D01*
X117240696Y-109655391D01*
X117220815Y-109664169D01*
X117195671Y-109680970D01*
X117172185Y-109685641D01*
X117155040Y-109693212D01*
X117104861Y-109699032D01*
X117100000Y-109700000D01*
X116400000Y-109700000D01*
X116395138Y-109699032D01*
X116344959Y-109693212D01*
X116327812Y-109685641D01*
X116304329Y-109680970D01*
X116279186Y-109664170D01*
X116259303Y-109655391D01*
X116245722Y-109641810D01*
X116223223Y-109626777D01*
X116208189Y-109604277D01*
X116194608Y-109590696D01*
X116185827Y-109570810D01*
X116169030Y-109545671D01*
X116164359Y-109522189D01*
X116156787Y-109505040D01*
X116150964Y-109454849D01*
X116150000Y-109450000D01*
X116150000Y-108550000D01*
X116150964Y-108545150D01*
X116156787Y-108494959D01*
X116164359Y-108477808D01*
X116169030Y-108454329D01*
X116185826Y-108429191D01*
X116194608Y-108409303D01*
X116208191Y-108395719D01*
X116223223Y-108373223D01*
X116245719Y-108358191D01*
X116259303Y-108344608D01*
X116279191Y-108335826D01*
X116304329Y-108319030D01*
X116327808Y-108314359D01*
X116344959Y-108306787D01*
X116395151Y-108300964D01*
X116400000Y-108300000D01*
X117100000Y-108300000D01*
X117104850Y-108300964D01*
G37*
G36*
X119104850Y-108300964D02*
G01*
X119155040Y-108306787D01*
X119172189Y-108314359D01*
X119195671Y-108319030D01*
X119220810Y-108335827D01*
X119240696Y-108344608D01*
X119254277Y-108358189D01*
X119276777Y-108373223D01*
X119291810Y-108395722D01*
X119305391Y-108409303D01*
X119314170Y-108429186D01*
X119330970Y-108454329D01*
X119335641Y-108477812D01*
X119343212Y-108494959D01*
X119349033Y-108545139D01*
X119350000Y-108550000D01*
X119350000Y-109450000D01*
X119349032Y-109454863D01*
X119343212Y-109505040D01*
X119335641Y-109522185D01*
X119330970Y-109545671D01*
X119314169Y-109570815D01*
X119305391Y-109590696D01*
X119291812Y-109604274D01*
X119276777Y-109626777D01*
X119254274Y-109641812D01*
X119240696Y-109655391D01*
X119220815Y-109664169D01*
X119195671Y-109680970D01*
X119172185Y-109685641D01*
X119155040Y-109693212D01*
X119104861Y-109699032D01*
X119100000Y-109700000D01*
X118400000Y-109700000D01*
X118395138Y-109699032D01*
X118344959Y-109693212D01*
X118327812Y-109685641D01*
X118304329Y-109680970D01*
X118279186Y-109664170D01*
X118259303Y-109655391D01*
X118245722Y-109641810D01*
X118223223Y-109626777D01*
X118208189Y-109604277D01*
X118194608Y-109590696D01*
X118185827Y-109570810D01*
X118169030Y-109545671D01*
X118164359Y-109522189D01*
X118156787Y-109505040D01*
X118150964Y-109454849D01*
X118150000Y-109450000D01*
X118150000Y-108550000D01*
X118150964Y-108545150D01*
X118156787Y-108494959D01*
X118164359Y-108477808D01*
X118169030Y-108454329D01*
X118185826Y-108429191D01*
X118194608Y-108409303D01*
X118208191Y-108395719D01*
X118223223Y-108373223D01*
X118245719Y-108358191D01*
X118259303Y-108344608D01*
X118279191Y-108335826D01*
X118304329Y-108319030D01*
X118327808Y-108314359D01*
X118344959Y-108306787D01*
X118395151Y-108300964D01*
X118400000Y-108300000D01*
X119100000Y-108300000D01*
X119104850Y-108300964D01*
G37*
G36*
X153925000Y-109275000D02*
G01*
X153275000Y-109275000D01*
X153275000Y-108225000D01*
X153925000Y-108225000D01*
X153925000Y-109275000D01*
G37*
G36*
X156075000Y-109275000D02*
G01*
X155425000Y-109275000D01*
X155425000Y-108225000D01*
X156075000Y-108225000D01*
X156075000Y-109275000D01*
G37*
G36*
X132750000Y-108440000D02*
G01*
X131250000Y-108440000D01*
X131250000Y-107540000D01*
X132750000Y-107540000D01*
X132750000Y-108440000D01*
G37*
G36*
X150250000Y-108440000D02*
G01*
X148750000Y-108440000D01*
X148750000Y-107540000D01*
X150250000Y-107540000D01*
X150250000Y-108440000D01*
G37*
G36*
X126054850Y-106275964D02*
G01*
X126105040Y-106281787D01*
X126122189Y-106289359D01*
X126145671Y-106294030D01*
X126170810Y-106310827D01*
X126190696Y-106319608D01*
X126204277Y-106333189D01*
X126226777Y-106348223D01*
X126241810Y-106370722D01*
X126255391Y-106384303D01*
X126264170Y-106404186D01*
X126280970Y-106429329D01*
X126285641Y-106452812D01*
X126293212Y-106469959D01*
X126299033Y-106520139D01*
X126300000Y-106525000D01*
X126300000Y-107475000D01*
X126299032Y-107479863D01*
X126293212Y-107530040D01*
X126285641Y-107547185D01*
X126280970Y-107570671D01*
X126264169Y-107595815D01*
X126255391Y-107615696D01*
X126241812Y-107629274D01*
X126226777Y-107651777D01*
X126204274Y-107666812D01*
X126190696Y-107680391D01*
X126170815Y-107689169D01*
X126145671Y-107705970D01*
X126122185Y-107710641D01*
X126105040Y-107718212D01*
X126054861Y-107724032D01*
X126050000Y-107725000D01*
X125375000Y-107725000D01*
X125370138Y-107724032D01*
X125319959Y-107718212D01*
X125302812Y-107710641D01*
X125279329Y-107705970D01*
X125254186Y-107689170D01*
X125234303Y-107680391D01*
X125220722Y-107666810D01*
X125198223Y-107651777D01*
X125183189Y-107629277D01*
X125169608Y-107615696D01*
X125160827Y-107595810D01*
X125144030Y-107570671D01*
X125139359Y-107547189D01*
X125131787Y-107530040D01*
X125125964Y-107479849D01*
X125125000Y-107475000D01*
X125125000Y-106525000D01*
X125125964Y-106520150D01*
X125131787Y-106469959D01*
X125139359Y-106452808D01*
X125144030Y-106429329D01*
X125160826Y-106404191D01*
X125169608Y-106384303D01*
X125183191Y-106370719D01*
X125198223Y-106348223D01*
X125220719Y-106333191D01*
X125234303Y-106319608D01*
X125254191Y-106310826D01*
X125279329Y-106294030D01*
X125302808Y-106289359D01*
X125319959Y-106281787D01*
X125370151Y-106275964D01*
X125375000Y-106275000D01*
X126050000Y-106275000D01*
X126054850Y-106275964D01*
G37*
G36*
X128129850Y-106275964D02*
G01*
X128180040Y-106281787D01*
X128197189Y-106289359D01*
X128220671Y-106294030D01*
X128245810Y-106310827D01*
X128265696Y-106319608D01*
X128279277Y-106333189D01*
X128301777Y-106348223D01*
X128316810Y-106370722D01*
X128330391Y-106384303D01*
X128339170Y-106404186D01*
X128355970Y-106429329D01*
X128360641Y-106452812D01*
X128368212Y-106469959D01*
X128374033Y-106520139D01*
X128375000Y-106525000D01*
X128375000Y-107475000D01*
X128374032Y-107479863D01*
X128368212Y-107530040D01*
X128360641Y-107547185D01*
X128355970Y-107570671D01*
X128339169Y-107595815D01*
X128330391Y-107615696D01*
X128316812Y-107629274D01*
X128301777Y-107651777D01*
X128279274Y-107666812D01*
X128265696Y-107680391D01*
X128245815Y-107689169D01*
X128220671Y-107705970D01*
X128197185Y-107710641D01*
X128180040Y-107718212D01*
X128129861Y-107724032D01*
X128125000Y-107725000D01*
X127450000Y-107725000D01*
X127445138Y-107724032D01*
X127394959Y-107718212D01*
X127377812Y-107710641D01*
X127354329Y-107705970D01*
X127329186Y-107689170D01*
X127309303Y-107680391D01*
X127295722Y-107666810D01*
X127273223Y-107651777D01*
X127258189Y-107629277D01*
X127244608Y-107615696D01*
X127235827Y-107595810D01*
X127219030Y-107570671D01*
X127214359Y-107547189D01*
X127206787Y-107530040D01*
X127200964Y-107479849D01*
X127200000Y-107475000D01*
X127200000Y-106525000D01*
X127200964Y-106520150D01*
X127206787Y-106469959D01*
X127214359Y-106452808D01*
X127219030Y-106429329D01*
X127235826Y-106404191D01*
X127244608Y-106384303D01*
X127258191Y-106370719D01*
X127273223Y-106348223D01*
X127295719Y-106333191D01*
X127309303Y-106319608D01*
X127329191Y-106310826D01*
X127354329Y-106294030D01*
X127377808Y-106289359D01*
X127394959Y-106281787D01*
X127445151Y-106275964D01*
X127450000Y-106275000D01*
X128125000Y-106275000D01*
X128129850Y-106275964D01*
G37*
G36*
X132750000Y-107170000D02*
G01*
X131250000Y-107170000D01*
X131250000Y-106270000D01*
X132750000Y-106270000D01*
X132750000Y-107170000D01*
G37*
G36*
X150250000Y-107170000D02*
G01*
X148750000Y-107170000D01*
X148750000Y-106270000D01*
X150250000Y-106270000D01*
X150250000Y-107170000D01*
G37*
G36*
X132750000Y-105900000D02*
G01*
X131250000Y-105900000D01*
X131250000Y-105000000D01*
X132750000Y-105000000D01*
X132750000Y-105900000D01*
G37*
G36*
X150250000Y-105900000D02*
G01*
X148750000Y-105900000D01*
X148750000Y-105000000D01*
X150250000Y-105000000D01*
X150250000Y-105900000D01*
G37*
G36*
X155967060Y-102268990D02*
G01*
X156177525Y-102325384D01*
X156375000Y-102417468D01*
X156553485Y-102542444D01*
X156707556Y-102696515D01*
X156832532Y-102875000D01*
X156924616Y-103072475D01*
X156981010Y-103282940D01*
X157000000Y-103500000D01*
X156981010Y-103717060D01*
X156924616Y-103927525D01*
X156832532Y-104125000D01*
X156707556Y-104303485D01*
X156553485Y-104457556D01*
X156375000Y-104582532D01*
X156177525Y-104674616D01*
X155967060Y-104731010D01*
X155750000Y-104750000D01*
X155532940Y-104731010D01*
X155322475Y-104674616D01*
X155125000Y-104582532D01*
X154946515Y-104457556D01*
X154792444Y-104303485D01*
X154667468Y-104125000D01*
X154575384Y-103927525D01*
X154518990Y-103717060D01*
X154500000Y-103500000D01*
X154518990Y-103282940D01*
X154575384Y-103072475D01*
X154667468Y-102875000D01*
X154792444Y-102696515D01*
X154946515Y-102542444D01*
X155125000Y-102417468D01*
X155322475Y-102325384D01*
X155532940Y-102268990D01*
X155750000Y-102250000D01*
X155967060Y-102268990D01*
G37*
G36*
X132750000Y-104630000D02*
G01*
X131250000Y-104630000D01*
X131250000Y-103730000D01*
X132750000Y-103730000D01*
X132750000Y-104630000D01*
G37*
G36*
X150250000Y-104630000D02*
G01*
X148750000Y-104630000D01*
X148750000Y-103730000D01*
X150250000Y-103730000D01*
X150250000Y-104630000D01*
G37*
G36*
X118467060Y-102018990D02*
G01*
X118677525Y-102075384D01*
X118875000Y-102167468D01*
X119053485Y-102292444D01*
X119207556Y-102446515D01*
X119332532Y-102625000D01*
X119424616Y-102822475D01*
X119481010Y-103032940D01*
X119500000Y-103250000D01*
X119481010Y-103467060D01*
X119424616Y-103677525D01*
X119332532Y-103875000D01*
X119207556Y-104053485D01*
X119053485Y-104207556D01*
X118875000Y-104332532D01*
X118677525Y-104424616D01*
X118467060Y-104481010D01*
X118250000Y-104500000D01*
X118032940Y-104481010D01*
X117822475Y-104424616D01*
X117625000Y-104332532D01*
X117446515Y-104207556D01*
X117292444Y-104053485D01*
X117167468Y-103875000D01*
X117075384Y-103677525D01*
X117018990Y-103467060D01*
X117000000Y-103250000D01*
X117018990Y-103032940D01*
X117075384Y-102822475D01*
X117167468Y-102625000D01*
X117292444Y-102446515D01*
X117446515Y-102292444D01*
X117625000Y-102167468D01*
X117822475Y-102075384D01*
X118032940Y-102018990D01*
X118250000Y-102000000D01*
X118467060Y-102018990D01*
G37*
G36*
X126054850Y-102525964D02*
G01*
X126105040Y-102531787D01*
X126122189Y-102539359D01*
X126145671Y-102544030D01*
X126170810Y-102560827D01*
X126190696Y-102569608D01*
X126204277Y-102583189D01*
X126226777Y-102598223D01*
X126241810Y-102620722D01*
X126255391Y-102634303D01*
X126264170Y-102654186D01*
X126280970Y-102679329D01*
X126285641Y-102702812D01*
X126293212Y-102719959D01*
X126299033Y-102770139D01*
X126300000Y-102775000D01*
X126300000Y-103725000D01*
X126299032Y-103729863D01*
X126293212Y-103780040D01*
X126285641Y-103797185D01*
X126280970Y-103820671D01*
X126264169Y-103845815D01*
X126255391Y-103865696D01*
X126241812Y-103879274D01*
X126226777Y-103901777D01*
X126204274Y-103916812D01*
X126190696Y-103930391D01*
X126170815Y-103939169D01*
X126145671Y-103955970D01*
X126122185Y-103960641D01*
X126105040Y-103968212D01*
X126054861Y-103974032D01*
X126050000Y-103975000D01*
X125375000Y-103975000D01*
X125370138Y-103974032D01*
X125319959Y-103968212D01*
X125302812Y-103960641D01*
X125279329Y-103955970D01*
X125254186Y-103939170D01*
X125234303Y-103930391D01*
X125220722Y-103916810D01*
X125198223Y-103901777D01*
X125183189Y-103879277D01*
X125169608Y-103865696D01*
X125160827Y-103845810D01*
X125144030Y-103820671D01*
X125139359Y-103797189D01*
X125131787Y-103780040D01*
X125125964Y-103729849D01*
X125125000Y-103725000D01*
X125125000Y-102775000D01*
X125125964Y-102770150D01*
X125131787Y-102719959D01*
X125139359Y-102702808D01*
X125144030Y-102679329D01*
X125160826Y-102654191D01*
X125169608Y-102634303D01*
X125183191Y-102620719D01*
X125198223Y-102598223D01*
X125220719Y-102583191D01*
X125234303Y-102569608D01*
X125254191Y-102560826D01*
X125279329Y-102544030D01*
X125302808Y-102539359D01*
X125319959Y-102531787D01*
X125370151Y-102525964D01*
X125375000Y-102525000D01*
X126050000Y-102525000D01*
X126054850Y-102525964D01*
G37*
G36*
X128129850Y-102525964D02*
G01*
X128180040Y-102531787D01*
X128197189Y-102539359D01*
X128220671Y-102544030D01*
X128245810Y-102560827D01*
X128265696Y-102569608D01*
X128279277Y-102583189D01*
X128301777Y-102598223D01*
X128316810Y-102620722D01*
X128330391Y-102634303D01*
X128339170Y-102654186D01*
X128355970Y-102679329D01*
X128360641Y-102702812D01*
X128368212Y-102719959D01*
X128374033Y-102770139D01*
X128375000Y-102775000D01*
X128375000Y-103725000D01*
X128374032Y-103729863D01*
X128368212Y-103780040D01*
X128360641Y-103797185D01*
X128355970Y-103820671D01*
X128339169Y-103845815D01*
X128330391Y-103865696D01*
X128316812Y-103879274D01*
X128301777Y-103901777D01*
X128279274Y-103916812D01*
X128265696Y-103930391D01*
X128245815Y-103939169D01*
X128220671Y-103955970D01*
X128197185Y-103960641D01*
X128180040Y-103968212D01*
X128129861Y-103974032D01*
X128125000Y-103975000D01*
X127450000Y-103975000D01*
X127445138Y-103974032D01*
X127394959Y-103968212D01*
X127377812Y-103960641D01*
X127354329Y-103955970D01*
X127329186Y-103939170D01*
X127309303Y-103930391D01*
X127295722Y-103916810D01*
X127273223Y-103901777D01*
X127258189Y-103879277D01*
X127244608Y-103865696D01*
X127235827Y-103845810D01*
X127219030Y-103820671D01*
X127214359Y-103797189D01*
X127206787Y-103780040D01*
X127200964Y-103729849D01*
X127200000Y-103725000D01*
X127200000Y-102775000D01*
X127200964Y-102770150D01*
X127206787Y-102719959D01*
X127214359Y-102702808D01*
X127219030Y-102679329D01*
X127235826Y-102654191D01*
X127244608Y-102634303D01*
X127258191Y-102620719D01*
X127273223Y-102598223D01*
X127295719Y-102583191D01*
X127309303Y-102569608D01*
X127329191Y-102560826D01*
X127354329Y-102544030D01*
X127377808Y-102539359D01*
X127394959Y-102531787D01*
X127445151Y-102525964D01*
X127450000Y-102525000D01*
X128125000Y-102525000D01*
X128129850Y-102525964D01*
G37*
G36*
X132750000Y-103360000D02*
G01*
X131250000Y-103360000D01*
X131250000Y-102460000D01*
X132750000Y-102460000D01*
X132750000Y-103360000D01*
G37*
G36*
X150250000Y-103360000D02*
G01*
X148750000Y-103360000D01*
X148750000Y-102460000D01*
X150250000Y-102460000D01*
X150250000Y-103360000D01*
G37*
G36*
X132750000Y-102090000D02*
G01*
X131250000Y-102090000D01*
X131250000Y-101190000D01*
X132750000Y-101190000D01*
X132750000Y-102090000D01*
G37*
G36*
X150250000Y-102090000D02*
G01*
X148750000Y-102090000D01*
X148750000Y-101190000D01*
X150250000Y-101190000D01*
X150250000Y-102090000D01*
G37*
M02*
