%TF.GenerationSoftware,KiCad,Pcbnew,8.0.5*%
%TF.CreationDate,2024-11-29T11:32:20+09:00*%
%TF.ProjectId,esp32_primary_board_v2,65737033-325f-4707-9269-6d6172795f62,rev?*%
%TF.SameCoordinates,Original*%
%TF.FileFunction,Drillmap*%
%TF.FilePolarity,Positive*%
%FSLAX45Y45*%
G04 Gerber Fmt 4.5, Leading zero omitted, Abs format (unit mm)*
G04 Created by KiCad (PCBNEW 8.0.5) date 2024-11-29 11:32:20*
%MOMM*%
%LPD*%
G01*
G04 APERTURE LIST*
%ADD10C,0.038100*%
%ADD11C,0.200000*%
%ADD12C,0.250000*%
G04 APERTURE END LIST*
D10*
X15925000Y-13900000D02*
G75*
G02*
X15625000Y-14200000I-300000J0D01*
G01*
X15925000Y-10300000D02*
X15925000Y-13900000D01*
X11500000Y-13900000D02*
X11500000Y-10300000D01*
X15625000Y-14200000D02*
X11800000Y-14200000D01*
X11500000Y-10300000D02*
G75*
G02*
X11800000Y-10000000I300000J0D01*
G01*
X11800000Y-10000000D02*
X12000000Y-10000000D01*
X11800000Y-14200000D02*
G75*
G02*
X11500000Y-13900000I0J300000D01*
G01*
X15625000Y-10000000D02*
G75*
G02*
X15925000Y-10300000I0J-300000D01*
G01*
X12000000Y-10000000D02*
X15625000Y-10000000D01*
D11*
D12*
X11700000Y-10200000D02*
X11950000Y-10450000D01*
X11950000Y-10200000D02*
X11700000Y-10450000D01*
X11725000Y-13750000D02*
X11975000Y-14000000D01*
X11975000Y-13750000D02*
X11725000Y-14000000D01*
X15450000Y-10225000D02*
X15700000Y-10475000D01*
X15700000Y-10225000D02*
X15450000Y-10475000D01*
X15500000Y-13750000D02*
X15750000Y-14000000D01*
X15750000Y-13750000D02*
X15500000Y-14000000D01*
D11*
X11758872Y-14513389D02*
X11758872Y-14313389D01*
X11758872Y-14313389D02*
X11806491Y-14313389D01*
X11806491Y-14313389D02*
X11835062Y-14322913D01*
X11835062Y-14322913D02*
X11854110Y-14341960D01*
X11854110Y-14341960D02*
X11863634Y-14361008D01*
X11863634Y-14361008D02*
X11873157Y-14399103D01*
X11873157Y-14399103D02*
X11873157Y-14427674D01*
X11873157Y-14427674D02*
X11863634Y-14465770D01*
X11863634Y-14465770D02*
X11854110Y-14484817D01*
X11854110Y-14484817D02*
X11835062Y-14503865D01*
X11835062Y-14503865D02*
X11806491Y-14513389D01*
X11806491Y-14513389D02*
X11758872Y-14513389D01*
X11958872Y-14513389D02*
X11958872Y-14380055D01*
X11958872Y-14418151D02*
X11968396Y-14399103D01*
X11968396Y-14399103D02*
X11977919Y-14389579D01*
X11977919Y-14389579D02*
X11996967Y-14380055D01*
X11996967Y-14380055D02*
X12016015Y-14380055D01*
X12082681Y-14513389D02*
X12082681Y-14380055D01*
X12082681Y-14313389D02*
X12073157Y-14322913D01*
X12073157Y-14322913D02*
X12082681Y-14332436D01*
X12082681Y-14332436D02*
X12092205Y-14322913D01*
X12092205Y-14322913D02*
X12082681Y-14313389D01*
X12082681Y-14313389D02*
X12082681Y-14332436D01*
X12206491Y-14513389D02*
X12187443Y-14503865D01*
X12187443Y-14503865D02*
X12177919Y-14484817D01*
X12177919Y-14484817D02*
X12177919Y-14313389D01*
X12311253Y-14513389D02*
X12292205Y-14503865D01*
X12292205Y-14503865D02*
X12282681Y-14484817D01*
X12282681Y-14484817D02*
X12282681Y-14313389D01*
X12539824Y-14513389D02*
X12539824Y-14313389D01*
X12539824Y-14313389D02*
X12606491Y-14456246D01*
X12606491Y-14456246D02*
X12673157Y-14313389D01*
X12673157Y-14313389D02*
X12673157Y-14513389D01*
X12854110Y-14513389D02*
X12854110Y-14408627D01*
X12854110Y-14408627D02*
X12844586Y-14389579D01*
X12844586Y-14389579D02*
X12825538Y-14380055D01*
X12825538Y-14380055D02*
X12787443Y-14380055D01*
X12787443Y-14380055D02*
X12768396Y-14389579D01*
X12854110Y-14503865D02*
X12835062Y-14513389D01*
X12835062Y-14513389D02*
X12787443Y-14513389D01*
X12787443Y-14513389D02*
X12768396Y-14503865D01*
X12768396Y-14503865D02*
X12758872Y-14484817D01*
X12758872Y-14484817D02*
X12758872Y-14465770D01*
X12758872Y-14465770D02*
X12768396Y-14446722D01*
X12768396Y-14446722D02*
X12787443Y-14437198D01*
X12787443Y-14437198D02*
X12835062Y-14437198D01*
X12835062Y-14437198D02*
X12854110Y-14427674D01*
X12949348Y-14380055D02*
X12949348Y-14580055D01*
X12949348Y-14389579D02*
X12968396Y-14380055D01*
X12968396Y-14380055D02*
X13006491Y-14380055D01*
X13006491Y-14380055D02*
X13025538Y-14389579D01*
X13025538Y-14389579D02*
X13035062Y-14399103D01*
X13035062Y-14399103D02*
X13044586Y-14418151D01*
X13044586Y-14418151D02*
X13044586Y-14475293D01*
X13044586Y-14475293D02*
X13035062Y-14494341D01*
X13035062Y-14494341D02*
X13025538Y-14503865D01*
X13025538Y-14503865D02*
X13006491Y-14513389D01*
X13006491Y-14513389D02*
X12968396Y-14513389D01*
X12968396Y-14513389D02*
X12949348Y-14503865D01*
X13130300Y-14494341D02*
X13139824Y-14503865D01*
X13139824Y-14503865D02*
X13130300Y-14513389D01*
X13130300Y-14513389D02*
X13120777Y-14503865D01*
X13120777Y-14503865D02*
X13130300Y-14494341D01*
X13130300Y-14494341D02*
X13130300Y-14513389D01*
X13130300Y-14389579D02*
X13139824Y-14399103D01*
X13139824Y-14399103D02*
X13130300Y-14408627D01*
X13130300Y-14408627D02*
X13120777Y-14399103D01*
X13120777Y-14399103D02*
X13130300Y-14389579D01*
X13130300Y-14389579D02*
X13130300Y-14408627D01*
X11298095Y-14741905D02*
X11498095Y-14941905D01*
X11498095Y-14741905D02*
X11298095Y-14941905D01*
X11749348Y-14752436D02*
X11758872Y-14742913D01*
X11758872Y-14742913D02*
X11777919Y-14733389D01*
X11777919Y-14733389D02*
X11825538Y-14733389D01*
X11825538Y-14733389D02*
X11844586Y-14742913D01*
X11844586Y-14742913D02*
X11854110Y-14752436D01*
X11854110Y-14752436D02*
X11863634Y-14771484D01*
X11863634Y-14771484D02*
X11863634Y-14790532D01*
X11863634Y-14790532D02*
X11854110Y-14819103D01*
X11854110Y-14819103D02*
X11739824Y-14933389D01*
X11739824Y-14933389D02*
X11863634Y-14933389D01*
X11949348Y-14914341D02*
X11958872Y-14923865D01*
X11958872Y-14923865D02*
X11949348Y-14933389D01*
X11949348Y-14933389D02*
X11939824Y-14923865D01*
X11939824Y-14923865D02*
X11949348Y-14914341D01*
X11949348Y-14914341D02*
X11949348Y-14933389D01*
X12139824Y-14733389D02*
X12044586Y-14733389D01*
X12044586Y-14733389D02*
X12035062Y-14828627D01*
X12035062Y-14828627D02*
X12044586Y-14819103D01*
X12044586Y-14819103D02*
X12063634Y-14809579D01*
X12063634Y-14809579D02*
X12111253Y-14809579D01*
X12111253Y-14809579D02*
X12130300Y-14819103D01*
X12130300Y-14819103D02*
X12139824Y-14828627D01*
X12139824Y-14828627D02*
X12149348Y-14847674D01*
X12149348Y-14847674D02*
X12149348Y-14895293D01*
X12149348Y-14895293D02*
X12139824Y-14914341D01*
X12139824Y-14914341D02*
X12130300Y-14923865D01*
X12130300Y-14923865D02*
X12111253Y-14933389D01*
X12111253Y-14933389D02*
X12063634Y-14933389D01*
X12063634Y-14933389D02*
X12044586Y-14923865D01*
X12044586Y-14923865D02*
X12035062Y-14914341D01*
X12273157Y-14733389D02*
X12292205Y-14733389D01*
X12292205Y-14733389D02*
X12311253Y-14742913D01*
X12311253Y-14742913D02*
X12320777Y-14752436D01*
X12320777Y-14752436D02*
X12330300Y-14771484D01*
X12330300Y-14771484D02*
X12339824Y-14809579D01*
X12339824Y-14809579D02*
X12339824Y-14857198D01*
X12339824Y-14857198D02*
X12330300Y-14895293D01*
X12330300Y-14895293D02*
X12320777Y-14914341D01*
X12320777Y-14914341D02*
X12311253Y-14923865D01*
X12311253Y-14923865D02*
X12292205Y-14933389D01*
X12292205Y-14933389D02*
X12273157Y-14933389D01*
X12273157Y-14933389D02*
X12254110Y-14923865D01*
X12254110Y-14923865D02*
X12244586Y-14914341D01*
X12244586Y-14914341D02*
X12235062Y-14895293D01*
X12235062Y-14895293D02*
X12225538Y-14857198D01*
X12225538Y-14857198D02*
X12225538Y-14809579D01*
X12225538Y-14809579D02*
X12235062Y-14771484D01*
X12235062Y-14771484D02*
X12244586Y-14752436D01*
X12244586Y-14752436D02*
X12254110Y-14742913D01*
X12254110Y-14742913D02*
X12273157Y-14733389D01*
X12463634Y-14733389D02*
X12482681Y-14733389D01*
X12482681Y-14733389D02*
X12501729Y-14742913D01*
X12501729Y-14742913D02*
X12511253Y-14752436D01*
X12511253Y-14752436D02*
X12520777Y-14771484D01*
X12520777Y-14771484D02*
X12530300Y-14809579D01*
X12530300Y-14809579D02*
X12530300Y-14857198D01*
X12530300Y-14857198D02*
X12520777Y-14895293D01*
X12520777Y-14895293D02*
X12511253Y-14914341D01*
X12511253Y-14914341D02*
X12501729Y-14923865D01*
X12501729Y-14923865D02*
X12482681Y-14933389D01*
X12482681Y-14933389D02*
X12463634Y-14933389D01*
X12463634Y-14933389D02*
X12444586Y-14923865D01*
X12444586Y-14923865D02*
X12435062Y-14914341D01*
X12435062Y-14914341D02*
X12425538Y-14895293D01*
X12425538Y-14895293D02*
X12416015Y-14857198D01*
X12416015Y-14857198D02*
X12416015Y-14809579D01*
X12416015Y-14809579D02*
X12425538Y-14771484D01*
X12425538Y-14771484D02*
X12435062Y-14752436D01*
X12435062Y-14752436D02*
X12444586Y-14742913D01*
X12444586Y-14742913D02*
X12463634Y-14733389D01*
X12616015Y-14933389D02*
X12616015Y-14800055D01*
X12616015Y-14819103D02*
X12625538Y-14809579D01*
X12625538Y-14809579D02*
X12644586Y-14800055D01*
X12644586Y-14800055D02*
X12673158Y-14800055D01*
X12673158Y-14800055D02*
X12692205Y-14809579D01*
X12692205Y-14809579D02*
X12701729Y-14828627D01*
X12701729Y-14828627D02*
X12701729Y-14933389D01*
X12701729Y-14828627D02*
X12711253Y-14809579D01*
X12711253Y-14809579D02*
X12730300Y-14800055D01*
X12730300Y-14800055D02*
X12758872Y-14800055D01*
X12758872Y-14800055D02*
X12777919Y-14809579D01*
X12777919Y-14809579D02*
X12787443Y-14828627D01*
X12787443Y-14828627D02*
X12787443Y-14933389D01*
X12882681Y-14933389D02*
X12882681Y-14800055D01*
X12882681Y-14819103D02*
X12892205Y-14809579D01*
X12892205Y-14809579D02*
X12911253Y-14800055D01*
X12911253Y-14800055D02*
X12939824Y-14800055D01*
X12939824Y-14800055D02*
X12958872Y-14809579D01*
X12958872Y-14809579D02*
X12968396Y-14828627D01*
X12968396Y-14828627D02*
X12968396Y-14933389D01*
X12968396Y-14828627D02*
X12977919Y-14809579D01*
X12977919Y-14809579D02*
X12996967Y-14800055D01*
X12996967Y-14800055D02*
X13025538Y-14800055D01*
X13025538Y-14800055D02*
X13044586Y-14809579D01*
X13044586Y-14809579D02*
X13054110Y-14828627D01*
X13054110Y-14828627D02*
X13054110Y-14933389D01*
X13444586Y-14723865D02*
X13273158Y-14981008D01*
X13701729Y-14733389D02*
X13720777Y-14733389D01*
X13720777Y-14733389D02*
X13739824Y-14742913D01*
X13739824Y-14742913D02*
X13749348Y-14752436D01*
X13749348Y-14752436D02*
X13758872Y-14771484D01*
X13758872Y-14771484D02*
X13768396Y-14809579D01*
X13768396Y-14809579D02*
X13768396Y-14857198D01*
X13768396Y-14857198D02*
X13758872Y-14895293D01*
X13758872Y-14895293D02*
X13749348Y-14914341D01*
X13749348Y-14914341D02*
X13739824Y-14923865D01*
X13739824Y-14923865D02*
X13720777Y-14933389D01*
X13720777Y-14933389D02*
X13701729Y-14933389D01*
X13701729Y-14933389D02*
X13682681Y-14923865D01*
X13682681Y-14923865D02*
X13673158Y-14914341D01*
X13673158Y-14914341D02*
X13663634Y-14895293D01*
X13663634Y-14895293D02*
X13654110Y-14857198D01*
X13654110Y-14857198D02*
X13654110Y-14809579D01*
X13654110Y-14809579D02*
X13663634Y-14771484D01*
X13663634Y-14771484D02*
X13673158Y-14752436D01*
X13673158Y-14752436D02*
X13682681Y-14742913D01*
X13682681Y-14742913D02*
X13701729Y-14733389D01*
X13854110Y-14914341D02*
X13863634Y-14923865D01*
X13863634Y-14923865D02*
X13854110Y-14933389D01*
X13854110Y-14933389D02*
X13844586Y-14923865D01*
X13844586Y-14923865D02*
X13854110Y-14914341D01*
X13854110Y-14914341D02*
X13854110Y-14933389D01*
X13987443Y-14733389D02*
X14006491Y-14733389D01*
X14006491Y-14733389D02*
X14025539Y-14742913D01*
X14025539Y-14742913D02*
X14035062Y-14752436D01*
X14035062Y-14752436D02*
X14044586Y-14771484D01*
X14044586Y-14771484D02*
X14054110Y-14809579D01*
X14054110Y-14809579D02*
X14054110Y-14857198D01*
X14054110Y-14857198D02*
X14044586Y-14895293D01*
X14044586Y-14895293D02*
X14035062Y-14914341D01*
X14035062Y-14914341D02*
X14025539Y-14923865D01*
X14025539Y-14923865D02*
X14006491Y-14933389D01*
X14006491Y-14933389D02*
X13987443Y-14933389D01*
X13987443Y-14933389D02*
X13968396Y-14923865D01*
X13968396Y-14923865D02*
X13958872Y-14914341D01*
X13958872Y-14914341D02*
X13949348Y-14895293D01*
X13949348Y-14895293D02*
X13939824Y-14857198D01*
X13939824Y-14857198D02*
X13939824Y-14809579D01*
X13939824Y-14809579D02*
X13949348Y-14771484D01*
X13949348Y-14771484D02*
X13958872Y-14752436D01*
X13958872Y-14752436D02*
X13968396Y-14742913D01*
X13968396Y-14742913D02*
X13987443Y-14733389D01*
X14149348Y-14933389D02*
X14187443Y-14933389D01*
X14187443Y-14933389D02*
X14206491Y-14923865D01*
X14206491Y-14923865D02*
X14216015Y-14914341D01*
X14216015Y-14914341D02*
X14235062Y-14885770D01*
X14235062Y-14885770D02*
X14244586Y-14847674D01*
X14244586Y-14847674D02*
X14244586Y-14771484D01*
X14244586Y-14771484D02*
X14235062Y-14752436D01*
X14235062Y-14752436D02*
X14225539Y-14742913D01*
X14225539Y-14742913D02*
X14206491Y-14733389D01*
X14206491Y-14733389D02*
X14168396Y-14733389D01*
X14168396Y-14733389D02*
X14149348Y-14742913D01*
X14149348Y-14742913D02*
X14139824Y-14752436D01*
X14139824Y-14752436D02*
X14130301Y-14771484D01*
X14130301Y-14771484D02*
X14130301Y-14819103D01*
X14130301Y-14819103D02*
X14139824Y-14838151D01*
X14139824Y-14838151D02*
X14149348Y-14847674D01*
X14149348Y-14847674D02*
X14168396Y-14857198D01*
X14168396Y-14857198D02*
X14206491Y-14857198D01*
X14206491Y-14857198D02*
X14225539Y-14847674D01*
X14225539Y-14847674D02*
X14235062Y-14838151D01*
X14235062Y-14838151D02*
X14244586Y-14819103D01*
X14358872Y-14819103D02*
X14339824Y-14809579D01*
X14339824Y-14809579D02*
X14330301Y-14800055D01*
X14330301Y-14800055D02*
X14320777Y-14781008D01*
X14320777Y-14781008D02*
X14320777Y-14771484D01*
X14320777Y-14771484D02*
X14330301Y-14752436D01*
X14330301Y-14752436D02*
X14339824Y-14742913D01*
X14339824Y-14742913D02*
X14358872Y-14733389D01*
X14358872Y-14733389D02*
X14396967Y-14733389D01*
X14396967Y-14733389D02*
X14416015Y-14742913D01*
X14416015Y-14742913D02*
X14425539Y-14752436D01*
X14425539Y-14752436D02*
X14435062Y-14771484D01*
X14435062Y-14771484D02*
X14435062Y-14781008D01*
X14435062Y-14781008D02*
X14425539Y-14800055D01*
X14425539Y-14800055D02*
X14416015Y-14809579D01*
X14416015Y-14809579D02*
X14396967Y-14819103D01*
X14396967Y-14819103D02*
X14358872Y-14819103D01*
X14358872Y-14819103D02*
X14339824Y-14828627D01*
X14339824Y-14828627D02*
X14330301Y-14838151D01*
X14330301Y-14838151D02*
X14320777Y-14857198D01*
X14320777Y-14857198D02*
X14320777Y-14895293D01*
X14320777Y-14895293D02*
X14330301Y-14914341D01*
X14330301Y-14914341D02*
X14339824Y-14923865D01*
X14339824Y-14923865D02*
X14358872Y-14933389D01*
X14358872Y-14933389D02*
X14396967Y-14933389D01*
X14396967Y-14933389D02*
X14416015Y-14923865D01*
X14416015Y-14923865D02*
X14425539Y-14914341D01*
X14425539Y-14914341D02*
X14435062Y-14895293D01*
X14435062Y-14895293D02*
X14435062Y-14857198D01*
X14435062Y-14857198D02*
X14425539Y-14838151D01*
X14425539Y-14838151D02*
X14416015Y-14828627D01*
X14416015Y-14828627D02*
X14396967Y-14819103D01*
X14606491Y-14800055D02*
X14606491Y-14933389D01*
X14558872Y-14723865D02*
X14511253Y-14866722D01*
X14511253Y-14866722D02*
X14635062Y-14866722D01*
X14701729Y-14733389D02*
X14701729Y-14771484D01*
X14777920Y-14733389D02*
X14777920Y-14771484D01*
X15073158Y-15009579D02*
X15063634Y-15000055D01*
X15063634Y-15000055D02*
X15044586Y-14971484D01*
X15044586Y-14971484D02*
X15035063Y-14952436D01*
X15035063Y-14952436D02*
X15025539Y-14923865D01*
X15025539Y-14923865D02*
X15016015Y-14876246D01*
X15016015Y-14876246D02*
X15016015Y-14838151D01*
X15016015Y-14838151D02*
X15025539Y-14790532D01*
X15025539Y-14790532D02*
X15035063Y-14761960D01*
X15035063Y-14761960D02*
X15044586Y-14742913D01*
X15044586Y-14742913D02*
X15063634Y-14714341D01*
X15063634Y-14714341D02*
X15073158Y-14704817D01*
X15235063Y-14800055D02*
X15235063Y-14933389D01*
X15187443Y-14723865D02*
X15139824Y-14866722D01*
X15139824Y-14866722D02*
X15263634Y-14866722D01*
X15492205Y-14933389D02*
X15492205Y-14733389D01*
X15577920Y-14933389D02*
X15577920Y-14828627D01*
X15577920Y-14828627D02*
X15568396Y-14809579D01*
X15568396Y-14809579D02*
X15549348Y-14800055D01*
X15549348Y-14800055D02*
X15520777Y-14800055D01*
X15520777Y-14800055D02*
X15501729Y-14809579D01*
X15501729Y-14809579D02*
X15492205Y-14819103D01*
X15701729Y-14933389D02*
X15682682Y-14923865D01*
X15682682Y-14923865D02*
X15673158Y-14914341D01*
X15673158Y-14914341D02*
X15663634Y-14895293D01*
X15663634Y-14895293D02*
X15663634Y-14838151D01*
X15663634Y-14838151D02*
X15673158Y-14819103D01*
X15673158Y-14819103D02*
X15682682Y-14809579D01*
X15682682Y-14809579D02*
X15701729Y-14800055D01*
X15701729Y-14800055D02*
X15730301Y-14800055D01*
X15730301Y-14800055D02*
X15749348Y-14809579D01*
X15749348Y-14809579D02*
X15758872Y-14819103D01*
X15758872Y-14819103D02*
X15768396Y-14838151D01*
X15768396Y-14838151D02*
X15768396Y-14895293D01*
X15768396Y-14895293D02*
X15758872Y-14914341D01*
X15758872Y-14914341D02*
X15749348Y-14923865D01*
X15749348Y-14923865D02*
X15730301Y-14933389D01*
X15730301Y-14933389D02*
X15701729Y-14933389D01*
X15882682Y-14933389D02*
X15863634Y-14923865D01*
X15863634Y-14923865D02*
X15854110Y-14904817D01*
X15854110Y-14904817D02*
X15854110Y-14733389D01*
X16035063Y-14923865D02*
X16016015Y-14933389D01*
X16016015Y-14933389D02*
X15977920Y-14933389D01*
X15977920Y-14933389D02*
X15958872Y-14923865D01*
X15958872Y-14923865D02*
X15949348Y-14904817D01*
X15949348Y-14904817D02*
X15949348Y-14828627D01*
X15949348Y-14828627D02*
X15958872Y-14809579D01*
X15958872Y-14809579D02*
X15977920Y-14800055D01*
X15977920Y-14800055D02*
X16016015Y-14800055D01*
X16016015Y-14800055D02*
X16035063Y-14809579D01*
X16035063Y-14809579D02*
X16044586Y-14828627D01*
X16044586Y-14828627D02*
X16044586Y-14847674D01*
X16044586Y-14847674D02*
X15949348Y-14866722D01*
X16120777Y-14923865D02*
X16139825Y-14933389D01*
X16139825Y-14933389D02*
X16177920Y-14933389D01*
X16177920Y-14933389D02*
X16196967Y-14923865D01*
X16196967Y-14923865D02*
X16206491Y-14904817D01*
X16206491Y-14904817D02*
X16206491Y-14895293D01*
X16206491Y-14895293D02*
X16196967Y-14876246D01*
X16196967Y-14876246D02*
X16177920Y-14866722D01*
X16177920Y-14866722D02*
X16149348Y-14866722D01*
X16149348Y-14866722D02*
X16130301Y-14857198D01*
X16130301Y-14857198D02*
X16120777Y-14838151D01*
X16120777Y-14838151D02*
X16120777Y-14828627D01*
X16120777Y-14828627D02*
X16130301Y-14809579D01*
X16130301Y-14809579D02*
X16149348Y-14800055D01*
X16149348Y-14800055D02*
X16177920Y-14800055D01*
X16177920Y-14800055D02*
X16196967Y-14809579D01*
X16273158Y-15009579D02*
X16282682Y-15000055D01*
X16282682Y-15000055D02*
X16301729Y-14971484D01*
X16301729Y-14971484D02*
X16311253Y-14952436D01*
X16311253Y-14952436D02*
X16320777Y-14923865D01*
X16320777Y-14923865D02*
X16330301Y-14876246D01*
X16330301Y-14876246D02*
X16330301Y-14838151D01*
X16330301Y-14838151D02*
X16320777Y-14790532D01*
X16320777Y-14790532D02*
X16311253Y-14761960D01*
X16311253Y-14761960D02*
X16301729Y-14742913D01*
X16301729Y-14742913D02*
X16282682Y-14714341D01*
X16282682Y-14714341D02*
X16273158Y-14704817D01*
X16635063Y-15009579D02*
X16625539Y-15000055D01*
X16625539Y-15000055D02*
X16606491Y-14971484D01*
X16606491Y-14971484D02*
X16596967Y-14952436D01*
X16596967Y-14952436D02*
X16587444Y-14923865D01*
X16587444Y-14923865D02*
X16577920Y-14876246D01*
X16577920Y-14876246D02*
X16577920Y-14838151D01*
X16577920Y-14838151D02*
X16587444Y-14790532D01*
X16587444Y-14790532D02*
X16596967Y-14761960D01*
X16596967Y-14761960D02*
X16606491Y-14742913D01*
X16606491Y-14742913D02*
X16625539Y-14714341D01*
X16625539Y-14714341D02*
X16635063Y-14704817D01*
X16711253Y-14800055D02*
X16711253Y-14933389D01*
X16711253Y-14819103D02*
X16720777Y-14809579D01*
X16720777Y-14809579D02*
X16739825Y-14800055D01*
X16739825Y-14800055D02*
X16768396Y-14800055D01*
X16768396Y-14800055D02*
X16787444Y-14809579D01*
X16787444Y-14809579D02*
X16796968Y-14828627D01*
X16796968Y-14828627D02*
X16796968Y-14933389D01*
X16920777Y-14933389D02*
X16901729Y-14923865D01*
X16901729Y-14923865D02*
X16892206Y-14914341D01*
X16892206Y-14914341D02*
X16882682Y-14895293D01*
X16882682Y-14895293D02*
X16882682Y-14838151D01*
X16882682Y-14838151D02*
X16892206Y-14819103D01*
X16892206Y-14819103D02*
X16901729Y-14809579D01*
X16901729Y-14809579D02*
X16920777Y-14800055D01*
X16920777Y-14800055D02*
X16949349Y-14800055D01*
X16949349Y-14800055D02*
X16968396Y-14809579D01*
X16968396Y-14809579D02*
X16977920Y-14819103D01*
X16977920Y-14819103D02*
X16987444Y-14838151D01*
X16987444Y-14838151D02*
X16987444Y-14895293D01*
X16987444Y-14895293D02*
X16977920Y-14914341D01*
X16977920Y-14914341D02*
X16968396Y-14923865D01*
X16968396Y-14923865D02*
X16949349Y-14933389D01*
X16949349Y-14933389D02*
X16920777Y-14933389D01*
X17044587Y-14800055D02*
X17120777Y-14800055D01*
X17073158Y-14733389D02*
X17073158Y-14904817D01*
X17073158Y-14904817D02*
X17082682Y-14923865D01*
X17082682Y-14923865D02*
X17101729Y-14933389D01*
X17101729Y-14933389D02*
X17120777Y-14933389D01*
X17339825Y-14800055D02*
X17339825Y-15000055D01*
X17339825Y-14809579D02*
X17358872Y-14800055D01*
X17358872Y-14800055D02*
X17396968Y-14800055D01*
X17396968Y-14800055D02*
X17416015Y-14809579D01*
X17416015Y-14809579D02*
X17425539Y-14819103D01*
X17425539Y-14819103D02*
X17435063Y-14838151D01*
X17435063Y-14838151D02*
X17435063Y-14895293D01*
X17435063Y-14895293D02*
X17425539Y-14914341D01*
X17425539Y-14914341D02*
X17416015Y-14923865D01*
X17416015Y-14923865D02*
X17396968Y-14933389D01*
X17396968Y-14933389D02*
X17358872Y-14933389D01*
X17358872Y-14933389D02*
X17339825Y-14923865D01*
X17549349Y-14933389D02*
X17530301Y-14923865D01*
X17530301Y-14923865D02*
X17520777Y-14904817D01*
X17520777Y-14904817D02*
X17520777Y-14733389D01*
X17711253Y-14933389D02*
X17711253Y-14828627D01*
X17711253Y-14828627D02*
X17701730Y-14809579D01*
X17701730Y-14809579D02*
X17682682Y-14800055D01*
X17682682Y-14800055D02*
X17644587Y-14800055D01*
X17644587Y-14800055D02*
X17625539Y-14809579D01*
X17711253Y-14923865D02*
X17692206Y-14933389D01*
X17692206Y-14933389D02*
X17644587Y-14933389D01*
X17644587Y-14933389D02*
X17625539Y-14923865D01*
X17625539Y-14923865D02*
X17616015Y-14904817D01*
X17616015Y-14904817D02*
X17616015Y-14885770D01*
X17616015Y-14885770D02*
X17625539Y-14866722D01*
X17625539Y-14866722D02*
X17644587Y-14857198D01*
X17644587Y-14857198D02*
X17692206Y-14857198D01*
X17692206Y-14857198D02*
X17711253Y-14847674D01*
X17777920Y-14800055D02*
X17854110Y-14800055D01*
X17806491Y-14733389D02*
X17806491Y-14904817D01*
X17806491Y-14904817D02*
X17816015Y-14923865D01*
X17816015Y-14923865D02*
X17835063Y-14933389D01*
X17835063Y-14933389D02*
X17854110Y-14933389D01*
X17996968Y-14923865D02*
X17977920Y-14933389D01*
X17977920Y-14933389D02*
X17939825Y-14933389D01*
X17939825Y-14933389D02*
X17920777Y-14923865D01*
X17920777Y-14923865D02*
X17911253Y-14904817D01*
X17911253Y-14904817D02*
X17911253Y-14828627D01*
X17911253Y-14828627D02*
X17920777Y-14809579D01*
X17920777Y-14809579D02*
X17939825Y-14800055D01*
X17939825Y-14800055D02*
X17977920Y-14800055D01*
X17977920Y-14800055D02*
X17996968Y-14809579D01*
X17996968Y-14809579D02*
X18006491Y-14828627D01*
X18006491Y-14828627D02*
X18006491Y-14847674D01*
X18006491Y-14847674D02*
X17911253Y-14866722D01*
X18177920Y-14933389D02*
X18177920Y-14733389D01*
X18177920Y-14923865D02*
X18158872Y-14933389D01*
X18158872Y-14933389D02*
X18120777Y-14933389D01*
X18120777Y-14933389D02*
X18101730Y-14923865D01*
X18101730Y-14923865D02*
X18092206Y-14914341D01*
X18092206Y-14914341D02*
X18082682Y-14895293D01*
X18082682Y-14895293D02*
X18082682Y-14838151D01*
X18082682Y-14838151D02*
X18092206Y-14819103D01*
X18092206Y-14819103D02*
X18101730Y-14809579D01*
X18101730Y-14809579D02*
X18120777Y-14800055D01*
X18120777Y-14800055D02*
X18158872Y-14800055D01*
X18158872Y-14800055D02*
X18177920Y-14809579D01*
X18254111Y-15009579D02*
X18263634Y-15000055D01*
X18263634Y-15000055D02*
X18282682Y-14971484D01*
X18282682Y-14971484D02*
X18292206Y-14952436D01*
X18292206Y-14952436D02*
X18301730Y-14923865D01*
X18301730Y-14923865D02*
X18311253Y-14876246D01*
X18311253Y-14876246D02*
X18311253Y-14838151D01*
X18311253Y-14838151D02*
X18301730Y-14790532D01*
X18301730Y-14790532D02*
X18292206Y-14761960D01*
X18292206Y-14761960D02*
X18282682Y-14742913D01*
X18282682Y-14742913D02*
X18263634Y-14714341D01*
X18263634Y-14714341D02*
X18254111Y-14704817D01*
M02*
