%TF.GenerationSoftware,KiCad,Pcbnew,8.0.5*%
%TF.CreationDate,2024-11-29T11:32:20+09:00*%
%TF.ProjectId,esp32_primary_board_v2,65737033-325f-4707-9269-6d6172795f62,rev?*%
%TF.SameCoordinates,Original*%
%TF.FileFunction,Drillmap*%
%TF.FilePolarity,Positive*%
%FSLAX45Y45*%
G04 Gerber Fmt 4.5, Leading zero omitted, Abs format (unit mm)*
G04 Created by KiCad (PCBNEW 8.0.5) date 2024-11-29 11:32:20*
%MOMM*%
%LPD*%
G01*
G04 APERTURE LIST*
%ADD10C,0.038100*%
%ADD11C,0.200000*%
%ADD12C,0.100000*%
G04 APERTURE END LIST*
D10*
X15925000Y-13900000D02*
G75*
G02*
X15625000Y-14200000I-300000J0D01*
G01*
X15925000Y-10300000D02*
X15925000Y-13900000D01*
X11500000Y-13900000D02*
X11500000Y-10300000D01*
X15625000Y-14200000D02*
X11800000Y-14200000D01*
X11500000Y-10300000D02*
G75*
G02*
X11800000Y-10000000I300000J0D01*
G01*
X11800000Y-10000000D02*
X12000000Y-10000000D01*
X11800000Y-14200000D02*
G75*
G02*
X11500000Y-13900000I0J300000D01*
G01*
X15625000Y-10000000D02*
G75*
G02*
X15925000Y-10300000I0J-300000D01*
G01*
X12000000Y-10000000D02*
X15625000Y-10000000D01*
D11*
D12*
X13775000Y-10996000D02*
X13795000Y-11016000D01*
X13795000Y-10996000D02*
X13775000Y-11016000D01*
X13845000Y-11066000D02*
X13865000Y-11086000D01*
X13865000Y-11066000D02*
X13845000Y-11086000D01*
X13915000Y-10856000D02*
X13935000Y-10876000D01*
X13935000Y-10856000D02*
X13915000Y-10876000D01*
X13915000Y-10996000D02*
X13935000Y-11016000D01*
X13935000Y-10996000D02*
X13915000Y-11016000D01*
X13985000Y-10786000D02*
X14005000Y-10806000D01*
X14005000Y-10786000D02*
X13985000Y-10806000D01*
X13985000Y-10926000D02*
X14005000Y-10946000D01*
X14005000Y-10926000D02*
X13985000Y-10946000D01*
X13985000Y-11066000D02*
X14005000Y-11086000D01*
X14005000Y-11066000D02*
X13985000Y-11086000D01*
X14055000Y-10856000D02*
X14075000Y-10876000D01*
X14075000Y-10856000D02*
X14055000Y-10876000D01*
X14055000Y-10996000D02*
X14075000Y-11016000D01*
X14075000Y-10996000D02*
X14055000Y-11016000D01*
X11615000Y-11075000D02*
G75*
G02*
X11585000Y-11075000I-15000J0D01*
G01*
X11585000Y-11075000D02*
G75*
G02*
X11615000Y-11075000I15000J0D01*
G01*
X11615000Y-11600000D02*
G75*
G02*
X11585000Y-11600000I-15000J0D01*
G01*
X11585000Y-11600000D02*
G75*
G02*
X11615000Y-11600000I15000J0D01*
G01*
X11640000Y-13500000D02*
G75*
G02*
X11610000Y-13500000I-15000J0D01*
G01*
X11610000Y-13500000D02*
G75*
G02*
X11640000Y-13500000I15000J0D01*
G01*
X12015000Y-13425000D02*
G75*
G02*
X11985000Y-13425000I-15000J0D01*
G01*
X11985000Y-13425000D02*
G75*
G02*
X12015000Y-13425000I15000J0D01*
G01*
X12215000Y-11450000D02*
G75*
G02*
X12185000Y-11450000I-15000J0D01*
G01*
X12185000Y-11450000D02*
G75*
G02*
X12215000Y-11450000I15000J0D01*
G01*
X12215000Y-12175000D02*
G75*
G02*
X12185000Y-12175000I-15000J0D01*
G01*
X12185000Y-12175000D02*
G75*
G02*
X12215000Y-12175000I15000J0D01*
G01*
X12290000Y-10225000D02*
G75*
G02*
X12260000Y-10225000I-15000J0D01*
G01*
X12260000Y-10225000D02*
G75*
G02*
X12290000Y-10225000I15000J0D01*
G01*
X12315000Y-10825000D02*
G75*
G02*
X12285000Y-10825000I-15000J0D01*
G01*
X12285000Y-10825000D02*
G75*
G02*
X12315000Y-10825000I15000J0D01*
G01*
X12415000Y-13075000D02*
G75*
G02*
X12385000Y-13075000I-15000J0D01*
G01*
X12385000Y-13075000D02*
G75*
G02*
X12415000Y-13075000I15000J0D01*
G01*
X12465000Y-10500000D02*
G75*
G02*
X12435000Y-10500000I-15000J0D01*
G01*
X12435000Y-10500000D02*
G75*
G02*
X12465000Y-10500000I15000J0D01*
G01*
X12490000Y-11525000D02*
G75*
G02*
X12460000Y-11525000I-15000J0D01*
G01*
X12460000Y-11525000D02*
G75*
G02*
X12490000Y-11525000I15000J0D01*
G01*
X12565000Y-11400000D02*
G75*
G02*
X12535000Y-11400000I-15000J0D01*
G01*
X12535000Y-11400000D02*
G75*
G02*
X12565000Y-11400000I15000J0D01*
G01*
X12640000Y-11225000D02*
G75*
G02*
X12610000Y-11225000I-15000J0D01*
G01*
X12610000Y-11225000D02*
G75*
G02*
X12640000Y-11225000I15000J0D01*
G01*
X12915000Y-12525000D02*
G75*
G02*
X12885000Y-12525000I-15000J0D01*
G01*
X12885000Y-12525000D02*
G75*
G02*
X12915000Y-12525000I15000J0D01*
G01*
X12940000Y-11450000D02*
G75*
G02*
X12910000Y-11450000I-15000J0D01*
G01*
X12910000Y-11450000D02*
G75*
G02*
X12940000Y-11450000I15000J0D01*
G01*
X12940000Y-12125000D02*
G75*
G02*
X12910000Y-12125000I-15000J0D01*
G01*
X12910000Y-12125000D02*
G75*
G02*
X12940000Y-12125000I15000J0D01*
G01*
X13065000Y-10600000D02*
G75*
G02*
X13035000Y-10600000I-15000J0D01*
G01*
X13035000Y-10600000D02*
G75*
G02*
X13065000Y-10600000I15000J0D01*
G01*
X13090000Y-12150000D02*
G75*
G02*
X13060000Y-12150000I-15000J0D01*
G01*
X13060000Y-12150000D02*
G75*
G02*
X13090000Y-12150000I15000J0D01*
G01*
X13215000Y-10418000D02*
G75*
G02*
X13185000Y-10418000I-15000J0D01*
G01*
X13185000Y-10418000D02*
G75*
G02*
X13215000Y-10418000I15000J0D01*
G01*
X13340000Y-12550000D02*
G75*
G02*
X13310000Y-12550000I-15000J0D01*
G01*
X13310000Y-12550000D02*
G75*
G02*
X13340000Y-12550000I15000J0D01*
G01*
X13340000Y-13775000D02*
G75*
G02*
X13310000Y-13775000I-15000J0D01*
G01*
X13310000Y-13775000D02*
G75*
G02*
X13340000Y-13775000I15000J0D01*
G01*
X13365000Y-13250000D02*
G75*
G02*
X13335000Y-13250000I-15000J0D01*
G01*
X13335000Y-13250000D02*
G75*
G02*
X13365000Y-13250000I15000J0D01*
G01*
X13515000Y-11400000D02*
G75*
G02*
X13485000Y-11400000I-15000J0D01*
G01*
X13485000Y-11400000D02*
G75*
G02*
X13515000Y-11400000I15000J0D01*
G01*
X13540000Y-12850000D02*
G75*
G02*
X13510000Y-12850000I-15000J0D01*
G01*
X13510000Y-12850000D02*
G75*
G02*
X13540000Y-12850000I15000J0D01*
G01*
X13590000Y-12925000D02*
G75*
G02*
X13560000Y-12925000I-15000J0D01*
G01*
X13560000Y-12925000D02*
G75*
G02*
X13590000Y-12925000I15000J0D01*
G01*
X13615000Y-11180000D02*
G75*
G02*
X13585000Y-11180000I-15000J0D01*
G01*
X13585000Y-11180000D02*
G75*
G02*
X13615000Y-11180000I15000J0D01*
G01*
X13615000Y-13825000D02*
G75*
G02*
X13585000Y-13825000I-15000J0D01*
G01*
X13585000Y-13825000D02*
G75*
G02*
X13615000Y-13825000I15000J0D01*
G01*
X13640000Y-10250000D02*
G75*
G02*
X13610000Y-10250000I-15000J0D01*
G01*
X13610000Y-10250000D02*
G75*
G02*
X13640000Y-10250000I15000J0D01*
G01*
X13659806Y-11805193D02*
G75*
G02*
X13629806Y-11805193I-15000J0D01*
G01*
X13629806Y-11805193D02*
G75*
G02*
X13659806Y-11805193I15000J0D01*
G01*
X13665000Y-13975000D02*
G75*
G02*
X13635000Y-13975000I-15000J0D01*
G01*
X13635000Y-13975000D02*
G75*
G02*
X13665000Y-13975000I15000J0D01*
G01*
X13720193Y-11744806D02*
G75*
G02*
X13690193Y-11744806I-15000J0D01*
G01*
X13690193Y-11744806D02*
G75*
G02*
X13720193Y-11744806I15000J0D01*
G01*
X13790000Y-13800000D02*
G75*
G02*
X13760000Y-13800000I-15000J0D01*
G01*
X13760000Y-13800000D02*
G75*
G02*
X13790000Y-13800000I15000J0D01*
G01*
X13865000Y-13050000D02*
G75*
G02*
X13835000Y-13050000I-15000J0D01*
G01*
X13835000Y-13050000D02*
G75*
G02*
X13865000Y-13050000I15000J0D01*
G01*
X13865000Y-13200000D02*
G75*
G02*
X13835000Y-13200000I-15000J0D01*
G01*
X13835000Y-13200000D02*
G75*
G02*
X13865000Y-13200000I15000J0D01*
G01*
X13897300Y-12078065D02*
G75*
G02*
X13867300Y-12078065I-15000J0D01*
G01*
X13867300Y-12078065D02*
G75*
G02*
X13897300Y-12078065I15000J0D01*
G01*
X13915000Y-10300000D02*
G75*
G02*
X13885000Y-10300000I-15000J0D01*
G01*
X13885000Y-10300000D02*
G75*
G02*
X13915000Y-10300000I15000J0D01*
G01*
X13982700Y-12078065D02*
G75*
G02*
X13952700Y-12078065I-15000J0D01*
G01*
X13952700Y-12078065D02*
G75*
G02*
X13982700Y-12078065I15000J0D01*
G01*
X14033368Y-13256632D02*
G75*
G02*
X14003368Y-13256632I-15000J0D01*
G01*
X14003368Y-13256632D02*
G75*
G02*
X14033368Y-13256632I15000J0D01*
G01*
X14040000Y-12975000D02*
G75*
G02*
X14010000Y-12975000I-15000J0D01*
G01*
X14010000Y-12975000D02*
G75*
G02*
X14040000Y-12975000I15000J0D01*
G01*
X14040000Y-13375000D02*
G75*
G02*
X14010000Y-13375000I-15000J0D01*
G01*
X14010000Y-13375000D02*
G75*
G02*
X14040000Y-13375000I15000J0D01*
G01*
X14065000Y-12800000D02*
G75*
G02*
X14035000Y-12800000I-15000J0D01*
G01*
X14035000Y-12800000D02*
G75*
G02*
X14065000Y-12800000I15000J0D01*
G01*
X14065000Y-13800000D02*
G75*
G02*
X14035000Y-13800000I-15000J0D01*
G01*
X14035000Y-13800000D02*
G75*
G02*
X14065000Y-13800000I15000J0D01*
G01*
X14240000Y-13850000D02*
G75*
G02*
X14210000Y-13850000I-15000J0D01*
G01*
X14210000Y-13850000D02*
G75*
G02*
X14240000Y-13850000I15000J0D01*
G01*
X14265000Y-12150000D02*
G75*
G02*
X14235000Y-12150000I-15000J0D01*
G01*
X14235000Y-12150000D02*
G75*
G02*
X14265000Y-12150000I15000J0D01*
G01*
X14415000Y-10275000D02*
G75*
G02*
X14385000Y-10275000I-15000J0D01*
G01*
X14385000Y-10275000D02*
G75*
G02*
X14415000Y-10275000I15000J0D01*
G01*
X14415000Y-10625000D02*
G75*
G02*
X14385000Y-10625000I-15000J0D01*
G01*
X14385000Y-10625000D02*
G75*
G02*
X14415000Y-10625000I15000J0D01*
G01*
X14440000Y-10875000D02*
G75*
G02*
X14410000Y-10875000I-15000J0D01*
G01*
X14410000Y-10875000D02*
G75*
G02*
X14440000Y-10875000I15000J0D01*
G01*
X14565000Y-10550000D02*
G75*
G02*
X14535000Y-10550000I-15000J0D01*
G01*
X14535000Y-10550000D02*
G75*
G02*
X14565000Y-10550000I15000J0D01*
G01*
X14640000Y-11275000D02*
G75*
G02*
X14610000Y-11275000I-15000J0D01*
G01*
X14610000Y-11275000D02*
G75*
G02*
X14640000Y-11275000I15000J0D01*
G01*
X14715000Y-11600000D02*
G75*
G02*
X14685000Y-11600000I-15000J0D01*
G01*
X14685000Y-11600000D02*
G75*
G02*
X14715000Y-11600000I15000J0D01*
G01*
X14790000Y-11175000D02*
G75*
G02*
X14760000Y-11175000I-15000J0D01*
G01*
X14760000Y-11175000D02*
G75*
G02*
X14790000Y-11175000I15000J0D01*
G01*
X14790000Y-14050000D02*
G75*
G02*
X14760000Y-14050000I-15000J0D01*
G01*
X14760000Y-14050000D02*
G75*
G02*
X14790000Y-14050000I15000J0D01*
G01*
X14990000Y-12325000D02*
G75*
G02*
X14960000Y-12325000I-15000J0D01*
G01*
X14960000Y-12325000D02*
G75*
G02*
X14990000Y-12325000I15000J0D01*
G01*
X15190000Y-10200000D02*
G75*
G02*
X15160000Y-10200000I-15000J0D01*
G01*
X15160000Y-10200000D02*
G75*
G02*
X15190000Y-10200000I15000J0D01*
G01*
X15340000Y-11975000D02*
G75*
G02*
X15310000Y-11975000I-15000J0D01*
G01*
X15310000Y-11975000D02*
G75*
G02*
X15340000Y-11975000I15000J0D01*
G01*
X15465000Y-11950000D02*
G75*
G02*
X15435000Y-11950000I-15000J0D01*
G01*
X15435000Y-11950000D02*
G75*
G02*
X15465000Y-11950000I15000J0D01*
G01*
X15465000Y-12300000D02*
G75*
G02*
X15435000Y-12300000I-15000J0D01*
G01*
X15435000Y-12300000D02*
G75*
G02*
X15465000Y-12300000I15000J0D01*
G01*
X15490000Y-12150000D02*
G75*
G02*
X15460000Y-12150000I-15000J0D01*
G01*
X15460000Y-12150000D02*
G75*
G02*
X15490000Y-12150000I15000J0D01*
G01*
X15490000Y-13425000D02*
G75*
G02*
X15460000Y-13425000I-15000J0D01*
G01*
X15460000Y-13425000D02*
G75*
G02*
X15490000Y-13425000I15000J0D01*
G01*
X15815000Y-10700000D02*
G75*
G02*
X15785000Y-10700000I-15000J0D01*
G01*
X15785000Y-10700000D02*
G75*
G02*
X15815000Y-10700000I15000J0D01*
G01*
X13785000Y-10851000D02*
X13785000Y-10881000D01*
X13770000Y-10866000D02*
X13800000Y-10866000D01*
X13855000Y-10781000D02*
X13855000Y-10811000D01*
X13840000Y-10796000D02*
X13870000Y-10796000D01*
X13855000Y-10921000D02*
X13855000Y-10951000D01*
X13840000Y-10936000D02*
X13870000Y-10936000D01*
X13641642Y-13553142D02*
X13641642Y-13524858D01*
X13613358Y-13524858D01*
X13613358Y-13553142D01*
X13641642Y-13553142D01*
X13641642Y-13688142D02*
X13641642Y-13659858D01*
X13613358Y-13659858D01*
X13613358Y-13688142D01*
X13641642Y-13688142D01*
X13726642Y-13553142D02*
X13726642Y-13524858D01*
X13698358Y-13524858D01*
X13698358Y-13553142D01*
X13726642Y-13553142D01*
X13726642Y-13688142D02*
X13726642Y-13659858D01*
X13698358Y-13659858D01*
X13698358Y-13688142D01*
X13726642Y-13688142D01*
X13811642Y-13553142D02*
X13811642Y-13524858D01*
X13783358Y-13524858D01*
X13783358Y-13553142D01*
X13811642Y-13553142D01*
X13811642Y-13688142D02*
X13811642Y-13659858D01*
X13783358Y-13659858D01*
X13783358Y-13688142D01*
X13811642Y-13688142D01*
X13896642Y-13553142D02*
X13896642Y-13524858D01*
X13868358Y-13524858D01*
X13868358Y-13553142D01*
X13896642Y-13553142D01*
X13896642Y-13688142D02*
X13896642Y-13659858D01*
X13868358Y-13659858D01*
X13868358Y-13688142D01*
X13896642Y-13688142D01*
X13981642Y-13553142D02*
X13981642Y-13524858D01*
X13953358Y-13524858D01*
X13953358Y-13553142D01*
X13981642Y-13553142D01*
X13981642Y-13688142D02*
X13981642Y-13659858D01*
X13953358Y-13659858D01*
X13953358Y-13688142D01*
X13981642Y-13688142D01*
X14066642Y-13553142D02*
X14066642Y-13524858D01*
X14038358Y-13524858D01*
X14038358Y-13553142D01*
X14066642Y-13553142D01*
X14066642Y-13688142D02*
X14066642Y-13659858D01*
X14038358Y-13659858D01*
X14038358Y-13688142D01*
X14066642Y-13688142D01*
X14151642Y-13553142D02*
X14151642Y-13524858D01*
X14123358Y-13524858D01*
X14123358Y-13553142D01*
X14151642Y-13553142D01*
X14151642Y-13688142D02*
X14151642Y-13659858D01*
X14123358Y-13659858D01*
X14123358Y-13688142D01*
X14151642Y-13688142D01*
X14236642Y-13553142D02*
X14236642Y-13524858D01*
X14208358Y-13524858D01*
X14208358Y-13553142D01*
X14236642Y-13553142D01*
X14236642Y-13688142D02*
X14236642Y-13659858D01*
X14208358Y-13659858D01*
X14208358Y-13688142D01*
X14236642Y-13688142D01*
X13492500Y-13667000D02*
X13522500Y-13637000D01*
X13492500Y-13607000D01*
X13462500Y-13637000D01*
X13492500Y-13667000D01*
X13462500Y-13562000D02*
X13462500Y-13712000D01*
X13522500Y-13712000D02*
G75*
G02*
X13462500Y-13712000I-30000J0D01*
G01*
X13522500Y-13712000D02*
X13522500Y-13562000D01*
X13522500Y-13562000D02*
G75*
G03*
X13462500Y-13562000I-30000J0D01*
G01*
X13492500Y-14005000D02*
X13522500Y-13975000D01*
X13492500Y-13945000D01*
X13462500Y-13975000D01*
X13492500Y-14005000D01*
X13462500Y-13935000D02*
X13462500Y-14015000D01*
X13522500Y-14015000D02*
G75*
G02*
X13462500Y-14015000I-30000J0D01*
G01*
X13522500Y-14015000D02*
X13522500Y-13935000D01*
X13522500Y-13935000D02*
G75*
G03*
X13462500Y-13935000I-30000J0D01*
G01*
X14357500Y-13667000D02*
X14387500Y-13637000D01*
X14357500Y-13607000D01*
X14327500Y-13637000D01*
X14357500Y-13667000D01*
X14327500Y-13562000D02*
X14327500Y-13712000D01*
X14387500Y-13712000D02*
G75*
G02*
X14327500Y-13712000I-30000J0D01*
G01*
X14387500Y-13712000D02*
X14387500Y-13562000D01*
X14387500Y-13562000D02*
G75*
G03*
X14327500Y-13562000I-30000J0D01*
G01*
X14357500Y-14005000D02*
X14387500Y-13975000D01*
X14357500Y-13945000D01*
X14327500Y-13975000D01*
X14357500Y-14005000D01*
X14327500Y-13935000D02*
X14327500Y-14015000D01*
X14387500Y-14015000D02*
G75*
G02*
X14327500Y-14015000I-30000J0D01*
G01*
X14387500Y-14015000D02*
X14387500Y-13935000D01*
X14387500Y-13935000D02*
G75*
G03*
X14327500Y-13935000I-30000J0D01*
G01*
X15647500Y-12118000D02*
X15747500Y-12218000D01*
X15747500Y-12118000D02*
X15647500Y-12218000D01*
X15747500Y-12168000D02*
G75*
G02*
X15647500Y-12168000I-50000J0D01*
G01*
X15647500Y-12168000D02*
G75*
G02*
X15747500Y-12168000I50000J0D01*
G01*
X15647500Y-12372000D02*
X15747500Y-12472000D01*
X15747500Y-12372000D02*
X15647500Y-12472000D01*
X15747500Y-12422000D02*
G75*
G02*
X15647500Y-12422000I-50000J0D01*
G01*
X15647500Y-12422000D02*
G75*
G02*
X15747500Y-12422000I50000J0D01*
G01*
X15647500Y-12626000D02*
X15747500Y-12726000D01*
X15747500Y-12626000D02*
X15647500Y-12726000D01*
X15747500Y-12676000D02*
G75*
G02*
X15647500Y-12676000I-50000J0D01*
G01*
X15647500Y-12676000D02*
G75*
G02*
X15747500Y-12676000I50000J0D01*
G01*
X15647500Y-12880000D02*
X15747500Y-12980000D01*
X15747500Y-12880000D02*
X15647500Y-12980000D01*
X15747500Y-12930000D02*
G75*
G02*
X15647500Y-12930000I-50000J0D01*
G01*
X15647500Y-12930000D02*
G75*
G02*
X15747500Y-12930000I50000J0D01*
G01*
D11*
X11758872Y-14513389D02*
X11758872Y-14313389D01*
X11758872Y-14313389D02*
X11806491Y-14313389D01*
X11806491Y-14313389D02*
X11835062Y-14322913D01*
X11835062Y-14322913D02*
X11854110Y-14341960D01*
X11854110Y-14341960D02*
X11863634Y-14361008D01*
X11863634Y-14361008D02*
X11873157Y-14399103D01*
X11873157Y-14399103D02*
X11873157Y-14427674D01*
X11873157Y-14427674D02*
X11863634Y-14465770D01*
X11863634Y-14465770D02*
X11854110Y-14484817D01*
X11854110Y-14484817D02*
X11835062Y-14503865D01*
X11835062Y-14503865D02*
X11806491Y-14513389D01*
X11806491Y-14513389D02*
X11758872Y-14513389D01*
X11958872Y-14513389D02*
X11958872Y-14380055D01*
X11958872Y-14418151D02*
X11968396Y-14399103D01*
X11968396Y-14399103D02*
X11977919Y-14389579D01*
X11977919Y-14389579D02*
X11996967Y-14380055D01*
X11996967Y-14380055D02*
X12016015Y-14380055D01*
X12082681Y-14513389D02*
X12082681Y-14380055D01*
X12082681Y-14313389D02*
X12073157Y-14322913D01*
X12073157Y-14322913D02*
X12082681Y-14332436D01*
X12082681Y-14332436D02*
X12092205Y-14322913D01*
X12092205Y-14322913D02*
X12082681Y-14313389D01*
X12082681Y-14313389D02*
X12082681Y-14332436D01*
X12206491Y-14513389D02*
X12187443Y-14503865D01*
X12187443Y-14503865D02*
X12177919Y-14484817D01*
X12177919Y-14484817D02*
X12177919Y-14313389D01*
X12311253Y-14513389D02*
X12292205Y-14503865D01*
X12292205Y-14503865D02*
X12282681Y-14484817D01*
X12282681Y-14484817D02*
X12282681Y-14313389D01*
X12539824Y-14513389D02*
X12539824Y-14313389D01*
X12539824Y-14313389D02*
X12606491Y-14456246D01*
X12606491Y-14456246D02*
X12673157Y-14313389D01*
X12673157Y-14313389D02*
X12673157Y-14513389D01*
X12854110Y-14513389D02*
X12854110Y-14408627D01*
X12854110Y-14408627D02*
X12844586Y-14389579D01*
X12844586Y-14389579D02*
X12825538Y-14380055D01*
X12825538Y-14380055D02*
X12787443Y-14380055D01*
X12787443Y-14380055D02*
X12768396Y-14389579D01*
X12854110Y-14503865D02*
X12835062Y-14513389D01*
X12835062Y-14513389D02*
X12787443Y-14513389D01*
X12787443Y-14513389D02*
X12768396Y-14503865D01*
X12768396Y-14503865D02*
X12758872Y-14484817D01*
X12758872Y-14484817D02*
X12758872Y-14465770D01*
X12758872Y-14465770D02*
X12768396Y-14446722D01*
X12768396Y-14446722D02*
X12787443Y-14437198D01*
X12787443Y-14437198D02*
X12835062Y-14437198D01*
X12835062Y-14437198D02*
X12854110Y-14427674D01*
X12949348Y-14380055D02*
X12949348Y-14580055D01*
X12949348Y-14389579D02*
X12968396Y-14380055D01*
X12968396Y-14380055D02*
X13006491Y-14380055D01*
X13006491Y-14380055D02*
X13025538Y-14389579D01*
X13025538Y-14389579D02*
X13035062Y-14399103D01*
X13035062Y-14399103D02*
X13044586Y-14418151D01*
X13044586Y-14418151D02*
X13044586Y-14475293D01*
X13044586Y-14475293D02*
X13035062Y-14494341D01*
X13035062Y-14494341D02*
X13025538Y-14503865D01*
X13025538Y-14503865D02*
X13006491Y-14513389D01*
X13006491Y-14513389D02*
X12968396Y-14513389D01*
X12968396Y-14513389D02*
X12949348Y-14503865D01*
X13130300Y-14494341D02*
X13139824Y-14503865D01*
X13139824Y-14503865D02*
X13130300Y-14513389D01*
X13130300Y-14513389D02*
X13120777Y-14503865D01*
X13120777Y-14503865D02*
X13130300Y-14494341D01*
X13130300Y-14494341D02*
X13130300Y-14513389D01*
X13130300Y-14389579D02*
X13139824Y-14399103D01*
X13139824Y-14399103D02*
X13130300Y-14408627D01*
X13130300Y-14408627D02*
X13120777Y-14399103D01*
X13120777Y-14399103D02*
X13130300Y-14389579D01*
X13130300Y-14389579D02*
X13130300Y-14408627D01*
D12*
X11478095Y-14831905D02*
X11498095Y-14851905D01*
X11498095Y-14831905D02*
X11478095Y-14851905D01*
D11*
X11796967Y-14733389D02*
X11816015Y-14733389D01*
X11816015Y-14733389D02*
X11835062Y-14742913D01*
X11835062Y-14742913D02*
X11844586Y-14752436D01*
X11844586Y-14752436D02*
X11854110Y-14771484D01*
X11854110Y-14771484D02*
X11863634Y-14809579D01*
X11863634Y-14809579D02*
X11863634Y-14857198D01*
X11863634Y-14857198D02*
X11854110Y-14895293D01*
X11854110Y-14895293D02*
X11844586Y-14914341D01*
X11844586Y-14914341D02*
X11835062Y-14923865D01*
X11835062Y-14923865D02*
X11816015Y-14933389D01*
X11816015Y-14933389D02*
X11796967Y-14933389D01*
X11796967Y-14933389D02*
X11777919Y-14923865D01*
X11777919Y-14923865D02*
X11768396Y-14914341D01*
X11768396Y-14914341D02*
X11758872Y-14895293D01*
X11758872Y-14895293D02*
X11749348Y-14857198D01*
X11749348Y-14857198D02*
X11749348Y-14809579D01*
X11749348Y-14809579D02*
X11758872Y-14771484D01*
X11758872Y-14771484D02*
X11768396Y-14752436D01*
X11768396Y-14752436D02*
X11777919Y-14742913D01*
X11777919Y-14742913D02*
X11796967Y-14733389D01*
X11949348Y-14914341D02*
X11958872Y-14923865D01*
X11958872Y-14923865D02*
X11949348Y-14933389D01*
X11949348Y-14933389D02*
X11939824Y-14923865D01*
X11939824Y-14923865D02*
X11949348Y-14914341D01*
X11949348Y-14914341D02*
X11949348Y-14933389D01*
X12035062Y-14752436D02*
X12044586Y-14742913D01*
X12044586Y-14742913D02*
X12063634Y-14733389D01*
X12063634Y-14733389D02*
X12111253Y-14733389D01*
X12111253Y-14733389D02*
X12130300Y-14742913D01*
X12130300Y-14742913D02*
X12139824Y-14752436D01*
X12139824Y-14752436D02*
X12149348Y-14771484D01*
X12149348Y-14771484D02*
X12149348Y-14790532D01*
X12149348Y-14790532D02*
X12139824Y-14819103D01*
X12139824Y-14819103D02*
X12025538Y-14933389D01*
X12025538Y-14933389D02*
X12149348Y-14933389D01*
X12273157Y-14733389D02*
X12292205Y-14733389D01*
X12292205Y-14733389D02*
X12311253Y-14742913D01*
X12311253Y-14742913D02*
X12320777Y-14752436D01*
X12320777Y-14752436D02*
X12330300Y-14771484D01*
X12330300Y-14771484D02*
X12339824Y-14809579D01*
X12339824Y-14809579D02*
X12339824Y-14857198D01*
X12339824Y-14857198D02*
X12330300Y-14895293D01*
X12330300Y-14895293D02*
X12320777Y-14914341D01*
X12320777Y-14914341D02*
X12311253Y-14923865D01*
X12311253Y-14923865D02*
X12292205Y-14933389D01*
X12292205Y-14933389D02*
X12273157Y-14933389D01*
X12273157Y-14933389D02*
X12254110Y-14923865D01*
X12254110Y-14923865D02*
X12244586Y-14914341D01*
X12244586Y-14914341D02*
X12235062Y-14895293D01*
X12235062Y-14895293D02*
X12225538Y-14857198D01*
X12225538Y-14857198D02*
X12225538Y-14809579D01*
X12225538Y-14809579D02*
X12235062Y-14771484D01*
X12235062Y-14771484D02*
X12244586Y-14752436D01*
X12244586Y-14752436D02*
X12254110Y-14742913D01*
X12254110Y-14742913D02*
X12273157Y-14733389D01*
X12463634Y-14733389D02*
X12482681Y-14733389D01*
X12482681Y-14733389D02*
X12501729Y-14742913D01*
X12501729Y-14742913D02*
X12511253Y-14752436D01*
X12511253Y-14752436D02*
X12520777Y-14771484D01*
X12520777Y-14771484D02*
X12530300Y-14809579D01*
X12530300Y-14809579D02*
X12530300Y-14857198D01*
X12530300Y-14857198D02*
X12520777Y-14895293D01*
X12520777Y-14895293D02*
X12511253Y-14914341D01*
X12511253Y-14914341D02*
X12501729Y-14923865D01*
X12501729Y-14923865D02*
X12482681Y-14933389D01*
X12482681Y-14933389D02*
X12463634Y-14933389D01*
X12463634Y-14933389D02*
X12444586Y-14923865D01*
X12444586Y-14923865D02*
X12435062Y-14914341D01*
X12435062Y-14914341D02*
X12425538Y-14895293D01*
X12425538Y-14895293D02*
X12416015Y-14857198D01*
X12416015Y-14857198D02*
X12416015Y-14809579D01*
X12416015Y-14809579D02*
X12425538Y-14771484D01*
X12425538Y-14771484D02*
X12435062Y-14752436D01*
X12435062Y-14752436D02*
X12444586Y-14742913D01*
X12444586Y-14742913D02*
X12463634Y-14733389D01*
X12616015Y-14933389D02*
X12616015Y-14800055D01*
X12616015Y-14819103D02*
X12625538Y-14809579D01*
X12625538Y-14809579D02*
X12644586Y-14800055D01*
X12644586Y-14800055D02*
X12673158Y-14800055D01*
X12673158Y-14800055D02*
X12692205Y-14809579D01*
X12692205Y-14809579D02*
X12701729Y-14828627D01*
X12701729Y-14828627D02*
X12701729Y-14933389D01*
X12701729Y-14828627D02*
X12711253Y-14809579D01*
X12711253Y-14809579D02*
X12730300Y-14800055D01*
X12730300Y-14800055D02*
X12758872Y-14800055D01*
X12758872Y-14800055D02*
X12777919Y-14809579D01*
X12777919Y-14809579D02*
X12787443Y-14828627D01*
X12787443Y-14828627D02*
X12787443Y-14933389D01*
X12882681Y-14933389D02*
X12882681Y-14800055D01*
X12882681Y-14819103D02*
X12892205Y-14809579D01*
X12892205Y-14809579D02*
X12911253Y-14800055D01*
X12911253Y-14800055D02*
X12939824Y-14800055D01*
X12939824Y-14800055D02*
X12958872Y-14809579D01*
X12958872Y-14809579D02*
X12968396Y-14828627D01*
X12968396Y-14828627D02*
X12968396Y-14933389D01*
X12968396Y-14828627D02*
X12977919Y-14809579D01*
X12977919Y-14809579D02*
X12996967Y-14800055D01*
X12996967Y-14800055D02*
X13025538Y-14800055D01*
X13025538Y-14800055D02*
X13044586Y-14809579D01*
X13044586Y-14809579D02*
X13054110Y-14828627D01*
X13054110Y-14828627D02*
X13054110Y-14933389D01*
X13444586Y-14723865D02*
X13273158Y-14981008D01*
X13701729Y-14733389D02*
X13720777Y-14733389D01*
X13720777Y-14733389D02*
X13739824Y-14742913D01*
X13739824Y-14742913D02*
X13749348Y-14752436D01*
X13749348Y-14752436D02*
X13758872Y-14771484D01*
X13758872Y-14771484D02*
X13768396Y-14809579D01*
X13768396Y-14809579D02*
X13768396Y-14857198D01*
X13768396Y-14857198D02*
X13758872Y-14895293D01*
X13758872Y-14895293D02*
X13749348Y-14914341D01*
X13749348Y-14914341D02*
X13739824Y-14923865D01*
X13739824Y-14923865D02*
X13720777Y-14933389D01*
X13720777Y-14933389D02*
X13701729Y-14933389D01*
X13701729Y-14933389D02*
X13682681Y-14923865D01*
X13682681Y-14923865D02*
X13673158Y-14914341D01*
X13673158Y-14914341D02*
X13663634Y-14895293D01*
X13663634Y-14895293D02*
X13654110Y-14857198D01*
X13654110Y-14857198D02*
X13654110Y-14809579D01*
X13654110Y-14809579D02*
X13663634Y-14771484D01*
X13663634Y-14771484D02*
X13673158Y-14752436D01*
X13673158Y-14752436D02*
X13682681Y-14742913D01*
X13682681Y-14742913D02*
X13701729Y-14733389D01*
X13854110Y-14914341D02*
X13863634Y-14923865D01*
X13863634Y-14923865D02*
X13854110Y-14933389D01*
X13854110Y-14933389D02*
X13844586Y-14923865D01*
X13844586Y-14923865D02*
X13854110Y-14914341D01*
X13854110Y-14914341D02*
X13854110Y-14933389D01*
X13987443Y-14733389D02*
X14006491Y-14733389D01*
X14006491Y-14733389D02*
X14025539Y-14742913D01*
X14025539Y-14742913D02*
X14035062Y-14752436D01*
X14035062Y-14752436D02*
X14044586Y-14771484D01*
X14044586Y-14771484D02*
X14054110Y-14809579D01*
X14054110Y-14809579D02*
X14054110Y-14857198D01*
X14054110Y-14857198D02*
X14044586Y-14895293D01*
X14044586Y-14895293D02*
X14035062Y-14914341D01*
X14035062Y-14914341D02*
X14025539Y-14923865D01*
X14025539Y-14923865D02*
X14006491Y-14933389D01*
X14006491Y-14933389D02*
X13987443Y-14933389D01*
X13987443Y-14933389D02*
X13968396Y-14923865D01*
X13968396Y-14923865D02*
X13958872Y-14914341D01*
X13958872Y-14914341D02*
X13949348Y-14895293D01*
X13949348Y-14895293D02*
X13939824Y-14857198D01*
X13939824Y-14857198D02*
X13939824Y-14809579D01*
X13939824Y-14809579D02*
X13949348Y-14771484D01*
X13949348Y-14771484D02*
X13958872Y-14752436D01*
X13958872Y-14752436D02*
X13968396Y-14742913D01*
X13968396Y-14742913D02*
X13987443Y-14733389D01*
X14177920Y-14733389D02*
X14196967Y-14733389D01*
X14196967Y-14733389D02*
X14216015Y-14742913D01*
X14216015Y-14742913D02*
X14225539Y-14752436D01*
X14225539Y-14752436D02*
X14235062Y-14771484D01*
X14235062Y-14771484D02*
X14244586Y-14809579D01*
X14244586Y-14809579D02*
X14244586Y-14857198D01*
X14244586Y-14857198D02*
X14235062Y-14895293D01*
X14235062Y-14895293D02*
X14225539Y-14914341D01*
X14225539Y-14914341D02*
X14216015Y-14923865D01*
X14216015Y-14923865D02*
X14196967Y-14933389D01*
X14196967Y-14933389D02*
X14177920Y-14933389D01*
X14177920Y-14933389D02*
X14158872Y-14923865D01*
X14158872Y-14923865D02*
X14149348Y-14914341D01*
X14149348Y-14914341D02*
X14139824Y-14895293D01*
X14139824Y-14895293D02*
X14130301Y-14857198D01*
X14130301Y-14857198D02*
X14130301Y-14809579D01*
X14130301Y-14809579D02*
X14139824Y-14771484D01*
X14139824Y-14771484D02*
X14149348Y-14752436D01*
X14149348Y-14752436D02*
X14158872Y-14742913D01*
X14158872Y-14742913D02*
X14177920Y-14733389D01*
X14311253Y-14733389D02*
X14444586Y-14733389D01*
X14444586Y-14733389D02*
X14358872Y-14933389D01*
X14530301Y-14933389D02*
X14568396Y-14933389D01*
X14568396Y-14933389D02*
X14587443Y-14923865D01*
X14587443Y-14923865D02*
X14596967Y-14914341D01*
X14596967Y-14914341D02*
X14616015Y-14885770D01*
X14616015Y-14885770D02*
X14625539Y-14847674D01*
X14625539Y-14847674D02*
X14625539Y-14771484D01*
X14625539Y-14771484D02*
X14616015Y-14752436D01*
X14616015Y-14752436D02*
X14606491Y-14742913D01*
X14606491Y-14742913D02*
X14587443Y-14733389D01*
X14587443Y-14733389D02*
X14549348Y-14733389D01*
X14549348Y-14733389D02*
X14530301Y-14742913D01*
X14530301Y-14742913D02*
X14520777Y-14752436D01*
X14520777Y-14752436D02*
X14511253Y-14771484D01*
X14511253Y-14771484D02*
X14511253Y-14819103D01*
X14511253Y-14819103D02*
X14520777Y-14838151D01*
X14520777Y-14838151D02*
X14530301Y-14847674D01*
X14530301Y-14847674D02*
X14549348Y-14857198D01*
X14549348Y-14857198D02*
X14587443Y-14857198D01*
X14587443Y-14857198D02*
X14606491Y-14847674D01*
X14606491Y-14847674D02*
X14616015Y-14838151D01*
X14616015Y-14838151D02*
X14625539Y-14819103D01*
X14701729Y-14733389D02*
X14701729Y-14771484D01*
X14777920Y-14733389D02*
X14777920Y-14771484D01*
X15073158Y-15009579D02*
X15063634Y-15000055D01*
X15063634Y-15000055D02*
X15044586Y-14971484D01*
X15044586Y-14971484D02*
X15035063Y-14952436D01*
X15035063Y-14952436D02*
X15025539Y-14923865D01*
X15025539Y-14923865D02*
X15016015Y-14876246D01*
X15016015Y-14876246D02*
X15016015Y-14838151D01*
X15016015Y-14838151D02*
X15025539Y-14790532D01*
X15025539Y-14790532D02*
X15035063Y-14761960D01*
X15035063Y-14761960D02*
X15044586Y-14742913D01*
X15044586Y-14742913D02*
X15063634Y-14714341D01*
X15063634Y-14714341D02*
X15073158Y-14704817D01*
X15158872Y-14933389D02*
X15196967Y-14933389D01*
X15196967Y-14933389D02*
X15216015Y-14923865D01*
X15216015Y-14923865D02*
X15225539Y-14914341D01*
X15225539Y-14914341D02*
X15244586Y-14885770D01*
X15244586Y-14885770D02*
X15254110Y-14847674D01*
X15254110Y-14847674D02*
X15254110Y-14771484D01*
X15254110Y-14771484D02*
X15244586Y-14752436D01*
X15244586Y-14752436D02*
X15235063Y-14742913D01*
X15235063Y-14742913D02*
X15216015Y-14733389D01*
X15216015Y-14733389D02*
X15177920Y-14733389D01*
X15177920Y-14733389D02*
X15158872Y-14742913D01*
X15158872Y-14742913D02*
X15149348Y-14752436D01*
X15149348Y-14752436D02*
X15139824Y-14771484D01*
X15139824Y-14771484D02*
X15139824Y-14819103D01*
X15139824Y-14819103D02*
X15149348Y-14838151D01*
X15149348Y-14838151D02*
X15158872Y-14847674D01*
X15158872Y-14847674D02*
X15177920Y-14857198D01*
X15177920Y-14857198D02*
X15216015Y-14857198D01*
X15216015Y-14857198D02*
X15235063Y-14847674D01*
X15235063Y-14847674D02*
X15244586Y-14838151D01*
X15244586Y-14838151D02*
X15254110Y-14819103D01*
X15492205Y-14933389D02*
X15492205Y-14733389D01*
X15577920Y-14933389D02*
X15577920Y-14828627D01*
X15577920Y-14828627D02*
X15568396Y-14809579D01*
X15568396Y-14809579D02*
X15549348Y-14800055D01*
X15549348Y-14800055D02*
X15520777Y-14800055D01*
X15520777Y-14800055D02*
X15501729Y-14809579D01*
X15501729Y-14809579D02*
X15492205Y-14819103D01*
X15701729Y-14933389D02*
X15682682Y-14923865D01*
X15682682Y-14923865D02*
X15673158Y-14914341D01*
X15673158Y-14914341D02*
X15663634Y-14895293D01*
X15663634Y-14895293D02*
X15663634Y-14838151D01*
X15663634Y-14838151D02*
X15673158Y-14819103D01*
X15673158Y-14819103D02*
X15682682Y-14809579D01*
X15682682Y-14809579D02*
X15701729Y-14800055D01*
X15701729Y-14800055D02*
X15730301Y-14800055D01*
X15730301Y-14800055D02*
X15749348Y-14809579D01*
X15749348Y-14809579D02*
X15758872Y-14819103D01*
X15758872Y-14819103D02*
X15768396Y-14838151D01*
X15768396Y-14838151D02*
X15768396Y-14895293D01*
X15768396Y-14895293D02*
X15758872Y-14914341D01*
X15758872Y-14914341D02*
X15749348Y-14923865D01*
X15749348Y-14923865D02*
X15730301Y-14933389D01*
X15730301Y-14933389D02*
X15701729Y-14933389D01*
X15882682Y-14933389D02*
X15863634Y-14923865D01*
X15863634Y-14923865D02*
X15854110Y-14904817D01*
X15854110Y-14904817D02*
X15854110Y-14733389D01*
X16035063Y-14923865D02*
X16016015Y-14933389D01*
X16016015Y-14933389D02*
X15977920Y-14933389D01*
X15977920Y-14933389D02*
X15958872Y-14923865D01*
X15958872Y-14923865D02*
X15949348Y-14904817D01*
X15949348Y-14904817D02*
X15949348Y-14828627D01*
X15949348Y-14828627D02*
X15958872Y-14809579D01*
X15958872Y-14809579D02*
X15977920Y-14800055D01*
X15977920Y-14800055D02*
X16016015Y-14800055D01*
X16016015Y-14800055D02*
X16035063Y-14809579D01*
X16035063Y-14809579D02*
X16044586Y-14828627D01*
X16044586Y-14828627D02*
X16044586Y-14847674D01*
X16044586Y-14847674D02*
X15949348Y-14866722D01*
X16120777Y-14923865D02*
X16139825Y-14933389D01*
X16139825Y-14933389D02*
X16177920Y-14933389D01*
X16177920Y-14933389D02*
X16196967Y-14923865D01*
X16196967Y-14923865D02*
X16206491Y-14904817D01*
X16206491Y-14904817D02*
X16206491Y-14895293D01*
X16206491Y-14895293D02*
X16196967Y-14876246D01*
X16196967Y-14876246D02*
X16177920Y-14866722D01*
X16177920Y-14866722D02*
X16149348Y-14866722D01*
X16149348Y-14866722D02*
X16130301Y-14857198D01*
X16130301Y-14857198D02*
X16120777Y-14838151D01*
X16120777Y-14838151D02*
X16120777Y-14828627D01*
X16120777Y-14828627D02*
X16130301Y-14809579D01*
X16130301Y-14809579D02*
X16149348Y-14800055D01*
X16149348Y-14800055D02*
X16177920Y-14800055D01*
X16177920Y-14800055D02*
X16196967Y-14809579D01*
X16273158Y-15009579D02*
X16282682Y-15000055D01*
X16282682Y-15000055D02*
X16301729Y-14971484D01*
X16301729Y-14971484D02*
X16311253Y-14952436D01*
X16311253Y-14952436D02*
X16320777Y-14923865D01*
X16320777Y-14923865D02*
X16330301Y-14876246D01*
X16330301Y-14876246D02*
X16330301Y-14838151D01*
X16330301Y-14838151D02*
X16320777Y-14790532D01*
X16320777Y-14790532D02*
X16311253Y-14761960D01*
X16311253Y-14761960D02*
X16301729Y-14742913D01*
X16301729Y-14742913D02*
X16282682Y-14714341D01*
X16282682Y-14714341D02*
X16273158Y-14704817D01*
D12*
X11498095Y-15105905D02*
G75*
G02*
X11468095Y-15105905I-15000J0D01*
G01*
X11468095Y-15105905D02*
G75*
G02*
X11498095Y-15105905I15000J0D01*
G01*
D11*
X11796967Y-14997389D02*
X11816015Y-14997389D01*
X11816015Y-14997389D02*
X11835062Y-15006913D01*
X11835062Y-15006913D02*
X11844586Y-15016436D01*
X11844586Y-15016436D02*
X11854110Y-15035484D01*
X11854110Y-15035484D02*
X11863634Y-15073579D01*
X11863634Y-15073579D02*
X11863634Y-15121198D01*
X11863634Y-15121198D02*
X11854110Y-15159293D01*
X11854110Y-15159293D02*
X11844586Y-15178341D01*
X11844586Y-15178341D02*
X11835062Y-15187865D01*
X11835062Y-15187865D02*
X11816015Y-15197389D01*
X11816015Y-15197389D02*
X11796967Y-15197389D01*
X11796967Y-15197389D02*
X11777919Y-15187865D01*
X11777919Y-15187865D02*
X11768396Y-15178341D01*
X11768396Y-15178341D02*
X11758872Y-15159293D01*
X11758872Y-15159293D02*
X11749348Y-15121198D01*
X11749348Y-15121198D02*
X11749348Y-15073579D01*
X11749348Y-15073579D02*
X11758872Y-15035484D01*
X11758872Y-15035484D02*
X11768396Y-15016436D01*
X11768396Y-15016436D02*
X11777919Y-15006913D01*
X11777919Y-15006913D02*
X11796967Y-14997389D01*
X11949348Y-15178341D02*
X11958872Y-15187865D01*
X11958872Y-15187865D02*
X11949348Y-15197389D01*
X11949348Y-15197389D02*
X11939824Y-15187865D01*
X11939824Y-15187865D02*
X11949348Y-15178341D01*
X11949348Y-15178341D02*
X11949348Y-15197389D01*
X12025538Y-14997389D02*
X12149348Y-14997389D01*
X12149348Y-14997389D02*
X12082681Y-15073579D01*
X12082681Y-15073579D02*
X12111253Y-15073579D01*
X12111253Y-15073579D02*
X12130300Y-15083103D01*
X12130300Y-15083103D02*
X12139824Y-15092627D01*
X12139824Y-15092627D02*
X12149348Y-15111674D01*
X12149348Y-15111674D02*
X12149348Y-15159293D01*
X12149348Y-15159293D02*
X12139824Y-15178341D01*
X12139824Y-15178341D02*
X12130300Y-15187865D01*
X12130300Y-15187865D02*
X12111253Y-15197389D01*
X12111253Y-15197389D02*
X12054110Y-15197389D01*
X12054110Y-15197389D02*
X12035062Y-15187865D01*
X12035062Y-15187865D02*
X12025538Y-15178341D01*
X12273157Y-14997389D02*
X12292205Y-14997389D01*
X12292205Y-14997389D02*
X12311253Y-15006913D01*
X12311253Y-15006913D02*
X12320777Y-15016436D01*
X12320777Y-15016436D02*
X12330300Y-15035484D01*
X12330300Y-15035484D02*
X12339824Y-15073579D01*
X12339824Y-15073579D02*
X12339824Y-15121198D01*
X12339824Y-15121198D02*
X12330300Y-15159293D01*
X12330300Y-15159293D02*
X12320777Y-15178341D01*
X12320777Y-15178341D02*
X12311253Y-15187865D01*
X12311253Y-15187865D02*
X12292205Y-15197389D01*
X12292205Y-15197389D02*
X12273157Y-15197389D01*
X12273157Y-15197389D02*
X12254110Y-15187865D01*
X12254110Y-15187865D02*
X12244586Y-15178341D01*
X12244586Y-15178341D02*
X12235062Y-15159293D01*
X12235062Y-15159293D02*
X12225538Y-15121198D01*
X12225538Y-15121198D02*
X12225538Y-15073579D01*
X12225538Y-15073579D02*
X12235062Y-15035484D01*
X12235062Y-15035484D02*
X12244586Y-15016436D01*
X12244586Y-15016436D02*
X12254110Y-15006913D01*
X12254110Y-15006913D02*
X12273157Y-14997389D01*
X12463634Y-14997389D02*
X12482681Y-14997389D01*
X12482681Y-14997389D02*
X12501729Y-15006913D01*
X12501729Y-15006913D02*
X12511253Y-15016436D01*
X12511253Y-15016436D02*
X12520777Y-15035484D01*
X12520777Y-15035484D02*
X12530300Y-15073579D01*
X12530300Y-15073579D02*
X12530300Y-15121198D01*
X12530300Y-15121198D02*
X12520777Y-15159293D01*
X12520777Y-15159293D02*
X12511253Y-15178341D01*
X12511253Y-15178341D02*
X12501729Y-15187865D01*
X12501729Y-15187865D02*
X12482681Y-15197389D01*
X12482681Y-15197389D02*
X12463634Y-15197389D01*
X12463634Y-15197389D02*
X12444586Y-15187865D01*
X12444586Y-15187865D02*
X12435062Y-15178341D01*
X12435062Y-15178341D02*
X12425538Y-15159293D01*
X12425538Y-15159293D02*
X12416015Y-15121198D01*
X12416015Y-15121198D02*
X12416015Y-15073579D01*
X12416015Y-15073579D02*
X12425538Y-15035484D01*
X12425538Y-15035484D02*
X12435062Y-15016436D01*
X12435062Y-15016436D02*
X12444586Y-15006913D01*
X12444586Y-15006913D02*
X12463634Y-14997389D01*
X12616015Y-15197389D02*
X12616015Y-15064055D01*
X12616015Y-15083103D02*
X12625538Y-15073579D01*
X12625538Y-15073579D02*
X12644586Y-15064055D01*
X12644586Y-15064055D02*
X12673158Y-15064055D01*
X12673158Y-15064055D02*
X12692205Y-15073579D01*
X12692205Y-15073579D02*
X12701729Y-15092627D01*
X12701729Y-15092627D02*
X12701729Y-15197389D01*
X12701729Y-15092627D02*
X12711253Y-15073579D01*
X12711253Y-15073579D02*
X12730300Y-15064055D01*
X12730300Y-15064055D02*
X12758872Y-15064055D01*
X12758872Y-15064055D02*
X12777919Y-15073579D01*
X12777919Y-15073579D02*
X12787443Y-15092627D01*
X12787443Y-15092627D02*
X12787443Y-15197389D01*
X12882681Y-15197389D02*
X12882681Y-15064055D01*
X12882681Y-15083103D02*
X12892205Y-15073579D01*
X12892205Y-15073579D02*
X12911253Y-15064055D01*
X12911253Y-15064055D02*
X12939824Y-15064055D01*
X12939824Y-15064055D02*
X12958872Y-15073579D01*
X12958872Y-15073579D02*
X12968396Y-15092627D01*
X12968396Y-15092627D02*
X12968396Y-15197389D01*
X12968396Y-15092627D02*
X12977919Y-15073579D01*
X12977919Y-15073579D02*
X12996967Y-15064055D01*
X12996967Y-15064055D02*
X13025538Y-15064055D01*
X13025538Y-15064055D02*
X13044586Y-15073579D01*
X13044586Y-15073579D02*
X13054110Y-15092627D01*
X13054110Y-15092627D02*
X13054110Y-15197389D01*
X13444586Y-14987865D02*
X13273158Y-15245008D01*
X13701729Y-14997389D02*
X13720777Y-14997389D01*
X13720777Y-14997389D02*
X13739824Y-15006913D01*
X13739824Y-15006913D02*
X13749348Y-15016436D01*
X13749348Y-15016436D02*
X13758872Y-15035484D01*
X13758872Y-15035484D02*
X13768396Y-15073579D01*
X13768396Y-15073579D02*
X13768396Y-15121198D01*
X13768396Y-15121198D02*
X13758872Y-15159293D01*
X13758872Y-15159293D02*
X13749348Y-15178341D01*
X13749348Y-15178341D02*
X13739824Y-15187865D01*
X13739824Y-15187865D02*
X13720777Y-15197389D01*
X13720777Y-15197389D02*
X13701729Y-15197389D01*
X13701729Y-15197389D02*
X13682681Y-15187865D01*
X13682681Y-15187865D02*
X13673158Y-15178341D01*
X13673158Y-15178341D02*
X13663634Y-15159293D01*
X13663634Y-15159293D02*
X13654110Y-15121198D01*
X13654110Y-15121198D02*
X13654110Y-15073579D01*
X13654110Y-15073579D02*
X13663634Y-15035484D01*
X13663634Y-15035484D02*
X13673158Y-15016436D01*
X13673158Y-15016436D02*
X13682681Y-15006913D01*
X13682681Y-15006913D02*
X13701729Y-14997389D01*
X13854110Y-15178341D02*
X13863634Y-15187865D01*
X13863634Y-15187865D02*
X13854110Y-15197389D01*
X13854110Y-15197389D02*
X13844586Y-15187865D01*
X13844586Y-15187865D02*
X13854110Y-15178341D01*
X13854110Y-15178341D02*
X13854110Y-15197389D01*
X13987443Y-14997389D02*
X14006491Y-14997389D01*
X14006491Y-14997389D02*
X14025539Y-15006913D01*
X14025539Y-15006913D02*
X14035062Y-15016436D01*
X14035062Y-15016436D02*
X14044586Y-15035484D01*
X14044586Y-15035484D02*
X14054110Y-15073579D01*
X14054110Y-15073579D02*
X14054110Y-15121198D01*
X14054110Y-15121198D02*
X14044586Y-15159293D01*
X14044586Y-15159293D02*
X14035062Y-15178341D01*
X14035062Y-15178341D02*
X14025539Y-15187865D01*
X14025539Y-15187865D02*
X14006491Y-15197389D01*
X14006491Y-15197389D02*
X13987443Y-15197389D01*
X13987443Y-15197389D02*
X13968396Y-15187865D01*
X13968396Y-15187865D02*
X13958872Y-15178341D01*
X13958872Y-15178341D02*
X13949348Y-15159293D01*
X13949348Y-15159293D02*
X13939824Y-15121198D01*
X13939824Y-15121198D02*
X13939824Y-15073579D01*
X13939824Y-15073579D02*
X13949348Y-15035484D01*
X13949348Y-15035484D02*
X13958872Y-15016436D01*
X13958872Y-15016436D02*
X13968396Y-15006913D01*
X13968396Y-15006913D02*
X13987443Y-14997389D01*
X14244586Y-15197389D02*
X14130301Y-15197389D01*
X14187443Y-15197389D02*
X14187443Y-14997389D01*
X14187443Y-14997389D02*
X14168396Y-15025960D01*
X14168396Y-15025960D02*
X14149348Y-15045008D01*
X14149348Y-15045008D02*
X14130301Y-15054532D01*
X14435062Y-15197389D02*
X14320777Y-15197389D01*
X14377920Y-15197389D02*
X14377920Y-14997389D01*
X14377920Y-14997389D02*
X14358872Y-15025960D01*
X14358872Y-15025960D02*
X14339824Y-15045008D01*
X14339824Y-15045008D02*
X14320777Y-15054532D01*
X14549348Y-15083103D02*
X14530301Y-15073579D01*
X14530301Y-15073579D02*
X14520777Y-15064055D01*
X14520777Y-15064055D02*
X14511253Y-15045008D01*
X14511253Y-15045008D02*
X14511253Y-15035484D01*
X14511253Y-15035484D02*
X14520777Y-15016436D01*
X14520777Y-15016436D02*
X14530301Y-15006913D01*
X14530301Y-15006913D02*
X14549348Y-14997389D01*
X14549348Y-14997389D02*
X14587443Y-14997389D01*
X14587443Y-14997389D02*
X14606491Y-15006913D01*
X14606491Y-15006913D02*
X14616015Y-15016436D01*
X14616015Y-15016436D02*
X14625539Y-15035484D01*
X14625539Y-15035484D02*
X14625539Y-15045008D01*
X14625539Y-15045008D02*
X14616015Y-15064055D01*
X14616015Y-15064055D02*
X14606491Y-15073579D01*
X14606491Y-15073579D02*
X14587443Y-15083103D01*
X14587443Y-15083103D02*
X14549348Y-15083103D01*
X14549348Y-15083103D02*
X14530301Y-15092627D01*
X14530301Y-15092627D02*
X14520777Y-15102151D01*
X14520777Y-15102151D02*
X14511253Y-15121198D01*
X14511253Y-15121198D02*
X14511253Y-15159293D01*
X14511253Y-15159293D02*
X14520777Y-15178341D01*
X14520777Y-15178341D02*
X14530301Y-15187865D01*
X14530301Y-15187865D02*
X14549348Y-15197389D01*
X14549348Y-15197389D02*
X14587443Y-15197389D01*
X14587443Y-15197389D02*
X14606491Y-15187865D01*
X14606491Y-15187865D02*
X14616015Y-15178341D01*
X14616015Y-15178341D02*
X14625539Y-15159293D01*
X14625539Y-15159293D02*
X14625539Y-15121198D01*
X14625539Y-15121198D02*
X14616015Y-15102151D01*
X14616015Y-15102151D02*
X14606491Y-15092627D01*
X14606491Y-15092627D02*
X14587443Y-15083103D01*
X14701729Y-14997389D02*
X14701729Y-15035484D01*
X14777920Y-14997389D02*
X14777920Y-15035484D01*
X15073158Y-15273579D02*
X15063634Y-15264055D01*
X15063634Y-15264055D02*
X15044586Y-15235484D01*
X15044586Y-15235484D02*
X15035063Y-15216436D01*
X15035063Y-15216436D02*
X15025539Y-15187865D01*
X15025539Y-15187865D02*
X15016015Y-15140246D01*
X15016015Y-15140246D02*
X15016015Y-15102151D01*
X15016015Y-15102151D02*
X15025539Y-15054532D01*
X15025539Y-15054532D02*
X15035063Y-15025960D01*
X15035063Y-15025960D02*
X15044586Y-15006913D01*
X15044586Y-15006913D02*
X15063634Y-14978341D01*
X15063634Y-14978341D02*
X15073158Y-14968817D01*
X15235063Y-14997389D02*
X15196967Y-14997389D01*
X15196967Y-14997389D02*
X15177920Y-15006913D01*
X15177920Y-15006913D02*
X15168396Y-15016436D01*
X15168396Y-15016436D02*
X15149348Y-15045008D01*
X15149348Y-15045008D02*
X15139824Y-15083103D01*
X15139824Y-15083103D02*
X15139824Y-15159293D01*
X15139824Y-15159293D02*
X15149348Y-15178341D01*
X15149348Y-15178341D02*
X15158872Y-15187865D01*
X15158872Y-15187865D02*
X15177920Y-15197389D01*
X15177920Y-15197389D02*
X15216015Y-15197389D01*
X15216015Y-15197389D02*
X15235063Y-15187865D01*
X15235063Y-15187865D02*
X15244586Y-15178341D01*
X15244586Y-15178341D02*
X15254110Y-15159293D01*
X15254110Y-15159293D02*
X15254110Y-15111674D01*
X15254110Y-15111674D02*
X15244586Y-15092627D01*
X15244586Y-15092627D02*
X15235063Y-15083103D01*
X15235063Y-15083103D02*
X15216015Y-15073579D01*
X15216015Y-15073579D02*
X15177920Y-15073579D01*
X15177920Y-15073579D02*
X15158872Y-15083103D01*
X15158872Y-15083103D02*
X15149348Y-15092627D01*
X15149348Y-15092627D02*
X15139824Y-15111674D01*
X15377920Y-14997389D02*
X15396967Y-14997389D01*
X15396967Y-14997389D02*
X15416015Y-15006913D01*
X15416015Y-15006913D02*
X15425539Y-15016436D01*
X15425539Y-15016436D02*
X15435063Y-15035484D01*
X15435063Y-15035484D02*
X15444586Y-15073579D01*
X15444586Y-15073579D02*
X15444586Y-15121198D01*
X15444586Y-15121198D02*
X15435063Y-15159293D01*
X15435063Y-15159293D02*
X15425539Y-15178341D01*
X15425539Y-15178341D02*
X15416015Y-15187865D01*
X15416015Y-15187865D02*
X15396967Y-15197389D01*
X15396967Y-15197389D02*
X15377920Y-15197389D01*
X15377920Y-15197389D02*
X15358872Y-15187865D01*
X15358872Y-15187865D02*
X15349348Y-15178341D01*
X15349348Y-15178341D02*
X15339824Y-15159293D01*
X15339824Y-15159293D02*
X15330301Y-15121198D01*
X15330301Y-15121198D02*
X15330301Y-15073579D01*
X15330301Y-15073579D02*
X15339824Y-15035484D01*
X15339824Y-15035484D02*
X15349348Y-15016436D01*
X15349348Y-15016436D02*
X15358872Y-15006913D01*
X15358872Y-15006913D02*
X15377920Y-14997389D01*
X15682682Y-15197389D02*
X15682682Y-14997389D01*
X15768396Y-15197389D02*
X15768396Y-15092627D01*
X15768396Y-15092627D02*
X15758872Y-15073579D01*
X15758872Y-15073579D02*
X15739825Y-15064055D01*
X15739825Y-15064055D02*
X15711253Y-15064055D01*
X15711253Y-15064055D02*
X15692205Y-15073579D01*
X15692205Y-15073579D02*
X15682682Y-15083103D01*
X15892205Y-15197389D02*
X15873158Y-15187865D01*
X15873158Y-15187865D02*
X15863634Y-15178341D01*
X15863634Y-15178341D02*
X15854110Y-15159293D01*
X15854110Y-15159293D02*
X15854110Y-15102151D01*
X15854110Y-15102151D02*
X15863634Y-15083103D01*
X15863634Y-15083103D02*
X15873158Y-15073579D01*
X15873158Y-15073579D02*
X15892205Y-15064055D01*
X15892205Y-15064055D02*
X15920777Y-15064055D01*
X15920777Y-15064055D02*
X15939825Y-15073579D01*
X15939825Y-15073579D02*
X15949348Y-15083103D01*
X15949348Y-15083103D02*
X15958872Y-15102151D01*
X15958872Y-15102151D02*
X15958872Y-15159293D01*
X15958872Y-15159293D02*
X15949348Y-15178341D01*
X15949348Y-15178341D02*
X15939825Y-15187865D01*
X15939825Y-15187865D02*
X15920777Y-15197389D01*
X15920777Y-15197389D02*
X15892205Y-15197389D01*
X16073158Y-15197389D02*
X16054110Y-15187865D01*
X16054110Y-15187865D02*
X16044586Y-15168817D01*
X16044586Y-15168817D02*
X16044586Y-14997389D01*
X16225539Y-15187865D02*
X16206491Y-15197389D01*
X16206491Y-15197389D02*
X16168396Y-15197389D01*
X16168396Y-15197389D02*
X16149348Y-15187865D01*
X16149348Y-15187865D02*
X16139825Y-15168817D01*
X16139825Y-15168817D02*
X16139825Y-15092627D01*
X16139825Y-15092627D02*
X16149348Y-15073579D01*
X16149348Y-15073579D02*
X16168396Y-15064055D01*
X16168396Y-15064055D02*
X16206491Y-15064055D01*
X16206491Y-15064055D02*
X16225539Y-15073579D01*
X16225539Y-15073579D02*
X16235063Y-15092627D01*
X16235063Y-15092627D02*
X16235063Y-15111674D01*
X16235063Y-15111674D02*
X16139825Y-15130722D01*
X16311253Y-15187865D02*
X16330301Y-15197389D01*
X16330301Y-15197389D02*
X16368396Y-15197389D01*
X16368396Y-15197389D02*
X16387444Y-15187865D01*
X16387444Y-15187865D02*
X16396967Y-15168817D01*
X16396967Y-15168817D02*
X16396967Y-15159293D01*
X16396967Y-15159293D02*
X16387444Y-15140246D01*
X16387444Y-15140246D02*
X16368396Y-15130722D01*
X16368396Y-15130722D02*
X16339825Y-15130722D01*
X16339825Y-15130722D02*
X16320777Y-15121198D01*
X16320777Y-15121198D02*
X16311253Y-15102151D01*
X16311253Y-15102151D02*
X16311253Y-15092627D01*
X16311253Y-15092627D02*
X16320777Y-15073579D01*
X16320777Y-15073579D02*
X16339825Y-15064055D01*
X16339825Y-15064055D02*
X16368396Y-15064055D01*
X16368396Y-15064055D02*
X16387444Y-15073579D01*
X16463634Y-15273579D02*
X16473158Y-15264055D01*
X16473158Y-15264055D02*
X16492206Y-15235484D01*
X16492206Y-15235484D02*
X16501729Y-15216436D01*
X16501729Y-15216436D02*
X16511253Y-15187865D01*
X16511253Y-15187865D02*
X16520777Y-15140246D01*
X16520777Y-15140246D02*
X16520777Y-15102151D01*
X16520777Y-15102151D02*
X16511253Y-15054532D01*
X16511253Y-15054532D02*
X16501729Y-15025960D01*
X16501729Y-15025960D02*
X16492206Y-15006913D01*
X16492206Y-15006913D02*
X16473158Y-14978341D01*
X16473158Y-14978341D02*
X16463634Y-14968817D01*
D12*
X11483095Y-15354905D02*
X11483095Y-15384905D01*
X11468095Y-15369905D02*
X11498095Y-15369905D01*
D11*
X11796967Y-15261389D02*
X11816015Y-15261389D01*
X11816015Y-15261389D02*
X11835062Y-15270913D01*
X11835062Y-15270913D02*
X11844586Y-15280436D01*
X11844586Y-15280436D02*
X11854110Y-15299484D01*
X11854110Y-15299484D02*
X11863634Y-15337579D01*
X11863634Y-15337579D02*
X11863634Y-15385198D01*
X11863634Y-15385198D02*
X11854110Y-15423293D01*
X11854110Y-15423293D02*
X11844586Y-15442341D01*
X11844586Y-15442341D02*
X11835062Y-15451865D01*
X11835062Y-15451865D02*
X11816015Y-15461389D01*
X11816015Y-15461389D02*
X11796967Y-15461389D01*
X11796967Y-15461389D02*
X11777919Y-15451865D01*
X11777919Y-15451865D02*
X11768396Y-15442341D01*
X11768396Y-15442341D02*
X11758872Y-15423293D01*
X11758872Y-15423293D02*
X11749348Y-15385198D01*
X11749348Y-15385198D02*
X11749348Y-15337579D01*
X11749348Y-15337579D02*
X11758872Y-15299484D01*
X11758872Y-15299484D02*
X11768396Y-15280436D01*
X11768396Y-15280436D02*
X11777919Y-15270913D01*
X11777919Y-15270913D02*
X11796967Y-15261389D01*
X11949348Y-15442341D02*
X11958872Y-15451865D01*
X11958872Y-15451865D02*
X11949348Y-15461389D01*
X11949348Y-15461389D02*
X11939824Y-15451865D01*
X11939824Y-15451865D02*
X11949348Y-15442341D01*
X11949348Y-15442341D02*
X11949348Y-15461389D01*
X12025538Y-15261389D02*
X12149348Y-15261389D01*
X12149348Y-15261389D02*
X12082681Y-15337579D01*
X12082681Y-15337579D02*
X12111253Y-15337579D01*
X12111253Y-15337579D02*
X12130300Y-15347103D01*
X12130300Y-15347103D02*
X12139824Y-15356627D01*
X12139824Y-15356627D02*
X12149348Y-15375674D01*
X12149348Y-15375674D02*
X12149348Y-15423293D01*
X12149348Y-15423293D02*
X12139824Y-15442341D01*
X12139824Y-15442341D02*
X12130300Y-15451865D01*
X12130300Y-15451865D02*
X12111253Y-15461389D01*
X12111253Y-15461389D02*
X12054110Y-15461389D01*
X12054110Y-15461389D02*
X12035062Y-15451865D01*
X12035062Y-15451865D02*
X12025538Y-15442341D01*
X12273157Y-15261389D02*
X12292205Y-15261389D01*
X12292205Y-15261389D02*
X12311253Y-15270913D01*
X12311253Y-15270913D02*
X12320777Y-15280436D01*
X12320777Y-15280436D02*
X12330300Y-15299484D01*
X12330300Y-15299484D02*
X12339824Y-15337579D01*
X12339824Y-15337579D02*
X12339824Y-15385198D01*
X12339824Y-15385198D02*
X12330300Y-15423293D01*
X12330300Y-15423293D02*
X12320777Y-15442341D01*
X12320777Y-15442341D02*
X12311253Y-15451865D01*
X12311253Y-15451865D02*
X12292205Y-15461389D01*
X12292205Y-15461389D02*
X12273157Y-15461389D01*
X12273157Y-15461389D02*
X12254110Y-15451865D01*
X12254110Y-15451865D02*
X12244586Y-15442341D01*
X12244586Y-15442341D02*
X12235062Y-15423293D01*
X12235062Y-15423293D02*
X12225538Y-15385198D01*
X12225538Y-15385198D02*
X12225538Y-15337579D01*
X12225538Y-15337579D02*
X12235062Y-15299484D01*
X12235062Y-15299484D02*
X12244586Y-15280436D01*
X12244586Y-15280436D02*
X12254110Y-15270913D01*
X12254110Y-15270913D02*
X12273157Y-15261389D01*
X12463634Y-15261389D02*
X12482681Y-15261389D01*
X12482681Y-15261389D02*
X12501729Y-15270913D01*
X12501729Y-15270913D02*
X12511253Y-15280436D01*
X12511253Y-15280436D02*
X12520777Y-15299484D01*
X12520777Y-15299484D02*
X12530300Y-15337579D01*
X12530300Y-15337579D02*
X12530300Y-15385198D01*
X12530300Y-15385198D02*
X12520777Y-15423293D01*
X12520777Y-15423293D02*
X12511253Y-15442341D01*
X12511253Y-15442341D02*
X12501729Y-15451865D01*
X12501729Y-15451865D02*
X12482681Y-15461389D01*
X12482681Y-15461389D02*
X12463634Y-15461389D01*
X12463634Y-15461389D02*
X12444586Y-15451865D01*
X12444586Y-15451865D02*
X12435062Y-15442341D01*
X12435062Y-15442341D02*
X12425538Y-15423293D01*
X12425538Y-15423293D02*
X12416015Y-15385198D01*
X12416015Y-15385198D02*
X12416015Y-15337579D01*
X12416015Y-15337579D02*
X12425538Y-15299484D01*
X12425538Y-15299484D02*
X12435062Y-15280436D01*
X12435062Y-15280436D02*
X12444586Y-15270913D01*
X12444586Y-15270913D02*
X12463634Y-15261389D01*
X12616015Y-15461389D02*
X12616015Y-15328055D01*
X12616015Y-15347103D02*
X12625538Y-15337579D01*
X12625538Y-15337579D02*
X12644586Y-15328055D01*
X12644586Y-15328055D02*
X12673158Y-15328055D01*
X12673158Y-15328055D02*
X12692205Y-15337579D01*
X12692205Y-15337579D02*
X12701729Y-15356627D01*
X12701729Y-15356627D02*
X12701729Y-15461389D01*
X12701729Y-15356627D02*
X12711253Y-15337579D01*
X12711253Y-15337579D02*
X12730300Y-15328055D01*
X12730300Y-15328055D02*
X12758872Y-15328055D01*
X12758872Y-15328055D02*
X12777919Y-15337579D01*
X12777919Y-15337579D02*
X12787443Y-15356627D01*
X12787443Y-15356627D02*
X12787443Y-15461389D01*
X12882681Y-15461389D02*
X12882681Y-15328055D01*
X12882681Y-15347103D02*
X12892205Y-15337579D01*
X12892205Y-15337579D02*
X12911253Y-15328055D01*
X12911253Y-15328055D02*
X12939824Y-15328055D01*
X12939824Y-15328055D02*
X12958872Y-15337579D01*
X12958872Y-15337579D02*
X12968396Y-15356627D01*
X12968396Y-15356627D02*
X12968396Y-15461389D01*
X12968396Y-15356627D02*
X12977919Y-15337579D01*
X12977919Y-15337579D02*
X12996967Y-15328055D01*
X12996967Y-15328055D02*
X13025538Y-15328055D01*
X13025538Y-15328055D02*
X13044586Y-15337579D01*
X13044586Y-15337579D02*
X13054110Y-15356627D01*
X13054110Y-15356627D02*
X13054110Y-15461389D01*
X13444586Y-15251865D02*
X13273158Y-15509008D01*
X13701729Y-15261389D02*
X13720777Y-15261389D01*
X13720777Y-15261389D02*
X13739824Y-15270913D01*
X13739824Y-15270913D02*
X13749348Y-15280436D01*
X13749348Y-15280436D02*
X13758872Y-15299484D01*
X13758872Y-15299484D02*
X13768396Y-15337579D01*
X13768396Y-15337579D02*
X13768396Y-15385198D01*
X13768396Y-15385198D02*
X13758872Y-15423293D01*
X13758872Y-15423293D02*
X13749348Y-15442341D01*
X13749348Y-15442341D02*
X13739824Y-15451865D01*
X13739824Y-15451865D02*
X13720777Y-15461389D01*
X13720777Y-15461389D02*
X13701729Y-15461389D01*
X13701729Y-15461389D02*
X13682681Y-15451865D01*
X13682681Y-15451865D02*
X13673158Y-15442341D01*
X13673158Y-15442341D02*
X13663634Y-15423293D01*
X13663634Y-15423293D02*
X13654110Y-15385198D01*
X13654110Y-15385198D02*
X13654110Y-15337579D01*
X13654110Y-15337579D02*
X13663634Y-15299484D01*
X13663634Y-15299484D02*
X13673158Y-15280436D01*
X13673158Y-15280436D02*
X13682681Y-15270913D01*
X13682681Y-15270913D02*
X13701729Y-15261389D01*
X13854110Y-15442341D02*
X13863634Y-15451865D01*
X13863634Y-15451865D02*
X13854110Y-15461389D01*
X13854110Y-15461389D02*
X13844586Y-15451865D01*
X13844586Y-15451865D02*
X13854110Y-15442341D01*
X13854110Y-15442341D02*
X13854110Y-15461389D01*
X13987443Y-15261389D02*
X14006491Y-15261389D01*
X14006491Y-15261389D02*
X14025539Y-15270913D01*
X14025539Y-15270913D02*
X14035062Y-15280436D01*
X14035062Y-15280436D02*
X14044586Y-15299484D01*
X14044586Y-15299484D02*
X14054110Y-15337579D01*
X14054110Y-15337579D02*
X14054110Y-15385198D01*
X14054110Y-15385198D02*
X14044586Y-15423293D01*
X14044586Y-15423293D02*
X14035062Y-15442341D01*
X14035062Y-15442341D02*
X14025539Y-15451865D01*
X14025539Y-15451865D02*
X14006491Y-15461389D01*
X14006491Y-15461389D02*
X13987443Y-15461389D01*
X13987443Y-15461389D02*
X13968396Y-15451865D01*
X13968396Y-15451865D02*
X13958872Y-15442341D01*
X13958872Y-15442341D02*
X13949348Y-15423293D01*
X13949348Y-15423293D02*
X13939824Y-15385198D01*
X13939824Y-15385198D02*
X13939824Y-15337579D01*
X13939824Y-15337579D02*
X13949348Y-15299484D01*
X13949348Y-15299484D02*
X13958872Y-15280436D01*
X13958872Y-15280436D02*
X13968396Y-15270913D01*
X13968396Y-15270913D02*
X13987443Y-15261389D01*
X14244586Y-15461389D02*
X14130301Y-15461389D01*
X14187443Y-15461389D02*
X14187443Y-15261389D01*
X14187443Y-15261389D02*
X14168396Y-15289960D01*
X14168396Y-15289960D02*
X14149348Y-15309008D01*
X14149348Y-15309008D02*
X14130301Y-15318532D01*
X14435062Y-15461389D02*
X14320777Y-15461389D01*
X14377920Y-15461389D02*
X14377920Y-15261389D01*
X14377920Y-15261389D02*
X14358872Y-15289960D01*
X14358872Y-15289960D02*
X14339824Y-15309008D01*
X14339824Y-15309008D02*
X14320777Y-15318532D01*
X14549348Y-15347103D02*
X14530301Y-15337579D01*
X14530301Y-15337579D02*
X14520777Y-15328055D01*
X14520777Y-15328055D02*
X14511253Y-15309008D01*
X14511253Y-15309008D02*
X14511253Y-15299484D01*
X14511253Y-15299484D02*
X14520777Y-15280436D01*
X14520777Y-15280436D02*
X14530301Y-15270913D01*
X14530301Y-15270913D02*
X14549348Y-15261389D01*
X14549348Y-15261389D02*
X14587443Y-15261389D01*
X14587443Y-15261389D02*
X14606491Y-15270913D01*
X14606491Y-15270913D02*
X14616015Y-15280436D01*
X14616015Y-15280436D02*
X14625539Y-15299484D01*
X14625539Y-15299484D02*
X14625539Y-15309008D01*
X14625539Y-15309008D02*
X14616015Y-15328055D01*
X14616015Y-15328055D02*
X14606491Y-15337579D01*
X14606491Y-15337579D02*
X14587443Y-15347103D01*
X14587443Y-15347103D02*
X14549348Y-15347103D01*
X14549348Y-15347103D02*
X14530301Y-15356627D01*
X14530301Y-15356627D02*
X14520777Y-15366151D01*
X14520777Y-15366151D02*
X14511253Y-15385198D01*
X14511253Y-15385198D02*
X14511253Y-15423293D01*
X14511253Y-15423293D02*
X14520777Y-15442341D01*
X14520777Y-15442341D02*
X14530301Y-15451865D01*
X14530301Y-15451865D02*
X14549348Y-15461389D01*
X14549348Y-15461389D02*
X14587443Y-15461389D01*
X14587443Y-15461389D02*
X14606491Y-15451865D01*
X14606491Y-15451865D02*
X14616015Y-15442341D01*
X14616015Y-15442341D02*
X14625539Y-15423293D01*
X14625539Y-15423293D02*
X14625539Y-15385198D01*
X14625539Y-15385198D02*
X14616015Y-15366151D01*
X14616015Y-15366151D02*
X14606491Y-15356627D01*
X14606491Y-15356627D02*
X14587443Y-15347103D01*
X14701729Y-15261389D02*
X14701729Y-15299484D01*
X14777920Y-15261389D02*
X14777920Y-15299484D01*
X15073158Y-15537579D02*
X15063634Y-15528055D01*
X15063634Y-15528055D02*
X15044586Y-15499484D01*
X15044586Y-15499484D02*
X15035063Y-15480436D01*
X15035063Y-15480436D02*
X15025539Y-15451865D01*
X15025539Y-15451865D02*
X15016015Y-15404246D01*
X15016015Y-15404246D02*
X15016015Y-15366151D01*
X15016015Y-15366151D02*
X15025539Y-15318532D01*
X15025539Y-15318532D02*
X15035063Y-15289960D01*
X15035063Y-15289960D02*
X15044586Y-15270913D01*
X15044586Y-15270913D02*
X15063634Y-15242341D01*
X15063634Y-15242341D02*
X15073158Y-15232817D01*
X15130301Y-15261389D02*
X15254110Y-15261389D01*
X15254110Y-15261389D02*
X15187443Y-15337579D01*
X15187443Y-15337579D02*
X15216015Y-15337579D01*
X15216015Y-15337579D02*
X15235063Y-15347103D01*
X15235063Y-15347103D02*
X15244586Y-15356627D01*
X15244586Y-15356627D02*
X15254110Y-15375674D01*
X15254110Y-15375674D02*
X15254110Y-15423293D01*
X15254110Y-15423293D02*
X15244586Y-15442341D01*
X15244586Y-15442341D02*
X15235063Y-15451865D01*
X15235063Y-15451865D02*
X15216015Y-15461389D01*
X15216015Y-15461389D02*
X15158872Y-15461389D01*
X15158872Y-15461389D02*
X15139824Y-15451865D01*
X15139824Y-15451865D02*
X15130301Y-15442341D01*
X15492205Y-15461389D02*
X15492205Y-15261389D01*
X15577920Y-15461389D02*
X15577920Y-15356627D01*
X15577920Y-15356627D02*
X15568396Y-15337579D01*
X15568396Y-15337579D02*
X15549348Y-15328055D01*
X15549348Y-15328055D02*
X15520777Y-15328055D01*
X15520777Y-15328055D02*
X15501729Y-15337579D01*
X15501729Y-15337579D02*
X15492205Y-15347103D01*
X15701729Y-15461389D02*
X15682682Y-15451865D01*
X15682682Y-15451865D02*
X15673158Y-15442341D01*
X15673158Y-15442341D02*
X15663634Y-15423293D01*
X15663634Y-15423293D02*
X15663634Y-15366151D01*
X15663634Y-15366151D02*
X15673158Y-15347103D01*
X15673158Y-15347103D02*
X15682682Y-15337579D01*
X15682682Y-15337579D02*
X15701729Y-15328055D01*
X15701729Y-15328055D02*
X15730301Y-15328055D01*
X15730301Y-15328055D02*
X15749348Y-15337579D01*
X15749348Y-15337579D02*
X15758872Y-15347103D01*
X15758872Y-15347103D02*
X15768396Y-15366151D01*
X15768396Y-15366151D02*
X15768396Y-15423293D01*
X15768396Y-15423293D02*
X15758872Y-15442341D01*
X15758872Y-15442341D02*
X15749348Y-15451865D01*
X15749348Y-15451865D02*
X15730301Y-15461389D01*
X15730301Y-15461389D02*
X15701729Y-15461389D01*
X15882682Y-15461389D02*
X15863634Y-15451865D01*
X15863634Y-15451865D02*
X15854110Y-15432817D01*
X15854110Y-15432817D02*
X15854110Y-15261389D01*
X16035063Y-15451865D02*
X16016015Y-15461389D01*
X16016015Y-15461389D02*
X15977920Y-15461389D01*
X15977920Y-15461389D02*
X15958872Y-15451865D01*
X15958872Y-15451865D02*
X15949348Y-15432817D01*
X15949348Y-15432817D02*
X15949348Y-15356627D01*
X15949348Y-15356627D02*
X15958872Y-15337579D01*
X15958872Y-15337579D02*
X15977920Y-15328055D01*
X15977920Y-15328055D02*
X16016015Y-15328055D01*
X16016015Y-15328055D02*
X16035063Y-15337579D01*
X16035063Y-15337579D02*
X16044586Y-15356627D01*
X16044586Y-15356627D02*
X16044586Y-15375674D01*
X16044586Y-15375674D02*
X15949348Y-15394722D01*
X16120777Y-15451865D02*
X16139825Y-15461389D01*
X16139825Y-15461389D02*
X16177920Y-15461389D01*
X16177920Y-15461389D02*
X16196967Y-15451865D01*
X16196967Y-15451865D02*
X16206491Y-15432817D01*
X16206491Y-15432817D02*
X16206491Y-15423293D01*
X16206491Y-15423293D02*
X16196967Y-15404246D01*
X16196967Y-15404246D02*
X16177920Y-15394722D01*
X16177920Y-15394722D02*
X16149348Y-15394722D01*
X16149348Y-15394722D02*
X16130301Y-15385198D01*
X16130301Y-15385198D02*
X16120777Y-15366151D01*
X16120777Y-15366151D02*
X16120777Y-15356627D01*
X16120777Y-15356627D02*
X16130301Y-15337579D01*
X16130301Y-15337579D02*
X16149348Y-15328055D01*
X16149348Y-15328055D02*
X16177920Y-15328055D01*
X16177920Y-15328055D02*
X16196967Y-15337579D01*
X16273158Y-15537579D02*
X16282682Y-15528055D01*
X16282682Y-15528055D02*
X16301729Y-15499484D01*
X16301729Y-15499484D02*
X16311253Y-15480436D01*
X16311253Y-15480436D02*
X16320777Y-15451865D01*
X16320777Y-15451865D02*
X16330301Y-15404246D01*
X16330301Y-15404246D02*
X16330301Y-15366151D01*
X16330301Y-15366151D02*
X16320777Y-15318532D01*
X16320777Y-15318532D02*
X16311253Y-15289960D01*
X16311253Y-15289960D02*
X16301729Y-15270913D01*
X16301729Y-15270913D02*
X16282682Y-15242341D01*
X16282682Y-15242341D02*
X16273158Y-15232817D01*
D12*
X11492237Y-15648047D02*
X11492237Y-15619763D01*
X11463953Y-15619763D01*
X11463953Y-15648047D01*
X11492237Y-15648047D01*
D11*
X11796967Y-15525389D02*
X11816015Y-15525389D01*
X11816015Y-15525389D02*
X11835062Y-15534913D01*
X11835062Y-15534913D02*
X11844586Y-15544436D01*
X11844586Y-15544436D02*
X11854110Y-15563484D01*
X11854110Y-15563484D02*
X11863634Y-15601579D01*
X11863634Y-15601579D02*
X11863634Y-15649198D01*
X11863634Y-15649198D02*
X11854110Y-15687293D01*
X11854110Y-15687293D02*
X11844586Y-15706341D01*
X11844586Y-15706341D02*
X11835062Y-15715865D01*
X11835062Y-15715865D02*
X11816015Y-15725389D01*
X11816015Y-15725389D02*
X11796967Y-15725389D01*
X11796967Y-15725389D02*
X11777919Y-15715865D01*
X11777919Y-15715865D02*
X11768396Y-15706341D01*
X11768396Y-15706341D02*
X11758872Y-15687293D01*
X11758872Y-15687293D02*
X11749348Y-15649198D01*
X11749348Y-15649198D02*
X11749348Y-15601579D01*
X11749348Y-15601579D02*
X11758872Y-15563484D01*
X11758872Y-15563484D02*
X11768396Y-15544436D01*
X11768396Y-15544436D02*
X11777919Y-15534913D01*
X11777919Y-15534913D02*
X11796967Y-15525389D01*
X11949348Y-15706341D02*
X11958872Y-15715865D01*
X11958872Y-15715865D02*
X11949348Y-15725389D01*
X11949348Y-15725389D02*
X11939824Y-15715865D01*
X11939824Y-15715865D02*
X11949348Y-15706341D01*
X11949348Y-15706341D02*
X11949348Y-15725389D01*
X12130300Y-15592055D02*
X12130300Y-15725389D01*
X12082681Y-15515865D02*
X12035062Y-15658722D01*
X12035062Y-15658722D02*
X12158872Y-15658722D01*
X12273157Y-15525389D02*
X12292205Y-15525389D01*
X12292205Y-15525389D02*
X12311253Y-15534913D01*
X12311253Y-15534913D02*
X12320777Y-15544436D01*
X12320777Y-15544436D02*
X12330300Y-15563484D01*
X12330300Y-15563484D02*
X12339824Y-15601579D01*
X12339824Y-15601579D02*
X12339824Y-15649198D01*
X12339824Y-15649198D02*
X12330300Y-15687293D01*
X12330300Y-15687293D02*
X12320777Y-15706341D01*
X12320777Y-15706341D02*
X12311253Y-15715865D01*
X12311253Y-15715865D02*
X12292205Y-15725389D01*
X12292205Y-15725389D02*
X12273157Y-15725389D01*
X12273157Y-15725389D02*
X12254110Y-15715865D01*
X12254110Y-15715865D02*
X12244586Y-15706341D01*
X12244586Y-15706341D02*
X12235062Y-15687293D01*
X12235062Y-15687293D02*
X12225538Y-15649198D01*
X12225538Y-15649198D02*
X12225538Y-15601579D01*
X12225538Y-15601579D02*
X12235062Y-15563484D01*
X12235062Y-15563484D02*
X12244586Y-15544436D01*
X12244586Y-15544436D02*
X12254110Y-15534913D01*
X12254110Y-15534913D02*
X12273157Y-15525389D01*
X12463634Y-15525389D02*
X12482681Y-15525389D01*
X12482681Y-15525389D02*
X12501729Y-15534913D01*
X12501729Y-15534913D02*
X12511253Y-15544436D01*
X12511253Y-15544436D02*
X12520777Y-15563484D01*
X12520777Y-15563484D02*
X12530300Y-15601579D01*
X12530300Y-15601579D02*
X12530300Y-15649198D01*
X12530300Y-15649198D02*
X12520777Y-15687293D01*
X12520777Y-15687293D02*
X12511253Y-15706341D01*
X12511253Y-15706341D02*
X12501729Y-15715865D01*
X12501729Y-15715865D02*
X12482681Y-15725389D01*
X12482681Y-15725389D02*
X12463634Y-15725389D01*
X12463634Y-15725389D02*
X12444586Y-15715865D01*
X12444586Y-15715865D02*
X12435062Y-15706341D01*
X12435062Y-15706341D02*
X12425538Y-15687293D01*
X12425538Y-15687293D02*
X12416015Y-15649198D01*
X12416015Y-15649198D02*
X12416015Y-15601579D01*
X12416015Y-15601579D02*
X12425538Y-15563484D01*
X12425538Y-15563484D02*
X12435062Y-15544436D01*
X12435062Y-15544436D02*
X12444586Y-15534913D01*
X12444586Y-15534913D02*
X12463634Y-15525389D01*
X12616015Y-15725389D02*
X12616015Y-15592055D01*
X12616015Y-15611103D02*
X12625538Y-15601579D01*
X12625538Y-15601579D02*
X12644586Y-15592055D01*
X12644586Y-15592055D02*
X12673158Y-15592055D01*
X12673158Y-15592055D02*
X12692205Y-15601579D01*
X12692205Y-15601579D02*
X12701729Y-15620627D01*
X12701729Y-15620627D02*
X12701729Y-15725389D01*
X12701729Y-15620627D02*
X12711253Y-15601579D01*
X12711253Y-15601579D02*
X12730300Y-15592055D01*
X12730300Y-15592055D02*
X12758872Y-15592055D01*
X12758872Y-15592055D02*
X12777919Y-15601579D01*
X12777919Y-15601579D02*
X12787443Y-15620627D01*
X12787443Y-15620627D02*
X12787443Y-15725389D01*
X12882681Y-15725389D02*
X12882681Y-15592055D01*
X12882681Y-15611103D02*
X12892205Y-15601579D01*
X12892205Y-15601579D02*
X12911253Y-15592055D01*
X12911253Y-15592055D02*
X12939824Y-15592055D01*
X12939824Y-15592055D02*
X12958872Y-15601579D01*
X12958872Y-15601579D02*
X12968396Y-15620627D01*
X12968396Y-15620627D02*
X12968396Y-15725389D01*
X12968396Y-15620627D02*
X12977919Y-15601579D01*
X12977919Y-15601579D02*
X12996967Y-15592055D01*
X12996967Y-15592055D02*
X13025538Y-15592055D01*
X13025538Y-15592055D02*
X13044586Y-15601579D01*
X13044586Y-15601579D02*
X13054110Y-15620627D01*
X13054110Y-15620627D02*
X13054110Y-15725389D01*
X13444586Y-15515865D02*
X13273158Y-15773008D01*
X13701729Y-15525389D02*
X13720777Y-15525389D01*
X13720777Y-15525389D02*
X13739824Y-15534913D01*
X13739824Y-15534913D02*
X13749348Y-15544436D01*
X13749348Y-15544436D02*
X13758872Y-15563484D01*
X13758872Y-15563484D02*
X13768396Y-15601579D01*
X13768396Y-15601579D02*
X13768396Y-15649198D01*
X13768396Y-15649198D02*
X13758872Y-15687293D01*
X13758872Y-15687293D02*
X13749348Y-15706341D01*
X13749348Y-15706341D02*
X13739824Y-15715865D01*
X13739824Y-15715865D02*
X13720777Y-15725389D01*
X13720777Y-15725389D02*
X13701729Y-15725389D01*
X13701729Y-15725389D02*
X13682681Y-15715865D01*
X13682681Y-15715865D02*
X13673158Y-15706341D01*
X13673158Y-15706341D02*
X13663634Y-15687293D01*
X13663634Y-15687293D02*
X13654110Y-15649198D01*
X13654110Y-15649198D02*
X13654110Y-15601579D01*
X13654110Y-15601579D02*
X13663634Y-15563484D01*
X13663634Y-15563484D02*
X13673158Y-15544436D01*
X13673158Y-15544436D02*
X13682681Y-15534913D01*
X13682681Y-15534913D02*
X13701729Y-15525389D01*
X13854110Y-15706341D02*
X13863634Y-15715865D01*
X13863634Y-15715865D02*
X13854110Y-15725389D01*
X13854110Y-15725389D02*
X13844586Y-15715865D01*
X13844586Y-15715865D02*
X13854110Y-15706341D01*
X13854110Y-15706341D02*
X13854110Y-15725389D01*
X13987443Y-15525389D02*
X14006491Y-15525389D01*
X14006491Y-15525389D02*
X14025539Y-15534913D01*
X14025539Y-15534913D02*
X14035062Y-15544436D01*
X14035062Y-15544436D02*
X14044586Y-15563484D01*
X14044586Y-15563484D02*
X14054110Y-15601579D01*
X14054110Y-15601579D02*
X14054110Y-15649198D01*
X14054110Y-15649198D02*
X14044586Y-15687293D01*
X14044586Y-15687293D02*
X14035062Y-15706341D01*
X14035062Y-15706341D02*
X14025539Y-15715865D01*
X14025539Y-15715865D02*
X14006491Y-15725389D01*
X14006491Y-15725389D02*
X13987443Y-15725389D01*
X13987443Y-15725389D02*
X13968396Y-15715865D01*
X13968396Y-15715865D02*
X13958872Y-15706341D01*
X13958872Y-15706341D02*
X13949348Y-15687293D01*
X13949348Y-15687293D02*
X13939824Y-15649198D01*
X13939824Y-15649198D02*
X13939824Y-15601579D01*
X13939824Y-15601579D02*
X13949348Y-15563484D01*
X13949348Y-15563484D02*
X13958872Y-15544436D01*
X13958872Y-15544436D02*
X13968396Y-15534913D01*
X13968396Y-15534913D02*
X13987443Y-15525389D01*
X14244586Y-15725389D02*
X14130301Y-15725389D01*
X14187443Y-15725389D02*
X14187443Y-15525389D01*
X14187443Y-15525389D02*
X14168396Y-15553960D01*
X14168396Y-15553960D02*
X14149348Y-15573008D01*
X14149348Y-15573008D02*
X14130301Y-15582532D01*
X14425539Y-15525389D02*
X14330301Y-15525389D01*
X14330301Y-15525389D02*
X14320777Y-15620627D01*
X14320777Y-15620627D02*
X14330301Y-15611103D01*
X14330301Y-15611103D02*
X14349348Y-15601579D01*
X14349348Y-15601579D02*
X14396967Y-15601579D01*
X14396967Y-15601579D02*
X14416015Y-15611103D01*
X14416015Y-15611103D02*
X14425539Y-15620627D01*
X14425539Y-15620627D02*
X14435062Y-15639674D01*
X14435062Y-15639674D02*
X14435062Y-15687293D01*
X14435062Y-15687293D02*
X14425539Y-15706341D01*
X14425539Y-15706341D02*
X14416015Y-15715865D01*
X14416015Y-15715865D02*
X14396967Y-15725389D01*
X14396967Y-15725389D02*
X14349348Y-15725389D01*
X14349348Y-15725389D02*
X14330301Y-15715865D01*
X14330301Y-15715865D02*
X14320777Y-15706341D01*
X14501729Y-15525389D02*
X14635062Y-15525389D01*
X14635062Y-15525389D02*
X14549348Y-15725389D01*
X14701729Y-15525389D02*
X14701729Y-15563484D01*
X14777920Y-15525389D02*
X14777920Y-15563484D01*
X15073158Y-15801579D02*
X15063634Y-15792055D01*
X15063634Y-15792055D02*
X15044586Y-15763484D01*
X15044586Y-15763484D02*
X15035063Y-15744436D01*
X15035063Y-15744436D02*
X15025539Y-15715865D01*
X15025539Y-15715865D02*
X15016015Y-15668246D01*
X15016015Y-15668246D02*
X15016015Y-15630151D01*
X15016015Y-15630151D02*
X15025539Y-15582532D01*
X15025539Y-15582532D02*
X15035063Y-15553960D01*
X15035063Y-15553960D02*
X15044586Y-15534913D01*
X15044586Y-15534913D02*
X15063634Y-15506341D01*
X15063634Y-15506341D02*
X15073158Y-15496817D01*
X15254110Y-15725389D02*
X15139824Y-15725389D01*
X15196967Y-15725389D02*
X15196967Y-15525389D01*
X15196967Y-15525389D02*
X15177920Y-15553960D01*
X15177920Y-15553960D02*
X15158872Y-15573008D01*
X15158872Y-15573008D02*
X15139824Y-15582532D01*
X15425539Y-15525389D02*
X15387443Y-15525389D01*
X15387443Y-15525389D02*
X15368396Y-15534913D01*
X15368396Y-15534913D02*
X15358872Y-15544436D01*
X15358872Y-15544436D02*
X15339824Y-15573008D01*
X15339824Y-15573008D02*
X15330301Y-15611103D01*
X15330301Y-15611103D02*
X15330301Y-15687293D01*
X15330301Y-15687293D02*
X15339824Y-15706341D01*
X15339824Y-15706341D02*
X15349348Y-15715865D01*
X15349348Y-15715865D02*
X15368396Y-15725389D01*
X15368396Y-15725389D02*
X15406491Y-15725389D01*
X15406491Y-15725389D02*
X15425539Y-15715865D01*
X15425539Y-15715865D02*
X15435063Y-15706341D01*
X15435063Y-15706341D02*
X15444586Y-15687293D01*
X15444586Y-15687293D02*
X15444586Y-15639674D01*
X15444586Y-15639674D02*
X15435063Y-15620627D01*
X15435063Y-15620627D02*
X15425539Y-15611103D01*
X15425539Y-15611103D02*
X15406491Y-15601579D01*
X15406491Y-15601579D02*
X15368396Y-15601579D01*
X15368396Y-15601579D02*
X15349348Y-15611103D01*
X15349348Y-15611103D02*
X15339824Y-15620627D01*
X15339824Y-15620627D02*
X15330301Y-15639674D01*
X15682682Y-15725389D02*
X15682682Y-15525389D01*
X15768396Y-15725389D02*
X15768396Y-15620627D01*
X15768396Y-15620627D02*
X15758872Y-15601579D01*
X15758872Y-15601579D02*
X15739825Y-15592055D01*
X15739825Y-15592055D02*
X15711253Y-15592055D01*
X15711253Y-15592055D02*
X15692205Y-15601579D01*
X15692205Y-15601579D02*
X15682682Y-15611103D01*
X15892205Y-15725389D02*
X15873158Y-15715865D01*
X15873158Y-15715865D02*
X15863634Y-15706341D01*
X15863634Y-15706341D02*
X15854110Y-15687293D01*
X15854110Y-15687293D02*
X15854110Y-15630151D01*
X15854110Y-15630151D02*
X15863634Y-15611103D01*
X15863634Y-15611103D02*
X15873158Y-15601579D01*
X15873158Y-15601579D02*
X15892205Y-15592055D01*
X15892205Y-15592055D02*
X15920777Y-15592055D01*
X15920777Y-15592055D02*
X15939825Y-15601579D01*
X15939825Y-15601579D02*
X15949348Y-15611103D01*
X15949348Y-15611103D02*
X15958872Y-15630151D01*
X15958872Y-15630151D02*
X15958872Y-15687293D01*
X15958872Y-15687293D02*
X15949348Y-15706341D01*
X15949348Y-15706341D02*
X15939825Y-15715865D01*
X15939825Y-15715865D02*
X15920777Y-15725389D01*
X15920777Y-15725389D02*
X15892205Y-15725389D01*
X16073158Y-15725389D02*
X16054110Y-15715865D01*
X16054110Y-15715865D02*
X16044586Y-15696817D01*
X16044586Y-15696817D02*
X16044586Y-15525389D01*
X16225539Y-15715865D02*
X16206491Y-15725389D01*
X16206491Y-15725389D02*
X16168396Y-15725389D01*
X16168396Y-15725389D02*
X16149348Y-15715865D01*
X16149348Y-15715865D02*
X16139825Y-15696817D01*
X16139825Y-15696817D02*
X16139825Y-15620627D01*
X16139825Y-15620627D02*
X16149348Y-15601579D01*
X16149348Y-15601579D02*
X16168396Y-15592055D01*
X16168396Y-15592055D02*
X16206491Y-15592055D01*
X16206491Y-15592055D02*
X16225539Y-15601579D01*
X16225539Y-15601579D02*
X16235063Y-15620627D01*
X16235063Y-15620627D02*
X16235063Y-15639674D01*
X16235063Y-15639674D02*
X16139825Y-15658722D01*
X16311253Y-15715865D02*
X16330301Y-15725389D01*
X16330301Y-15725389D02*
X16368396Y-15725389D01*
X16368396Y-15725389D02*
X16387444Y-15715865D01*
X16387444Y-15715865D02*
X16396967Y-15696817D01*
X16396967Y-15696817D02*
X16396967Y-15687293D01*
X16396967Y-15687293D02*
X16387444Y-15668246D01*
X16387444Y-15668246D02*
X16368396Y-15658722D01*
X16368396Y-15658722D02*
X16339825Y-15658722D01*
X16339825Y-15658722D02*
X16320777Y-15649198D01*
X16320777Y-15649198D02*
X16311253Y-15630151D01*
X16311253Y-15630151D02*
X16311253Y-15620627D01*
X16311253Y-15620627D02*
X16320777Y-15601579D01*
X16320777Y-15601579D02*
X16339825Y-15592055D01*
X16339825Y-15592055D02*
X16368396Y-15592055D01*
X16368396Y-15592055D02*
X16387444Y-15601579D01*
X16463634Y-15801579D02*
X16473158Y-15792055D01*
X16473158Y-15792055D02*
X16492206Y-15763484D01*
X16492206Y-15763484D02*
X16501729Y-15744436D01*
X16501729Y-15744436D02*
X16511253Y-15715865D01*
X16511253Y-15715865D02*
X16520777Y-15668246D01*
X16520777Y-15668246D02*
X16520777Y-15630151D01*
X16520777Y-15630151D02*
X16511253Y-15582532D01*
X16511253Y-15582532D02*
X16501729Y-15553960D01*
X16501729Y-15553960D02*
X16492206Y-15534913D01*
X16492206Y-15534913D02*
X16473158Y-15506341D01*
X16473158Y-15506341D02*
X16463634Y-15496817D01*
D12*
X11468095Y-15927905D02*
X11498095Y-15897905D01*
X11468095Y-15867905D01*
X11438095Y-15897905D01*
X11468095Y-15927905D01*
D11*
X11796967Y-15789389D02*
X11816015Y-15789389D01*
X11816015Y-15789389D02*
X11835062Y-15798913D01*
X11835062Y-15798913D02*
X11844586Y-15808436D01*
X11844586Y-15808436D02*
X11854110Y-15827484D01*
X11854110Y-15827484D02*
X11863634Y-15865579D01*
X11863634Y-15865579D02*
X11863634Y-15913198D01*
X11863634Y-15913198D02*
X11854110Y-15951293D01*
X11854110Y-15951293D02*
X11844586Y-15970341D01*
X11844586Y-15970341D02*
X11835062Y-15979865D01*
X11835062Y-15979865D02*
X11816015Y-15989389D01*
X11816015Y-15989389D02*
X11796967Y-15989389D01*
X11796967Y-15989389D02*
X11777919Y-15979865D01*
X11777919Y-15979865D02*
X11768396Y-15970341D01*
X11768396Y-15970341D02*
X11758872Y-15951293D01*
X11758872Y-15951293D02*
X11749348Y-15913198D01*
X11749348Y-15913198D02*
X11749348Y-15865579D01*
X11749348Y-15865579D02*
X11758872Y-15827484D01*
X11758872Y-15827484D02*
X11768396Y-15808436D01*
X11768396Y-15808436D02*
X11777919Y-15798913D01*
X11777919Y-15798913D02*
X11796967Y-15789389D01*
X11949348Y-15970341D02*
X11958872Y-15979865D01*
X11958872Y-15979865D02*
X11949348Y-15989389D01*
X11949348Y-15989389D02*
X11939824Y-15979865D01*
X11939824Y-15979865D02*
X11949348Y-15970341D01*
X11949348Y-15970341D02*
X11949348Y-15989389D01*
X12130300Y-15789389D02*
X12092205Y-15789389D01*
X12092205Y-15789389D02*
X12073157Y-15798913D01*
X12073157Y-15798913D02*
X12063634Y-15808436D01*
X12063634Y-15808436D02*
X12044586Y-15837008D01*
X12044586Y-15837008D02*
X12035062Y-15875103D01*
X12035062Y-15875103D02*
X12035062Y-15951293D01*
X12035062Y-15951293D02*
X12044586Y-15970341D01*
X12044586Y-15970341D02*
X12054110Y-15979865D01*
X12054110Y-15979865D02*
X12073157Y-15989389D01*
X12073157Y-15989389D02*
X12111253Y-15989389D01*
X12111253Y-15989389D02*
X12130300Y-15979865D01*
X12130300Y-15979865D02*
X12139824Y-15970341D01*
X12139824Y-15970341D02*
X12149348Y-15951293D01*
X12149348Y-15951293D02*
X12149348Y-15903674D01*
X12149348Y-15903674D02*
X12139824Y-15884627D01*
X12139824Y-15884627D02*
X12130300Y-15875103D01*
X12130300Y-15875103D02*
X12111253Y-15865579D01*
X12111253Y-15865579D02*
X12073157Y-15865579D01*
X12073157Y-15865579D02*
X12054110Y-15875103D01*
X12054110Y-15875103D02*
X12044586Y-15884627D01*
X12044586Y-15884627D02*
X12035062Y-15903674D01*
X12273157Y-15789389D02*
X12292205Y-15789389D01*
X12292205Y-15789389D02*
X12311253Y-15798913D01*
X12311253Y-15798913D02*
X12320777Y-15808436D01*
X12320777Y-15808436D02*
X12330300Y-15827484D01*
X12330300Y-15827484D02*
X12339824Y-15865579D01*
X12339824Y-15865579D02*
X12339824Y-15913198D01*
X12339824Y-15913198D02*
X12330300Y-15951293D01*
X12330300Y-15951293D02*
X12320777Y-15970341D01*
X12320777Y-15970341D02*
X12311253Y-15979865D01*
X12311253Y-15979865D02*
X12292205Y-15989389D01*
X12292205Y-15989389D02*
X12273157Y-15989389D01*
X12273157Y-15989389D02*
X12254110Y-15979865D01*
X12254110Y-15979865D02*
X12244586Y-15970341D01*
X12244586Y-15970341D02*
X12235062Y-15951293D01*
X12235062Y-15951293D02*
X12225538Y-15913198D01*
X12225538Y-15913198D02*
X12225538Y-15865579D01*
X12225538Y-15865579D02*
X12235062Y-15827484D01*
X12235062Y-15827484D02*
X12244586Y-15808436D01*
X12244586Y-15808436D02*
X12254110Y-15798913D01*
X12254110Y-15798913D02*
X12273157Y-15789389D01*
X12463634Y-15789389D02*
X12482681Y-15789389D01*
X12482681Y-15789389D02*
X12501729Y-15798913D01*
X12501729Y-15798913D02*
X12511253Y-15808436D01*
X12511253Y-15808436D02*
X12520777Y-15827484D01*
X12520777Y-15827484D02*
X12530300Y-15865579D01*
X12530300Y-15865579D02*
X12530300Y-15913198D01*
X12530300Y-15913198D02*
X12520777Y-15951293D01*
X12520777Y-15951293D02*
X12511253Y-15970341D01*
X12511253Y-15970341D02*
X12501729Y-15979865D01*
X12501729Y-15979865D02*
X12482681Y-15989389D01*
X12482681Y-15989389D02*
X12463634Y-15989389D01*
X12463634Y-15989389D02*
X12444586Y-15979865D01*
X12444586Y-15979865D02*
X12435062Y-15970341D01*
X12435062Y-15970341D02*
X12425538Y-15951293D01*
X12425538Y-15951293D02*
X12416015Y-15913198D01*
X12416015Y-15913198D02*
X12416015Y-15865579D01*
X12416015Y-15865579D02*
X12425538Y-15827484D01*
X12425538Y-15827484D02*
X12435062Y-15808436D01*
X12435062Y-15808436D02*
X12444586Y-15798913D01*
X12444586Y-15798913D02*
X12463634Y-15789389D01*
X12616015Y-15989389D02*
X12616015Y-15856055D01*
X12616015Y-15875103D02*
X12625538Y-15865579D01*
X12625538Y-15865579D02*
X12644586Y-15856055D01*
X12644586Y-15856055D02*
X12673158Y-15856055D01*
X12673158Y-15856055D02*
X12692205Y-15865579D01*
X12692205Y-15865579D02*
X12701729Y-15884627D01*
X12701729Y-15884627D02*
X12701729Y-15989389D01*
X12701729Y-15884627D02*
X12711253Y-15865579D01*
X12711253Y-15865579D02*
X12730300Y-15856055D01*
X12730300Y-15856055D02*
X12758872Y-15856055D01*
X12758872Y-15856055D02*
X12777919Y-15865579D01*
X12777919Y-15865579D02*
X12787443Y-15884627D01*
X12787443Y-15884627D02*
X12787443Y-15989389D01*
X12882681Y-15989389D02*
X12882681Y-15856055D01*
X12882681Y-15875103D02*
X12892205Y-15865579D01*
X12892205Y-15865579D02*
X12911253Y-15856055D01*
X12911253Y-15856055D02*
X12939824Y-15856055D01*
X12939824Y-15856055D02*
X12958872Y-15865579D01*
X12958872Y-15865579D02*
X12968396Y-15884627D01*
X12968396Y-15884627D02*
X12968396Y-15989389D01*
X12968396Y-15884627D02*
X12977919Y-15865579D01*
X12977919Y-15865579D02*
X12996967Y-15856055D01*
X12996967Y-15856055D02*
X13025538Y-15856055D01*
X13025538Y-15856055D02*
X13044586Y-15865579D01*
X13044586Y-15865579D02*
X13054110Y-15884627D01*
X13054110Y-15884627D02*
X13054110Y-15989389D01*
X13444586Y-15779865D02*
X13273158Y-16037008D01*
X13701729Y-15789389D02*
X13720777Y-15789389D01*
X13720777Y-15789389D02*
X13739824Y-15798913D01*
X13739824Y-15798913D02*
X13749348Y-15808436D01*
X13749348Y-15808436D02*
X13758872Y-15827484D01*
X13758872Y-15827484D02*
X13768396Y-15865579D01*
X13768396Y-15865579D02*
X13768396Y-15913198D01*
X13768396Y-15913198D02*
X13758872Y-15951293D01*
X13758872Y-15951293D02*
X13749348Y-15970341D01*
X13749348Y-15970341D02*
X13739824Y-15979865D01*
X13739824Y-15979865D02*
X13720777Y-15989389D01*
X13720777Y-15989389D02*
X13701729Y-15989389D01*
X13701729Y-15989389D02*
X13682681Y-15979865D01*
X13682681Y-15979865D02*
X13673158Y-15970341D01*
X13673158Y-15970341D02*
X13663634Y-15951293D01*
X13663634Y-15951293D02*
X13654110Y-15913198D01*
X13654110Y-15913198D02*
X13654110Y-15865579D01*
X13654110Y-15865579D02*
X13663634Y-15827484D01*
X13663634Y-15827484D02*
X13673158Y-15808436D01*
X13673158Y-15808436D02*
X13682681Y-15798913D01*
X13682681Y-15798913D02*
X13701729Y-15789389D01*
X13854110Y-15970341D02*
X13863634Y-15979865D01*
X13863634Y-15979865D02*
X13854110Y-15989389D01*
X13854110Y-15989389D02*
X13844586Y-15979865D01*
X13844586Y-15979865D02*
X13854110Y-15970341D01*
X13854110Y-15970341D02*
X13854110Y-15989389D01*
X13987443Y-15789389D02*
X14006491Y-15789389D01*
X14006491Y-15789389D02*
X14025539Y-15798913D01*
X14025539Y-15798913D02*
X14035062Y-15808436D01*
X14035062Y-15808436D02*
X14044586Y-15827484D01*
X14044586Y-15827484D02*
X14054110Y-15865579D01*
X14054110Y-15865579D02*
X14054110Y-15913198D01*
X14054110Y-15913198D02*
X14044586Y-15951293D01*
X14044586Y-15951293D02*
X14035062Y-15970341D01*
X14035062Y-15970341D02*
X14025539Y-15979865D01*
X14025539Y-15979865D02*
X14006491Y-15989389D01*
X14006491Y-15989389D02*
X13987443Y-15989389D01*
X13987443Y-15989389D02*
X13968396Y-15979865D01*
X13968396Y-15979865D02*
X13958872Y-15970341D01*
X13958872Y-15970341D02*
X13949348Y-15951293D01*
X13949348Y-15951293D02*
X13939824Y-15913198D01*
X13939824Y-15913198D02*
X13939824Y-15865579D01*
X13939824Y-15865579D02*
X13949348Y-15827484D01*
X13949348Y-15827484D02*
X13958872Y-15808436D01*
X13958872Y-15808436D02*
X13968396Y-15798913D01*
X13968396Y-15798913D02*
X13987443Y-15789389D01*
X14130301Y-15808436D02*
X14139824Y-15798913D01*
X14139824Y-15798913D02*
X14158872Y-15789389D01*
X14158872Y-15789389D02*
X14206491Y-15789389D01*
X14206491Y-15789389D02*
X14225539Y-15798913D01*
X14225539Y-15798913D02*
X14235062Y-15808436D01*
X14235062Y-15808436D02*
X14244586Y-15827484D01*
X14244586Y-15827484D02*
X14244586Y-15846532D01*
X14244586Y-15846532D02*
X14235062Y-15875103D01*
X14235062Y-15875103D02*
X14120777Y-15989389D01*
X14120777Y-15989389D02*
X14244586Y-15989389D01*
X14311253Y-15789389D02*
X14435062Y-15789389D01*
X14435062Y-15789389D02*
X14368396Y-15865579D01*
X14368396Y-15865579D02*
X14396967Y-15865579D01*
X14396967Y-15865579D02*
X14416015Y-15875103D01*
X14416015Y-15875103D02*
X14425539Y-15884627D01*
X14425539Y-15884627D02*
X14435062Y-15903674D01*
X14435062Y-15903674D02*
X14435062Y-15951293D01*
X14435062Y-15951293D02*
X14425539Y-15970341D01*
X14425539Y-15970341D02*
X14416015Y-15979865D01*
X14416015Y-15979865D02*
X14396967Y-15989389D01*
X14396967Y-15989389D02*
X14339824Y-15989389D01*
X14339824Y-15989389D02*
X14320777Y-15979865D01*
X14320777Y-15979865D02*
X14311253Y-15970341D01*
X14606491Y-15789389D02*
X14568396Y-15789389D01*
X14568396Y-15789389D02*
X14549348Y-15798913D01*
X14549348Y-15798913D02*
X14539824Y-15808436D01*
X14539824Y-15808436D02*
X14520777Y-15837008D01*
X14520777Y-15837008D02*
X14511253Y-15875103D01*
X14511253Y-15875103D02*
X14511253Y-15951293D01*
X14511253Y-15951293D02*
X14520777Y-15970341D01*
X14520777Y-15970341D02*
X14530301Y-15979865D01*
X14530301Y-15979865D02*
X14549348Y-15989389D01*
X14549348Y-15989389D02*
X14587443Y-15989389D01*
X14587443Y-15989389D02*
X14606491Y-15979865D01*
X14606491Y-15979865D02*
X14616015Y-15970341D01*
X14616015Y-15970341D02*
X14625539Y-15951293D01*
X14625539Y-15951293D02*
X14625539Y-15903674D01*
X14625539Y-15903674D02*
X14616015Y-15884627D01*
X14616015Y-15884627D02*
X14606491Y-15875103D01*
X14606491Y-15875103D02*
X14587443Y-15865579D01*
X14587443Y-15865579D02*
X14549348Y-15865579D01*
X14549348Y-15865579D02*
X14530301Y-15875103D01*
X14530301Y-15875103D02*
X14520777Y-15884627D01*
X14520777Y-15884627D02*
X14511253Y-15903674D01*
X14701729Y-15789389D02*
X14701729Y-15827484D01*
X14777920Y-15789389D02*
X14777920Y-15827484D01*
X15073158Y-16065579D02*
X15063634Y-16056055D01*
X15063634Y-16056055D02*
X15044586Y-16027484D01*
X15044586Y-16027484D02*
X15035063Y-16008436D01*
X15035063Y-16008436D02*
X15025539Y-15979865D01*
X15025539Y-15979865D02*
X15016015Y-15932246D01*
X15016015Y-15932246D02*
X15016015Y-15894151D01*
X15016015Y-15894151D02*
X15025539Y-15846532D01*
X15025539Y-15846532D02*
X15035063Y-15817960D01*
X15035063Y-15817960D02*
X15044586Y-15798913D01*
X15044586Y-15798913D02*
X15063634Y-15770341D01*
X15063634Y-15770341D02*
X15073158Y-15760817D01*
X15187443Y-15789389D02*
X15206491Y-15789389D01*
X15206491Y-15789389D02*
X15225539Y-15798913D01*
X15225539Y-15798913D02*
X15235063Y-15808436D01*
X15235063Y-15808436D02*
X15244586Y-15827484D01*
X15244586Y-15827484D02*
X15254110Y-15865579D01*
X15254110Y-15865579D02*
X15254110Y-15913198D01*
X15254110Y-15913198D02*
X15244586Y-15951293D01*
X15244586Y-15951293D02*
X15235063Y-15970341D01*
X15235063Y-15970341D02*
X15225539Y-15979865D01*
X15225539Y-15979865D02*
X15206491Y-15989389D01*
X15206491Y-15989389D02*
X15187443Y-15989389D01*
X15187443Y-15989389D02*
X15168396Y-15979865D01*
X15168396Y-15979865D02*
X15158872Y-15970341D01*
X15158872Y-15970341D02*
X15149348Y-15951293D01*
X15149348Y-15951293D02*
X15139824Y-15913198D01*
X15139824Y-15913198D02*
X15139824Y-15865579D01*
X15139824Y-15865579D02*
X15149348Y-15827484D01*
X15149348Y-15827484D02*
X15158872Y-15808436D01*
X15158872Y-15808436D02*
X15168396Y-15798913D01*
X15168396Y-15798913D02*
X15187443Y-15789389D01*
X15492205Y-15989389D02*
X15492205Y-15789389D01*
X15577920Y-15989389D02*
X15577920Y-15884627D01*
X15577920Y-15884627D02*
X15568396Y-15865579D01*
X15568396Y-15865579D02*
X15549348Y-15856055D01*
X15549348Y-15856055D02*
X15520777Y-15856055D01*
X15520777Y-15856055D02*
X15501729Y-15865579D01*
X15501729Y-15865579D02*
X15492205Y-15875103D01*
X15701729Y-15989389D02*
X15682682Y-15979865D01*
X15682682Y-15979865D02*
X15673158Y-15970341D01*
X15673158Y-15970341D02*
X15663634Y-15951293D01*
X15663634Y-15951293D02*
X15663634Y-15894151D01*
X15663634Y-15894151D02*
X15673158Y-15875103D01*
X15673158Y-15875103D02*
X15682682Y-15865579D01*
X15682682Y-15865579D02*
X15701729Y-15856055D01*
X15701729Y-15856055D02*
X15730301Y-15856055D01*
X15730301Y-15856055D02*
X15749348Y-15865579D01*
X15749348Y-15865579D02*
X15758872Y-15875103D01*
X15758872Y-15875103D02*
X15768396Y-15894151D01*
X15768396Y-15894151D02*
X15768396Y-15951293D01*
X15768396Y-15951293D02*
X15758872Y-15970341D01*
X15758872Y-15970341D02*
X15749348Y-15979865D01*
X15749348Y-15979865D02*
X15730301Y-15989389D01*
X15730301Y-15989389D02*
X15701729Y-15989389D01*
X15882682Y-15989389D02*
X15863634Y-15979865D01*
X15863634Y-15979865D02*
X15854110Y-15960817D01*
X15854110Y-15960817D02*
X15854110Y-15789389D01*
X16035063Y-15979865D02*
X16016015Y-15989389D01*
X16016015Y-15989389D02*
X15977920Y-15989389D01*
X15977920Y-15989389D02*
X15958872Y-15979865D01*
X15958872Y-15979865D02*
X15949348Y-15960817D01*
X15949348Y-15960817D02*
X15949348Y-15884627D01*
X15949348Y-15884627D02*
X15958872Y-15865579D01*
X15958872Y-15865579D02*
X15977920Y-15856055D01*
X15977920Y-15856055D02*
X16016015Y-15856055D01*
X16016015Y-15856055D02*
X16035063Y-15865579D01*
X16035063Y-15865579D02*
X16044586Y-15884627D01*
X16044586Y-15884627D02*
X16044586Y-15903674D01*
X16044586Y-15903674D02*
X15949348Y-15922722D01*
X16120777Y-15979865D02*
X16139825Y-15989389D01*
X16139825Y-15989389D02*
X16177920Y-15989389D01*
X16177920Y-15989389D02*
X16196967Y-15979865D01*
X16196967Y-15979865D02*
X16206491Y-15960817D01*
X16206491Y-15960817D02*
X16206491Y-15951293D01*
X16206491Y-15951293D02*
X16196967Y-15932246D01*
X16196967Y-15932246D02*
X16177920Y-15922722D01*
X16177920Y-15922722D02*
X16149348Y-15922722D01*
X16149348Y-15922722D02*
X16130301Y-15913198D01*
X16130301Y-15913198D02*
X16120777Y-15894151D01*
X16120777Y-15894151D02*
X16120777Y-15884627D01*
X16120777Y-15884627D02*
X16130301Y-15865579D01*
X16130301Y-15865579D02*
X16149348Y-15856055D01*
X16149348Y-15856055D02*
X16177920Y-15856055D01*
X16177920Y-15856055D02*
X16196967Y-15865579D01*
X16444587Y-15913198D02*
X16596968Y-15913198D01*
X16520777Y-15989389D02*
X16520777Y-15837008D01*
X16930301Y-15856055D02*
X16930301Y-15989389D01*
X16882682Y-15779865D02*
X16835063Y-15922722D01*
X16835063Y-15922722D02*
X16958872Y-15922722D01*
X17177920Y-15979865D02*
X17196968Y-15989389D01*
X17196968Y-15989389D02*
X17235063Y-15989389D01*
X17235063Y-15989389D02*
X17254111Y-15979865D01*
X17254111Y-15979865D02*
X17263634Y-15960817D01*
X17263634Y-15960817D02*
X17263634Y-15951293D01*
X17263634Y-15951293D02*
X17254111Y-15932246D01*
X17254111Y-15932246D02*
X17235063Y-15922722D01*
X17235063Y-15922722D02*
X17206491Y-15922722D01*
X17206491Y-15922722D02*
X17187444Y-15913198D01*
X17187444Y-15913198D02*
X17177920Y-15894151D01*
X17177920Y-15894151D02*
X17177920Y-15884627D01*
X17177920Y-15884627D02*
X17187444Y-15865579D01*
X17187444Y-15865579D02*
X17206491Y-15856055D01*
X17206491Y-15856055D02*
X17235063Y-15856055D01*
X17235063Y-15856055D02*
X17254111Y-15865579D01*
X17377920Y-15989389D02*
X17358872Y-15979865D01*
X17358872Y-15979865D02*
X17349349Y-15960817D01*
X17349349Y-15960817D02*
X17349349Y-15789389D01*
X17482682Y-15989389D02*
X17463634Y-15979865D01*
X17463634Y-15979865D02*
X17454111Y-15970341D01*
X17454111Y-15970341D02*
X17444587Y-15951293D01*
X17444587Y-15951293D02*
X17444587Y-15894151D01*
X17444587Y-15894151D02*
X17454111Y-15875103D01*
X17454111Y-15875103D02*
X17463634Y-15865579D01*
X17463634Y-15865579D02*
X17482682Y-15856055D01*
X17482682Y-15856055D02*
X17511253Y-15856055D01*
X17511253Y-15856055D02*
X17530301Y-15865579D01*
X17530301Y-15865579D02*
X17539825Y-15875103D01*
X17539825Y-15875103D02*
X17549349Y-15894151D01*
X17549349Y-15894151D02*
X17549349Y-15951293D01*
X17549349Y-15951293D02*
X17539825Y-15970341D01*
X17539825Y-15970341D02*
X17530301Y-15979865D01*
X17530301Y-15979865D02*
X17511253Y-15989389D01*
X17511253Y-15989389D02*
X17482682Y-15989389D01*
X17606492Y-15856055D02*
X17682682Y-15856055D01*
X17635063Y-15789389D02*
X17635063Y-15960817D01*
X17635063Y-15960817D02*
X17644587Y-15979865D01*
X17644587Y-15979865D02*
X17663634Y-15989389D01*
X17663634Y-15989389D02*
X17682682Y-15989389D01*
X17739825Y-15979865D02*
X17758872Y-15989389D01*
X17758872Y-15989389D02*
X17796968Y-15989389D01*
X17796968Y-15989389D02*
X17816015Y-15979865D01*
X17816015Y-15979865D02*
X17825539Y-15960817D01*
X17825539Y-15960817D02*
X17825539Y-15951293D01*
X17825539Y-15951293D02*
X17816015Y-15932246D01*
X17816015Y-15932246D02*
X17796968Y-15922722D01*
X17796968Y-15922722D02*
X17768396Y-15922722D01*
X17768396Y-15922722D02*
X17749349Y-15913198D01*
X17749349Y-15913198D02*
X17739825Y-15894151D01*
X17739825Y-15894151D02*
X17739825Y-15884627D01*
X17739825Y-15884627D02*
X17749349Y-15865579D01*
X17749349Y-15865579D02*
X17768396Y-15856055D01*
X17768396Y-15856055D02*
X17796968Y-15856055D01*
X17796968Y-15856055D02*
X17816015Y-15865579D01*
X17892206Y-16065579D02*
X17901730Y-16056055D01*
X17901730Y-16056055D02*
X17920777Y-16027484D01*
X17920777Y-16027484D02*
X17930301Y-16008436D01*
X17930301Y-16008436D02*
X17939825Y-15979865D01*
X17939825Y-15979865D02*
X17949349Y-15932246D01*
X17949349Y-15932246D02*
X17949349Y-15894151D01*
X17949349Y-15894151D02*
X17939825Y-15846532D01*
X17939825Y-15846532D02*
X17930301Y-15817960D01*
X17930301Y-15817960D02*
X17920777Y-15798913D01*
X17920777Y-15798913D02*
X17901730Y-15770341D01*
X17901730Y-15770341D02*
X17892206Y-15760817D01*
D12*
X11398095Y-16111905D02*
X11498095Y-16211905D01*
X11498095Y-16111905D02*
X11398095Y-16211905D01*
X11498095Y-16161905D02*
G75*
G02*
X11398095Y-16161905I-50000J0D01*
G01*
X11398095Y-16161905D02*
G75*
G02*
X11498095Y-16161905I50000J0D01*
G01*
D11*
X11863634Y-16253389D02*
X11749348Y-16253389D01*
X11806491Y-16253389D02*
X11806491Y-16053389D01*
X11806491Y-16053389D02*
X11787443Y-16081960D01*
X11787443Y-16081960D02*
X11768396Y-16101008D01*
X11768396Y-16101008D02*
X11749348Y-16110532D01*
X11949348Y-16234341D02*
X11958872Y-16243865D01*
X11958872Y-16243865D02*
X11949348Y-16253389D01*
X11949348Y-16253389D02*
X11939824Y-16243865D01*
X11939824Y-16243865D02*
X11949348Y-16234341D01*
X11949348Y-16234341D02*
X11949348Y-16253389D01*
X12082681Y-16053389D02*
X12101729Y-16053389D01*
X12101729Y-16053389D02*
X12120777Y-16062913D01*
X12120777Y-16062913D02*
X12130300Y-16072436D01*
X12130300Y-16072436D02*
X12139824Y-16091484D01*
X12139824Y-16091484D02*
X12149348Y-16129579D01*
X12149348Y-16129579D02*
X12149348Y-16177198D01*
X12149348Y-16177198D02*
X12139824Y-16215293D01*
X12139824Y-16215293D02*
X12130300Y-16234341D01*
X12130300Y-16234341D02*
X12120777Y-16243865D01*
X12120777Y-16243865D02*
X12101729Y-16253389D01*
X12101729Y-16253389D02*
X12082681Y-16253389D01*
X12082681Y-16253389D02*
X12063634Y-16243865D01*
X12063634Y-16243865D02*
X12054110Y-16234341D01*
X12054110Y-16234341D02*
X12044586Y-16215293D01*
X12044586Y-16215293D02*
X12035062Y-16177198D01*
X12035062Y-16177198D02*
X12035062Y-16129579D01*
X12035062Y-16129579D02*
X12044586Y-16091484D01*
X12044586Y-16091484D02*
X12054110Y-16072436D01*
X12054110Y-16072436D02*
X12063634Y-16062913D01*
X12063634Y-16062913D02*
X12082681Y-16053389D01*
X12273157Y-16053389D02*
X12292205Y-16053389D01*
X12292205Y-16053389D02*
X12311253Y-16062913D01*
X12311253Y-16062913D02*
X12320777Y-16072436D01*
X12320777Y-16072436D02*
X12330300Y-16091484D01*
X12330300Y-16091484D02*
X12339824Y-16129579D01*
X12339824Y-16129579D02*
X12339824Y-16177198D01*
X12339824Y-16177198D02*
X12330300Y-16215293D01*
X12330300Y-16215293D02*
X12320777Y-16234341D01*
X12320777Y-16234341D02*
X12311253Y-16243865D01*
X12311253Y-16243865D02*
X12292205Y-16253389D01*
X12292205Y-16253389D02*
X12273157Y-16253389D01*
X12273157Y-16253389D02*
X12254110Y-16243865D01*
X12254110Y-16243865D02*
X12244586Y-16234341D01*
X12244586Y-16234341D02*
X12235062Y-16215293D01*
X12235062Y-16215293D02*
X12225538Y-16177198D01*
X12225538Y-16177198D02*
X12225538Y-16129579D01*
X12225538Y-16129579D02*
X12235062Y-16091484D01*
X12235062Y-16091484D02*
X12244586Y-16072436D01*
X12244586Y-16072436D02*
X12254110Y-16062913D01*
X12254110Y-16062913D02*
X12273157Y-16053389D01*
X12463634Y-16053389D02*
X12482681Y-16053389D01*
X12482681Y-16053389D02*
X12501729Y-16062913D01*
X12501729Y-16062913D02*
X12511253Y-16072436D01*
X12511253Y-16072436D02*
X12520777Y-16091484D01*
X12520777Y-16091484D02*
X12530300Y-16129579D01*
X12530300Y-16129579D02*
X12530300Y-16177198D01*
X12530300Y-16177198D02*
X12520777Y-16215293D01*
X12520777Y-16215293D02*
X12511253Y-16234341D01*
X12511253Y-16234341D02*
X12501729Y-16243865D01*
X12501729Y-16243865D02*
X12482681Y-16253389D01*
X12482681Y-16253389D02*
X12463634Y-16253389D01*
X12463634Y-16253389D02*
X12444586Y-16243865D01*
X12444586Y-16243865D02*
X12435062Y-16234341D01*
X12435062Y-16234341D02*
X12425538Y-16215293D01*
X12425538Y-16215293D02*
X12416015Y-16177198D01*
X12416015Y-16177198D02*
X12416015Y-16129579D01*
X12416015Y-16129579D02*
X12425538Y-16091484D01*
X12425538Y-16091484D02*
X12435062Y-16072436D01*
X12435062Y-16072436D02*
X12444586Y-16062913D01*
X12444586Y-16062913D02*
X12463634Y-16053389D01*
X12616015Y-16253389D02*
X12616015Y-16120055D01*
X12616015Y-16139103D02*
X12625538Y-16129579D01*
X12625538Y-16129579D02*
X12644586Y-16120055D01*
X12644586Y-16120055D02*
X12673158Y-16120055D01*
X12673158Y-16120055D02*
X12692205Y-16129579D01*
X12692205Y-16129579D02*
X12701729Y-16148627D01*
X12701729Y-16148627D02*
X12701729Y-16253389D01*
X12701729Y-16148627D02*
X12711253Y-16129579D01*
X12711253Y-16129579D02*
X12730300Y-16120055D01*
X12730300Y-16120055D02*
X12758872Y-16120055D01*
X12758872Y-16120055D02*
X12777919Y-16129579D01*
X12777919Y-16129579D02*
X12787443Y-16148627D01*
X12787443Y-16148627D02*
X12787443Y-16253389D01*
X12882681Y-16253389D02*
X12882681Y-16120055D01*
X12882681Y-16139103D02*
X12892205Y-16129579D01*
X12892205Y-16129579D02*
X12911253Y-16120055D01*
X12911253Y-16120055D02*
X12939824Y-16120055D01*
X12939824Y-16120055D02*
X12958872Y-16129579D01*
X12958872Y-16129579D02*
X12968396Y-16148627D01*
X12968396Y-16148627D02*
X12968396Y-16253389D01*
X12968396Y-16148627D02*
X12977919Y-16129579D01*
X12977919Y-16129579D02*
X12996967Y-16120055D01*
X12996967Y-16120055D02*
X13025538Y-16120055D01*
X13025538Y-16120055D02*
X13044586Y-16129579D01*
X13044586Y-16129579D02*
X13054110Y-16148627D01*
X13054110Y-16148627D02*
X13054110Y-16253389D01*
X13444586Y-16043865D02*
X13273158Y-16301008D01*
X13701729Y-16053389D02*
X13720777Y-16053389D01*
X13720777Y-16053389D02*
X13739824Y-16062913D01*
X13739824Y-16062913D02*
X13749348Y-16072436D01*
X13749348Y-16072436D02*
X13758872Y-16091484D01*
X13758872Y-16091484D02*
X13768396Y-16129579D01*
X13768396Y-16129579D02*
X13768396Y-16177198D01*
X13768396Y-16177198D02*
X13758872Y-16215293D01*
X13758872Y-16215293D02*
X13749348Y-16234341D01*
X13749348Y-16234341D02*
X13739824Y-16243865D01*
X13739824Y-16243865D02*
X13720777Y-16253389D01*
X13720777Y-16253389D02*
X13701729Y-16253389D01*
X13701729Y-16253389D02*
X13682681Y-16243865D01*
X13682681Y-16243865D02*
X13673158Y-16234341D01*
X13673158Y-16234341D02*
X13663634Y-16215293D01*
X13663634Y-16215293D02*
X13654110Y-16177198D01*
X13654110Y-16177198D02*
X13654110Y-16129579D01*
X13654110Y-16129579D02*
X13663634Y-16091484D01*
X13663634Y-16091484D02*
X13673158Y-16072436D01*
X13673158Y-16072436D02*
X13682681Y-16062913D01*
X13682681Y-16062913D02*
X13701729Y-16053389D01*
X13854110Y-16234341D02*
X13863634Y-16243865D01*
X13863634Y-16243865D02*
X13854110Y-16253389D01*
X13854110Y-16253389D02*
X13844586Y-16243865D01*
X13844586Y-16243865D02*
X13854110Y-16234341D01*
X13854110Y-16234341D02*
X13854110Y-16253389D01*
X13987443Y-16053389D02*
X14006491Y-16053389D01*
X14006491Y-16053389D02*
X14025539Y-16062913D01*
X14025539Y-16062913D02*
X14035062Y-16072436D01*
X14035062Y-16072436D02*
X14044586Y-16091484D01*
X14044586Y-16091484D02*
X14054110Y-16129579D01*
X14054110Y-16129579D02*
X14054110Y-16177198D01*
X14054110Y-16177198D02*
X14044586Y-16215293D01*
X14044586Y-16215293D02*
X14035062Y-16234341D01*
X14035062Y-16234341D02*
X14025539Y-16243865D01*
X14025539Y-16243865D02*
X14006491Y-16253389D01*
X14006491Y-16253389D02*
X13987443Y-16253389D01*
X13987443Y-16253389D02*
X13968396Y-16243865D01*
X13968396Y-16243865D02*
X13958872Y-16234341D01*
X13958872Y-16234341D02*
X13949348Y-16215293D01*
X13949348Y-16215293D02*
X13939824Y-16177198D01*
X13939824Y-16177198D02*
X13939824Y-16129579D01*
X13939824Y-16129579D02*
X13949348Y-16091484D01*
X13949348Y-16091484D02*
X13958872Y-16072436D01*
X13958872Y-16072436D02*
X13968396Y-16062913D01*
X13968396Y-16062913D02*
X13987443Y-16053389D01*
X14120777Y-16053389D02*
X14244586Y-16053389D01*
X14244586Y-16053389D02*
X14177920Y-16129579D01*
X14177920Y-16129579D02*
X14206491Y-16129579D01*
X14206491Y-16129579D02*
X14225539Y-16139103D01*
X14225539Y-16139103D02*
X14235062Y-16148627D01*
X14235062Y-16148627D02*
X14244586Y-16167674D01*
X14244586Y-16167674D02*
X14244586Y-16215293D01*
X14244586Y-16215293D02*
X14235062Y-16234341D01*
X14235062Y-16234341D02*
X14225539Y-16243865D01*
X14225539Y-16243865D02*
X14206491Y-16253389D01*
X14206491Y-16253389D02*
X14149348Y-16253389D01*
X14149348Y-16253389D02*
X14130301Y-16243865D01*
X14130301Y-16243865D02*
X14120777Y-16234341D01*
X14339824Y-16253389D02*
X14377920Y-16253389D01*
X14377920Y-16253389D02*
X14396967Y-16243865D01*
X14396967Y-16243865D02*
X14406491Y-16234341D01*
X14406491Y-16234341D02*
X14425539Y-16205770D01*
X14425539Y-16205770D02*
X14435062Y-16167674D01*
X14435062Y-16167674D02*
X14435062Y-16091484D01*
X14435062Y-16091484D02*
X14425539Y-16072436D01*
X14425539Y-16072436D02*
X14416015Y-16062913D01*
X14416015Y-16062913D02*
X14396967Y-16053389D01*
X14396967Y-16053389D02*
X14358872Y-16053389D01*
X14358872Y-16053389D02*
X14339824Y-16062913D01*
X14339824Y-16062913D02*
X14330301Y-16072436D01*
X14330301Y-16072436D02*
X14320777Y-16091484D01*
X14320777Y-16091484D02*
X14320777Y-16139103D01*
X14320777Y-16139103D02*
X14330301Y-16158151D01*
X14330301Y-16158151D02*
X14339824Y-16167674D01*
X14339824Y-16167674D02*
X14358872Y-16177198D01*
X14358872Y-16177198D02*
X14396967Y-16177198D01*
X14396967Y-16177198D02*
X14416015Y-16167674D01*
X14416015Y-16167674D02*
X14425539Y-16158151D01*
X14425539Y-16158151D02*
X14435062Y-16139103D01*
X14606491Y-16120055D02*
X14606491Y-16253389D01*
X14558872Y-16043865D02*
X14511253Y-16186722D01*
X14511253Y-16186722D02*
X14635062Y-16186722D01*
X14701729Y-16053389D02*
X14701729Y-16091484D01*
X14777920Y-16053389D02*
X14777920Y-16091484D01*
X15073158Y-16329579D02*
X15063634Y-16320055D01*
X15063634Y-16320055D02*
X15044586Y-16291484D01*
X15044586Y-16291484D02*
X15035063Y-16272436D01*
X15035063Y-16272436D02*
X15025539Y-16243865D01*
X15025539Y-16243865D02*
X15016015Y-16196246D01*
X15016015Y-16196246D02*
X15016015Y-16158151D01*
X15016015Y-16158151D02*
X15025539Y-16110532D01*
X15025539Y-16110532D02*
X15035063Y-16081960D01*
X15035063Y-16081960D02*
X15044586Y-16062913D01*
X15044586Y-16062913D02*
X15063634Y-16034341D01*
X15063634Y-16034341D02*
X15073158Y-16024817D01*
X15235063Y-16120055D02*
X15235063Y-16253389D01*
X15187443Y-16043865D02*
X15139824Y-16186722D01*
X15139824Y-16186722D02*
X15263634Y-16186722D01*
X15492205Y-16253389D02*
X15492205Y-16053389D01*
X15577920Y-16253389D02*
X15577920Y-16148627D01*
X15577920Y-16148627D02*
X15568396Y-16129579D01*
X15568396Y-16129579D02*
X15549348Y-16120055D01*
X15549348Y-16120055D02*
X15520777Y-16120055D01*
X15520777Y-16120055D02*
X15501729Y-16129579D01*
X15501729Y-16129579D02*
X15492205Y-16139103D01*
X15701729Y-16253389D02*
X15682682Y-16243865D01*
X15682682Y-16243865D02*
X15673158Y-16234341D01*
X15673158Y-16234341D02*
X15663634Y-16215293D01*
X15663634Y-16215293D02*
X15663634Y-16158151D01*
X15663634Y-16158151D02*
X15673158Y-16139103D01*
X15673158Y-16139103D02*
X15682682Y-16129579D01*
X15682682Y-16129579D02*
X15701729Y-16120055D01*
X15701729Y-16120055D02*
X15730301Y-16120055D01*
X15730301Y-16120055D02*
X15749348Y-16129579D01*
X15749348Y-16129579D02*
X15758872Y-16139103D01*
X15758872Y-16139103D02*
X15768396Y-16158151D01*
X15768396Y-16158151D02*
X15768396Y-16215293D01*
X15768396Y-16215293D02*
X15758872Y-16234341D01*
X15758872Y-16234341D02*
X15749348Y-16243865D01*
X15749348Y-16243865D02*
X15730301Y-16253389D01*
X15730301Y-16253389D02*
X15701729Y-16253389D01*
X15882682Y-16253389D02*
X15863634Y-16243865D01*
X15863634Y-16243865D02*
X15854110Y-16224817D01*
X15854110Y-16224817D02*
X15854110Y-16053389D01*
X16035063Y-16243865D02*
X16016015Y-16253389D01*
X16016015Y-16253389D02*
X15977920Y-16253389D01*
X15977920Y-16253389D02*
X15958872Y-16243865D01*
X15958872Y-16243865D02*
X15949348Y-16224817D01*
X15949348Y-16224817D02*
X15949348Y-16148627D01*
X15949348Y-16148627D02*
X15958872Y-16129579D01*
X15958872Y-16129579D02*
X15977920Y-16120055D01*
X15977920Y-16120055D02*
X16016015Y-16120055D01*
X16016015Y-16120055D02*
X16035063Y-16129579D01*
X16035063Y-16129579D02*
X16044586Y-16148627D01*
X16044586Y-16148627D02*
X16044586Y-16167674D01*
X16044586Y-16167674D02*
X15949348Y-16186722D01*
X16120777Y-16243865D02*
X16139825Y-16253389D01*
X16139825Y-16253389D02*
X16177920Y-16253389D01*
X16177920Y-16253389D02*
X16196967Y-16243865D01*
X16196967Y-16243865D02*
X16206491Y-16224817D01*
X16206491Y-16224817D02*
X16206491Y-16215293D01*
X16206491Y-16215293D02*
X16196967Y-16196246D01*
X16196967Y-16196246D02*
X16177920Y-16186722D01*
X16177920Y-16186722D02*
X16149348Y-16186722D01*
X16149348Y-16186722D02*
X16130301Y-16177198D01*
X16130301Y-16177198D02*
X16120777Y-16158151D01*
X16120777Y-16158151D02*
X16120777Y-16148627D01*
X16120777Y-16148627D02*
X16130301Y-16129579D01*
X16130301Y-16129579D02*
X16149348Y-16120055D01*
X16149348Y-16120055D02*
X16177920Y-16120055D01*
X16177920Y-16120055D02*
X16196967Y-16129579D01*
X16273158Y-16329579D02*
X16282682Y-16320055D01*
X16282682Y-16320055D02*
X16301729Y-16291484D01*
X16301729Y-16291484D02*
X16311253Y-16272436D01*
X16311253Y-16272436D02*
X16320777Y-16243865D01*
X16320777Y-16243865D02*
X16330301Y-16196246D01*
X16330301Y-16196246D02*
X16330301Y-16158151D01*
X16330301Y-16158151D02*
X16320777Y-16110532D01*
X16320777Y-16110532D02*
X16311253Y-16081960D01*
X16311253Y-16081960D02*
X16301729Y-16062913D01*
X16301729Y-16062913D02*
X16282682Y-16034341D01*
X16282682Y-16034341D02*
X16273158Y-16024817D01*
M02*
