G04 #@! TF.GenerationSoftware,KiCad,Pcbnew,9.0.0*
G04 #@! TF.CreationDate,2025-03-04T19:59:01+09:00*
G04 #@! TF.ProjectId,esp32_primary_board_v0.3.1,65737033-325f-4707-9269-6d6172795f62,rev?*
G04 #@! TF.SameCoordinates,Original*
G04 #@! TF.FileFunction,Copper,L4,Bot*
G04 #@! TF.FilePolarity,Positive*
%FSLAX46Y46*%
G04 Gerber Fmt 4.6, Leading zero omitted, Abs format (unit mm)*
G04 Created by KiCad (PCBNEW 9.0.0) date 2025-03-04 19:59:01*
%MOMM*%
%LPD*%
G01*
G04 APERTURE LIST*
G04 Aperture macros list*
%AMRoundRect*
0 Rectangle with rounded corners*
0 $1 Rounding radius*
0 $2 $3 $4 $5 $6 $7 $8 $9 X,Y pos of 4 corners*
0 Add a 4 corners polygon primitive as box body*
4,1,4,$2,$3,$4,$5,$6,$7,$8,$9,$2,$3,0*
0 Add four circle primitives for the rounded corners*
1,1,$1+$1,$2,$3*
1,1,$1+$1,$4,$5*
1,1,$1+$1,$6,$7*
1,1,$1+$1,$8,$9*
0 Add four rect primitives between the rounded corners*
20,1,$1+$1,$2,$3,$4,$5,0*
20,1,$1+$1,$4,$5,$6,$7,0*
20,1,$1+$1,$6,$7,$8,$9,0*
20,1,$1+$1,$8,$9,$2,$3,0*%
G04 Aperture macros list end*
G04 #@! TA.AperFunction,ComponentPad*
%ADD10RoundRect,0.250000X-0.350000X-0.512000X0.350000X-0.512000X0.350000X0.512000X-0.350000X0.512000X0*%
G04 #@! TD*
G04 #@! TA.AperFunction,ComponentPad*
%ADD11O,1.200000X1.750000*%
G04 #@! TD*
G04 #@! TA.AperFunction,ComponentPad*
%ADD12C,0.650000*%
G04 #@! TD*
G04 #@! TA.AperFunction,ComponentPad*
%ADD13O,0.900000X1.700000*%
G04 #@! TD*
G04 #@! TA.AperFunction,ComponentPad*
%ADD14O,0.900000X2.400000*%
G04 #@! TD*
G04 #@! TA.AperFunction,HeatsinkPad*
%ADD15C,0.600000*%
G04 #@! TD*
G04 #@! TA.AperFunction,SMDPad,CuDef*
%ADD16RoundRect,0.250000X-0.325000X-0.450000X0.325000X-0.450000X0.325000X0.450000X-0.325000X0.450000X0*%
G04 #@! TD*
G04 #@! TA.AperFunction,ViaPad*
%ADD17C,0.600000*%
G04 #@! TD*
G04 #@! TA.AperFunction,Conductor*
%ADD18C,0.127000*%
G04 #@! TD*
G04 #@! TA.AperFunction,Conductor*
%ADD19C,0.250000*%
G04 #@! TD*
G04 #@! TA.AperFunction,Conductor*
%ADD20C,0.350000*%
G04 #@! TD*
G04 #@! TA.AperFunction,Conductor*
%ADD21C,0.200000*%
G04 #@! TD*
G04 APERTURE END LIST*
D10*
X149700000Y-133200000D03*
D11*
X151700000Y-133200000D03*
X153700000Y-133200000D03*
X155700000Y-133200000D03*
X157700000Y-133200000D03*
D12*
X136275000Y-135390000D03*
X137125000Y-135390000D03*
X137975000Y-135390000D03*
X138825000Y-135390000D03*
X139675000Y-135390000D03*
X140525000Y-135390000D03*
X141375000Y-135390000D03*
X142225000Y-135390000D03*
X142225000Y-136740000D03*
X141375000Y-136740000D03*
X140525000Y-136740000D03*
X139675000Y-136740000D03*
X138825000Y-136740000D03*
X137975000Y-136740000D03*
X137125000Y-136740000D03*
X136275000Y-136740000D03*
D13*
X134925000Y-139750000D03*
X143575000Y-139750000D03*
D14*
X134925000Y-136370000D03*
X143575000Y-136370000D03*
D15*
X137850000Y-108660000D03*
X137850000Y-110060000D03*
X138550000Y-107960000D03*
X138550000Y-109360000D03*
X138550000Y-110760000D03*
X139250000Y-108660000D03*
X139250000Y-110060000D03*
X139950000Y-107960000D03*
X139950000Y-109360000D03*
X139950000Y-110760000D03*
X140650000Y-108660000D03*
X140650000Y-110060000D03*
D16*
X153675000Y-102100000D03*
X155725000Y-102100000D03*
X158475000Y-102100000D03*
X160525000Y-102100000D03*
D17*
X154500000Y-123000000D03*
X137750000Y-138000000D03*
X133500000Y-140300000D03*
X130200000Y-139700000D03*
X116200000Y-127600000D03*
X156300000Y-106900000D03*
X151750000Y-102000000D03*
X146800000Y-139300000D03*
X149750000Y-123250000D03*
X126250000Y-112250000D03*
X116250000Y-135000000D03*
X133500000Y-132500000D03*
X152400000Y-126800000D03*
X122000000Y-121750000D03*
X135000000Y-114000000D03*
X163500000Y-109000000D03*
X124000000Y-130750000D03*
X124750000Y-115250000D03*
X144000000Y-102750000D03*
X158100000Y-110400000D03*
X152100000Y-119400000D03*
X144250000Y-108750000D03*
X129250000Y-114500000D03*
X123000000Y-108250000D03*
X142250000Y-138500000D03*
X145500000Y-105500000D03*
X129000000Y-125250000D03*
X127100000Y-141100000D03*
X133250000Y-137750000D03*
X140500000Y-138000000D03*
X136000000Y-111800000D03*
X146400000Y-129300000D03*
X157000000Y-100800000D03*
X146250000Y-112750000D03*
X140250000Y-129750000D03*
X135750000Y-129250000D03*
X140250000Y-133750000D03*
X139000000Y-103000000D03*
X122750000Y-102250000D03*
X133250000Y-125500000D03*
X151500000Y-112900000D03*
X156400000Y-136000000D03*
X144000000Y-106250000D03*
X116000000Y-110750000D03*
X136000000Y-138250000D03*
X130500000Y-106000000D03*
X156800000Y-118700000D03*
X122000000Y-114500000D03*
X136250000Y-102500000D03*
X116000000Y-116000000D03*
X132000000Y-104180000D03*
X124500000Y-105000000D03*
X129250000Y-121250000D03*
X130750000Y-121500000D03*
X142500000Y-121500000D03*
X125500000Y-114000000D03*
X140500000Y-128000000D03*
X135250000Y-128500000D03*
X139700000Y-120598013D03*
X139575000Y-131600000D03*
X138918199Y-117481801D03*
X138200000Y-131600000D03*
X138800000Y-120598013D03*
X138281801Y-118118199D03*
X144200000Y-116000000D03*
X134500000Y-106200000D03*
X122200000Y-140300000D03*
X121700000Y-136900000D03*
X125200000Y-131800000D03*
X127800000Y-140100000D03*
X136500000Y-139750000D03*
X160600000Y-103900000D03*
X155700000Y-104000000D03*
D18*
X131180000Y-105000000D02*
X132000000Y-104180000D01*
X124500000Y-105000000D02*
X131180000Y-105000000D01*
D19*
X142500000Y-121500000D02*
X143600000Y-121500000D01*
X149700000Y-127600000D02*
X149700000Y-133200000D01*
X129250000Y-117750000D02*
X125500000Y-114000000D01*
X143600000Y-121500000D02*
X149700000Y-127600000D01*
X129250000Y-121250000D02*
X129250000Y-117750000D01*
X130750000Y-121500000D02*
X142500000Y-121500000D01*
X140000000Y-128500000D02*
X140500000Y-128000000D01*
X135250000Y-128500000D02*
X140000000Y-128500000D01*
D20*
X139675000Y-135426712D02*
X139675000Y-135390000D01*
X138825000Y-136276712D02*
X139675000Y-135426712D01*
X139575000Y-120473013D02*
X139575000Y-118315380D01*
X139700000Y-120598013D02*
X139575000Y-120473013D01*
X138200000Y-131600000D02*
X139575000Y-131600000D01*
X139575000Y-118315380D02*
X138918199Y-117658579D01*
X138918199Y-117658579D02*
X138918199Y-117481801D01*
X138825000Y-136740000D02*
X138825000Y-136276712D01*
X138925000Y-120473013D02*
X138925000Y-118584620D01*
X138925000Y-118584620D02*
X138458579Y-118118199D01*
X138458579Y-118118199D02*
X138281801Y-118118199D01*
X138800000Y-120598013D02*
X138925000Y-120473013D01*
D21*
X153700000Y-125500000D02*
X153700000Y-133200000D01*
X144200000Y-116000000D02*
X153700000Y-125500000D01*
X151700000Y-128200000D02*
X151700000Y-133200000D01*
X134500000Y-106200000D02*
X134500000Y-111000000D01*
X134500000Y-111000000D02*
X151700000Y-128200000D01*
D18*
X121700000Y-139800000D02*
X122200000Y-140300000D01*
X121700000Y-136900000D02*
X121700000Y-139800000D01*
X125200000Y-131800000D02*
X125200000Y-137500000D01*
X125200000Y-137500000D02*
X127800000Y-140100000D01*
D21*
X137515000Y-139750000D02*
X140525000Y-136740000D01*
X136500000Y-139750000D02*
X137515000Y-139750000D01*
D18*
X160600000Y-103900000D02*
X160600000Y-103400000D01*
X160600000Y-103400000D02*
X160525000Y-103325000D01*
X160525000Y-103325000D02*
X160525000Y-102100000D01*
X155700000Y-104000000D02*
X155700000Y-103500000D01*
X155725000Y-103475000D02*
X155725000Y-102100000D01*
X155700000Y-103500000D02*
X155725000Y-103475000D01*
G04 #@! TA.AperFunction,Conductor*
G36*
X164503736Y-100500726D02*
G01*
X164793796Y-100518271D01*
X164808659Y-100520076D01*
X165090798Y-100571780D01*
X165105335Y-100575363D01*
X165379172Y-100660695D01*
X165393163Y-100666000D01*
X165654743Y-100783727D01*
X165667989Y-100790680D01*
X165913465Y-100939075D01*
X165925776Y-100947573D01*
X166065819Y-101057289D01*
X166151573Y-101124473D01*
X166162781Y-101134403D01*
X166365596Y-101337218D01*
X166375526Y-101348426D01*
X166495481Y-101501538D01*
X166552422Y-101574217D01*
X166560926Y-101586537D01*
X166569073Y-101600013D01*
X166709316Y-101832004D01*
X166716275Y-101845263D01*
X166833997Y-102106831D01*
X166839306Y-102120832D01*
X166924635Y-102394663D01*
X166928219Y-102409201D01*
X166979923Y-102691340D01*
X166981728Y-102706205D01*
X166999274Y-102996263D01*
X166999500Y-103003750D01*
X166999500Y-138996249D01*
X166999274Y-139003736D01*
X166981728Y-139293794D01*
X166979923Y-139308659D01*
X166928219Y-139590798D01*
X166924635Y-139605336D01*
X166839306Y-139879167D01*
X166833997Y-139893168D01*
X166716275Y-140154736D01*
X166709316Y-140167995D01*
X166560928Y-140413459D01*
X166552422Y-140425782D01*
X166375526Y-140651573D01*
X166365596Y-140662781D01*
X166162781Y-140865596D01*
X166151573Y-140875526D01*
X165925782Y-141052422D01*
X165913459Y-141060928D01*
X165667995Y-141209316D01*
X165654736Y-141216275D01*
X165393168Y-141333997D01*
X165379167Y-141339306D01*
X165105336Y-141424635D01*
X165090798Y-141428219D01*
X164808659Y-141479923D01*
X164793794Y-141481728D01*
X164503736Y-141499274D01*
X164496249Y-141499500D01*
X118003751Y-141499500D01*
X117996264Y-141499274D01*
X117706205Y-141481728D01*
X117691340Y-141479923D01*
X117409201Y-141428219D01*
X117394663Y-141424635D01*
X117120832Y-141339306D01*
X117106831Y-141333997D01*
X116845263Y-141216275D01*
X116832004Y-141209316D01*
X116590780Y-141063491D01*
X116586537Y-141060926D01*
X116574217Y-141052422D01*
X116496943Y-140991882D01*
X116407476Y-140921789D01*
X116348426Y-140875526D01*
X116337218Y-140865596D01*
X116134403Y-140662781D01*
X116124473Y-140651573D01*
X115947573Y-140425776D01*
X115939075Y-140413465D01*
X115790680Y-140167989D01*
X115783727Y-140154743D01*
X115666000Y-139893163D01*
X115660693Y-139879167D01*
X115660177Y-139877512D01*
X115575363Y-139605335D01*
X115571780Y-139590798D01*
X115520076Y-139308659D01*
X115518271Y-139293794D01*
X115517425Y-139279815D01*
X115500726Y-139003736D01*
X115500500Y-138996249D01*
X115500500Y-138631902D01*
X116999500Y-138631902D01*
X116999500Y-138868097D01*
X117036446Y-139101368D01*
X117109433Y-139325996D01*
X117197839Y-139499500D01*
X117216657Y-139536433D01*
X117355483Y-139727510D01*
X117522490Y-139894517D01*
X117713567Y-140033343D01*
X117778661Y-140066510D01*
X117924003Y-140140566D01*
X117924005Y-140140566D01*
X117924008Y-140140568D01*
X118041803Y-140178842D01*
X118148631Y-140213553D01*
X118381903Y-140250500D01*
X118381908Y-140250500D01*
X118618097Y-140250500D01*
X118851368Y-140213553D01*
X119075992Y-140140568D01*
X119286433Y-140033343D01*
X119477510Y-139894517D01*
X119644517Y-139727510D01*
X119783343Y-139536433D01*
X119890568Y-139325992D01*
X119963553Y-139101368D01*
X119968451Y-139070444D01*
X120000500Y-138868097D01*
X120000500Y-138631902D01*
X119963553Y-138398631D01*
X119890566Y-138174003D01*
X119783342Y-137963566D01*
X119644517Y-137772490D01*
X119477510Y-137605483D01*
X119286433Y-137466657D01*
X119227141Y-137436446D01*
X119075996Y-137359433D01*
X118851368Y-137286446D01*
X118618097Y-137249500D01*
X118618092Y-137249500D01*
X118381908Y-137249500D01*
X118381903Y-137249500D01*
X118148631Y-137286446D01*
X117924003Y-137359433D01*
X117713566Y-137466657D01*
X117607885Y-137543440D01*
X117522490Y-137605483D01*
X117522488Y-137605485D01*
X117522487Y-137605485D01*
X117355485Y-137772487D01*
X117355485Y-137772488D01*
X117355483Y-137772490D01*
X117301857Y-137846300D01*
X117216657Y-137963566D01*
X117109433Y-138174003D01*
X117036446Y-138398631D01*
X116999500Y-138631902D01*
X115500500Y-138631902D01*
X115500500Y-136821153D01*
X120899500Y-136821153D01*
X120899500Y-136978846D01*
X120930261Y-137133489D01*
X120930264Y-137133501D01*
X120990602Y-137279172D01*
X120990609Y-137279185D01*
X121078209Y-137410287D01*
X121078210Y-137410288D01*
X121078211Y-137410289D01*
X121099681Y-137431759D01*
X121133166Y-137493080D01*
X121136000Y-137519440D01*
X121136000Y-139725747D01*
X121136000Y-139874253D01*
X121141068Y-139893168D01*
X121164813Y-139981785D01*
X121164813Y-139981786D01*
X121174433Y-140017692D01*
X121174434Y-140017694D01*
X121174435Y-140017696D01*
X121248687Y-140146304D01*
X121248689Y-140146306D01*
X121360761Y-140258378D01*
X121360767Y-140258383D01*
X121363181Y-140260797D01*
X121396666Y-140322120D01*
X121399500Y-140348478D01*
X121399500Y-140378846D01*
X121430261Y-140533489D01*
X121430264Y-140533501D01*
X121490602Y-140679172D01*
X121490609Y-140679185D01*
X121578210Y-140810288D01*
X121578213Y-140810292D01*
X121689707Y-140921786D01*
X121689711Y-140921789D01*
X121820814Y-141009390D01*
X121820827Y-141009397D01*
X121964436Y-141068881D01*
X121966503Y-141069737D01*
X122121153Y-141100499D01*
X122121156Y-141100500D01*
X122121158Y-141100500D01*
X122278844Y-141100500D01*
X122278845Y-141100499D01*
X122433497Y-141069737D01*
X122579179Y-141009394D01*
X122710289Y-140921789D01*
X122821789Y-140810289D01*
X122909394Y-140679179D01*
X122969737Y-140533497D01*
X123000500Y-140378842D01*
X123000500Y-140221158D01*
X123000500Y-140221155D01*
X123000499Y-140221153D01*
X122992453Y-140180705D01*
X122969737Y-140066503D01*
X122956002Y-140033343D01*
X122909397Y-139920827D01*
X122909390Y-139920814D01*
X122821789Y-139789711D01*
X122821786Y-139789707D01*
X122710292Y-139678213D01*
X122710288Y-139678210D01*
X122579185Y-139590609D01*
X122579172Y-139590602D01*
X122433501Y-139530264D01*
X122433491Y-139530261D01*
X122363808Y-139516400D01*
X122301897Y-139484015D01*
X122267323Y-139423299D01*
X122264000Y-139394783D01*
X122264000Y-137519440D01*
X122283685Y-137452401D01*
X122300315Y-137431762D01*
X122321789Y-137410289D01*
X122409394Y-137279179D01*
X122469737Y-137133497D01*
X122500500Y-136978842D01*
X122500500Y-136821158D01*
X122500500Y-136821155D01*
X122500499Y-136821153D01*
X122492270Y-136779782D01*
X122469737Y-136666503D01*
X122429950Y-136570448D01*
X122409397Y-136520827D01*
X122409390Y-136520814D01*
X122321789Y-136389711D01*
X122321786Y-136389707D01*
X122210292Y-136278213D01*
X122210288Y-136278210D01*
X122079185Y-136190609D01*
X122079172Y-136190602D01*
X121933501Y-136130264D01*
X121933489Y-136130261D01*
X121778845Y-136099500D01*
X121778842Y-136099500D01*
X121621158Y-136099500D01*
X121621155Y-136099500D01*
X121466510Y-136130261D01*
X121466498Y-136130264D01*
X121320827Y-136190602D01*
X121320814Y-136190609D01*
X121189711Y-136278210D01*
X121189707Y-136278213D01*
X121078213Y-136389707D01*
X121078210Y-136389711D01*
X120990609Y-136520814D01*
X120990602Y-136520827D01*
X120930264Y-136666498D01*
X120930261Y-136666510D01*
X120899500Y-136821153D01*
X115500500Y-136821153D01*
X115500500Y-131721153D01*
X124399500Y-131721153D01*
X124399500Y-131878846D01*
X124430261Y-132033489D01*
X124430264Y-132033501D01*
X124490602Y-132179172D01*
X124490609Y-132179185D01*
X124578209Y-132310287D01*
X124578210Y-132310288D01*
X124578211Y-132310289D01*
X124599681Y-132331759D01*
X124633166Y-132393080D01*
X124636000Y-132419440D01*
X124636000Y-137574252D01*
X124674435Y-137717696D01*
X124748687Y-137846304D01*
X124748689Y-137846306D01*
X124860761Y-137958378D01*
X124860767Y-137958383D01*
X126963181Y-140060797D01*
X126996666Y-140122120D01*
X126999500Y-140148478D01*
X126999500Y-140178846D01*
X127030261Y-140333489D01*
X127030264Y-140333501D01*
X127090602Y-140479172D01*
X127090609Y-140479185D01*
X127178210Y-140610288D01*
X127178213Y-140610292D01*
X127289707Y-140721786D01*
X127289711Y-140721789D01*
X127420814Y-140809390D01*
X127420827Y-140809397D01*
X127566498Y-140869735D01*
X127566503Y-140869737D01*
X127721153Y-140900499D01*
X127721156Y-140900500D01*
X127721158Y-140900500D01*
X127878844Y-140900500D01*
X127878845Y-140900499D01*
X128033497Y-140869737D01*
X128179179Y-140809394D01*
X128310289Y-140721789D01*
X128421789Y-140610289D01*
X128509394Y-140479179D01*
X128569737Y-140333497D01*
X128600500Y-140178842D01*
X128600500Y-140021158D01*
X128600500Y-140021155D01*
X128590887Y-139972830D01*
X128590887Y-139972829D01*
X128571927Y-139877512D01*
X128569737Y-139866503D01*
X128563555Y-139851578D01*
X128509397Y-139720827D01*
X128509390Y-139720814D01*
X128421789Y-139589711D01*
X128421786Y-139589707D01*
X128310292Y-139478213D01*
X128310288Y-139478210D01*
X128179185Y-139390609D01*
X128179172Y-139390602D01*
X128117125Y-139364902D01*
X128033501Y-139330264D01*
X128033489Y-139330261D01*
X127878845Y-139299500D01*
X127878842Y-139299500D01*
X127848478Y-139299500D01*
X127781439Y-139279815D01*
X127760797Y-139263181D01*
X125800319Y-137302703D01*
X125766834Y-137241380D01*
X125764000Y-137215022D01*
X125764000Y-135526428D01*
X133975000Y-135526428D01*
X133975000Y-136120000D01*
X134625000Y-136120000D01*
X134625000Y-136620000D01*
X133975000Y-136620000D01*
X133975000Y-137213571D01*
X134011506Y-137397097D01*
X134011508Y-137397105D01*
X134083119Y-137569991D01*
X134083124Y-137570000D01*
X134187086Y-137725589D01*
X134187089Y-137725593D01*
X134319406Y-137857910D01*
X134319410Y-137857913D01*
X134474999Y-137961875D01*
X134475012Y-137961882D01*
X134647889Y-138033489D01*
X134647896Y-138033491D01*
X134675000Y-138038882D01*
X134675000Y-137286988D01*
X134684940Y-137304205D01*
X134740795Y-137360060D01*
X134809204Y-137399556D01*
X134885504Y-137420000D01*
X134964496Y-137420000D01*
X135040796Y-137399556D01*
X135109205Y-137360060D01*
X135165060Y-137304205D01*
X135175000Y-137286988D01*
X135175000Y-138038881D01*
X135202103Y-138033491D01*
X135202110Y-138033489D01*
X135374987Y-137961882D01*
X135375000Y-137961875D01*
X135530589Y-137857913D01*
X135530593Y-137857910D01*
X135662910Y-137725593D01*
X135662913Y-137725589D01*
X135766875Y-137570000D01*
X135766877Y-137569995D01*
X135771570Y-137558667D01*
X135815410Y-137504262D01*
X135881703Y-137482195D01*
X135933586Y-137491555D01*
X136034355Y-137533295D01*
X136034363Y-137533297D01*
X136193740Y-137564999D01*
X136193744Y-137565000D01*
X136356256Y-137565000D01*
X136356259Y-137564999D01*
X136515636Y-137533297D01*
X136515644Y-137533295D01*
X136651895Y-137476859D01*
X136721365Y-137469390D01*
X136746800Y-137476858D01*
X136884211Y-137533776D01*
X136884215Y-137533776D01*
X136884216Y-137533777D01*
X137043692Y-137565500D01*
X137043695Y-137565500D01*
X137206307Y-137565500D01*
X137317206Y-137543440D01*
X137365789Y-137533776D01*
X137502547Y-137477128D01*
X137572017Y-137469660D01*
X137597452Y-137477128D01*
X137734211Y-137533776D01*
X137734215Y-137533776D01*
X137734216Y-137533777D01*
X137893692Y-137565500D01*
X137893695Y-137565500D01*
X138056307Y-137565500D01*
X138167206Y-137543440D01*
X138215789Y-137533776D01*
X138352547Y-137477128D01*
X138381052Y-137474064D01*
X138409080Y-137468023D01*
X138417861Y-137470106D01*
X138422017Y-137469660D01*
X138443554Y-137475591D01*
X138445522Y-137476329D01*
X138584211Y-137533776D01*
X138614961Y-137539892D01*
X138624417Y-137543440D01*
X138644594Y-137558604D01*
X138666964Y-137570305D01*
X138672052Y-137579240D01*
X138680271Y-137585417D01*
X138689048Y-137609086D01*
X138701539Y-137631021D01*
X138700988Y-137641286D01*
X138704564Y-137650927D01*
X138699150Y-137675585D01*
X138697800Y-137700790D01*
X138691381Y-137710977D01*
X138689582Y-137719172D01*
X138680543Y-137728176D01*
X138668544Y-137747220D01*
X137302584Y-139113181D01*
X137241261Y-139146666D01*
X137214903Y-139149500D01*
X137079766Y-139149500D01*
X137012727Y-139129815D01*
X137010875Y-139128602D01*
X136879185Y-139040609D01*
X136879172Y-139040602D01*
X136733501Y-138980264D01*
X136733489Y-138980261D01*
X136578845Y-138949500D01*
X136578842Y-138949500D01*
X136421158Y-138949500D01*
X136421155Y-138949500D01*
X136266510Y-138980261D01*
X136266498Y-138980264D01*
X136120827Y-139040602D01*
X136120814Y-139040609D01*
X136014848Y-139111414D01*
X135948170Y-139132292D01*
X135880790Y-139113807D01*
X135834100Y-139061828D01*
X135831396Y-139055764D01*
X135766882Y-138900012D01*
X135766875Y-138899999D01*
X135662913Y-138744410D01*
X135662910Y-138744406D01*
X135530593Y-138612089D01*
X135530589Y-138612086D01*
X135375000Y-138508124D01*
X135374991Y-138508119D01*
X135202103Y-138436507D01*
X135202100Y-138436506D01*
X135175000Y-138431115D01*
X135175000Y-139183011D01*
X135165060Y-139165795D01*
X135109205Y-139109940D01*
X135040796Y-139070444D01*
X134964496Y-139050000D01*
X134885504Y-139050000D01*
X134809204Y-139070444D01*
X134740795Y-139109940D01*
X134684940Y-139165795D01*
X134675000Y-139183011D01*
X134675000Y-138431116D01*
X134674999Y-138431115D01*
X134647899Y-138436506D01*
X134647896Y-138436507D01*
X134475008Y-138508119D01*
X134474999Y-138508124D01*
X134319410Y-138612086D01*
X134319406Y-138612089D01*
X134187089Y-138744406D01*
X134187086Y-138744410D01*
X134083124Y-138899999D01*
X134083119Y-138900008D01*
X134011508Y-139072894D01*
X134011506Y-139072902D01*
X133975000Y-139256428D01*
X133975000Y-139500000D01*
X134625000Y-139500000D01*
X134625000Y-140000000D01*
X133975000Y-140000000D01*
X133975000Y-140243571D01*
X134011506Y-140427097D01*
X134011508Y-140427105D01*
X134083119Y-140599991D01*
X134083124Y-140600000D01*
X134187086Y-140755589D01*
X134187089Y-140755593D01*
X134319406Y-140887910D01*
X134319410Y-140887913D01*
X134474999Y-140991875D01*
X134475012Y-140991882D01*
X134647889Y-141063489D01*
X134647896Y-141063491D01*
X134675000Y-141068882D01*
X134675000Y-140316988D01*
X134684940Y-140334205D01*
X134740795Y-140390060D01*
X134809204Y-140429556D01*
X134885504Y-140450000D01*
X134964496Y-140450000D01*
X135040796Y-140429556D01*
X135109205Y-140390060D01*
X135165060Y-140334205D01*
X135175000Y-140316988D01*
X135175000Y-141068881D01*
X135202103Y-141063491D01*
X135202110Y-141063489D01*
X135374987Y-140991882D01*
X135375000Y-140991875D01*
X135530589Y-140887913D01*
X135530593Y-140887910D01*
X135662910Y-140755593D01*
X135662913Y-140755589D01*
X135766875Y-140600000D01*
X135766882Y-140599987D01*
X135831396Y-140444235D01*
X135875236Y-140389831D01*
X135941530Y-140367766D01*
X136009230Y-140385045D01*
X136014848Y-140388585D01*
X136120814Y-140459390D01*
X136120827Y-140459397D01*
X136215140Y-140498462D01*
X136266503Y-140519737D01*
X136421153Y-140550499D01*
X136421156Y-140550500D01*
X136421158Y-140550500D01*
X136578844Y-140550500D01*
X136578845Y-140550499D01*
X136733497Y-140519737D01*
X136879179Y-140459394D01*
X136947926Y-140413459D01*
X137010875Y-140371398D01*
X137077553Y-140350520D01*
X137079766Y-140350500D01*
X137428331Y-140350500D01*
X137428347Y-140350501D01*
X137435943Y-140350501D01*
X137594054Y-140350501D01*
X137594057Y-140350501D01*
X137746785Y-140309577D01*
X137796904Y-140280639D01*
X137883716Y-140230520D01*
X137995520Y-140118716D01*
X137995520Y-140118714D01*
X138005728Y-140108507D01*
X138005729Y-140108504D01*
X138857806Y-139256428D01*
X142625000Y-139256428D01*
X142625000Y-139500000D01*
X143275000Y-139500000D01*
X143275000Y-140000000D01*
X142625000Y-140000000D01*
X142625000Y-140243571D01*
X142661506Y-140427097D01*
X142661508Y-140427105D01*
X142733119Y-140599991D01*
X142733124Y-140600000D01*
X142837086Y-140755589D01*
X142837089Y-140755593D01*
X142969406Y-140887910D01*
X142969410Y-140887913D01*
X143124999Y-140991875D01*
X143125012Y-140991882D01*
X143297889Y-141063489D01*
X143297896Y-141063491D01*
X143325000Y-141068882D01*
X143325000Y-140316988D01*
X143334940Y-140334205D01*
X143390795Y-140390060D01*
X143459204Y-140429556D01*
X143535504Y-140450000D01*
X143614496Y-140450000D01*
X143690796Y-140429556D01*
X143759205Y-140390060D01*
X143815060Y-140334205D01*
X143825000Y-140316988D01*
X143825000Y-141068881D01*
X143852103Y-141063491D01*
X143852110Y-141063489D01*
X144024987Y-140991882D01*
X144025000Y-140991875D01*
X144180589Y-140887913D01*
X144180593Y-140887910D01*
X144312910Y-140755593D01*
X144312913Y-140755589D01*
X144416875Y-140600000D01*
X144416880Y-140599991D01*
X144488491Y-140427105D01*
X144488493Y-140427097D01*
X144524999Y-140243571D01*
X144525000Y-140243569D01*
X144525000Y-140000000D01*
X143875000Y-140000000D01*
X143875000Y-139500000D01*
X144525000Y-139500000D01*
X144525000Y-139256430D01*
X144524999Y-139256428D01*
X144488493Y-139072902D01*
X144488491Y-139072894D01*
X144416880Y-138900008D01*
X144416875Y-138899999D01*
X144380745Y-138845927D01*
X144337965Y-138781902D01*
X162899500Y-138781902D01*
X162899500Y-139018097D01*
X162936446Y-139251368D01*
X163009433Y-139475996D01*
X163075336Y-139605336D01*
X163116657Y-139686433D01*
X163255483Y-139877510D01*
X163422490Y-140044517D01*
X163613567Y-140183343D01*
X163687783Y-140221158D01*
X163824003Y-140290566D01*
X163824005Y-140290566D01*
X163824008Y-140290568D01*
X163921115Y-140322120D01*
X164048631Y-140363553D01*
X164281903Y-140400500D01*
X164281908Y-140400500D01*
X164518097Y-140400500D01*
X164751368Y-140363553D01*
X164791479Y-140350520D01*
X164975992Y-140290568D01*
X165186433Y-140183343D01*
X165377510Y-140044517D01*
X165544517Y-139877510D01*
X165683343Y-139686433D01*
X165790568Y-139475992D01*
X165863553Y-139251368D01*
X165865399Y-139239711D01*
X165900500Y-139018097D01*
X165900500Y-138781902D01*
X165863553Y-138548631D01*
X165814815Y-138398632D01*
X165790568Y-138324008D01*
X165790566Y-138324005D01*
X165790566Y-138324003D01*
X165714139Y-138174008D01*
X165683343Y-138113567D01*
X165544517Y-137922490D01*
X165377510Y-137755483D01*
X165186433Y-137616657D01*
X165157312Y-137601819D01*
X164975996Y-137509433D01*
X164751368Y-137436446D01*
X164518097Y-137399500D01*
X164518092Y-137399500D01*
X164281908Y-137399500D01*
X164281903Y-137399500D01*
X164048631Y-137436446D01*
X163824003Y-137509433D01*
X163613566Y-137616657D01*
X163532460Y-137675585D01*
X163422490Y-137755483D01*
X163422488Y-137755485D01*
X163422487Y-137755485D01*
X163255485Y-137922487D01*
X163255485Y-137922488D01*
X163255483Y-137922490D01*
X163225639Y-137963567D01*
X163116657Y-138113566D01*
X163009433Y-138324003D01*
X162936446Y-138548631D01*
X162899500Y-138781902D01*
X144337965Y-138781902D01*
X144312913Y-138744410D01*
X144312910Y-138744406D01*
X144180593Y-138612089D01*
X144180589Y-138612086D01*
X144025000Y-138508124D01*
X144024991Y-138508119D01*
X143852103Y-138436507D01*
X143852100Y-138436506D01*
X143825000Y-138431115D01*
X143825000Y-139183011D01*
X143815060Y-139165795D01*
X143759205Y-139109940D01*
X143690796Y-139070444D01*
X143614496Y-139050000D01*
X143535504Y-139050000D01*
X143459204Y-139070444D01*
X143390795Y-139109940D01*
X143334940Y-139165795D01*
X143325000Y-139183011D01*
X143325000Y-138431116D01*
X143324999Y-138431115D01*
X143297899Y-138436506D01*
X143297896Y-138436507D01*
X143125008Y-138508119D01*
X143124999Y-138508124D01*
X142969410Y-138612086D01*
X142969406Y-138612089D01*
X142837089Y-138744406D01*
X142837086Y-138744410D01*
X142733124Y-138899999D01*
X142733119Y-138900008D01*
X142661508Y-139072894D01*
X142661506Y-139072902D01*
X142625000Y-139256428D01*
X138857806Y-139256428D01*
X140512416Y-137601819D01*
X140573739Y-137568334D01*
X140600097Y-137565500D01*
X140606307Y-137565500D01*
X140717206Y-137543440D01*
X140765789Y-137533776D01*
X140902547Y-137477128D01*
X140972017Y-137469660D01*
X140997452Y-137477128D01*
X141134211Y-137533776D01*
X141134215Y-137533776D01*
X141134216Y-137533777D01*
X141293692Y-137565500D01*
X141293695Y-137565500D01*
X141456307Y-137565500D01*
X141567206Y-137543440D01*
X141615789Y-137533776D01*
X141753199Y-137476858D01*
X141822669Y-137469390D01*
X141848105Y-137476859D01*
X141984355Y-137533295D01*
X141984363Y-137533297D01*
X142143740Y-137564999D01*
X142143744Y-137565000D01*
X142306256Y-137565000D01*
X142306259Y-137564999D01*
X142465636Y-137533297D01*
X142465640Y-137533296D01*
X142566412Y-137491555D01*
X142635882Y-137484086D01*
X142698361Y-137515360D01*
X142728426Y-137558661D01*
X142733118Y-137569988D01*
X142733124Y-137570000D01*
X142837086Y-137725589D01*
X142837089Y-137725593D01*
X142969406Y-137857910D01*
X142969410Y-137857913D01*
X143124999Y-137961875D01*
X143125012Y-137961882D01*
X143297889Y-138033489D01*
X143297896Y-138033491D01*
X143325000Y-138038882D01*
X143325000Y-137286988D01*
X143334940Y-137304205D01*
X143390795Y-137360060D01*
X143459204Y-137399556D01*
X143535504Y-137420000D01*
X143614496Y-137420000D01*
X143690796Y-137399556D01*
X143759205Y-137360060D01*
X143815060Y-137304205D01*
X143825000Y-137286988D01*
X143825000Y-138038881D01*
X143852103Y-138033491D01*
X143852110Y-138033489D01*
X144024987Y-137961882D01*
X144025000Y-137961875D01*
X144180589Y-137857913D01*
X144180593Y-137857910D01*
X144312910Y-137725593D01*
X144312913Y-137725589D01*
X144416875Y-137570000D01*
X144416880Y-137569991D01*
X144488491Y-137397105D01*
X144488493Y-137397097D01*
X144524999Y-137213571D01*
X144525000Y-137213569D01*
X144525000Y-136620000D01*
X143875000Y-136620000D01*
X143875000Y-136120000D01*
X144525000Y-136120000D01*
X144525000Y-135526430D01*
X144524999Y-135526428D01*
X144488493Y-135342902D01*
X144488491Y-135342894D01*
X144455199Y-135262519D01*
X144455198Y-135262517D01*
X144438065Y-135221153D01*
X147399500Y-135221153D01*
X147399500Y-135378846D01*
X147430261Y-135533489D01*
X147430264Y-135533501D01*
X147490602Y-135679172D01*
X147490609Y-135679185D01*
X147578210Y-135810288D01*
X147578213Y-135810292D01*
X147689707Y-135921786D01*
X147689711Y-135921789D01*
X147820814Y-136009390D01*
X147820827Y-136009397D01*
X147955064Y-136064999D01*
X147966503Y-136069737D01*
X148112571Y-136098792D01*
X148121153Y-136100499D01*
X148121156Y-136100500D01*
X148121158Y-136100500D01*
X148278844Y-136100500D01*
X148278845Y-136100499D01*
X148433497Y-136069737D01*
X148557784Y-136018256D01*
X148579172Y-136009397D01*
X148579172Y-136009396D01*
X148579179Y-136009394D01*
X148710289Y-135921789D01*
X148821789Y-135810289D01*
X148909394Y-135679179D01*
X148969737Y-135533497D01*
X149000500Y-135378842D01*
X149000500Y-135221158D01*
X149000500Y-135221155D01*
X149000499Y-135221153D01*
X149000303Y-135220168D01*
X158389500Y-135220168D01*
X158389500Y-135379831D01*
X158420645Y-135536406D01*
X158420648Y-135536418D01*
X158481742Y-135683914D01*
X158481744Y-135683918D01*
X158570439Y-135816659D01*
X158570445Y-135816667D01*
X158683332Y-135929554D01*
X158683340Y-135929560D01*
X158816081Y-136018255D01*
X158816085Y-136018257D01*
X158940373Y-136069738D01*
X158963586Y-136079353D01*
X159120168Y-136110499D01*
X159120172Y-136110500D01*
X159120173Y-136110500D01*
X159279828Y-136110500D01*
X159279829Y-136110499D01*
X159436414Y-136079353D01*
X159583916Y-136018256D01*
X159583918Y-136018255D01*
X159713241Y-135931844D01*
X159716664Y-135929557D01*
X159829557Y-135816664D01*
X159918256Y-135683916D01*
X159926716Y-135663493D01*
X159979351Y-135536418D01*
X159979353Y-135536414D01*
X160010500Y-135379827D01*
X160010500Y-135220173D01*
X159979353Y-135063586D01*
X159958982Y-135014406D01*
X159918257Y-134916085D01*
X159918255Y-134916081D01*
X159829560Y-134783340D01*
X159829554Y-134783332D01*
X159716667Y-134670445D01*
X159716659Y-134670439D01*
X159583918Y-134581744D01*
X159583914Y-134581742D01*
X159436418Y-134520648D01*
X159436406Y-134520645D01*
X159279831Y-134489500D01*
X159279827Y-134489500D01*
X159120173Y-134489500D01*
X159120168Y-134489500D01*
X158963593Y-134520645D01*
X158963581Y-134520648D01*
X158816085Y-134581742D01*
X158816081Y-134581744D01*
X158683340Y-134670439D01*
X158683332Y-134670445D01*
X158570445Y-134783332D01*
X158570439Y-134783340D01*
X158481744Y-134916081D01*
X158481742Y-134916085D01*
X158420648Y-135063581D01*
X158420645Y-135063593D01*
X158389500Y-135220168D01*
X149000303Y-135220168D01*
X148990326Y-135170012D01*
X148969737Y-135066503D01*
X148948158Y-135014406D01*
X148909397Y-134920827D01*
X148909390Y-134920814D01*
X148821789Y-134789711D01*
X148821786Y-134789707D01*
X148710292Y-134678213D01*
X148710288Y-134678210D01*
X148579185Y-134590609D01*
X148579172Y-134590602D01*
X148433501Y-134530264D01*
X148433489Y-134530261D01*
X148278845Y-134499500D01*
X148278842Y-134499500D01*
X148121158Y-134499500D01*
X148121155Y-134499500D01*
X147966510Y-134530261D01*
X147966498Y-134530264D01*
X147820827Y-134590602D01*
X147820814Y-134590609D01*
X147689711Y-134678210D01*
X147689707Y-134678213D01*
X147578213Y-134789707D01*
X147578210Y-134789711D01*
X147490609Y-134920814D01*
X147490602Y-134920827D01*
X147430264Y-135066498D01*
X147430261Y-135066510D01*
X147399500Y-135221153D01*
X144438065Y-135221153D01*
X144416882Y-135170012D01*
X144416875Y-135169999D01*
X144312913Y-135014410D01*
X144312910Y-135014406D01*
X144180593Y-134882089D01*
X144180589Y-134882086D01*
X144025000Y-134778124D01*
X144024991Y-134778119D01*
X143852103Y-134706507D01*
X143852100Y-134706506D01*
X143825000Y-134701115D01*
X143825000Y-135453011D01*
X143815060Y-135435795D01*
X143759205Y-135379940D01*
X143690796Y-135340444D01*
X143614496Y-135320000D01*
X143535504Y-135320000D01*
X143459204Y-135340444D01*
X143390795Y-135379940D01*
X143334940Y-135435795D01*
X143325000Y-135453011D01*
X143325000Y-134701116D01*
X143324999Y-134701115D01*
X143297899Y-134706506D01*
X143297896Y-134706507D01*
X143125008Y-134778119D01*
X143124999Y-134778124D01*
X143028307Y-134842732D01*
X143022559Y-134901098D01*
X143020311Y-134900876D01*
X143017884Y-134934824D01*
X142989383Y-134979171D01*
X142578554Y-135390000D01*
X142989383Y-135800829D01*
X143022868Y-135862152D01*
X143017884Y-135931844D01*
X142989383Y-135976191D01*
X142900574Y-136065000D01*
X142989383Y-136153809D01*
X143022868Y-136215132D01*
X143017884Y-136284824D01*
X142989383Y-136329171D01*
X142489458Y-136829096D01*
X142481512Y-136833434D01*
X142476087Y-136840682D01*
X142451327Y-136849916D01*
X142428135Y-136862581D01*
X142419105Y-136861935D01*
X142410623Y-136865099D01*
X142387725Y-136860117D01*
X142394552Y-136853291D01*
X142425000Y-136779782D01*
X142425000Y-136700218D01*
X142394552Y-136626709D01*
X142338291Y-136570448D01*
X142264782Y-136540000D01*
X142185218Y-136540000D01*
X142177523Y-136543186D01*
X142172326Y-136517056D01*
X142178553Y-136447464D01*
X142206262Y-136405183D01*
X142546445Y-136064999D01*
X142206262Y-135724816D01*
X142172777Y-135663493D01*
X142172326Y-135612943D01*
X142177523Y-135586812D01*
X142185218Y-135590000D01*
X142264782Y-135590000D01*
X142338291Y-135559552D01*
X142394552Y-135503291D01*
X142425000Y-135429782D01*
X142425000Y-135350218D01*
X142394552Y-135276709D01*
X142338291Y-135220448D01*
X142264782Y-135190000D01*
X142185218Y-135190000D01*
X142177523Y-135193186D01*
X142172326Y-135167056D01*
X142178553Y-135097464D01*
X142206262Y-135055183D01*
X142606427Y-134655018D01*
X142465644Y-134596704D01*
X142465636Y-134596702D01*
X142306259Y-134565000D01*
X142143740Y-134565000D01*
X141984363Y-134596702D01*
X141984351Y-134596705D01*
X141848104Y-134653140D01*
X141778635Y-134660609D01*
X141753200Y-134653140D01*
X141615793Y-134596225D01*
X141615783Y-134596222D01*
X141456307Y-134564500D01*
X141456305Y-134564500D01*
X141293695Y-134564500D01*
X141293693Y-134564500D01*
X141134216Y-134596222D01*
X141134210Y-134596224D01*
X140997453Y-134652871D01*
X140927983Y-134660340D01*
X140902547Y-134652871D01*
X140776300Y-134600578D01*
X140765789Y-134596224D01*
X140765783Y-134596222D01*
X140606307Y-134564500D01*
X140606305Y-134564500D01*
X140443695Y-134564500D01*
X140443693Y-134564500D01*
X140284216Y-134596222D01*
X140284210Y-134596224D01*
X140147453Y-134652871D01*
X140077983Y-134660340D01*
X140052547Y-134652871D01*
X139926300Y-134600578D01*
X139915789Y-134596224D01*
X139915783Y-134596222D01*
X139756307Y-134564500D01*
X139756305Y-134564500D01*
X139593695Y-134564500D01*
X139593693Y-134564500D01*
X139434216Y-134596222D01*
X139434210Y-134596224D01*
X139297453Y-134652871D01*
X139227983Y-134660340D01*
X139202547Y-134652871D01*
X139076300Y-134600578D01*
X139065789Y-134596224D01*
X139065783Y-134596222D01*
X138906307Y-134564500D01*
X138906305Y-134564500D01*
X138743695Y-134564500D01*
X138743693Y-134564500D01*
X138584216Y-134596222D01*
X138584210Y-134596224D01*
X138447453Y-134652871D01*
X138377983Y-134660340D01*
X138352547Y-134652871D01*
X138226300Y-134600578D01*
X138215789Y-134596224D01*
X138215783Y-134596222D01*
X138056307Y-134564500D01*
X138056305Y-134564500D01*
X137893695Y-134564500D01*
X137893693Y-134564500D01*
X137734216Y-134596222D01*
X137734210Y-134596224D01*
X137597453Y-134652871D01*
X137527983Y-134660340D01*
X137502547Y-134652871D01*
X137376300Y-134600578D01*
X137365789Y-134596224D01*
X137365783Y-134596222D01*
X137206307Y-134564500D01*
X137206305Y-134564500D01*
X137043695Y-134564500D01*
X137043693Y-134564500D01*
X136884216Y-134596222D01*
X136884206Y-134596225D01*
X136746800Y-134653140D01*
X136677330Y-134660609D01*
X136651896Y-134653140D01*
X136525000Y-134600578D01*
X136525000Y-134771204D01*
X136505315Y-134838243D01*
X136488681Y-134858885D01*
X136483794Y-134863771D01*
X136483788Y-134863779D01*
X136393452Y-134998976D01*
X136393450Y-134998980D01*
X136331225Y-135149206D01*
X136331222Y-135149216D01*
X136322475Y-135193186D01*
X136314782Y-135190000D01*
X136235218Y-135190000D01*
X136161709Y-135220448D01*
X136105448Y-135276709D01*
X136075000Y-135350218D01*
X136075000Y-135362281D01*
X136036206Y-135317511D01*
X136025000Y-135266000D01*
X136025000Y-134600579D01*
X136024999Y-134600579D01*
X135884218Y-134658892D01*
X135749093Y-134749180D01*
X135653859Y-134844414D01*
X135592535Y-134877898D01*
X135522844Y-134872914D01*
X135497287Y-134859834D01*
X135375000Y-134778124D01*
X135374991Y-134778119D01*
X135202103Y-134706507D01*
X135202100Y-134706506D01*
X135175000Y-134701115D01*
X135175000Y-135453011D01*
X135165060Y-135435795D01*
X135109205Y-135379940D01*
X135040796Y-135340444D01*
X134964496Y-135320000D01*
X134885504Y-135320000D01*
X134809204Y-135340444D01*
X134740795Y-135379940D01*
X134684940Y-135435795D01*
X134675000Y-135453011D01*
X134675000Y-134701116D01*
X134674999Y-134701115D01*
X134647899Y-134706506D01*
X134647896Y-134706507D01*
X134475008Y-134778119D01*
X134474999Y-134778124D01*
X134319410Y-134882086D01*
X134319406Y-134882089D01*
X134187089Y-135014406D01*
X134187086Y-135014410D01*
X134083124Y-135169999D01*
X134083119Y-135170008D01*
X134011508Y-135342894D01*
X134011506Y-135342902D01*
X133975000Y-135526428D01*
X125764000Y-135526428D01*
X125764000Y-132419440D01*
X125783685Y-132352401D01*
X125800315Y-132331762D01*
X125821789Y-132310289D01*
X125909394Y-132179179D01*
X125969737Y-132033497D01*
X126000500Y-131878842D01*
X126000500Y-131721158D01*
X126000500Y-131721155D01*
X126000499Y-131721153D01*
X125969737Y-131566503D01*
X125950955Y-131521158D01*
X125950953Y-131521153D01*
X137399500Y-131521153D01*
X137399500Y-131678846D01*
X137430261Y-131833489D01*
X137430264Y-131833501D01*
X137490602Y-131979172D01*
X137490609Y-131979185D01*
X137578210Y-132110288D01*
X137578213Y-132110292D01*
X137689707Y-132221786D01*
X137689711Y-132221789D01*
X137820814Y-132309390D01*
X137820827Y-132309397D01*
X137962498Y-132368078D01*
X137966503Y-132369737D01*
X138121153Y-132400499D01*
X138121156Y-132400500D01*
X138121158Y-132400500D01*
X138278844Y-132400500D01*
X138278845Y-132400499D01*
X138433497Y-132369737D01*
X138579179Y-132309394D01*
X138587928Y-132303547D01*
X138598628Y-132296399D01*
X138665305Y-132275520D01*
X138667520Y-132275500D01*
X139107480Y-132275500D01*
X139174519Y-132295185D01*
X139176372Y-132296399D01*
X139195813Y-132309389D01*
X139195815Y-132309390D01*
X139195821Y-132309394D01*
X139195823Y-132309395D01*
X139195827Y-132309397D01*
X139337498Y-132368078D01*
X139341503Y-132369737D01*
X139496153Y-132400499D01*
X139496156Y-132400500D01*
X139496158Y-132400500D01*
X139653844Y-132400500D01*
X139653845Y-132400499D01*
X139808497Y-132369737D01*
X139954179Y-132309394D01*
X140085289Y-132221789D01*
X140196789Y-132110289D01*
X140284394Y-131979179D01*
X140344737Y-131833497D01*
X140375500Y-131678842D01*
X140375500Y-131521158D01*
X140375500Y-131521155D01*
X140375499Y-131521153D01*
X140355543Y-131420827D01*
X140344737Y-131366503D01*
X140312929Y-131289711D01*
X140284397Y-131220827D01*
X140284390Y-131220814D01*
X140196789Y-131089711D01*
X140196786Y-131089707D01*
X140085292Y-130978213D01*
X140085288Y-130978210D01*
X139954185Y-130890609D01*
X139954172Y-130890602D01*
X139808501Y-130830264D01*
X139808489Y-130830261D01*
X139653845Y-130799500D01*
X139653842Y-130799500D01*
X139496158Y-130799500D01*
X139496155Y-130799500D01*
X139341510Y-130830261D01*
X139341498Y-130830264D01*
X139195827Y-130890602D01*
X139195813Y-130890610D01*
X139176372Y-130903601D01*
X139109695Y-130924480D01*
X139107480Y-130924500D01*
X138667520Y-130924500D01*
X138600481Y-130904815D01*
X138598628Y-130903601D01*
X138579186Y-130890610D01*
X138579172Y-130890602D01*
X138433501Y-130830264D01*
X138433489Y-130830261D01*
X138278845Y-130799500D01*
X138278842Y-130799500D01*
X138121158Y-130799500D01*
X138121155Y-130799500D01*
X137966510Y-130830261D01*
X137966498Y-130830264D01*
X137820827Y-130890602D01*
X137820814Y-130890609D01*
X137689711Y-130978210D01*
X137689707Y-130978213D01*
X137578213Y-131089707D01*
X137578210Y-131089711D01*
X137490609Y-131220814D01*
X137490602Y-131220827D01*
X137430264Y-131366498D01*
X137430261Y-131366510D01*
X137399500Y-131521153D01*
X125950953Y-131521153D01*
X125909397Y-131420827D01*
X125909390Y-131420814D01*
X125821789Y-131289711D01*
X125821786Y-131289707D01*
X125710292Y-131178213D01*
X125710288Y-131178210D01*
X125579185Y-131090609D01*
X125579172Y-131090602D01*
X125433501Y-131030264D01*
X125433489Y-131030261D01*
X125278845Y-130999500D01*
X125278842Y-130999500D01*
X125121158Y-130999500D01*
X125121155Y-130999500D01*
X124966510Y-131030261D01*
X124966498Y-131030264D01*
X124820827Y-131090602D01*
X124820814Y-131090609D01*
X124689711Y-131178210D01*
X124689707Y-131178213D01*
X124578213Y-131289707D01*
X124578210Y-131289711D01*
X124490609Y-131420814D01*
X124490602Y-131420827D01*
X124430264Y-131566498D01*
X124430261Y-131566510D01*
X124399500Y-131721153D01*
X115500500Y-131721153D01*
X115500500Y-128421153D01*
X134449500Y-128421153D01*
X134449500Y-128578846D01*
X134480261Y-128733489D01*
X134480264Y-128733501D01*
X134540602Y-128879172D01*
X134540609Y-128879185D01*
X134628210Y-129010288D01*
X134628213Y-129010292D01*
X134739707Y-129121786D01*
X134739711Y-129121789D01*
X134870814Y-129209390D01*
X134870827Y-129209397D01*
X135016498Y-129269735D01*
X135016503Y-129269737D01*
X135171153Y-129300499D01*
X135171156Y-129300500D01*
X135171158Y-129300500D01*
X135328844Y-129300500D01*
X135328845Y-129300499D01*
X135483497Y-129269737D01*
X135629179Y-129209394D01*
X135723459Y-129146398D01*
X135790136Y-129125520D01*
X135792350Y-129125500D01*
X140061607Y-129125500D01*
X140122029Y-129113481D01*
X140182452Y-129101463D01*
X140215792Y-129087652D01*
X140296286Y-129054312D01*
X140362169Y-129010289D01*
X140398733Y-128985858D01*
X140485858Y-128898733D01*
X140485859Y-128898731D01*
X140492925Y-128891665D01*
X140492928Y-128891661D01*
X140558797Y-128825791D01*
X140620118Y-128792308D01*
X140622128Y-128791889D01*
X140733497Y-128769737D01*
X140879179Y-128709394D01*
X141010289Y-128621789D01*
X141121789Y-128510289D01*
X141209394Y-128379179D01*
X141269737Y-128233497D01*
X141300500Y-128078842D01*
X141300500Y-127921158D01*
X141300500Y-127921155D01*
X141300499Y-127921153D01*
X141274531Y-127790606D01*
X141269737Y-127766503D01*
X141269735Y-127766498D01*
X141209397Y-127620827D01*
X141209390Y-127620814D01*
X141121789Y-127489711D01*
X141121786Y-127489707D01*
X141010292Y-127378213D01*
X141010288Y-127378210D01*
X140879185Y-127290609D01*
X140879172Y-127290602D01*
X140733501Y-127230264D01*
X140733489Y-127230261D01*
X140578845Y-127199500D01*
X140578842Y-127199500D01*
X140421158Y-127199500D01*
X140421155Y-127199500D01*
X140266510Y-127230261D01*
X140266498Y-127230264D01*
X140120827Y-127290602D01*
X140120814Y-127290609D01*
X139989711Y-127378210D01*
X139989707Y-127378213D01*
X139878213Y-127489707D01*
X139878210Y-127489711D01*
X139790609Y-127620814D01*
X139790602Y-127620827D01*
X139730263Y-127766501D01*
X139730263Y-127766502D01*
X139729799Y-127768831D01*
X139728634Y-127774691D01*
X139696250Y-127836601D01*
X139635535Y-127871176D01*
X139607017Y-127874500D01*
X135792350Y-127874500D01*
X135725311Y-127854815D01*
X135723459Y-127853602D01*
X135629184Y-127790609D01*
X135629172Y-127790602D01*
X135483501Y-127730264D01*
X135483489Y-127730261D01*
X135328845Y-127699500D01*
X135328842Y-127699500D01*
X135171158Y-127699500D01*
X135171155Y-127699500D01*
X135016510Y-127730261D01*
X135016498Y-127730264D01*
X134870827Y-127790602D01*
X134870814Y-127790609D01*
X134739711Y-127878210D01*
X134739707Y-127878213D01*
X134628213Y-127989707D01*
X134628210Y-127989711D01*
X134540609Y-128120814D01*
X134540602Y-128120827D01*
X134480264Y-128266498D01*
X134480261Y-128266510D01*
X134449500Y-128421153D01*
X115500500Y-128421153D01*
X115500500Y-113921153D01*
X124699500Y-113921153D01*
X124699500Y-114078846D01*
X124730261Y-114233489D01*
X124730264Y-114233501D01*
X124790602Y-114379172D01*
X124790609Y-114379185D01*
X124878210Y-114510288D01*
X124878213Y-114510292D01*
X124989707Y-114621786D01*
X124989711Y-114621789D01*
X125120814Y-114709390D01*
X125120827Y-114709397D01*
X125208230Y-114745599D01*
X125266503Y-114769737D01*
X125377716Y-114791858D01*
X125439623Y-114824241D01*
X125441203Y-114825793D01*
X128588181Y-117972771D01*
X128621666Y-118034094D01*
X128624500Y-118060452D01*
X128624500Y-120707650D01*
X128604815Y-120774689D01*
X128603626Y-120776503D01*
X128594204Y-120790606D01*
X128540609Y-120870815D01*
X128540602Y-120870828D01*
X128480264Y-121016498D01*
X128480261Y-121016510D01*
X128449500Y-121171153D01*
X128449500Y-121328846D01*
X128480261Y-121483489D01*
X128480264Y-121483501D01*
X128540602Y-121629172D01*
X128540609Y-121629185D01*
X128628210Y-121760288D01*
X128628213Y-121760292D01*
X128739707Y-121871786D01*
X128739711Y-121871789D01*
X128870814Y-121959390D01*
X128870827Y-121959397D01*
X129016498Y-122019735D01*
X129016503Y-122019737D01*
X129171153Y-122050499D01*
X129171156Y-122050500D01*
X129171158Y-122050500D01*
X129328844Y-122050500D01*
X129328845Y-122050499D01*
X129483497Y-122019737D01*
X129629179Y-121959394D01*
X129760289Y-121871789D01*
X129825115Y-121806962D01*
X129886436Y-121773479D01*
X129956128Y-121778463D01*
X130012062Y-121820334D01*
X130027356Y-121847191D01*
X130040606Y-121879179D01*
X130040609Y-121879185D01*
X130128210Y-122010288D01*
X130128213Y-122010292D01*
X130239707Y-122121786D01*
X130239711Y-122121789D01*
X130370814Y-122209390D01*
X130370827Y-122209397D01*
X130516498Y-122269735D01*
X130516503Y-122269737D01*
X130671153Y-122300499D01*
X130671156Y-122300500D01*
X130671158Y-122300500D01*
X130828844Y-122300500D01*
X130828845Y-122300499D01*
X130983497Y-122269737D01*
X131129179Y-122209394D01*
X131223459Y-122146398D01*
X131290136Y-122125520D01*
X131292350Y-122125500D01*
X141957650Y-122125500D01*
X142024689Y-122145185D01*
X142026541Y-122146398D01*
X142120821Y-122209394D01*
X142120823Y-122209395D01*
X142120827Y-122209397D01*
X142266498Y-122269735D01*
X142266503Y-122269737D01*
X142421153Y-122300499D01*
X142421156Y-122300500D01*
X142421158Y-122300500D01*
X142578844Y-122300500D01*
X142578845Y-122300499D01*
X142733497Y-122269737D01*
X142879179Y-122209394D01*
X142973459Y-122146398D01*
X142991505Y-122140747D01*
X143007415Y-122130523D01*
X143038374Y-122126071D01*
X143040136Y-122125520D01*
X143042350Y-122125500D01*
X143289548Y-122125500D01*
X143356587Y-122145185D01*
X143377229Y-122161819D01*
X149038181Y-127822771D01*
X149071666Y-127884094D01*
X149074500Y-127910452D01*
X149074500Y-131906942D01*
X149054815Y-131973981D01*
X149015598Y-132012479D01*
X148974011Y-132038131D01*
X148881342Y-132095289D01*
X148757289Y-132219342D01*
X148665187Y-132368663D01*
X148665185Y-132368668D01*
X148654637Y-132400500D01*
X148610001Y-132535203D01*
X148610001Y-132535204D01*
X148610000Y-132535204D01*
X148599500Y-132637983D01*
X148599500Y-133762001D01*
X148599501Y-133762018D01*
X148610000Y-133864796D01*
X148610001Y-133864799D01*
X148659853Y-134015241D01*
X148665186Y-134031334D01*
X148757288Y-134180656D01*
X148881344Y-134304712D01*
X149030666Y-134396814D01*
X149197203Y-134451999D01*
X149299991Y-134462500D01*
X150100008Y-134462499D01*
X150100016Y-134462498D01*
X150100019Y-134462498D01*
X150156302Y-134456748D01*
X150202797Y-134451999D01*
X150369334Y-134396814D01*
X150518656Y-134304712D01*
X150642712Y-134180656D01*
X150642715Y-134180650D01*
X150647193Y-134174989D01*
X150648523Y-134176041D01*
X150693794Y-134135305D01*
X150762754Y-134124068D01*
X150826843Y-134151898D01*
X150847726Y-134174228D01*
X150860586Y-134191928D01*
X150983072Y-134314414D01*
X151123212Y-134416232D01*
X151277555Y-134494873D01*
X151442299Y-134548402D01*
X151613389Y-134575500D01*
X151613390Y-134575500D01*
X151786610Y-134575500D01*
X151786611Y-134575500D01*
X151957701Y-134548402D01*
X152122445Y-134494873D01*
X152276788Y-134416232D01*
X152416928Y-134314414D01*
X152539414Y-134191928D01*
X152599682Y-134108975D01*
X152655012Y-134066311D01*
X152724626Y-134060332D01*
X152786421Y-134092938D01*
X152800315Y-134108973D01*
X152860586Y-134191928D01*
X152983072Y-134314414D01*
X153123212Y-134416232D01*
X153277555Y-134494873D01*
X153442299Y-134548402D01*
X153613389Y-134575500D01*
X153613390Y-134575500D01*
X153786610Y-134575500D01*
X153786611Y-134575500D01*
X153957701Y-134548402D01*
X154122445Y-134494873D01*
X154276788Y-134416232D01*
X154416928Y-134314414D01*
X154539414Y-134191928D01*
X154599682Y-134108975D01*
X154655012Y-134066311D01*
X154724626Y-134060332D01*
X154786421Y-134092938D01*
X154800315Y-134108973D01*
X154860586Y-134191928D01*
X154983072Y-134314414D01*
X155123212Y-134416232D01*
X155277555Y-134494873D01*
X155442299Y-134548402D01*
X155613389Y-134575500D01*
X155613390Y-134575500D01*
X155786610Y-134575500D01*
X155786611Y-134575500D01*
X155957701Y-134548402D01*
X156122445Y-134494873D01*
X156276788Y-134416232D01*
X156416928Y-134314414D01*
X156539414Y-134191928D01*
X156599991Y-134108550D01*
X156655321Y-134065885D01*
X156724934Y-134059906D01*
X156786729Y-134092512D01*
X156800628Y-134108551D01*
X156860967Y-134191602D01*
X156983397Y-134314032D01*
X157123475Y-134415804D01*
X157277744Y-134494408D01*
X157442415Y-134547914D01*
X157442414Y-134547914D01*
X157449999Y-134549115D01*
X157450000Y-134549114D01*
X157450000Y-133480330D01*
X157469745Y-133500075D01*
X157555255Y-133549444D01*
X157650630Y-133575000D01*
X157749370Y-133575000D01*
X157844745Y-133549444D01*
X157930255Y-133500075D01*
X157950000Y-133480330D01*
X157950000Y-134549115D01*
X157957584Y-134547914D01*
X158122255Y-134494408D01*
X158276524Y-134415804D01*
X158416602Y-134314032D01*
X158539032Y-134191602D01*
X158640804Y-134051524D01*
X158719408Y-133897257D01*
X158772914Y-133732584D01*
X158800000Y-133561571D01*
X158800000Y-133450000D01*
X157980330Y-133450000D01*
X158000075Y-133430255D01*
X158049444Y-133344745D01*
X158075000Y-133249370D01*
X158075000Y-133150630D01*
X158049444Y-133055255D01*
X158000075Y-132969745D01*
X157980330Y-132950000D01*
X158800000Y-132950000D01*
X158800000Y-132838428D01*
X158772914Y-132667415D01*
X158719408Y-132502742D01*
X158640804Y-132348475D01*
X158539032Y-132208397D01*
X158416602Y-132085967D01*
X158276524Y-131984195D01*
X158122257Y-131905591D01*
X157957589Y-131852087D01*
X157957581Y-131852085D01*
X157950000Y-131850884D01*
X157950000Y-132919670D01*
X157930255Y-132899925D01*
X157844745Y-132850556D01*
X157749370Y-132825000D01*
X157650630Y-132825000D01*
X157555255Y-132850556D01*
X157469745Y-132899925D01*
X157450000Y-132919670D01*
X157450000Y-131850884D01*
X157449999Y-131850884D01*
X157442418Y-131852085D01*
X157442410Y-131852087D01*
X157277742Y-131905591D01*
X157123475Y-131984195D01*
X156983397Y-132085967D01*
X156860965Y-132208399D01*
X156860961Y-132208404D01*
X156800627Y-132291448D01*
X156745297Y-132334114D01*
X156675684Y-132340093D01*
X156613889Y-132307488D01*
X156599991Y-132291449D01*
X156599990Y-132291448D01*
X156539414Y-132208072D01*
X156416928Y-132085586D01*
X156276788Y-131983768D01*
X156122445Y-131905127D01*
X155957701Y-131851598D01*
X155957699Y-131851597D01*
X155957698Y-131851597D01*
X155826271Y-131830781D01*
X155786611Y-131824500D01*
X155613389Y-131824500D01*
X155573728Y-131830781D01*
X155442302Y-131851597D01*
X155277552Y-131905128D01*
X155123211Y-131983768D01*
X155048388Y-132038131D01*
X154983072Y-132085586D01*
X154983070Y-132085588D01*
X154983069Y-132085588D01*
X154860588Y-132208069D01*
X154860581Y-132208078D01*
X154800317Y-132291023D01*
X154744987Y-132333689D01*
X154675374Y-132339667D01*
X154613579Y-132307061D01*
X154599683Y-132291023D01*
X154549378Y-132221786D01*
X154539414Y-132208072D01*
X154416928Y-132085586D01*
X154351613Y-132038131D01*
X154308948Y-131982801D01*
X154300500Y-131937814D01*
X154300500Y-125589059D01*
X154300501Y-125589046D01*
X154300501Y-125420945D01*
X154300501Y-125420943D01*
X154259577Y-125268215D01*
X154230639Y-125218095D01*
X154180520Y-125131284D01*
X154068716Y-125019480D01*
X154068715Y-125019479D01*
X154064385Y-125015149D01*
X154064374Y-125015139D01*
X145034574Y-115985339D01*
X145001089Y-115924016D01*
X145000638Y-115921849D01*
X144969738Y-115766510D01*
X144969737Y-115766503D01*
X144969735Y-115766498D01*
X144909397Y-115620827D01*
X144909390Y-115620814D01*
X144821789Y-115489711D01*
X144821786Y-115489707D01*
X144710292Y-115378213D01*
X144710288Y-115378210D01*
X144579185Y-115290609D01*
X144579172Y-115290602D01*
X144433501Y-115230264D01*
X144433489Y-115230261D01*
X144278845Y-115199500D01*
X144278842Y-115199500D01*
X144121158Y-115199500D01*
X144121155Y-115199500D01*
X143966510Y-115230261D01*
X143966498Y-115230264D01*
X143820827Y-115290602D01*
X143820814Y-115290609D01*
X143689711Y-115378210D01*
X143689707Y-115378213D01*
X143578213Y-115489707D01*
X143578210Y-115489711D01*
X143490609Y-115620814D01*
X143490602Y-115620827D01*
X143430264Y-115766498D01*
X143430261Y-115766510D01*
X143399500Y-115921153D01*
X143399500Y-116078846D01*
X143430261Y-116233489D01*
X143430264Y-116233501D01*
X143490602Y-116379172D01*
X143490609Y-116379185D01*
X143578210Y-116510288D01*
X143578213Y-116510292D01*
X143689707Y-116621786D01*
X143689711Y-116621789D01*
X143820814Y-116709390D01*
X143820827Y-116709397D01*
X143966498Y-116769735D01*
X143966503Y-116769737D01*
X144031147Y-116782595D01*
X144121849Y-116800638D01*
X144183760Y-116833023D01*
X144185339Y-116834574D01*
X153063181Y-125712416D01*
X153096666Y-125773739D01*
X153099500Y-125800097D01*
X153099500Y-131937814D01*
X153079815Y-132004853D01*
X153048387Y-132038131D01*
X152983072Y-132085585D01*
X152860588Y-132208069D01*
X152860581Y-132208078D01*
X152800317Y-132291023D01*
X152744987Y-132333689D01*
X152675374Y-132339667D01*
X152613579Y-132307061D01*
X152599683Y-132291023D01*
X152549378Y-132221786D01*
X152539414Y-132208072D01*
X152416928Y-132085586D01*
X152351613Y-132038131D01*
X152308948Y-131982801D01*
X152300500Y-131937814D01*
X152300500Y-128120946D01*
X152300500Y-128120943D01*
X152300468Y-128120821D01*
X152259577Y-127968215D01*
X152219348Y-127898537D01*
X152196574Y-127859090D01*
X152180521Y-127831285D01*
X152064385Y-127715149D01*
X152064374Y-127715139D01*
X135825080Y-111475845D01*
X138187706Y-111475845D01*
X138316652Y-111529257D01*
X138316656Y-111529258D01*
X138471202Y-111559999D01*
X138471206Y-111560000D01*
X138628794Y-111560000D01*
X138628797Y-111559999D01*
X138783343Y-111529258D01*
X138783347Y-111529257D01*
X138912293Y-111475845D01*
X139587706Y-111475845D01*
X139716652Y-111529257D01*
X139716656Y-111529258D01*
X139871202Y-111559999D01*
X139871206Y-111560000D01*
X140028794Y-111560000D01*
X140028797Y-111559999D01*
X140183343Y-111529258D01*
X140183347Y-111529257D01*
X140312293Y-111475845D01*
X139950001Y-111113553D01*
X139950000Y-111113553D01*
X139587706Y-111475845D01*
X138912293Y-111475845D01*
X138550001Y-111113553D01*
X138550000Y-111113553D01*
X138187706Y-111475845D01*
X135825080Y-111475845D01*
X135136819Y-110787584D01*
X135130409Y-110775845D01*
X137487706Y-110775845D01*
X137616652Y-110829257D01*
X137616656Y-110829258D01*
X137672255Y-110840318D01*
X137734166Y-110872702D01*
X137768740Y-110933418D01*
X137769681Y-110937743D01*
X137780741Y-110993345D01*
X137780743Y-110993351D01*
X137834153Y-111122293D01*
X138196446Y-110760001D01*
X138196446Y-110759999D01*
X138176556Y-110740109D01*
X138450000Y-110740109D01*
X138450000Y-110779891D01*
X138465224Y-110816645D01*
X138493355Y-110844776D01*
X138530109Y-110860000D01*
X138569891Y-110860000D01*
X138606645Y-110844776D01*
X138634776Y-110816645D01*
X138650000Y-110779891D01*
X138650000Y-110760000D01*
X138903553Y-110760000D01*
X139250000Y-111106446D01*
X139250001Y-111106446D01*
X139596446Y-110760001D01*
X139596446Y-110759999D01*
X139576556Y-110740109D01*
X139850000Y-110740109D01*
X139850000Y-110779891D01*
X139865224Y-110816645D01*
X139893355Y-110844776D01*
X139930109Y-110860000D01*
X139969891Y-110860000D01*
X140006645Y-110844776D01*
X140034776Y-110816645D01*
X140050000Y-110779891D01*
X140050000Y-110760000D01*
X140303553Y-110760000D01*
X140665845Y-111122293D01*
X140719256Y-110993349D01*
X140719257Y-110993348D01*
X140730316Y-110937746D01*
X140762700Y-110875834D01*
X140823415Y-110841258D01*
X140827746Y-110840316D01*
X140883348Y-110829257D01*
X140883349Y-110829256D01*
X141012293Y-110775845D01*
X140650000Y-110413553D01*
X140303553Y-110760000D01*
X140050000Y-110760000D01*
X140050000Y-110740109D01*
X140034776Y-110703355D01*
X140006645Y-110675224D01*
X139969891Y-110660000D01*
X139930109Y-110660000D01*
X139893355Y-110675224D01*
X139865224Y-110703355D01*
X139850000Y-110740109D01*
X139576556Y-110740109D01*
X139250000Y-110413553D01*
X138903553Y-110760000D01*
X138650000Y-110760000D01*
X138650000Y-110740109D01*
X138634776Y-110703355D01*
X138606645Y-110675224D01*
X138569891Y-110660000D01*
X138530109Y-110660000D01*
X138493355Y-110675224D01*
X138465224Y-110703355D01*
X138450000Y-110740109D01*
X138176556Y-110740109D01*
X138006417Y-110569970D01*
X137850001Y-110413553D01*
X137850000Y-110413553D01*
X137487706Y-110775845D01*
X135130409Y-110775845D01*
X135103334Y-110726261D01*
X135100500Y-110699903D01*
X135100500Y-109981202D01*
X137050000Y-109981202D01*
X137050000Y-110138797D01*
X137080741Y-110293343D01*
X137080743Y-110293351D01*
X137134153Y-110422293D01*
X137496446Y-110060000D01*
X137496446Y-110059999D01*
X137476556Y-110040109D01*
X137750000Y-110040109D01*
X137750000Y-110079891D01*
X137765224Y-110116645D01*
X137793355Y-110144776D01*
X137830109Y-110160000D01*
X137869891Y-110160000D01*
X137906645Y-110144776D01*
X137934776Y-110116645D01*
X137950000Y-110079891D01*
X137950000Y-110060000D01*
X138203553Y-110060000D01*
X138376776Y-110233223D01*
X138550000Y-110406446D01*
X138550001Y-110406446D01*
X138723223Y-110233223D01*
X138896446Y-110060000D01*
X138896446Y-110059999D01*
X138876556Y-110040109D01*
X139150000Y-110040109D01*
X139150000Y-110079891D01*
X139165224Y-110116645D01*
X139193355Y-110144776D01*
X139230109Y-110160000D01*
X139269891Y-110160000D01*
X139306645Y-110144776D01*
X139334776Y-110116645D01*
X139350000Y-110079891D01*
X139350000Y-110060000D01*
X139603553Y-110060000D01*
X139776776Y-110233223D01*
X139950000Y-110406446D01*
X139950001Y-110406446D01*
X140123223Y-110233223D01*
X140296446Y-110060000D01*
X140296446Y-110059999D01*
X140276556Y-110040109D01*
X140550000Y-110040109D01*
X140550000Y-110079891D01*
X140565224Y-110116645D01*
X140593355Y-110144776D01*
X140630109Y-110160000D01*
X140669891Y-110160000D01*
X140706645Y-110144776D01*
X140734776Y-110116645D01*
X140750000Y-110079891D01*
X140750000Y-110059999D01*
X141003553Y-110059999D01*
X141003553Y-110060001D01*
X141365845Y-110422293D01*
X141419257Y-110293347D01*
X141419258Y-110293343D01*
X141449999Y-110138797D01*
X141450000Y-110138794D01*
X141450000Y-109981206D01*
X141449999Y-109981202D01*
X141419258Y-109826656D01*
X141419257Y-109826652D01*
X141365845Y-109697706D01*
X141003553Y-110059999D01*
X140750000Y-110059999D01*
X140750000Y-110040109D01*
X140734776Y-110003355D01*
X140706645Y-109975224D01*
X140669891Y-109960000D01*
X140630109Y-109960000D01*
X140593355Y-109975224D01*
X140565224Y-110003355D01*
X140550000Y-110040109D01*
X140276556Y-110040109D01*
X139950000Y-109713553D01*
X139603553Y-110060000D01*
X139350000Y-110060000D01*
X139350000Y-110040109D01*
X139334776Y-110003355D01*
X139306645Y-109975224D01*
X139269891Y-109960000D01*
X139230109Y-109960000D01*
X139193355Y-109975224D01*
X139165224Y-110003355D01*
X139150000Y-110040109D01*
X138876556Y-110040109D01*
X138550000Y-109713553D01*
X138203553Y-110060000D01*
X137950000Y-110060000D01*
X137950000Y-110040109D01*
X137934776Y-110003355D01*
X137906645Y-109975224D01*
X137869891Y-109960000D01*
X137830109Y-109960000D01*
X137793355Y-109975224D01*
X137765224Y-110003355D01*
X137750000Y-110040109D01*
X137476556Y-110040109D01*
X137134153Y-109697705D01*
X137080743Y-109826648D01*
X137080741Y-109826656D01*
X137050000Y-109981202D01*
X135100500Y-109981202D01*
X135100500Y-109360000D01*
X137503553Y-109360000D01*
X137850000Y-109706446D01*
X137850001Y-109706446D01*
X138023223Y-109533223D01*
X138196446Y-109360000D01*
X138196446Y-109359999D01*
X138166610Y-109330163D01*
X138400000Y-109330163D01*
X138400000Y-109389837D01*
X138422836Y-109444968D01*
X138465032Y-109487164D01*
X138520163Y-109510000D01*
X138579837Y-109510000D01*
X138634968Y-109487164D01*
X138677164Y-109444968D01*
X138700000Y-109389837D01*
X138700000Y-109360000D01*
X138903553Y-109360000D01*
X139076776Y-109533223D01*
X139250000Y-109706446D01*
X139250001Y-109706446D01*
X139423223Y-109533223D01*
X139596446Y-109360000D01*
X139596446Y-109359999D01*
X139576556Y-109340109D01*
X139850000Y-109340109D01*
X139850000Y-109379891D01*
X139865224Y-109416645D01*
X139893355Y-109444776D01*
X139930109Y-109460000D01*
X139969891Y-109460000D01*
X140006645Y-109444776D01*
X140034776Y-109416645D01*
X140050000Y-109379891D01*
X140050000Y-109360000D01*
X140303553Y-109360000D01*
X140476776Y-109533223D01*
X140650000Y-109706446D01*
X140650001Y-109706446D01*
X140996446Y-109360000D01*
X140996446Y-109359999D01*
X140650001Y-109013553D01*
X140650000Y-109013553D01*
X140303553Y-109360000D01*
X140050000Y-109360000D01*
X140050000Y-109340109D01*
X140034776Y-109303355D01*
X140006645Y-109275224D01*
X139969891Y-109260000D01*
X139930109Y-109260000D01*
X139893355Y-109275224D01*
X139865224Y-109303355D01*
X139850000Y-109340109D01*
X139576556Y-109340109D01*
X139250000Y-109013553D01*
X138903553Y-109360000D01*
X138700000Y-109360000D01*
X138700000Y-109330163D01*
X138677164Y-109275032D01*
X138634968Y-109232836D01*
X138579837Y-109210000D01*
X138520163Y-109210000D01*
X138465032Y-109232836D01*
X138422836Y-109275032D01*
X138400000Y-109330163D01*
X138166610Y-109330163D01*
X137850000Y-109013553D01*
X137503553Y-109360000D01*
X135100500Y-109360000D01*
X135100500Y-108581202D01*
X137050000Y-108581202D01*
X137050000Y-108738797D01*
X137080741Y-108893343D01*
X137080743Y-108893351D01*
X137134153Y-109022293D01*
X137496446Y-108660000D01*
X137496446Y-108659999D01*
X137466610Y-108630163D01*
X137700000Y-108630163D01*
X137700000Y-108689837D01*
X137722836Y-108744968D01*
X137765032Y-108787164D01*
X137820163Y-108810000D01*
X137879837Y-108810000D01*
X137934968Y-108787164D01*
X137977164Y-108744968D01*
X138000000Y-108689837D01*
X138000000Y-108660000D01*
X138203553Y-108660000D01*
X138376776Y-108833223D01*
X138550000Y-109006446D01*
X138550001Y-109006446D01*
X138723223Y-108833223D01*
X138896446Y-108660000D01*
X138896446Y-108659999D01*
X138876556Y-108640109D01*
X139150000Y-108640109D01*
X139150000Y-108679891D01*
X139165224Y-108716645D01*
X139193355Y-108744776D01*
X139230109Y-108760000D01*
X139269891Y-108760000D01*
X139306645Y-108744776D01*
X139334776Y-108716645D01*
X139350000Y-108679891D01*
X139350000Y-108660000D01*
X139603553Y-108660000D01*
X139776776Y-108833223D01*
X139950000Y-109006446D01*
X139950001Y-109006446D01*
X140123223Y-108833223D01*
X140296446Y-108660000D01*
X140296446Y-108659999D01*
X140276556Y-108640109D01*
X140550000Y-108640109D01*
X140550000Y-108679891D01*
X140565224Y-108716645D01*
X140593355Y-108744776D01*
X140630109Y-108760000D01*
X140669891Y-108760000D01*
X140706645Y-108744776D01*
X140734776Y-108716645D01*
X140750000Y-108679891D01*
X140750000Y-108659999D01*
X141003553Y-108659999D01*
X141003553Y-108660001D01*
X141365845Y-109022293D01*
X141419257Y-108893347D01*
X141419258Y-108893343D01*
X141449999Y-108738797D01*
X141450000Y-108738794D01*
X141450000Y-108581206D01*
X141449999Y-108581202D01*
X141419258Y-108426656D01*
X141419257Y-108426652D01*
X141365845Y-108297706D01*
X141003553Y-108659999D01*
X140750000Y-108659999D01*
X140750000Y-108640109D01*
X140734776Y-108603355D01*
X140706645Y-108575224D01*
X140669891Y-108560000D01*
X140630109Y-108560000D01*
X140593355Y-108575224D01*
X140565224Y-108603355D01*
X140550000Y-108640109D01*
X140276556Y-108640109D01*
X139950000Y-108313553D01*
X139603553Y-108660000D01*
X139350000Y-108660000D01*
X139350000Y-108640109D01*
X139334776Y-108603355D01*
X139306645Y-108575224D01*
X139269891Y-108560000D01*
X139230109Y-108560000D01*
X139193355Y-108575224D01*
X139165224Y-108603355D01*
X139150000Y-108640109D01*
X138876556Y-108640109D01*
X138550000Y-108313553D01*
X138203553Y-108660000D01*
X138000000Y-108660000D01*
X138000000Y-108630163D01*
X137977164Y-108575032D01*
X137934968Y-108532836D01*
X137879837Y-108510000D01*
X137820163Y-108510000D01*
X137765032Y-108532836D01*
X137722836Y-108575032D01*
X137700000Y-108630163D01*
X137466610Y-108630163D01*
X137134153Y-108297705D01*
X137080743Y-108426648D01*
X137080741Y-108426656D01*
X137050000Y-108581202D01*
X135100500Y-108581202D01*
X135100500Y-107944153D01*
X137487705Y-107944153D01*
X137850000Y-108306446D01*
X137850001Y-108306446D01*
X138023223Y-108133223D01*
X138196446Y-107960000D01*
X138196446Y-107959999D01*
X138166610Y-107930163D01*
X138400000Y-107930163D01*
X138400000Y-107989837D01*
X138422836Y-108044968D01*
X138465032Y-108087164D01*
X138520163Y-108110000D01*
X138579837Y-108110000D01*
X138634968Y-108087164D01*
X138677164Y-108044968D01*
X138700000Y-107989837D01*
X138700000Y-107960000D01*
X138903553Y-107960000D01*
X139076776Y-108133223D01*
X139250000Y-108306446D01*
X139250001Y-108306446D01*
X139423223Y-108133223D01*
X139596446Y-107960000D01*
X139596446Y-107959999D01*
X139576556Y-107940109D01*
X139850000Y-107940109D01*
X139850000Y-107979891D01*
X139865224Y-108016645D01*
X139893355Y-108044776D01*
X139930109Y-108060000D01*
X139969891Y-108060000D01*
X140006645Y-108044776D01*
X140034776Y-108016645D01*
X140050000Y-107979891D01*
X140050000Y-107959999D01*
X140303553Y-107959999D01*
X140303553Y-107960000D01*
X140476776Y-108133223D01*
X140650000Y-108306446D01*
X140650001Y-108306446D01*
X141012293Y-107944153D01*
X140883351Y-107890743D01*
X140883345Y-107890741D01*
X140827743Y-107879681D01*
X140765832Y-107847296D01*
X140731258Y-107786580D01*
X140730318Y-107782255D01*
X140719258Y-107726656D01*
X140719257Y-107726652D01*
X140665845Y-107597706D01*
X140303553Y-107959999D01*
X140050000Y-107959999D01*
X140050000Y-107940109D01*
X140034776Y-107903355D01*
X140006645Y-107875224D01*
X139969891Y-107860000D01*
X139930109Y-107860000D01*
X139893355Y-107875224D01*
X139865224Y-107903355D01*
X139850000Y-107940109D01*
X139576556Y-107940109D01*
X139250001Y-107613553D01*
X139250000Y-107613553D01*
X138903553Y-107960000D01*
X138700000Y-107960000D01*
X138700000Y-107930163D01*
X138677164Y-107875032D01*
X138634968Y-107832836D01*
X138579837Y-107810000D01*
X138520163Y-107810000D01*
X138465032Y-107832836D01*
X138422836Y-107875032D01*
X138400000Y-107930163D01*
X138166610Y-107930163D01*
X137834153Y-107597705D01*
X137780743Y-107726648D01*
X137780741Y-107726653D01*
X137769681Y-107782257D01*
X137737295Y-107844167D01*
X137676579Y-107878741D01*
X137672257Y-107879681D01*
X137616653Y-107890741D01*
X137616648Y-107890743D01*
X137487705Y-107944153D01*
X135100500Y-107944153D01*
X135100500Y-107244153D01*
X138187705Y-107244153D01*
X138550000Y-107606446D01*
X138550001Y-107606446D01*
X138912293Y-107244153D01*
X139587705Y-107244153D01*
X139950000Y-107606446D01*
X139950001Y-107606446D01*
X140312293Y-107244153D01*
X140183351Y-107190743D01*
X140183343Y-107190741D01*
X140028797Y-107160000D01*
X139871202Y-107160000D01*
X139716656Y-107190741D01*
X139716648Y-107190743D01*
X139587705Y-107244153D01*
X138912293Y-107244153D01*
X138783351Y-107190743D01*
X138783343Y-107190741D01*
X138628797Y-107160000D01*
X138471202Y-107160000D01*
X138316656Y-107190741D01*
X138316648Y-107190743D01*
X138187705Y-107244153D01*
X135100500Y-107244153D01*
X135100500Y-106779765D01*
X135120185Y-106712726D01*
X135121398Y-106710874D01*
X135209390Y-106579185D01*
X135209390Y-106579184D01*
X135209394Y-106579179D01*
X135269737Y-106433497D01*
X135300500Y-106278842D01*
X135300500Y-106121158D01*
X135300500Y-106121155D01*
X135300499Y-106121153D01*
X135269738Y-105966510D01*
X135269737Y-105966503D01*
X135269735Y-105966498D01*
X135209397Y-105820827D01*
X135209390Y-105820814D01*
X135121789Y-105689711D01*
X135121786Y-105689707D01*
X135010292Y-105578213D01*
X135010288Y-105578210D01*
X134879185Y-105490609D01*
X134879172Y-105490602D01*
X134733501Y-105430264D01*
X134733489Y-105430261D01*
X134578845Y-105399500D01*
X134578842Y-105399500D01*
X134421158Y-105399500D01*
X134421155Y-105399500D01*
X134266510Y-105430261D01*
X134266498Y-105430264D01*
X134120827Y-105490602D01*
X134120814Y-105490609D01*
X133989711Y-105578210D01*
X133989707Y-105578213D01*
X133878213Y-105689707D01*
X133878210Y-105689711D01*
X133790609Y-105820814D01*
X133790602Y-105820827D01*
X133730264Y-105966498D01*
X133730261Y-105966510D01*
X133699500Y-106121153D01*
X133699500Y-106278846D01*
X133730261Y-106433489D01*
X133730264Y-106433501D01*
X133790602Y-106579172D01*
X133790609Y-106579185D01*
X133878602Y-106710874D01*
X133899480Y-106777551D01*
X133899500Y-106779765D01*
X133899500Y-110913330D01*
X133899499Y-110913348D01*
X133899499Y-111079054D01*
X133899498Y-111079054D01*
X133940423Y-111231785D01*
X133969358Y-111281900D01*
X133969359Y-111281904D01*
X133969360Y-111281904D01*
X134019479Y-111368714D01*
X134019481Y-111368717D01*
X134138349Y-111487585D01*
X134138355Y-111487590D01*
X139126207Y-116475442D01*
X139159692Y-116536765D01*
X139154708Y-116606457D01*
X139112836Y-116662390D01*
X139047372Y-116686807D01*
X139014336Y-116684741D01*
X138997041Y-116681301D01*
X138839357Y-116681301D01*
X138839354Y-116681301D01*
X138684709Y-116712062D01*
X138684697Y-116712065D01*
X138539026Y-116772403D01*
X138539013Y-116772410D01*
X138407910Y-116860011D01*
X138407906Y-116860014D01*
X138296412Y-116971508D01*
X138296409Y-116971512D01*
X138208808Y-117102615D01*
X138208801Y-117102628D01*
X138148462Y-117248301D01*
X138148461Y-117248306D01*
X138148008Y-117250585D01*
X138147441Y-117251668D01*
X138146692Y-117254138D01*
X138146223Y-117253995D01*
X138115622Y-117312495D01*
X138054905Y-117347068D01*
X138050585Y-117348008D01*
X138048306Y-117348461D01*
X138048301Y-117348462D01*
X137902628Y-117408801D01*
X137902615Y-117408808D01*
X137771512Y-117496409D01*
X137771508Y-117496412D01*
X137660014Y-117607906D01*
X137660011Y-117607910D01*
X137572410Y-117739013D01*
X137572403Y-117739026D01*
X137512065Y-117884697D01*
X137512062Y-117884709D01*
X137481301Y-118039352D01*
X137481301Y-118197045D01*
X137512062Y-118351688D01*
X137512065Y-118351700D01*
X137572403Y-118497371D01*
X137572410Y-118497384D01*
X137660011Y-118628487D01*
X137660014Y-118628491D01*
X137771508Y-118739985D01*
X137771512Y-118739988D01*
X137902615Y-118827589D01*
X137902628Y-118827596D01*
X137990031Y-118863798D01*
X138048304Y-118887936D01*
X138149694Y-118908104D01*
X138211602Y-118940487D01*
X138246176Y-119001203D01*
X138249500Y-119029720D01*
X138249500Y-119965072D01*
X138229815Y-120032111D01*
X138213181Y-120052753D01*
X138178213Y-120087720D01*
X138178210Y-120087724D01*
X138090609Y-120218827D01*
X138090602Y-120218840D01*
X138030264Y-120364511D01*
X138030261Y-120364523D01*
X137999500Y-120519166D01*
X137999500Y-120519171D01*
X137999500Y-120676855D01*
X138007712Y-120718143D01*
X138009337Y-120726309D01*
X138003109Y-120795901D01*
X137960245Y-120851078D01*
X137894355Y-120874322D01*
X137887719Y-120874500D01*
X131292350Y-120874500D01*
X131225311Y-120854815D01*
X131223459Y-120853602D01*
X131129184Y-120790609D01*
X131129172Y-120790602D01*
X130983501Y-120730264D01*
X130983489Y-120730261D01*
X130828845Y-120699500D01*
X130828842Y-120699500D01*
X130671158Y-120699500D01*
X130671155Y-120699500D01*
X130516510Y-120730261D01*
X130516498Y-120730264D01*
X130370827Y-120790602D01*
X130370814Y-120790609D01*
X130239711Y-120878210D01*
X130174885Y-120943036D01*
X130113561Y-120976520D01*
X130043870Y-120971535D01*
X129987936Y-120929664D01*
X129980584Y-120918663D01*
X129976042Y-120911015D01*
X129959394Y-120870821D01*
X129894566Y-120773798D01*
X129892880Y-120770959D01*
X129885014Y-120740184D01*
X129875520Y-120709863D01*
X129875500Y-120707650D01*
X129875500Y-117688396D01*
X129859490Y-117607906D01*
X129851463Y-117567548D01*
X129831593Y-117519579D01*
X129804312Y-117453715D01*
X129787256Y-117428190D01*
X129735858Y-117351267D01*
X129735856Y-117351264D01*
X129645637Y-117261045D01*
X129645606Y-117261016D01*
X126325793Y-113941203D01*
X126292308Y-113879880D01*
X126291887Y-113877864D01*
X126269737Y-113766503D01*
X126245599Y-113708230D01*
X126209397Y-113620827D01*
X126209390Y-113620814D01*
X126121789Y-113489711D01*
X126121786Y-113489707D01*
X126010292Y-113378213D01*
X126010288Y-113378210D01*
X125879185Y-113290609D01*
X125879172Y-113290602D01*
X125733501Y-113230264D01*
X125733489Y-113230261D01*
X125578845Y-113199500D01*
X125578842Y-113199500D01*
X125421158Y-113199500D01*
X125421155Y-113199500D01*
X125266510Y-113230261D01*
X125266498Y-113230264D01*
X125120827Y-113290602D01*
X125120814Y-113290609D01*
X124989711Y-113378210D01*
X124989707Y-113378213D01*
X124878213Y-113489707D01*
X124878210Y-113489711D01*
X124790609Y-113620814D01*
X124790602Y-113620827D01*
X124730264Y-113766498D01*
X124730261Y-113766510D01*
X124699500Y-113921153D01*
X115500500Y-113921153D01*
X115500500Y-104921153D01*
X123699500Y-104921153D01*
X123699500Y-105078846D01*
X123730261Y-105233489D01*
X123730264Y-105233501D01*
X123790602Y-105379172D01*
X123790609Y-105379185D01*
X123878210Y-105510288D01*
X123878213Y-105510292D01*
X123989707Y-105621786D01*
X123989711Y-105621789D01*
X124120814Y-105709390D01*
X124120827Y-105709397D01*
X124266498Y-105769735D01*
X124266503Y-105769737D01*
X124421153Y-105800499D01*
X124421156Y-105800500D01*
X124421158Y-105800500D01*
X124578844Y-105800500D01*
X124578845Y-105800499D01*
X124733497Y-105769737D01*
X124879179Y-105709394D01*
X125010289Y-105621789D01*
X125010292Y-105621786D01*
X125031760Y-105600319D01*
X125093083Y-105566834D01*
X125119441Y-105564000D01*
X131254251Y-105564000D01*
X131254253Y-105564000D01*
X131397696Y-105525565D01*
X131526304Y-105451313D01*
X131631313Y-105346304D01*
X131631313Y-105346302D01*
X131641514Y-105336102D01*
X131641517Y-105336097D01*
X131960798Y-105016816D01*
X132022120Y-104983334D01*
X132048478Y-104980500D01*
X132078844Y-104980500D01*
X132078845Y-104980499D01*
X132233497Y-104949737D01*
X132379179Y-104889394D01*
X132510289Y-104801789D01*
X132621789Y-104690289D01*
X132709394Y-104559179D01*
X132769737Y-104413497D01*
X132800500Y-104258842D01*
X132800500Y-104101158D01*
X132800500Y-104101155D01*
X132800499Y-104101153D01*
X132776170Y-103978844D01*
X132769737Y-103946503D01*
X132759237Y-103921153D01*
X132709397Y-103800827D01*
X132709390Y-103800814D01*
X132621789Y-103669711D01*
X132621786Y-103669707D01*
X132510292Y-103558213D01*
X132510288Y-103558210D01*
X132379185Y-103470609D01*
X132379172Y-103470602D01*
X132233501Y-103410264D01*
X132233489Y-103410261D01*
X132078845Y-103379500D01*
X132078842Y-103379500D01*
X131921158Y-103379500D01*
X131921155Y-103379500D01*
X131766510Y-103410261D01*
X131766498Y-103410264D01*
X131620827Y-103470602D01*
X131620814Y-103470609D01*
X131489711Y-103558210D01*
X131489707Y-103558213D01*
X131378213Y-103669707D01*
X131378210Y-103669711D01*
X131290609Y-103800814D01*
X131290602Y-103800827D01*
X131230264Y-103946498D01*
X131230261Y-103946510D01*
X131199500Y-104101153D01*
X131199500Y-104131522D01*
X131179815Y-104198561D01*
X131163181Y-104219203D01*
X130982703Y-104399681D01*
X130921380Y-104433166D01*
X130895022Y-104436000D01*
X125119441Y-104436000D01*
X125052402Y-104416315D01*
X125031760Y-104399681D01*
X125010292Y-104378213D01*
X125010288Y-104378210D01*
X124879185Y-104290609D01*
X124879172Y-104290602D01*
X124733501Y-104230264D01*
X124733489Y-104230261D01*
X124578845Y-104199500D01*
X124578842Y-104199500D01*
X124421158Y-104199500D01*
X124421155Y-104199500D01*
X124266510Y-104230261D01*
X124266498Y-104230264D01*
X124120827Y-104290602D01*
X124120814Y-104290609D01*
X123989711Y-104378210D01*
X123989707Y-104378213D01*
X123878213Y-104489707D01*
X123878210Y-104489711D01*
X123790609Y-104620814D01*
X123790602Y-104620827D01*
X123730264Y-104766498D01*
X123730261Y-104766510D01*
X123699500Y-104921153D01*
X115500500Y-104921153D01*
X115500500Y-103131902D01*
X116749500Y-103131902D01*
X116749500Y-103368097D01*
X116786446Y-103601368D01*
X116859433Y-103825996D01*
X116920835Y-103946503D01*
X116966657Y-104036433D01*
X117105483Y-104227510D01*
X117272490Y-104394517D01*
X117463567Y-104533343D01*
X117562991Y-104584002D01*
X117674003Y-104640566D01*
X117674005Y-104640566D01*
X117674008Y-104640568D01*
X117763775Y-104669735D01*
X117898631Y-104713553D01*
X118131903Y-104750500D01*
X118131908Y-104750500D01*
X118368097Y-104750500D01*
X118601368Y-104713553D01*
X118614180Y-104709390D01*
X118825992Y-104640568D01*
X119036433Y-104533343D01*
X119227510Y-104394517D01*
X119394517Y-104227510D01*
X119533343Y-104036433D01*
X119640568Y-103825992D01*
X119713553Y-103601368D01*
X119726309Y-103520828D01*
X119750500Y-103368097D01*
X119750500Y-103131902D01*
X119713553Y-102898631D01*
X119664815Y-102748632D01*
X119640568Y-102674008D01*
X119640566Y-102674005D01*
X119640566Y-102674003D01*
X119602852Y-102599986D01*
X152600001Y-102599986D01*
X152610494Y-102702697D01*
X152665641Y-102869119D01*
X152665643Y-102869124D01*
X152757684Y-103018345D01*
X152881654Y-103142315D01*
X153030875Y-103234356D01*
X153030880Y-103234358D01*
X153197302Y-103289505D01*
X153197309Y-103289506D01*
X153300019Y-103299999D01*
X153424999Y-103299999D01*
X153425000Y-103299998D01*
X153425000Y-102350000D01*
X152600001Y-102350000D01*
X152600001Y-102599986D01*
X119602852Y-102599986D01*
X119564139Y-102524008D01*
X119533343Y-102463567D01*
X119394517Y-102272490D01*
X119227510Y-102105483D01*
X119036433Y-101966657D01*
X119014503Y-101955483D01*
X118825996Y-101859433D01*
X118601368Y-101786446D01*
X118368097Y-101749500D01*
X118368092Y-101749500D01*
X118131908Y-101749500D01*
X118131903Y-101749500D01*
X117898631Y-101786446D01*
X117674003Y-101859433D01*
X117463566Y-101966657D01*
X117354550Y-102045862D01*
X117272490Y-102105483D01*
X117272488Y-102105485D01*
X117272487Y-102105485D01*
X117105485Y-102272487D01*
X117105485Y-102272488D01*
X117105483Y-102272490D01*
X117075639Y-102313567D01*
X116966657Y-102463566D01*
X116859433Y-102674003D01*
X116786446Y-102898631D01*
X116749500Y-103131902D01*
X115500500Y-103131902D01*
X115500500Y-103003750D01*
X115500726Y-102996263D01*
X115505827Y-102911937D01*
X115518271Y-102706201D01*
X115520076Y-102691340D01*
X115536818Y-102599986D01*
X115571780Y-102409197D01*
X115575364Y-102394663D01*
X115660696Y-102120822D01*
X115665998Y-102106841D01*
X115783731Y-101845249D01*
X115790676Y-101832016D01*
X115930927Y-101600013D01*
X152600000Y-101600013D01*
X152600000Y-101850000D01*
X153425000Y-101850000D01*
X153425000Y-100900000D01*
X153925000Y-100900000D01*
X153925000Y-103299999D01*
X154049972Y-103299999D01*
X154049986Y-103299998D01*
X154152697Y-103289505D01*
X154319119Y-103234358D01*
X154319124Y-103234356D01*
X154468345Y-103142315D01*
X154592318Y-103018342D01*
X154594165Y-103015348D01*
X154595969Y-103013724D01*
X154596798Y-103012677D01*
X154596976Y-103012818D01*
X154646110Y-102968621D01*
X154715073Y-102957396D01*
X154779156Y-102985236D01*
X154805243Y-103015341D01*
X154807288Y-103018656D01*
X154931344Y-103142712D01*
X155080666Y-103234814D01*
X155080671Y-103234815D01*
X155081018Y-103234977D01*
X155081221Y-103235156D01*
X155086813Y-103238605D01*
X155086224Y-103239559D01*
X155105830Y-103256818D01*
X155131316Y-103277859D01*
X155131935Y-103279797D01*
X155133463Y-103281142D01*
X155142525Y-103312920D01*
X155152593Y-103344411D01*
X155152271Y-103347097D01*
X155152624Y-103348333D01*
X155148403Y-103379455D01*
X155142699Y-103400748D01*
X155142331Y-103402119D01*
X155142319Y-103402166D01*
X155110247Y-103457673D01*
X155078214Y-103489706D01*
X155078210Y-103489711D01*
X154990609Y-103620814D01*
X154990602Y-103620827D01*
X154930264Y-103766498D01*
X154930261Y-103766510D01*
X154899500Y-103921153D01*
X154899500Y-104078846D01*
X154930261Y-104233489D01*
X154930264Y-104233501D01*
X154990602Y-104379172D01*
X154990609Y-104379185D01*
X155078210Y-104510288D01*
X155078213Y-104510292D01*
X155189707Y-104621786D01*
X155189711Y-104621789D01*
X155320814Y-104709390D01*
X155320827Y-104709397D01*
X155420060Y-104750500D01*
X155466503Y-104769737D01*
X155621153Y-104800499D01*
X155621156Y-104800500D01*
X155621158Y-104800500D01*
X155778844Y-104800500D01*
X155778845Y-104800499D01*
X155933497Y-104769737D01*
X156079179Y-104709394D01*
X156210289Y-104621789D01*
X156321789Y-104510289D01*
X156409394Y-104379179D01*
X156469737Y-104233497D01*
X156500500Y-104078842D01*
X156500500Y-103921158D01*
X156500500Y-103921155D01*
X156500499Y-103921153D01*
X156481570Y-103825992D01*
X156469737Y-103766503D01*
X156432248Y-103675996D01*
X156409397Y-103620827D01*
X156409390Y-103620814D01*
X156321789Y-103489711D01*
X156317924Y-103485001D01*
X156319923Y-103483359D01*
X156310615Y-103466312D01*
X156294023Y-103440494D01*
X156293131Y-103434293D01*
X156291834Y-103431917D01*
X156289000Y-103405559D01*
X156289000Y-103350974D01*
X156308685Y-103283935D01*
X156361489Y-103238180D01*
X156365439Y-103236629D01*
X156369326Y-103234816D01*
X156369334Y-103234814D01*
X156518656Y-103142712D01*
X156642712Y-103018656D01*
X156734814Y-102869334D01*
X156789999Y-102702797D01*
X156800500Y-102600009D01*
X156800500Y-102599986D01*
X157400001Y-102599986D01*
X157410494Y-102702697D01*
X157465641Y-102869119D01*
X157465643Y-102869124D01*
X157557684Y-103018345D01*
X157681654Y-103142315D01*
X157830875Y-103234356D01*
X157830880Y-103234358D01*
X157997302Y-103289505D01*
X157997309Y-103289506D01*
X158100019Y-103299999D01*
X158224999Y-103299999D01*
X158225000Y-103299998D01*
X158225000Y-102350000D01*
X157400001Y-102350000D01*
X157400001Y-102599986D01*
X156800500Y-102599986D01*
X156800499Y-101966657D01*
X156800499Y-101600013D01*
X157400000Y-101600013D01*
X157400000Y-101850000D01*
X158225000Y-101850000D01*
X158225000Y-100900000D01*
X158725000Y-100900000D01*
X158725000Y-103299999D01*
X158849972Y-103299999D01*
X158849986Y-103299998D01*
X158952697Y-103289505D01*
X159119119Y-103234358D01*
X159119124Y-103234356D01*
X159268345Y-103142315D01*
X159392318Y-103018342D01*
X159394165Y-103015348D01*
X159395969Y-103013724D01*
X159396798Y-103012677D01*
X159396976Y-103012818D01*
X159446110Y-102968621D01*
X159515073Y-102957396D01*
X159579156Y-102985236D01*
X159605243Y-103015341D01*
X159607288Y-103018656D01*
X159731344Y-103142712D01*
X159880666Y-103234814D01*
X159880670Y-103234815D01*
X159887209Y-103237864D01*
X159886091Y-103240259D01*
X159896023Y-103247131D01*
X159918203Y-103257261D01*
X159924241Y-103266657D01*
X159933427Y-103273013D01*
X159942794Y-103295526D01*
X159955977Y-103316039D01*
X159958431Y-103333107D01*
X159960268Y-103337522D01*
X159961000Y-103350974D01*
X159961000Y-103377852D01*
X159941315Y-103444891D01*
X159940103Y-103446742D01*
X159890608Y-103520817D01*
X159890602Y-103520828D01*
X159830264Y-103666498D01*
X159830261Y-103666510D01*
X159799500Y-103821153D01*
X159799500Y-103978846D01*
X159830261Y-104133489D01*
X159830264Y-104133501D01*
X159890602Y-104279172D01*
X159890609Y-104279185D01*
X159978210Y-104410288D01*
X159978213Y-104410292D01*
X160089707Y-104521786D01*
X160089711Y-104521789D01*
X160220814Y-104609390D01*
X160220827Y-104609397D01*
X160296077Y-104640566D01*
X160366503Y-104669737D01*
X160521153Y-104700499D01*
X160521156Y-104700500D01*
X160521158Y-104700500D01*
X160678844Y-104700500D01*
X160678845Y-104700499D01*
X160833497Y-104669737D01*
X160951592Y-104620821D01*
X160979172Y-104609397D01*
X160979172Y-104609396D01*
X160979179Y-104609394D01*
X161110289Y-104521789D01*
X161221789Y-104410289D01*
X161309394Y-104279179D01*
X161369737Y-104133497D01*
X161400500Y-103978842D01*
X161400500Y-103821158D01*
X161400500Y-103821155D01*
X161400499Y-103821153D01*
X161369738Y-103666510D01*
X161369737Y-103666503D01*
X161350812Y-103620814D01*
X161309397Y-103520827D01*
X161309390Y-103520814D01*
X161221789Y-103389711D01*
X161221786Y-103389707D01*
X161216865Y-103384786D01*
X161183380Y-103323463D01*
X161188364Y-103253771D01*
X161230236Y-103197838D01*
X161239444Y-103191569D01*
X161318656Y-103142712D01*
X161442712Y-103018656D01*
X161465382Y-102981902D01*
X162899500Y-102981902D01*
X162899500Y-103218097D01*
X162936446Y-103451368D01*
X163009433Y-103675996D01*
X163085863Y-103825996D01*
X163116657Y-103886433D01*
X163255483Y-104077510D01*
X163422490Y-104244517D01*
X163613567Y-104383343D01*
X163711350Y-104433166D01*
X163824003Y-104490566D01*
X163824005Y-104490566D01*
X163824008Y-104490568D01*
X163920087Y-104521786D01*
X164048631Y-104563553D01*
X164281903Y-104600500D01*
X164281908Y-104600500D01*
X164518097Y-104600500D01*
X164751368Y-104563553D01*
X164764851Y-104559172D01*
X164975992Y-104490568D01*
X165186433Y-104383343D01*
X165377510Y-104244517D01*
X165544517Y-104077510D01*
X165683343Y-103886433D01*
X165790568Y-103675992D01*
X165863553Y-103451368D01*
X165870064Y-103410261D01*
X165900500Y-103218097D01*
X165900500Y-102981902D01*
X165863553Y-102748631D01*
X165829689Y-102644412D01*
X165790568Y-102524008D01*
X165790566Y-102524005D01*
X165790566Y-102524003D01*
X165724663Y-102394663D01*
X165683343Y-102313567D01*
X165544517Y-102122490D01*
X165377510Y-101955483D01*
X165186433Y-101816657D01*
X165127141Y-101786446D01*
X164975996Y-101709433D01*
X164751368Y-101636446D01*
X164518097Y-101599500D01*
X164518092Y-101599500D01*
X164281908Y-101599500D01*
X164281903Y-101599500D01*
X164048631Y-101636446D01*
X163824003Y-101709433D01*
X163613566Y-101816657D01*
X163583607Y-101838424D01*
X163422490Y-101955483D01*
X163422488Y-101955485D01*
X163422487Y-101955485D01*
X163255485Y-102122487D01*
X163255485Y-102122488D01*
X163255483Y-102122490D01*
X163195862Y-102204550D01*
X163116657Y-102313566D01*
X163009433Y-102524003D01*
X162936446Y-102748631D01*
X162899500Y-102981902D01*
X161465382Y-102981902D01*
X161534814Y-102869334D01*
X161589999Y-102702797D01*
X161600500Y-102600009D01*
X161600499Y-101599992D01*
X161589999Y-101497203D01*
X161534814Y-101330666D01*
X161442712Y-101181344D01*
X161318656Y-101057288D01*
X161169334Y-100965186D01*
X161002797Y-100910001D01*
X161002795Y-100910000D01*
X160900010Y-100899500D01*
X160149998Y-100899500D01*
X160149980Y-100899501D01*
X160047203Y-100910000D01*
X160047200Y-100910001D01*
X159880668Y-100965185D01*
X159880663Y-100965187D01*
X159731342Y-101057289D01*
X159607288Y-101181343D01*
X159607283Y-101181349D01*
X159605241Y-101184661D01*
X159603247Y-101186453D01*
X159602807Y-101187011D01*
X159602711Y-101186935D01*
X159553291Y-101231383D01*
X159484328Y-101242602D01*
X159420247Y-101214755D01*
X159394168Y-101184656D01*
X159392319Y-101181659D01*
X159392316Y-101181655D01*
X159268345Y-101057684D01*
X159119124Y-100965643D01*
X159119119Y-100965641D01*
X158952697Y-100910494D01*
X158952690Y-100910493D01*
X158849986Y-100900000D01*
X158725000Y-100900000D01*
X158225000Y-100900000D01*
X158100027Y-100900000D01*
X158100012Y-100900001D01*
X157997302Y-100910494D01*
X157830880Y-100965641D01*
X157830875Y-100965643D01*
X157681654Y-101057684D01*
X157557684Y-101181654D01*
X157465643Y-101330875D01*
X157465641Y-101330880D01*
X157410494Y-101497302D01*
X157410493Y-101497309D01*
X157400000Y-101600013D01*
X156800499Y-101600013D01*
X156800499Y-101599998D01*
X156800498Y-101599980D01*
X156789999Y-101497203D01*
X156789998Y-101497200D01*
X156734814Y-101330666D01*
X156642712Y-101181344D01*
X156518656Y-101057288D01*
X156369334Y-100965186D01*
X156202797Y-100910001D01*
X156202795Y-100910000D01*
X156100010Y-100899500D01*
X155349998Y-100899500D01*
X155349980Y-100899501D01*
X155247203Y-100910000D01*
X155247200Y-100910001D01*
X155080668Y-100965185D01*
X155080663Y-100965187D01*
X154931342Y-101057289D01*
X154807288Y-101181343D01*
X154807283Y-101181349D01*
X154805241Y-101184661D01*
X154803247Y-101186453D01*
X154802807Y-101187011D01*
X154802711Y-101186935D01*
X154753291Y-101231383D01*
X154684328Y-101242602D01*
X154620247Y-101214755D01*
X154594168Y-101184656D01*
X154592319Y-101181659D01*
X154592316Y-101181655D01*
X154468345Y-101057684D01*
X154319124Y-100965643D01*
X154319119Y-100965641D01*
X154152697Y-100910494D01*
X154152690Y-100910493D01*
X154049986Y-100900000D01*
X153925000Y-100900000D01*
X153425000Y-100900000D01*
X153300027Y-100900000D01*
X153300012Y-100900001D01*
X153197302Y-100910494D01*
X153030880Y-100965641D01*
X153030875Y-100965643D01*
X152881654Y-101057684D01*
X152757684Y-101181654D01*
X152665643Y-101330875D01*
X152665641Y-101330880D01*
X152610494Y-101497302D01*
X152610493Y-101497309D01*
X152600000Y-101600013D01*
X115930927Y-101600013D01*
X115939080Y-101586526D01*
X115947567Y-101574230D01*
X116124480Y-101348417D01*
X116134395Y-101337226D01*
X116337226Y-101134395D01*
X116348417Y-101124480D01*
X116574230Y-100947567D01*
X116586526Y-100939080D01*
X116832016Y-100790676D01*
X116845249Y-100783731D01*
X117106841Y-100665998D01*
X117120822Y-100660696D01*
X117394668Y-100575362D01*
X117409197Y-100571780D01*
X117691344Y-100520075D01*
X117706201Y-100518271D01*
X117996264Y-100500726D01*
X118003751Y-100500500D01*
X118065892Y-100500500D01*
X119934108Y-100500500D01*
X164434108Y-100500500D01*
X164496249Y-100500500D01*
X164503736Y-100500726D01*
G37*
G04 #@! TD.AperFunction*
M02*
