%TF.GenerationSoftware,KiCad,Pcbnew,9.0.0*%
%TF.CreationDate,2025-03-04T19:59:36+09:00*%
%TF.ProjectId,esp32_primary_board_v0.3.1,65737033-325f-4707-9269-6d6172795f62,rev?*%
%TF.SameCoordinates,Original*%
%TF.FileFunction,Drillmap*%
%TF.FilePolarity,Positive*%
%FSLAX45Y45*%
G04 Gerber Fmt 4.5, Leading zero omitted, Abs format (unit mm)*
G04 Created by KiCad (PCBNEW 9.0.0) date 2025-03-04 19:59:36*
%MOMM*%
%LPD*%
G01*
G04 APERTURE LIST*
%ADD10C,0.038100*%
%ADD11C,0.200000*%
%ADD12C,0.110000*%
%ADD13C,0.112000*%
%ADD14C,0.250000*%
G04 APERTURE END LIST*
D10*
X16750000Y-13900000D02*
G75*
G02*
X16450000Y-14200000I-300000J0D01*
G01*
X16750000Y-10300000D02*
X16750000Y-13900000D01*
X11500000Y-13900000D02*
X11500000Y-10300000D01*
X16450000Y-14200000D02*
X11800000Y-14200000D01*
X11500000Y-10300000D02*
G75*
G02*
X11800000Y-10000000I300000J0D01*
G01*
X11800000Y-10000000D02*
X12000000Y-10000000D01*
X11800000Y-14200000D02*
G75*
G02*
X11500000Y-13900000I0J300000D01*
G01*
X16450000Y-10000000D02*
G75*
G02*
X16750000Y-10300000I0J-300000D01*
G01*
X12000000Y-10000000D02*
X16450000Y-10000000D01*
D11*
D12*
X14765000Y-13475000D02*
X14875000Y-13585000D01*
X14875000Y-13475000D02*
X14765000Y-13585000D01*
D13*
X15976000Y-13530000D02*
G75*
G02*
X15864000Y-13530000I-56000J0D01*
G01*
X15864000Y-13530000D02*
G75*
G02*
X15976000Y-13530000I56000J0D01*
G01*
D14*
X11825000Y-10200000D02*
X11825000Y-10450000D01*
X11700000Y-10325000D02*
X11950000Y-10325000D01*
X11850000Y-13750000D02*
X11850000Y-14000000D01*
X11725000Y-13875000D02*
X11975000Y-13875000D01*
X16440000Y-10185000D02*
X16440000Y-10435000D01*
X16315000Y-10310000D02*
X16565000Y-10310000D01*
X16440000Y-13765000D02*
X16440000Y-14015000D01*
X16315000Y-13890000D02*
X16565000Y-13890000D01*
D11*
X11758872Y-14513389D02*
X11758872Y-14313389D01*
X11758872Y-14313389D02*
X11806491Y-14313389D01*
X11806491Y-14313389D02*
X11835062Y-14322913D01*
X11835062Y-14322913D02*
X11854110Y-14341960D01*
X11854110Y-14341960D02*
X11863634Y-14361008D01*
X11863634Y-14361008D02*
X11873157Y-14399103D01*
X11873157Y-14399103D02*
X11873157Y-14427674D01*
X11873157Y-14427674D02*
X11863634Y-14465770D01*
X11863634Y-14465770D02*
X11854110Y-14484817D01*
X11854110Y-14484817D02*
X11835062Y-14503865D01*
X11835062Y-14503865D02*
X11806491Y-14513389D01*
X11806491Y-14513389D02*
X11758872Y-14513389D01*
X11958872Y-14513389D02*
X11958872Y-14380055D01*
X11958872Y-14418151D02*
X11968396Y-14399103D01*
X11968396Y-14399103D02*
X11977919Y-14389579D01*
X11977919Y-14389579D02*
X11996967Y-14380055D01*
X11996967Y-14380055D02*
X12016015Y-14380055D01*
X12082681Y-14513389D02*
X12082681Y-14380055D01*
X12082681Y-14313389D02*
X12073157Y-14322913D01*
X12073157Y-14322913D02*
X12082681Y-14332436D01*
X12082681Y-14332436D02*
X12092205Y-14322913D01*
X12092205Y-14322913D02*
X12082681Y-14313389D01*
X12082681Y-14313389D02*
X12082681Y-14332436D01*
X12206491Y-14513389D02*
X12187443Y-14503865D01*
X12187443Y-14503865D02*
X12177919Y-14484817D01*
X12177919Y-14484817D02*
X12177919Y-14313389D01*
X12311253Y-14513389D02*
X12292205Y-14503865D01*
X12292205Y-14503865D02*
X12282681Y-14484817D01*
X12282681Y-14484817D02*
X12282681Y-14313389D01*
X12539824Y-14513389D02*
X12539824Y-14313389D01*
X12539824Y-14313389D02*
X12606491Y-14456246D01*
X12606491Y-14456246D02*
X12673157Y-14313389D01*
X12673157Y-14313389D02*
X12673157Y-14513389D01*
X12854110Y-14513389D02*
X12854110Y-14408627D01*
X12854110Y-14408627D02*
X12844586Y-14389579D01*
X12844586Y-14389579D02*
X12825538Y-14380055D01*
X12825538Y-14380055D02*
X12787443Y-14380055D01*
X12787443Y-14380055D02*
X12768396Y-14389579D01*
X12854110Y-14503865D02*
X12835062Y-14513389D01*
X12835062Y-14513389D02*
X12787443Y-14513389D01*
X12787443Y-14513389D02*
X12768396Y-14503865D01*
X12768396Y-14503865D02*
X12758872Y-14484817D01*
X12758872Y-14484817D02*
X12758872Y-14465770D01*
X12758872Y-14465770D02*
X12768396Y-14446722D01*
X12768396Y-14446722D02*
X12787443Y-14437198D01*
X12787443Y-14437198D02*
X12835062Y-14437198D01*
X12835062Y-14437198D02*
X12854110Y-14427674D01*
X12949348Y-14380055D02*
X12949348Y-14580055D01*
X12949348Y-14389579D02*
X12968396Y-14380055D01*
X12968396Y-14380055D02*
X13006491Y-14380055D01*
X13006491Y-14380055D02*
X13025538Y-14389579D01*
X13025538Y-14389579D02*
X13035062Y-14399103D01*
X13035062Y-14399103D02*
X13044586Y-14418151D01*
X13044586Y-14418151D02*
X13044586Y-14475293D01*
X13044586Y-14475293D02*
X13035062Y-14494341D01*
X13035062Y-14494341D02*
X13025538Y-14503865D01*
X13025538Y-14503865D02*
X13006491Y-14513389D01*
X13006491Y-14513389D02*
X12968396Y-14513389D01*
X12968396Y-14513389D02*
X12949348Y-14503865D01*
X13130300Y-14494341D02*
X13139824Y-14503865D01*
X13139824Y-14503865D02*
X13130300Y-14513389D01*
X13130300Y-14513389D02*
X13120777Y-14503865D01*
X13120777Y-14503865D02*
X13130300Y-14494341D01*
X13130300Y-14494341D02*
X13130300Y-14513389D01*
X13130300Y-14389579D02*
X13139824Y-14399103D01*
X13139824Y-14399103D02*
X13130300Y-14408627D01*
X13130300Y-14408627D02*
X13120777Y-14399103D01*
X13120777Y-14399103D02*
X13130300Y-14389579D01*
X13130300Y-14389579D02*
X13130300Y-14408627D01*
D12*
X11388095Y-14786905D02*
X11498095Y-14896905D01*
X11498095Y-14786905D02*
X11388095Y-14896905D01*
D11*
X11863634Y-14933389D02*
X11749348Y-14933389D01*
X11806491Y-14933389D02*
X11806491Y-14733389D01*
X11806491Y-14733389D02*
X11787443Y-14761960D01*
X11787443Y-14761960D02*
X11768396Y-14781008D01*
X11768396Y-14781008D02*
X11749348Y-14790532D01*
X11949348Y-14914341D02*
X11958872Y-14923865D01*
X11958872Y-14923865D02*
X11949348Y-14933389D01*
X11949348Y-14933389D02*
X11939824Y-14923865D01*
X11939824Y-14923865D02*
X11949348Y-14914341D01*
X11949348Y-14914341D02*
X11949348Y-14933389D01*
X12149348Y-14933389D02*
X12035062Y-14933389D01*
X12092205Y-14933389D02*
X12092205Y-14733389D01*
X12092205Y-14733389D02*
X12073157Y-14761960D01*
X12073157Y-14761960D02*
X12054110Y-14781008D01*
X12054110Y-14781008D02*
X12035062Y-14790532D01*
X12273157Y-14733389D02*
X12292205Y-14733389D01*
X12292205Y-14733389D02*
X12311253Y-14742913D01*
X12311253Y-14742913D02*
X12320777Y-14752436D01*
X12320777Y-14752436D02*
X12330300Y-14771484D01*
X12330300Y-14771484D02*
X12339824Y-14809579D01*
X12339824Y-14809579D02*
X12339824Y-14857198D01*
X12339824Y-14857198D02*
X12330300Y-14895293D01*
X12330300Y-14895293D02*
X12320777Y-14914341D01*
X12320777Y-14914341D02*
X12311253Y-14923865D01*
X12311253Y-14923865D02*
X12292205Y-14933389D01*
X12292205Y-14933389D02*
X12273157Y-14933389D01*
X12273157Y-14933389D02*
X12254110Y-14923865D01*
X12254110Y-14923865D02*
X12244586Y-14914341D01*
X12244586Y-14914341D02*
X12235062Y-14895293D01*
X12235062Y-14895293D02*
X12225538Y-14857198D01*
X12225538Y-14857198D02*
X12225538Y-14809579D01*
X12225538Y-14809579D02*
X12235062Y-14771484D01*
X12235062Y-14771484D02*
X12244586Y-14752436D01*
X12244586Y-14752436D02*
X12254110Y-14742913D01*
X12254110Y-14742913D02*
X12273157Y-14733389D01*
X12463634Y-14733389D02*
X12482681Y-14733389D01*
X12482681Y-14733389D02*
X12501729Y-14742913D01*
X12501729Y-14742913D02*
X12511253Y-14752436D01*
X12511253Y-14752436D02*
X12520777Y-14771484D01*
X12520777Y-14771484D02*
X12530300Y-14809579D01*
X12530300Y-14809579D02*
X12530300Y-14857198D01*
X12530300Y-14857198D02*
X12520777Y-14895293D01*
X12520777Y-14895293D02*
X12511253Y-14914341D01*
X12511253Y-14914341D02*
X12501729Y-14923865D01*
X12501729Y-14923865D02*
X12482681Y-14933389D01*
X12482681Y-14933389D02*
X12463634Y-14933389D01*
X12463634Y-14933389D02*
X12444586Y-14923865D01*
X12444586Y-14923865D02*
X12435062Y-14914341D01*
X12435062Y-14914341D02*
X12425538Y-14895293D01*
X12425538Y-14895293D02*
X12416015Y-14857198D01*
X12416015Y-14857198D02*
X12416015Y-14809579D01*
X12416015Y-14809579D02*
X12425538Y-14771484D01*
X12425538Y-14771484D02*
X12435062Y-14752436D01*
X12435062Y-14752436D02*
X12444586Y-14742913D01*
X12444586Y-14742913D02*
X12463634Y-14733389D01*
X12616015Y-14933389D02*
X12616015Y-14800055D01*
X12616015Y-14819103D02*
X12625538Y-14809579D01*
X12625538Y-14809579D02*
X12644586Y-14800055D01*
X12644586Y-14800055D02*
X12673158Y-14800055D01*
X12673158Y-14800055D02*
X12692205Y-14809579D01*
X12692205Y-14809579D02*
X12701729Y-14828627D01*
X12701729Y-14828627D02*
X12701729Y-14933389D01*
X12701729Y-14828627D02*
X12711253Y-14809579D01*
X12711253Y-14809579D02*
X12730300Y-14800055D01*
X12730300Y-14800055D02*
X12758872Y-14800055D01*
X12758872Y-14800055D02*
X12777919Y-14809579D01*
X12777919Y-14809579D02*
X12787443Y-14828627D01*
X12787443Y-14828627D02*
X12787443Y-14933389D01*
X12882681Y-14933389D02*
X12882681Y-14800055D01*
X12882681Y-14819103D02*
X12892205Y-14809579D01*
X12892205Y-14809579D02*
X12911253Y-14800055D01*
X12911253Y-14800055D02*
X12939824Y-14800055D01*
X12939824Y-14800055D02*
X12958872Y-14809579D01*
X12958872Y-14809579D02*
X12968396Y-14828627D01*
X12968396Y-14828627D02*
X12968396Y-14933389D01*
X12968396Y-14828627D02*
X12977919Y-14809579D01*
X12977919Y-14809579D02*
X12996967Y-14800055D01*
X12996967Y-14800055D02*
X13025538Y-14800055D01*
X13025538Y-14800055D02*
X13044586Y-14809579D01*
X13044586Y-14809579D02*
X13054110Y-14828627D01*
X13054110Y-14828627D02*
X13054110Y-14933389D01*
X13444586Y-14723865D02*
X13273158Y-14981008D01*
X13701729Y-14733389D02*
X13720777Y-14733389D01*
X13720777Y-14733389D02*
X13739824Y-14742913D01*
X13739824Y-14742913D02*
X13749348Y-14752436D01*
X13749348Y-14752436D02*
X13758872Y-14771484D01*
X13758872Y-14771484D02*
X13768396Y-14809579D01*
X13768396Y-14809579D02*
X13768396Y-14857198D01*
X13768396Y-14857198D02*
X13758872Y-14895293D01*
X13758872Y-14895293D02*
X13749348Y-14914341D01*
X13749348Y-14914341D02*
X13739824Y-14923865D01*
X13739824Y-14923865D02*
X13720777Y-14933389D01*
X13720777Y-14933389D02*
X13701729Y-14933389D01*
X13701729Y-14933389D02*
X13682681Y-14923865D01*
X13682681Y-14923865D02*
X13673158Y-14914341D01*
X13673158Y-14914341D02*
X13663634Y-14895293D01*
X13663634Y-14895293D02*
X13654110Y-14857198D01*
X13654110Y-14857198D02*
X13654110Y-14809579D01*
X13654110Y-14809579D02*
X13663634Y-14771484D01*
X13663634Y-14771484D02*
X13673158Y-14752436D01*
X13673158Y-14752436D02*
X13682681Y-14742913D01*
X13682681Y-14742913D02*
X13701729Y-14733389D01*
X13854110Y-14914341D02*
X13863634Y-14923865D01*
X13863634Y-14923865D02*
X13854110Y-14933389D01*
X13854110Y-14933389D02*
X13844586Y-14923865D01*
X13844586Y-14923865D02*
X13854110Y-14914341D01*
X13854110Y-14914341D02*
X13854110Y-14933389D01*
X13987443Y-14733389D02*
X14006491Y-14733389D01*
X14006491Y-14733389D02*
X14025539Y-14742913D01*
X14025539Y-14742913D02*
X14035062Y-14752436D01*
X14035062Y-14752436D02*
X14044586Y-14771484D01*
X14044586Y-14771484D02*
X14054110Y-14809579D01*
X14054110Y-14809579D02*
X14054110Y-14857198D01*
X14054110Y-14857198D02*
X14044586Y-14895293D01*
X14044586Y-14895293D02*
X14035062Y-14914341D01*
X14035062Y-14914341D02*
X14025539Y-14923865D01*
X14025539Y-14923865D02*
X14006491Y-14933389D01*
X14006491Y-14933389D02*
X13987443Y-14933389D01*
X13987443Y-14933389D02*
X13968396Y-14923865D01*
X13968396Y-14923865D02*
X13958872Y-14914341D01*
X13958872Y-14914341D02*
X13949348Y-14895293D01*
X13949348Y-14895293D02*
X13939824Y-14857198D01*
X13939824Y-14857198D02*
X13939824Y-14809579D01*
X13939824Y-14809579D02*
X13949348Y-14771484D01*
X13949348Y-14771484D02*
X13958872Y-14752436D01*
X13958872Y-14752436D02*
X13968396Y-14742913D01*
X13968396Y-14742913D02*
X13987443Y-14733389D01*
X14225539Y-14800055D02*
X14225539Y-14933389D01*
X14177920Y-14723865D02*
X14130301Y-14866722D01*
X14130301Y-14866722D02*
X14254110Y-14866722D01*
X14311253Y-14733389D02*
X14435062Y-14733389D01*
X14435062Y-14733389D02*
X14368396Y-14809579D01*
X14368396Y-14809579D02*
X14396967Y-14809579D01*
X14396967Y-14809579D02*
X14416015Y-14819103D01*
X14416015Y-14819103D02*
X14425539Y-14828627D01*
X14425539Y-14828627D02*
X14435062Y-14847674D01*
X14435062Y-14847674D02*
X14435062Y-14895293D01*
X14435062Y-14895293D02*
X14425539Y-14914341D01*
X14425539Y-14914341D02*
X14416015Y-14923865D01*
X14416015Y-14923865D02*
X14396967Y-14933389D01*
X14396967Y-14933389D02*
X14339824Y-14933389D01*
X14339824Y-14933389D02*
X14320777Y-14923865D01*
X14320777Y-14923865D02*
X14311253Y-14914341D01*
X14501729Y-14733389D02*
X14625539Y-14733389D01*
X14625539Y-14733389D02*
X14558872Y-14809579D01*
X14558872Y-14809579D02*
X14587443Y-14809579D01*
X14587443Y-14809579D02*
X14606491Y-14819103D01*
X14606491Y-14819103D02*
X14616015Y-14828627D01*
X14616015Y-14828627D02*
X14625539Y-14847674D01*
X14625539Y-14847674D02*
X14625539Y-14895293D01*
X14625539Y-14895293D02*
X14616015Y-14914341D01*
X14616015Y-14914341D02*
X14606491Y-14923865D01*
X14606491Y-14923865D02*
X14587443Y-14933389D01*
X14587443Y-14933389D02*
X14530301Y-14933389D01*
X14530301Y-14933389D02*
X14511253Y-14923865D01*
X14511253Y-14923865D02*
X14501729Y-14914341D01*
X14701729Y-14733389D02*
X14701729Y-14771484D01*
X14777920Y-14733389D02*
X14777920Y-14771484D01*
X15073158Y-15009579D02*
X15063634Y-15000055D01*
X15063634Y-15000055D02*
X15044586Y-14971484D01*
X15044586Y-14971484D02*
X15035063Y-14952436D01*
X15035063Y-14952436D02*
X15025539Y-14923865D01*
X15025539Y-14923865D02*
X15016015Y-14876246D01*
X15016015Y-14876246D02*
X15016015Y-14838151D01*
X15016015Y-14838151D02*
X15025539Y-14790532D01*
X15025539Y-14790532D02*
X15035063Y-14761960D01*
X15035063Y-14761960D02*
X15044586Y-14742913D01*
X15044586Y-14742913D02*
X15063634Y-14714341D01*
X15063634Y-14714341D02*
X15073158Y-14704817D01*
X15254110Y-14933389D02*
X15139824Y-14933389D01*
X15196967Y-14933389D02*
X15196967Y-14733389D01*
X15196967Y-14733389D02*
X15177920Y-14761960D01*
X15177920Y-14761960D02*
X15158872Y-14781008D01*
X15158872Y-14781008D02*
X15139824Y-14790532D01*
X15492205Y-14933389D02*
X15492205Y-14733389D01*
X15577920Y-14933389D02*
X15577920Y-14828627D01*
X15577920Y-14828627D02*
X15568396Y-14809579D01*
X15568396Y-14809579D02*
X15549348Y-14800055D01*
X15549348Y-14800055D02*
X15520777Y-14800055D01*
X15520777Y-14800055D02*
X15501729Y-14809579D01*
X15501729Y-14809579D02*
X15492205Y-14819103D01*
X15701729Y-14933389D02*
X15682682Y-14923865D01*
X15682682Y-14923865D02*
X15673158Y-14914341D01*
X15673158Y-14914341D02*
X15663634Y-14895293D01*
X15663634Y-14895293D02*
X15663634Y-14838151D01*
X15663634Y-14838151D02*
X15673158Y-14819103D01*
X15673158Y-14819103D02*
X15682682Y-14809579D01*
X15682682Y-14809579D02*
X15701729Y-14800055D01*
X15701729Y-14800055D02*
X15730301Y-14800055D01*
X15730301Y-14800055D02*
X15749348Y-14809579D01*
X15749348Y-14809579D02*
X15758872Y-14819103D01*
X15758872Y-14819103D02*
X15768396Y-14838151D01*
X15768396Y-14838151D02*
X15768396Y-14895293D01*
X15768396Y-14895293D02*
X15758872Y-14914341D01*
X15758872Y-14914341D02*
X15749348Y-14923865D01*
X15749348Y-14923865D02*
X15730301Y-14933389D01*
X15730301Y-14933389D02*
X15701729Y-14933389D01*
X15882682Y-14933389D02*
X15863634Y-14923865D01*
X15863634Y-14923865D02*
X15854110Y-14904817D01*
X15854110Y-14904817D02*
X15854110Y-14733389D01*
X16035063Y-14923865D02*
X16016015Y-14933389D01*
X16016015Y-14933389D02*
X15977920Y-14933389D01*
X15977920Y-14933389D02*
X15958872Y-14923865D01*
X15958872Y-14923865D02*
X15949348Y-14904817D01*
X15949348Y-14904817D02*
X15949348Y-14828627D01*
X15949348Y-14828627D02*
X15958872Y-14809579D01*
X15958872Y-14809579D02*
X15977920Y-14800055D01*
X15977920Y-14800055D02*
X16016015Y-14800055D01*
X16016015Y-14800055D02*
X16035063Y-14809579D01*
X16035063Y-14809579D02*
X16044586Y-14828627D01*
X16044586Y-14828627D02*
X16044586Y-14847674D01*
X16044586Y-14847674D02*
X15949348Y-14866722D01*
X16111253Y-15009579D02*
X16120777Y-15000055D01*
X16120777Y-15000055D02*
X16139825Y-14971484D01*
X16139825Y-14971484D02*
X16149348Y-14952436D01*
X16149348Y-14952436D02*
X16158872Y-14923865D01*
X16158872Y-14923865D02*
X16168396Y-14876246D01*
X16168396Y-14876246D02*
X16168396Y-14838151D01*
X16168396Y-14838151D02*
X16158872Y-14790532D01*
X16158872Y-14790532D02*
X16149348Y-14761960D01*
X16149348Y-14761960D02*
X16139825Y-14742913D01*
X16139825Y-14742913D02*
X16120777Y-14714341D01*
X16120777Y-14714341D02*
X16111253Y-14704817D01*
X16473158Y-15009579D02*
X16463634Y-15000055D01*
X16463634Y-15000055D02*
X16444586Y-14971484D01*
X16444586Y-14971484D02*
X16435063Y-14952436D01*
X16435063Y-14952436D02*
X16425539Y-14923865D01*
X16425539Y-14923865D02*
X16416015Y-14876246D01*
X16416015Y-14876246D02*
X16416015Y-14838151D01*
X16416015Y-14838151D02*
X16425539Y-14790532D01*
X16425539Y-14790532D02*
X16435063Y-14761960D01*
X16435063Y-14761960D02*
X16444586Y-14742913D01*
X16444586Y-14742913D02*
X16463634Y-14714341D01*
X16463634Y-14714341D02*
X16473158Y-14704817D01*
X16549348Y-14800055D02*
X16549348Y-14933389D01*
X16549348Y-14819103D02*
X16558872Y-14809579D01*
X16558872Y-14809579D02*
X16577920Y-14800055D01*
X16577920Y-14800055D02*
X16606491Y-14800055D01*
X16606491Y-14800055D02*
X16625539Y-14809579D01*
X16625539Y-14809579D02*
X16635063Y-14828627D01*
X16635063Y-14828627D02*
X16635063Y-14933389D01*
X16758872Y-14933389D02*
X16739825Y-14923865D01*
X16739825Y-14923865D02*
X16730301Y-14914341D01*
X16730301Y-14914341D02*
X16720777Y-14895293D01*
X16720777Y-14895293D02*
X16720777Y-14838151D01*
X16720777Y-14838151D02*
X16730301Y-14819103D01*
X16730301Y-14819103D02*
X16739825Y-14809579D01*
X16739825Y-14809579D02*
X16758872Y-14800055D01*
X16758872Y-14800055D02*
X16787444Y-14800055D01*
X16787444Y-14800055D02*
X16806491Y-14809579D01*
X16806491Y-14809579D02*
X16816015Y-14819103D01*
X16816015Y-14819103D02*
X16825539Y-14838151D01*
X16825539Y-14838151D02*
X16825539Y-14895293D01*
X16825539Y-14895293D02*
X16816015Y-14914341D01*
X16816015Y-14914341D02*
X16806491Y-14923865D01*
X16806491Y-14923865D02*
X16787444Y-14933389D01*
X16787444Y-14933389D02*
X16758872Y-14933389D01*
X16882682Y-14800055D02*
X16958872Y-14800055D01*
X16911253Y-14733389D02*
X16911253Y-14904817D01*
X16911253Y-14904817D02*
X16920777Y-14923865D01*
X16920777Y-14923865D02*
X16939825Y-14933389D01*
X16939825Y-14933389D02*
X16958872Y-14933389D01*
X17177920Y-14800055D02*
X17177920Y-15000055D01*
X17177920Y-14809579D02*
X17196968Y-14800055D01*
X17196968Y-14800055D02*
X17235063Y-14800055D01*
X17235063Y-14800055D02*
X17254110Y-14809579D01*
X17254110Y-14809579D02*
X17263634Y-14819103D01*
X17263634Y-14819103D02*
X17273158Y-14838151D01*
X17273158Y-14838151D02*
X17273158Y-14895293D01*
X17273158Y-14895293D02*
X17263634Y-14914341D01*
X17263634Y-14914341D02*
X17254110Y-14923865D01*
X17254110Y-14923865D02*
X17235063Y-14933389D01*
X17235063Y-14933389D02*
X17196968Y-14933389D01*
X17196968Y-14933389D02*
X17177920Y-14923865D01*
X17387444Y-14933389D02*
X17368396Y-14923865D01*
X17368396Y-14923865D02*
X17358872Y-14904817D01*
X17358872Y-14904817D02*
X17358872Y-14733389D01*
X17549349Y-14933389D02*
X17549349Y-14828627D01*
X17549349Y-14828627D02*
X17539825Y-14809579D01*
X17539825Y-14809579D02*
X17520777Y-14800055D01*
X17520777Y-14800055D02*
X17482682Y-14800055D01*
X17482682Y-14800055D02*
X17463634Y-14809579D01*
X17549349Y-14923865D02*
X17530301Y-14933389D01*
X17530301Y-14933389D02*
X17482682Y-14933389D01*
X17482682Y-14933389D02*
X17463634Y-14923865D01*
X17463634Y-14923865D02*
X17454110Y-14904817D01*
X17454110Y-14904817D02*
X17454110Y-14885770D01*
X17454110Y-14885770D02*
X17463634Y-14866722D01*
X17463634Y-14866722D02*
X17482682Y-14857198D01*
X17482682Y-14857198D02*
X17530301Y-14857198D01*
X17530301Y-14857198D02*
X17549349Y-14847674D01*
X17616015Y-14800055D02*
X17692206Y-14800055D01*
X17644587Y-14733389D02*
X17644587Y-14904817D01*
X17644587Y-14904817D02*
X17654110Y-14923865D01*
X17654110Y-14923865D02*
X17673158Y-14933389D01*
X17673158Y-14933389D02*
X17692206Y-14933389D01*
X17835063Y-14923865D02*
X17816015Y-14933389D01*
X17816015Y-14933389D02*
X17777920Y-14933389D01*
X17777920Y-14933389D02*
X17758872Y-14923865D01*
X17758872Y-14923865D02*
X17749349Y-14904817D01*
X17749349Y-14904817D02*
X17749349Y-14828627D01*
X17749349Y-14828627D02*
X17758872Y-14809579D01*
X17758872Y-14809579D02*
X17777920Y-14800055D01*
X17777920Y-14800055D02*
X17816015Y-14800055D01*
X17816015Y-14800055D02*
X17835063Y-14809579D01*
X17835063Y-14809579D02*
X17844587Y-14828627D01*
X17844587Y-14828627D02*
X17844587Y-14847674D01*
X17844587Y-14847674D02*
X17749349Y-14866722D01*
X18016015Y-14933389D02*
X18016015Y-14733389D01*
X18016015Y-14923865D02*
X17996968Y-14933389D01*
X17996968Y-14933389D02*
X17958872Y-14933389D01*
X17958872Y-14933389D02*
X17939825Y-14923865D01*
X17939825Y-14923865D02*
X17930301Y-14914341D01*
X17930301Y-14914341D02*
X17920777Y-14895293D01*
X17920777Y-14895293D02*
X17920777Y-14838151D01*
X17920777Y-14838151D02*
X17930301Y-14819103D01*
X17930301Y-14819103D02*
X17939825Y-14809579D01*
X17939825Y-14809579D02*
X17958872Y-14800055D01*
X17958872Y-14800055D02*
X17996968Y-14800055D01*
X17996968Y-14800055D02*
X18016015Y-14809579D01*
X18092206Y-15009579D02*
X18101730Y-15000055D01*
X18101730Y-15000055D02*
X18120777Y-14971484D01*
X18120777Y-14971484D02*
X18130301Y-14952436D01*
X18130301Y-14952436D02*
X18139825Y-14923865D01*
X18139825Y-14923865D02*
X18149349Y-14876246D01*
X18149349Y-14876246D02*
X18149349Y-14838151D01*
X18149349Y-14838151D02*
X18139825Y-14790532D01*
X18139825Y-14790532D02*
X18130301Y-14761960D01*
X18130301Y-14761960D02*
X18120777Y-14742913D01*
X18120777Y-14742913D02*
X18101730Y-14714341D01*
X18101730Y-14714341D02*
X18092206Y-14704817D01*
D13*
X11498095Y-15105905D02*
G75*
G02*
X11386095Y-15105905I-56000J0D01*
G01*
X11386095Y-15105905D02*
G75*
G02*
X11498095Y-15105905I56000J0D01*
G01*
D11*
X11863634Y-15197389D02*
X11749348Y-15197389D01*
X11806491Y-15197389D02*
X11806491Y-14997389D01*
X11806491Y-14997389D02*
X11787443Y-15025960D01*
X11787443Y-15025960D02*
X11768396Y-15045008D01*
X11768396Y-15045008D02*
X11749348Y-15054532D01*
X11949348Y-15178341D02*
X11958872Y-15187865D01*
X11958872Y-15187865D02*
X11949348Y-15197389D01*
X11949348Y-15197389D02*
X11939824Y-15187865D01*
X11939824Y-15187865D02*
X11949348Y-15178341D01*
X11949348Y-15178341D02*
X11949348Y-15197389D01*
X12149348Y-15197389D02*
X12035062Y-15197389D01*
X12092205Y-15197389D02*
X12092205Y-14997389D01*
X12092205Y-14997389D02*
X12073157Y-15025960D01*
X12073157Y-15025960D02*
X12054110Y-15045008D01*
X12054110Y-15045008D02*
X12035062Y-15054532D01*
X12225538Y-15016436D02*
X12235062Y-15006913D01*
X12235062Y-15006913D02*
X12254110Y-14997389D01*
X12254110Y-14997389D02*
X12301729Y-14997389D01*
X12301729Y-14997389D02*
X12320777Y-15006913D01*
X12320777Y-15006913D02*
X12330300Y-15016436D01*
X12330300Y-15016436D02*
X12339824Y-15035484D01*
X12339824Y-15035484D02*
X12339824Y-15054532D01*
X12339824Y-15054532D02*
X12330300Y-15083103D01*
X12330300Y-15083103D02*
X12216015Y-15197389D01*
X12216015Y-15197389D02*
X12339824Y-15197389D01*
X12463634Y-14997389D02*
X12482681Y-14997389D01*
X12482681Y-14997389D02*
X12501729Y-15006913D01*
X12501729Y-15006913D02*
X12511253Y-15016436D01*
X12511253Y-15016436D02*
X12520777Y-15035484D01*
X12520777Y-15035484D02*
X12530300Y-15073579D01*
X12530300Y-15073579D02*
X12530300Y-15121198D01*
X12530300Y-15121198D02*
X12520777Y-15159293D01*
X12520777Y-15159293D02*
X12511253Y-15178341D01*
X12511253Y-15178341D02*
X12501729Y-15187865D01*
X12501729Y-15187865D02*
X12482681Y-15197389D01*
X12482681Y-15197389D02*
X12463634Y-15197389D01*
X12463634Y-15197389D02*
X12444586Y-15187865D01*
X12444586Y-15187865D02*
X12435062Y-15178341D01*
X12435062Y-15178341D02*
X12425538Y-15159293D01*
X12425538Y-15159293D02*
X12416015Y-15121198D01*
X12416015Y-15121198D02*
X12416015Y-15073579D01*
X12416015Y-15073579D02*
X12425538Y-15035484D01*
X12425538Y-15035484D02*
X12435062Y-15016436D01*
X12435062Y-15016436D02*
X12444586Y-15006913D01*
X12444586Y-15006913D02*
X12463634Y-14997389D01*
X12616015Y-15197389D02*
X12616015Y-15064055D01*
X12616015Y-15083103D02*
X12625538Y-15073579D01*
X12625538Y-15073579D02*
X12644586Y-15064055D01*
X12644586Y-15064055D02*
X12673158Y-15064055D01*
X12673158Y-15064055D02*
X12692205Y-15073579D01*
X12692205Y-15073579D02*
X12701729Y-15092627D01*
X12701729Y-15092627D02*
X12701729Y-15197389D01*
X12701729Y-15092627D02*
X12711253Y-15073579D01*
X12711253Y-15073579D02*
X12730300Y-15064055D01*
X12730300Y-15064055D02*
X12758872Y-15064055D01*
X12758872Y-15064055D02*
X12777919Y-15073579D01*
X12777919Y-15073579D02*
X12787443Y-15092627D01*
X12787443Y-15092627D02*
X12787443Y-15197389D01*
X12882681Y-15197389D02*
X12882681Y-15064055D01*
X12882681Y-15083103D02*
X12892205Y-15073579D01*
X12892205Y-15073579D02*
X12911253Y-15064055D01*
X12911253Y-15064055D02*
X12939824Y-15064055D01*
X12939824Y-15064055D02*
X12958872Y-15073579D01*
X12958872Y-15073579D02*
X12968396Y-15092627D01*
X12968396Y-15092627D02*
X12968396Y-15197389D01*
X12968396Y-15092627D02*
X12977919Y-15073579D01*
X12977919Y-15073579D02*
X12996967Y-15064055D01*
X12996967Y-15064055D02*
X13025538Y-15064055D01*
X13025538Y-15064055D02*
X13044586Y-15073579D01*
X13044586Y-15073579D02*
X13054110Y-15092627D01*
X13054110Y-15092627D02*
X13054110Y-15197389D01*
X13444586Y-14987865D02*
X13273158Y-15245008D01*
X13701729Y-14997389D02*
X13720777Y-14997389D01*
X13720777Y-14997389D02*
X13739824Y-15006913D01*
X13739824Y-15006913D02*
X13749348Y-15016436D01*
X13749348Y-15016436D02*
X13758872Y-15035484D01*
X13758872Y-15035484D02*
X13768396Y-15073579D01*
X13768396Y-15073579D02*
X13768396Y-15121198D01*
X13768396Y-15121198D02*
X13758872Y-15159293D01*
X13758872Y-15159293D02*
X13749348Y-15178341D01*
X13749348Y-15178341D02*
X13739824Y-15187865D01*
X13739824Y-15187865D02*
X13720777Y-15197389D01*
X13720777Y-15197389D02*
X13701729Y-15197389D01*
X13701729Y-15197389D02*
X13682681Y-15187865D01*
X13682681Y-15187865D02*
X13673158Y-15178341D01*
X13673158Y-15178341D02*
X13663634Y-15159293D01*
X13663634Y-15159293D02*
X13654110Y-15121198D01*
X13654110Y-15121198D02*
X13654110Y-15073579D01*
X13654110Y-15073579D02*
X13663634Y-15035484D01*
X13663634Y-15035484D02*
X13673158Y-15016436D01*
X13673158Y-15016436D02*
X13682681Y-15006913D01*
X13682681Y-15006913D02*
X13701729Y-14997389D01*
X13854110Y-15178341D02*
X13863634Y-15187865D01*
X13863634Y-15187865D02*
X13854110Y-15197389D01*
X13854110Y-15197389D02*
X13844586Y-15187865D01*
X13844586Y-15187865D02*
X13854110Y-15178341D01*
X13854110Y-15178341D02*
X13854110Y-15197389D01*
X13987443Y-14997389D02*
X14006491Y-14997389D01*
X14006491Y-14997389D02*
X14025539Y-15006913D01*
X14025539Y-15006913D02*
X14035062Y-15016436D01*
X14035062Y-15016436D02*
X14044586Y-15035484D01*
X14044586Y-15035484D02*
X14054110Y-15073579D01*
X14054110Y-15073579D02*
X14054110Y-15121198D01*
X14054110Y-15121198D02*
X14044586Y-15159293D01*
X14044586Y-15159293D02*
X14035062Y-15178341D01*
X14035062Y-15178341D02*
X14025539Y-15187865D01*
X14025539Y-15187865D02*
X14006491Y-15197389D01*
X14006491Y-15197389D02*
X13987443Y-15197389D01*
X13987443Y-15197389D02*
X13968396Y-15187865D01*
X13968396Y-15187865D02*
X13958872Y-15178341D01*
X13958872Y-15178341D02*
X13949348Y-15159293D01*
X13949348Y-15159293D02*
X13939824Y-15121198D01*
X13939824Y-15121198D02*
X13939824Y-15073579D01*
X13939824Y-15073579D02*
X13949348Y-15035484D01*
X13949348Y-15035484D02*
X13958872Y-15016436D01*
X13958872Y-15016436D02*
X13968396Y-15006913D01*
X13968396Y-15006913D02*
X13987443Y-14997389D01*
X14225539Y-15064055D02*
X14225539Y-15197389D01*
X14177920Y-14987865D02*
X14130301Y-15130722D01*
X14130301Y-15130722D02*
X14254110Y-15130722D01*
X14416015Y-15064055D02*
X14416015Y-15197389D01*
X14368396Y-14987865D02*
X14320777Y-15130722D01*
X14320777Y-15130722D02*
X14444586Y-15130722D01*
X14625539Y-15197389D02*
X14511253Y-15197389D01*
X14568396Y-15197389D02*
X14568396Y-14997389D01*
X14568396Y-14997389D02*
X14549348Y-15025960D01*
X14549348Y-15025960D02*
X14530301Y-15045008D01*
X14530301Y-15045008D02*
X14511253Y-15054532D01*
X14701729Y-14997389D02*
X14701729Y-15035484D01*
X14777920Y-14997389D02*
X14777920Y-15035484D01*
X15073158Y-15273579D02*
X15063634Y-15264055D01*
X15063634Y-15264055D02*
X15044586Y-15235484D01*
X15044586Y-15235484D02*
X15035063Y-15216436D01*
X15035063Y-15216436D02*
X15025539Y-15187865D01*
X15025539Y-15187865D02*
X15016015Y-15140246D01*
X15016015Y-15140246D02*
X15016015Y-15102151D01*
X15016015Y-15102151D02*
X15025539Y-15054532D01*
X15025539Y-15054532D02*
X15035063Y-15025960D01*
X15035063Y-15025960D02*
X15044586Y-15006913D01*
X15044586Y-15006913D02*
X15063634Y-14978341D01*
X15063634Y-14978341D02*
X15073158Y-14968817D01*
X15254110Y-15197389D02*
X15139824Y-15197389D01*
X15196967Y-15197389D02*
X15196967Y-14997389D01*
X15196967Y-14997389D02*
X15177920Y-15025960D01*
X15177920Y-15025960D02*
X15158872Y-15045008D01*
X15158872Y-15045008D02*
X15139824Y-15054532D01*
X15492205Y-15197389D02*
X15492205Y-14997389D01*
X15577920Y-15197389D02*
X15577920Y-15092627D01*
X15577920Y-15092627D02*
X15568396Y-15073579D01*
X15568396Y-15073579D02*
X15549348Y-15064055D01*
X15549348Y-15064055D02*
X15520777Y-15064055D01*
X15520777Y-15064055D02*
X15501729Y-15073579D01*
X15501729Y-15073579D02*
X15492205Y-15083103D01*
X15701729Y-15197389D02*
X15682682Y-15187865D01*
X15682682Y-15187865D02*
X15673158Y-15178341D01*
X15673158Y-15178341D02*
X15663634Y-15159293D01*
X15663634Y-15159293D02*
X15663634Y-15102151D01*
X15663634Y-15102151D02*
X15673158Y-15083103D01*
X15673158Y-15083103D02*
X15682682Y-15073579D01*
X15682682Y-15073579D02*
X15701729Y-15064055D01*
X15701729Y-15064055D02*
X15730301Y-15064055D01*
X15730301Y-15064055D02*
X15749348Y-15073579D01*
X15749348Y-15073579D02*
X15758872Y-15083103D01*
X15758872Y-15083103D02*
X15768396Y-15102151D01*
X15768396Y-15102151D02*
X15768396Y-15159293D01*
X15768396Y-15159293D02*
X15758872Y-15178341D01*
X15758872Y-15178341D02*
X15749348Y-15187865D01*
X15749348Y-15187865D02*
X15730301Y-15197389D01*
X15730301Y-15197389D02*
X15701729Y-15197389D01*
X15882682Y-15197389D02*
X15863634Y-15187865D01*
X15863634Y-15187865D02*
X15854110Y-15168817D01*
X15854110Y-15168817D02*
X15854110Y-14997389D01*
X16035063Y-15187865D02*
X16016015Y-15197389D01*
X16016015Y-15197389D02*
X15977920Y-15197389D01*
X15977920Y-15197389D02*
X15958872Y-15187865D01*
X15958872Y-15187865D02*
X15949348Y-15168817D01*
X15949348Y-15168817D02*
X15949348Y-15092627D01*
X15949348Y-15092627D02*
X15958872Y-15073579D01*
X15958872Y-15073579D02*
X15977920Y-15064055D01*
X15977920Y-15064055D02*
X16016015Y-15064055D01*
X16016015Y-15064055D02*
X16035063Y-15073579D01*
X16035063Y-15073579D02*
X16044586Y-15092627D01*
X16044586Y-15092627D02*
X16044586Y-15111674D01*
X16044586Y-15111674D02*
X15949348Y-15130722D01*
X16111253Y-15273579D02*
X16120777Y-15264055D01*
X16120777Y-15264055D02*
X16139825Y-15235484D01*
X16139825Y-15235484D02*
X16149348Y-15216436D01*
X16149348Y-15216436D02*
X16158872Y-15187865D01*
X16158872Y-15187865D02*
X16168396Y-15140246D01*
X16168396Y-15140246D02*
X16168396Y-15102151D01*
X16168396Y-15102151D02*
X16158872Y-15054532D01*
X16158872Y-15054532D02*
X16149348Y-15025960D01*
X16149348Y-15025960D02*
X16139825Y-15006913D01*
X16139825Y-15006913D02*
X16120777Y-14978341D01*
X16120777Y-14978341D02*
X16111253Y-14968817D01*
X16473158Y-15273579D02*
X16463634Y-15264055D01*
X16463634Y-15264055D02*
X16444586Y-15235484D01*
X16444586Y-15235484D02*
X16435063Y-15216436D01*
X16435063Y-15216436D02*
X16425539Y-15187865D01*
X16425539Y-15187865D02*
X16416015Y-15140246D01*
X16416015Y-15140246D02*
X16416015Y-15102151D01*
X16416015Y-15102151D02*
X16425539Y-15054532D01*
X16425539Y-15054532D02*
X16435063Y-15025960D01*
X16435063Y-15025960D02*
X16444586Y-15006913D01*
X16444586Y-15006913D02*
X16463634Y-14978341D01*
X16463634Y-14978341D02*
X16473158Y-14968817D01*
X16549348Y-15064055D02*
X16549348Y-15197389D01*
X16549348Y-15083103D02*
X16558872Y-15073579D01*
X16558872Y-15073579D02*
X16577920Y-15064055D01*
X16577920Y-15064055D02*
X16606491Y-15064055D01*
X16606491Y-15064055D02*
X16625539Y-15073579D01*
X16625539Y-15073579D02*
X16635063Y-15092627D01*
X16635063Y-15092627D02*
X16635063Y-15197389D01*
X16758872Y-15197389D02*
X16739825Y-15187865D01*
X16739825Y-15187865D02*
X16730301Y-15178341D01*
X16730301Y-15178341D02*
X16720777Y-15159293D01*
X16720777Y-15159293D02*
X16720777Y-15102151D01*
X16720777Y-15102151D02*
X16730301Y-15083103D01*
X16730301Y-15083103D02*
X16739825Y-15073579D01*
X16739825Y-15073579D02*
X16758872Y-15064055D01*
X16758872Y-15064055D02*
X16787444Y-15064055D01*
X16787444Y-15064055D02*
X16806491Y-15073579D01*
X16806491Y-15073579D02*
X16816015Y-15083103D01*
X16816015Y-15083103D02*
X16825539Y-15102151D01*
X16825539Y-15102151D02*
X16825539Y-15159293D01*
X16825539Y-15159293D02*
X16816015Y-15178341D01*
X16816015Y-15178341D02*
X16806491Y-15187865D01*
X16806491Y-15187865D02*
X16787444Y-15197389D01*
X16787444Y-15197389D02*
X16758872Y-15197389D01*
X16882682Y-15064055D02*
X16958872Y-15064055D01*
X16911253Y-14997389D02*
X16911253Y-15168817D01*
X16911253Y-15168817D02*
X16920777Y-15187865D01*
X16920777Y-15187865D02*
X16939825Y-15197389D01*
X16939825Y-15197389D02*
X16958872Y-15197389D01*
X17177920Y-15064055D02*
X17177920Y-15264055D01*
X17177920Y-15073579D02*
X17196968Y-15064055D01*
X17196968Y-15064055D02*
X17235063Y-15064055D01*
X17235063Y-15064055D02*
X17254110Y-15073579D01*
X17254110Y-15073579D02*
X17263634Y-15083103D01*
X17263634Y-15083103D02*
X17273158Y-15102151D01*
X17273158Y-15102151D02*
X17273158Y-15159293D01*
X17273158Y-15159293D02*
X17263634Y-15178341D01*
X17263634Y-15178341D02*
X17254110Y-15187865D01*
X17254110Y-15187865D02*
X17235063Y-15197389D01*
X17235063Y-15197389D02*
X17196968Y-15197389D01*
X17196968Y-15197389D02*
X17177920Y-15187865D01*
X17387444Y-15197389D02*
X17368396Y-15187865D01*
X17368396Y-15187865D02*
X17358872Y-15168817D01*
X17358872Y-15168817D02*
X17358872Y-14997389D01*
X17549349Y-15197389D02*
X17549349Y-15092627D01*
X17549349Y-15092627D02*
X17539825Y-15073579D01*
X17539825Y-15073579D02*
X17520777Y-15064055D01*
X17520777Y-15064055D02*
X17482682Y-15064055D01*
X17482682Y-15064055D02*
X17463634Y-15073579D01*
X17549349Y-15187865D02*
X17530301Y-15197389D01*
X17530301Y-15197389D02*
X17482682Y-15197389D01*
X17482682Y-15197389D02*
X17463634Y-15187865D01*
X17463634Y-15187865D02*
X17454110Y-15168817D01*
X17454110Y-15168817D02*
X17454110Y-15149770D01*
X17454110Y-15149770D02*
X17463634Y-15130722D01*
X17463634Y-15130722D02*
X17482682Y-15121198D01*
X17482682Y-15121198D02*
X17530301Y-15121198D01*
X17530301Y-15121198D02*
X17549349Y-15111674D01*
X17616015Y-15064055D02*
X17692206Y-15064055D01*
X17644587Y-14997389D02*
X17644587Y-15168817D01*
X17644587Y-15168817D02*
X17654110Y-15187865D01*
X17654110Y-15187865D02*
X17673158Y-15197389D01*
X17673158Y-15197389D02*
X17692206Y-15197389D01*
X17835063Y-15187865D02*
X17816015Y-15197389D01*
X17816015Y-15197389D02*
X17777920Y-15197389D01*
X17777920Y-15197389D02*
X17758872Y-15187865D01*
X17758872Y-15187865D02*
X17749349Y-15168817D01*
X17749349Y-15168817D02*
X17749349Y-15092627D01*
X17749349Y-15092627D02*
X17758872Y-15073579D01*
X17758872Y-15073579D02*
X17777920Y-15064055D01*
X17777920Y-15064055D02*
X17816015Y-15064055D01*
X17816015Y-15064055D02*
X17835063Y-15073579D01*
X17835063Y-15073579D02*
X17844587Y-15092627D01*
X17844587Y-15092627D02*
X17844587Y-15111674D01*
X17844587Y-15111674D02*
X17749349Y-15130722D01*
X18016015Y-15197389D02*
X18016015Y-14997389D01*
X18016015Y-15187865D02*
X17996968Y-15197389D01*
X17996968Y-15197389D02*
X17958872Y-15197389D01*
X17958872Y-15197389D02*
X17939825Y-15187865D01*
X17939825Y-15187865D02*
X17930301Y-15178341D01*
X17930301Y-15178341D02*
X17920777Y-15159293D01*
X17920777Y-15159293D02*
X17920777Y-15102151D01*
X17920777Y-15102151D02*
X17930301Y-15083103D01*
X17930301Y-15083103D02*
X17939825Y-15073579D01*
X17939825Y-15073579D02*
X17958872Y-15064055D01*
X17958872Y-15064055D02*
X17996968Y-15064055D01*
X17996968Y-15064055D02*
X18016015Y-15073579D01*
X18092206Y-15273579D02*
X18101730Y-15264055D01*
X18101730Y-15264055D02*
X18120777Y-15235484D01*
X18120777Y-15235484D02*
X18130301Y-15216436D01*
X18130301Y-15216436D02*
X18139825Y-15187865D01*
X18139825Y-15187865D02*
X18149349Y-15140246D01*
X18149349Y-15140246D02*
X18149349Y-15102151D01*
X18149349Y-15102151D02*
X18139825Y-15054532D01*
X18139825Y-15054532D02*
X18130301Y-15025960D01*
X18130301Y-15025960D02*
X18120777Y-15006913D01*
X18120777Y-15006913D02*
X18101730Y-14978341D01*
X18101730Y-14978341D02*
X18092206Y-14968817D01*
X11398095Y-15269905D02*
X11398095Y-15469905D01*
X11298095Y-15369905D02*
X11498095Y-15369905D01*
X11749348Y-15280436D02*
X11758872Y-15270913D01*
X11758872Y-15270913D02*
X11777919Y-15261389D01*
X11777919Y-15261389D02*
X11825538Y-15261389D01*
X11825538Y-15261389D02*
X11844586Y-15270913D01*
X11844586Y-15270913D02*
X11854110Y-15280436D01*
X11854110Y-15280436D02*
X11863634Y-15299484D01*
X11863634Y-15299484D02*
X11863634Y-15318532D01*
X11863634Y-15318532D02*
X11854110Y-15347103D01*
X11854110Y-15347103D02*
X11739824Y-15461389D01*
X11739824Y-15461389D02*
X11863634Y-15461389D01*
X11949348Y-15442341D02*
X11958872Y-15451865D01*
X11958872Y-15451865D02*
X11949348Y-15461389D01*
X11949348Y-15461389D02*
X11939824Y-15451865D01*
X11939824Y-15451865D02*
X11949348Y-15442341D01*
X11949348Y-15442341D02*
X11949348Y-15461389D01*
X12139824Y-15261389D02*
X12044586Y-15261389D01*
X12044586Y-15261389D02*
X12035062Y-15356627D01*
X12035062Y-15356627D02*
X12044586Y-15347103D01*
X12044586Y-15347103D02*
X12063634Y-15337579D01*
X12063634Y-15337579D02*
X12111253Y-15337579D01*
X12111253Y-15337579D02*
X12130300Y-15347103D01*
X12130300Y-15347103D02*
X12139824Y-15356627D01*
X12139824Y-15356627D02*
X12149348Y-15375674D01*
X12149348Y-15375674D02*
X12149348Y-15423293D01*
X12149348Y-15423293D02*
X12139824Y-15442341D01*
X12139824Y-15442341D02*
X12130300Y-15451865D01*
X12130300Y-15451865D02*
X12111253Y-15461389D01*
X12111253Y-15461389D02*
X12063634Y-15461389D01*
X12063634Y-15461389D02*
X12044586Y-15451865D01*
X12044586Y-15451865D02*
X12035062Y-15442341D01*
X12273157Y-15261389D02*
X12292205Y-15261389D01*
X12292205Y-15261389D02*
X12311253Y-15270913D01*
X12311253Y-15270913D02*
X12320777Y-15280436D01*
X12320777Y-15280436D02*
X12330300Y-15299484D01*
X12330300Y-15299484D02*
X12339824Y-15337579D01*
X12339824Y-15337579D02*
X12339824Y-15385198D01*
X12339824Y-15385198D02*
X12330300Y-15423293D01*
X12330300Y-15423293D02*
X12320777Y-15442341D01*
X12320777Y-15442341D02*
X12311253Y-15451865D01*
X12311253Y-15451865D02*
X12292205Y-15461389D01*
X12292205Y-15461389D02*
X12273157Y-15461389D01*
X12273157Y-15461389D02*
X12254110Y-15451865D01*
X12254110Y-15451865D02*
X12244586Y-15442341D01*
X12244586Y-15442341D02*
X12235062Y-15423293D01*
X12235062Y-15423293D02*
X12225538Y-15385198D01*
X12225538Y-15385198D02*
X12225538Y-15337579D01*
X12225538Y-15337579D02*
X12235062Y-15299484D01*
X12235062Y-15299484D02*
X12244586Y-15280436D01*
X12244586Y-15280436D02*
X12254110Y-15270913D01*
X12254110Y-15270913D02*
X12273157Y-15261389D01*
X12463634Y-15261389D02*
X12482681Y-15261389D01*
X12482681Y-15261389D02*
X12501729Y-15270913D01*
X12501729Y-15270913D02*
X12511253Y-15280436D01*
X12511253Y-15280436D02*
X12520777Y-15299484D01*
X12520777Y-15299484D02*
X12530300Y-15337579D01*
X12530300Y-15337579D02*
X12530300Y-15385198D01*
X12530300Y-15385198D02*
X12520777Y-15423293D01*
X12520777Y-15423293D02*
X12511253Y-15442341D01*
X12511253Y-15442341D02*
X12501729Y-15451865D01*
X12501729Y-15451865D02*
X12482681Y-15461389D01*
X12482681Y-15461389D02*
X12463634Y-15461389D01*
X12463634Y-15461389D02*
X12444586Y-15451865D01*
X12444586Y-15451865D02*
X12435062Y-15442341D01*
X12435062Y-15442341D02*
X12425538Y-15423293D01*
X12425538Y-15423293D02*
X12416015Y-15385198D01*
X12416015Y-15385198D02*
X12416015Y-15337579D01*
X12416015Y-15337579D02*
X12425538Y-15299484D01*
X12425538Y-15299484D02*
X12435062Y-15280436D01*
X12435062Y-15280436D02*
X12444586Y-15270913D01*
X12444586Y-15270913D02*
X12463634Y-15261389D01*
X12616015Y-15461389D02*
X12616015Y-15328055D01*
X12616015Y-15347103D02*
X12625538Y-15337579D01*
X12625538Y-15337579D02*
X12644586Y-15328055D01*
X12644586Y-15328055D02*
X12673158Y-15328055D01*
X12673158Y-15328055D02*
X12692205Y-15337579D01*
X12692205Y-15337579D02*
X12701729Y-15356627D01*
X12701729Y-15356627D02*
X12701729Y-15461389D01*
X12701729Y-15356627D02*
X12711253Y-15337579D01*
X12711253Y-15337579D02*
X12730300Y-15328055D01*
X12730300Y-15328055D02*
X12758872Y-15328055D01*
X12758872Y-15328055D02*
X12777919Y-15337579D01*
X12777919Y-15337579D02*
X12787443Y-15356627D01*
X12787443Y-15356627D02*
X12787443Y-15461389D01*
X12882681Y-15461389D02*
X12882681Y-15328055D01*
X12882681Y-15347103D02*
X12892205Y-15337579D01*
X12892205Y-15337579D02*
X12911253Y-15328055D01*
X12911253Y-15328055D02*
X12939824Y-15328055D01*
X12939824Y-15328055D02*
X12958872Y-15337579D01*
X12958872Y-15337579D02*
X12968396Y-15356627D01*
X12968396Y-15356627D02*
X12968396Y-15461389D01*
X12968396Y-15356627D02*
X12977919Y-15337579D01*
X12977919Y-15337579D02*
X12996967Y-15328055D01*
X12996967Y-15328055D02*
X13025538Y-15328055D01*
X13025538Y-15328055D02*
X13044586Y-15337579D01*
X13044586Y-15337579D02*
X13054110Y-15356627D01*
X13054110Y-15356627D02*
X13054110Y-15461389D01*
X13444586Y-15251865D02*
X13273158Y-15509008D01*
X13701729Y-15261389D02*
X13720777Y-15261389D01*
X13720777Y-15261389D02*
X13739824Y-15270913D01*
X13739824Y-15270913D02*
X13749348Y-15280436D01*
X13749348Y-15280436D02*
X13758872Y-15299484D01*
X13758872Y-15299484D02*
X13768396Y-15337579D01*
X13768396Y-15337579D02*
X13768396Y-15385198D01*
X13768396Y-15385198D02*
X13758872Y-15423293D01*
X13758872Y-15423293D02*
X13749348Y-15442341D01*
X13749348Y-15442341D02*
X13739824Y-15451865D01*
X13739824Y-15451865D02*
X13720777Y-15461389D01*
X13720777Y-15461389D02*
X13701729Y-15461389D01*
X13701729Y-15461389D02*
X13682681Y-15451865D01*
X13682681Y-15451865D02*
X13673158Y-15442341D01*
X13673158Y-15442341D02*
X13663634Y-15423293D01*
X13663634Y-15423293D02*
X13654110Y-15385198D01*
X13654110Y-15385198D02*
X13654110Y-15337579D01*
X13654110Y-15337579D02*
X13663634Y-15299484D01*
X13663634Y-15299484D02*
X13673158Y-15280436D01*
X13673158Y-15280436D02*
X13682681Y-15270913D01*
X13682681Y-15270913D02*
X13701729Y-15261389D01*
X13854110Y-15442341D02*
X13863634Y-15451865D01*
X13863634Y-15451865D02*
X13854110Y-15461389D01*
X13854110Y-15461389D02*
X13844586Y-15451865D01*
X13844586Y-15451865D02*
X13854110Y-15442341D01*
X13854110Y-15442341D02*
X13854110Y-15461389D01*
X13987443Y-15261389D02*
X14006491Y-15261389D01*
X14006491Y-15261389D02*
X14025539Y-15270913D01*
X14025539Y-15270913D02*
X14035062Y-15280436D01*
X14035062Y-15280436D02*
X14044586Y-15299484D01*
X14044586Y-15299484D02*
X14054110Y-15337579D01*
X14054110Y-15337579D02*
X14054110Y-15385198D01*
X14054110Y-15385198D02*
X14044586Y-15423293D01*
X14044586Y-15423293D02*
X14035062Y-15442341D01*
X14035062Y-15442341D02*
X14025539Y-15451865D01*
X14025539Y-15451865D02*
X14006491Y-15461389D01*
X14006491Y-15461389D02*
X13987443Y-15461389D01*
X13987443Y-15461389D02*
X13968396Y-15451865D01*
X13968396Y-15451865D02*
X13958872Y-15442341D01*
X13958872Y-15442341D02*
X13949348Y-15423293D01*
X13949348Y-15423293D02*
X13939824Y-15385198D01*
X13939824Y-15385198D02*
X13939824Y-15337579D01*
X13939824Y-15337579D02*
X13949348Y-15299484D01*
X13949348Y-15299484D02*
X13958872Y-15280436D01*
X13958872Y-15280436D02*
X13968396Y-15270913D01*
X13968396Y-15270913D02*
X13987443Y-15261389D01*
X14149348Y-15461389D02*
X14187443Y-15461389D01*
X14187443Y-15461389D02*
X14206491Y-15451865D01*
X14206491Y-15451865D02*
X14216015Y-15442341D01*
X14216015Y-15442341D02*
X14235062Y-15413770D01*
X14235062Y-15413770D02*
X14244586Y-15375674D01*
X14244586Y-15375674D02*
X14244586Y-15299484D01*
X14244586Y-15299484D02*
X14235062Y-15280436D01*
X14235062Y-15280436D02*
X14225539Y-15270913D01*
X14225539Y-15270913D02*
X14206491Y-15261389D01*
X14206491Y-15261389D02*
X14168396Y-15261389D01*
X14168396Y-15261389D02*
X14149348Y-15270913D01*
X14149348Y-15270913D02*
X14139824Y-15280436D01*
X14139824Y-15280436D02*
X14130301Y-15299484D01*
X14130301Y-15299484D02*
X14130301Y-15347103D01*
X14130301Y-15347103D02*
X14139824Y-15366151D01*
X14139824Y-15366151D02*
X14149348Y-15375674D01*
X14149348Y-15375674D02*
X14168396Y-15385198D01*
X14168396Y-15385198D02*
X14206491Y-15385198D01*
X14206491Y-15385198D02*
X14225539Y-15375674D01*
X14225539Y-15375674D02*
X14235062Y-15366151D01*
X14235062Y-15366151D02*
X14244586Y-15347103D01*
X14358872Y-15347103D02*
X14339824Y-15337579D01*
X14339824Y-15337579D02*
X14330301Y-15328055D01*
X14330301Y-15328055D02*
X14320777Y-15309008D01*
X14320777Y-15309008D02*
X14320777Y-15299484D01*
X14320777Y-15299484D02*
X14330301Y-15280436D01*
X14330301Y-15280436D02*
X14339824Y-15270913D01*
X14339824Y-15270913D02*
X14358872Y-15261389D01*
X14358872Y-15261389D02*
X14396967Y-15261389D01*
X14396967Y-15261389D02*
X14416015Y-15270913D01*
X14416015Y-15270913D02*
X14425539Y-15280436D01*
X14425539Y-15280436D02*
X14435062Y-15299484D01*
X14435062Y-15299484D02*
X14435062Y-15309008D01*
X14435062Y-15309008D02*
X14425539Y-15328055D01*
X14425539Y-15328055D02*
X14416015Y-15337579D01*
X14416015Y-15337579D02*
X14396967Y-15347103D01*
X14396967Y-15347103D02*
X14358872Y-15347103D01*
X14358872Y-15347103D02*
X14339824Y-15356627D01*
X14339824Y-15356627D02*
X14330301Y-15366151D01*
X14330301Y-15366151D02*
X14320777Y-15385198D01*
X14320777Y-15385198D02*
X14320777Y-15423293D01*
X14320777Y-15423293D02*
X14330301Y-15442341D01*
X14330301Y-15442341D02*
X14339824Y-15451865D01*
X14339824Y-15451865D02*
X14358872Y-15461389D01*
X14358872Y-15461389D02*
X14396967Y-15461389D01*
X14396967Y-15461389D02*
X14416015Y-15451865D01*
X14416015Y-15451865D02*
X14425539Y-15442341D01*
X14425539Y-15442341D02*
X14435062Y-15423293D01*
X14435062Y-15423293D02*
X14435062Y-15385198D01*
X14435062Y-15385198D02*
X14425539Y-15366151D01*
X14425539Y-15366151D02*
X14416015Y-15356627D01*
X14416015Y-15356627D02*
X14396967Y-15347103D01*
X14606491Y-15328055D02*
X14606491Y-15461389D01*
X14558872Y-15251865D02*
X14511253Y-15394722D01*
X14511253Y-15394722D02*
X14635062Y-15394722D01*
X14701729Y-15261389D02*
X14701729Y-15299484D01*
X14777920Y-15261389D02*
X14777920Y-15299484D01*
X15073158Y-15537579D02*
X15063634Y-15528055D01*
X15063634Y-15528055D02*
X15044586Y-15499484D01*
X15044586Y-15499484D02*
X15035063Y-15480436D01*
X15035063Y-15480436D02*
X15025539Y-15451865D01*
X15025539Y-15451865D02*
X15016015Y-15404246D01*
X15016015Y-15404246D02*
X15016015Y-15366151D01*
X15016015Y-15366151D02*
X15025539Y-15318532D01*
X15025539Y-15318532D02*
X15035063Y-15289960D01*
X15035063Y-15289960D02*
X15044586Y-15270913D01*
X15044586Y-15270913D02*
X15063634Y-15242341D01*
X15063634Y-15242341D02*
X15073158Y-15232817D01*
X15235063Y-15328055D02*
X15235063Y-15461389D01*
X15187443Y-15251865D02*
X15139824Y-15394722D01*
X15139824Y-15394722D02*
X15263634Y-15394722D01*
X15492205Y-15461389D02*
X15492205Y-15261389D01*
X15577920Y-15461389D02*
X15577920Y-15356627D01*
X15577920Y-15356627D02*
X15568396Y-15337579D01*
X15568396Y-15337579D02*
X15549348Y-15328055D01*
X15549348Y-15328055D02*
X15520777Y-15328055D01*
X15520777Y-15328055D02*
X15501729Y-15337579D01*
X15501729Y-15337579D02*
X15492205Y-15347103D01*
X15701729Y-15461389D02*
X15682682Y-15451865D01*
X15682682Y-15451865D02*
X15673158Y-15442341D01*
X15673158Y-15442341D02*
X15663634Y-15423293D01*
X15663634Y-15423293D02*
X15663634Y-15366151D01*
X15663634Y-15366151D02*
X15673158Y-15347103D01*
X15673158Y-15347103D02*
X15682682Y-15337579D01*
X15682682Y-15337579D02*
X15701729Y-15328055D01*
X15701729Y-15328055D02*
X15730301Y-15328055D01*
X15730301Y-15328055D02*
X15749348Y-15337579D01*
X15749348Y-15337579D02*
X15758872Y-15347103D01*
X15758872Y-15347103D02*
X15768396Y-15366151D01*
X15768396Y-15366151D02*
X15768396Y-15423293D01*
X15768396Y-15423293D02*
X15758872Y-15442341D01*
X15758872Y-15442341D02*
X15749348Y-15451865D01*
X15749348Y-15451865D02*
X15730301Y-15461389D01*
X15730301Y-15461389D02*
X15701729Y-15461389D01*
X15882682Y-15461389D02*
X15863634Y-15451865D01*
X15863634Y-15451865D02*
X15854110Y-15432817D01*
X15854110Y-15432817D02*
X15854110Y-15261389D01*
X16035063Y-15451865D02*
X16016015Y-15461389D01*
X16016015Y-15461389D02*
X15977920Y-15461389D01*
X15977920Y-15461389D02*
X15958872Y-15451865D01*
X15958872Y-15451865D02*
X15949348Y-15432817D01*
X15949348Y-15432817D02*
X15949348Y-15356627D01*
X15949348Y-15356627D02*
X15958872Y-15337579D01*
X15958872Y-15337579D02*
X15977920Y-15328055D01*
X15977920Y-15328055D02*
X16016015Y-15328055D01*
X16016015Y-15328055D02*
X16035063Y-15337579D01*
X16035063Y-15337579D02*
X16044586Y-15356627D01*
X16044586Y-15356627D02*
X16044586Y-15375674D01*
X16044586Y-15375674D02*
X15949348Y-15394722D01*
X16120777Y-15451865D02*
X16139825Y-15461389D01*
X16139825Y-15461389D02*
X16177920Y-15461389D01*
X16177920Y-15461389D02*
X16196967Y-15451865D01*
X16196967Y-15451865D02*
X16206491Y-15432817D01*
X16206491Y-15432817D02*
X16206491Y-15423293D01*
X16206491Y-15423293D02*
X16196967Y-15404246D01*
X16196967Y-15404246D02*
X16177920Y-15394722D01*
X16177920Y-15394722D02*
X16149348Y-15394722D01*
X16149348Y-15394722D02*
X16130301Y-15385198D01*
X16130301Y-15385198D02*
X16120777Y-15366151D01*
X16120777Y-15366151D02*
X16120777Y-15356627D01*
X16120777Y-15356627D02*
X16130301Y-15337579D01*
X16130301Y-15337579D02*
X16149348Y-15328055D01*
X16149348Y-15328055D02*
X16177920Y-15328055D01*
X16177920Y-15328055D02*
X16196967Y-15337579D01*
X16273158Y-15537579D02*
X16282682Y-15528055D01*
X16282682Y-15528055D02*
X16301729Y-15499484D01*
X16301729Y-15499484D02*
X16311253Y-15480436D01*
X16311253Y-15480436D02*
X16320777Y-15451865D01*
X16320777Y-15451865D02*
X16330301Y-15404246D01*
X16330301Y-15404246D02*
X16330301Y-15366151D01*
X16330301Y-15366151D02*
X16320777Y-15318532D01*
X16320777Y-15318532D02*
X16311253Y-15289960D01*
X16311253Y-15289960D02*
X16301729Y-15270913D01*
X16301729Y-15270913D02*
X16282682Y-15242341D01*
X16282682Y-15242341D02*
X16273158Y-15232817D01*
X16635063Y-15537579D02*
X16625539Y-15528055D01*
X16625539Y-15528055D02*
X16606491Y-15499484D01*
X16606491Y-15499484D02*
X16596967Y-15480436D01*
X16596967Y-15480436D02*
X16587444Y-15451865D01*
X16587444Y-15451865D02*
X16577920Y-15404246D01*
X16577920Y-15404246D02*
X16577920Y-15366151D01*
X16577920Y-15366151D02*
X16587444Y-15318532D01*
X16587444Y-15318532D02*
X16596967Y-15289960D01*
X16596967Y-15289960D02*
X16606491Y-15270913D01*
X16606491Y-15270913D02*
X16625539Y-15242341D01*
X16625539Y-15242341D02*
X16635063Y-15232817D01*
X16711253Y-15328055D02*
X16711253Y-15461389D01*
X16711253Y-15347103D02*
X16720777Y-15337579D01*
X16720777Y-15337579D02*
X16739825Y-15328055D01*
X16739825Y-15328055D02*
X16768396Y-15328055D01*
X16768396Y-15328055D02*
X16787444Y-15337579D01*
X16787444Y-15337579D02*
X16796968Y-15356627D01*
X16796968Y-15356627D02*
X16796968Y-15461389D01*
X16920777Y-15461389D02*
X16901729Y-15451865D01*
X16901729Y-15451865D02*
X16892206Y-15442341D01*
X16892206Y-15442341D02*
X16882682Y-15423293D01*
X16882682Y-15423293D02*
X16882682Y-15366151D01*
X16882682Y-15366151D02*
X16892206Y-15347103D01*
X16892206Y-15347103D02*
X16901729Y-15337579D01*
X16901729Y-15337579D02*
X16920777Y-15328055D01*
X16920777Y-15328055D02*
X16949349Y-15328055D01*
X16949349Y-15328055D02*
X16968396Y-15337579D01*
X16968396Y-15337579D02*
X16977920Y-15347103D01*
X16977920Y-15347103D02*
X16987444Y-15366151D01*
X16987444Y-15366151D02*
X16987444Y-15423293D01*
X16987444Y-15423293D02*
X16977920Y-15442341D01*
X16977920Y-15442341D02*
X16968396Y-15451865D01*
X16968396Y-15451865D02*
X16949349Y-15461389D01*
X16949349Y-15461389D02*
X16920777Y-15461389D01*
X17044587Y-15328055D02*
X17120777Y-15328055D01*
X17073158Y-15261389D02*
X17073158Y-15432817D01*
X17073158Y-15432817D02*
X17082682Y-15451865D01*
X17082682Y-15451865D02*
X17101729Y-15461389D01*
X17101729Y-15461389D02*
X17120777Y-15461389D01*
X17339825Y-15328055D02*
X17339825Y-15528055D01*
X17339825Y-15337579D02*
X17358872Y-15328055D01*
X17358872Y-15328055D02*
X17396968Y-15328055D01*
X17396968Y-15328055D02*
X17416015Y-15337579D01*
X17416015Y-15337579D02*
X17425539Y-15347103D01*
X17425539Y-15347103D02*
X17435063Y-15366151D01*
X17435063Y-15366151D02*
X17435063Y-15423293D01*
X17435063Y-15423293D02*
X17425539Y-15442341D01*
X17425539Y-15442341D02*
X17416015Y-15451865D01*
X17416015Y-15451865D02*
X17396968Y-15461389D01*
X17396968Y-15461389D02*
X17358872Y-15461389D01*
X17358872Y-15461389D02*
X17339825Y-15451865D01*
X17549349Y-15461389D02*
X17530301Y-15451865D01*
X17530301Y-15451865D02*
X17520777Y-15432817D01*
X17520777Y-15432817D02*
X17520777Y-15261389D01*
X17711253Y-15461389D02*
X17711253Y-15356627D01*
X17711253Y-15356627D02*
X17701730Y-15337579D01*
X17701730Y-15337579D02*
X17682682Y-15328055D01*
X17682682Y-15328055D02*
X17644587Y-15328055D01*
X17644587Y-15328055D02*
X17625539Y-15337579D01*
X17711253Y-15451865D02*
X17692206Y-15461389D01*
X17692206Y-15461389D02*
X17644587Y-15461389D01*
X17644587Y-15461389D02*
X17625539Y-15451865D01*
X17625539Y-15451865D02*
X17616015Y-15432817D01*
X17616015Y-15432817D02*
X17616015Y-15413770D01*
X17616015Y-15413770D02*
X17625539Y-15394722D01*
X17625539Y-15394722D02*
X17644587Y-15385198D01*
X17644587Y-15385198D02*
X17692206Y-15385198D01*
X17692206Y-15385198D02*
X17711253Y-15375674D01*
X17777920Y-15328055D02*
X17854110Y-15328055D01*
X17806491Y-15261389D02*
X17806491Y-15432817D01*
X17806491Y-15432817D02*
X17816015Y-15451865D01*
X17816015Y-15451865D02*
X17835063Y-15461389D01*
X17835063Y-15461389D02*
X17854110Y-15461389D01*
X17996968Y-15451865D02*
X17977920Y-15461389D01*
X17977920Y-15461389D02*
X17939825Y-15461389D01*
X17939825Y-15461389D02*
X17920777Y-15451865D01*
X17920777Y-15451865D02*
X17911253Y-15432817D01*
X17911253Y-15432817D02*
X17911253Y-15356627D01*
X17911253Y-15356627D02*
X17920777Y-15337579D01*
X17920777Y-15337579D02*
X17939825Y-15328055D01*
X17939825Y-15328055D02*
X17977920Y-15328055D01*
X17977920Y-15328055D02*
X17996968Y-15337579D01*
X17996968Y-15337579D02*
X18006491Y-15356627D01*
X18006491Y-15356627D02*
X18006491Y-15375674D01*
X18006491Y-15375674D02*
X17911253Y-15394722D01*
X18177920Y-15461389D02*
X18177920Y-15261389D01*
X18177920Y-15451865D02*
X18158872Y-15461389D01*
X18158872Y-15461389D02*
X18120777Y-15461389D01*
X18120777Y-15461389D02*
X18101730Y-15451865D01*
X18101730Y-15451865D02*
X18092206Y-15442341D01*
X18092206Y-15442341D02*
X18082682Y-15423293D01*
X18082682Y-15423293D02*
X18082682Y-15366151D01*
X18082682Y-15366151D02*
X18092206Y-15347103D01*
X18092206Y-15347103D02*
X18101730Y-15337579D01*
X18101730Y-15337579D02*
X18120777Y-15328055D01*
X18120777Y-15328055D02*
X18158872Y-15328055D01*
X18158872Y-15328055D02*
X18177920Y-15337579D01*
X18254111Y-15537579D02*
X18263634Y-15528055D01*
X18263634Y-15528055D02*
X18282682Y-15499484D01*
X18282682Y-15499484D02*
X18292206Y-15480436D01*
X18292206Y-15480436D02*
X18301730Y-15451865D01*
X18301730Y-15451865D02*
X18311253Y-15404246D01*
X18311253Y-15404246D02*
X18311253Y-15366151D01*
X18311253Y-15366151D02*
X18301730Y-15318532D01*
X18301730Y-15318532D02*
X18292206Y-15289960D01*
X18292206Y-15289960D02*
X18282682Y-15270913D01*
X18282682Y-15270913D02*
X18263634Y-15242341D01*
X18263634Y-15242341D02*
X18254111Y-15232817D01*
M02*
