G04 #@! TF.GenerationSoftware,KiCad,Pcbnew,9.0.0*
G04 #@! TF.CreationDate,2025-03-04T19:59:01+09:00*
G04 #@! TF.ProjectId,esp32_primary_board_v0.3.1,65737033-325f-4707-9269-6d6172795f62,rev?*
G04 #@! TF.SameCoordinates,Original*
G04 #@! TF.FileFunction,Soldermask,Bot*
G04 #@! TF.FilePolarity,Negative*
%FSLAX46Y46*%
G04 Gerber Fmt 4.6, Leading zero omitted, Abs format (unit mm)*
G04 Created by KiCad (PCBNEW 9.0.0) date 2025-03-04 19:59:01*
%MOMM*%
%LPD*%
G01*
G04 APERTURE LIST*
G04 APERTURE END LIST*
G36*
X135097208Y-138934254D02*
G01*
X135198943Y-138992991D01*
X135282009Y-139076057D01*
X135340746Y-139177792D01*
X135371150Y-139291263D01*
X135375000Y-139350000D01*
X135375000Y-140150000D01*
X135371150Y-140208737D01*
X135340746Y-140322208D01*
X135282009Y-140423943D01*
X135198943Y-140507009D01*
X135097208Y-140565746D01*
X134983737Y-140596150D01*
X134866263Y-140596150D01*
X134752792Y-140565746D01*
X134651057Y-140507009D01*
X134567991Y-140423943D01*
X134509254Y-140322208D01*
X134478850Y-140208737D01*
X134475000Y-140150000D01*
X134475000Y-139350000D01*
X134478850Y-139291263D01*
X134509254Y-139177792D01*
X134567991Y-139076057D01*
X134651057Y-138992991D01*
X134752792Y-138934254D01*
X134866263Y-138903850D01*
X134983737Y-138903850D01*
X135097208Y-138934254D01*
G37*
G36*
X143747208Y-138934254D02*
G01*
X143848943Y-138992991D01*
X143932009Y-139076057D01*
X143990746Y-139177792D01*
X144021150Y-139291263D01*
X144025000Y-139350000D01*
X144025000Y-140150000D01*
X144021150Y-140208737D01*
X143990746Y-140322208D01*
X143932009Y-140423943D01*
X143848943Y-140507009D01*
X143747208Y-140565746D01*
X143633737Y-140596150D01*
X143516263Y-140596150D01*
X143402792Y-140565746D01*
X143301057Y-140507009D01*
X143217991Y-140423943D01*
X143159254Y-140322208D01*
X143128850Y-140208737D01*
X143125000Y-140150000D01*
X143125000Y-139350000D01*
X143128850Y-139291263D01*
X143159254Y-139177792D01*
X143217991Y-139076057D01*
X143301057Y-138992991D01*
X143402792Y-138934254D01*
X143516263Y-138903850D01*
X143633737Y-138903850D01*
X143747208Y-138934254D01*
G37*
G36*
X164691807Y-137684538D02*
G01*
X164878354Y-137745151D01*
X165053123Y-137834200D01*
X165211810Y-137949493D01*
X165350507Y-138088190D01*
X165465800Y-138246877D01*
X165554849Y-138421646D01*
X165615462Y-138608193D01*
X165646147Y-138801926D01*
X165646147Y-138998074D01*
X165615462Y-139191807D01*
X165554849Y-139378354D01*
X165465800Y-139553123D01*
X165350507Y-139711810D01*
X165211810Y-139850507D01*
X165053123Y-139965800D01*
X164878354Y-140054849D01*
X164691807Y-140115462D01*
X164498074Y-140146147D01*
X164301926Y-140146147D01*
X164108193Y-140115462D01*
X163921646Y-140054849D01*
X163746877Y-139965800D01*
X163588190Y-139850507D01*
X163449493Y-139711810D01*
X163334200Y-139553123D01*
X163245151Y-139378354D01*
X163184538Y-139191807D01*
X163153853Y-138998074D01*
X163153853Y-138801926D01*
X163184538Y-138608193D01*
X163245151Y-138421646D01*
X163334200Y-138246877D01*
X163449493Y-138088190D01*
X163588190Y-137949493D01*
X163746877Y-137834200D01*
X163921646Y-137745151D01*
X164108193Y-137684538D01*
X164301926Y-137653853D01*
X164498074Y-137653853D01*
X164691807Y-137684538D01*
G37*
G36*
X118791807Y-137534538D02*
G01*
X118978354Y-137595151D01*
X119153123Y-137684200D01*
X119311810Y-137799493D01*
X119450507Y-137938190D01*
X119565800Y-138096877D01*
X119654849Y-138271646D01*
X119715462Y-138458193D01*
X119746147Y-138651926D01*
X119746147Y-138848074D01*
X119715462Y-139041807D01*
X119654849Y-139228354D01*
X119565800Y-139403123D01*
X119450507Y-139561810D01*
X119311810Y-139700507D01*
X119153123Y-139815800D01*
X118978354Y-139904849D01*
X118791807Y-139965462D01*
X118598074Y-139996147D01*
X118401926Y-139996147D01*
X118208193Y-139965462D01*
X118021646Y-139904849D01*
X117846877Y-139815800D01*
X117688190Y-139700507D01*
X117549493Y-139561810D01*
X117434200Y-139403123D01*
X117345151Y-139228354D01*
X117284538Y-139041807D01*
X117253853Y-138848074D01*
X117253853Y-138651926D01*
X117284538Y-138458193D01*
X117345151Y-138271646D01*
X117434200Y-138096877D01*
X117549493Y-137938190D01*
X117688190Y-137799493D01*
X117846877Y-137684200D01*
X118021646Y-137595151D01*
X118208193Y-137534538D01*
X118401926Y-137503853D01*
X118598074Y-137503853D01*
X118791807Y-137534538D01*
G37*
G36*
X135097208Y-135204254D02*
G01*
X135198943Y-135262991D01*
X135282009Y-135346057D01*
X135340746Y-135447792D01*
X135371150Y-135561263D01*
X135375000Y-135620000D01*
X135375000Y-137120000D01*
X135371150Y-137178737D01*
X135340746Y-137292208D01*
X135282009Y-137393943D01*
X135198943Y-137477009D01*
X135097208Y-137535746D01*
X134983737Y-137566150D01*
X134866263Y-137566150D01*
X134752792Y-137535746D01*
X134651057Y-137477009D01*
X134567991Y-137393943D01*
X134509254Y-137292208D01*
X134478850Y-137178737D01*
X134475000Y-137120000D01*
X134475000Y-135620000D01*
X134478850Y-135561263D01*
X134509254Y-135447792D01*
X134567991Y-135346057D01*
X134651057Y-135262991D01*
X134752792Y-135204254D01*
X134866263Y-135173850D01*
X134983737Y-135173850D01*
X135097208Y-135204254D01*
G37*
G36*
X143747208Y-135204254D02*
G01*
X143848943Y-135262991D01*
X143932009Y-135346057D01*
X143990746Y-135447792D01*
X144021150Y-135561263D01*
X144025000Y-135620000D01*
X144025000Y-137120000D01*
X144021150Y-137178737D01*
X143990746Y-137292208D01*
X143932009Y-137393943D01*
X143848943Y-137477009D01*
X143747208Y-137535746D01*
X143633737Y-137566150D01*
X143516263Y-137566150D01*
X143402792Y-137535746D01*
X143301057Y-137477009D01*
X143217991Y-137393943D01*
X143159254Y-137292208D01*
X143128850Y-137178737D01*
X143125000Y-137120000D01*
X143125000Y-135620000D01*
X143128850Y-135561263D01*
X143159254Y-135447792D01*
X143217991Y-135346057D01*
X143301057Y-135262991D01*
X143402792Y-135204254D01*
X143516263Y-135173850D01*
X143633737Y-135173850D01*
X143747208Y-135204254D01*
G37*
G36*
X136399372Y-136439739D02*
G01*
X136472847Y-136482160D01*
X136532840Y-136542153D01*
X136575261Y-136615628D01*
X136597220Y-136697579D01*
X136597220Y-136782421D01*
X136575261Y-136864372D01*
X136532840Y-136937847D01*
X136472847Y-136997840D01*
X136399372Y-137040261D01*
X136317421Y-137062220D01*
X136232579Y-137062220D01*
X136150628Y-137040261D01*
X136077153Y-136997840D01*
X136017160Y-136937847D01*
X135974739Y-136864372D01*
X135952780Y-136782421D01*
X135952780Y-136697579D01*
X135974739Y-136615628D01*
X136017160Y-136542153D01*
X136077153Y-136482160D01*
X136150628Y-136439739D01*
X136232579Y-136417780D01*
X136317421Y-136417780D01*
X136399372Y-136439739D01*
G37*
G36*
X137249372Y-136439739D02*
G01*
X137322847Y-136482160D01*
X137382840Y-136542153D01*
X137425261Y-136615628D01*
X137447220Y-136697579D01*
X137447220Y-136782421D01*
X137425261Y-136864372D01*
X137382840Y-136937847D01*
X137322847Y-136997840D01*
X137249372Y-137040261D01*
X137167421Y-137062220D01*
X137082579Y-137062220D01*
X137000628Y-137040261D01*
X136927153Y-136997840D01*
X136867160Y-136937847D01*
X136824739Y-136864372D01*
X136802780Y-136782421D01*
X136802780Y-136697579D01*
X136824739Y-136615628D01*
X136867160Y-136542153D01*
X136927153Y-136482160D01*
X137000628Y-136439739D01*
X137082579Y-136417780D01*
X137167421Y-136417780D01*
X137249372Y-136439739D01*
G37*
G36*
X138099372Y-136439739D02*
G01*
X138172847Y-136482160D01*
X138232840Y-136542153D01*
X138275261Y-136615628D01*
X138297220Y-136697579D01*
X138297220Y-136782421D01*
X138275261Y-136864372D01*
X138232840Y-136937847D01*
X138172847Y-136997840D01*
X138099372Y-137040261D01*
X138017421Y-137062220D01*
X137932579Y-137062220D01*
X137850628Y-137040261D01*
X137777153Y-136997840D01*
X137717160Y-136937847D01*
X137674739Y-136864372D01*
X137652780Y-136782421D01*
X137652780Y-136697579D01*
X137674739Y-136615628D01*
X137717160Y-136542153D01*
X137777153Y-136482160D01*
X137850628Y-136439739D01*
X137932579Y-136417780D01*
X138017421Y-136417780D01*
X138099372Y-136439739D01*
G37*
G36*
X138949372Y-136439739D02*
G01*
X139022847Y-136482160D01*
X139082840Y-136542153D01*
X139125261Y-136615628D01*
X139147220Y-136697579D01*
X139147220Y-136782421D01*
X139125261Y-136864372D01*
X139082840Y-136937847D01*
X139022847Y-136997840D01*
X138949372Y-137040261D01*
X138867421Y-137062220D01*
X138782579Y-137062220D01*
X138700628Y-137040261D01*
X138627153Y-136997840D01*
X138567160Y-136937847D01*
X138524739Y-136864372D01*
X138502780Y-136782421D01*
X138502780Y-136697579D01*
X138524739Y-136615628D01*
X138567160Y-136542153D01*
X138627153Y-136482160D01*
X138700628Y-136439739D01*
X138782579Y-136417780D01*
X138867421Y-136417780D01*
X138949372Y-136439739D01*
G37*
G36*
X139799372Y-136439739D02*
G01*
X139872847Y-136482160D01*
X139932840Y-136542153D01*
X139975261Y-136615628D01*
X139997220Y-136697579D01*
X139997220Y-136782421D01*
X139975261Y-136864372D01*
X139932840Y-136937847D01*
X139872847Y-136997840D01*
X139799372Y-137040261D01*
X139717421Y-137062220D01*
X139632579Y-137062220D01*
X139550628Y-137040261D01*
X139477153Y-136997840D01*
X139417160Y-136937847D01*
X139374739Y-136864372D01*
X139352780Y-136782421D01*
X139352780Y-136697579D01*
X139374739Y-136615628D01*
X139417160Y-136542153D01*
X139477153Y-136482160D01*
X139550628Y-136439739D01*
X139632579Y-136417780D01*
X139717421Y-136417780D01*
X139799372Y-136439739D01*
G37*
G36*
X140649372Y-136439739D02*
G01*
X140722847Y-136482160D01*
X140782840Y-136542153D01*
X140825261Y-136615628D01*
X140847220Y-136697579D01*
X140847220Y-136782421D01*
X140825261Y-136864372D01*
X140782840Y-136937847D01*
X140722847Y-136997840D01*
X140649372Y-137040261D01*
X140567421Y-137062220D01*
X140482579Y-137062220D01*
X140400628Y-137040261D01*
X140327153Y-136997840D01*
X140267160Y-136937847D01*
X140224739Y-136864372D01*
X140202780Y-136782421D01*
X140202780Y-136697579D01*
X140224739Y-136615628D01*
X140267160Y-136542153D01*
X140327153Y-136482160D01*
X140400628Y-136439739D01*
X140482579Y-136417780D01*
X140567421Y-136417780D01*
X140649372Y-136439739D01*
G37*
G36*
X141499372Y-136439739D02*
G01*
X141572847Y-136482160D01*
X141632840Y-136542153D01*
X141675261Y-136615628D01*
X141697220Y-136697579D01*
X141697220Y-136782421D01*
X141675261Y-136864372D01*
X141632840Y-136937847D01*
X141572847Y-136997840D01*
X141499372Y-137040261D01*
X141417421Y-137062220D01*
X141332579Y-137062220D01*
X141250628Y-137040261D01*
X141177153Y-136997840D01*
X141117160Y-136937847D01*
X141074739Y-136864372D01*
X141052780Y-136782421D01*
X141052780Y-136697579D01*
X141074739Y-136615628D01*
X141117160Y-136542153D01*
X141177153Y-136482160D01*
X141250628Y-136439739D01*
X141332579Y-136417780D01*
X141417421Y-136417780D01*
X141499372Y-136439739D01*
G37*
G36*
X142349372Y-136439739D02*
G01*
X142422847Y-136482160D01*
X142482840Y-136542153D01*
X142525261Y-136615628D01*
X142547220Y-136697579D01*
X142547220Y-136782421D01*
X142525261Y-136864372D01*
X142482840Y-136937847D01*
X142422847Y-136997840D01*
X142349372Y-137040261D01*
X142267421Y-137062220D01*
X142182579Y-137062220D01*
X142100628Y-137040261D01*
X142027153Y-136997840D01*
X141967160Y-136937847D01*
X141924739Y-136864372D01*
X141902780Y-136782421D01*
X141902780Y-136697579D01*
X141924739Y-136615628D01*
X141967160Y-136542153D01*
X142027153Y-136482160D01*
X142100628Y-136439739D01*
X142182579Y-136417780D01*
X142267421Y-136417780D01*
X142349372Y-136439739D01*
G37*
G36*
X148391342Y-134838060D02*
G01*
X148504381Y-134903323D01*
X148596677Y-134995619D01*
X148661940Y-135108658D01*
X148695722Y-135234737D01*
X148695722Y-135365263D01*
X148661940Y-135491342D01*
X148596677Y-135604381D01*
X148504381Y-135696677D01*
X148391342Y-135761940D01*
X148265263Y-135795722D01*
X148134737Y-135795722D01*
X148008658Y-135761940D01*
X147895619Y-135696677D01*
X147803323Y-135604381D01*
X147738060Y-135491342D01*
X147704278Y-135365263D01*
X147704278Y-135234737D01*
X147738060Y-135108658D01*
X147803323Y-134995619D01*
X147895619Y-134903323D01*
X148008658Y-134838060D01*
X148134737Y-134804278D01*
X148265263Y-134804278D01*
X148391342Y-134838060D01*
G37*
G36*
X159391342Y-134838060D02*
G01*
X159504381Y-134903323D01*
X159596677Y-134995619D01*
X159661940Y-135108658D01*
X159695722Y-135234737D01*
X159695722Y-135365263D01*
X159661940Y-135491342D01*
X159596677Y-135604381D01*
X159504381Y-135696677D01*
X159391342Y-135761940D01*
X159265263Y-135795722D01*
X159134737Y-135795722D01*
X159008658Y-135761940D01*
X158895619Y-135696677D01*
X158803323Y-135604381D01*
X158738060Y-135491342D01*
X158704278Y-135365263D01*
X158704278Y-135234737D01*
X158738060Y-135108658D01*
X158803323Y-134995619D01*
X158895619Y-134903323D01*
X159008658Y-134838060D01*
X159134737Y-134804278D01*
X159265263Y-134804278D01*
X159391342Y-134838060D01*
G37*
G36*
X136399372Y-135089739D02*
G01*
X136472847Y-135132160D01*
X136532840Y-135192153D01*
X136575261Y-135265628D01*
X136597220Y-135347579D01*
X136597220Y-135432421D01*
X136575261Y-135514372D01*
X136532840Y-135587847D01*
X136472847Y-135647840D01*
X136399372Y-135690261D01*
X136317421Y-135712220D01*
X136232579Y-135712220D01*
X136150628Y-135690261D01*
X136077153Y-135647840D01*
X136017160Y-135587847D01*
X135974739Y-135514372D01*
X135952780Y-135432421D01*
X135952780Y-135347579D01*
X135974739Y-135265628D01*
X136017160Y-135192153D01*
X136077153Y-135132160D01*
X136150628Y-135089739D01*
X136232579Y-135067780D01*
X136317421Y-135067780D01*
X136399372Y-135089739D01*
G37*
G36*
X137249372Y-135089739D02*
G01*
X137322847Y-135132160D01*
X137382840Y-135192153D01*
X137425261Y-135265628D01*
X137447220Y-135347579D01*
X137447220Y-135432421D01*
X137425261Y-135514372D01*
X137382840Y-135587847D01*
X137322847Y-135647840D01*
X137249372Y-135690261D01*
X137167421Y-135712220D01*
X137082579Y-135712220D01*
X137000628Y-135690261D01*
X136927153Y-135647840D01*
X136867160Y-135587847D01*
X136824739Y-135514372D01*
X136802780Y-135432421D01*
X136802780Y-135347579D01*
X136824739Y-135265628D01*
X136867160Y-135192153D01*
X136927153Y-135132160D01*
X137000628Y-135089739D01*
X137082579Y-135067780D01*
X137167421Y-135067780D01*
X137249372Y-135089739D01*
G37*
G36*
X138099372Y-135089739D02*
G01*
X138172847Y-135132160D01*
X138232840Y-135192153D01*
X138275261Y-135265628D01*
X138297220Y-135347579D01*
X138297220Y-135432421D01*
X138275261Y-135514372D01*
X138232840Y-135587847D01*
X138172847Y-135647840D01*
X138099372Y-135690261D01*
X138017421Y-135712220D01*
X137932579Y-135712220D01*
X137850628Y-135690261D01*
X137777153Y-135647840D01*
X137717160Y-135587847D01*
X137674739Y-135514372D01*
X137652780Y-135432421D01*
X137652780Y-135347579D01*
X137674739Y-135265628D01*
X137717160Y-135192153D01*
X137777153Y-135132160D01*
X137850628Y-135089739D01*
X137932579Y-135067780D01*
X138017421Y-135067780D01*
X138099372Y-135089739D01*
G37*
G36*
X138949372Y-135089739D02*
G01*
X139022847Y-135132160D01*
X139082840Y-135192153D01*
X139125261Y-135265628D01*
X139147220Y-135347579D01*
X139147220Y-135432421D01*
X139125261Y-135514372D01*
X139082840Y-135587847D01*
X139022847Y-135647840D01*
X138949372Y-135690261D01*
X138867421Y-135712220D01*
X138782579Y-135712220D01*
X138700628Y-135690261D01*
X138627153Y-135647840D01*
X138567160Y-135587847D01*
X138524739Y-135514372D01*
X138502780Y-135432421D01*
X138502780Y-135347579D01*
X138524739Y-135265628D01*
X138567160Y-135192153D01*
X138627153Y-135132160D01*
X138700628Y-135089739D01*
X138782579Y-135067780D01*
X138867421Y-135067780D01*
X138949372Y-135089739D01*
G37*
G36*
X139799372Y-135089739D02*
G01*
X139872847Y-135132160D01*
X139932840Y-135192153D01*
X139975261Y-135265628D01*
X139997220Y-135347579D01*
X139997220Y-135432421D01*
X139975261Y-135514372D01*
X139932840Y-135587847D01*
X139872847Y-135647840D01*
X139799372Y-135690261D01*
X139717421Y-135712220D01*
X139632579Y-135712220D01*
X139550628Y-135690261D01*
X139477153Y-135647840D01*
X139417160Y-135587847D01*
X139374739Y-135514372D01*
X139352780Y-135432421D01*
X139352780Y-135347579D01*
X139374739Y-135265628D01*
X139417160Y-135192153D01*
X139477153Y-135132160D01*
X139550628Y-135089739D01*
X139632579Y-135067780D01*
X139717421Y-135067780D01*
X139799372Y-135089739D01*
G37*
G36*
X140649372Y-135089739D02*
G01*
X140722847Y-135132160D01*
X140782840Y-135192153D01*
X140825261Y-135265628D01*
X140847220Y-135347579D01*
X140847220Y-135432421D01*
X140825261Y-135514372D01*
X140782840Y-135587847D01*
X140722847Y-135647840D01*
X140649372Y-135690261D01*
X140567421Y-135712220D01*
X140482579Y-135712220D01*
X140400628Y-135690261D01*
X140327153Y-135647840D01*
X140267160Y-135587847D01*
X140224739Y-135514372D01*
X140202780Y-135432421D01*
X140202780Y-135347579D01*
X140224739Y-135265628D01*
X140267160Y-135192153D01*
X140327153Y-135132160D01*
X140400628Y-135089739D01*
X140482579Y-135067780D01*
X140567421Y-135067780D01*
X140649372Y-135089739D01*
G37*
G36*
X141499372Y-135089739D02*
G01*
X141572847Y-135132160D01*
X141632840Y-135192153D01*
X141675261Y-135265628D01*
X141697220Y-135347579D01*
X141697220Y-135432421D01*
X141675261Y-135514372D01*
X141632840Y-135587847D01*
X141572847Y-135647840D01*
X141499372Y-135690261D01*
X141417421Y-135712220D01*
X141332579Y-135712220D01*
X141250628Y-135690261D01*
X141177153Y-135647840D01*
X141117160Y-135587847D01*
X141074739Y-135514372D01*
X141052780Y-135432421D01*
X141052780Y-135347579D01*
X141074739Y-135265628D01*
X141117160Y-135192153D01*
X141177153Y-135132160D01*
X141250628Y-135089739D01*
X141332579Y-135067780D01*
X141417421Y-135067780D01*
X141499372Y-135089739D01*
G37*
G36*
X142349372Y-135089739D02*
G01*
X142422847Y-135132160D01*
X142482840Y-135192153D01*
X142525261Y-135265628D01*
X142547220Y-135347579D01*
X142547220Y-135432421D01*
X142525261Y-135514372D01*
X142482840Y-135587847D01*
X142422847Y-135647840D01*
X142349372Y-135690261D01*
X142267421Y-135712220D01*
X142182579Y-135712220D01*
X142100628Y-135690261D01*
X142027153Y-135647840D01*
X141967160Y-135587847D01*
X141924739Y-135514372D01*
X141902780Y-135432421D01*
X141902780Y-135347579D01*
X141924739Y-135265628D01*
X141967160Y-135192153D01*
X142027153Y-135132160D01*
X142100628Y-135089739D01*
X142182579Y-135067780D01*
X142267421Y-135067780D01*
X142349372Y-135089739D01*
G37*
G36*
X151768612Y-132330133D02*
G01*
X151778316Y-132330133D01*
X151806272Y-132337623D01*
X151874084Y-132351112D01*
X151906091Y-132364370D01*
X151929610Y-132370672D01*
X151950698Y-132382847D01*
X151982702Y-132396104D01*
X152040184Y-132434512D01*
X152065257Y-132448988D01*
X152072119Y-132455850D01*
X152080449Y-132461416D01*
X152163583Y-132544550D01*
X152169148Y-132552879D01*
X152176012Y-132559743D01*
X152190489Y-132584818D01*
X152228895Y-132642297D01*
X152242150Y-132674298D01*
X152254328Y-132695390D01*
X152260630Y-132718912D01*
X152273887Y-132750915D01*
X152287374Y-132818722D01*
X152294867Y-132846684D01*
X152295815Y-132861157D01*
X152297111Y-132867670D01*
X152299710Y-132920577D01*
X152300000Y-132925000D01*
X152300000Y-133475000D01*
X152299709Y-133479425D01*
X152297111Y-133532329D01*
X152295815Y-133538840D01*
X152294867Y-133553316D01*
X152287373Y-133581280D01*
X152273887Y-133649084D01*
X152260631Y-133681084D01*
X152254328Y-133704610D01*
X152242149Y-133725704D01*
X152228895Y-133757702D01*
X152190493Y-133815173D01*
X152176012Y-133840257D01*
X152169146Y-133847122D01*
X152163583Y-133855449D01*
X152080449Y-133938583D01*
X152072122Y-133944146D01*
X152065257Y-133951012D01*
X152040173Y-133965493D01*
X151982702Y-134003895D01*
X151950704Y-134017149D01*
X151929610Y-134029328D01*
X151906084Y-134035631D01*
X151874084Y-134048887D01*
X151806278Y-134062374D01*
X151778316Y-134069867D01*
X151768611Y-134069867D01*
X151758783Y-134071822D01*
X151641217Y-134071822D01*
X151631389Y-134069867D01*
X151621684Y-134069867D01*
X151593722Y-134062374D01*
X151525915Y-134048887D01*
X151493912Y-134035630D01*
X151470390Y-134029328D01*
X151449298Y-134017150D01*
X151417297Y-134003895D01*
X151359818Y-133965489D01*
X151334743Y-133951012D01*
X151327879Y-133944148D01*
X151319550Y-133938583D01*
X151236416Y-133855449D01*
X151230850Y-133847119D01*
X151223988Y-133840257D01*
X151209512Y-133815184D01*
X151171104Y-133757702D01*
X151157847Y-133725698D01*
X151145672Y-133704610D01*
X151139370Y-133681091D01*
X151126112Y-133649084D01*
X151112622Y-133581266D01*
X151105133Y-133553316D01*
X151104184Y-133538848D01*
X151102888Y-133532329D01*
X151100289Y-133479419D01*
X151100000Y-133475000D01*
X151100000Y-132925000D01*
X151100289Y-132920583D01*
X151102888Y-132867670D01*
X151104184Y-132861150D01*
X151105133Y-132846684D01*
X151112621Y-132818736D01*
X151126112Y-132750915D01*
X151139371Y-132718905D01*
X151145672Y-132695390D01*
X151157845Y-132674304D01*
X151171104Y-132642297D01*
X151209516Y-132584807D01*
X151223988Y-132559743D01*
X151230848Y-132552882D01*
X151236416Y-132544550D01*
X151319550Y-132461416D01*
X151327882Y-132455848D01*
X151334743Y-132448988D01*
X151359807Y-132434516D01*
X151417297Y-132396104D01*
X151449304Y-132382845D01*
X151470390Y-132370672D01*
X151493905Y-132364371D01*
X151525915Y-132351112D01*
X151593728Y-132337623D01*
X151621684Y-132330133D01*
X151631388Y-132330133D01*
X151641217Y-132328178D01*
X151758783Y-132328178D01*
X151768612Y-132330133D01*
G37*
G36*
X153768612Y-132330133D02*
G01*
X153778316Y-132330133D01*
X153806272Y-132337623D01*
X153874084Y-132351112D01*
X153906091Y-132364370D01*
X153929610Y-132370672D01*
X153950698Y-132382847D01*
X153982702Y-132396104D01*
X154040184Y-132434512D01*
X154065257Y-132448988D01*
X154072119Y-132455850D01*
X154080449Y-132461416D01*
X154163583Y-132544550D01*
X154169148Y-132552879D01*
X154176012Y-132559743D01*
X154190489Y-132584818D01*
X154228895Y-132642297D01*
X154242150Y-132674298D01*
X154254328Y-132695390D01*
X154260630Y-132718912D01*
X154273887Y-132750915D01*
X154287374Y-132818722D01*
X154294867Y-132846684D01*
X154295815Y-132861157D01*
X154297111Y-132867670D01*
X154299710Y-132920577D01*
X154300000Y-132925000D01*
X154300000Y-133475000D01*
X154299709Y-133479425D01*
X154297111Y-133532329D01*
X154295815Y-133538840D01*
X154294867Y-133553316D01*
X154287373Y-133581280D01*
X154273887Y-133649084D01*
X154260631Y-133681084D01*
X154254328Y-133704610D01*
X154242149Y-133725704D01*
X154228895Y-133757702D01*
X154190493Y-133815173D01*
X154176012Y-133840257D01*
X154169146Y-133847122D01*
X154163583Y-133855449D01*
X154080449Y-133938583D01*
X154072122Y-133944146D01*
X154065257Y-133951012D01*
X154040173Y-133965493D01*
X153982702Y-134003895D01*
X153950704Y-134017149D01*
X153929610Y-134029328D01*
X153906084Y-134035631D01*
X153874084Y-134048887D01*
X153806278Y-134062374D01*
X153778316Y-134069867D01*
X153768611Y-134069867D01*
X153758783Y-134071822D01*
X153641217Y-134071822D01*
X153631389Y-134069867D01*
X153621684Y-134069867D01*
X153593722Y-134062374D01*
X153525915Y-134048887D01*
X153493912Y-134035630D01*
X153470390Y-134029328D01*
X153449298Y-134017150D01*
X153417297Y-134003895D01*
X153359818Y-133965489D01*
X153334743Y-133951012D01*
X153327879Y-133944148D01*
X153319550Y-133938583D01*
X153236416Y-133855449D01*
X153230850Y-133847119D01*
X153223988Y-133840257D01*
X153209512Y-133815184D01*
X153171104Y-133757702D01*
X153157847Y-133725698D01*
X153145672Y-133704610D01*
X153139370Y-133681091D01*
X153126112Y-133649084D01*
X153112622Y-133581266D01*
X153105133Y-133553316D01*
X153104184Y-133538848D01*
X153102888Y-133532329D01*
X153100289Y-133479419D01*
X153100000Y-133475000D01*
X153100000Y-132925000D01*
X153100289Y-132920583D01*
X153102888Y-132867670D01*
X153104184Y-132861150D01*
X153105133Y-132846684D01*
X153112621Y-132818736D01*
X153126112Y-132750915D01*
X153139371Y-132718905D01*
X153145672Y-132695390D01*
X153157845Y-132674304D01*
X153171104Y-132642297D01*
X153209516Y-132584807D01*
X153223988Y-132559743D01*
X153230848Y-132552882D01*
X153236416Y-132544550D01*
X153319550Y-132461416D01*
X153327882Y-132455848D01*
X153334743Y-132448988D01*
X153359807Y-132434516D01*
X153417297Y-132396104D01*
X153449304Y-132382845D01*
X153470390Y-132370672D01*
X153493905Y-132364371D01*
X153525915Y-132351112D01*
X153593728Y-132337623D01*
X153621684Y-132330133D01*
X153631388Y-132330133D01*
X153641217Y-132328178D01*
X153758783Y-132328178D01*
X153768612Y-132330133D01*
G37*
G36*
X155768612Y-132330133D02*
G01*
X155778316Y-132330133D01*
X155806272Y-132337623D01*
X155874084Y-132351112D01*
X155906091Y-132364370D01*
X155929610Y-132370672D01*
X155950698Y-132382847D01*
X155982702Y-132396104D01*
X156040184Y-132434512D01*
X156065257Y-132448988D01*
X156072119Y-132455850D01*
X156080449Y-132461416D01*
X156163583Y-132544550D01*
X156169148Y-132552879D01*
X156176012Y-132559743D01*
X156190489Y-132584818D01*
X156228895Y-132642297D01*
X156242150Y-132674298D01*
X156254328Y-132695390D01*
X156260630Y-132718912D01*
X156273887Y-132750915D01*
X156287374Y-132818722D01*
X156294867Y-132846684D01*
X156295815Y-132861157D01*
X156297111Y-132867670D01*
X156299710Y-132920577D01*
X156300000Y-132925000D01*
X156300000Y-133475000D01*
X156299709Y-133479425D01*
X156297111Y-133532329D01*
X156295815Y-133538840D01*
X156294867Y-133553316D01*
X156287373Y-133581280D01*
X156273887Y-133649084D01*
X156260631Y-133681084D01*
X156254328Y-133704610D01*
X156242149Y-133725704D01*
X156228895Y-133757702D01*
X156190493Y-133815173D01*
X156176012Y-133840257D01*
X156169146Y-133847122D01*
X156163583Y-133855449D01*
X156080449Y-133938583D01*
X156072122Y-133944146D01*
X156065257Y-133951012D01*
X156040173Y-133965493D01*
X155982702Y-134003895D01*
X155950704Y-134017149D01*
X155929610Y-134029328D01*
X155906084Y-134035631D01*
X155874084Y-134048887D01*
X155806278Y-134062374D01*
X155778316Y-134069867D01*
X155768611Y-134069867D01*
X155758783Y-134071822D01*
X155641217Y-134071822D01*
X155631389Y-134069867D01*
X155621684Y-134069867D01*
X155593722Y-134062374D01*
X155525915Y-134048887D01*
X155493912Y-134035630D01*
X155470390Y-134029328D01*
X155449298Y-134017150D01*
X155417297Y-134003895D01*
X155359818Y-133965489D01*
X155334743Y-133951012D01*
X155327879Y-133944148D01*
X155319550Y-133938583D01*
X155236416Y-133855449D01*
X155230850Y-133847119D01*
X155223988Y-133840257D01*
X155209512Y-133815184D01*
X155171104Y-133757702D01*
X155157847Y-133725698D01*
X155145672Y-133704610D01*
X155139370Y-133681091D01*
X155126112Y-133649084D01*
X155112622Y-133581266D01*
X155105133Y-133553316D01*
X155104184Y-133538848D01*
X155102888Y-133532329D01*
X155100289Y-133479419D01*
X155100000Y-133475000D01*
X155100000Y-132925000D01*
X155100289Y-132920583D01*
X155102888Y-132867670D01*
X155104184Y-132861150D01*
X155105133Y-132846684D01*
X155112621Y-132818736D01*
X155126112Y-132750915D01*
X155139371Y-132718905D01*
X155145672Y-132695390D01*
X155157845Y-132674304D01*
X155171104Y-132642297D01*
X155209516Y-132584807D01*
X155223988Y-132559743D01*
X155230848Y-132552882D01*
X155236416Y-132544550D01*
X155319550Y-132461416D01*
X155327882Y-132455848D01*
X155334743Y-132448988D01*
X155359807Y-132434516D01*
X155417297Y-132396104D01*
X155449304Y-132382845D01*
X155470390Y-132370672D01*
X155493905Y-132364371D01*
X155525915Y-132351112D01*
X155593728Y-132337623D01*
X155621684Y-132330133D01*
X155631388Y-132330133D01*
X155641217Y-132328178D01*
X155758783Y-132328178D01*
X155768612Y-132330133D01*
G37*
G36*
X157768612Y-132330133D02*
G01*
X157778316Y-132330133D01*
X157806272Y-132337623D01*
X157874084Y-132351112D01*
X157906091Y-132364370D01*
X157929610Y-132370672D01*
X157950698Y-132382847D01*
X157982702Y-132396104D01*
X158040184Y-132434512D01*
X158065257Y-132448988D01*
X158072119Y-132455850D01*
X158080449Y-132461416D01*
X158163583Y-132544550D01*
X158169148Y-132552879D01*
X158176012Y-132559743D01*
X158190489Y-132584818D01*
X158228895Y-132642297D01*
X158242150Y-132674298D01*
X158254328Y-132695390D01*
X158260630Y-132718912D01*
X158273887Y-132750915D01*
X158287374Y-132818722D01*
X158294867Y-132846684D01*
X158295815Y-132861157D01*
X158297111Y-132867670D01*
X158299710Y-132920577D01*
X158300000Y-132925000D01*
X158300000Y-133475000D01*
X158299709Y-133479425D01*
X158297111Y-133532329D01*
X158295815Y-133538840D01*
X158294867Y-133553316D01*
X158287373Y-133581280D01*
X158273887Y-133649084D01*
X158260631Y-133681084D01*
X158254328Y-133704610D01*
X158242149Y-133725704D01*
X158228895Y-133757702D01*
X158190493Y-133815173D01*
X158176012Y-133840257D01*
X158169146Y-133847122D01*
X158163583Y-133855449D01*
X158080449Y-133938583D01*
X158072122Y-133944146D01*
X158065257Y-133951012D01*
X158040173Y-133965493D01*
X157982702Y-134003895D01*
X157950704Y-134017149D01*
X157929610Y-134029328D01*
X157906084Y-134035631D01*
X157874084Y-134048887D01*
X157806278Y-134062374D01*
X157778316Y-134069867D01*
X157768611Y-134069867D01*
X157758783Y-134071822D01*
X157641217Y-134071822D01*
X157631389Y-134069867D01*
X157621684Y-134069867D01*
X157593722Y-134062374D01*
X157525915Y-134048887D01*
X157493912Y-134035630D01*
X157470390Y-134029328D01*
X157449298Y-134017150D01*
X157417297Y-134003895D01*
X157359818Y-133965489D01*
X157334743Y-133951012D01*
X157327879Y-133944148D01*
X157319550Y-133938583D01*
X157236416Y-133855449D01*
X157230850Y-133847119D01*
X157223988Y-133840257D01*
X157209512Y-133815184D01*
X157171104Y-133757702D01*
X157157847Y-133725698D01*
X157145672Y-133704610D01*
X157139370Y-133681091D01*
X157126112Y-133649084D01*
X157112622Y-133581266D01*
X157105133Y-133553316D01*
X157104184Y-133538848D01*
X157102888Y-133532329D01*
X157100289Y-133479419D01*
X157100000Y-133475000D01*
X157100000Y-132925000D01*
X157100289Y-132920583D01*
X157102888Y-132867670D01*
X157104184Y-132861150D01*
X157105133Y-132846684D01*
X157112621Y-132818736D01*
X157126112Y-132750915D01*
X157139371Y-132718905D01*
X157145672Y-132695390D01*
X157157845Y-132674304D01*
X157171104Y-132642297D01*
X157209516Y-132584807D01*
X157223988Y-132559743D01*
X157230848Y-132552882D01*
X157236416Y-132544550D01*
X157319550Y-132461416D01*
X157327882Y-132455848D01*
X157334743Y-132448988D01*
X157359807Y-132434516D01*
X157417297Y-132396104D01*
X157449304Y-132382845D01*
X157470390Y-132370672D01*
X157493905Y-132364371D01*
X157525915Y-132351112D01*
X157593728Y-132337623D01*
X157621684Y-132330133D01*
X157631388Y-132330133D01*
X157641217Y-132328178D01*
X157758783Y-132328178D01*
X157768612Y-132330133D01*
G37*
G36*
X150054850Y-132438964D02*
G01*
X150105040Y-132444787D01*
X150122189Y-132452359D01*
X150145671Y-132457030D01*
X150170810Y-132473827D01*
X150190696Y-132482608D01*
X150204277Y-132496189D01*
X150226777Y-132511223D01*
X150241810Y-132533722D01*
X150255391Y-132547303D01*
X150264170Y-132567186D01*
X150280970Y-132592329D01*
X150285641Y-132615812D01*
X150293212Y-132632959D01*
X150299033Y-132683139D01*
X150300000Y-132688000D01*
X150300000Y-133712000D01*
X150299032Y-133716863D01*
X150293212Y-133767040D01*
X150285641Y-133784185D01*
X150280970Y-133807671D01*
X150264169Y-133832815D01*
X150255391Y-133852696D01*
X150241812Y-133866274D01*
X150226777Y-133888777D01*
X150204274Y-133903812D01*
X150190696Y-133917391D01*
X150170815Y-133926169D01*
X150145671Y-133942970D01*
X150122185Y-133947641D01*
X150105040Y-133955212D01*
X150054861Y-133961032D01*
X150050000Y-133962000D01*
X149350000Y-133962000D01*
X149345138Y-133961032D01*
X149294959Y-133955212D01*
X149277812Y-133947641D01*
X149254329Y-133942970D01*
X149229186Y-133926170D01*
X149209303Y-133917391D01*
X149195722Y-133903810D01*
X149173223Y-133888777D01*
X149158189Y-133866277D01*
X149144608Y-133852696D01*
X149135827Y-133832810D01*
X149119030Y-133807671D01*
X149114359Y-133784189D01*
X149106787Y-133767040D01*
X149100964Y-133716849D01*
X149100000Y-133712000D01*
X149100000Y-132688000D01*
X149100964Y-132683150D01*
X149106787Y-132632959D01*
X149114359Y-132615808D01*
X149119030Y-132592329D01*
X149135826Y-132567191D01*
X149144608Y-132547303D01*
X149158191Y-132533719D01*
X149173223Y-132511223D01*
X149195719Y-132496191D01*
X149209303Y-132482608D01*
X149229191Y-132473826D01*
X149254329Y-132457030D01*
X149277808Y-132452359D01*
X149294959Y-132444787D01*
X149345151Y-132438964D01*
X149350000Y-132438000D01*
X150050000Y-132438000D01*
X150054850Y-132438964D01*
G37*
G36*
X118541807Y-102034538D02*
G01*
X118728354Y-102095151D01*
X118903123Y-102184200D01*
X119061810Y-102299493D01*
X119200507Y-102438190D01*
X119315800Y-102596877D01*
X119404849Y-102771646D01*
X119465462Y-102958193D01*
X119496147Y-103151926D01*
X119496147Y-103348074D01*
X119465462Y-103541807D01*
X119404849Y-103728354D01*
X119315800Y-103903123D01*
X119200507Y-104061810D01*
X119061810Y-104200507D01*
X118903123Y-104315800D01*
X118728354Y-104404849D01*
X118541807Y-104465462D01*
X118348074Y-104496147D01*
X118151926Y-104496147D01*
X117958193Y-104465462D01*
X117771646Y-104404849D01*
X117596877Y-104315800D01*
X117438190Y-104200507D01*
X117299493Y-104061810D01*
X117184200Y-103903123D01*
X117095151Y-103728354D01*
X117034538Y-103541807D01*
X117003853Y-103348074D01*
X117003853Y-103151926D01*
X117034538Y-102958193D01*
X117095151Y-102771646D01*
X117184200Y-102596877D01*
X117299493Y-102438190D01*
X117438190Y-102299493D01*
X117596877Y-102184200D01*
X117771646Y-102095151D01*
X117958193Y-102034538D01*
X118151926Y-102003853D01*
X118348074Y-102003853D01*
X118541807Y-102034538D01*
G37*
G36*
X164691807Y-101884538D02*
G01*
X164878354Y-101945151D01*
X165053123Y-102034200D01*
X165211810Y-102149493D01*
X165350507Y-102288190D01*
X165465800Y-102446877D01*
X165554849Y-102621646D01*
X165615462Y-102808193D01*
X165646147Y-103001926D01*
X165646147Y-103198074D01*
X165615462Y-103391807D01*
X165554849Y-103578354D01*
X165465800Y-103753123D01*
X165350507Y-103911810D01*
X165211810Y-104050507D01*
X165053123Y-104165800D01*
X164878354Y-104254849D01*
X164691807Y-104315462D01*
X164498074Y-104346147D01*
X164301926Y-104346147D01*
X164108193Y-104315462D01*
X163921646Y-104254849D01*
X163746877Y-104165800D01*
X163588190Y-104050507D01*
X163449493Y-103911810D01*
X163334200Y-103753123D01*
X163245151Y-103578354D01*
X163184538Y-103391807D01*
X163153853Y-103198074D01*
X163153853Y-103001926D01*
X163184538Y-102808193D01*
X163245151Y-102621646D01*
X163334200Y-102446877D01*
X163449493Y-102288190D01*
X163588190Y-102149493D01*
X163746877Y-102034200D01*
X163921646Y-101945151D01*
X164108193Y-101884538D01*
X164301926Y-101853853D01*
X164498074Y-101853853D01*
X164691807Y-101884538D01*
G37*
G36*
X154004850Y-101400964D02*
G01*
X154055040Y-101406787D01*
X154072189Y-101414359D01*
X154095671Y-101419030D01*
X154120810Y-101435827D01*
X154140696Y-101444608D01*
X154154277Y-101458189D01*
X154176777Y-101473223D01*
X154191810Y-101495722D01*
X154205391Y-101509303D01*
X154214170Y-101529186D01*
X154230970Y-101554329D01*
X154235641Y-101577812D01*
X154243212Y-101594959D01*
X154249033Y-101645139D01*
X154250000Y-101650000D01*
X154250000Y-102550000D01*
X154249032Y-102554863D01*
X154243212Y-102605040D01*
X154235641Y-102622185D01*
X154230970Y-102645671D01*
X154214169Y-102670815D01*
X154205391Y-102690696D01*
X154191812Y-102704274D01*
X154176777Y-102726777D01*
X154154274Y-102741812D01*
X154140696Y-102755391D01*
X154120815Y-102764169D01*
X154095671Y-102780970D01*
X154072185Y-102785641D01*
X154055040Y-102793212D01*
X154004861Y-102799032D01*
X154000000Y-102800000D01*
X153350000Y-102800000D01*
X153345138Y-102799032D01*
X153294959Y-102793212D01*
X153277812Y-102785641D01*
X153254329Y-102780970D01*
X153229186Y-102764170D01*
X153209303Y-102755391D01*
X153195722Y-102741810D01*
X153173223Y-102726777D01*
X153158189Y-102704277D01*
X153144608Y-102690696D01*
X153135827Y-102670810D01*
X153119030Y-102645671D01*
X153114359Y-102622189D01*
X153106787Y-102605040D01*
X153100964Y-102554849D01*
X153100000Y-102550000D01*
X153100000Y-101650000D01*
X153100964Y-101645150D01*
X153106787Y-101594959D01*
X153114359Y-101577808D01*
X153119030Y-101554329D01*
X153135826Y-101529191D01*
X153144608Y-101509303D01*
X153158191Y-101495719D01*
X153173223Y-101473223D01*
X153195719Y-101458191D01*
X153209303Y-101444608D01*
X153229191Y-101435826D01*
X153254329Y-101419030D01*
X153277808Y-101414359D01*
X153294959Y-101406787D01*
X153345151Y-101400964D01*
X153350000Y-101400000D01*
X154000000Y-101400000D01*
X154004850Y-101400964D01*
G37*
G36*
X156054850Y-101400964D02*
G01*
X156105040Y-101406787D01*
X156122189Y-101414359D01*
X156145671Y-101419030D01*
X156170810Y-101435827D01*
X156190696Y-101444608D01*
X156204277Y-101458189D01*
X156226777Y-101473223D01*
X156241810Y-101495722D01*
X156255391Y-101509303D01*
X156264170Y-101529186D01*
X156280970Y-101554329D01*
X156285641Y-101577812D01*
X156293212Y-101594959D01*
X156299033Y-101645139D01*
X156300000Y-101650000D01*
X156300000Y-102550000D01*
X156299032Y-102554863D01*
X156293212Y-102605040D01*
X156285641Y-102622185D01*
X156280970Y-102645671D01*
X156264169Y-102670815D01*
X156255391Y-102690696D01*
X156241812Y-102704274D01*
X156226777Y-102726777D01*
X156204274Y-102741812D01*
X156190696Y-102755391D01*
X156170815Y-102764169D01*
X156145671Y-102780970D01*
X156122185Y-102785641D01*
X156105040Y-102793212D01*
X156054861Y-102799032D01*
X156050000Y-102800000D01*
X155400000Y-102800000D01*
X155395138Y-102799032D01*
X155344959Y-102793212D01*
X155327812Y-102785641D01*
X155304329Y-102780970D01*
X155279186Y-102764170D01*
X155259303Y-102755391D01*
X155245722Y-102741810D01*
X155223223Y-102726777D01*
X155208189Y-102704277D01*
X155194608Y-102690696D01*
X155185827Y-102670810D01*
X155169030Y-102645671D01*
X155164359Y-102622189D01*
X155156787Y-102605040D01*
X155150964Y-102554849D01*
X155150000Y-102550000D01*
X155150000Y-101650000D01*
X155150964Y-101645150D01*
X155156787Y-101594959D01*
X155164359Y-101577808D01*
X155169030Y-101554329D01*
X155185826Y-101529191D01*
X155194608Y-101509303D01*
X155208191Y-101495719D01*
X155223223Y-101473223D01*
X155245719Y-101458191D01*
X155259303Y-101444608D01*
X155279191Y-101435826D01*
X155304329Y-101419030D01*
X155327808Y-101414359D01*
X155344959Y-101406787D01*
X155395151Y-101400964D01*
X155400000Y-101400000D01*
X156050000Y-101400000D01*
X156054850Y-101400964D01*
G37*
G36*
X158804850Y-101400964D02*
G01*
X158855040Y-101406787D01*
X158872189Y-101414359D01*
X158895671Y-101419030D01*
X158920810Y-101435827D01*
X158940696Y-101444608D01*
X158954277Y-101458189D01*
X158976777Y-101473223D01*
X158991810Y-101495722D01*
X159005391Y-101509303D01*
X159014170Y-101529186D01*
X159030970Y-101554329D01*
X159035641Y-101577812D01*
X159043212Y-101594959D01*
X159049033Y-101645139D01*
X159050000Y-101650000D01*
X159050000Y-102550000D01*
X159049032Y-102554863D01*
X159043212Y-102605040D01*
X159035641Y-102622185D01*
X159030970Y-102645671D01*
X159014169Y-102670815D01*
X159005391Y-102690696D01*
X158991812Y-102704274D01*
X158976777Y-102726777D01*
X158954274Y-102741812D01*
X158940696Y-102755391D01*
X158920815Y-102764169D01*
X158895671Y-102780970D01*
X158872185Y-102785641D01*
X158855040Y-102793212D01*
X158804861Y-102799032D01*
X158800000Y-102800000D01*
X158150000Y-102800000D01*
X158145138Y-102799032D01*
X158094959Y-102793212D01*
X158077812Y-102785641D01*
X158054329Y-102780970D01*
X158029186Y-102764170D01*
X158009303Y-102755391D01*
X157995722Y-102741810D01*
X157973223Y-102726777D01*
X157958189Y-102704277D01*
X157944608Y-102690696D01*
X157935827Y-102670810D01*
X157919030Y-102645671D01*
X157914359Y-102622189D01*
X157906787Y-102605040D01*
X157900964Y-102554849D01*
X157900000Y-102550000D01*
X157900000Y-101650000D01*
X157900964Y-101645150D01*
X157906787Y-101594959D01*
X157914359Y-101577808D01*
X157919030Y-101554329D01*
X157935826Y-101529191D01*
X157944608Y-101509303D01*
X157958191Y-101495719D01*
X157973223Y-101473223D01*
X157995719Y-101458191D01*
X158009303Y-101444608D01*
X158029191Y-101435826D01*
X158054329Y-101419030D01*
X158077808Y-101414359D01*
X158094959Y-101406787D01*
X158145151Y-101400964D01*
X158150000Y-101400000D01*
X158800000Y-101400000D01*
X158804850Y-101400964D01*
G37*
G36*
X160854850Y-101400964D02*
G01*
X160905040Y-101406787D01*
X160922189Y-101414359D01*
X160945671Y-101419030D01*
X160970810Y-101435827D01*
X160990696Y-101444608D01*
X161004277Y-101458189D01*
X161026777Y-101473223D01*
X161041810Y-101495722D01*
X161055391Y-101509303D01*
X161064170Y-101529186D01*
X161080970Y-101554329D01*
X161085641Y-101577812D01*
X161093212Y-101594959D01*
X161099033Y-101645139D01*
X161100000Y-101650000D01*
X161100000Y-102550000D01*
X161099032Y-102554863D01*
X161093212Y-102605040D01*
X161085641Y-102622185D01*
X161080970Y-102645671D01*
X161064169Y-102670815D01*
X161055391Y-102690696D01*
X161041812Y-102704274D01*
X161026777Y-102726777D01*
X161004274Y-102741812D01*
X160990696Y-102755391D01*
X160970815Y-102764169D01*
X160945671Y-102780970D01*
X160922185Y-102785641D01*
X160905040Y-102793212D01*
X160854861Y-102799032D01*
X160850000Y-102800000D01*
X160200000Y-102800000D01*
X160195138Y-102799032D01*
X160144959Y-102793212D01*
X160127812Y-102785641D01*
X160104329Y-102780970D01*
X160079186Y-102764170D01*
X160059303Y-102755391D01*
X160045722Y-102741810D01*
X160023223Y-102726777D01*
X160008189Y-102704277D01*
X159994608Y-102690696D01*
X159985827Y-102670810D01*
X159969030Y-102645671D01*
X159964359Y-102622189D01*
X159956787Y-102605040D01*
X159950964Y-102554849D01*
X159950000Y-102550000D01*
X159950000Y-101650000D01*
X159950964Y-101645150D01*
X159956787Y-101594959D01*
X159964359Y-101577808D01*
X159969030Y-101554329D01*
X159985826Y-101529191D01*
X159994608Y-101509303D01*
X160008191Y-101495719D01*
X160023223Y-101473223D01*
X160045719Y-101458191D01*
X160059303Y-101444608D01*
X160079191Y-101435826D01*
X160104329Y-101419030D01*
X160127808Y-101414359D01*
X160144959Y-101406787D01*
X160195151Y-101400964D01*
X160200000Y-101400000D01*
X160850000Y-101400000D01*
X160854850Y-101400964D01*
G37*
M02*
